<?xml version="1.0" encoding="utf-8"?>
<!-- Generator: Adobe Illustrator 20.1.0, SVG Export Plug-In . SVG Version: 6.00 Build 0)  -->
<svg version="1.2" baseProfile="tiny" id="Camada_1"
	 xmlns="http://www.w3.org/2000/svg" xmlns:xlink="http://www.w3.org/1999/xlink" x="0px" y="0px" viewBox="0 0 200 100"
	 overflow="scroll" xml:space="preserve">
<g id="XMLID_7805_">

		<text id="XMLID_7851_" fill="#FFFFFF" transform="matrix(0.8958 0 0 1 65.2475 50.7405)" font-family="'ArialRoundedMTBold'" font-size="30.1628px">AESA</text>
	<path id="XMLID_7802_" fill="#FFFFFF"  d="M68.3,33.3c0,0-3.7,2.8-6.3,3c-4,0.3-5.3-1.5-6-3c-0.7-1.4-0.6-2.6,0.4-3.4c1-0.8,2.8,0.2,3.4,1.6
		s1.7,2.6,3.3,2.8C64.7,34.4,68.3,33.3,68.3,33.3z"/>
	<path id="XMLID_7815_" fill="#FFFFFF"  d="M67.8,30.4c0,0-4.5-1.5-6.3-3.6c-2.6-3.2-2-5.3-1.2-6.8c0.7-1.4,1.8-2,3-1.7c1.3,0.4,1.6,2.5,0.8,3.8
		c-0.8,1.3-1.1,2.9-0.3,4.4C64.7,28.1,67.8,30.4,67.8,30.4z"/>
	<path id="XMLID_7822_" fill="#FFFFFF"  d="M69.4,28.9c0,0-1.3-4.8-0.5-7.6c1.2-4.2,3.4-5.1,5.1-5.3c1.5-0.3,2.7,0.3,3.1,1.5
		c0.4,1.3-1.2,2.9-2.7,3.1c-1.5,0.2-3.1,0.9-3.9,2.5S69.4,28.9,69.4,28.9z"/>
	<path id="XMLID_7823_" fill="#FFFFFF"  d="M71.3,28.9c0,0,2.2-4.4,4.5-5.7c3.5-2,5.6-0.7,7,0.5c1.2,1.1,1.7,2.4,1.2,3.6c-0.6,1.3-2.7,1-3.9-0.1
		c-1.2-1.1-2.7-1.9-4.4-1.4C74.1,26.2,71.3,28.9,71.3,28.9z"/>
	<text transform="matrix(1 0 0 1 60.5503 64.6429)" fill="#FFFFFF" font-family="'Humanist777BT-BlackB'" font-size="7.5721px">A</text>
	<text transform="matrix(1 0 0 1 65.896 64.6429)" fill="#FFFFFF" font-family="'Humanist777BT-BlackB'" font-size="7.5721px">G</text>
	<text transform="matrix(1 0 0 1 71.643 64.6429)" fill="#FFFFFF" font-family="'Humanist777BT-BlackB'" font-size="7.5721px">Ê</text>
	<text transform="matrix(1 0 0 1 76.2695 64.6429)" fill="#FFFFFF" font-family="'Humanist777BT-BlackB'" font-size="7.5721px">N</text>
	<text transform="matrix(1 0 0 1 82.0927 64.6429)" fill="#FFFFFF" font-family="'Humanist777BT-BlackB'" font-size="7.5721px">C</text>
	<text transform="matrix(1 0 0 1 87.2641 64.6429)" fill="#FFFFFF" font-family="'Humanist777BT-BlackB'" font-size="7.5721px">I</text>
	<text transform="matrix(1 0 0 1 89.6797 64.6429)" fill="#FFFFFF" font-family="'Humanist777BT-BlackB'" font-size="7.5721px">A</text>
	<text transform="matrix(1 0 0 1 95.0254 64.6429)" fill="#FFFFFF" font-family="'Humanist777BT-BlackB'" font-size="7.5721px"> </text>
	<text transform="matrix(1 0 0 1 97.3579 64.6429)" fill="#FFFFFF" font-family="'Humanist777BT-BlackB'" font-size="7.5721px">E</text>
	<text transform="matrix(1 0 0 1 101.9839 64.6429)" fill="#FFFFFF" font-family="'Humanist777BT-BlackB'" font-size="7.5721px">X</text>
	<text transform="matrix(1 0 0 1 107.209 64.6429)" fill="#FFFFFF" font-family="'Humanist777BT-BlackB'" font-size="7.5721px">E</text>
	<text transform="matrix(1 0 0 1 111.8354 64.6429)" fill="#FFFFFF" font-family="'Humanist777BT-BlackB'" font-size="7.5721px">C</text>
	<text transform="matrix(1 0 0 1 117.0068 64.6429)" fill="#FFFFFF" font-family="'Humanist777BT-BlackB'" font-size="7.5721px">U</text>
	<text transform="matrix(1 0 0 1 122.4736 64.6429)" fill="#FFFFFF" font-family="'Humanist777BT-BlackB'" font-size="7.5721px">T</text>
	<text transform="matrix(1 0 0 1 126.6611 64.6429)" fill="#FFFFFF" font-family="'Humanist777BT-BlackB'" font-size="7.5721px">I</text>
	<text transform="matrix(1 0 0 1 129.0766 64.6429)" fill="#FFFFFF" font-family="'Humanist777BT-BlackB'" font-size="7.5721px">V</text>
	<text transform="matrix(1 0 0 1 134.1045 64.6429)" fill="#FFFFFF" font-family="'Humanist777BT-BlackB'" font-size="7.5721px">A</text>
	<text transform="matrix(1 0 0 1 55.1704 73.5091)" fill="#FFFFFF" font-family="'Humanist777BT-BlackB'" font-size="7.5721px">D</text>
	<text transform="matrix(1 0 0 1 60.9404 73.5091)" fill="#FFFFFF" font-family="'Humanist777BT-BlackB'" font-size="7.5721px">E</text>
	<text transform="matrix(1 0 0 1 65.5669 73.5091)" fill="#FFFFFF" font-family="'Humanist777BT-BlackB'" font-size="7.5721px"> </text>
	<text transform="matrix(1 0 0 1 67.8989 73.5091)" fill="#FFFFFF" font-family="'Humanist777BT-BlackB'" font-size="7.5721px">G</text>
	<text transform="matrix(1 0 0 1 73.646 73.5091)" fill="#FFFFFF" font-family="'Humanist777BT-BlackB'" font-size="7.5721px">E</text>
	<text transform="matrix(1 0 0 1 78.2724 73.5091)" fill="#FFFFFF" font-family="'Humanist777BT-BlackB'" font-size="7.5721px">S</text>
	<text transform="matrix(1 0 0 1 82.8154 73.5091)" fill="#FFFFFF" font-family="'Humanist777BT-BlackB'" font-size="7.5721px">T</text>
	<text transform="matrix(1 0 0 1 87.0029 73.5091)" fill="#FFFFFF" font-family="'Humanist777BT-BlackB'" font-size="7.5721px">Ã</text>
	<text transform="matrix(1 0 0 1 92.3486 73.5091)" fill="#FFFFFF" font-family="'Humanist777BT-BlackB'" font-size="7.5721px">O</text>
	<text transform="matrix(1 0 0 1 98.2021 73.5091)" fill="#FFFFFF" font-family="'Humanist777BT-BlackB'" font-size="7.5721px"> </text>
	<text transform="matrix(1 0 0 1 100.5341 73.5091)" fill="#FFFFFF" font-family="'Humanist777BT-BlackB'" font-size="7.5721px">D</text>
	<text transform="matrix(1 0 0 1 106.3042 73.5091)" fill="#FFFFFF" font-family="'Humanist777BT-BlackB'" font-size="7.5721px">A</text>
	<text transform="matrix(1 0 0 1 111.6499 73.5091)" fill="#FFFFFF" font-family="'Humanist777BT-BlackB'" font-size="7.5721px">S</text>
	<text transform="matrix(1 0 0 1 116.1928 73.5091)" fill="#FFFFFF" font-family="'Humanist777BT-BlackB'" font-size="7.5721px"> </text>
	<text transform="matrix(1 0 0 1 118.5249 73.5091)" fill="#FFFFFF" font-family="'Humanist777BT-BlackB'" font-size="7.5721px">Á</text>
	<text transform="matrix(1 0 0 1 123.8711 73.5091)" fill="#FFFFFF" font-family="'Humanist777BT-BlackB'" font-size="7.5721px">G</text>
	<text transform="matrix(1 0 0 1 129.6181 73.5091)" fill="#FFFFFF" font-family="'Humanist777BT-BlackB'" font-size="7.5721px">U</text>
	<text transform="matrix(1 0 0 1 134.9409 73.5091)" fill="#FFFFFF" font-family="'Humanist777BT-BlackB'" font-size="7.5721px">A</text>
	<text transform="matrix(1 0 0 1 140.2871 73.5091)" fill="#FFFFFF" font-family="'Humanist777BT-BlackB'" font-size="7.5721px">S</text>
	<text transform="matrix(1 0 0 1 70.5786 82.1595)" fill="#FFFFFF" font-family="'Carlito-Bold'" font-size="6.925px">E</text>
	<text transform="matrix(1 0 0 1 73.8891 82.1595)" fill="#FFFFFF" font-family="'Carlito-Bold'" font-size="6.925px">S</text>
	<text transform="matrix(1 0 0 1 77.0942 82.1595)" fill="#FFFFFF" font-family="'Carlito-Bold'" font-size="6.925px">T</text>
	<text transform="matrix(1 0 0 1 79.979 82.1595)" fill="#FFFFFF" font-family="'Carlito-Bold'" font-size="6.925px">A</text>
	<text transform="matrix(1 0 0 1 84.1748 82.1595)" fill="#FFFFFF" font-family="'Carlito-Bold'" font-size="6.925px">D</text>
	<text transform="matrix(1 0 0 1 88.5405 82.1595)" fill="#FFFFFF" font-family="'Carlito-Bold'" font-size="6.925px">O</text>
	<text transform="matrix(1 0 0 1 93.2236 82.1595)" fill="#FFFFFF" font-family="'Carlito-Bold'" font-size="6.925px"> </text>
	<text transform="matrix(1 0 0 1 94.789 82.1595)" fill="#FFFFFF" font-family="'Carlito-Bold'" font-size="6.925px">D</text>
	<text transform="matrix(1 0 0 1 98.9922 82.1595)" fill="#FFFFFF" font-family="'Carlito-Bold'" font-size="6.925px">A</text>
	<text transform="matrix(1 0 0 1 103.1884 82.1595)" fill="#FFFFFF" font-family="'Carlito-Bold'" font-size="6.925px"> </text>
	<text transform="matrix(1 0 0 1 104.7539 82.1595)" fill="#FFFFFF" font-family="'Carlito-Bold'" font-size="6.925px">P</text>
	<text transform="matrix(1 0 0 1 107.9697 82.1595)" fill="#FFFFFF" font-family="'Carlito-Bold'" font-size="6.925px">A</text>
	<text transform="matrix(1 0 0 1 112.166 82.1595)" fill="#FFFFFF" font-family="'Carlito-Bold'" font-size="6.925px">R</text>
	<text transform="matrix(1 0 0 1 116.0644 82.1595)" fill="#FFFFFF" font-family="'Carlito-Bold'" font-size="6.925px">A</text>
	<text transform="matrix(1 0 0 1 120.2607 82.1595)" fill="#FFFFFF" font-family="'Carlito-Bold'" font-size="6.925px">Í</text>
	<text transform="matrix(1 0 0 1 122.1069 82.1595)" fill="#FFFFFF" font-family="'Carlito-Bold'" font-size="6.925px">B</text>
	<text transform="matrix(1 0 0 1 125.9214 82.1595)" fill="#FFFFFF" font-family="'Carlito-Bold'" font-size="6.925px">A</text>
</g>
</svg>
