<svg id="Camada_1" data-name="Camada 1" xmlns="http://www.w3.org/2000/svg" viewBox="0 0 190.34 104.83"><defs><style>.cls-1{font-size:46.12px;font-family:ArialRoundedMTBold, ArialRoundedMTBold;}.cls-1,.cls-2,.cls-3,.cls-9{fill:#fff;}.cls-3{font-size:11.58px;font-family:Humanist777BT-BlackB, Humanist777BT BlackB;}.cls-4{letter-spacing:-0.01em;}.cls-5{letter-spacing:-0.06em;}.cls-6{letter-spacing:-0.07em;}.cls-7{letter-spacing:-0.01em;}.cls-8{letter-spacing:-0.03em;}.cls-9{font-size:10.59px;font-family:Carlito-Bold, Carlito;font-weight:700;}.cls-10{letter-spacing:-0.01em;}.cls-11{letter-spacing:-0.08em;}.cls-12{letter-spacing:-0.02em;}.cls-13{letter-spacing:0em;}.cls-14{letter-spacing:-0.07em;}</style></defs><title>aesa</title><g id="_Grupo_" data-name="&lt;Grupo&gt;"><text class="cls-1" transform="translate(36.24 53.48) scale(1.11 1)">AESA</text><path id="_Caminho_" data-name="&lt;Caminho&gt;" class="cls-2" d="M42,26.77s-7,4.32-12,4.62c-7.48.45-10-2.34-11.43-4.62-1.29-2.08-1.09-4,.74-5.21s5.35.3,6.45,2.38A7.83,7.83,0,0,0,32,28.26C35.15,28.56,42,26.77,42,26.77Z"/><path id="_Caminho_2" data-name="&lt;Caminho&gt;" class="cls-2" d="M41.13,22.45S32.55,20.21,29.24,17c-5-4.82-3.71-8.18-2.28-10.47A5.12,5.12,0,0,1,32.64,4c2.44.58,2.94,3.81,1.51,5.78s-2.14,4.48-.55,6.78S41.13,22.45,41.13,22.45Z"/><path id="_Caminho_3" data-name="&lt;Caminho&gt;" class="cls-2" d="M44,20s-2.48-7.36-1-11.68C45.27,1.86,49.46.63,52.63.18c2.91-.41,5.1.4,5.82,2.34S56.14,7,53.3,7.21,47.46,8.54,46,11.1,44,20,44,20Z"/><path id="_Caminho_4" data-name="&lt;Caminho&gt;" class="cls-2" d="M47.68,20.08s4.1-6.68,8.56-8.67c6.7-3,10.62-1.07,13.2.72,2.36,1.64,3.25,3.64,2.22,5.44s-5.13,1.52-7.33-.18a9.74,9.74,0,0,0-8.24-2.17C53,16,47.68,20.08,47.68,20.08Z"/><text class="cls-3" transform="translate(39.92 74.74) scale(1.24 1)"><tspan class="cls-4">A</tspan><tspan x="6.91" y="0">GÊNCIA EXECUTI</tspan><tspan class="cls-5" x="87.46" y="0">V</tspan><tspan x="93.26" y="0">A</tspan><tspan x="-6.85" y="13.56">DE GES</tspan><tspan class="cls-6" x="27.89" y="13.56">T</tspan><tspan class="cls-4" x="32.78" y="13.56">Ã</tspan><tspan x="39.69" y="13.56">O </tspan><tspan class="cls-7" x="50.12" y="13.56">D</tspan><tspan x="57.67" y="13.56">AS </tspan><tspan class="cls-4" x="72.92" y="13.56">Á</tspan><tspan x="79.83" y="13.56">G</tspan><tspan class="cls-8" x="87.31" y="13.56">U</tspan><tspan x="94.41" y="13.56">AS</tspan></text><text class="cls-9" transform="translate(46.33 101.52) scale(1.24 1)"><tspan class="cls-10">ES</tspan><tspan class="cls-11" x="9.96" y="0">T</tspan><tspan x="14.37" y="0">ADO </tspan><tspan class="cls-12" x="37.02" y="0">D</tspan><tspan class="cls-13" x="43.45" y="0">A </tspan><tspan class="cls-14" x="52.26" y="0">P</tspan><tspan class="cls-13" x="57.17" y="0">ARAÍ</tspan><tspan class="cls-10" x="78.79" y="0">B</tspan><tspan class="cls-13" x="84.62" y="0">A</tspan></text></g></svg>