<?xml version="1.0" encoding="utf-8"?>
<!-- Generator: Adobe Illustrator 20.1.0, SVG Export Plug-In . SVG Version: 6.00 Build 0)  -->
<svg version="1.2" baseProfile="tiny" id="Camada_1"
	 xmlns="http://www.w3.org/2000/svg" xmlns:xlink="http://www.w3.org/1999/xlink" x="0px" y="0px" viewBox="0 0 200 100"
	 overflow="scroll" xml:space="preserve">
<g id="XMLID_7793_">
	<g id="XMLID_7792_">
		<path id="XMLID_8069_" fill="#FFFFFF" d="M69.8,35.3c1.8,1.6,2.8,3.6,4,5.4c1.7,2.5,3.3,5,5,7.4c0.6,0.8,1.5,1.1,2.5,1c1.1-0.1,1.9-0.8,2.8-1.3
			c1.9-1.2,3.9-2.4,5.8-3.7c1.5-1,3-1.9,4.5-2.9c1.3-0.9,2.7-1.7,4-2.6c0.5-0.3,0.7-0.2,0.8,0.4c0,0,0,0,0,0.1c0,1.7,0,1.7-1.4,2.7
			c-3.3,2.1-6.6,4.2-9.9,6.4c-2.3,1.5-4.6,3-6.9,4.4c-1.3,0.7-2.6,1.3-4.1,1.4c-1.5,0.1-2.8-0.4-4-1.2c-1.2-0.8-1.8-2-2.6-3.1
			c-1-1.3-1.9-2.7-2.8-4.1c-1.2-1.8-2.4-3.5-3.6-5.3c-0.6-0.9-1.7-1.3-2.8-1c-1.4,0.3-2.4,1.2-3.5,1.9c-1.3,0.8-2.6,1.7-3.8,2.5
			c-1.8,1.2-3.7,2.4-5.5,3.6c-0.9,0.6-1.9,1.2-2.8,1.8c-0.4,0.3-0.6,0.2-0.6-0.3c0-0.5,0-1,0-1.5c0-0.5,0.3-0.7,0.7-0.9
			c1.7-1.1,3.5-2.3,5.2-3.4c3.1-2,6.1-4.1,9.2-6.1c1.8-1.2,3.7-2.4,5.5-3.6c0.9-0.6,2-0.6,3-0.6c1.2-0.1,2.4,0,3.6,0.2
			c0.1,0,0.3,0.1,0.4,0c0.1-0.1-0.1-0.2-0.1-0.3c-0.5-0.9-1.1-1.7-2.1-2.1c-0.4-0.2-0.8-0.2-1.3-0.1c-1.1,0.4-2.2,1-3.2,1.7
			c-1.9,1.2-3.8,2.4-5.7,3.6c-2.7,1.7-5.4,3.4-8,5.2c-1.6,1-3.2,2-4.8,3c-0.4,0.3-0.8,0.6-1.3,0.8c-0.4,0.3-0.7,0.2-0.7-0.3
			c0-0.4,0-0.8,0-1.3c0-0.3,0.2-0.5,0.4-0.7c1.5-1,3.1-2,4.6-2.9c0.9-0.6,1.9-1.2,2.8-1.8c3.6-2.3,7.2-4.6,10.7-6.9
			c2.1-1.4,4.2-2.8,6.4-4c1.2-0.7,2.5-1.2,3.9-1.3c1.4-0.1,2.6,0.5,3.7,1.4c1,0.9,1.6,2,2.4,3.1c1.2,1.7,2.4,3.5,3.6,5.3
			c0.9,1.3,1.8,2.6,2.6,3.9c1,1.6,2.4,1.8,4,1c1.6-0.8,3-1.8,4.5-2.7c1.3-0.8,2.6-1.6,3.9-2.4c0.5-0.3,0.6-0.2,0.7,0.4
			c0.3,1.4-0.7,1.8-1.6,2.4c-2.1,1.4-4.3,2.8-6.4,4.3c-1.5,1-3.1,2.1-4.9,2.7c-2.1,0.7-4.2,0.7-6.1-0.8c-1-0.8-1.6-1.8-2.3-2.8
			c-0.6-0.8-1.2-1.7-1.8-2.5c-0.6-0.8-1.6-1.3-2.4-1.7c-1.1-0.6-2.3-1.2-3.6-1.5C70.1,35.3,70,35.3,69.8,35.3z"/>
		<path id="XMLID_8068_" fill="#FFFFFF" d="M70.7,61.7c-2.5,0.1-4.1-1-5.4-2.8c-0.6-0.9-1.3-1.8-1.8-2.7c-0.9-1.6-2.5-2.3-4-3.1
			c-1.4-0.8-3-1.3-4.6-1.5c-1.6-0.3-3.3-0.2-4.9,0.2c-0.4,0.1-0.8,0.2-1.2,0.3c-0.1,0-0.3,0.1-0.4-0.1c-0.1-0.2,0-0.3,0.2-0.4
			c0.4-0.3,0.9-0.5,1.3-0.9c2.2-1.8,4.7-2,7.4-1.6c0.3,0.1,0.7,0.1,1,0.2c0.1,0,0.2,0.1,0.3-0.1c0.1-0.1,0-0.2-0.1-0.3
			c-0.1-0.1-0.2-0.2-0.3-0.3c-1.2-2.3-3.2-1.9-4.7-0.9c-2.4,1.5-4.7,3-7.1,4.5c-0.4,0.2-0.7,0.5-1.1,0.7c-0.3,0.2-0.5,0.1-0.5-0.3
			c0,0,0-0.1,0-0.1c-0.3-1.5,0.4-2.4,1.7-3.2c3.2-1.9,6.3-4,9.5-6c1.1-0.7,2.4-1.2,3.8-1.5c1.7-0.3,3.1,0.3,4.4,1.4
			c1.2,1,1.9,2.4,2.8,3.7c1.6,2.3,3.1,4.6,4.7,7c0.4,0.7,0.9,1.3,1.3,2c0.8,1.1,2,1.4,3.2,0.9c1.6-0.6,2.8-1.7,4.3-2.5
			c2.5-1.5,5-3.2,7.5-4.8c2.6-1.7,5.2-3.3,7.8-5c0.9-0.6,1.8-1.2,2.8-1.8c0.4-0.2,0.6-0.1,0.6,0.3c0,0.6,0,1.2,0,1.8
			c0,0.3-0.2,0.5-0.4,0.7c-2.3,1.5-4.7,2.9-7,4.4c-2.9,1.8-5.8,3.7-8.7,5.6c-2.6,1.7-5.3,3.4-8,5C73.7,61.2,72.2,61.8,70.7,61.7z"/>
		<path id="XMLID_8067_" fill="#FFFFFF" d="M123.7,36.1c0,3.5,0,6.9,0,10.3c0,0.8,0,1.7,0,2.5c0,0.4-0.2,0.6-0.6,0.6c0,0,0,0-0.1,0
			c-2.2,0-2,0.2-2-1.8c0-5,0-10.1,0-15.1c0-1.1,0.1-1.1,1.1-1.1c1.9,0,1.4-0.3,2.5,1.3c2.6,3.9,5.3,7.8,7.9,11.7
			c0.1,0.1,0.2,0.3,0.3,0.4c0.2-0.2,0.1-0.5,0.1-0.7c0-3.9,0-7.8,0-11.8c0-1,0-1,1-1c1.6,0,1.6-0.2,1.6,1.6c0,5.2,0,10.3,0,15.5
			c0,1,0,0.9-1,1.1c-1.2,0.1-1.9-0.4-2.5-1.4c-2.6-4-5.3-7.9-8-11.9C123.9,36.2,123.8,36.2,123.7,36.1z"/>
		<path id="XMLID_8064_" fill="#FFFFFF" d="M117.8,49.5c-1.4,0-1.4,0-1.9-1.4c-0.4-1.2-0.9-2.3-1.3-3.5c-0.1-0.4-0.4-0.6-0.8-0.6c-2,0-4,0-6.1,0
			c-0.5,0-0.7,0.2-0.8,0.6c-0.5,1.4-1,2.7-1.5,4.1c-0.2,0.5-0.4,0.8-1,0.7c-0.4,0-0.9,0-1.3,0c-0.6,0-0.7-0.2-0.5-0.7
			c0.6-1.6,1.3-3.3,1.9-4.9c1.4-3.8,2.9-7.6,4.3-11.4c0.4-1,0.4-1,1.4-1c1.7,0,1.7,0,2.4,1.6c2.1,5.3,4.3,10.5,6.4,15.8
			c0.3,0.6,0.2,0.7-0.5,0.7C118.3,49.5,118.1,49.5,117.8,49.5z M110.7,34.2c-0.3,0.6-0.3,1-0.5,1.5c-0.6,1.9-1.4,3.8-2.1,5.7
			c-0.2,0.5-0.1,0.7,0.4,0.6c1.4,0,2.9,0,4.3,0c0.6,0,0.7-0.1,0.5-0.7c-0.4-1.2-0.9-2.4-1.3-3.6C111.6,36.6,111.2,35.4,110.7,34.2z"
			/>
		<path id="XMLID_8007_" fill="#FFFFFF" d="M152.5,49.5c-1.6,0-1.3,0.2-1.9-1.3c-0.4-1.2-0.9-2.3-1.3-3.5c-0.2-0.5-0.4-0.7-1-0.7c-2,0-3.9,0-5.9,0
			c-0.5,0-0.7,0.2-0.9,0.7c-0.5,1.5-1,2.9-1.6,4.3c-0.1,0.3-0.3,0.4-0.6,0.4c-0.6,0-1.1,0-1.7,0c-0.4,0-0.6-0.2-0.4-0.6
			c0.8-2,1.5-3.9,2.3-5.9c1.4-3.6,2.7-7.2,4.1-10.7c0.2-0.6,0.5-0.9,1.2-0.8c0.4,0,0.7,0,1.1,0c0.6-0.1,0.9,0.2,1.1,0.8
			c1.9,4.6,3.8,9.2,5.6,13.9c0.4,0.9,0.7,1.9,1.1,2.8c0.2,0.4,0.1,0.7-0.4,0.7C153.1,49.5,152.8,49.5,152.5,49.5z M145.4,34.3
			c-0.3,0.1-0.2,0.3-0.3,0.4c-0.3,1-0.6,2.1-1,3c-0.5,1.2-0.9,2.4-1.4,3.6c-0.1,0.4-0.1,0.6,0.4,0.6c1.5,0,3.1,0,4.6,0
			c0.4,0,0.5-0.1,0.3-0.5c-0.6-1.5-1.1-2.9-1.6-4.4C146.1,36.1,145.8,35.2,145.4,34.3z"/>
	</g>
	<text transform="matrix(1 0 0 1 44.7352 71.847)" fill="#FFFFFF" font-family="'Calibri-Bold'" font-size="8.2045px">A</text>
	<text transform="matrix(1 0 0 1 49.6068 71.847)" fill="#FFFFFF" font-family="'Calibri-Bold'" font-size="8.2045px">G</text>
	<text transform="matrix(1 0 0 1 54.8348 71.847)" fill="#FFFFFF" font-family="'Calibri-Bold'" font-size="8.2045px">Ê</text>
	<text transform="matrix(1 0 0 1 58.8368 71.847)" fill="#FFFFFF" font-family="'Calibri-Bold'" font-size="8.2045px">N</text>
	<text transform="matrix(1 0 0 1 64.2411 71.847)" fill="#FFFFFF" font-family="'Calibri-Bold'" font-size="8.2045px">C</text>
	<text transform="matrix(1 0 0 1 68.5839 71.847)" fill="#FFFFFF" font-family="'Calibri-Bold'" font-size="8.2045px">I</text>
	<text transform="matrix(1 0 0 1 70.7709 71.847)" fill="#FFFFFF" font-family="'Calibri-Bold'" font-size="8.2045px">A</text>
	<text transform="matrix(1 0 0 1 75.7426 71.847)" fill="#FFFFFF" font-family="'Calibri-Bold'" font-size="8.2045px"> </text>
	<text transform="matrix(1 0 0 1 77.5975 71.847)" fill="#FFFFFF" font-family="'Calibri-Bold'" font-size="8.2045px">N</text>
	<text transform="matrix(1 0 0 1 83.0018 71.847)" fill="#FFFFFF" font-family="'Calibri-Bold'" font-size="8.2045px">A</text>
	<text transform="matrix(1 0 0 1 87.8773 71.847)" fill="#FFFFFF" font-family="'Calibri-Bold'" font-size="8.2045px">C</text>
	<text transform="matrix(1 0 0 1 92.2196 71.847)" fill="#FFFFFF" font-family="'Calibri-Bold'" font-size="8.2045px">I</text>
	<text transform="matrix(1 0 0 1 94.4071 71.847)" fill="#FFFFFF" font-family="'Calibri-Bold'" font-size="8.2045px">O</text>
	<text transform="matrix(1 0 0 1 99.9554 71.847)" fill="#FFFFFF" font-family="'Calibri-Bold'" font-size="8.2045px">N</text>
	<text transform="matrix(1 0 0 1 105.3597 71.847)" fill="#FFFFFF" font-family="'Calibri-Bold'" font-size="8.2045px">A</text>
	<text transform="matrix(1 0 0 1 110.3314 71.847)" fill="#FFFFFF" font-family="'Calibri-Bold'" font-size="8.2045px">L</text>
	<text transform="matrix(1 0 0 1 113.8007 71.847)" fill="#FFFFFF" font-family="'Calibri-Bold'" font-size="8.2045px"> </text>
	<text transform="matrix(1 0 0 1 115.6556 71.847)" fill="#FFFFFF" font-family="'Calibri-Bold'" font-size="8.2045px">D</text>
	<text transform="matrix(1 0 0 1 120.6351 71.847)" fill="#FFFFFF" font-family="'Calibri-Bold'" font-size="8.2045px">A</text>
	<text transform="matrix(1 0 0 1 125.6068 71.847)" fill="#FFFFFF" font-family="'Calibri-Bold'" font-size="8.2045px">S</text>
	<text transform="matrix(1 0 0 1 129.4847 71.847)" fill="#FFFFFF" font-family="'Calibri-Bold'" font-size="8.2045px"> </text>
	<text transform="matrix(1 0 0 1 131.3392 71.847)" fill="#FFFFFF" font-family="'Calibri-Bold'" font-size="8.2045px">Á</text>
	<text transform="matrix(1 0 0 1 136.2108 71.847)" fill="#FFFFFF" font-family="'Calibri-Bold'" font-size="8.2045px">G</text>
	<text transform="matrix(1 0 0 1 141.4388 71.847)" fill="#FFFFFF" font-family="'Calibri-Bold'" font-size="8.2045px">U</text>
	<text transform="matrix(1 0 0 1 146.5746 71.847)" fill="#FFFFFF" font-family="'Calibri-Bold'" font-size="8.2045px">A</text>
	<text transform="matrix(1 0 0 1 151.5463 71.847)" fill="#FFFFFF" font-family="'Calibri-Bold'" font-size="8.2045px">S</text>
</g>
</svg>
