<svg id="Camada_1" data-name="Camada 1" xmlns="http://www.w3.org/2000/svg" viewBox="0 0 190.34 104.83"><defs><style>.cls-1,.cls-2{fill:#fff;}.cls-2{font-size:12.07px;font-family:Calibri-Bold, Calibri;font-weight:700;}.cls-3{letter-spacing:-0.01em;}.cls-4{letter-spacing:0em;}.cls-5{letter-spacing:-0.01em;}.cls-6{letter-spacing:-0.02em;}.cls-7{letter-spacing:0em;}.cls-8{letter-spacing:-0.03em;}</style></defs><title>ana</title><g id="_Grupo_" data-name="&lt;Grupo&gt;"><g id="_Grupo_2" data-name="&lt;Grupo&gt;"><path id="_Caminho_" data-name="&lt;Caminho&gt;" class="cls-1" d="M44.09,30.79c3,2.39,4.71,5.3,6.81,8,2.87,3.61,5.58,7.32,8.43,10.95A4.46,4.46,0,0,0,63.5,51.1a12,12,0,0,0,4.68-1.91c3.27-1.77,6.52-3.57,9.76-5.38,2.52-1.41,5-2.85,7.54-4.27q3.39-1.91,6.8-3.8c.88-.49,1.24-.32,1.29.57,0,0,0,.06,0,.09.08,2.56.07,2.54-2.43,3.94Q82.79,45,74.47,49.71c-3.89,2.2-7.71,4.48-11.73,6.49a18.57,18.57,0,0,1-6.93,2.05A11.67,11.67,0,0,1,49,56.42c-2-1.15-3.07-2.91-4.38-4.51-1.62-2-3.2-4-4.79-6Q36.75,42,33.67,38.17A4.59,4.59,0,0,0,29,36.65c-2.3.47-4.05,1.78-6,2.84-2.18,1.22-4.33,2.48-6.49,3.72l-9.3,5.32Q4.9,49.88,2.53,51.19c-.69.38-1,.25-1-.47s0-1.49,0-2.23.59-1.06,1.16-1.38c2.93-1.68,5.9-3.32,8.83-5,5.2-3,10.34-6.07,15.58-9l9.28-5.23a11.16,11.16,0,0,1,5-1,25.92,25.92,0,0,1,6,.34c.21,0,.49.19.64-.06s-.11-.33-.21-.47a7.81,7.81,0,0,0-3.55-3.11,3,3,0,0,0-2.17-.08A30.57,30.57,0,0,0,36.66,26c-3.17,1.79-6.4,3.5-9.59,5.27C22.53,33.76,18,36.3,13.47,38.82c-2.67,1.48-5.36,2.94-8,4.42-.72.4-1.42.82-2.13,1.22s-1.11.25-1.17-.46a16.75,16.75,0,0,1,0-1.87,1.2,1.2,0,0,1,.7-1l7.73-4.34c1.6-.9,3.19-1.82,4.81-2.71,6.09-3.34,12.1-6.79,18.17-10.16,3.59-2,7.14-4,10.81-5.93a16.37,16.37,0,0,1,6.56-1.89,9.5,9.5,0,0,1,6.24,2.08,23.16,23.16,0,0,1,4,4.49c2.09,2.56,4,5.21,6.05,7.83,1.46,1.9,3,3.77,4.36,5.71,1.64,2.32,4.08,2.7,6.8,1.54s5-2.62,7.55-3.93c2.22-1.16,4.4-2.39,6.61-3.56.86-.46,1-.28,1.23.55.49,2-1.14,2.69-2.62,3.54-3.61,2.07-7.19,4.19-10.8,6.26a35.23,35.23,0,0,1-8.21,3.93c-3.57,1-7.06,1-10.3-1.12a17.13,17.13,0,0,1-3.93-4.05c-1-1.24-2-2.51-3-3.72a11.7,11.7,0,0,0-4.14-2.56,25.76,25.76,0,0,0-6-2.21Z"/><path id="_Caminho_2" data-name="&lt;Caminho&gt;" class="cls-1" d="M45.6,69.56a10.73,10.73,0,0,1-9.14-4.09,40.94,40.94,0,0,1-3.11-4c-1.54-2.34-4.18-3.42-6.71-4.61a28.59,28.59,0,0,0-7.82-2.27,20.21,20.21,0,0,0-8.2.35l-2,.48c-.23.06-.49.15-.62-.11s.08-.41.27-.52C9,54.39,9.83,54,10.5,53.55c3.69-2.71,8-3,12.46-2.31l1.72.25c.16,0,.35.09.45-.08s-.05-.28-.16-.4a3.51,3.51,0,0,1-.45-.49c-2-3.33-5.36-2.78-8-1.37-4,2.14-8,4.43-12,6.65-.6.34-1.18.71-1.8,1s-.93.18-.88-.47a.63.63,0,0,0,0-.18c-.51-2.28.7-3.58,2.92-4.74,5.44-2.84,10.7-5.95,16.07-8.88a18.92,18.92,0,0,1,6.35-2.15,9.68,9.68,0,0,1,7.45,2c2,1.49,3.21,3.52,4.66,5.38,2.67,3.4,5.31,6.83,8,10.25C48,59,48.72,60,49.48,61a4.73,4.73,0,0,0,5.44,1.3c2.62-.93,4.81-2.49,7.2-3.74,4.29-2.26,8.49-4.66,12.72-7L88,44.19c1.55-.86,3.1-1.74,4.66-2.6.67-.37,1-.21,1.06.48,0,.86,0,1.72,0,2.59a1.1,1.1,0,0,1-.7,1c-4,2.15-7.94,4.3-11.88,6.48-4.92,2.72-9.81,5.48-14.74,8.2-4.46,2.46-8.9,5-13.45,7.29C50.65,68.84,48.13,69.84,45.6,69.56Z"/><path id="_Caminho_3" data-name="&lt;Caminho&gt;" class="cls-1" d="M135.17,31.9c0,5.16,0,10.12,0,15.08,0,1.25,0,2.5,0,3.75,0,.63-.32.94-1,.95H134c-3.78,0-3.34.31-3.34-2.72q0-11.11,0-22.22c0-1.56.1-1.66,1.82-1.64,3.18,0,2.36-.37,4.15,1.93q6.69,8.6,13.35,17.23c.16.21.36.4.56.62.33-.36.2-.69.2-1q0-8.65,0-17.31c0-1.43,0-1.48,1.65-1.47,2.73,0,2.65-.33,2.65,2.32q0,11.38,0,22.75c0,1.51,0,1.38-1.68,1.55a4.28,4.28,0,0,1-4.3-2c-4.41-5.87-9-11.66-13.46-17.48A3.26,3.26,0,0,0,135.17,31.9Z"/><path id="_Caminho_composto_" data-name="&lt;Caminho composto&gt;" class="cls-1" d="M125.27,51.69c-2.44,0-2.43,0-3.23-2-.7-1.74-1.46-3.45-2.15-5.19a1.22,1.22,0,0,0-1.35-.83q-5.12,0-10.25,0a1.29,1.29,0,0,0-1.42.88c-.8,2-1.66,4-2.45,6a1.51,1.51,0,0,1-1.7,1.1c-.75,0-1.5,0-2.25,0-1,0-1.16-.29-.82-1.07,1.06-2.41,2.14-4.82,3.19-7.23q3.67-8.4,7.33-16.81c.64-1.46.63-1.46,2.43-1.46,2.9,0,2.91,0,4,2.3Q122,39,127.44,50.59c.44.94.32,1.07-.83,1.09Zm-12-22.57a8.86,8.86,0,0,0-.84,2.21c-1.05,2.82-2.3,5.58-3.53,8.35-.31.69-.22,1,.71.95,2.42,0,4.85,0,7.27,0,1.06,0,1.15-.14.79-1-.75-1.75-1.5-3.5-2.24-5.25S114,31,113.27,29.12Z"/><path id="_Caminho_composto_2" data-name="&lt;Caminho composto&gt;" class="cls-1" d="M184,51.68c-2.73,0-2.22.23-3.15-1.91-.74-1.69-1.49-3.38-2.2-5.09a1.52,1.52,0,0,0-1.65-1c-3.31,0-6.63,0-9.94,0a1.34,1.34,0,0,0-1.51,1c-.81,2.14-1.77,4.24-2.65,6.36a1,1,0,0,1-1.09.65H158.9c-.76,0-.94-.27-.66-.9,1.29-2.88,2.55-5.77,3.81-8.65,2.31-5.27,4.64-10.53,6.92-15.81a1.73,1.73,0,0,1,2-1.22,9.38,9.38,0,0,0,1.84,0,1.67,1.67,0,0,1,1.91,1.1c3.15,6.8,6.34,13.59,9.52,20.38.64,1.38,1.26,2.76,1.92,4.13.32.66.11,1-.7,1Zm-12-22.3c-.43.15-.4.42-.48.63-.58,1.49-1,3-1.69,4.47-.86,1.74-1.56,3.54-2.35,5.31-.25.56-.15.83.62.83,2.59,0,5.19,0,7.78,0,.66,0,.82-.18.57-.76-1-2.16-1.86-4.33-2.78-6.5Z"/></g><text class="cls-2" transform="translate(1.74 84.55) scale(1.15 1)"><tspan class="cls-3">A</tspan><tspan class="cls-4" x="7.17" y="0">GÊNCIA N</tspan><tspan class="cls-5" x="56.29" y="0">A</tspan><tspan x="63.47" y="0">CIONAL </tspan><tspan class="cls-6" x="104.33" y="0">D</tspan><tspan class="cls-7" x="111.66" y="0">AS </tspan><tspan class="cls-3" x="127.41" y="0">Á</tspan><tspan x="134.57" y="0">G</tspan><tspan class="cls-8" x="142.26" y="0">U</tspan><tspan x="149.82" y="0">AS</tspan></text></g></svg>