<?xml version="1.0" encoding="utf-8"?>
<!-- Generator: Adobe Illustrator 20.1.0, SVG Export Plug-In . SVG Version: 6.00 Build 0)  -->
<svg version="1.2" baseProfile="tiny" id="Camada_1"
	 xmlns="http://www.w3.org/2000/svg" xmlns:xlink="http://www.w3.org/1999/xlink" x="0px" y="0px" viewBox="0 0 200 100"
	 overflow="scroll" xml:space="preserve">
<g>
	<g>
		<g>
			<path fill="#FFFFFF" d="M57.6,68.4c0.9,0,1.7-0.3,2.2-0.5l-0.2-1.1c-0.4,0.2-0.9,0.5-1.5,0.5c-0.8,0-1.2-0.3-1.2-1.5V52.9h-1.6
				V66C55.3,67.8,56.1,68.4,57.6,68.4z"/>
			<path fill="#FFFFFF" d="M65.5,68.4c1.6,0,3-0.7,3.8-1.6c0.2,1.1,0.8,1.6,2,1.6c0.7,0,1.5-0.3,1.9-0.5l-0.2-1.1
				c-0.4,0.3-0.8,0.5-1.2,0.5c-0.7,0-1-0.5-1-1.4V57h-1.6v1.2c-0.8-0.9-2.3-1.4-3.7-1.4c-3.4,0-5.5,2.3-5.5,5.9
				C60.1,66.2,62.2,68.4,65.5,68.4z M65.9,58c1.4,0,2.6,0.8,3.3,1.5v6.1c-0.7,0.8-1.8,1.5-3.3,1.5c-2.6,0-4.2-1.7-4.2-4.5
				C61.7,59.8,63.3,58,65.9,58z"/>
			<path fill="#FFFFFF" d="M74.4,52.9v15.3H76V67c0.8,0.8,2.1,1.5,3.8,1.5c3.2,0,5.4-2.2,5.4-5.9c0-3.7-2.1-5.8-5.4-5.8
				c-1.6,0-3,0.6-3.8,1.4v-5.2L74.4,52.9L74.4,52.9z M79.4,58c2.6,0,4.2,1.7,4.2,4.6c0,2.8-1.6,4.5-4.2,4.5c-1.4,0-2.7-0.7-3.3-1.5
				v-6.2C76.7,58.7,77.9,58,79.4,58z"/>
			<path fill="#FFFFFF" d="M66.3,83.1c-0.7,0-1-0.5-1-1.4v-8.8h-1.6v1.2c-0.8-0.9-2.3-1.4-3.7-1.4c-3.4,0-5.5,2.2-5.5,5.9
				c0,3.6,2.1,5.8,5.4,5.8c1.6,0,3-0.7,3.8-1.6c0.2,1.1,0.8,1.6,2,1.6c0.7,0,1.5-0.3,1.9-0.5l-0.2-1.1
				C67.1,82.9,66.7,83.1,66.3,83.1z M63.7,81.5c-0.7,0.8-1.8,1.5-3.3,1.5c-2.6,0-4.2-1.7-4.2-4.5c0-2.9,1.6-4.6,4.2-4.6
				c1.4,0,2.6,0.8,3.3,1.5V81.5z"/>
			<path fill="#FFFFFF" d="M79.8,83.1c-0.7,0-1-0.3-1-1.1v-4.9c0-2.8-1.4-4.4-4.2-4.4c-1.9,0-3.3,0.7-4.1,2v-1.8h-1.6v11.2h1.6v-7.5
				c0.5-1.5,1.7-2.7,3.5-2.7c2.1,0,3.1,1.2,3.1,3.3v4.9c0,1.5,0.7,2.1,2.1,2.1c0.8,0,1.5-0.3,1.9-0.5l-0.2-1.1
				C80.6,82.9,80.2,83.1,79.8,83.1z"/>
			<path fill="#FFFFFF" d="M93.3,83.1c-0.7,0-1-0.5-1-1.4v-8.8h-1.6v1.2c-0.8-0.9-2.3-1.4-3.7-1.4c-3.4,0-5.5,2.3-5.5,5.9
				c0,3.6,2.1,5.8,5.4,5.8c1.6,0,3-0.7,3.8-1.6c0.2,1.1,0.8,1.6,2,1.6c0.7,0,1.5-0.3,1.9-0.5l-0.2-1.1
				C94.1,82.9,93.7,83.1,93.3,83.1z M90.6,81.5c-0.7,0.8-1.8,1.5-3.3,1.5c-2.6,0-4.2-1.7-4.2-4.5c0-2.9,1.6-4.6,4.2-4.6
				c1.4,0,2.6,0.8,3.3,1.5V81.5z"/>
			<path fill="#FFFFFF" d="M100.1,82.7c-0.4,0.2-0.9,0.5-1.5,0.5c-0.8,0-1.2-0.3-1.2-1.5V68.9h-1.6V82c0,1.7,0.8,2.4,2.3,2.4
				c0.9,0,1.7-0.3,2.2-0.5L100.1,82.7z"/>
			<path fill="#FFFFFF" d="M116.1,83.1c-1.3,0-2-0.6-2-2v-7h4.6v-1.1H114v-2.9h-1.4l-0.2,2.9H111h-0.8h-0.9l-3.9,9.7l-4.3-9.7h-1.8
				l5.4,11.2l-0.4,0.9c-0.6,1.5-1.2,2.3-2.6,2.3c-1,0-1.6-0.2-2.2-0.5l-0.3,1.1c0.5,0.3,1.4,0.6,2.5,0.6c2.2,0,3.1-1.2,4-3.1
				l4.7-11.2h1.9v7.2c0,2.2,1.3,3.1,3.3,3.1c1.4,0,2.5-0.4,3.5-1l-0.5-1.1C118,82.7,117,83.1,116.1,83.1z"/>
			<path fill="#FFFFFF" d="M123.1,83.1c-0.7,0-0.9-0.3-0.9-1.1v-9.1h-1.6v9.4c0,1.5,0.7,2.1,2.1,2.1c0.8,0,1.5-0.3,1.9-0.5l-0.2-1.1
				C124,82.9,123.6,83.1,123.1,83.1z"/>
			<path fill="#FFFFFF" d="M122.4,69.7l7.9-3.9c0.2,0.2,0.5,0.3,0.8,0.3c0.5,0,1-0.4,1-0.9c0-0.3-0.2-0.5-0.4-0.7l6.6-18.6
				c0,0,0.1,0,0.1,0c0.5,0,1-0.4,1-0.9c0-0.5-0.4-0.9-1-0.9c0,0-0.1,0-0.1,0l-16.4-31.3c0.2-0.2,0.4-0.4,0.4-0.7
				c0-0.5-0.4-0.9-1-0.9c-0.5,0-1,0.4-1,0.9c0,0.3,0.2,0.6,0.6,0.8l-7.9,43.6c-0.3,0-0.6,0.2-0.7,0.4L73.8,46c0,0,0-0.1,0-0.1
				c0-0.5-0.4-0.9-1-0.9c-0.6,0-1,0.4-1,0.9c0,0.5,0.4,0.9,1,0.9c0.3,0,0.5-0.1,0.7-0.3l46.7,23.1c0,0,0,0,0,0c0,0.7,0.5,1,1.1,1
				C122,70.6,122.4,70.4,122.4,69.7z M113.4,56.8l5.9-32.8l1.7-9.2l0.2,53.9c-0.1,0-0.2,0-0.3,0.1l-4.2-6.3l0,0l-2.9-4.3
				c0.2-0.2,0.3-0.4,0.3-0.6C114,57.2,113.7,56.9,113.4,56.8z M131.1,64.5c-0.5,0-1,0.4-1,0.9c0,0.1,0,0.1,0,0.2l-7.7,3.8
				c0-0.1-0.1-0.2-0.1-0.2l15.2-22.5l-6.3,17.9C131.1,64.5,131.1,64.5,131.1,64.5z M120.4,69c-0.1,0.1-0.1,0.2-0.2,0.2L76.6,47.6
				l39.6,15.1L120.4,69z M137.3,45.3c0,0.2,0.1,0.4,0.2,0.5l-15.6,23c-0.1,0-0.2-0.1-0.3-0.1l-0.2-55.4l16.3,31.3
				C137.5,44.7,137.3,45,137.3,45.3z M113,58.4c0.1,0,0.2,0,0.3,0l2.5,3.8L77.3,47.4l34.7,10c0,0,0,0.1,0,0.1
				C112,58,112.5,58.4,113,58.4z"/>
			<path fill="#FFFFFF" d="M131,73.8c2.2,0,3.3,1.1,3.5,3l1.3-0.4c-0.2-2.4-1.8-3.9-4.9-3.9c-3.6,0-5.9,2.5-5.9,6
				c0,3.4,1.8,5.9,6,5.9c1.8,0,3.5-0.6,4.7-1.6l-0.7-1.1c-1.1,0.8-2.4,1.4-3.8,1.4c-3.2,0-4.5-1.9-4.5-4.7
				C126.7,75.8,128.3,73.8,131,73.8z"/>
			<path fill="#FFFFFF" d="M142.7,78.2l-2.3-0.5c-1.4-0.3-2-0.7-2-1.7c0-1.3,1.1-2.1,3-2.1c1.3,0,2.6,0.4,3.5,0.8l0.4-1.2
				c-0.8-0.4-2.6-0.8-4-0.8c-2.9,0-4.6,1.4-4.6,3.3c0,1.5,1,2.3,2.8,2.7l2.3,0.5c1.2,0.3,2.1,0.7,2.1,1.7c0,1.1-1,2.1-2.8,2.1
				c-1.6,0-2.9-0.5-3.7-1l-0.4,1.3c0.9,0.4,2.4,0.9,4.2,0.9c2.9,0,4.4-1.5,4.4-3.4C145.5,79.4,144.5,78.6,142.7,78.2z"/>
		</g>
	</g>
</g>
</svg>
