<svg id="Camada_1" data-name="Camada 1" xmlns="http://www.w3.org/2000/svg" viewBox="0 0 190.34 104.83"><defs><style>.cls-1,.cls-2{fill:#fff;}.cls-2{font-size:10.65px;font-family:ArialMT, Arial;}</style></defs><title>apac</title><g id="_Grupo_" data-name="&lt;Grupo&gt;"><g id="_Grupo_2" data-name="&lt;Grupo&gt;"><path id="_Caminho_" data-name="&lt;Caminho&gt;" class="cls-1" d="M25.52,25.3c0,.91,0,1.67,0,2.42a2,2,0,0,0,.36,1c4.65-.81,5.92,3.79,8.25,6.3,2.72,2.94,3.71,7,3.2,11.31-.57,4.93-3.38,8.32-7.92,8.78-1.47.15-2.37.23-1.89,2.17a1.45,1.45,0,0,1-1,1.8c-.78.23-1-.53-1.44-1a4.09,4.09,0,0,1-.45-.7c-.59-1.13-1-2.86-2.49-2.45s-.7,2.12-.92,3.25-.52,2.73-1.85,2.73-1.18-1.59-1.36-2.66c-.15-.89.11-2.08-1.08-2.3-1-.18-1.3.82-1.76,1.49-.31.46-.52,1-.87,1.42-.52.63-1.1,1.4-2,.93s-.65-1.44-.45-2.25c.16-.64.48-1.23.62-1.87a1.69,1.69,0,0,0-.42-1.82c-.62-.48-1.16-.08-1.67.33a8.39,8.39,0,0,1-1.51,1.14c-.9.43-2.08.8-2.78.08-.94-1,.48-1.53.81-2.3.26-.6.57-1.17.85-1.77s.66-1,.33-1.58-.94-.11-1.42,0a12.72,12.72,0,0,1-2.1.24c-1,0-2.49.32-2.82-.91s1.27-1.25,2-1.87,1.44-1,1.27-2-1-.94-1.65-1.22a6.64,6.64,0,0,1-.74-.32c-.95-.56-2.68-.39-2.55-2S1.85,41,2.75,40.57s1.83-.51,2.14-1.49-.75-1.32-1.31-1.86a19,19,0,0,1-1.36-1.35c-.52-.62-1.34-1.28-.89-2.18.58-1.14,1.37,0,2.08,0s1.4.19,2.11.2c1.2,0,1.66-.47,1-1.74a18.8,18.8,0,0,1-1.24-2.82c-.22-.68-.55-1.57.1-2.13s1.32,0,1.91.44c.84.57,1.47,2,2.67,1.24s.47-2.08.55-3.17a19.31,19.31,0,0,1,.11-2c.23-1.2.76-1.47,1.55-.41a11.1,11.1,0,0,0,1,1.33c.68.67,1.13,2,2.23,1.66.86-.28.44-1.5.6-2.3a4.25,4.25,0,0,1,1.15-2.2c.37-.38.89-.91,1.28-.86.79.09.64,1,.71,1.61s.06,1.14.14,1.7c.12.87.37,1.83,1.18,2.08s.88-1,1.37-1.43c.2-.18.33-.44.52-.65.79-.9,1.64-2.25,2.78-1.85C26.46,22.92,25.2,24.45,25.52,25.3Z"/><path id="_Caminho_composto_" data-name="&lt;Caminho composto&gt;" class="cls-1" d="M43.43,42.44c0-3.79,0-7.57,0-11.36-.06-8,5.68-12.93,11.85-12.88A12.78,12.78,0,0,1,68.16,31.41c-.16,7.77-.13,15.54,0,23.31.06,2.9-1.26,3.18-3.42,3.24s-3.23-.77-3.13-3.27c.12-3,0-6.06,0-9.09,0-2-.85-3-2.7-3q-3.18,0-6.37,0c-1.86,0-2.71,1-2.68,3,0,2.94,0,5.87,0,8.81,0,2.7-1.19,3.54-3.64,3.53s-2.87-1.4-2.82-3.59c.09-4,0-8,0-11.94ZM55.7,36.16v0h4a1.76,1.76,0,0,0,2-1.79,9.88,9.88,0,0,0-1.69-7.19,5.16,5.16,0,0,0-6.43-1.68c-2.82,1.52-4.37,5.3-3.5,9,.69,2.93,3.05,1.29,4.65,1.72A4.13,4.13,0,0,0,55.7,36.16Z"/><path id="_Caminho_composto_2" data-name="&lt;Caminho composto&gt;" class="cls-1" d="M71.21,56.59c0-3.79,0-7.59,0-11.38A13.76,13.76,0,0,1,81,32c5.12-1.42,11.06,1.37,13.87,6.5a13.86,13.86,0,0,1-.43,14.65c-3.48,5-8.1,7-13.75,5.49-2.34-.64-2.62.24-2.6,2.25,0,3,0,6.07,0,9.11,0,2.44-1.39,2.77-3.16,2.69s-3.75.24-3.75-2.69c0-4.46,0-8.92,0-13.37Zm12.29-5a6.14,6.14,0,0,0,6.17-6.06,5.72,5.72,0,1,0-11.42-.35C78.14,48.28,80.77,51.5,83.5,51.56Z"/><path id="_Caminho_composto_3" data-name="&lt;Caminho composto&gt;" class="cls-1" d="M99.82,45.29c0-6.66,3.65-11.58,9.85-13.31,5-1.4,11.21,1.42,13.78,6.64,2.68,5.45,4.16,11.45,6.25,17.17.5,1.36.08,2.28-1.43,2.15-2.18-.18-4.63.87-6.31-1.75-.57-.88-1.44,0-2.12.39-2.16,1.33-4.33,2.48-6.95,2.5C105.12,59.15,99.82,53.61,99.82,45.29Zm12.68-5.66c-3.7,0-6.09,2.26-6.08,5.78a6.53,6.53,0,0,0,6,6.29c3,.11,5.57-2.77,5.56-6.21C118,41.48,116.27,39.64,112.51,39.63Z"/><path id="_Caminho_2" data-name="&lt;Caminho&gt;" class="cls-1" d="M146.19,59.06a13.1,13.1,0,0,1-12.31-8.33,14,14,0,0,1,3.18-15.32,11.66,11.66,0,0,1,14-2.44c1.2.6,3.2,1,2.45,3.29-1.17,3.5-2.91,4.63-5.21,3.65-2.89-1.22-5.49-.57-7.16,1.79-1.25,1.77-1.18,5.73.12,7.49,1.94,2.61,4.28,3.18,7.3,1.79,2.05-.94,5.86,1.52,5.88,3.86a2.26,2.26,0,0,1-1.34,2C150.84,58.14,148.55,59.39,146.19,59.06Z"/></g><text class="cls-2" transform="translate(84.13 72.52) scale(0.93 1)">Agência Pernambucana<tspan x="0" y="10.65">de Águas e Clima</tspan></text></g></svg>