<?xml version="1.0" encoding="utf-8"?>
<!-- Generator: Adobe Illustrator 20.1.0, SVG Export Plug-In . SVG Version: 6.00 Build 0)  -->
<svg version="1.2" baseProfile="tiny" id="Camada_1"
	 xmlns="http://www.w3.org/2000/svg" xmlns:xlink="http://www.w3.org/1999/xlink" x="0px" y="0px" viewBox="0 0 200 100"
	 overflow="scroll" xml:space="preserve">
<g id="XMLID_7799_">
	<g id="XMLID_7856_">
		<path id="XMLID_7936_" fill="#FFFFFF" d="M48.1,31.1c0,0.6,0,1.2,0,1.7c0,0.2,0.2,0.7,0.3,0.7c3.5-0.6,4.4,2.6,6.1,4.4c2,2,2.8,4.8,2.4,7.9
			c-0.4,3.4-2.5,5.8-5.9,6.1c-1.1,0.1-1.8,0.2-1.4,1.5c0.1,0.5-0.1,1.1-0.7,1.3c-0.6,0.2-0.8-0.4-1.1-0.7c-0.1-0.1-0.2-0.3-0.3-0.5
			c-0.4-0.8-0.7-2-1.9-1.7c-1,0.3-0.5,1.5-0.7,2.3c-0.2,0.9-0.4,1.9-1.4,1.9c-1,0-0.9-1.1-1-1.9c-0.1-0.6,0.1-1.4-0.8-1.6
			c-0.7-0.1-1,0.6-1.3,1c-0.2,0.3-0.4,0.7-0.6,1c-0.4,0.4-0.8,1-1.5,0.6c-0.7-0.3-0.5-1-0.3-1.6c0.1-0.4,0.4-0.9,0.5-1.3
			c0.1-0.5,0.1-1-0.3-1.3c-0.5-0.3-0.9-0.1-1.2,0.2c-0.4,0.3-0.7,0.6-1.1,0.8c-0.7,0.3-1.5,0.6-2.1,0.1C33,51.4,34,51,34.3,50.4
			c0.2-0.4,0.4-0.8,0.6-1.2c0.2-0.3,0.5-0.7,0.2-1.1c-0.3-0.5-0.7-0.1-1.1,0c-0.5,0.1-1,0.2-1.6,0.2c-0.8,0-1.9,0.2-2.1-0.6
			c-0.3-0.9,0.9-0.9,1.5-1.3c0.5-0.4,1.1-0.7,0.9-1.4c-0.1-0.6-0.8-0.7-1.2-0.8c-0.2-0.1-0.4-0.1-0.6-0.2c-0.7-0.4-2-0.3-1.9-1.4
			c0.1-1.1,1.3-0.5,2-0.7c0.6-0.3,1.4-0.4,1.6-1c0.3-0.8-0.6-0.9-1-1.3c-0.3-0.3-0.7-0.6-1-0.9c-0.4-0.4-1-0.9-0.7-1.5
			c0.4-0.8,1,0,1.5,0c0.5,0.1,1,0.1,1.6,0.1c0.9,0,1.2-0.3,0.7-1.2c-0.4-0.6-0.7-1.3-0.9-2c-0.2-0.5-0.4-1.1,0.1-1.5
			c0.5-0.4,1,0,1.4,0.3c0.6,0.4,1.1,1.4,2,0.9c0.8-0.5,0.3-1.4,0.4-2.2c0-0.5,0-0.9,0.1-1.4c0.2-0.8,0.6-1,1.2-0.3
			c0.2,0.3,0.4,0.7,0.7,0.9c0.5,0.5,0.8,1.4,1.7,1.2c0.6-0.2,0.3-1,0.4-1.6c0.1-0.6,0.4-1.1,0.9-1.5c0.3-0.3,0.7-0.6,1-0.6
			c0.6,0.1,0.5,0.7,0.5,1.1c0,0.4,0,0.8,0.1,1.2c0.1,0.6,0.3,1.3,0.9,1.4c0.7,0.2,0.7-0.7,1-1c0.1-0.1,0.2-0.3,0.4-0.5
			c0.6-0.6,1.2-1.6,2.1-1.3C48.8,29.5,47.9,30.5,48.1,31.1z"/>
		<path id="XMLID_7933_" fill="#FFFFFF" d="M61.5,43.1c0-2.6,0-5.3,0-7.9c0-5.5,4.2-9,8.8-9c4.8,0,9.7,3.4,9.6,9.2c-0.1,5.4-0.1,10.8,0,16.2
			c0,2-0.9,2.2-2.5,2.3c-1.7,0-2.4-0.5-2.3-2.3c0.1-2.1,0-4.2,0-6.3c0-1.4-0.6-2.1-2-2.1c-1.6,0-3.2,0-4.7,0c-1.4,0-2,0.7-2,2.1
			c0,2,0,4.1,0,6.1c0,1.9-0.9,2.5-2.7,2.5c-1.9,0-2.1-1-2.1-2.5C61.5,48.6,61.5,45.8,61.5,43.1C61.5,43.1,61.5,43.1,61.5,43.1z
			 M70.6,38.7C70.6,38.7,70.6,38.7,70.6,38.7c1,0,2,0,3,0c0.8,0,1.3-0.3,1.5-1.2c0.2-1.8-0.1-3.5-1.3-5c-1.1-1.5-3.2-1.9-4.8-1.2
			c-2.1,1.1-3.3,3.7-2.6,6.2c0.5,2,2.3,0.9,3.5,1.2C70.1,38.8,70.3,38.7,70.6,38.7z"/>
		<path id="XMLID_7930_" fill="#FFFFFF" d="M82.2,52.9c0-2.6,0-5.3,0-7.9c0-4.3,3.1-8.1,7.3-9.2c3.8-1,8.2,1,10.3,4.5c2,3.4,1.9,7.3-0.3,10.2
			c-2.6,3.5-6,4.9-10.2,3.8c-1.7-0.4-2,0.2-1.9,1.6c0,2.1,0,4.2,0,6.3c0,1.7-1,1.9-2.4,1.9c-1.3-0.1-2.8,0.2-2.8-1.9
			C82.2,59.1,82.2,56,82.2,52.9C82.2,52.9,82.2,52.9,82.2,52.9z M91.3,49.4c2.5,0.1,4.5-1.8,4.6-4.2c0.1-2.3-1.9-4.3-4.2-4.3
			c-2.3,0-4.2,1.8-4.3,4.1C87.3,47.1,89.3,49.4,91.3,49.4z"/>
		<path id="XMLID_7927_" fill="#FFFFFF" d="M103.5,45c0-4.6,2.7-8.1,7.3-9.3c3.7-1,8.3,1,10.3,4.6c2,3.8,3.1,8,4.7,11.9c0.4,0.9,0.1,1.6-1.1,1.5
			c-1.6-0.1-3.4,0.6-4.7-1.2c-0.4-0.6-1.1,0-1.6,0.3c-1.6,0.9-3.2,1.7-5.2,1.7C107.4,54.7,103.5,50.8,103.5,45z M112.9,41.1
			c-2.8,0-4.5,1.6-4.5,4c0,2.2,2.1,4.3,4.5,4.4c2.2,0.1,4.1-1.9,4.1-4.3C117,42.4,115.7,41.1,112.9,41.1z"/>
		<path id="XMLID_7926_" fill="#FFFFFF" d="M138,54.6c-4.2,0-7.8-2.4-9.2-5.8c-1.6-3.9-0.7-7.7,2.4-10.7c2.8-2.7,6.8-3.4,10.4-1.7
			c0.9,0.4,2.4,0.7,1.8,2.3c-0.9,2.4-2.2,3.2-3.9,2.5c-2.2-0.9-4.1-0.4-5.3,1.2c-0.9,1.2-0.9,4,0.1,5.2c1.4,1.8,3.2,2.2,5.4,1.2
			c1.5-0.7,4.4,1.1,4.4,2.7c0,0.7-0.4,1.1-1,1.4C141.5,54,139.8,54.9,138,54.6z"/>
	</g>
	<text transform="matrix(1 0 0 1 91.7774 63.9861)" fill="#FFFFFF" font-family="'ArialMT'" font-size="7.4062px">Agência Pernambucana</text>
	<text transform="matrix(1 0 0 1 91.7774 71.3924)" fill="#FFFFFF" font-family="'ArialMT'" font-size="7.4062px">de Águas e Clima</text>
</g>
</svg>
