<?xml version="1.0" encoding="UTF-8" standalone="no"?>
<!-- Created with Inkscape (http://www.inkscape.org/) -->

<svg
   xmlns:dc="http://purl.org/dc/elements/1.1/"
   xmlns:cc="http://creativecommons.org/ns#"
   xmlns:rdf="http://www.w3.org/1999/02/22-rdf-syntax-ns#"
   xmlns:svg="http://www.w3.org/2000/svg"
   xmlns="http://www.w3.org/2000/svg"
   xmlns:sodipodi="http://sodipodi.sourceforge.net/DTD/sodipodi-0.dtd"
   xmlns:inkscape="http://www.inkscape.org/namespaces/inkscape"
   x="0px" y="0px" viewBox="0 -30 130 110"
  overflow="scroll" xml:space="preserve"
   version="1.1"
   id="svg8"
   width="100px" height="50px"
   sodipodi:docname="cerb.svg"
   inkscape:version="0.92.3 (unknown)">
  <defs
     id="defs2" />
  <sodipodi:namedview
     id="base"
     pagecolor="#ffffff"
     bordercolor="#666666"
     borderopacity="1.0"
     inkscape:pageopacity="0.0"
     inkscape:pageshadow="2"
     inkscape:zoom="1.979899"
     inkscape:cx="251.91011"
     inkscape:cy="128.01159"
     inkscape:document-units="mm"
     inkscape:current-layer="g3790"
     showgrid="false"
     inkscape:window-width="1535"
     inkscape:window-height="876"
     inkscape:window-x="65"
     inkscape:window-y="24"
     inkscape:window-maximized="1"
     inkscape:snap-grids="true"
     inkscape:pagecheckerboard="true"
     showguides="false" />
  <metadata
     id="metadata5">
    <rdf:RDF>
      <cc:Work
         rdf:about="">
        <dc:format>image/svg+xml</dc:format>
        <dc:type
           rdf:resource="http://purl.org/dc/dcmitype/StillImage" />
        <dc:title></dc:title>
      </cc:Work>
    </rdf:RDF>
  </metadata>
  <g
     inkscape:label="Layer 1"
     inkscape:groupmode="layer"
     id="layer1"
     transform="translate(0,-231)">
    <g
       id="g3790"
       transform="translate(-27.970238,-104.32143)">
      <path
         style="fill:none;stroke-width:0.26458335"
         d="m 52.576481,173.02381 v -43.12708 h 70.643759 70.64375 v 43.12708 43.12709 H 123.22024 52.576481 Z m 84.617429,24.52145 c 0.0457,-0.23016 -0.21815,-0.68036 -0.58628,-1.00045 -0.73763,-0.64136 -0.66516,-1.14399 0.12862,-0.89206 0.63087,0.20024 0.66987,-0.28644 0.0507,-0.63294 -0.65007,-0.3638 -1.39589,0.11197 -1.39589,0.89046 0,0.37205 0.22291,0.76214 0.52917,0.92604 0.79873,0.42747 0.69699,1.15782 -0.13229,0.94969 -0.75747,-0.19011 -0.89015,0.21732 -0.19844,0.60938 0.54235,0.3074 1.47248,-0.18545 1.6044,-0.85012 z m 26.91255,0.25754 c 0.62909,-0.89816 0.49753,-2.20595 -0.27268,-2.71061 -0.61274,-0.40148 -0.71018,-0.40148 -1.32292,0 -0.3638,0.23837 -0.66145,0.53484 -0.66145,0.65882 0,0.12397 -0.0719,0.58507 -0.15986,1.02467 -0.32202,1.61012 1.47396,2.37336 2.41691,1.02712 z m -1.62482,-0.28579 c -0.41653,-1.08545 0.66092,-2.60878 1.23001,-1.73903 0.30425,0.46497 0.0841,1.62784 -0.36187,1.91153 -0.464,0.29516 -0.70723,0.24683 -0.86814,-0.1725 z m -32.39255,0.32775 c 1.07445,-1.15329 0.47615,-2.9774 -0.92399,-2.81708 -0.70501,0.0807 -0.80504,0.22057 -1.09463,1.53036 -0.17529,0.79284 -0.25971,1.53698 -0.1876,1.65365 0.26931,0.43575 1.67645,0.20172 2.20622,-0.36693 z m -1.45193,-0.28084 c -0.20493,-0.55232 0.28463,-1.91823 0.68753,-1.91823 0.21754,0 0.41401,0.31546 0.4631,0.7436 0.12398,1.08125 -0.82559,2.05062 -1.15063,1.17463 z m 4.24037,0.59531 c -0.0899,-0.14552 -0.40335,-0.26458 -0.69647,-0.26458 -0.74485,0 -0.53438,-0.90066 0.23615,-1.01059 0.73553,-0.10494 0.77083,-0.46859 0.0634,-0.65358 -0.67838,-0.1774 -0.69013,-0.71708 -0.0156,-0.71708 0.28246,0 0.57873,-0.10545 0.65838,-0.23433 0.1789,-0.28947 -1.0299,-0.54614 -1.42424,-0.30242 -0.35493,0.21935 -0.80603,1.74039 -0.80603,2.71781 0,0.67629 0.0781,0.72935 1.07395,0.72935 0.64859,0 1.00918,-0.10479 0.91043,-0.26458 z m 10.29846,-0.33073 c 0.35025,-1.70784 0.4163,-2.57969 0.19543,-2.57969 -0.13514,0 -0.30799,0.23813 -0.3841,0.52917 -0.18811,0.71936 -0.57015,0.66522 -0.93353,-0.13229 -0.44134,-0.96865 -0.77215,-0.81078 -0.97025,0.46302 -0.0962,0.61846 -0.23373,1.33284 -0.30567,1.5875 -0.18264,0.64657 0.36024,0.58316 0.56633,-0.0662 0.22536,-0.71005 0.51391,-0.66656 0.8779,0.13229 0.37447,0.82189 0.79295,0.85091 0.95389,0.0661 z m 2.66612,0.33073 c -0.0899,-0.14552 -0.40335,-0.26458 -0.69647,-0.26458 -0.74485,0 -0.53438,-0.90066 0.23616,-1.01059 0.73501,-0.10487 0.78692,-0.57691 0.0634,-0.57691 -0.29398,0 -0.52917,-0.17639 -0.52917,-0.39688 0,-0.21828 0.2311,-0.39687 0.51355,-0.39687 0.28246,0 0.58714,-0.11907 0.67708,-0.26459 0.0971,-0.15714 -0.21254,-0.26458 -0.76253,-0.26458 -1.11758,0 -1.16246,0.0632 -1.38405,1.94856 l -0.17524,1.49102 h 1.11038 c 0.67287,0 1.04594,-0.10425 0.94685,-0.26458 z m 5.5629,-0.0108 c 0.0936,-0.15144 0.38254,-0.20794 0.6421,-0.12556 0.39647,0.12583 0.5001,-0.0626 0.64815,-1.17868 0.0969,-0.73065 0.20196,-1.41665 0.23341,-1.52445 0.0315,-0.10781 -0.12994,-0.23205 -0.35866,-0.27609 -0.23737,-0.0457 -0.54721,0.20823 -0.72193,0.59169 -0.3916,0.85947 -0.84659,0.86501 -0.84659,0.0103 0,-0.83792 -0.73645,-0.8917 -0.90576,-0.0661 -0.48352,2.35771 -0.47278,2.633 0.0957,2.45257 0.31835,-0.10104 0.54547,-0.0555 0.54547,0.10929 0,0.36183 0.44595,0.36654 0.66811,0.007 z m 3.82981,0.0292 c 0,-0.1354 -0.25856,-0.28423 -0.57459,-0.33073 -0.83269,-0.12252 -0.90043,-0.69775 -0.10566,-0.89722 0.82391,-0.20679 0.87911,-0.52881 0.12446,-0.72616 -0.66058,-0.17274 -0.4284,-0.71012 0.30682,-0.71012 0.28246,0 0.51355,-0.10519 0.51355,-0.23374 0,-0.299 -1.2002,-0.53479 -1.56729,-0.30792 -0.32705,0.20213 -0.87826,2.86939 -0.66447,3.2153 0.19431,0.31441 1.96718,0.30593 1.96718,-0.009 z m 3.32976,-1.42722 c 0.18423,-0.91966 0.20293,-1.5016 0.0482,-1.5016 -0.1389,0 -0.31482,0.23813 -0.39093,0.52917 -0.18887,0.72223 -0.5674,0.66469 -0.87041,-0.13229 -0.2681,-0.70516 -0.74252,-0.87671 -0.9146,-0.33073 -0.28392,0.90087 -0.4143,2.84427 -0.1908,2.84427 0.13746,0 0.3122,-0.23813 0.38831,-0.52917 0.19322,-0.73885 0.6269,-0.65995 0.83045,0.15109 0.26995,1.07552 0.77208,0.60489 1.09973,-1.03074 z m 9.75212,1.08536 c 0.48922,-0.69847 0.54095,-2.08746 0.0944,-2.53404 -0.34925,-0.34925 -1.69653,-0.43415 -1.8894,-0.11906 -0.0668,0.10914 -0.20662,0.88304 -0.31068,1.71979 l -0.18922,1.52135 h 0.94152 c 0.67301,0 1.05899,-0.1677 1.35341,-0.58804 z m -1.49477,-0.27185 c -0.21234,-0.63164 0.19125,-1.91183 0.62931,-1.99619 0.65,-0.12518 0.87498,0.90334 0.36713,1.67841 -0.46712,0.71292 -0.82522,0.82712 -0.99644,0.31778 z m 8.43108,0.65662 c 0.4033,-0.25661 0.54231,-2.6254 0.17559,-2.99211 -0.15706,-0.15707 -0.62533,-0.2465 -1.04061,-0.19874 -0.68002,0.0782 -0.78672,0.23007 -1.07376,1.52835 -0.17529,0.79284 -0.25972,1.53698 -0.18761,1.65365 0.16389,0.26518 1.71339,0.27164 2.12639,0.009 z m -1.31377,-0.49509 c -0.24692,-0.24692 0.0515,-0.62455 0.49349,-0.62455 0.20969,0 0.38126,0.17859 0.38126,0.39687 0,0.39852 -0.55853,0.5439 -0.87475,0.22768 z m 0.22459,-1.6646 c -0.19567,-0.3166 0.30206,-0.6303 0.65448,-0.4125 0.29589,0.18288 0.10164,0.6588 -0.2689,0.6588 -0.12835,0 -0.30186,-0.11084 -0.38558,-0.2463 z m -35.20088,1.78312 c 0.14552,-0.007 0.48658,0.0793 0.75792,0.1914 0.45834,0.18929 0.47966,0.10237 0.30048,-1.22526 -0.32338,-2.39603 -0.61368,-2.42971 -1.73839,-0.20168 -0.81409,1.61271 -0.81552,1.62287 -0.20224,1.43604 0.3397,-0.10348 0.7367,-0.19371 0.88223,-0.2005 z m 8.54604,-0.002 c 0.24694,-0.24694 0.38805,-0.24694 0.635,0 0.17462,0.17463 0.47767,0.3175 0.67344,0.3175 0.34563,0 0.32677,-0.57095 -0.0852,-2.57969 -0.16705,-0.81456 -0.74938,-0.74819 -1.16078,0.1323 -0.98077,2.09903 -1.08432,2.44739 -0.72748,2.44739 0.19113,0 0.49038,-0.14287 0.66501,-0.3175 z m 12.8569,-0.10101 c 0.0883,-0.23031 0.1606,-0.66742 0.1606,-0.97148 0,-0.30406 0.19959,-0.77339 0.44354,-1.04295 0.58632,-0.64788 0.12316,-1.13996 -0.84439,-0.89712 -0.57882,0.14528 -0.64751,0.24503 -0.38585,0.56031 0.20956,0.25251 0.2572,0.79123 0.13943,1.5766 -0.17382,1.15909 0.14462,1.66587 0.48667,0.77451 z m 9.46682,0.12942 c 0.39065,-0.20907 0.6202,-0.20907 0.82927,0 0.48157,0.48157 0.71243,0.32876 0.71243,-0.47159 0,-1.24603 -0.30942,-2.41432 -0.63942,-2.41432 -0.16978,0 -0.63114,0.65748 -1.02526,1.46107 -0.9322,1.90072 -0.92487,1.98563 0.12298,1.42484 z m 7.08369,0.0389 c 0.23583,-0.1492 0.57442,-0.13943 0.88256,0.0255 0.71155,0.38081 0.78611,0.1909 0.57824,-1.47284 -0.23873,-1.91074 -0.72091,-1.92269 -1.58242,-0.0392 -0.84456,1.84641 -0.82501,2.08548 0.12162,1.48658 z m 2.92467,-0.0939 c 0,-0.18918 0.14004,-0.484 0.31121,-0.65516 0.41244,-0.41245 1.03953,0.0896 0.82153,0.65769 -0.10664,0.27789 -0.0363,0.37361 0.21416,0.29168 0.40406,-0.13215 0.97486,-2.47919 0.6757,-2.77835 -0.10048,-0.10048 -0.36927,0.0837 -0.59731,0.40928 -0.32873,0.46932 -0.49191,0.52782 -0.78767,0.28237 -0.20517,-0.17028 -0.37303,-0.49742 -0.37303,-0.72699 0,-0.86741 -0.49523,0.12291 -0.7373,1.47438 -0.20028,1.11817 -0.17844,1.38906 0.11196,1.38906 0.19841,0 0.36075,-0.15478 0.36075,-0.34396 z m 3.22736,-1.12488 c 0.10169,-0.71089 0.12952,-1.34789 0.0619,-1.41556 -0.27189,-0.27189 -0.60999,0.44001 -0.78901,1.66138 -0.15223,1.03857 -0.11776,1.26672 0.17655,1.16862 0.20602,-0.0687 0.44644,-0.68629 0.5506,-1.41444 z m 1.21764,1.15134 c 0.24695,-0.24694 0.38806,-0.24694 0.635,0 0.17463,0.17462 0.47768,0.3175 0.67345,0.3175 0.34562,0 0.32677,-0.57095 -0.0852,-2.57969 -0.168,-0.81919 -0.79246,-0.74727 -1.1486,0.13229 -0.16204,0.40019 -0.47169,1.11456 -0.6881,1.5875 -0.31189,0.68158 -0.322,0.8599 -0.0488,0.8599 0.18959,0 0.48759,-0.14288 0.66221,-0.3175 z m -80.16875,-5.55625 c 0.51969,-0.5197 0.36327,-0.76241 -0.37236,-0.57777 -0.84187,0.21129 -1.17274,-0.21904 -0.91226,-1.18648 0.13208,-0.49056 0.377,-0.70822 0.82866,-0.73645 0.35264,-0.022 0.74504,-0.0518 0.872,-0.0662 0.41644,-0.047 -0.41655,-0.81982 -0.88368,-0.81982 -1.15504,0 -2.05043,2.41831 -1.20748,3.26125 0.51972,0.51972 1.2278,0.57273 1.67512,0.12542 z m 3.47329,-0.37964 c 0.65351,-0.8308 0.6979,-1.61747 0.1365,-2.41899 -0.87492,-1.24912 -2.49854,-0.29016 -2.49854,1.47571 0,0.55298 0.14287,1.14829 0.3175,1.32292 0.5305,0.5305 1.46514,0.35696 2.04454,-0.37964 z m -1.51538,-0.14953 c -0.73891,-0.73891 -0.0411,-2.3189 0.86976,-1.96936 0.52331,0.20081 0.51384,1.34173 -0.0155,1.87109 -0.49787,0.49787 -0.45909,0.49341 -0.85423,0.0983 z m 24.73472,0.27138 c 1.13728,-1.06841 0.48359,-3.2431 -0.92517,-3.07784 -0.6187,0.0726 -0.72636,0.25046 -1.00878,1.66666 -0.17388,0.87198 -0.26038,1.67565 -0.19222,1.78594 0.25229,0.40821 1.53304,0.18246 2.12617,-0.37476 z m -1.5043,-0.57971 c 0,-0.77595 0.52197,-1.75542 0.93547,-1.75542 0.32284,0 0.40049,0.22842 0.33728,0.99219 -0.066,0.79698 -0.19924,1.00882 -0.67743,1.07674 -0.39103,0.0555 -0.59532,-0.0521 -0.59532,-0.31351 z m 4.49792,0.90882 c 0,-0.1354 -0.26789,-0.28423 -0.59531,-0.33073 -0.32742,-0.0465 -0.59532,-0.26314 -0.59532,-0.48142 0,-0.21829 0.2679,-0.43493 0.59532,-0.48143 0.73783,-0.10478 0.77462,-0.4683 0.0661,-0.65357 -0.7348,-0.19216 -0.66183,-0.67371 0.1323,-0.87302 0.91098,-0.22864 0.83209,-0.63782 -0.12299,-0.63782 -0.87496,0 -1.18594,0.40639 -1.4701,1.92111 -0.26376,1.40596 -0.0405,1.78306 1.05562,1.78306 0.51389,0 0.93434,-0.11078 0.93434,-0.24618 z m 3.96875,0 c 0,-0.1354 -0.26789,-0.28423 -0.59531,-0.33073 -0.32742,-0.0465 -0.59531,-0.26314 -0.59531,-0.48142 0,-0.21829 0.26789,-0.43493 0.59531,-0.48143 0.73783,-0.10478 0.77462,-0.4683 0.0661,-0.65357 -0.7348,-0.19216 -0.66183,-0.67371 0.1323,-0.87302 0.91098,-0.22864 0.83209,-0.63782 -0.12299,-0.63782 -0.48017,0 -0.87661,0.1796 -1.02206,0.46302 -0.32458,0.63249 -0.62151,2.68685 -0.43253,2.99262 0.1994,0.32264 1.97445,0.32475 1.97445,0.002 z m 6.21203,-0.18281 c 0.53605,-0.53605 0.42065,-1.25459 -0.22135,-1.37823 -0.38048,-0.0733 -0.44905,0.0214 -0.31692,0.43772 0.20813,0.65577 -0.26999,0.99816 -0.79056,0.56613 -0.87537,-0.72649 -0.0149,-2.61684 0.95488,-2.09782 0.60773,0.32525 0.90809,-0.0998 0.38015,-0.53796 -1.31903,-1.0947 -3.09353,1.70645 -1.9522,3.08167 0.40464,0.48756 1.42439,0.45009 1.946,-0.0715 z m 2.7838,0.19526 c 0,-0.12854 -0.23812,-0.29599 -0.52916,-0.3721 -0.68323,-0.17867 -0.696,-0.98167 -0.0156,-0.98167 0.73041,0 0.90962,-0.44123 0.24935,-0.6139 -0.69374,-0.18141 -0.52075,-0.81246 0.25393,-0.92637 0.31819,-0.0468 0.51019,-0.19561 0.42668,-0.33073 -0.2213,-0.35808 -1.33453,-0.30052 -1.64515,0.0851 -0.33149,0.41149 -0.80438,2.60434 -0.65699,3.04653 0.12287,0.36859 1.91696,0.4558 1.91696,0.0932 z m 24.78014,-0.44527 c 0.54916,-0.54916 0.64736,-0.84007 0.51358,-1.52135 -0.26857,-1.36758 -1.71511,-2.0429 -2.22938,-1.0408 -0.32459,0.63249 -0.62151,2.68685 -0.43254,2.99262 0.29586,0.4787 1.47555,0.24233 2.14834,-0.43047 z m -1.32041,-0.0266 c -0.25234,-0.25234 -0.21038,-1.47692 0.0655,-1.91268 0.34861,-0.55056 1.08099,-0.13954 1.08099,0.60666 0,0.35798 -0.1871,0.83796 -0.41578,1.06664 -0.47352,0.47352 -0.49091,0.47922 -0.73075,0.23938 z m 8.50194,0.38806 c 0.52393,-0.52393 0.36231,-0.73657 -0.43817,-0.57647 -0.90216,0.18043 -1.21616,-0.34411 -0.82379,-1.37614 0.18154,-0.47748 0.43368,-0.66378 0.85248,-0.62987 0.95908,0.0776 1.07538,0.0125 0.72698,-0.40731 -1.15551,-1.39231 -3.02288,1.08485 -2.10736,2.79552 0.30616,0.57206 1.30379,0.68034 1.78986,0.19427 z m 6.93209,0.0816 c 0,-0.12975 -0.30612,-0.31273 -0.68026,-0.40663 -0.79477,-0.19948 -0.72702,-0.7747 0.10567,-0.89723 0.68822,-0.10127 0.7226,-0.27805 0.13729,-0.70604 -0.54265,-0.39679 -0.25282,-0.9292 0.50583,-0.9292 0.40503,0 0.48517,-0.0813 0.2812,-0.28527 -0.1569,-0.1569 -0.6272,-0.24619 -1.04511,-0.19844 -0.7002,0.08 -0.78427,0.21065 -1.07124,1.66472 -0.17127,0.86784 -0.25354,1.67151 -0.18282,1.78594 0.17812,0.28819 1.94944,0.26289 1.94944,-0.0279 z m -74.27453,-1.46099 c 0.33129,-1.97606 -0.25749,-2.68476 -0.87692,-1.05553 -0.3134,0.8243 -0.78397,0.81825 -0.78397,-0.0101 0,-0.35522 -0.10558,-0.7111 -0.23461,-0.79084 -0.41349,-0.25555 -0.83762,0.54969 -0.99661,1.89213 l -0.15459,1.30524 1.41489,-0.0235 1.41488,-0.0235 0.21693,-1.29397 z m 1.10296,0.96929 c 0.0845,-0.25467 0.53904,-0.64162 1.01002,-0.8599 0.93062,-0.4313 1.21675,-1.12611 0.71349,-1.7325 -0.3912,-0.47137 -1.41677,-0.50217 -1.77951,-0.0534 -0.39155,0.48437 -0.70328,3.10886 -0.36926,3.10886 0.14937,0 0.34074,-0.20836 0.42526,-0.46302 z m 0.41115,-1.78594 c 0,-0.21828 0.17859,-0.39688 0.39687,-0.39688 0.21828,0 0.39688,0.1786 0.39688,0.39688 0,0.21828 -0.1786,0.39687 -0.39688,0.39687 -0.21828,0 -0.39687,-0.17859 -0.39687,-0.39687 z m 2.05657,1.93863 c 0.23371,-0.2337 0.47307,-0.23617 0.96951,-0.01 0.36255,0.16519 0.70474,0.21554 0.76042,0.11188 0.18187,-0.33854 -0.47216,-2.99704 -0.7438,-3.02338 -0.28079,-0.0272 -1.27688,1.63845 -1.57664,2.63649 -0.1935,0.64422 0.093,0.78249 0.59051,0.28499 z m 2.97051,-0.35113 c 0,-0.68484 0.52931,-0.69554 0.7877,-0.0159 0.44963,1.18262 0.98536,0.82182 1.18801,-0.80011 0.20528,-1.64298 0.0317,-2.14051 -0.37426,-1.07275 -0.33042,0.86908 -0.4885,0.87626 -0.8077,0.0367 -0.24621,-0.64757 -0.64604,-0.85791 -0.88018,-0.46302 -0.0647,0.10914 -0.20407,0.83874 -0.30968,1.62133 -0.1374,1.01819 -0.10838,1.37121 0.10204,1.24116 0.16174,-0.1 0.29407,-0.34628 0.29407,-0.54738 z m 3.175,0 c 0.13832,-0.3638 0.43303,-0.66146 0.65491,-0.66146 0.25393,0 0.40342,0.24511 0.40342,0.66146 0,0.70931 0.38259,0.8959 0.61187,0.29841 0.33615,-0.87598 0.49433,-2.81195 0.22975,-2.81195 -0.15223,0 -0.35237,0.23812 -0.44474,0.52916 -0.0924,0.29104 -0.39805,0.52917 -0.67929,0.52917 -0.33495,0 -0.51134,-0.18254 -0.51134,-0.52917 0,-0.81836 -0.46866,-0.62474 -0.64043,0.26459 -0.0843,0.43656 -0.22231,1.15093 -0.30663,1.5875 -0.18912,0.9791 0.32279,1.07833 0.68248,0.13229 z m 3.00963,-0.16537 c 0.26465,-1.32321 0.20754,-2.49618 -0.10625,-2.18239 -0.38091,0.38091 -0.66694,3.00922 -0.32747,3.00922 0.1476,0 0.34277,-0.37207 0.43372,-0.82683 z m 1.16361,0.5165 c 0.23532,-0.23532 0.47193,-0.23669 0.97896,-0.006 0.65184,0.297 0.66797,0.27987 0.64226,-0.68186 -0.0341,-1.27429 -0.30069,-2.20568 -0.63509,-2.21856 -0.26157,-0.0101 -1.2809,1.72124 -1.59377,2.707 -0.1807,0.56936 0.13419,0.67254 0.60764,0.19909 z m 13.81843,-0.35113 c 0,-0.68484 0.5293,-0.69554 0.78769,-0.0159 0.45233,1.18971 1.00761,0.8271 1.20964,-0.78993 0.20364,-1.62982 0.0117,-2.1549 -0.39588,-1.08293 -0.33042,0.86908 -0.4885,0.87626 -0.8077,0.0367 -0.24621,-0.64757 -0.64605,-0.85791 -0.88018,-0.46302 -0.0647,0.10914 -0.20407,0.83874 -0.30968,1.62133 -0.13741,1.01819 -0.10838,1.37121 0.10204,1.24116 0.16174,-0.1 0.29407,-0.34628 0.29407,-0.54738 z m 9.57103,-0.66146 c 0.11466,0 0.28318,0.29766 0.37449,0.66146 0.1729,0.6889 0.84218,0.90522 1.02324,0.33073 0.31004,-0.98373 0.41467,-2.84427 0.15995,-2.84427 -0.15444,0 -0.2808,0.23109 -0.2808,0.51355 0,0.80952 -0.49634,0.9063 -0.83509,0.16282 -0.49275,-1.08146 -0.95363,-0.81092 -1.21408,0.71269 -0.26838,1.56993 -0.0828,2.29106 0.30647,1.19062 0.14155,-0.40018 0.35117,-0.7276 0.46582,-0.7276 z m 2.7355,0.7276 c 0.14365,-0.32742 0.43977,-0.59531 0.65805,-0.59531 0.21828,0 0.43492,0.26789 0.48142,0.59531 0.20668,1.45519 0.85876,-0.0301 0.82762,-1.88515 l -0.0139,-0.82683 -0.41527,0.59532 c -0.52922,0.75866 -1.03955,0.76054 -1.23725,0.005 -0.23329,-0.8921 -0.61941,-0.27964 -0.83116,1.31835 -0.19046,1.43735 0.0743,1.83351 0.53046,0.79375 z m 3.04289,0.26709 c 0.41833,-0.26125 0.63283,-0.26125 1.05115,0 0.28907,0.18052 0.59212,0.32823 0.67345,0.32823 0.13556,0 0.0109,-1.09654 -0.29327,-2.57969 -0.20332,-0.99143 -0.75661,-0.67465 -1.51209,0.86576 -0.93211,1.90053 -0.92549,2.01411 0.0808,1.3857 z m 2.98349,-0.20094 c 0.0761,-0.29104 0.2644,-0.52917 0.41843,-0.52917 0.15402,0 0.40748,0.23813 0.56324,0.52917 0.36765,0.68695 0.88017,0.6891 0.66234,0.003 -0.0958,-0.30177 0.01,-0.77851 0.24675,-1.11721 0.51505,-0.73533 0.51487,-0.8634 -0.002,-1.38021 -0.55472,-0.55472 -1.62385,-0.52845 -1.92235,0.0472 -0.37146,0.71643 -0.64085,2.97657 -0.35478,2.97657 0.13747,0 0.31221,-0.23813 0.38832,-0.52917 z m 0.45251,-1.70039 c 0,-0.24544 0.22621,-0.41628 0.55121,-0.41628 0.6448,0 0.55366,0.61827 -0.11012,0.74701 -0.26108,0.0506 -0.44109,-0.0843 -0.44109,-0.33073 z m 2.64583,1.86961 c 0,-0.19797 0.0757,-0.91235 0.16825,-1.5875 0.20598,-1.50279 -0.32899,-1.72431 -0.56838,-0.23537 -0.0877,0.54571 -0.21447,1.26008 -0.28162,1.5875 -0.084,0.40968 0.003,0.59532 0.27983,0.59532 0.22106,0 0.40192,-0.16198 0.40192,-0.35995 z m 1.2766,0.0358 c 0.25575,-0.25575 0.43975,-0.25188 0.87243,0.0183 0.30158,0.18834 0.60609,0.28468 0.67668,0.21409 0.0706,-0.0706 0.0453,-0.79322 -0.0563,-1.60584 -0.12289,-0.98357 -0.30559,-1.47748 -0.54653,-1.47748 -0.34209,0 -1.69376,2.31558 -1.69376,2.90162 0,0.36887 0.3517,0.34501 0.74743,-0.0507 z m 3.97639,-0.35814 c 0.35908,-0.78809 0.92602,-0.72993 1.04927,0.10766 0.10163,0.69071 0.49022,0.75522 0.67204,0.11157 0.34605,-1.22507 0.46149,-2.71198 0.21054,-2.71198 -0.14851,0 -0.34559,0.23812 -0.43797,0.52916 -0.0924,0.29104 -0.39805,0.52917 -0.67928,0.52917 -0.33495,0 -0.51134,-0.18254 -0.51134,-0.52917 0,-0.81836 -0.46866,-0.62474 -0.64044,0.26459 -0.0843,0.43656 -0.2223,1.15093 -0.30663,1.5875 -0.18789,0.97275 0.21927,1.04327 0.64381,0.1115 z m 3.14619,-0.70682 c 0.24756,-1.44815 0.17076,-1.99504 -0.22463,-1.59965 -0.28694,0.28694 -0.74758,2.65458 -0.55411,2.84805 0.35815,0.35814 0.5592,0.0358 0.77874,-1.2484 z m 4.1129,0.8599 c 0.0761,-0.29104 0.2644,-0.52917 0.41842,-0.52917 0.15403,0 0.40749,0.23813 0.56325,0.52917 0.37941,0.70893 0.87879,0.68476 0.65145,-0.0315 -0.0979,-0.30838 -0.0221,-0.85191 0.16839,-1.20785 0.4613,-0.86195 0.0333,-1.53875 -0.97315,-1.53875 -0.90934,0 -1.42447,0.8338 -1.43029,2.31511 -0.004,1.05619 0.37129,1.34499 0.60193,0.46302 z m 0.3715,-1.49211 c -0.24692,-0.24692 0.0515,-0.62456 0.49349,-0.62456 0.2097,0 0.38126,0.1786 0.38126,0.39688 0,0.39852 -0.55853,0.5439 -0.87475,0.22768 z m 2.71292,1.02909 c 0.34272,-1.23406 0.35651,-2.18281 0.0318,-2.18281 -0.28258,0 -0.43588,0.46009 -0.68322,2.05052 -0.22095,1.42071 0.26619,1.51963 0.65147,0.13229 z m 4.20094,0.66808 c 0.25575,-0.25575 0.43975,-0.25188 0.87243,0.0183 0.30158,0.18834 0.61561,0.27515 0.69785,0.19292 0.23728,-0.23729 -0.30463,-3.08248 -0.59793,-3.1393 -0.28254,-0.0547 -1.70326,2.36735 -1.71361,2.92142 -0.008,0.42081 0.32411,0.42377 0.74126,0.007 z m -90.176613,-2.70723 c 2.715551,-0.87718 5.820834,-2.45338 5.820834,-2.95456 0,-0.20026 -0.215702,-0.3641 -0.479335,-0.3641 -0.860256,0 -4.390198,-1.0178 -6.008559,-1.73247 -2.494965,-1.10178 -4.902226,-2.84023 -7.059337,-5.09805 -2.370826,-2.48152 -3.964579,-5.06204 -5.023191,-8.13328 -1.515559,-4.39694 -1.250937,-7.28483 1.113872,-12.156 2.184804,-4.50037 5.452265,-7.77786 9.895363,-9.9257 2.253227,-1.08924 5.944336,-2.10787 7.64938,-2.11098 2.78124,-0.005 -1.678953,-2.5869 -6.96736,-4.03311 -2.896627,-0.79213 -8.017577,-0.78713 -11.212247,0.011 -2.571773,0.64247 -6.038628,2.16228 -7.981212,3.49881 -8.406178,5.7836 -12.357481,16.47018 -9.731065,26.31836 1.890956,7.09044 7.52678,13.45342 14.192961,16.02417 3.454132,1.33205 4.902132,1.5568 9.439896,1.4652 3.613888,-0.0729 4.368191,-0.16908 6.35,-0.80925 z m -10.628086,-2.53104 c -6.107326,-1.03061 -11.676451,-4.81614 -14.782284,-10.04804 -0.561509,-0.94589 -1.410954,-2.85089 -1.887655,-4.23333 -0.836665,-2.42636 -0.86696,-2.66038 -0.873415,-6.74688 -0.0059,-3.71273 0.0695,-4.47596 0.612871,-6.20631 2.406696,-7.66411 8.000261,-12.91241 15.652318,-14.68617 3.008181,-0.69731 9.957698,-0.32744 10.241421,0.54506 0.05188,0.15955 -0.832231,0.83261 -1.964693,1.4957 -4.303197,2.51964 -7.66231,6.14127 -9.877683,10.64964 -2.933075,5.96892 -3.166201,10.70728 -0.800331,16.267 2.06897,4.862 5.93272,8.914 10.850491,11.37914 1.952575,0.97877 1.869924,1.14251 -0.794954,1.57489 -1.929297,0.31303 -4.553509,0.31686 -6.376086,0.009 z m 20.22472,-4.48321 c 0.702449,-0.21198 1.191789,-0.60856 1.653649,-1.34019 1.09469,-1.73411 0.92084,-1.88565 -1.26226,-1.10031 -1.667686,0.59993 -2.332925,0.68961 -5.093231,0.68665 -3.227359,-0.003 -5.539674,-0.51272 -7.209896,-1.58788 L 87.2369,178.56786 v -12.5523 c 0,-14.3001 -0.311205,-12.71329 2.652017,-13.52245 3.427783,-0.93601 8.133898,-0.51272 11.701633,1.05251 0.81975,0.35964 0.99218,0.3709 0.99218,0.0648 0,-0.62446 -1.6798,-2.92007 -2.38125,-3.25419 -1.255973,-0.59828 -5.013892,-0.93176 -7.277975,-0.64586 -4.586761,0.57919 -7.781761,2.13916 -10.723036,5.23556 -6.078196,6.39876 -5.909387,16.49998 0.379552,22.71174 2.218267,2.19104 4.606457,3.47215 8.361046,4.48515 2.131124,0.57499 2.916087,0.6609 5.159375,0.56463 1.455209,-0.0625 3.094787,-0.24903 3.643509,-0.41461 z m 44.050549,-2.75122 c 2.5031,-0.91239 4.89789,-3.14744 6.07358,-5.66847 0.88158,-1.89038 0.72532,-2.17222 -1.20438,-2.17222 -1.53749,0 -1.57144,0.0163 -2.28859,1.1 -1.66188,2.51127 -3.74089,3.65911 -6.61841,3.6541 -2.89244,-0.005 -5.16761,-1.33511 -6.6705,-3.89959 -1.05229,-1.79561 -1.17513,-4.77095 -0.27788,-6.7308 1.32233,-2.88835 3.83106,-4.52827 6.95781,-4.54819 1.50418,-0.01 2.14368,0.12618 3.33145,0.70731 1.82902,0.89485 2.63873,1.69823 2.07255,2.05635 -0.21249,0.13441 -2.25958,0.2462 -4.54908,0.24843 l -4.16273,0.004 -0.66592,1.31412 c -1.15505,2.2794 -1.67455,2.12547 7.17311,2.12547 h 7.83903 l -0.17245,-1.07845 c -0.25039,-1.56582 -1.60783,-4.08814 -2.88654,-5.36359 -7.58987,-7.57055 -20.37323,-1.20825 -18.92019,9.41661 0.95419,6.97715 8.25085,11.28368 14.96914,8.83487 z m 33.2592,0.22039 c 4.41041,-1.14877 7.55988,-4.56759 8.40776,-9.12684 1.32606,-7.13054 -5.62601,-14.08281 -12.7564,-12.75677 -1.82046,0.33855 -4.50565,1.47417 -4.50565,1.90552 0,0.15571 0.39915,0.71866 0.887,1.251 l 0.887,0.96789 1.89948,-0.61077 c 2.16477,-0.69606 3.76675,-0.63621 5.6852,0.21241 6.32454,2.79765 6.28386,11.85338 -0.0659,14.66672 -1.73747,0.76981 -4.49208,0.75482 -6.2501,-0.034 -1.71782,-0.77079 -3.21333,-2.22028 -3.99779,-3.87478 -0.6218,-1.31142 -0.6273,-1.40219 -0.63388,-10.45104 -0.004,-5.02047 -0.10563,-9.28422 -0.22662,-9.475 -0.14561,-0.22961 -0.65859,-0.31906 -1.5173,-0.26459 l -1.29732,0.0823 -0.13229,4.3677 c -0.0728,2.40223 -0.0728,6.86708 0,9.92187 0.12723,5.34169 0.15958,5.61241 0.84557,7.07623 0.87568,1.86857 2.94844,4.10787 4.66935,5.0445 2.64306,1.43854 5.37311,1.80841 8.10187,1.09766 z m -48.75108,-0.62146 c 0.83078,-0.3247 1.77424,-0.80392 2.09659,-1.06494 l 0.58609,-0.47459 -0.57844,-0.93593 c -0.96601,-1.56304 -1.11754,-1.60896 -2.78711,-0.8446 -0.97477,0.44626 -2.16501,0.73486 -3.42311,0.83001 -8.15119,0.61647 -13.75972,-7.79243 -10.11544,-15.16613 2.94826,-5.9654 10.30203,-7.6759 15.76369,-3.66668 l 1.34928,0.99047 1.04012,-1.01565 c 0.57206,-0.5586 1.04011,-1.21946 1.04011,-1.46858 0,-0.52098 -1.90532,-1.98244 -3.83646,-2.94272 -4.14489,-2.06108 -9.60082,-1.73349 -13.51283,0.81136 -7.34163,4.77591 -8.65296,14.84556 -2.77133,21.28099 1.63364,1.78747 3.38587,2.94321 5.76006,3.79925 1.59269,0.57426 2.13257,0.63591 4.83556,0.55227 2.35744,-0.073 3.3829,-0.22713 4.55322,-0.68453 z m 26.66762,-8.49796 0.13229,-8.86354 3.6988,-0.074 c 2.03434,-0.0407 3.80016,-0.17536 3.92404,-0.29925 0.26884,-0.26883 -0.61595,-2.09378 -1.31083,-2.70369 -1.45718,-1.27899 -3.52284,-1.63204 -5.27226,-0.90109 -0.90071,0.37635 -0.93481,0.36867 -1.17557,-0.26458 -0.2119,-0.55734 -0.41792,-0.65217 -1.41682,-0.65217 -0.82178,0 -1.21656,0.12427 -1.32947,0.41852 -0.22754,0.59294 -0.20059,21.94288 0.028,22.17145 0.10372,0.10373 0.7288,0.15334 1.38906,0.11025 l 1.20048,-0.0784 z M 96.55044,178.28 c 4.9228,-1.05354 8.96749,-5.3529 9.73637,-10.34942 1.12063,-7.28227 -4.79226,-14.18228 -12.1813,-14.21488 -1.554919,-0.007 -4.357137,0.61441 -4.93522,1.09418 -0.274492,0.2278 -0.34589,2.5232 -0.34589,11.11997 0,6.41171 0.103619,11.02653 0.253886,11.30731 0.221594,0.41405 1.176891,0.78051 3.053406,1.17132 1.065229,0.22184 3.05171,0.16408 4.418748,-0.12848 z"
         id="path3794"
         inkscape:connector-curvature="0" />
      <path
         style="fill:#ffffff"
         d="m 109.13118,397.21085 c -0.69171,-0.39206 -0.55903,-0.79949 0.19844,-0.60938 0.82928,0.20813 0.93102,-0.52222 0.13229,-0.94969 -0.30626,-0.1639 -0.52917,-0.55399 -0.52917,-0.92604 0,-0.77849 0.74582,-1.25426 1.39589,-0.89046 0.61916,0.3465 0.58016,0.83318 -0.0507,0.63294 -0.79378,-0.25193 -0.86625,0.2507 -0.12862,0.89206 0.75796,0.65904 0.74917,1.25761 -0.0259,1.76595 -0.37005,0.2427 -0.6684,0.26814 -0.99219,0.0846 z m 26.47728,-0.28335 c -0.40098,-0.40098 -0.49658,-0.73964 -0.37724,-1.33635 0.0879,-0.4396 0.15986,-0.9007 0.15986,-1.02467 0,-0.12398 0.29765,-0.42045 0.66145,-0.65882 0.61274,-0.40148 0.71018,-0.40148 1.32292,0 0.48128,0.31534 0.66146,0.66796 0.66146,1.29448 0,1.7152 -1.42569,2.72812 -2.42845,1.72536 z m 1.28299,-0.42252 c 0.44597,-0.28369 0.66612,-1.44656 0.36187,-1.91153 -0.56909,-0.86975 -1.64654,0.65358 -1.23001,1.73903 0.16091,0.41933 0.40414,0.46766 0.86814,0.1725 z m -35.46691,0.52218 c -0.0721,-0.11667 0.0123,-0.86081 0.1876,-1.65365 0.28959,-1.30979 0.38962,-1.44964 1.09463,-1.53036 1.40014,-0.16032 1.99844,1.66379 0.92399,2.81708 -0.52977,0.56865 -1.93691,0.80268 -2.20622,0.36693 z m 1.67409,-0.69792 c 0.42072,-0.50694 0.25149,-1.86808 -0.23227,-1.86808 -0.20781,0 -0.47513,0.35719 -0.59404,0.79375 -0.35003,1.28507 0.13165,1.91134 0.82631,1.07433 z m 1.33619,0.18069 c 0,-0.97742 0.4511,-2.49846 0.80602,-2.71781 0.39434,-0.24372 1.60314,0.013 1.42424,0.30242 -0.0797,0.12888 -0.37592,0.23433 -0.65837,0.23433 -0.67452,0 -0.66277,0.53968 0.0156,0.71708 0.70738,0.18499 0.67208,0.54864 -0.0634,0.65358 -0.77054,0.10993 -0.98101,1.01059 -0.23616,1.01059 0.29312,0 0.60654,0.11906 0.69647,0.26458 0.0988,0.15979 -0.26183,0.26458 -0.91042,0.26458 -0.99581,0 -1.07395,-0.0531 -1.07395,-0.72935 z m 11.32895,0.0679 c -0.36399,-0.79885 -0.65254,-0.84234 -0.8779,-0.13229 -0.20609,0.64931 -0.74897,0.71272 -0.56633,0.0662 0.0719,-0.25466 0.20949,-0.96904 0.30567,-1.5875 0.1981,-1.2738 0.52891,-1.43167 0.97025,-0.46302 0.36338,0.79751 0.74542,0.85165 0.93353,0.13229 0.24666,-0.94321 0.63492,-0.56095 0.47029,0.46302 -0.39127,2.43357 -0.66584,2.77166 -1.23551,1.52135 z m 1.73802,-0.82956 c 0.22159,-1.88538 0.26647,-1.94856 1.38405,-1.94856 0.54999,0 0.85964,0.10744 0.76253,0.26458 -0.0899,0.14552 -0.39462,0.26459 -0.67708,0.26459 -0.28245,0 -0.51355,0.17859 -0.51355,0.39687 0,0.22049 0.23519,0.39688 0.52917,0.39688 0.72348,0 0.67157,0.47204 -0.0634,0.57691 -0.77054,0.10993 -0.98101,1.01059 -0.23616,1.01059 0.29312,0 0.60654,0.11906 0.69647,0.26458 0.0991,0.16033 -0.27398,0.26458 -0.94685,0.26458 h -1.11038 z m 6.77678,1.20861 c 0,-0.16482 -0.22712,-0.21033 -0.54547,-0.10929 -0.56848,0.18043 -0.57922,-0.0949 -0.0957,-2.45257 0.16931,-0.82555 0.90576,-0.77177 0.90576,0.0661 0,0.85469 0.45499,0.84915 0.84659,-0.0103 0.17472,-0.38346 0.48456,-0.6374 0.72193,-0.59169 0.22872,0.044 0.39012,0.16829 0.35866,0.27609 -0.0315,0.1078 -0.13649,0.7938 -0.23341,1.52446 -0.14805,1.11605 -0.25168,1.3045 -0.64815,1.17867 -0.25956,-0.0824 -0.5485,-0.0259 -0.6421,0.12556 -0.22216,0.35948 -0.66811,0.35477 -0.66811,-0.007 z m 2.53074,0.0456 c -0.21379,-0.34591 0.33742,-3.01317 0.66447,-3.2153 0.36709,-0.22687 1.56729,0.009 1.56729,0.30792 0,0.12855 -0.23109,0.23374 -0.51355,0.23374 -0.73522,0 -0.9674,0.53738 -0.30682,0.71012 0.75465,0.19735 0.69945,0.51937 -0.12446,0.72616 -0.79477,0.19947 -0.72703,0.7747 0.10566,0.89722 0.31603,0.0465 0.57459,0.19533 0.57459,0.33073 0,0.31534 -1.77287,0.32382 -1.96718,0.009 z m 4.19721,-0.40589 c -0.20355,-0.81104 -0.63723,-0.88994 -0.83045,-0.15109 -0.0761,0.29104 -0.25085,0.52917 -0.38831,0.52917 -0.2235,0 -0.0931,-1.9434 0.1908,-2.84427 0.17208,-0.54598 0.6465,-0.37443 0.9146,0.33073 0.30301,0.79698 0.68154,0.85452 0.87041,0.13229 0.0761,-0.29104 0.25203,-0.52917 0.39093,-0.52917 0.36103,0 -0.27447,2.97834 -0.66315,3.1079 -0.17275,0.0576 -0.39092,-0.20142 -0.48483,-0.57556 z m 8.74614,-0.87869 c 0.23278,-1.87164 0.26089,-1.91823 1.15736,-1.91823 0.94458,0 1.36022,0.44284 1.36022,1.44925 0,1.25306 -0.6539,1.99033 -1.76528,1.99033 h -0.94152 z m 1.60738,0.34368 c 0.50785,-0.77507 0.28287,-1.80359 -0.36713,-1.67841 -0.68102,0.13115 -0.95274,2.32692 -0.28796,2.32692 0.1266,0 0.42139,-0.29183 0.65509,-0.64851 z m 5.30825,0.96555 c -0.0721,-0.11667 0.0123,-0.86081 0.18761,-1.65365 0.28704,-1.29828 0.39374,-1.45015 1.07376,-1.52835 0.41528,-0.0478 0.88355,0.0417 1.04061,0.19874 0.36672,0.36671 0.22771,2.7355 -0.17559,2.99211 -0.413,0.26279 -1.9625,0.25633 -2.12639,-0.009 z m 1.68737,-0.71392 c 0,-0.21828 -0.17157,-0.39687 -0.38126,-0.39687 -0.44203,0 -0.74041,0.37763 -0.49349,0.62455 0.31622,0.31622 0.87475,0.17084 0.87475,-0.22768 z m 0.12099,-1.43692 c 0.19567,-0.3166 -0.30205,-0.6303 -0.65447,-0.4125 -0.2959,0.18288 -0.10165,0.6588 0.2689,0.6588 0.12834,0 0.30185,-0.11084 0.38557,-0.2463 z m -36.65202,0.54758 c 1.12471,-2.22803 1.41501,-2.19435 1.73839,0.20168 0.17918,1.32763 0.15786,1.41455 -0.30048,1.22526 -0.58537,-0.24176 -0.82096,-0.24045 -1.64015,0.009 -0.61328,0.18682 -0.61185,0.17667 0.20224,-1.43604 z m 8.58102,0.6909 c 0.81236,-1.90076 1.06235,-2.3151 1.39681,-2.3151 0.34783,0 0.44949,0.29465 0.75307,2.18281 0.16757,1.04226 -0.20969,1.33487 -0.86987,0.67469 -0.24695,-0.24694 -0.38806,-0.24694 -0.635,0 -0.17463,0.17462 -0.47388,0.3175 -0.66501,0.3175 -0.28285,0 -0.27913,-0.15999 0.02,-0.8599 z m 13.01524,-0.33313 c 0.11777,-0.78537 0.0701,-1.32409 -0.13943,-1.5766 -0.26166,-0.31528 -0.19297,-0.41503 0.38585,-0.56031 0.96755,-0.24284 1.43071,0.24924 0.84439,0.89712 -0.24395,0.26956 -0.44354,0.73889 -0.44354,1.04295 0,0.74617 -0.2657,1.38987 -0.57369,1.38987 -0.14938,0 -0.17943,-0.48718 -0.0736,-1.19303 z m 9.11394,1.0666 c 0,-0.44126 1.48971,-3.04857 1.74183,-3.04857 0.33,0 0.63942,1.16829 0.63942,2.41432 0,0.80035 -0.23086,0.95316 -0.71243,0.47159 -0.20907,-0.20908 -0.43862,-0.20908 -0.82927,0 -0.58378,0.31242 -0.83955,0.36198 -0.83955,0.16266 z m 7.14375,-0.0228 c 0,-0.0821 0.29604,-0.79646 0.65787,-1.5875 0.86151,-1.88346 1.34369,-1.87151 1.58242,0.0392 0.20787,1.66374 0.13331,1.85365 -0.57824,1.47283 -0.30814,-0.16491 -0.64673,-0.17469 -0.88256,-0.0255 -0.43602,0.27584 -0.77949,0.32031 -0.77949,0.10091 z m 3.23145,-1.23982 c 0.24207,-1.35147 0.7373,-2.34179 0.7373,-1.47438 0,0.22957 0.16786,0.55671 0.37303,0.72699 0.29576,0.24545 0.45894,0.18695 0.78767,-0.28237 0.22804,-0.32558 0.49683,-0.50976 0.59731,-0.40928 0.29916,0.29916 -0.27164,2.6462 -0.6757,2.77835 -0.25051,0.0819 -0.3208,-0.0138 -0.21416,-0.29168 0.218,-0.5681 -0.40909,-1.07014 -0.82153,-0.65769 -0.17117,0.17116 -0.31121,0.46598 -0.31121,0.65516 0,0.18918 -0.16234,0.34396 -0.36075,0.34396 -0.2904,0 -0.31224,-0.27089 -0.11196,-1.38906 z m 2.97292,0.16604 c 0.17902,-1.22137 0.51712,-1.93327 0.78901,-1.66138 0.26473,0.26473 -0.2654,2.71431 -0.61246,2.83 -0.29431,0.0981 -0.32878,-0.13005 -0.17655,-1.16862 z m 1.33135,0.36312 c 0.21641,-0.47294 0.52606,-1.18731 0.6881,-1.5875 0.35614,-0.87956 0.9806,-0.95148 1.1486,-0.13229 0.41196,2.00874 0.43081,2.57969 0.0852,2.57969 -0.19577,0 -0.49882,-0.14288 -0.67345,-0.3175 -0.24694,-0.24694 -0.38805,-0.24694 -0.635,0 -0.17462,0.17462 -0.47262,0.3175 -0.66221,0.3175 -0.27323,0 -0.26312,-0.17832 0.0488,-0.8599 z m -81.230432,-5.13927 c -0.84295,-0.84294 0.0524,-3.26125 1.20748,-3.26125 0.46713,0 1.30012,0.77279 0.88368,0.81982 -0.12696,0.0144 -0.51936,0.0441 -0.872,0.0662 -0.45166,0.0282 -0.69658,0.24589 -0.82866,0.73645 -0.26048,0.96744 0.0704,1.39777 0.91226,1.18648 0.73563,-0.18464 0.89205,0.0581 0.37236,0.57777 -0.44732,0.44731 -1.1554,0.3943 -1.67512,-0.12542 z m 3.10387,0.12542 c -0.17463,-0.17463 -0.3175,-0.76994 -0.3175,-1.32292 0,-1.76587 1.62362,-2.72483 2.49854,-1.47571 0.5614,0.80152 0.51701,1.58819 -0.1365,2.41899 -0.5794,0.7366 -1.51404,0.91014 -2.04454,0.37964 z m 1.38339,-0.62744 c 0.52937,-0.52936 0.53884,-1.67028 0.0155,-1.87109 -0.91087,-0.34954 -1.60867,1.23045 -0.86976,1.96936 0.39514,0.39514 0.35636,0.3996 0.85423,-0.0983 z m 21.754322,0.74441 c -0.0682,-0.11029 0.0183,-0.91396 0.19222,-1.78594 0.28242,-1.4162 0.39008,-1.59408 1.00878,-1.66666 1.40876,-0.16526 2.06245,2.00943 0.92517,3.07784 -0.59313,0.55722 -1.87388,0.78297 -2.12617,0.37476 z m 1.89462,-1.7177 c 0.0632,-0.76377 -0.0144,-0.99219 -0.33728,-0.99219 -0.23067,0 -0.53551,0.30541 -0.67743,0.67869 -0.41839,1.10044 -0.32526,1.48433 0.33728,1.39024 0.47819,-0.0679 0.61146,-0.27976 0.67743,-1.07674 z m 1.20342,1.51936 c -0.17724,-0.46188 0.10128,-2.15398 0.46704,-2.83741 0.15304,-0.28595 0.55544,-0.46789 1.03485,-0.46789 0.95508,0 1.03397,0.40918 0.12299,0.63782 -0.79413,0.19931 -0.8671,0.68086 -0.1323,0.87302 0.70848,0.18527 0.67169,0.54879 -0.0661,0.65357 -0.32742,0.0465 -0.59532,0.26314 -0.59532,0.48143 0,0.21828 0.2679,0.43492 0.59532,0.48142 0.94853,0.13471 0.68866,0.57691 -0.33903,0.57691 -0.58853,0 -0.991,-0.14763 -1.08741,-0.39887 z m 4.01605,0.15034 c -0.18898,-0.30577 0.10795,-2.36013 0.43253,-2.99262 0.14545,-0.28342 0.54189,-0.46302 1.02206,-0.46302 0.95508,0 1.03397,0.40918 0.12299,0.63782 -0.79413,0.19931 -0.8671,0.68086 -0.1323,0.87302 0.70848,0.18527 0.67169,0.54879 -0.0661,0.65357 -0.32742,0.0465 -0.59531,0.26314 -0.59531,0.48143 0,0.21828 0.26789,0.43492 0.59531,0.48142 0.32742,0.0465 0.59531,0.19533 0.59531,0.33073 0,0.3224 -1.77505,0.32029 -1.97445,-0.002 z m 6.24048,-0.10895 c -1.14133,-1.37522 0.63317,-4.17637 1.9522,-3.08167 0.52794,0.43815 0.22758,0.86321 -0.38015,0.53796 -0.96981,-0.51902 -1.83025,1.37133 -0.95488,2.09782 0.52057,0.43203 0.99869,0.0896 0.79056,-0.56613 -0.13213,-0.4163 -0.0636,-0.51099 0.31692,-0.43772 1.12911,0.21744 0.4097,1.80722 -0.81781,1.80722 -0.33558,0 -0.74367,-0.16087 -0.90684,-0.35748 z m 2.81285,0.0306 c -0.1474,-0.44219 0.3255,-2.63504 0.65698,-3.04653 0.31062,-0.38558 1.42385,-0.44314 1.64516,-0.0851 0.0835,0.13512 -0.1085,0.28394 -0.42668,0.33073 -0.77469,0.11391 -0.94767,0.74496 -0.25394,0.92637 0.66028,0.17267 0.48106,0.6139 -0.24935,0.6139 -0.68038,0 -0.66761,0.803 0.0156,0.98167 0.29104,0.0761 0.52917,0.24356 0.52917,0.3721 0,0.36262 -1.79409,0.27541 -1.91696,-0.0932 z m 24.54875,0.0784 c -0.18897,-0.30577 0.10795,-2.36013 0.43254,-2.99262 0.51427,-1.0021 1.96081,-0.32678 2.22938,1.0408 0.13378,0.68128 0.0356,0.97219 -0.51358,1.52135 -0.67279,0.6728 -1.85248,0.90917 -2.14834,0.43047 z m 1.55868,-0.69641 c 0.22868,-0.22868 0.41578,-0.70866 0.41578,-1.06664 0,-0.7462 -0.73238,-1.15722 -1.08099,-0.60666 -0.39191,0.61894 -0.26514,2.08907 0.18014,2.08907 0.0381,0 0.2564,-0.18709 0.48507,-0.41577 z m 5.98133,0.43317 c -0.46442,-0.86779 -0.31793,-2.00044 0.33848,-2.61711 0.71662,-0.67323 1.30866,-0.73294 1.76888,-0.17841 0.3484,0.41979 0.2321,0.48494 -0.72698,0.40731 -0.4188,-0.0339 -0.67094,0.15239 -0.85248,0.62987 -0.39237,1.03203 -0.0784,1.55657 0.82379,1.37614 0.80048,-0.1601 0.9621,0.0525 0.43817,0.57647 -0.48607,0.48607 -1.4837,0.37779 -1.78986,-0.19427 z m 6.77251,0.30372 c -0.0707,-0.11443 0.0115,-0.9181 0.18282,-1.78594 0.28697,-1.45407 0.37104,-1.5847 1.07124,-1.66472 0.41791,-0.0477 0.88821,0.0415 1.04511,0.19844 0.20397,0.20397 0.12383,0.28527 -0.2812,0.28527 -0.75865,0 -1.04848,0.53241 -0.50583,0.9292 0.58531,0.42799 0.55093,0.60477 -0.13729,0.70604 -0.83269,0.12253 -0.90044,0.69775 -0.10567,0.89723 0.37414,0.0939 0.68026,0.27688 0.68026,0.40663 0,0.29074 -1.77132,0.31604 -1.94944,0.0279 z m -75.217202,-1.45316 c 0.15899,-1.34244 0.58312,-2.14769 0.99661,-1.89214 0.12903,0.0797 0.23461,0.43563 0.23461,0.79084 0,0.82834 0.47057,0.83439 0.78397,0.0101 0.61943,-1.62923 1.20821,-0.92052 0.87692,1.05554 l -0.21693,1.29396 -1.41488,0.0235 -1.41489,0.0235 0.15459,-1.30523 z m 3.48497,0.008 c 0.21745,-1.61745 0.49584,-2.05052 1.31812,-2.05052 1.41233,0 1.55451,1.48983 0.202,2.11666 -0.47098,0.21828 -0.92549,0.60524 -1.01002,0.8599 -0.0845,0.25466 -0.27589,0.46302 -0.42526,0.46302 -0.17495,0 -0.20514,-0.49426 -0.0848,-1.38906 z m 1.715,-0.8599 c 0,-0.21828 -0.1786,-0.39688 -0.39688,-0.39688 -0.21828,0 -0.39687,0.1786 -0.39687,0.39688 0,0.21828 0.17859,0.39687 0.39687,0.39687 0.21828,0 0.39688,-0.17859 0.39688,-0.39687 z m 0.67231,1.65364 c 0.29976,-0.99803 1.29585,-2.6637 1.57664,-2.63648 0.27164,0.0263 0.92567,2.68483 0.7438,3.02338 -0.0557,0.10365 -0.39787,0.0533 -0.76042,-0.11188 -0.49644,-0.2262 -0.7358,-0.22373 -0.96951,0.01 -0.4975,0.4975 -0.78401,0.35923 -0.59051,-0.28499 z m 3.16491,-0.75991 c 0.10561,-0.78259 0.24497,-1.5122 0.30968,-1.62134 0.23414,-0.39488 0.63397,-0.18455 0.88018,0.46302 0.3192,0.83957 0.47728,0.83239 0.8077,-0.0367 0.40596,-1.06776 0.57954,-0.57024 0.37426,1.07275 -0.20265,1.62192 -0.73838,1.98273 -1.18801,0.80011 -0.25839,-0.67962 -0.7877,-0.66892 -0.7877,0.0159 0,0.2011 -0.13233,0.44743 -0.29407,0.54739 -0.21042,0.13004 -0.23944,-0.22297 -0.10204,-1.24116 z m 2.88863,0.56148 c 0.0843,-0.43657 0.2223,-1.15094 0.30663,-1.5875 0.17177,-0.88933 0.64043,-1.08295 0.64043,-0.26459 0,0.34663 0.17639,0.52917 0.51134,0.52917 0.28124,0 0.58691,-0.23813 0.67929,-0.52917 0.0924,-0.29104 0.29251,-0.52916 0.44474,-0.52916 0.26458,0 0.1064,1.93597 -0.22975,2.81195 -0.22928,0.59749 -0.61187,0.4109 -0.61187,-0.29841 0,-0.41635 -0.14949,-0.66146 -0.40342,-0.66146 -0.22188,0 -0.51659,0.29766 -0.65491,0.66146 -0.35969,0.94604 -0.8716,0.84681 -0.68248,-0.13229 z m 3.15213,-0.57505 c 0.18698,-1.57871 0.705354,-2.38597 0.705354,-1.09844 0,1.2367 -0.298804,2.46724 -0.599094,2.46724 -0.16774,0 -0.20758,-0.51325 -0.10626,-1.3688 z m 1.095954,0.85938 c 0.31287,-0.98576 1.3322,-2.71708 1.59377,-2.707 0.334398,0.0129 0.601018,0.94427 0.635088,2.21856 0.0257,0.96173 0.01,0.97886 -0.642258,0.68186 -0.50703,-0.23102 -0.74364,-0.22965 -0.97896,0.006 -0.47345,0.47345 -0.78834,0.37027 -0.60764,-0.19909 z M 112.2408,389.7991 c 0.10561,-0.78259 0.24497,-1.5122 0.30968,-1.62134 0.23413,-0.39488 0.63397,-0.18455 0.88018,0.46302 0.3192,0.83957 0.47728,0.83239 0.8077,-0.0367 0.40756,-1.07197 0.59952,-0.54689 0.39588,1.08293 -0.20203,1.61702 -0.75731,1.97963 -1.20964,0.78993 -0.25839,-0.67962 -0.78769,-0.66892 -0.78769,0.0159 0,0.2011 -0.13233,0.44743 -0.29407,0.54739 -0.21042,0.13004 -0.23945,-0.22297 -0.10204,-1.24116 z m 9.10068,1.22293 c -0.0788,-0.14552 -0.0364,-0.88966 0.0942,-1.65364 0.26045,-1.52361 0.72133,-1.79415 1.21408,-0.71269 0.33875,0.74348 0.83509,0.6467 0.83509,-0.16282 0,-0.28246 0.12636,-0.51355 0.2808,-0.51355 0.25472,0 0.15009,1.86054 -0.15995,2.84427 -0.18106,0.57449 -0.85034,0.35817 -1.02324,-0.33073 -0.21651,-0.86264 -0.52025,-0.83873 -0.84031,0.0661 -0.14154,0.40019 -0.32183,0.60855 -0.40064,0.46302 z m 3.0715,-1.25677 c 0.21174,-1.59799 0.59787,-2.21045 0.83116,-1.31835 0.19769,0.75598 0.70803,0.7541 1.23724,-0.005 l 0.41527,-0.59531 0.0139,0.82682 c 0.0311,1.85503 -0.62095,3.34035 -0.82762,1.88516 -0.0465,-0.32744 -0.26313,-0.59533 -0.48141,-0.59533 -0.21828,0 -0.5144,0.26789 -0.65805,0.59531 -0.45617,1.03976 -0.72092,0.64361 -0.53046,-0.79375 z m 2.77601,1.26264 c 0,-0.46849 1.49789,-3.04857 1.76987,-3.04857 0.33561,0 0.43799,0.30182 0.74042,2.18281 0.17493,1.08802 0.11443,1.14872 -0.6618,0.66396 -0.41832,-0.26125 -0.63282,-0.26125 -1.05115,0 -0.55709,0.34791 -0.79734,0.40871 -0.79734,0.2018 z m 3.3249,-1.13034 c 0.24432,-1.68411 0.54035,-2.18282 1.29572,-2.18282 0.59508,0 1.4648,0.60465 1.4648,1.01836 0,0.10275 -0.18622,0.45268 -0.41383,0.77763 -0.23723,0.3387 -0.34253,0.81544 -0.24675,1.11721 0.21783,0.68632 -0.29469,0.68417 -0.66234,-0.003 -0.15576,-0.29104 -0.40922,-0.52917 -0.56324,-0.52917 -0.15403,0 -0.34232,0.23813 -0.41843,0.52917 -0.28166,1.07708 -0.63576,0.51199 -0.45593,-0.7276 z m 1.90075,-1.05834 c 0.0646,-0.19399 -0.11778,-0.33073 -0.4411,-0.33073 -0.325,0 -0.55121,0.17084 -0.55121,0.41628 0,0.48627 0.82561,0.41509 0.99231,-0.0855 z m 0.97177,1.71979 c 0.0671,-0.32742 0.19388,-1.04179 0.28162,-1.5875 0.23939,-1.48894 0.77436,-1.26742 0.56838,0.23537 -0.0925,0.67515 -0.16825,1.38953 -0.16825,1.5875 0,0.19797 -0.18086,0.35995 -0.40192,0.35995 -0.27658,0 -0.36384,-0.18564 -0.27983,-0.59532 z m 1.21092,0.32194 c 0,-0.58604 1.35167,-2.90162 1.69376,-2.90162 0.24094,0 0.42364,0.49391 0.54653,1.47748 0.10153,0.81262 0.12684,1.53524 0.0563,1.60583 -0.0706,0.0706 -0.3751,-0.0257 -0.67668,-0.21408 -0.43268,-0.27022 -0.61668,-0.27409 -0.87243,-0.0183 -0.39573,0.39574 -0.74743,0.4196 -0.74743,0.0507 z m 4.08001,-0.52037 c 0.0843,-0.43657 0.22231,-1.15094 0.30663,-1.5875 0.17178,-0.88933 0.64044,-1.08295 0.64044,-0.26459 0,0.34663 0.17639,0.52917 0.51134,0.52917 0.28123,0 0.58691,-0.23813 0.67928,-0.52917 0.0924,-0.29104 0.28946,-0.52916 0.43797,-0.52916 0.25095,0 0.13551,1.48691 -0.21054,2.71198 -0.18182,0.64365 -0.57041,0.57914 -0.67204,-0.11157 -0.12325,-0.83759 -0.69019,-0.89575 -1.04927,-0.10766 -0.42454,0.93177 -0.8317,0.86125 -0.64381,-0.1115 z m 3.01126,0.65308 c -0.19347,-0.19347 0.26717,-2.56111 0.55411,-2.84805 0.39539,-0.39539 0.47219,0.1515 0.22463,1.59965 -0.21954,1.28423 -0.42059,1.60654 -0.77874,1.2484 z m 4.28971,-0.85152 c 0.006,-1.48131 0.52095,-2.31511 1.43029,-2.31511 1.00643,0 1.43445,0.6768 0.97315,1.53875 -0.19049,0.35594 -0.26627,0.89947 -0.16839,1.20785 0.22734,0.71629 -0.27204,0.74046 -0.65145,0.0315 -0.15576,-0.29104 -0.40922,-0.52917 -0.56325,-0.52917 -0.15402,0 -0.34231,0.23813 -0.41842,0.52917 -0.23064,0.88197 -0.60608,0.59317 -0.60193,-0.46302 z m 1.84818,-1.25677 c 0,-0.21828 -0.17156,-0.39688 -0.38126,-0.39688 -0.44202,0 -0.74041,0.37764 -0.49349,0.62456 0.31622,0.31622 0.87475,0.17084 0.87475,-0.22768 z m 1.1867,1.12448 c 0.24734,-1.59043 0.40064,-2.05052 0.68322,-2.05052 0.32476,0 0.31097,0.94875 -0.0318,2.18281 -0.38528,1.38734 -0.87242,1.28842 -0.65147,-0.13229 z m 4.11115,0.79375 c 0.0103,-0.55408 1.43107,-2.97617 1.71361,-2.92143 0.2933,0.0568 0.83521,2.90202 0.59793,3.1393 -0.0822,0.0822 -0.39627,-0.005 -0.69785,-0.19291 -0.43268,-0.27022 -0.61668,-0.27409 -0.87243,-0.0183 -0.41715,0.41715 -0.74912,0.41418 -0.74126,-0.007 z M 51.609769,388.64212 c -7.342752,-1.67965 -13.314554,-6.55496 -16.492289,-13.4641 -4.324658,-9.40284 -2.20213,-20.44542 5.288018,-27.51124 2.277827,-2.14879 3.730882,-3.14296 6.469134,-4.42615 3.438142,-1.61117 6.246601,-2.20525 10.332059,-2.18557 4.507325,0.0217 8.395796,1.03519 11.761496,3.06548 1.80547,1.08912 1.98501,1.52437 0.62982,1.52685 -1.70504,0.003 -5.39615,1.02174 -7.649377,2.11098 -4.443098,2.14784 -7.710559,5.42533 -9.895363,9.9257 -2.364809,4.87117 -2.629431,7.75906 -1.113872,12.156 1.9629,5.69476 6.657376,10.83558 12.082528,13.23133 1.618364,0.71467 5.148304,1.73247 6.008554,1.73247 0.26364,0 0.47934,0.16384 0.47934,0.3641 0,0.50118 -3.10528,2.07738 -5.820834,2.95456 -1.981809,0.64017 -2.736112,0.7363 -6.35,0.80925 -2.848677,0.0575 -4.59825,-0.0309 -5.729214,-0.28966 z m 7.827214,-3.05993 c 2.664878,-0.43238 2.747529,-0.59612 0.794954,-1.57489 -4.917771,-2.46514 -8.781521,-6.51714 -10.850491,-11.37914 -2.36587,-5.55972 -2.132744,-10.29808 0.800331,-16.267 2.215373,-4.50837 5.574486,-8.13 9.877683,-10.64964 1.132462,-0.66309 2.016573,-1.33615 1.964693,-1.4957 -0.283723,-0.8725 -7.23324,-1.24237 -10.241421,-0.54506 -7.652057,1.77376 -13.245622,7.02206 -15.652318,14.68617 -0.543367,1.73035 -0.618736,2.49358 -0.612871,6.20631 0.0065,4.0865 0.03675,4.32052 0.873415,6.74688 1.05642,3.06365 2.420671,5.41569 4.416194,7.61375 4.710279,5.18834 11.885152,7.75265 18.629831,6.65832 z m 5.045754,-4.62393 c -3.754593,-1.013 -6.142783,-2.29411 -8.36105,-4.48515 -6.288939,-6.21176 -6.457748,-16.31298 -0.379552,-22.71174 2.941275,-3.0964 6.136275,-4.65637 10.723032,-5.23556 2.26409,-0.2859 6.02201,0.0476 7.27798,0.64586 0.701451,0.33412 2.381251,2.62973 2.381251,3.25419 0,0.30613 -0.17243,0.29487 -0.99218,-0.0648 -3.567741,-1.56523 -8.273851,-1.98852 -11.701635,-1.05251 -2.963222,0.80916 -2.652017,-0.77765 -2.652017,13.52245 v 12.5523 l 0.595313,0.38322 c 1.670222,1.07516 3.982538,1.58441 7.209898,1.58788 2.7603,0.003 3.42554,-0.0867 5.09323,-0.68665 2.183101,-0.78534 2.356951,-0.6338 1.262261,1.10031 -0.818091,1.29593 -1.742821,1.60227 -5.297161,1.7548 -2.24329,0.0963 -3.02825,0.0104 -5.15937,-0.56463 z m 47.249313,-2.03202 c -8.97727,-1.14625 -12.712478,-12.72224 -6.11761,-18.9594 4.5347,-4.28872 11.294,-4.22889 15.67278,0.13874 1.27871,1.27545 2.63615,3.79777 2.88654,5.36359 l 0.17245,1.07845 h -7.83903 c -8.84766,0 -8.32816,0.15393 -7.17311,-2.12547 l 0.66592,-1.31412 4.16273,-0.004 c 2.2895,-0.002 4.33659,-0.11402 4.54908,-0.24843 0.56618,-0.35812 -0.24353,-1.16149 -2.07255,-2.05635 -1.18777,-0.58112 -1.82727,-0.7169 -3.33145,-0.70731 -3.12675,0.0199 -5.63548,1.65984 -6.95781,4.54819 -0.89725,1.95985 -0.77441,4.93519 0.27788,6.7308 1.50289,2.56448 3.77806,3.89456 6.6705,3.89959 2.87752,0.005 4.95653,-1.14283 6.61841,-3.6541 0.71715,-1.08368 0.7511,-1.1 2.28859,-1.1 1.9297,0 2.08596,0.28184 1.20438,2.17222 -2.06376,4.42531 -6.65688,6.87873 -11.6777,6.23765 z m 33.47629,-0.36192 c -3.17811,-0.85464 -6.01649,-3.21056 -7.38419,-6.12903 -0.68599,-1.46382 -0.71834,-1.73454 -0.84557,-7.07623 -0.0728,-3.05479 -0.0728,-7.51964 0,-9.92187 l 0.13229,-4.3677 1.29732,-0.0823 c 0.85871,-0.0545 1.37169,0.035 1.5173,0.26459 0.12099,0.19078 0.22297,4.45453 0.22662,9.475 0.007,9.04885 0.0121,9.13962 0.63388,10.45104 2.26612,4.77943 8.55384,6.00231 12.50555,2.43217 3.36182,-3.0372 3.38209,-8.68799 0.042,-11.70557 -2.31812,-2.09428 -4.93754,-2.65559 -7.91896,-1.69694 l -1.89948,0.61077 -0.887,-0.96789 c -0.48785,-0.53234 -0.887,-1.09529 -0.887,-1.251 0,-0.43135 2.68519,-1.56697 4.50565,-1.90552 3.40091,-0.63247 7.23136,0.69946 9.78908,3.40387 4.12111,4.35748 4.12539,10.91906 0.01,15.27054 -2.85829,3.02222 -6.97225,4.23547 -10.83741,3.19607 z m -52.752832,-0.47607 c -2.37419,-0.85604 -4.12642,-2.01178 -5.76006,-3.79925 -5.88163,-6.43543 -4.5703,-16.50508 2.77133,-21.28099 3.91201,-2.54485 9.367944,-2.87244 13.512832,-0.81136 1.93114,0.96028 3.83646,2.42174 3.83646,2.94272 0,0.24912 -0.46805,0.90998 -1.04011,1.46858 l -1.04012,1.01565 -1.34928,-0.99047 c -5.461658,-4.00922 -12.815432,-2.29872 -15.763692,3.66668 -3.64428,7.3737 1.96425,15.7826 10.115444,15.16613 1.2581,-0.0952 2.448338,-0.38375 3.423108,-0.83001 1.66957,-0.76436 1.8211,-0.71844 2.78711,0.8446 l 0.57844,0.93593 -0.58609,0.47459 c -1.34255,1.08712 -3.48823,1.65162 -6.649812,1.74947 -2.70299,0.0836 -3.24287,0.022 -4.83556,-0.55227 z m 33.334572,0.20142 c -0.22858,-0.22857 -0.25553,-21.57851 -0.028,-22.17145 0.11291,-0.29425 0.50769,-0.41852 1.32947,-0.41852 0.9989,0 1.20492,0.0948 1.41682,0.65217 0.24076,0.63325 0.27486,0.64093 1.17557,0.26458 1.74942,-0.73095 3.81508,-0.3779 5.27226,0.90109 0.69488,0.60991 1.57967,2.43486 1.31083,2.70369 -0.12388,0.12389 -1.8897,0.25855 -3.92404,0.29925 l -3.6988,0.074 -0.13229,8.86354 -0.13229,8.86354 -1.20048,0.0784 c -0.66026,0.0431 -1.28534,-0.007 -1.38906,-0.11025 z m -60.116723,-1.06572 c -1.876514,-0.39081 -2.831811,-0.75727 -3.053405,-1.17132 -0.150267,-0.28078 -0.253886,-4.8956 -0.253886,-11.30731 0,-8.59677 0.0714,-10.89217 0.34589,-11.11997 0.578083,-0.47977 3.380301,-1.10104 4.935221,-1.09418 7.389041,0.0326 13.301931,6.93261 12.181301,14.21488 -0.76888,4.99652 -4.81357,9.29588 -9.736371,10.34942 -1.36704,0.29256 -3.35352,0.35032 -4.41875,0.12848 z"
         id="path3792"
         inkscape:connector-curvature="0" />
      <path
         style="fill:none;stroke-width:2.85714293"
         d="M 342.28571,281.60332 C 323.8213,274.2622 310.1978,253.6185 310.1978,232.98048 c 0,-27.48259 23.04877,-51.03222 49.94684,-51.03222 19.09928,0 39.44558,11.49136 33.35022,18.83582 -2.45795,2.96165 -4.83352,2.59912 -12.13277,-1.85159 -16.90328,-10.30674 -40.37039,-5.7087 -53.03473,10.39139 -13.25967,16.85694 -10.11744,40.23093 7.48617,55.68711 9.92029,8.71014 11.08578,9.00798 29.96348,7.65729 16.80799,-1.20261 19.51659,-0.75569 18.77449,3.09775 -1.52852,7.93694 -27.8436,11.5713 -42.26579,5.83729 z"
         id="path3863"
         inkscape:connector-curvature="0"
         transform="matrix(0.26458333,0,0,0.26458333,27.970238,104.32143)" />
      <path
         style="fill:none;stroke-width:2.85714293"
         d="M 342.28571,281.60332 C 323.8213,274.2622 310.1978,253.6185 310.1978,232.98048 c 0,-27.48259 23.04877,-51.03222 49.94684,-51.03222 19.09928,0 39.44558,11.49136 33.35022,18.83582 -2.45795,2.96165 -4.83352,2.59912 -12.13277,-1.85159 -16.90328,-10.30674 -40.37039,-5.7087 -53.03473,10.39139 -13.25967,16.85694 -10.11744,40.23093 7.48617,55.68711 9.92029,8.71014 11.08578,9.00798 29.96348,7.65729 16.80799,-1.20261 19.51659,-0.75569 18.77449,3.09775 -1.52852,7.93694 -27.8436,11.5713 -42.26579,5.83729 z"
         id="path3865"
         inkscape:connector-curvature="0"
         transform="matrix(0.26458333,0,0,0.26458333,27.970238,104.32143)" />
      <path
         style="fill:none;stroke-width:2.85714293"
         d=""
         id="path3867"
         inkscape:connector-curvature="0"
         transform="matrix(0.26458333,0,0,0.26458333,27.970238,286.32143)" />
    </g>
  </g>
</svg>
