<?xml version="1.0" encoding="UTF-8" standalone="no"?>
<!-- Created with Inkscape (http://www.inkscape.org/) -->

<svg
   xmlns:dc="http://purl.org/dc/elements/1.1/"
   xmlns:cc="http://creativecommons.org/ns#"
   xmlns:rdf="http://www.w3.org/1999/02/22-rdf-syntax-ns#"
   xmlns:svg="http://www.w3.org/2000/svg"
   xmlns="http://www.w3.org/2000/svg"
   xmlns:sodipodi="http://sodipodi.sourceforge.net/DTD/sodipodi-0.dtd"
   xmlns:inkscape="http://www.inkscape.org/namespaces/inkscape"
   x="0px" y="0px" viewBox="0 -10 100 100"
  overflow="scroll" xml:space="preserve"
   version="1.1"
   id="svg8"
   width="100px" height="50px"
   sodipodi:docname="codevasf.svg"
   inkscape:version="0.92.3 (unknown)">
  <defs
     id="defs2" />
  <sodipodi:namedview
     id="base"
     pagecolor="#ffffff"
     bordercolor="#666666"
     borderopacity="1.0"
     inkscape:pageopacity="0.0"
     inkscape:pageshadow="2"
     inkscape:zoom="0.49497475"
     inkscape:cx="-181.24747"
     inkscape:cy="480.64318"
     inkscape:document-units="mm"
     inkscape:current-layer="layer1"
     showgrid="false"
     inkscape:pagecheckerboard="true"
     scale-x="0.9"
     inkscape:window-width="1535"
     inkscape:window-height="876"
     inkscape:window-x="65"
     inkscape:window-y="24"
     inkscape:window-maximized="1" />
  <metadata
     id="metadata5">
    <rdf:RDF>
      <cc:Work
         rdf:about="">
        <dc:format>image/svg+xml</dc:format>
        <dc:type
           rdf:resource="http://purl.org/dc/dcmitype/StillImage" />
        <dc:title></dc:title>
      </cc:Work>
    </rdf:RDF>
  </metadata>
  <g
     inkscape:label="Layer 1"
     inkscape:groupmode="layer"
     id="layer1"
     transform="translate(0,-216)">
    <path
       style="fill:#ffffff"
       d="m 7.1199745,291.12149 c -0.554934,-0.36746 -1.202819,-1.2029 -1.692772,-2.18281 -0.715079,-1.43016 -0.793681,-1.83662 -0.793052,-4.10104 7.94e-4,-2.77287 0.343977,-4.08084 1.400157,-5.33604 0.842169,-1.00086 2.501056,-1.79403 3.768603,-1.8019 1.4332715,-0.009 3.1964495,1.0086 3.8870785,2.24315 0.828106,1.4803 0.767043,1.94189 -0.316789,2.39475 -1.25862,0.52588 -1.584557,0.48486 -1.977234,-0.24886 -0.516884,-0.96581 -1.5244355,-1.33228 -2.2877875,-0.83211 -0.987179,0.64683 -1.277057,1.45967 -1.277057,3.58101 0,2.66819 0.549556,3.69163 1.986844,3.70012 0.6664535,0.004 1.5623615,-0.69737 1.5623615,-1.22299 0,-0.14263 0.157975,-0.47537 0.351054,-0.73942 0.337678,-0.4618 0.398169,-0.45925 1.5875,0.0668 0.680046,0.30081 1.235282,0.70246 1.233861,0.89254 -0.0066,0.8899 -1.347822,3.14832 -2.165789,3.64702 -1.279933,0.78036 -4.0452775,0.74872 -5.2669785,-0.0603 z m 11.8009775,0.28655 c -2.0848,-1.15306 -3.036589,-3.17463 -3.040123,-6.45712 -0.0031,-2.91958 0.473972,-4.47039 1.775878,-5.7723 2.712042,-2.71204 7.291911,-1.45629 8.409101,2.3057 0.452334,1.52317 0.520023,4.87975 0.126945,6.29486 -0.363332,1.30802 -1.286577,2.61514 -2.356287,3.33602 -0.709142,0.47789 -1.251953,0.59995 -2.639536,0.59356 -0.960747,-0.004 -1.984936,-0.13975 -2.275978,-0.30072 z m 3.442843,-3.30417 c 0.674042,-0.67404 0.922782,-1.56616 0.922782,-3.30961 0,-2.81493 -1.275815,-4.37378 -2.894547,-3.5367 -0.92596,0.47883 -1.338786,1.58964 -1.338786,3.60234 0,1.71185 0.337809,2.85704 0.988525,3.35118 0.613463,0.46584 1.803938,0.41088 2.322026,-0.10721 z m 6.06901,3.27721 c -0.07085,-0.18465 -0.09689,-3.25051 -0.05784,-6.81302 l 0.07099,-6.4773 3.175,5.3e-4 c 3.735803,5.3e-4 4.254646,0.22828 5.369097,2.35576 0.64471,1.23076 0.70651,1.61228 0.71119,4.39059 0.004,2.6166 -0.0746,3.19092 -0.56444,4.10104 -1.188973,2.2093 -2.46097,2.77424 -6.251754,2.77665 -1.63423,0.001 -2.361623,-0.0981 -2.45224,-0.33425 z m 5.316839,-3.48871 c 0.594273,-0.59427 0.649433,-0.85373 0.649433,-3.05473 0,-2.21775 -0.05197,-2.45728 -0.666517,-3.07182 -0.456933,-0.45693 -0.89372,-0.64035 -1.389062,-0.58329 l -0.722546,0.0832 -0.07452,3.27009 c -0.07796,3.42098 0.07464,4.00596 1.044987,4.00596 0.279837,0 0.80104,-0.29225 1.158227,-0.64944 z m 5.807078,3.23581 c -0.0811,-0.3311 -0.1139,-3.39997 -0.0729,-6.81971 l 0.0746,-6.21771 h 4.23333 4.23334 v 1.32292 1.32292 l -2.44337,0.076 c -2.12863,0.0662 -2.47986,0.1442 -2.72664,0.60531 -0.1558,0.2911 -0.20911,0.76291 -0.11849,1.04845 0.14615,0.46046 0.41113,0.51918 2.34299,0.51918 2.42212,0 2.81322,0.2023 2.81322,1.45521 0,1.25181 -0.39174,1.4552 -2.80274,1.4552 -2.30821,0 -2.48893,0.10488 -2.48893,1.44445 0,0.95831 0.52441,1.17389 3.05648,1.25647 l 2.36748,0.0772 v 1.45521 1.45521 l -4.16047,0.0728 c -4.13605,0.0724 -4.16134,0.0693 -4.30793,-0.52916 z m 13.42194,0.2579 c -0.34015,-0.41571 -3.76292,-12.12742 -3.76292,-12.87562 0,-0.49196 0.15656,-0.55199 1.43959,-0.55199 0.82185,0 1.52251,0.13416 1.63282,0.31264 0.10627,0.17195 0.61931,2.09523 1.14009,4.27396 0.52078,2.17873 1.06188,3.97281 1.20243,3.98684 0.14055,0.014 0.68174,-1.76214 1.20263,-3.94705 0.5209,-2.18491 1.03801,-4.11968 1.14913,-4.29948 0.24321,-0.39352 2.71318,-0.44379 2.95035,-0.06 0.18091,0.29271 -3.23856,12.6268 -3.64865,13.16074 -0.14624,0.1904 -0.84396,0.33073 -1.64443,0.33073 -0.79161,0 -1.50696,-0.14244 -1.66104,-0.33073 z m 6.66568,-0.0292 c -0.15444,-0.40247 3.25762,-12.54211 3.67614,-13.07919 0.17946,-0.23031 0.79389,-0.31686 1.87838,-0.26459 l 1.61167,0.0777 1.8789,6.4823 c 1.0334,3.56526 1.82433,6.63112 1.75763,6.81302 -0.0766,0.20896 -0.64902,0.33073 -1.55472,0.33073 -1.32485,0 -1.45298,-0.0551 -1.69132,-0.72761 -0.50928,-1.43695 -0.63369,-1.52135 -2.24257,-1.52135 -1.59943,0 -1.6202,0.0143 -2.21502,1.52135 -0.26044,0.65986 -0.41165,0.72761 -1.62407,0.72761 -0.88332,0 -1.38376,-0.12212 -1.47502,-0.35995 z m 6.23868,-5.52703 c -10e-4,-0.54121 -0.3504,-2.10891 -0.6922,-3.10886 -0.12059,-0.35277 -0.1593,-0.35277 -0.3484,0 -0.37448,0.69863 -0.86282,3.14008 -0.68548,3.42703 0.0942,0.15243 0.52144,0.27714 0.94942,0.27714 0.631,0 0.77785,-0.11256 0.77666,-0.59531 z m 7.36785,5.48373 c -1.27306,-0.69146 -2.41409,-3.23464 -1.78912,-3.98769 0.17857,-0.21516 0.7944,-0.37156 1.46305,-0.37156 1.06728,0 1.18366,0.0694 1.53766,0.91662 0.7029,1.68228 2.66682,1.57802 2.66682,-0.14156 0,-0.96276 -0.0347,-0.98984 -2.80207,-2.185 -1.93845,-0.83718 -2.73568,-1.927 -2.73414,-3.73761 0.002,-2.61549 1.48507,-3.97279 4.34559,-3.97766 2.0159,-0.003 3.0991,0.59725 3.82122,2.11901 0.69055,1.45522 0.49216,1.833 -1.01296,1.92884 -1.16967,0.0745 -1.35247,0.005 -1.98954,-0.75829 -0.75493,-0.90429 -1.4821,-0.97367 -1.9765,-0.18859 -0.39807,0.63211 0.22149,1.2055 1.96661,1.82007 2.75672,0.97081 3.68649,2.09842 3.6881,4.47288 0.001,1.75062 -0.61949,3.05789 -1.85096,3.89847 -0.70786,0.48318 -1.22611,0.59332 -2.75124,0.58472 -1.11749,-0.006 -2.16421,-0.16544 -2.58252,-0.39265 z m 9.0471,-0.10853 c -0.16514,-0.30855 -0.27389,-2.83694 -0.27389,-6.36739 0,-3.53045 0.10875,-6.05884 0.27389,-6.36739 0.24966,-0.46649 0.58444,-0.51178 3.78354,-0.51178 3.78789,0 4.14465,0.11657 4.14465,1.3542 0,1.43334 -0.17369,1.5559 -2.21112,1.56027 -2.29965,0.005 -2.6167,0.17538 -2.50486,1.34661 l 0.0858,0.8983 1.57835,0.0811 c 1.91899,0.0985 2.25811,0.34875 2.25811,1.6661 0,1.14635 -0.16589,1.23601 -2.51354,1.35871 l -1.32292,0.0691 -0.0772,2.36747 c -0.0425,1.30211 -0.20587,2.5225 -0.36312,2.71198 -0.15726,0.18948 -0.80294,0.34451 -1.43484,0.34451 -0.86511,0 -1.21658,-0.12642 -1.42281,-0.51178 z M 28.907624,274.56454 c -0.263353,-0.16721 -0.318112,-5.40952 -0.264584,-25.32981 l 0.0675,-25.11897 18.653122,-0.0729 c 10.25922,-0.0401 18.92101,-0.008 19.24844,0.0712 l 0.59531,0.14412 v 24.98878 c 0,24.43488 -0.0113,24.99485 -0.51177,25.26267 -0.61305,0.32809 -37.273828,0.38141 -37.788014,0.055 z m 34.709008,-2.04892 c 0.33904,-0.33904 0.41578,-1.11101 0.41578,-4.18277 0,-4.8686 0.0144,-4.84591 -2.80255,-4.42801 -1.15073,0.17072 -2.80662,0.39765 -3.67974,0.5043 l -1.5875,0.1939 0.0851,1.19563 c 0.10323,1.4512 0.0967,1.45766 -3.78923,3.76805 -4.49196,2.67068 -3.8705,2.59484 -6.90534,0.84275 -4.93439,-2.84875 -5.71843,-3.57534 -5.16609,-4.78759 0.34439,-0.75586 0.0522,-0.7207 6.1712,-0.74259 3.42079,-0.0122 5.04381,-0.11381 5.25917,-0.32916 0.23893,-0.23891 0.0725,-0.37322 -0.71435,-0.57653 -2.89174,-0.74718 -6.87135,-1.41291 -9.25863,-1.54885 -2.9637,-0.16876 -6.781637,0.29063 -7.26602,0.87427 -0.686567,0.82727 1.509099,4.89658 3.53993,6.56069 1.22203,1.00136 3.41488,2.06541 4.94742,2.40066 1.47152,0.3219 7.2827,0.58125 14.07017,0.62793 5.38135,0.037 6.32359,-0.0156 6.68072,-0.37268 z m -12.28752,-3.95961 c 1.60255,-0.95126 2.91372,-1.84422 2.91372,-1.98438 0,-0.15602 -2.36811,-0.25482 -6.10747,-0.25482 -4.76458,0 -6.08479,0.0727 -6.00434,0.33072 0.12168,0.39025 5.41677,3.63803 5.93133,3.63803 0.19418,0 1.66422,-0.7783 3.26676,-1.72955 z m 9.09191,-6.87339 c 1.58074,-0.29621 2.66075,-0.63026 2.74466,-0.84893 0.24944,-0.65004 -0.1384,-0.67 -2.00456,-0.10318 -3.04842,0.92593 -7.86343,0.75077 -13.53288,-0.4923 -3.7054,-0.81243 -8.63312,-0.99224 -11.267364,-0.41112 -2.170766,0.47887 -2.755551,0.76207 -2.755551,1.33443 0,0.56621 0.597406,0.61345 2.655226,0.20994 2.703739,-0.53016 8.855439,-0.30865 11.764569,0.42363 2.69137,0.67746 8.45977,0.62513 12.3959,-0.11247 z m -3.79694,-2.62493 c 3.25169,-0.47822 6.6321,-1.34938 6.93936,-1.78834 0.32717,-0.46739 0.0427,-8.32812 -0.43857,-12.11921 -0.77064,-6.07046 -2.17844,-9.83323 -4.63927,-12.39983 -2.21815,-2.31349 -6.35823,-3.90047 -11.83559,-4.53684 -2.57372,-0.29901 -13.625003,-0.73662 -14.460695,-0.57261 -0.239641,0.047 -0.501251,0.34664 -0.581356,0.6658 -0.369445,1.47199 0.517814,24.88869 1.095187,28.90439 0.266108,1.8508 0.312767,1.87336 2.80537,1.35674 1.208814,-0.25054 2.592634,-0.45497 3.075144,-0.4543 1.39226,0.002 1.93549,-0.40232 1.62787,-1.21144 -0.34338,-0.90316 -0.34173,-21.94564 0.002,-22.58747 0.22849,-0.42694 3.09482,-2.28955 6.64689,-4.31929 l 1.21631,-0.69504 1.22203,0.65054 c 0.67212,0.35779 2.4465,1.39915 3.94306,2.31413 l 2.72095,1.66359 0.069,11.48172 c 0.047,7.81466 -0.0205,11.57135 -0.21113,11.76237 -0.16882,0.16914 -2.11489,0.31563 -4.89764,0.36866 -5.7189,0.109 -6.11301,0.59601 -1.20189,1.48525 2.61601,0.47367 3.85627,0.47927 6.90313,0.0312 z m -2.00328,-3.21083 c 0.35376,-0.35376 0.41578,-1.3192 0.41578,-6.47297 0,-6.96199 0.13738,-6.60806 -2.5623,-6.60095 -2.27693,0.006 -2.3325,0.0788 -2.3325,3.05796 v 2.55216 l 0.88117,0.73567 c 1.30866,1.09258 1.43988,2.50871 0.34773,3.7526 -0.44758,0.50977 -1.35366,1.21326 -2.01352,1.56331 l -1.19975,0.63647 -1.14599,-0.60795 c -3.03858,-1.61196 -3.66159,-3.35593 -1.89672,-5.30943 0.9153,-1.01313 0.92604,-1.05293 0.92604,-3.43104 0,-2.86869 -0.0599,-2.9271 -2.77812,-2.70694 l -1.85209,0.15001 -0.0711,6.18463 c -0.0499,4.3399 0.0189,6.29314 0.23084,6.54844 0.24038,0.28965 1.55893,0.36381 6.46835,0.36381 5.25305,0 6.22799,-0.0616 6.58218,-0.41578 z m -4.80975,-3.16523 c 1.45939,-1.0707 1.57365,-1.66157 0.49659,-2.56785 -0.4181,-0.35181 -0.87968,-0.86841 -1.02574,-1.148 -0.39456,-0.7553 -0.26612,-7.62152 0.15199,-8.12532 0.18525,-0.2232 1.37281,-1.0979 2.63902,-1.94376 1.26621,-0.84586 2.44725,-1.71964 2.62452,-1.94172 0.43669,-0.54709 0.41895,-1.36274 -0.044,-2.02373 -0.34135,-0.48734 -5.16655,-3.51354 -6.2891,-3.9443 -0.2832,-0.10868 -1.41344,0.42148 -3.16787,1.48594 -3.64565,2.21192 -3.96231,2.51275 -3.86457,3.67135 0.0671,0.79548 0.27307,1.05655 1.40158,1.77662 0.7276,0.46426 2.00753,1.32798 2.84427,1.91938 l 1.52136,1.07527 v 4.02439 4.02439 l -0.95984,0.98296 c -0.73639,0.75413 -0.92276,1.1263 -0.80058,1.59866 0.16462,0.63639 2.11836,2.06433 2.81875,2.06014 0.21828,-0.001 0.96242,-0.41729 1.65364,-0.92442 z m -4.61979,-11.27396 c 0.10033,-0.52098 -3.02953,-2.69858 -3.57682,-2.48857 -0.25699,0.0986 -0.34145,0.51393 -0.28466,1.3997 l 0.0807,1.25946 1.45521,0.1578 c 1.95516,0.21202 2.22889,0.17337 2.32552,-0.32839 z m 9.51459,-0.0299 c 0.44578,-0.35198 0.42998,-2.29153 -0.0201,-2.46423 -0.34168,-0.13112 -3.4418,1.76885 -3.78058,2.31699 -0.0934,0.15106 -0.0158,0.36977 0.1723,0.48604 0.432,0.26698 3.18692,0.01 3.62836,-0.3388 z"
       id="path280"
       inkscape:connector-curvature="0" />
  </g>
</svg>
