<?xml version="1.0" encoding="utf-8"?>
<!-- Generator: Adobe Illustrator 20.1.0, SVG Export Plug-In . SVG Version: 6.00 Build 0)  -->
<svg version="1.2" baseProfile="tiny" id="Camada_1"
	 xmlns="http://www.w3.org/2000/svg" xmlns:xlink="http://www.w3.org/1999/xlink" x="0px" y="0px" viewBox="0 0 200 100"
	 overflow="scroll" xml:space="preserve">
<g id="XMLID_7794_">
	<path id="XMLID_8201_" fill="#FFFFFF" d="M128.8,64.9c-2.5,0-4.9-0.6-7.3-1.3c-1.9-0.6-3.9-1.2-5.9-1.3c-2.3-0.2-4.6,0.2-6.8,0.8
		c-1.9,0.5-3.8,1.2-5.8,1.5c-3.1,0.6-6.1,0.2-9.1-0.7c-1.7-0.5-3.4-1.1-5.2-1.4c-3-0.6-5.9-0.3-8.8,0.5c-2,0.6-3.9,1.2-5.9,1.6
		c-3.1,0.5-6.1,0.2-9-0.7c-2.1-0.6-4.2-1.4-6.5-1.6c-0.5-0.1-1.1-0.1-1.6-0.1c-0.4,0-0.5-0.2-0.5-0.5c0-0.2,0-0.4,0-0.5
		c0-1.2,0-1.2,1.3-1.1c2.6,0.2,5,1,7.5,1.7c2,0.6,4.1,1,6.2,1c2-0.1,3.9-0.5,5.8-1.1c1.8-0.6,3.6-1.1,5.4-1.4c3.1-0.5,6.2,0,9.2,0.8
		c1.8,0.5,3.6,1.1,5.5,1.4c2.9,0.5,5.7,0.1,8.4-0.8c1.9-0.6,3.8-1.2,5.8-1.5c3-0.5,5.9-0.1,8.8,0.7c1.7,0.5,3.3,1,5.1,1.4
		c3.1,0.7,6.2,0.3,9.2-0.6c2-0.6,4.1-1.3,6.2-1.6c0.6-0.1,1.3-0.1,2-0.2c0.4,0,0.6,0.1,0.6,0.6c0,1.9,0.3,1.5-1.6,1.7
		c-2.2,0.2-4.3,0.9-6.4,1.5C133.2,64.5,131,65,128.8,64.9z"/>
	<path id="XMLID_8200_" fill="#FFFFFF" d="M143.3,57.1c0,0.2,0,0.4,0,0.6c0,0.3-0.1,0.5-0.5,0.5c-2.9,0.1-5.5,1-8.2,1.8c-2,0.6-4.1,1-6.2,0.9
		c-2.2-0.1-4.4-0.6-6.5-1.2c-2.7-0.8-5.3-1.6-8.2-1.5c-2.4,0.1-4.6,0.8-6.9,1.5c-2.1,0.6-4.3,1.2-6.5,1.3c-2.3,0.1-4.5-0.4-6.7-1
		c-1.9-0.5-3.8-1.2-5.7-1.5c-2.7-0.4-5.3-0.1-7.8,0.6c-2.1,0.6-4.2,1.3-6.5,1.7c-3.2,0.5-6.4,0-9.5-1c-2.4-0.7-4.8-1.5-7.3-1.5
		c-0.3,0-0.5-0.1-0.5-0.5c0,0,0,0,0-0.1c0-1.8-0.3-1.8,1.7-1.6c2.2,0.2,4.4,0.8,6.5,1.5c4.2,1.4,8.4,1.4,12.7,0c2-0.7,4-1.2,6.1-1.5
		c2.7-0.3,5.4,0.1,8,0.8c2,0.6,3.9,1.2,6,1.6c2.6,0.4,5.2,0.1,7.8-0.6c2.1-0.6,4.1-1.3,6.2-1.6c3-0.5,6-0.1,8.9,0.7
		c2,0.6,4,1.2,6.1,1.6c2.5,0.4,5,0.1,7.5-0.6c2.3-0.6,4.5-1.4,6.8-1.7c0.6-0.1,1.2-0.1,1.8-0.2c0.8,0,0.8,0,0.9,0.8
		C143.3,56.9,143.3,57,143.3,57.1C143.3,57.1,143.3,57.1,143.3,57.1z"/>
	<path id="XMLID_8199_" fill="#FFFFFF" d="M129.1,56.7c-2.8-0.1-5-0.6-7.3-1.3c-2.4-0.8-4.9-1.5-7.4-1.5c-1.9,0-3.8,0.4-5.6,0.9
		c-2.4,0.7-4.9,1.5-7.4,1.8c-2,0.2-3.9-0.1-5.8-0.5c-2-0.5-3.9-1.2-5.8-1.6c-3-0.8-6.1-0.7-9.1,0.2c-2.2,0.6-4.4,1.4-6.6,1.7
		c-2,0.3-4,0.3-6-0.1c-1.2-0.3-2.5-0.5-3.7-0.9c-1.9-0.6-3.9-1.1-5.9-1.4c-0.4-0.1-0.8-0.1-1.2-0.1c-0.4,0-0.6-0.1-0.6-0.6
		c-0.1-1.5,0.1-1.6,1.6-1.5c2.5,0.2,4.8,1,7.1,1.7c4,1.3,7.9,1.1,11.9-0.1c2-0.6,3.9-1.2,6-1.5c2.8-0.3,5.6,0,8.3,0.8
		c1.9,0.6,3.8,1.2,5.7,1.5c2.4,0.4,4.7,0.2,7-0.3c2-0.5,3.9-1.2,5.9-1.6c2.8-0.6,5.5-0.6,8.3,0c1.9,0.4,3.8,1.1,5.7,1.6
		c3.1,0.8,6.2,0.9,9.3,0c2.3-0.6,4.5-1.4,6.9-1.8c0.8-0.1,1.6-0.2,2.4-0.2c0.4,0,0.6,0.2,0.6,0.6c0.1,1.6,0.1,1.5-1.5,1.6
		c-1.4,0.1-2.8,0.4-4.2,0.8c-1.8,0.5-3.6,1.1-5.5,1.5C131,56.6,129.8,56.8,129.1,56.7z"/>
	<path id="XMLID_8196_" fill="#FFFFFF" d="M78,36.7c1.5,0,2.9,0.1,4.3,0.6c2.1,0.8,3.1,2.6,2.5,4.7c-0.3,1.3-1.2,2.1-2.4,2.6
		c-2.9,1-5.8,1.1-8.7,0.1c-2.6-0.9-3.6-3.7-2.1-5.8c0.6-0.9,1.5-1.3,2.4-1.6C75.4,36.8,76.7,36.7,78,36.7z M78.1,43.5
		c0.3,0,0.7,0,1.1-0.1c1-0.3,1.7-1.2,1.8-2.3c0-1.2-0.5-2.1-1.6-2.4c-0.9-0.3-1.9-0.3-2.8,0c-1.1,0.3-1.8,1.6-1.5,2.7
		C75.3,42.8,76.3,43.5,78.1,43.5z"/>
	<path id="XMLID_8195_" fill="#FFFFFF" d="M97.3,40.2c0.8,0,1.6,0,2.3,0c0.4,0,0.6,0.2,0.6,0.6c0,1.2,0,2.4,0,3.6c0,0.3-0.1,0.6-0.5,0.6
		c-3.6,0.5-7.2,0.7-10.7-0.8c-2-0.8-2.8-2.7-2-4.5c0.4-1,1.2-1.6,2.2-2c1.4-0.6,2.9-0.9,4.3-0.9c1.9-0.1,3.7-0.1,5.6,0.2
		c0.5,0.1,0.7,0.3,0.6,0.8c-0.2,1.3-0.2,1.2-1.4,1c-1.8-0.3-3.6-0.3-5.3,0.1c-0.4,0.1-0.8,0.3-1.2,0.5c-1.4,0.8-1.4,2.5-0.1,3.4
		c0.8,0.5,1.7,0.7,2.7,0.8c0.5,0,0.9,0,1.4,0c0.5,0,0.7-0.2,0.7-0.7c0-0.8,0-0.8-0.8-0.8c-0.1,0-0.1,0-0.2,0c-1.2,0-1.4-0.3-1.1-1.4
		c0.1-0.4,0.3-0.4,0.6-0.4C95.7,40.2,96.5,40.2,97.3,40.2z"/>
	<path id="XMLID_8194_" fill="#FFFFFF" d="M113.1,43.4c0.1,2.2,0.2,1.8-1.6,1.8c-2.6,0-5.2,0-7.8,0c-0.8,0-0.8,0-0.8-0.9c0-2.2,0-4.5,0-6.7
		c0-0.8,0-0.8,0.8-0.8c2.8,0,5.7,0,8.5,0c0.7,0,0.7,0.1,0.7,0.9c0,0.8-0.1,0.9-0.8,0.9c-1.6,0-3.1,0-4.7,0c-0.6,0-0.6,0.3-0.6,0.8
		c0,0.5,0.1,0.7,0.6,0.7c1.5,0,2.9,0,4.4,0c0.7,0,0.7,0.4,0.7,0.9c0,0.5,0,0.9-0.7,0.9c-1.5,0-2.9,0-4.4,0c-0.7,0-0.6,0.4-0.6,0.8
		c0,0.5-0.1,0.9,0.6,0.8C109.4,43.4,111.3,43.5,113.1,43.4L113.1,43.4z"/>
	<path id="XMLID_8193_" fill="#FFFFFF" d="M65.4,36.7c1.3,0,2.5,0.1,3.7,0.3c0.5,0.1,0.6,0.3,0.5,0.8c-0.2,1.3-0.2,1.3-1.5,1c-1.5-0.3-3-0.4-4.4,0
		C63,39,62.5,39.2,62,39.7c-0.9,0.9-0.7,2.2,0.3,2.9c0.9,0.7,2,0.9,3,0.9c1.2,0.1,2.3,0,3.5-0.3c0.5-0.1,0.6,0,0.7,0.5
		c0.2,1.3,0.2,1.3-1,1.4c-2.9,0.4-5.8,0.3-8.6-0.9c-1.6-0.7-2.4-1.9-2.4-3.4c0-1,0.5-1.8,1.2-2.4c1.2-1,2.7-1.4,4.2-1.6
		C63.8,36.7,64.6,36.7,65.4,36.7z"/>
	<path id="XMLID_8192_" fill="#FFFFFF" d="M73.8,71.7c0,0.4,0,0.8,0,1.3c0,0.5-0.3,0.6-0.7,0.6c-0.5,0-0.6-0.3-0.6-0.7c0-0.8,0.1-1.6-0.1-2.4
		c-0.1-0.3-0.1-0.5-0.5-0.5c-0.4,0-0.6,0.2-0.7,0.5c-0.1,0.4-0.1,0.8-0.1,1.2c0,0.4,0,0.9,0,1.3c0,0.6-0.4,0.6-0.8,0.6
		c-0.4,0-0.6-0.3-0.5-0.7c0.1-0.8,0.1-1.5,0-2.3c0-0.3-0.1-0.5-0.5-0.6c-0.4,0-0.6,0.2-0.7,0.5c-0.1,0.4-0.1,0.7-0.1,1.1
		c0,0.4,0,0.9,0,1.3c0,0.5-0.3,0.7-0.7,0.7c-0.4,0-0.6-0.2-0.6-0.6c0-1-0.1-2-0.1-3c0-0.8,0.4-1.1,1.1-0.9c0.3,0.1,0.5,0.1,0.7,0
		c0.6-0.2,1.2-0.2,1.7,0.2c0.2,0.2,0.4,0.1,0.6,0c1.3-0.9,2.6,0,2.5,1.5C73.8,71.1,73.9,71.4,73.8,71.7
		C73.9,71.7,73.9,71.7,73.8,71.7z"/>
	<path id="XMLID_8191_" fill="#FFFFFF" d="M121.6,71.8c0,0.3,0,0.7,0,1c0,0.4-0.2,0.6-0.6,0.8c-1.2,0.4-3,0-3.9-0.9c-0.4-0.5-0.6-1-0.6-1.6
		c-0.1-2,0.6-3.5,2.9-3.6c0.5,0,1.1-0.1,1.6,0.2c0.4,0.2,0.3,0.5,0.3,0.8c-0.1,0.3-0.3,0.3-0.5,0.3c-0.3,0-0.6,0-1,0
		c-1.2,0-1.8,0.5-2,1.6c-0.2,1,0.5,2.1,1.5,2.3c0.7,0.1,1-0.1,1-0.8c0-0.4-0.2-0.5-0.6-0.5c-0.4,0-0.6-0.2-0.6-0.6
		c0-0.4,0.1-0.6,0.5-0.6c0.4,0,0.9,0,1.3,0c0.4,0,0.6,0.2,0.6,0.6C121.6,71,121.6,71.4,121.6,71.8z"/>
	<path id="XMLID_8190_" fill="#FFFFFF" d="M117.3,80.4c0,0.8,0,1.6,0,2.4c0,0.5-0.3,0.6-0.7,0.6c-0.4,0-0.6-0.2-0.6-0.6c0-0.5,0-1,0-1.5
		c0-0.3-0.1-0.5-0.5-0.5c0,0,0,0-0.1,0c-1.6-0.1-1.7,0-1.6,1.7c0.1,0.7-0.1,0.9-0.7,0.9c-0.4,0-0.6-0.2-0.6-0.6c0-1.6,0-3.3,0-4.9
		c0-0.5,0.3-0.5,0.7-0.5c0.4,0,0.7,0.1,0.6,0.6c0,0.4,0.1,0.8,0,1.2c0,0.1,0,0.2,0,0.2c0.3,0.6,0.9,0.3,1.3,0.3
		c0.4,0,0.7-0.1,0.7-0.6c0-0.4,0-0.8,0-1.2c0-0.4,0.2-0.6,0.6-0.6c0.4,0,0.7,0.1,0.7,0.6C117.3,78.7,117.3,79.6,117.3,80.4
		C117.3,80.4,117.3,80.4,117.3,80.4z"/>
	<path id="XMLID_8187_" fill="#FFFFFF" d="M74.5,80.4c0-0.8,0-1.6,0-2.4c0-0.5,0.2-0.7,0.7-0.7c0.7,0,1.5-0.1,2.2,0.1c0.6,0.1,1,0.5,1.2,1.1
		c0.1,0.6,0,1.2-0.5,1.6c-0.3,0.2-0.3,0.4-0.1,0.7c0.3,0.6,0.6,1.3,0.8,2c0.2,0.5,0,0.6-0.5,0.6c-0.6,0-0.9-0.2-1-0.8
		c-0.1-0.4-0.3-0.8-0.4-1.2c-0.1-0.3-0.3-0.4-0.7-0.4c-0.3,0-0.3,0.3-0.3,0.5c0,0.4,0,0.8,0,1.3c0,0.5-0.3,0.6-0.7,0.6
		c-0.4,0-0.6-0.1-0.6-0.6C74.5,82,74.4,81.2,74.5,80.4C74.4,80.4,74.5,80.4,74.5,80.4z M76.3,78.4c-0.5,0-0.5,0.3-0.5,0.7
		c0,0.4-0.1,0.7,0.5,0.7c0.5,0,0.9-0.3,0.9-0.7C77.2,78.7,76.8,78.4,76.3,78.4z"/>
	<path id="XMLID_8184_" fill="#FFFFFF" d="M74.8,72.3c0-0.8,0-1.5,0-2.3c0-0.9,0.3-1.1,1.1-0.9c0.2,0,0.3,0.1,0.6,0.1c1.9-0.6,2.7,0.5,2.7,2.1
		c0,0.4,0,0.7-0.1,1.1c-0.3,1-1.2,1.5-2.2,1.2c-0.5-0.2-0.6,0-0.6,0.5c0,0.2,0,0.3,0,0.5c0,0.7-0.2,0.9-0.9,0.8
		c-0.4,0-0.5-0.2-0.5-0.6C74.8,73.9,74.8,73.1,74.8,72.3z M77.9,71.3c0-0.2-0.1-0.4-0.1-0.6c-0.2-0.4-0.4-0.7-0.9-0.6
		c-0.5,0.1-0.6,0.5-0.6,0.9c0,0.3,0,0.6,0,0.8c0.1,0.4,0.3,0.8,0.7,0.9c0.4,0.1,0.6-0.3,0.8-0.6C77.9,71.8,77.9,71.5,77.9,71.3z"/>
	<path id="XMLID_8181_" fill="#FFFFFF" d="M124.9,80.1c0,0.8,0,1.6,0,2.4c0,0.7-0.2,1-0.9,0.8c-0.4-0.1-0.7-0.1-1,0c-1.2,0.2-2-0.3-2.3-1.5
		c-0.1-0.6-0.1-1.2,0.1-1.8c0.4-1.2,1.2-1.6,2.3-1.2c0.5,0.2,0.6,0,0.6-0.4c0-0.3,0-0.6,0-1c0-0.4,0.1-0.7,0.6-0.7
		c0.5,0,0.7,0.3,0.6,0.7C124.9,78.4,124.9,79.3,124.9,80.1C124.9,80.1,124.9,80.1,124.9,80.1z M123.6,81.1c0-0.8-0.3-1.3-0.8-1.3
		c-0.5,0-0.8,0.4-0.8,1.2c0,0.7,0.4,1.3,0.9,1.3C123.3,82.4,123.6,81.9,123.6,81.1z"/>
	<path id="XMLID_8178_" fill="#FFFFFF" d="M108.5,70.4c0,0.8,0,1.6,0,2.4c0,0.7-0.2,0.9-0.8,0.7c-0.4-0.1-0.7-0.1-1.1,0c-1.4,0.2-2-0.4-2.3-1.7
		c-0.1-0.4-0.1-0.8,0-1.2c0.2-1.2,1-2,2.5-1.5c0.4,0.1,0.5,0,0.5-0.3c0-0.4,0-0.8,0-1.2c0-0.4,0.2-0.6,0.6-0.6
		c0.4,0,0.6,0.1,0.6,0.6C108.5,68.6,108.5,69.5,108.5,70.4C108.5,70.4,108.5,70.4,108.5,70.4z M106.2,70.1c-0.2,0-0.4,0.1-0.5,0.4
		c-0.1,0.3-0.2,0.7-0.2,1c0.1,0.7,0.4,1.1,0.8,1.1c0.4,0,0.8-0.5,0.8-1.2C107.3,70.7,106.8,70,106.2,70.1z"/>
	<path id="XMLID_8175_" fill="#FFFFFF" d="M61.1,80.2c0,0.8,0,1.6,0,2.4c0,0.7-0.3,1-1,0.7c-0.3-0.1-0.6-0.1-1,0c-0.9,0.3-1.9-0.2-2.2-1.2
		c-0.2-0.6-0.2-1.3,0-1.9c0.3-1.2,1.1-1.7,2.3-1.3c0.5,0.2,0.7,0.1,0.6-0.5c0-0.3,0-0.5,0-0.8c0-0.5,0.1-0.7,0.6-0.7
		c0.5,0,0.7,0.2,0.7,0.7c0,0.4,0,0.8,0,1.2C61.1,79.3,61.1,79.8,61.1,80.2C61.1,80.2,61.1,80.2,61.1,80.2z M59.8,81.2
		c0-0.3,0-0.6-0.1-0.8c-0.2-0.4-0.4-0.6-0.8-0.6c-0.4,0-0.6,0.3-0.7,0.7c-0.1,0.4-0.1,0.8,0,1.2c0.1,0.4,0.3,0.8,0.8,0.7
		c0.5-0.1,0.7-0.4,0.8-0.8C59.8,81.4,59.8,81.3,59.8,81.2z"/>
	<path id="XMLID_8174_" fill="#FFFFFF" d="M89.8,70.3c0-0.9,0-1.7,0-2.6c0-0.4,0.1-0.7,0.6-0.7c0.5,0,0.8,0.1,0.8,0.7c0,0.4,0,0.7,0,1.1
		c0,0.4,0.1,0.5,0.5,0.3c1-0.3,1.7,0,2,0.7c0.1,0.2,0.1,0.4,0.1,0.6c0,0.9,0,1.7,0,2.6c0,0.4-0.2,0.6-0.6,0.6
		c-0.4,0-0.6-0.2-0.6-0.6c0-0.6,0-1.2,0-1.8c0-0.3,0-0.6-0.2-0.8c-0.2-0.4-0.7-0.4-1-0.1c-0.2,0.2-0.3,0.5-0.3,0.8
		c0,0.6,0,1.1,0,1.7c0,0.7-0.2,0.8-0.7,0.8c-0.6,0-0.7-0.3-0.7-0.8C89.9,72,89.8,71.2,89.8,70.3z"/>
	<path id="XMLID_8173_" fill="#FFFFFF" d="M101.1,71.9c0,0.4,0,0.7,0,1.1c0,0.6-0.2,0.8-0.8,0.6c-0.4-0.1-0.7-0.1-1.1,0c-1.4,0.4-2.3-0.6-1.9-1.8
		c0.2-0.5,0.7-1,1.4-1c0.3,0,0.5,0,0.8,0c0.2,0,0.4,0,0.4-0.2c0-0.2-0.1-0.4-0.3-0.4c-0.4-0.1-0.8-0.1-1.2,0
		c-0.2,0.1-0.5,0.3-0.6-0.1c-0.1-0.3-0.1-0.6,0.3-0.8c1.5-0.9,3.1,0.1,3.2,1.8C101.1,71.3,101.1,71.6,101.1,71.9z"/>
	<path id="XMLID_8172_" fill="#FFFFFF" d="M83.6,71.3c0,0.5,0,1,0.1,1.5c0,0.2,0.1,0.6-0.2,0.7c-0.3,0.1-0.6,0.2-0.8-0.1c-0.2-0.2-0.4-0.1-0.6,0
		c-0.4,0.2-0.8,0.2-1.3,0.1c-0.5-0.1-1-0.6-1-1.1c-0.1-0.8,0.1-1.2,0.8-1.5c0.4-0.2,0.9-0.2,1.3-0.2c0.2,0,0.4,0,0.5-0.2
		c0-0.3-0.2-0.4-0.5-0.4c-0.3,0-0.7-0.1-1,0.1c-0.2,0.1-0.5,0.3-0.6-0.1c-0.1-0.3-0.1-0.6,0.2-0.9c0.6-0.4,2.1-0.3,2.6,0.3
		C83.7,70,83.6,70.7,83.6,71.3z"/>
	<path id="XMLID_8171_" fill="#FFFFFF" d="M125.2,71.7c-0.3,0-0.6,0-1,0c-0.2,0-0.3,0-0.4,0.2c-0.1,0.2,0.1,0.3,0.2,0.4c0.5,0.5,1,0.4,1.5,0.2
		c0.3-0.1,0.5-0.4,0.8,0c0.2,0.3-0.1,0.8-0.5,1c-1.7,0.7-3.3-0.3-3.3-2.2c0-0.4,0-0.8,0.1-1.1c0.4-1,1.3-1.4,2.5-1.2
		c0.9,0.2,1.4,1.3,1.4,2.2c0,0.4-0.2,0.5-0.5,0.5C125.8,71.7,125.5,71.7,125.2,71.7C125.2,71.7,125.2,71.7,125.2,71.7z"/>
	<path id="XMLID_8170_" fill="#FFFFFF" d="M81.9,81.5c-0.3,0-0.6,0-0.9,0c-0.2,0-0.3,0-0.4,0.2c0,0.2,0.1,0.3,0.2,0.4c0.4,0.5,1,0.4,1.5,0.3
		c0.3-0.1,0.6-0.5,0.8,0.1c0.1,0.4-0.1,0.9-0.6,0.9c-1,0.1-2,0.3-2.7-0.6c-0.7-0.8-0.6-1.8-0.3-2.7c0.5-1.4,2.4-1.8,3.4-0.6
		c0.4,0.5,0.5,1.1,0.5,1.7c0,0.2-0.2,0.3-0.4,0.3C82.6,81.5,82.3,81.5,81.9,81.5C81.9,81.5,81.9,81.5,81.9,81.5z"/>
	<path id="XMLID_8169_" fill="#FFFFFF" d="M112,71.7c-0.4,0-0.7,0-1.1,0c-0.3,0-0.4,0.2-0.2,0.5c0.3,0.5,1,0.6,1.7,0.3c0.2-0.1,0.5-0.3,0.7,0
		c0.2,0.3,0.1,0.6-0.2,0.8c-0.8,0.4-1.6,0.4-2.4,0.1c-0.7-0.3-1.1-0.9-1.1-1.7c0-0.9,0-1.7,0.7-2.4c0.8-0.7,2.5-0.5,3,0.5
		c0.1,0.1,0.1,0.2,0.2,0.3c0.4,1,0.4,1.6-0.9,1.5C112.2,71.7,112.1,71.7,112,71.7C112,71.7,112,71.7,112,71.7z"/>
	<path id="XMLID_8168_" fill="#FFFFFF" d="M84.7,71.3c0-0.5,0-1,0-1.5c0-0.7,0.2-0.8,0.8-0.7c0.4,0.1,0.7,0.1,1.1,0c1.4-0.3,2,0.1,2.2,1.6
		c0.1,0.8,0.1,1.6,0,2.4c-0.1,0.5-0.3,0.5-0.7,0.5c-0.4,0-0.6-0.2-0.6-0.6c0-0.7,0-1.4,0-2.1c0-0.4-0.1-0.7-0.5-0.8
		c-0.4-0.1-0.6,0.2-0.8,0.5C85.9,71,86,71.6,86,72c0,0.3,0,0.6,0,0.8c0,0.5-0.2,0.7-0.7,0.7c-0.6,0-0.6-0.3-0.6-0.8
		C84.7,72.3,84.7,71.8,84.7,71.3z"/>
	<path id="XMLID_8165_" fill="#FFFFFF" d="M102.4,83.4c-1.7,0-2.3-1-2.4-2.4c-0.1-1.2,1-2.3,2.3-2.3c1.4,0,2.3,0.9,2.3,2.4
		C104.5,82.5,103.7,83.4,102.4,83.4z M103.2,81c0,0,0-0.2,0-0.3c-0.1-0.5-0.4-0.8-0.9-0.9c-0.5,0-0.9,0.4-1,0.9c0,0.1,0,0.3,0,0.4
		c0,0.8,0.4,1.3,1,1.3C102.8,82.4,103.2,81.9,103.2,81z"/>
	<path id="XMLID_8164_" fill="#FFFFFF" d="M92.1,81.1c0,0.5,0,1,0,1.5c0,0.7-0.3,0.9-0.9,0.7c-0.4-0.1-0.8-0.1-1.1,0c-1.1,0.3-1.8-0.2-2-1.3
		c-0.1-0.8-0.1-1.7-0.1-2.5c0-0.5,0.2-0.7,0.7-0.7c0.5,0,0.7,0.2,0.7,0.7c0,0.7,0,1.3,0,2c0,0.4,0.1,0.8,0.6,0.9
		c0.4,0,0.7-0.3,0.8-0.7c0.2-0.7,0.1-1.4,0.1-2.1c0-0.5,0.2-0.8,0.7-0.7c0.4,0,0.6,0.2,0.6,0.6C92.1,80,92.1,80.6,92.1,81.1
		C92.1,81.1,92.1,81.1,92.1,81.1z"/>
	<path id="XMLID_8161_" fill="#FFFFFF" d="M139,71.3c0-1.4,0.9-2.3,2.2-2.3c1.4,0,2.4,1,2.4,2.4c0,1.3-1,2.3-2.3,2.2C140,73.6,138.8,72.9,139,71.3z
		 M142.1,71.5c0-0.3,0-0.4,0-0.5c0-0.4-0.2-0.8-0.7-0.9c-0.5-0.1-0.8,0.1-1.1,0.6c-0.2,0.5-0.1,0.9,0,1.3c0.2,0.4,0.5,0.7,0.9,0.6
		c0.4,0,0.7-0.3,0.8-0.7C142.1,71.7,142.1,71.5,142.1,71.5z"/>
	<path id="XMLID_8158_" fill="#FFFFFF" d="M135.2,81.1c0-1.3,0.9-2.4,2.2-2.4c1.4,0,2.3,0.9,2.3,2.4c0,1.3-0.9,2.2-2.2,2.3
		C136.1,83.4,135.2,82.5,135.2,81.1z M138.4,81.2c0-0.2,0-0.3,0-0.4c-0.1-0.5-0.3-0.9-0.9-0.9c-0.5,0-0.8,0.3-0.9,0.9
		c-0.1,0.4,0,0.8,0.2,1.2c0.1,0.4,0.5,0.5,0.8,0.5c0.4,0,0.7-0.2,0.8-0.5C138.3,81.6,138.4,81.4,138.4,81.2z"/>
	<path id="XMLID_8157_" fill="#FFFFFF" d="M60.1,73.6c-1.3,0.1-2.3-0.4-2.9-1.5c-0.6-1.2-0.4-2.5,0.4-3.7c0.6-0.9,2.5-1.3,3.5-0.8
		c0.4,0.2,0.4,0.5,0.3,0.8c-0.1,0.4-0.3,0.2-0.6,0.2c-0.3,0-0.6-0.1-0.9-0.1c-1.2,0.1-1.9,1.1-1.7,2.5c0.2,1.2,1.2,1.9,2.4,1.6
		c0.3-0.1,0.7-0.2,0.8,0.3c0.1,0.5-0.2,0.7-0.6,0.7C60.6,73.6,60.3,73.6,60.1,73.6z"/>
	<path id="XMLID_8154_" fill="#FFFFFF" d="M66.5,81.2c0,1.4-0.9,2.2-2.3,2.3c-1.2,0.1-2.3-1.1-2.3-2.3c0-1.3,1.1-2.4,2.4-2.3
		C65.7,78.8,66.5,79.7,66.5,81.2z M65.3,81.1c0-0.3-0.1-0.5-0.2-0.8c-0.2-0.5-0.6-0.5-1.1-0.4c-0.4,0.1-0.6,0.4-0.6,0.8
		c0,0.2,0,0.4,0,0.6c0,0.7,0.3,1.1,0.8,1.2c0.5,0.1,0.8-0.3,1-0.9C65.2,81.3,65.2,81.2,65.3,81.1z"/>
	<path id="XMLID_8151_" fill="#FFFFFF" d="M138.2,72.1c0,0.4,0,0.6,0,0.9c0,0.6-0.4,0.9-0.9,0.6c-0.3-0.2-0.5-0.1-0.8,0c-0.6,0.3-1.5,0.1-1.9-0.4
		c-0.4-0.5-0.4-1.2,0-1.7c0.3-0.5,0.8-0.6,1.4-0.6c0.2,0,0.3,0,0.5,0c0.2,0,0.5,0,0.5-0.3c0-0.3-0.2-0.4-0.5-0.4c-0.3,0-0.7,0-1,0.1
		c-0.2,0.1-0.5,0.3-0.6-0.1c-0.1-0.3-0.1-0.7,0.2-0.8c0.8-0.3,1.6-0.4,2.4,0c0.4,0.2,0.7,0.6,0.7,1.2C138,71,138.2,71.6,138.2,72.1z
		 M136.1,72.7c0.4,0,0.7-0.2,0.7-0.7c0-0.3-0.2-0.5-0.4-0.4c-0.4,0.1-0.8,0.1-0.9,0.6C135.4,72.5,135.8,72.6,136.1,72.7z"/>
	<path id="XMLID_8148_" fill="#FFFFFF" d="M66.5,71.3c0,1.4-0.9,2.3-2.2,2.3c-1.3,0-2.3-1-2.3-2.3c0-1.3,1-2.4,2.2-2.4C65.5,69,66.5,69.9,66.5,71.3
		z M63.3,71.3c0,0.2,0.1,0.5,0.2,0.7c0.1,0.3,0.4,0.6,0.7,0.6c0.3,0,0.6,0,0.8-0.3c0.3-0.4,0.4-0.9,0.3-1.4c-0.1-0.7-0.7-1-1.3-0.8
		C63.3,70.3,63.4,70.8,63.3,71.3z"/>
	<path id="XMLID_8147_" fill="#FFFFFF" d="M106.4,83.4c-0.2,0-0.5,0-0.7,0c-0.5,0-0.5-0.4-0.5-0.8c0-0.5,0.4-0.3,0.6-0.2c0.1,0,0.1,0,0.2,0
		c0.4,0,0.8,0.2,1-0.3c0.1-0.5-0.4-0.5-0.7-0.6c-0.4-0.2-0.8-0.3-1-0.8c-0.3-0.6-0.2-1.1,0.3-1.5c0.7-0.6,1.5-0.6,2.3-0.3
		c0.2,0.1,0.3,0.3,0.3,0.5c0,0.3-0.2,0.4-0.4,0.4c-0.3,0-0.5,0-0.8,0c-0.1,0-0.3,0-0.3,0.2c-0.1,0.2,0.1,0.3,0.2,0.4
		c0.2,0.1,0.5,0.2,0.8,0.3c0.7,0.4,1,0.8,0.8,1.4c-0.1,0.6-0.8,1.2-1.4,1.2C106.8,83.4,106.6,83.4,106.4,83.4
		C106.4,83.4,106.4,83.4,106.4,83.4z"/>
	<path id="XMLID_8146_" fill="#FFFFFF" d="M97.4,83.4c-0.3,0-0.5,0-0.8-0.1c-0.4-0.1-0.4-0.5-0.3-0.8c0.1-0.4,0.3-0.3,0.6-0.2
		c0.1,0,0.2,0.1,0.2,0.1c0.4,0,0.8,0.1,1-0.3c0.1-0.4-0.4-0.4-0.6-0.6c-0.3-0.2-0.6-0.2-0.8-0.5c-0.6-0.6-0.5-1.6,0.2-2
		c0.6-0.3,1.3-0.4,2-0.2c0.3,0.1,0.4,0.2,0.4,0.5c0,0.3-0.2,0.5-0.5,0.4c-0.2,0-0.4,0-0.7,0c-0.2,0-0.4,0-0.5,0.3
		c0,0.2,0.2,0.3,0.4,0.4c0.2,0.1,0.5,0.2,0.7,0.3c0.5,0.2,0.8,0.7,0.8,1.2c0,0.6-0.4,1.1-1,1.3C98.1,83.4,97.8,83.4,97.4,83.4z"/>
	<path id="XMLID_8145_" fill="#FFFFFF" d="M141.7,83.5c-0.3,0-0.6-0.1-0.9-0.1c-0.5-0.1-0.4-0.5-0.4-0.8c0.1-0.4,0.3-0.2,0.6-0.2
		c0.3,0.1,0.6,0.1,0.9,0c0.2-0.1,0.3-0.2,0.3-0.4c0-0.2-0.1-0.3-0.3-0.4c-0.3-0.1-0.6-0.2-0.9-0.4c-1-0.6-0.9-1.7,0-2.2
		c0.6-0.3,1.3-0.3,2-0.2c0.3,0.1,0.4,0.2,0.4,0.5c0,0.3-0.1,0.4-0.5,0.4c-0.3,0-0.6,0-0.9,0c-0.1,0-0.3,0.1-0.3,0.2
		c0,0.2,0.1,0.3,0.2,0.3c0.3,0.1,0.5,0.2,0.8,0.3c0.6,0.2,0.9,0.6,0.9,1.3c0,0.7-0.3,1.1-0.9,1.3C142.3,83.4,142,83.4,141.7,83.5z"
		/>
	<path id="XMLID_8144_" fill="#FFFFFF" d="M68.3,83.4c-0.2,0-0.4,0-0.7,0c-0.5-0.1-0.5-0.4-0.5-0.8c0.1-0.4,0.4-0.3,0.6-0.2c0.1,0,0.3,0.1,0.4,0.1
		c0.3,0,0.7,0,0.8-0.4c0.1-0.4-0.3-0.5-0.6-0.5c-0.8-0.2-1.2-0.6-1.2-1.3c0-0.8,0.3-1.1,1.1-1.3c0.5-0.1,0.9-0.1,1.4,0
		c0.4,0.1,0.4,0.3,0.4,0.6c0,0.3-0.2,0.4-0.5,0.4c-0.3,0-0.5,0-0.8,0c-0.2,0-0.3,0.1-0.4,0.3c0,0.2,0.1,0.3,0.3,0.4
		c0.2,0.1,0.4,0.1,0.6,0.2c0.8,0.3,1.1,0.8,1,1.5c-0.1,0.7-0.6,1.2-1.4,1.3C68.7,83.4,68.5,83.4,68.3,83.4
		C68.3,83.4,68.3,83.4,68.3,83.4z"/>
	<path id="XMLID_8143_" fill="#FFFFFF" d="M128.5,73.6c-0.2,0-0.5,0-0.7,0c-0.4,0-0.5-0.3-0.5-0.7c0-0.4,0.3-0.3,0.6-0.3c0.2,0,0.5,0,0.7,0
		c0.2,0,0.4-0.1,0.5-0.4c0.1-0.3-0.2-0.3-0.3-0.4c-0.3-0.1-0.6-0.3-0.9-0.4c-0.5-0.2-0.6-0.6-0.6-1.1c0-0.5,0.2-0.9,0.7-1.1
		c0.6-0.3,1.2-0.4,1.9-0.2c0.3,0.1,0.5,0.3,0.4,0.6c0,0.3-0.2,0.4-0.5,0.4c-0.2,0-0.4,0-0.7,0c-0.2,0-0.4,0-0.4,0.2
		c0,0.2,0.2,0.3,0.3,0.4c0.2,0.1,0.4,0.1,0.6,0.2c0.8,0.3,1.1,0.8,0.9,1.6c-0.1,0.7-0.7,1.1-1.4,1.2
		C128.8,73.6,128.6,73.6,128.5,73.6C128.5,73.6,128.5,73.6,128.5,73.6z"/>
	<path id="XMLID_8142_" fill="#FFFFFF" d="M131.6,71.5c0-0.3,0-0.5,0-0.8c0-0.4-0.1-0.7-0.5-0.7c-0.2,0-0.4-0.2-0.4-0.4c0-0.2,0.1-0.4,0.4-0.5
		c0.3,0,0.4-0.2,0.5-0.5c0-0.3,0.2-0.4,0.5-0.5c0.6-0.2,0.7-0.2,0.8,0.4c0,0.4,0.1,0.6,0.5,0.6c0.3,0,0.4,0.2,0.4,0.5
		c0,0.3-0.1,0.5-0.4,0.5c-0.4,0-0.5,0.3-0.5,0.6c0,0.3,0,0.7,0,1c0,0.5,0.1,1,0.7,1c0.3,0,0.3,0.2,0.3,0.5c0,0.3-0.1,0.4-0.4,0.4
		c-1,0.1-1.9-0.1-1.9-1.5C131.6,71.9,131.6,71.7,131.6,71.5z"/>
	<path id="XMLID_8141_" fill="#FFFFFF" d="M133.7,78.7c0,0,0.1,0,0.2,0c0.3,0.1,0.8,0.1,0.8,0.6c0,0.5-0.4,0.5-0.8,0.5c-0.9,0-1.2,0.5-1.1,1.6
		c0.1,0.7,0.5,1.1,1.3,1c0.3,0,0.5-0.1,0.6,0.3c0,0.3,0,0.6-0.4,0.7c-0.8,0.2-1.6,0.1-2.2-0.5c-0.6-0.6-0.9-1.5-0.7-2.4
		C131.7,79.3,132.5,78.7,133.7,78.7z"/>
	<path id="XMLID_8140_" fill="#FFFFFF" d="M86.2,78.7c0.1,0,0.3,0,0.5,0.1c0.4,0.1,0.5,0.3,0.5,0.6c0,0.4-0.3,0.4-0.5,0.4c-1.1,0.1-1.7,1-1.2,2
		c0.3,0.5,0.7,0.7,1.2,0.6c0.3-0.1,0.6-0.1,0.7,0.3c0,0.4-0.1,0.6-0.5,0.7c-1.2,0.2-2.2-0.2-2.6-1.3C83.8,81,84.1,79.6,85,79
		C85.4,78.8,85.8,78.8,86.2,78.7z"/>
	<path id="XMLID_8139_" fill="#FFFFFF" d="M93.2,81.1c0-0.5,0-1,0-1.5c0-0.6,0.6-1,1-0.6c0.3,0.3,0.4,0.2,0.7,0c0.2-0.2,0.5-0.3,0.8-0.1
		c0.3,0.2,0.2,0.5,0.2,0.8c0,0.3-0.2,0.5-0.5,0.5c-0.6,0-0.7,0.3-0.8,0.8c-0.1,0.6-0.1,1.3-0.1,1.9c0,0.4-0.2,0.7-0.6,0.6
		c-0.5,0-0.7-0.2-0.7-0.7C93.2,82.2,93.2,81.6,93.2,81.1z"/>
	<path id="XMLID_8138_" fill="#FFFFFF" d="M126.1,81.1c0-0.5,0-1,0-1.5c0-0.7,0.3-0.9,0.9-0.6c0.4,0.2,0.7,0.1,1-0.1c0.3-0.2,0.6-0.2,0.7,0.2
		c0.1,0.4,0.2,0.8-0.3,1c-0.9,0.3-0.9,0.4-1,1.3c0,0.5-0.1,0.9,0,1.4c0,0.4-0.1,0.7-0.6,0.7c-0.5,0-0.7-0.2-0.7-0.7
		C126.1,82.2,126.1,81.6,126.1,81.1C126.1,81.1,126.1,81.1,126.1,81.1z"/>
	<path id="XMLID_8137_" fill="#FFFFFF" d="M119.9,81.1c0,0.5,0,1.1,0,1.6c0,0.4-0.1,0.7-0.6,0.7c-0.4,0-0.8-0.1-0.8-0.7c0-1.1,0-2.1,0-3.2
		c0-0.5,0.2-0.7,0.7-0.7c0.5,0,0.7,0.2,0.7,0.7C119.9,80.1,119.9,80.6,119.9,81.1z"/>
	<path id="XMLID_8136_" fill="#FFFFFF" d="M129.3,81.1c0-0.6,0-1.1,0-1.7c0-0.5,0.2-0.6,0.7-0.6c0.4,0,0.7,0.1,0.7,0.6c0,1.1,0,2.2,0,3.3
		c0,0.5-0.3,0.6-0.7,0.6c-0.4,0-0.7-0.2-0.7-0.6C129.3,82.2,129.3,81.7,129.3,81.1C129.3,81.1,129.3,81.1,129.3,81.1z"/>
	<path id="XMLID_8135_" fill="#FFFFFF" d="M95.1,71.4c0-0.6,0-1.2,0-1.7c0-0.4,0.2-0.6,0.6-0.6c0.4,0,0.7,0.1,0.7,0.6c0,1.1-0.1,2.2,0,3.3
		c0,0.5-0.2,0.7-0.7,0.7c-0.5,0-0.6-0.2-0.6-0.7C95.1,72.4,95.1,71.9,95.1,71.4C95.1,71.4,95.1,71.4,95.1,71.4z"/>
	<path id="XMLID_8134_" fill="#FFFFFF" d="M136.7,68.4c-0.1,0-0.2,0-0.4-0.1c-0.3-0.2-0.7-0.2-1,0.1c-0.1,0.1-0.3,0.2-0.4,0c-0.1-0.1-0.1-0.3,0-0.4
		c0.1-0.5,0.5-0.7,0.9-0.6c0.5,0.1,1.1,0.4,1.6-0.1c0.2-0.2,0.3,0.1,0.3,0.3C137.7,68.1,137.3,68.4,136.7,68.4z"/>
	<path id="XMLID_8133_" fill="#FFFFFF" d="M130,78.2c-0.5,0.1-0.7-0.1-0.7-0.6c0-0.5,0.3-0.6,0.7-0.6c0.5,0,0.6,0.2,0.6,0.6
		C130.6,78.1,130.4,78.2,130,78.2z"/>
	<path id="XMLID_8132_" fill="#FFFFFF" d="M95.7,68.4c-0.5,0.1-0.6-0.2-0.6-0.6c0-0.5,0.3-0.6,0.7-0.6c0.5,0,0.6,0.2,0.6,0.6
		C96.4,68.3,96.1,68.4,95.7,68.4z"/>
	<path id="XMLID_8131_" fill="#FFFFFF" d="M119.8,77c0.2,0,0.4,0,0.5,0.1c0.1,0.2-0.1,0.3-0.2,0.5c-0.2,0.3-0.5,0.5-0.8,0.7c-0.2,0.1-0.4,0.1-0.6,0
		c-0.2-0.2-0.1-0.4,0-0.5C119,77.4,119.2,76.9,119.8,77z"/>
	<path id="XMLID_7795_" fill="#FFFFFF" d="M122.4,38.8c-1-0.2-2-0.2-3-0.3c0,0.7,0,1.2,0,1.9c1.1-0.1,2.1-0.2,3-0.3c0.2,0,0.5-0.4,0.5-0.6
		C123,39.2,122.7,38.8,122.4,38.8z"/>
	<path id="XMLID_7839_" fill="#FFFFFF" d="M141.4,36.4c-1.2-1.9-2.5-3.7-3.8-5.6c-3.2-4.7-6.3-9.3-9.4-14c-0.2-0.3-0.4-0.4-0.6,0
		c-0.7,1.1-1.5,2.2-2.2,3.3c-1.9,2.8-3.8,5.6-5.7,8.4c-1.7,2.6-3.4,5.1-5.1,7.7c-1.5,2.2-2.3,4.6-1.5,7.3l0,0c0.5,1.3,1.1,2.5,2,3.5
		c1.9,2.1,4.2,3.6,6.8,4.7c1.5,0.6,3.1,1.1,4.8,1.2c2.2,0.2,4.4-0.2,6.5-0.9c3.3-1.2,6.2-3,8.3-5.9c0.9-1.2,1.4-2.6,1.6-4.1
		C143.2,39.9,142.5,38.1,141.4,36.4z M127,45.2c-0.9,0-1.9,0-2.8,0c-0.4,0-0.8-0.1-0.9-0.5c-0.2-0.4-0.4-0.8-0.6-1.1
		c-0.8-1.4-1.5-1.7-3.2-1.5c0,0.9,0,1.7,0,2.5c0,0.5-0.1,0.7-0.7,0.7c-0.9,0-1.8,0-2.7,0c-0.4,0-0.5-0.2-0.5-0.5c0-2.4,0-4.8,0-7.3
		c0-0.2,0.2-0.5,0.3-0.5c2.7,0,5.4,0,8.1,0.1c0.7,0,1.4,0.3,2,0.6c1.3,0.6,1.3,2.1,0.1,2.9c-0.4,0.3-0.9,0.4-1.3,0.6
		c1.4,1,1.9,2.6,2.9,4C127.3,45.1,127.2,45.2,127,45.2z M140.6,45.2c-1,0-2,0-3,0c-0.4,0-0.5-0.2-0.5-0.6c0-1,0-1.9,0-2.9
		c-1.4,0-2.7,0-4.1,0c0,0.9,0,1.8,0,2.7c0,0.8,0,0.8-0.8,0.8c-0.9,0-1.7,0-2.6,0c-0.4,0-0.5-0.1-0.5-0.5c0-2.4,0-4.8,0-7.2
		c0-0.4,0.1-0.6,0.5-0.6c0.9,0,1.9,0,2.8,0c0.4,0,0.5,0.2,0.5,0.6c0,0.8,0,1.7,0,2.5c1.4,0,2.7,0,4.1,0c0-0.8,0-1.6,0-2.4
		c0-0.5,0.2-0.7,0.7-0.7c0.9,0,1.8,0,2.7,0c0.3,0,0.5,0.1,0.5,0.4c0,2.5,0,4.9,0,7.4C141.1,45,141,45.2,140.6,45.2z"/>
</g>
</svg>
