<svg id="Camada_1" data-name="Camada 1" xmlns="http://www.w3.org/2000/svg" viewBox="0 0 190.34 104.83"><defs><style>.cls-1{fill:#fff;}</style></defs><title>cogerh</title><g id="_Grupo_" data-name="&lt;Grupo&gt;"><path id="_Caminho_" data-name="&lt;Caminho&gt;" class="cls-1" d="M142.2,75.55a41.49,41.49,0,0,1-11.86-2,50.34,50.34,0,0,0-9.68-2.06,32.53,32.53,0,0,0-11.15,1.32c-3.13.84-6.21,1.81-9.42,2.37a33.67,33.67,0,0,1-14.92-1c-2.81-.78-5.59-1.63-8.46-2.2a30.57,30.57,0,0,0-14.34.85,94.14,94.14,0,0,1-9.7,2.43,34,34,0,0,1-14.73-1.08,67.87,67.87,0,0,0-10.58-2.51c-.87-.09-1.74-.18-2.62-.22-.57,0-.83-.27-.82-.8,0-.28,0-.55,0-.83,0-1.93.06-1.92,2.09-1.76a62.33,62.33,0,0,1,12.22,2.65,33.4,33.4,0,0,0,10.16,1.5,37.9,37.9,0,0,0,9.54-1.7,71.48,71.48,0,0,1,8.86-2.15,34.58,34.58,0,0,1,15,1.31,78.12,78.12,0,0,0,8.95,2.21,31.52,31.52,0,0,0,13.74-1.18A82.43,82.43,0,0,1,114,68.27a33.94,33.94,0,0,1,14.43,1.14c2.75.75,5.46,1.61,8.26,2.17a31.26,31.26,0,0,0,15-1,70.24,70.24,0,0,1,10.09-2.42c1.06-.14,2.13-.18,3.2-.27.69-.06,1,.18,1,.88-.07,3,.45,2.38-2.58,2.66A58.44,58.44,0,0,0,153,73.81,38,38,0,0,1,142.2,75.55Z"/><path id="_Caminho_2" data-name="&lt;Caminho&gt;" class="cls-1" d="M166,63.34c0,.31,0,.62,0,.92a.67.67,0,0,1-.75.77c-4.68.11-9,1.58-13.48,2.78a35,35,0,0,1-10.18,1.42,42.07,42.07,0,0,1-10.6-1.9c-4.35-1.27-8.72-2.48-13.35-2.3a46.88,46.88,0,0,0-11.22,2.26,43.53,43.53,0,0,1-10.59,1.94,37,37,0,0,1-10.94-1.57,90.44,90.44,0,0,0-9.33-2.31,30.64,30.64,0,0,0-12.81,1A99.52,99.52,0,0,1,52.18,68.9c-5.3.81-10.41,0-15.46-1.5-3.91-1.14-7.83-2.3-12-2.38-.51,0-.79-.23-.79-.73,0,0,0-.06,0-.09.06-2.77-.53-2.72,2.73-2.45a47.62,47.62,0,0,1,10.61,2.32,33.27,33.27,0,0,0,20.74,0,54.57,54.57,0,0,1,10-2.3A34.41,34.41,0,0,1,81.14,63.1a87.86,87.86,0,0,0,9.79,2.42,30.77,30.77,0,0,0,12.7-1c3.37-.92,6.7-2,10.17-2.54a33.83,33.83,0,0,1,14.63,1.11,81.69,81.69,0,0,0,9.89,2.42,30.58,30.58,0,0,0,12.23-.92,88.94,88.94,0,0,1,11.13-2.7c1-.13,1.93-.22,2.9-.28,1.34-.08,1.39,0,1.39,1.23,0,.15,0,.31,0,.46Z"/><path id="_Caminho_3" data-name="&lt;Caminho&gt;" class="cls-1" d="M142.69,62.82a43,43,0,0,1-11.9-2,41.53,41.53,0,0,0-12.15-2.25A33.41,33.41,0,0,0,109.48,60a63.19,63.19,0,0,1-12.17,2.73,31.69,31.69,0,0,1-9.56-.85c-3.22-.72-6.34-1.79-9.54-2.55a30.32,30.32,0,0,0-14.91.28c-3.6.94-7.12,2.18-10.82,2.68a29.52,29.52,0,0,1-9.77-.12,54.11,54.11,0,0,1-6-1.38,53.65,53.65,0,0,0-9.62-2.15,15.1,15.1,0,0,0-1.94-.09c-.64,0-.93-.22-1-.86-.13-2.29.16-2.49,2.67-2.25a61.06,61.06,0,0,1,11.63,2.64,32.63,32.63,0,0,0,19.43-.23,54.35,54.35,0,0,1,9.82-2.29,35.29,35.29,0,0,1,13.57,1.27,85.35,85.35,0,0,0,9.32,2.32,29.11,29.11,0,0,0,11.48-.54c3.21-.77,6.34-1.8,9.57-2.51A32.75,32.75,0,0,1,125.16,56c3.19.62,6.24,1.69,9.38,2.47a30.24,30.24,0,0,0,15.2,0c3.75-1,7.43-2.22,11.29-2.84a22.56,22.56,0,0,1,4-.3c.66,0,.9.27.94.89.13,2.43.15,2.38-2.38,2.47A31,31,0,0,0,156.71,60c-3,.8-6,1.75-9,2.3A19.16,19.16,0,0,1,142.69,62.82Z"/><path id="_Caminho_composto_" data-name="&lt;Caminho composto&gt;" class="cls-1" d="M59.26,31.86a19.3,19.3,0,0,1,7,1c3.45,1.23,5,4,4.16,7.26a5.73,5.73,0,0,1-3.91,4,21.71,21.71,0,0,1-14.22.12c-4.27-1.42-5.83-5.75-3.43-9a7.32,7.32,0,0,1,4-2.52A20.38,20.38,0,0,1,59.26,31.86Zm.1,10.54a6.12,6.12,0,0,0,1.84-.22,3.7,3.7,0,0,0,2.9-3.5,3.45,3.45,0,0,0-2.63-3.74,8.27,8.27,0,0,0-4.6,0,3.6,3.6,0,0,0-2.51,4.17C54.85,41.33,56.44,42.4,59.36,42.4Z"/><path id="_Caminho_4" data-name="&lt;Caminho&gt;" class="cls-1" d="M90.76,37.27c1.27,0,2.53,0,3.8,0,.69,0,1,.23,1,.92,0,1.85,0,3.69,0,5.54,0,.52-.12.92-.75,1-5.9.71-11.79,1.13-17.45-1.2-3.19-1.31-4.52-4.18-3.31-7a6.06,6.06,0,0,1,3.57-3.09,21,21,0,0,1,7.1-1.46,45,45,0,0,1,9.13.28c.85.13,1.07.46.92,1.23-.37,1.95-.34,1.91-2.32,1.55a21.57,21.57,0,0,0-8.7.19,7.84,7.84,0,0,0-1.89.72,2.87,2.87,0,0,0-.17,5.2,9.62,9.62,0,0,0,4.43,1.27c.74.06,1.49,0,2.24,0s1.1-.3,1.08-1.07c0-1.25,0-1.27-1.36-1.28h-.29c-1.88,0-2.23-.43-1.86-2.21.11-.55.52-.57.94-.57Z"/><path id="_Caminho_5" data-name="&lt;Caminho&gt;" class="cls-1" d="M116.59,42.26c.2,3.44.28,2.73-2.56,2.76-4.22,0-8.45,0-12.67,0C100.06,45,100,45,100,43.71q0-5.22,0-10.44c0-1.18,0-1.22,1.24-1.22h13.94c1.14,0,1.23.11,1.22,1.35s-.1,1.33-1.27,1.33c-2.53,0-5.07,0-7.6,0-1.06,0-1,.52-1,1.22s.1,1.15,1,1.13c2.4-.05,4.81,0,7.21,0,1.18,0,1.11.62,1.12,1.37s0,1.39-1.14,1.36c-2.4-.06-4.81,0-7.21,0-1.08,0-1,.56-1,1.24s-.1,1.34,1,1.32c3-.06,6,0,9.06,0Z"/><path id="_Caminho_6" data-name="&lt;Caminho&gt;" class="cls-1" d="M38.54,31.87a33,33,0,0,1,6,.44c.79.11,1,.44.86,1.2-.4,2-.36,1.95-2.43,1.54a16.12,16.12,0,0,0-7.23,0,5.52,5.52,0,0,0-2.59,1.39,2.81,2.81,0,0,0,.42,4.5,9.32,9.32,0,0,0,5,1.43,21.91,21.91,0,0,0,5.71-.44c.79-.16,1,.06,1.14.77.32,2,.35,2-1.72,2.21-4.8.59-9.53.46-14.07-1.35-2.61-1-4-2.91-3.87-5.32a4.83,4.83,0,0,1,2-3.75,14.25,14.25,0,0,1,6.94-2.45A20.66,20.66,0,0,1,38.54,31.87Z"/><path id="_Caminho_7" data-name="&lt;Caminho&gt;" class="cls-1" d="M52.42,86.07q0,1,0,1.94c0,.76-.45,1-1.19,1s-.92-.39-.94-1a20.69,20.69,0,0,0-.14-3.69c-.09-.46-.19-.83-.81-.84a1,1,0,0,0-1.08.76,5.71,5.71,0,0,0-.13,1.83c0,.68,0,1.36,0,2,0,.87-.67.95-1.38.9s-.93-.43-.84-1.07a12.17,12.17,0,0,0,0-3.59c-.08-.46-.17-.84-.79-.86a1,1,0,0,0-1.09.74A5.18,5.18,0,0,0,43.85,86c0,.68,0,1.35,0,2s-.43,1-1.18,1-.94-.37-1-1c0-1.53-.1-3.06-.14-4.59,0-1.24.58-1.72,1.8-1.34a1.73,1.73,0,0,0,1.19,0,2.64,2.64,0,0,1,2.74.34c.39.33.7.19,1,0a2.52,2.52,0,0,1,4.08,2.32c0,.46,0,.92,0,1.39Z"/><path id="_Caminho_8" data-name="&lt;Caminho&gt;" class="cls-1" d="M130.45,86.11c0,.52,0,1,0,1.57.07.69-.33,1-.93,1.21a6.92,6.92,0,0,1-6.33-1.36A3.78,3.78,0,0,1,122.15,85c-.24-3.14,1-5.39,4.82-5.58a6.17,6.17,0,0,1,2.69.23c.7.28.51.74.42,1.23s-.46.47-.88.42a14.47,14.47,0,0,0-1.55-.06c-2,0-3,.74-3.33,2.53a3.2,3.2,0,0,0,2.49,3.58c1.15.23,1.71-.21,1.68-1.24,0-.61-.33-.81-.91-.81a.91.91,0,0,1-1-1c0-.58.21-.87.84-.86s1.43,0,2.14,0,1,.26.93.88S130.44,85.53,130.45,86.11Z"/><path id="_Caminho_9" data-name="&lt;Caminho&gt;" class="cls-1" d="M123.42,99.49c0,1.23,0,2.46,0,3.69,0,.81-.46,1-1.17,1s-1-.29-1-.94,0-1.54,0-2.31a.7.7,0,0,0-.81-.8h-.1c-2.58-.16-2.79.05-2.54,2.7.1,1.1-.18,1.4-1.21,1.35-.63,0-1-.31-1-.91,0-2.55,0-5.1,0-7.65,0-.72.47-.84,1.1-.85s1.09.15,1,.87a12.33,12.33,0,0,1,.07,1.93.54.54,0,0,0,.05.36c.54.9,1.43.48,2.19.47.57,0,1.21-.08,1.19-.89,0-.61,0-1.23,0-1.84s.4-.89,1.06-.89,1.07.17,1.07.87c0,1.29,0,2.58,0,3.87Z"/><path id="_Caminho_composto_2" data-name="&lt;Caminho composto&gt;" class="cls-1" d="M53.4,99.5c0-1.23,0-2.46,0-3.7,0-.73.28-1.1,1.08-1.06a21.45,21.45,0,0,1,3.59.14A2.21,2.21,0,0,1,60,96.63,2.16,2.16,0,0,1,59.17,99c-.47.33-.46.63-.22,1.09.5,1,.9,2,1.37,3.05.36.78,0,1-.76,1a1.46,1.46,0,0,1-1.7-1.16,19.38,19.38,0,0,0-.71-1.92.88.88,0,0,0-1.06-.59c-.53.08-.52.48-.53.85,0,.65,0,1.29,0,1.94s-.55.86-1.18.87-1-.23-1-.87c0-1.26,0-2.53,0-3.79Zm3-3.08c-.79-.08-.85.46-.83,1.06s-.08,1.15.82,1.14,1.47-.45,1.49-1.12S57.29,96.43,56.39,96.42Z"/><path id="_Caminho_composto_3" data-name="&lt;Caminho composto&gt;" class="cls-1" d="M54,86.89c0-1.17,0-2.33,0-3.5,0-1.32.45-1.65,1.81-1.33a1.55,1.55,0,0,0,.93.08c3.08-1,4.35.81,4.4,3.27A5.85,5.85,0,0,1,60.93,87a2.85,2.85,0,0,1-3.66,1.86c-.87-.27-1,.06-.94.7,0,.25,0,.49,0,.74,0,1.14-.28,1.33-1.46,1.28-.63,0-.86-.3-.86-.86C54,89.47,54,88.18,54,86.89Zm5.08-1.51a5.21,5.21,0,0,0-.21-.89,1.33,1.33,0,0,0-1.53-1c-.79.13-1,.71-1,1.37a6.58,6.58,0,0,0,0,1.28,1.44,1.44,0,0,0,1.16,1.32c.71.13,1-.43,1.25-.94A2.6,2.6,0,0,0,59.1,85.38Z"/><path id="_Caminho_composto_4" data-name="&lt;Caminho composto&gt;" class="cls-1" d="M135.9,99.09c0,1.26,0,2.52,0,3.79s-.36,1.48-1.52,1.23a4.18,4.18,0,0,0-1.69,0c-2,.36-3.32-.48-3.72-2.35a5.11,5.11,0,0,1,.11-2.74,2.68,2.68,0,0,1,3.75-1.86c.78.25,1,0,1-.63,0-.49,0-1,0-1.48S134,94,134.86,94s1.07.4,1,1.11c0,1.32,0,2.65,0,4Zm-2.15,1.55c0-1.25-.51-2-1.36-2s-1.29.68-1.33,1.93.6,2.08,1.42,2.06S133.75,101.85,133.75,100.64Z"/><path id="_Caminho_composto_5" data-name="&lt;Caminho composto&gt;" class="cls-1" d="M109,84.07c0,1.26,0,2.52,0,3.78,0,1.08-.29,1.37-1.39,1.12a4.83,4.83,0,0,0-1.86,0c-2.35.35-3.22-.55-3.72-2.63a4.36,4.36,0,0,1,0-1.92c.41-1.81,1.69-3.16,4.13-2.32.62.21.78-.06.81-.52s0-1.23,0-1.84.32-.89,1-.87,1,.23,1,.87q0,2.16,0,4.33Zm-3.64-.58a.89.89,0,0,0-.9.6,3,3,0,0,0-.25,1.62c.15,1,.73,1.77,1.38,1.76s1.26-.84,1.39-1.8A1.84,1.84,0,0,0,105.36,83.48Z"/><path id="_Caminho_composto_6" data-name="&lt;Caminho composto&gt;" class="cls-1" d="M31.58,99.16c0,1.26,0,2.52,0,3.78s-.44,1.48-1.56,1.14a2.48,2.48,0,0,0-1.57,0,2.86,2.86,0,0,1-3.6-1.85,5.23,5.23,0,0,1-.06-3,2.66,2.66,0,0,1,3.73-2c.83.25,1.09.1,1-.71-.06-.39,0-.8,0-1.2-.05-.72.12-1.16,1-1.16s1.14.36,1.09,1.12,0,1.29,0,1.94,0,1.29,0,1.94Zm-2.14,1.61a3.18,3.18,0,0,0-.17-1.26,1.25,1.25,0,0,0-1.38-.89,1.17,1.17,0,0,0-1.11,1.08,3.32,3.32,0,0,0,0,1.81c.21.59.52,1.21,1.32,1.12a1.47,1.47,0,0,0,1.29-1.31A3.64,3.64,0,0,0,29.44,100.76Z"/><path id="_Caminho_10" data-name="&lt;Caminho&gt;" class="cls-1" d="M78.57,83.9c0-1.32,0-2.65,0-4,0-.65.22-1.09,1-1.11s1.29.22,1.33,1c0,.55,0,1.11,0,1.66s.18.72.81.53c1.57-.47,2.73,0,3.32,1.11a2.08,2.08,0,0,1,.19,1c0,1.32,0,2.65,0,4,0,.67-.29.93-1,.93s-1-.28-1-.94c0-1,0-1.91,0-2.86A2.33,2.33,0,0,0,83,84a1,1,0,0,0-1.62-.11,1.89,1.89,0,0,0-.44,1.29q0,1.29,0,2.59c0,1-.28,1.26-1.2,1.28s-1.14-.47-1.12-1.24C78.6,86.48,78.57,85.19,78.57,83.9Z"/><path id="_Caminho_11" data-name="&lt;Caminho&gt;" class="cls-1" d="M96.9,86.37c0,.55,0,1.11,0,1.66,0,.89-.39,1.2-1.29.91a3,3,0,0,0-1.76,0c-2.21.54-3.79-.87-3.18-2.79a2.45,2.45,0,0,1,2.21-1.56c.42,0,.84,0,1.27,0s.64,0,.69-.35a.63.63,0,0,0-.56-.66,3.76,3.76,0,0,0-2,.05c-.35.11-.78.41-1-.15a1,1,0,0,1,.44-1.29c2.48-1.34,5.14.12,5.16,2.82C96.9,85.44,96.9,85.9,96.9,86.37Z"/><path id="_Caminho_12" data-name="&lt;Caminho&gt;" class="cls-1" d="M68.43,85.43a12.19,12.19,0,0,0,.16,2.39c.06.38.14.86-.33,1.07a1.25,1.25,0,0,1-1.38-.08.67.67,0,0,0-.93,0,3.21,3.21,0,0,1-2.09.23,2.13,2.13,0,0,1-1.67-1.7,1.94,1.94,0,0,1,1.24-2.34,5.27,5.27,0,0,1,2.18-.37c.31,0,.73,0,.77-.38s-.32-.65-.74-.69a4,4,0,0,0-1.64.09c-.34.11-.78.44-1-.11a1,1,0,0,1,.36-1.32,4.58,4.58,0,0,1,4.33.4C68.58,83.38,68.43,84.42,68.43,85.43Z"/><path id="_Caminho_13" data-name="&lt;Caminho&gt;" class="cls-1" d="M136.31,86.07h-1.56c-.25,0-.56,0-.66.27s.12.47.3.65a2.38,2.38,0,0,0,2.53.38c.42-.11.88-.61,1.24,0a1.12,1.12,0,0,1-.77,1.48C134.57,90,132,88.4,132,85.54a4.13,4.13,0,0,1,.18-1.73c.71-1.62,2.18-2.23,4.15-1.88,1.47.26,2.34,2.09,2.3,3.37,0,.55-.3.77-.85.76h-1.46Z"/><path id="_Caminho_14" data-name="&lt;Caminho&gt;" class="cls-1" d="M65.62,101.23c-.49,0-1,0-1.46,0-.25,0-.56,0-.65.27s.13.47.3.64a2.39,2.39,0,0,0,2.44.41c.45-.1,1-.76,1.34.1a1.12,1.12,0,0,1-1,1.44c-1.58.2-3.25.39-4.42-1a3.92,3.92,0,0,1-.47-4.2,3.38,3.38,0,0,1,5.53-1,3.84,3.84,0,0,1,.77,2.69c0,.38-.28.53-.65.54H65.62Z"/><path id="_Caminho_15" data-name="&lt;Caminho&gt;" class="cls-1" d="M114.85,86.08c-.58,0-1.17,0-1.75,0s-.64.33-.33.76a2.37,2.37,0,0,0,2.74.5c.36-.13.78-.53,1.09,0a.86.86,0,0,1-.38,1.28,4.79,4.79,0,0,1-3.85.13,2.62,2.62,0,0,1-1.84-2.58c0-1.37-.08-2.71,1.17-3.73a3.46,3.46,0,0,1,4.85.83c.09.16.18.33.25.5.67,1.6.68,2.51-1.47,2.27a4.47,4.47,0,0,0-.49,0Z"/><path id="_Caminho_16" data-name="&lt;Caminho&gt;" class="cls-1" d="M70.19,85.43c0-.77,0-1.54,0-2.31,0-1,.34-1.31,1.37-1.09a3.86,3.86,0,0,0,1.76,0c2.23-.51,3.29.19,3.6,2.51a12.56,12.56,0,0,1-.07,3.68c-.11.7-.55.81-1.17.8s-1-.28-1-.95c0-1.11,0-2.22,0-3.32,0-.56-.12-1.08-.79-1.21s-1,.29-1.29.78a4.66,4.66,0,0,0-.26,2.27,12.33,12.33,0,0,0,0,1.29c0,.76-.25,1.14-1.11,1.16s-1.06-.49-1-1.19S70.19,86.23,70.19,85.43Z"/><path id="_Caminho_composto_7" data-name="&lt;Caminho composto&gt;" class="cls-1" d="M99,104.2c-2.85,0-3.83-1.56-4-3.72-.13-1.9,1.67-3.49,3.74-3.53a3.49,3.49,0,0,1,3.79,3.68A3.36,3.36,0,0,1,99,104.2Zm1.4-3.72a1.94,1.94,0,0,0,0-.5,1.54,1.54,0,0,0-1.48-1.34A1.58,1.58,0,0,0,97.32,100a3.47,3.47,0,0,0,0,.64,1.84,1.84,0,0,0,1.64,2C99.8,102.66,100.4,101.83,100.41,100.48Z"/><path id="_Caminho_17" data-name="&lt;Caminho&gt;" class="cls-1" d="M82.27,100.65c0,.77,0,1.54,0,2.3,0,1-.52,1.45-1.53,1.12a3.14,3.14,0,0,0-1.87,0c-1.76.44-3-.33-3.22-2a24.39,24.39,0,0,1-.2-3.86c0-.76.32-1.11,1.17-1.11s1.16.37,1.15,1.12c0,1,0,2,0,3,0,.63.14,1.24.9,1.32s1.1-.45,1.28-1.05a10.88,10.88,0,0,0,.15-3.3c0-.83.28-1.16,1.18-1.13.71,0,1,.29,1,.95,0,.86,0,1.72,0,2.58Z"/><path id="_Caminho_composto_8" data-name="&lt;Caminho composto&gt;" class="cls-1" d="M158.89,85.34a3.33,3.33,0,0,1,3.55-3.53,3.67,3.67,0,0,1,3.87,3.75,3.57,3.57,0,0,1-3.8,3.48C160.51,89,158.62,87.87,158.89,85.34Zm5.09.42c0-.43,0-.62,0-.8-.07-.67-.27-1.29-1.08-1.46a1.47,1.47,0,0,0-1.75.95,2.34,2.34,0,0,0,0,2,1.41,1.41,0,0,0,1.48,1,1.43,1.43,0,0,0,1.26-1.13A2.06,2.06,0,0,0,164,85.76Z"/><path id="_Caminho_composto_9" data-name="&lt;Caminho composto&gt;" class="cls-1" d="M152.67,100.64A3.59,3.59,0,0,1,156.28,97a3.52,3.52,0,0,1,3.81,3.77,3.72,3.72,0,0,1-7.43-.08Zm5.28,0c0-.31,0-.5-.06-.68-.15-.79-.51-1.39-1.5-1.38a1.44,1.44,0,0,0-1.52,1.37,3.43,3.43,0,0,0,.25,1.89,1.3,1.3,0,0,0,1.32.76,1.2,1.2,0,0,0,1.26-.82A9.54,9.54,0,0,0,157.95,100.69Z"/><path id="_Caminho_18" data-name="&lt;Caminho&gt;" class="cls-1" d="M29.91,89c-2,.08-3.79-.59-4.67-2.37A5.1,5.1,0,0,1,25.88,81c1.06-1.36,4.11-2,5.72-1.28.64.28.59.76.49,1.24s-.56.37-.94.33a6.46,6.46,0,0,0-1.44-.15A3,3,0,0,0,27,84.92a3.06,3.06,0,0,0,3.89,2.49c.55-.13,1.13-.36,1.24.47s-.26,1.11-1,1.12Z"/><path id="_Caminho_composto_10" data-name="&lt;Caminho composto&gt;" class="cls-1" d="M40.35,100.71c0,2.15-1.45,3.39-3.72,3.49a3.64,3.64,0,0,1-3.69-3.6A3.71,3.71,0,0,1,36.79,97C39.11,97,40.37,98.36,40.35,100.71Zm-2-.17A2.37,2.37,0,0,0,38,99.33c-.35-.74-1-.79-1.73-.66a1.13,1.13,0,0,0-1,1.2c0,.31,0,.61,0,.92,0,1.06.51,1.75,1.33,1.86s1.39-.43,1.69-1.47A6.11,6.11,0,0,0,38.4,100.55Z"/><path id="_Caminho_composto_11" data-name="&lt;Caminho composto&gt;" class="cls-1" d="M157.54,86.6c0,.63,0,1,0,1.36,0,1-.64,1.37-1.51.86a1.2,1.2,0,0,0-1.31,0,2.83,2.83,0,0,1-3.12-.58,2.16,2.16,0,0,1-.06-2.67,2.94,2.94,0,0,1,2.21-1c.26,0,.52,0,.78,0s.78,0,.8-.47-.37-.61-.79-.62a4.39,4.39,0,0,0-1.64.11c-.35.12-.78.43-1-.14s-.19-1.1.39-1.3a4.75,4.75,0,0,1,3.86,0A2,2,0,0,1,157.36,84,22.67,22.67,0,0,1,157.54,86.6Zm-3.35.94c.68-.06,1.14-.39,1.18-1.09,0-.45-.25-.7-.73-.63-.65.09-1.38.21-1.47,1C153.1,87.33,153.64,87.5,154.19,87.54Z"/><path id="_Caminho_composto_12" data-name="&lt;Caminho composto&gt;" class="cls-1" d="M40.35,85.44A3.36,3.36,0,0,1,36.74,89,3.57,3.57,0,0,1,33,85.51a3.68,3.68,0,0,1,3.67-3.68A3.44,3.44,0,0,1,40.35,85.44Zm-5.25,0a7.19,7.19,0,0,0,.26,1.14,1.39,1.39,0,0,0,1.21.94A1.25,1.25,0,0,0,37.83,87a2.85,2.85,0,0,0,.51-2.19,1.65,1.65,0,0,0-2.16-1.29C35.16,83.81,35.28,84.68,35.1,85.44Z"/><path id="_Caminho_19" data-name="&lt;Caminho&gt;" class="cls-1" d="M105.69,104.2l-1.17-.05c-.84-.05-.86-.62-.81-1.2.07-.75.58-.46,1-.36a1.28,1.28,0,0,0,.28.06c.58,0,1.38.3,1.57-.48s-.64-.78-1.15-1a2.6,2.6,0,0,1-1.66-1.18,1.79,1.79,0,0,1,.57-2.39,3.78,3.78,0,0,1,3.75-.43.67.67,0,0,1,.45.82.65.65,0,0,1-.73.59l-1.26,0c-.23,0-.48,0-.55.29s.12.47.35.59c.4.2.83.33,1.23.54,1.11.56,1.56,1.31,1.34,2.21a2.7,2.7,0,0,1-2.34,1.91c-.29,0-.58,0-.88,0Z"/><path id="_Caminho_20" data-name="&lt;Caminho&gt;" class="cls-1" d="M91,104.22a7.69,7.69,0,0,1-1.25-.13c-.72-.19-.67-.77-.55-1.29s.55-.39.93-.24a1.33,1.33,0,0,0,.37.1c.61,0,1.38.19,1.59-.52s-.63-.65-1-.88a7.65,7.65,0,0,1-1.35-.71A1.88,1.88,0,0,1,90,97.43a4.49,4.49,0,0,1,3.3-.3c.43.12.68.35.62.8a.73.73,0,0,1-.85.69c-.36,0-.71,0-1.07,0s-.72.06-.75.44.33.49.64.6.8.25,1.18.42A1.89,1.89,0,0,1,94.32,102a2.09,2.09,0,0,1-1.62,2A5.67,5.67,0,0,1,91,104.22Z"/><path id="_Caminho_21" data-name="&lt;Caminho&gt;" class="cls-1" d="M163.28,104.3c-.47-.06-1-.1-1.43-.2-.76-.16-.68-.74-.58-1.26s.57-.34.93-.26a3,3,0,0,0,1.44,0,.74.74,0,0,0,.57-.58c.06-.33-.2-.49-.48-.61a14.62,14.62,0,0,1-1.52-.61,1.86,1.86,0,0,1,0-3.46,4.42,4.42,0,0,1,3.21-.26c.45.11.66.37.58.81s-.24.69-.75.69-1,0-1.46,0a.49.49,0,0,0-.51.35c-.06.27.15.4.36.48.41.17.84.32,1.26.47a2,2,0,0,1,1.47,2,2,2,0,0,1-1.51,2A7,7,0,0,1,163.28,104.3Z"/><path id="_Caminho_22" data-name="&lt;Caminho&gt;" class="cls-1" d="M43.41,104.19c-.36,0-.72,0-1.07-.05-.78-.11-.89-.64-.78-1.24s.59-.47,1-.32a2.35,2.35,0,0,0,.67.1c.54,0,1.15,0,1.24-.62s-.53-.74-1-.84c-1.26-.24-2-1-2-2,0-1.25.48-1.76,1.86-2.07a5.14,5.14,0,0,1,2.31,0c.58.13.68.43.63.94s-.35.58-.79.57-.84,0-1.26,0c-.27,0-.54.12-.57.41s.21.45.45.54.68.19,1,.33c1.23.51,1.74,1.24,1.58,2.25a2.39,2.39,0,0,1-2.34,2c-.32,0-.65,0-1,0Z"/><path id="_Caminho_23" data-name="&lt;Caminho&gt;" class="cls-1" d="M141.72,89c-.39,0-.78,0-1.17-.07-.68-.08-.81-.52-.75-1.07s.49-.5.94-.44a7.09,7.09,0,0,0,1.16.05.75.75,0,0,0,.8-.55c.1-.4-.25-.53-.54-.66-.5-.22-1-.41-1.51-.62a1.63,1.63,0,0,1-1-1.73,1.73,1.73,0,0,1,1.09-1.71,5,5,0,0,1,3-.34.78.78,0,0,1,.73.91c0,.54-.39.65-.87.64s-.71,0-1.07,0-.64,0-.68.37.27.48.53.59.62.17.92.29c1.29.5,1.73,1.21,1.54,2.44A2.34,2.34,0,0,1,142.5,89c-.26,0-.52,0-.78,0Z"/><path id="_Caminho_24" data-name="&lt;Caminho&gt;" class="cls-1" d="M146.81,85.71c0-.4,0-.8,0-1.2,0-.59-.1-1-.85-1.09a.66.66,0,0,1-.64-.7.63.63,0,0,1,.6-.72.82.82,0,0,0,.8-.79c.08-.45.39-.66.81-.83.95-.37,1.19-.28,1.23.65,0,.58.17,1,.88.94.49,0,.68.26.69.7s-.2.77-.73.77c-.72,0-.85.42-.83,1s0,1,0,1.57c0,.81.15,1.48,1.22,1.54.47,0,.53.39.52.75a.65.65,0,0,1-.63.69c-1.66.21-3.18-.15-3.07-2.26C146.83,86.39,146.81,86,146.81,85.71Z"/><path id="_Caminho_25" data-name="&lt;Caminho&gt;" class="cls-1" d="M150.21,97a2.49,2.49,0,0,1,.4,0c.55.11,1.25.08,1.23.89s-.65.75-1.25.76c-1.41,0-1.95.74-1.81,2.43.09,1.13.88,1.71,2.15,1.53.44-.06.88-.19,1,.42s.07,1-.64,1.14a3.79,3.79,0,0,1-3.55-.74,3.62,3.62,0,0,1-1.12-3.64A3.41,3.41,0,0,1,150.21,97Z"/><path id="_Caminho_26" data-name="&lt;Caminho&gt;" class="cls-1" d="M72.62,96.94l.88.12a.78.78,0,0,1,.76,1c-.06.55-.44.59-.89.61-1.87.08-2.71,1.51-1.88,3.12a1.59,1.59,0,0,0,1.92.85c.51-.1,1-.21,1.07.5s-.13,1-.84,1.09c-2,.35-3.65-.38-4.32-2a4.1,4.1,0,0,1,1.36-4.82A4,4,0,0,1,72.62,96.94Z"/><path id="_Caminho_27" data-name="&lt;Caminho&gt;" class="cls-1" d="M84,100.56c0-.8,0-1.59,0-2.39a1,1,0,0,1,1.68-.88c.5.39.69.27,1.08,0a1.23,1.23,0,0,1,1.36-.18c.48.27.33.76.33,1.17s-.31.72-.81.72c-.91,0-1.22.5-1.37,1.25a14.88,14.88,0,0,0-.12,2.94c0,.69-.28,1-1,1s-1.16-.26-1.13-1S84,101.42,84,100.56Z"/><path id="_Caminho_28" data-name="&lt;Caminho&gt;" class="cls-1" d="M137.84,100.53c0-.77,0-1.54,0-2.31,0-1,.47-1.39,1.46-1a1.67,1.67,0,0,0,1.62-.14c.47-.27,1-.34,1.14.31s.38,1.27-.54,1.54c-1.4.42-1.51.57-1.64,2a10.71,10.71,0,0,0,0,2.12c.07.66-.17,1.07-.95,1.1s-1.14-.27-1.11-1,0-1.72,0-2.59Z"/><path id="_Caminho_29" data-name="&lt;Caminho&gt;" class="cls-1" d="M127.69,100.61c0,.83,0,1.66,0,2.49,0,.65-.24,1.08-1,1s-1.3-.14-1.3-1c0-1.66,0-3.32,0-5,0-.73.35-1,1.13-1s1.19.33,1.17,1.09S127.69,99.81,127.69,100.61Z"/><path id="_Caminho_30" data-name="&lt;Caminho&gt;" class="cls-1" d="M143.1,100.66c0-.86,0-1.72,0-2.58s.33-1,1.06-1,1.12.14,1.1.91q0,2.58,0,5.16c0,.77-.45.93-1.11.93s-1.1-.25-1.06-1,0-1.66,0-2.49Z"/><path id="_Caminho_31" data-name="&lt;Caminho&gt;" class="cls-1" d="M87.15,85.51c0-.89,0-1.78,0-2.68,0-.64.31-.87,1-.85s1.21.08,1.18.87a51.06,51.06,0,0,0,0,5.15c0,.74-.38,1-1.14,1s-1-.35-1-1c0-.83,0-1.66,0-2.49Z"/><path id="_Caminho_32" data-name="&lt;Caminho&gt;" class="cls-1" d="M155.25,80.89a2.59,2.59,0,0,1-.61-.14,1.49,1.49,0,0,0-1.64.08.51.51,0,0,1-.7,0c-.2-.18-.1-.4,0-.6a1.33,1.33,0,0,1,1.55-1c.88.09,1.73.63,2.65-.08.35-.27.54.2.47.53C156.75,80.52,156.22,80.89,155.25,80.89Z"/><path id="_Caminho_33" data-name="&lt;Caminho&gt;" class="cls-1" d="M144.2,96.05c-.79.1-1.11-.19-1.1-.93s.42-.93,1.11-.94,1.05.27,1.05,1S144.87,96.16,144.2,96.05Z"/><path id="_Caminho_34" data-name="&lt;Caminho&gt;" class="cls-1" d="M88.14,80.88c-.81.1-1-.3-1-1s.47-.87,1.13-.87,1,.31,1,1S88.79,80.95,88.14,80.88Z"/><path id="_Caminho_35" data-name="&lt;Caminho&gt;" class="cls-1" d="M127.48,94.23c.28,0,.62,0,.79.23s-.09.52-.27.71a10.83,10.83,0,0,1-1.26,1.13.79.79,0,0,1-.91,0c-.33-.25-.12-.59,0-.83C126.26,94.9,126.53,94.16,127.48,94.23Z"/><path id="_Caminho_36" data-name="&lt;Caminho&gt;" class="cls-1" d="M131.86,35c-1.6-.23-3.23-.32-4.92-.46v2.9c1.75-.16,3.38-.26,5-.51a1.34,1.34,0,0,0,.88-1A1.38,1.38,0,0,0,131.86,35Z"/><path id="_Caminho_composto_13" data-name="&lt;Caminho composto&gt;" class="cls-1" d="M162.92,31.34c-2-2.91-4.08-5.77-6.16-8.64-5.2-7.2-10.3-14.48-15.43-21.74-.38-.54-.63-.6-1,0-1.2,1.72-2.44,3.41-3.66,5.11q-4.64,6.49-9.28,13c-2.81,4-5.57,7.93-8.38,11.89-2.46,3.47-3.69,7.16-2.39,11.34h0a16.13,16.13,0,0,0,3.21,5.44A28.72,28.72,0,0,0,130.92,55a27.61,27.61,0,0,0,7.78,1.9,26.42,26.42,0,0,0,10.62-1.43c5.43-1.86,10.16-4.65,13.61-9.14A12.21,12.21,0,0,0,165.49,40,13,13,0,0,0,162.92,31.34ZM139.34,44.94c-1.53,0-3.05,0-4.58,0a1.39,1.39,0,0,1-1.53-.84,15.46,15.46,0,0,0-1-1.78c-1.33-2.17-2.46-2.69-5.29-2.34,0,1.33,0,2.62,0,3.9,0,.77-.19,1.12-1.08,1.09-1.49-.06-3,0-4.48,0-.63,0-.85-.23-.85-.83,0-3.75,0-7.51,0-11.26,0-.25.36-.72.56-.72,4.41,0,8.83,0,13.23.18a8.89,8.89,0,0,1,3.24.89c2.12,1,2.19,3.32.17,4.48a17.3,17.3,0,0,1-2.19.9c2.26,1.54,3,4.08,4.78,6.23A10.11,10.11,0,0,1,139.34,44.94Zm22.25,0-4.87.05c-.66,0-.8-.33-.79-.89,0-1.5,0-3,0-4.56h-6.73c0,1.39,0,2.76,0,4.13S149.23,45,148,45c-1.43,0-2.86,0-4.29,0-.64,0-.85-.23-.84-.82q0-5.58,0-11.17c0-.62.2-.88.89-.86q2.29.06,4.58,0c.71,0,.89.26.88.87,0,1.28,0,2.57,0,3.91H156c0-1.27.05-2.52,0-3.76,0-.84.27-1.05,1.11-1,1.49.06,3,0,4.48,0,.54,0,.75.18.75.7q0,5.72,0,11.45C162.31,44.74,162.13,45,161.59,45Z"/></g></svg>