<?xml version="1.0" encoding="UTF-8" standalone="no"?>
<!-- Created with Inkscape (http://www.inkscape.org/) -->

<svg
   xmlns:dc="http://purl.org/dc/elements/1.1/"
   xmlns:cc="http://creativecommons.org/ns#"
   xmlns:rdf="http://www.w3.org/1999/02/22-rdf-syntax-ns#"
   xmlns:svg="http://www.w3.org/2000/svg"
   xmlns="http://www.w3.org/2000/svg"
   xmlns:sodipodi="http://sodipodi.sourceforge.net/DTD/sodipodi-0.dtd"
   xmlns:inkscape="http://www.inkscape.org/namespaces/inkscape"
   x="0px" y="0px" viewBox="10 -20 90 90"
  overflow="scroll" xml:space="preserve"
   version="1.1"
   id="svg8"
   width="100px" height="50px"
   sodipodi:docname="codevasf.svg"
   inkscape:version="0.92.3 (unknown)">
  <defs
     id="defs2" />
  <sodipodi:namedview
     id="base"
     pagecolor="#ffffff"
     bordercolor="#666666"
     borderopacity="1.0"
     inkscape:pageopacity="0.0"
     inkscape:pageshadow="2"
     inkscape:zoom="1.4"
     inkscape:cx="121.74534"
     inkscape:cy="-17.672113"
     inkscape:document-units="mm"
     inkscape:current-layer="layer1"
     showgrid="false"
     inkscape:pagecheckerboard="true"
     scale-x="0.9"
     inkscape:window-width="1535"
     inkscape:window-height="876"
     inkscape:window-x="65"
     inkscape:window-y="24"
     inkscape:window-maximized="1"
     inkscape:lockguides="false" />
  <metadata
     id="metadata5">
    <rdf:RDF>
      <cc:Work
         rdf:about="">
        <dc:format>image/svg+xml</dc:format>
        <dc:type
           rdf:resource="http://purl.org/dc/dcmitype/StillImage" />
        <dc:title></dc:title>
      </cc:Work>
    </rdf:RDF>
  </metadata>
  <g
     inkscape:label="Layer 1"
     inkscape:groupmode="layer"
     id="layer1"
     transform="translate(0,-233)">
    <path
       style="fill:#33549f;stroke-width:0.16933334"
       d="m -31.221919,184.27181 c 0,-1.56931 0.01255,-1.62286 0.381,-1.62509 0.20955,-10e-4 0.548151,-0.0471 0.752446,-0.10192 0.474042,-0.12712 1.237221,0.59729 1.237221,1.17436 0,0.67132 -0.614689,1.30054 -1.270513,1.30054 -0.454083,0 -0.579498,0.0741 -0.62271,0.36773 -0.02976,0.20226 -0.149361,0.39911 -0.265777,0.43745 -0.159458,0.0525 -0.211667,-0.33056 -0.211667,-1.55307 z m 1.691508,-0.0119 c 0.1173,-0.14134 0.163366,-0.43352 0.105007,-0.66604 -0.203595,-0.81119 -1.288515,-0.69103 -1.288515,0.14271 0,0.70408 0.756043,1.0384 1.183508,0.52333 z m -33.080005,0.40884 c -0.414968,-0.32641 -0.446169,-0.44483 -0.446169,-1.69333 0,-0.73831 0.06805,-1.34238 0.151216,-1.34238 0.244912,0 0.356784,0.47158 0.356784,1.50398 0,1.0698 0.187781,1.37469 0.846667,1.37469 0.66562,0 0.846408,-0.3046 0.849259,-1.43087 0.0014,-0.56346 0.07763,-1.13877 0.169334,-1.27847 0.313279,-0.47722 0.528702,0.17426 0.446127,1.34918 -0.06489,0.92329 -0.147492,1.15584 -0.526288,1.48167 -0.558927,0.48077 -1.263665,0.49433 -1.84693,0.0355 z m 10.062481,0.0223 c -0.394992,-0.39499 -0.467095,-1.31419 -0.136984,-1.74635 0.116417,-0.1524 0.405465,-0.32367 0.642329,-0.3806 0.569459,-0.13686 1.387262,0.48137 1.314221,0.99351 -0.04195,0.29417 -0.185531,0.37115 -0.771216,0.41353 -0.930097,0.0673 -1.028933,0.5406 -0.112889,0.5406 0.759464,0 0.709508,0.39935 -0.0595,0.47565 -0.357765,0.0355 -0.63941,-0.0598 -0.875961,-0.29634 z m 1.133016,-1.40698 c -0.0388,-0.11642 -0.210255,-0.21167 -0.381,-0.21167 -0.170744,0 -0.342194,0.0953 -0.381,0.21167 -0.04469,0.13406 0.09502,0.21167 0.381,0.21167 0.285986,0 0.425686,-0.0776 0.381,-0.21167 z m 3.372556,1.62278 c -0.228567,-0.22857 -0.101925,-0.39511 0.30045,-0.39511 0.515776,0 0.729536,-0.30357 0.31706,-0.45027 -0.497203,-0.17683 -0.899732,-0.59482 -0.899732,-0.93427 0,-0.36314 0.697463,-0.74095 1.089868,-0.59037 0.377783,0.14497 0.327663,0.45091 -0.07387,0.45091 -0.500626,0 -0.409177,0.38199 0.170403,0.71179 0.583421,0.33198 0.669685,0.88252 0.179395,1.14492 -0.3719,0.19903 -0.915631,0.23034 -1.083576,0.0624 z m 2.334748,-0.30275 c -0.686288,-0.68629 -0.494132,-1.57181 0.423559,-1.95194 0.434016,-0.17977 0.578214,-0.17026 0.931848,0.0614 0.846568,0.55469 0.944063,1.53767 0.203929,2.05608 -0.522759,0.36615 -1.087573,0.30617 -1.559336,-0.16559 z m 1.481111,-0.52287 c 0.167154,-0.36687 0.144525,-0.48215 -0.153062,-0.77973 -0.64222,-0.64222 -1.503658,0.0545 -1.069777,0.86517 0.269063,0.50275 0.977391,0.45325 1.222839,-0.0854 z m 3.267918,0.74197 c -1.031858,-0.56746 -1.270968,-1.96211 -0.465666,-2.71609 0.616385,-0.57711 1.144732,-0.71881 1.74815,-0.46887 0.711071,0.29454 0.620913,0.55378 -0.147442,0.42397 -1.301208,-0.21984 -2.111895,1.21867 -1.200448,2.13012 0.305856,0.30586 0.484456,0.34261 1.227666,0.25261 l 0.86974,-0.10533 -0.399758,0.34007 c -0.439188,0.3736 -1.107073,0.43232 -1.632242,0.14352 z m 2.870971,-0.2191 c -0.471764,-0.47176 -0.531742,-1.03658 -0.165588,-1.55934 0.52881,-0.75498 1.649512,-0.59862 2.12884,0.29701 0.367052,0.68584 -0.397977,1.67797 -1.293888,1.67797 -0.139551,0 -0.440764,-0.18704 -0.669364,-0.41564 z m 1.462588,-0.54978 c 0.194784,-0.53091 -0.325134,-1.15238 -0.83001,-0.99214 -0.450335,0.14293 -0.661209,0.84573 -0.361951,1.20632 0.305277,0.36783 1.025934,0.23835 1.191961,-0.21418 z m 8.615884,0.65711 c -0.289822,-0.23468 -0.401843,-0.49736 -0.401843,-0.9423 0,-1.08112 0.990551,-1.59316 1.819946,-0.94076 0.726914,0.57179 0.558703,1.06912 -0.397546,1.17537 -0.893905,0.0993 -0.928012,0.29897 -0.07417,0.43418 0.722305,0.11438 0.698285,0.47443 -0.03656,0.54803 -0.311651,0.0312 -0.663292,-0.0749 -0.909825,-0.27452 z m 1.189891,-1.39034 c 0,-0.3176 -0.529438,-0.38449 -0.811417,-0.10251 -0.256652,0.25665 -0.236889,0.27716 0.26713,0.27716 0.299358,0 0.544287,-0.0786 0.544287,-0.17465 z m 1.467556,1.58576 c -0.242753,-0.24275 -0.09039,-0.39511 0.39511,-0.39511 0.671337,0 0.642107,-0.22609 -0.08467,-0.6549 -0.59533,-0.35125 -0.705799,-0.59794 -0.449011,-1.00269 0.183046,-0.28851 1.068766,-0.34791 1.164296,-0.0781 0.04446,0.12558 -0.06854,0.21167 -0.277841,0.21167 -0.521023,0 -0.42833,0.43562 0.143055,0.67229 0.618217,0.25607 0.73574,0.541 0.413126,1.0016 -0.241925,0.3454 -1.051633,0.49765 -1.304068,0.24522 z m 2.384777,-0.064 c -0.340269,-0.20508 -0.392346,-0.84469 -0.09313,-1.1439 0.11176,-0.11176 0.38481,-0.2032 0.606778,-0.2032 0.508401,0 0.413363,-0.40144 -0.113333,-0.47873 -0.453099,-0.0665 -0.386045,-0.43193 0.09229,-0.50296 0.585258,-0.0869 1.098269,0.49161 1.194718,1.3473 0.04808,0.42657 0.0209,0.8167 -0.06041,0.86695 -0.338208,0.20902 -1.351742,0.28038 -1.626913,0.11454 z m 1.058333,-0.57099 c 0,-0.27116 -0.31804,-0.42628 -0.635,-0.30972 -0.385088,0.14162 -0.22796,0.54961 0.211667,0.54961 0.25234,0 0.423333,-0.0969 0.423333,-0.23989 z m -37.591999,-0.508 c 0,-0.83299 0.05886,-1.11478 0.232833,-1.11478 0.128058,0 0.463021,-0.046 0.744361,-0.10231 0.776791,-0.15535 1.224139,0.37708 1.224139,1.45698 0,0.6397 -0.06209,0.84666 -0.254,0.84666 -0.187095,0 -0.254,-0.19525 -0.254,-0.74126 0,-1.42093 -1.022514,-1.50836 -1.185333,-0.10135 -0.04657,0.40241 -0.179917,0.76297 -0.296333,0.80124 -0.154947,0.051 -0.211667,-0.22913 -0.211667,-1.04518 z m 2.94789,0.85337 c -0.160732,-0.41886 0.0085,-1.85473 0.22711,-1.92669 0.154955,-0.051 0.211666,0.229 0.211666,1.0451 0,1.03455 -0.214612,1.46575 -0.438776,0.88159 z m 6.534776,-0.85337 v -1.11478 h 0.592667 c 0.663978,0 0.753466,0.15678 0.26397,0.46248 -0.222414,0.1389 -0.345607,0.43526 -0.381,0.91657 -0.02877,0.39121 -0.147553,0.74262 -0.26397,0.7809 -0.154947,0.051 -0.211667,-0.22912 -0.211667,-1.04517 z m 14.675556,0.97366 c -0.175172,-0.17517 -0.132977,-1.8867 0.04929,-1.99935 0.354887,-0.21933 2.570398,-0.18936 2.896695,0.0392 0.426133,0.29847 0.489301,2.07305 0.07379,2.07305 -0.19117,0 -0.254,-0.20495 -0.254,-0.82855 0,-0.53652 -0.08002,-0.85925 -0.227021,-0.91566 -0.396091,-0.152 -0.594704,0.11896 -0.65031,0.88717 -0.06954,0.96067 -0.477335,1.15391 -0.477335,0.22619 0,-0.3625 -0.1143,-0.807 -0.254,-0.98778 -0.251433,-0.32538 -0.256567,-0.32538 -0.508,0 -0.1397,0.18078 -0.254,0.61893 -0.254,0.97367 0,0.60678 -0.136535,0.79065 -0.395111,0.53207 z m -19.668036,-0.89753 c -0.492438,-0.97178 -0.524127,-1.19096 -0.172186,-1.19096 0.1397,0 0.254,0.0616 0.254,0.13697 0,0.0753 0.111613,0.28488 0.24803,0.46567 0.240823,0.31914 0.260065,0.31393 0.662155,-0.17931 0.227769,-0.2794 0.473884,-0.44872 0.546924,-0.37626 0.161249,0.15995 -0.707064,1.98493 -0.944417,1.98493 -0.09258,0 -0.360104,-0.37847 -0.594506,-0.84104 z m -1.442186,-1.78363 c 0,-0.1397 0.0762,-0.254 0.169333,-0.254 0.09313,0 0.169333,0.1143 0.169333,0.254 0,0.1397 -0.0762,0.254 -0.169333,0.254 -0.09313,0 -0.169333,-0.1143 -0.169333,-0.254 z m 13.659556,-4.09222 c -0.06209,-0.0621 -0.11289,-1.51292 -0.11289,-3.22408 0,-2.75049 0.03828,-3.18623 0.33022,-3.75847 0.843267,-1.65294 3.615887,-1.61083 4.484159,0.0681 0.47164,0.91198 0.468699,2.63599 -0.0061,3.55082 -0.511392,0.98543 -1.251616,1.3211 -2.649322,1.20138 l -1.143,-0.0979 v 0.85898 c 0,0.47244 -0.07888,1.00637 -0.17529,1.18652 -0.175201,0.32736 -0.514914,0.42755 -0.72782,0.21464 z m 3.432852,-3.40078 c 0.739197,-0.59861 0.799187,-2.6508 0.100069,-3.42331 -0.625905,-0.69162 -2.136865,-0.43352 -2.461554,0.42048 -0.393428,1.03479 -0.066,2.93885 0.547847,3.18583 0.48733,0.19608 1.467688,0.0972 1.813638,-0.183 z m -22.467687,1.03384 c -0.908931,-0.44808 -1.304204,-1.28336 -1.309146,-2.76646 -0.005,-1.50543 0.354173,-2.28626 1.271519,-2.76409 1.112125,-0.57929 3.177573,-0.0925 3.351087,0.78984 0.0888,0.45155 -0.418377,0.50637 -1.197125,0.12938 -1.411662,-0.68337 -2.408078,0.0787 -2.408078,1.84183 0,1.7781 1.05958,2.48121 2.654989,1.76178 0.505864,-0.22811 0.698074,-0.24881 0.854843,-0.092 0.483349,0.48335 -0.816663,1.38037 -1.991477,1.37414 -0.372533,-0.002 -0.924508,-0.12545 -1.226612,-0.27438 z m 5.048649,-0.008 c -0.976594,-0.51419 -1.273623,-1.08514 -1.33223,-2.5608 -0.03962,-0.99757 0.01944,-1.43832 0.253264,-1.8902 0.45534,-0.87996 1.278013,-1.35803 2.336929,-1.35803 1.693735,0 2.62414,1.08068 2.62414,3.048 0,1.90314 -0.783651,2.88066 -2.405451,3.00053 -0.63899,0.0472 -1.062581,-0.0215 -1.476652,-0.23949 z m 2.428244,-1.25003 c 0.354762,-0.42161 0.438386,-0.69777 0.438386,-1.44774 0,-1.22293 -0.342561,-1.86433 -1.108687,-2.07587 -0.795963,-0.21978 -1.538694,0.047 -1.859792,0.66789 -0.488849,0.94533 -0.195108,2.99689 0.467249,3.26338 0.118377,0.0476 0.532306,0.0926 0.919844,0.1 0.587447,0.0111 0.777511,-0.0733 1.143,-0.50763 z m 18.738422,1.24039 c -0.972348,-0.49581 -1.273504,-1.07251 -1.33223,-2.55116 -0.06094,-1.53448 0.227851,-2.25689 1.15086,-2.87885 0.498268,-0.33575 0.751659,-0.38823 1.590873,-0.32946 0.884828,0.062 1.060608,0.13799 1.547571,0.66936 0.616164,0.67235 0.896114,1.76092 0.596724,2.32033 -0.165826,0.30985 -0.37299,0.35062 -2.000402,0.39368 -2.08227,0.0551 -2.321982,0.24887 -1.42164,1.14921 0.586911,0.58691 1.411239,0.67527 2.250567,0.24124 0.627434,-0.32446 1.035201,-0.20201 0.961851,0.28883 -0.128772,0.86171 -2.181847,1.28951 -3.344174,0.69682 z m 2.499238,-3.73903 c 0.120035,-0.84751 -0.959231,-1.37147 -1.961976,-0.9525 -0.629019,0.26282 -1.047421,1.05464 -0.68286,1.29229 0.120025,0.0782 0.751628,0.12267 1.403561,0.0987 1.097815,-0.0403 1.189464,-0.0727 1.241275,-0.43851 z m 2.796756,3.71833 c -0.727125,-0.33996 -1.081196,-0.92927 -0.754571,-1.25589 0.133025,-0.13303 0.368344,-0.0811 0.84421,0.18638 1.044431,0.587 2.391664,0.42266 2.391664,-0.29175 0,-0.41671 -0.247424,-0.59937 -1.392029,-1.02762 -1.004727,-0.37591 -1.825305,-1.14083 -1.825305,-1.7015 0,-1.00789 0.839575,-1.68831 2.083217,-1.68831 0.820689,0 1.853334,0.56393 1.949792,1.0648 0.0824,0.42787 -0.445169,0.55102 -0.987677,0.23056 -0.654006,-0.38633 -1.631673,-0.36733 -1.84748,0.0359 -0.24966,0.4665 0.08455,0.79457 1.246886,1.22402 0.552974,0.2043 1.181624,0.54767 1.397,0.76305 0.56235,0.56235 0.526148,1.43639 -0.08796,2.1237 -0.405034,0.45331 -0.622122,0.54671 -1.397,0.60109 -0.660524,0.0464 -1.114401,-0.0277 -1.620749,-0.26443 z m 5.254695,0.074 c -1.093938,-0.47611 -1.435849,-1.74477 -0.671224,-2.49057 0.224859,-0.21933 1.043031,-0.62771 1.818157,-0.90751 1.001797,-0.36163 1.427009,-0.60059 1.470493,-0.82638 0.134782,-0.69988 -1.286407,-0.8405 -2.34384,-0.23192 -0.519584,0.29903 -0.70488,0.3362 -0.867154,0.17392 -0.317532,-0.31753 0.05658,-0.95992 0.750919,-1.28941 1.415991,-0.67193 3.040305,-0.12772 3.476361,1.16471 0.323372,0.95846 0.177439,3.01178 -0.256095,3.60333 -0.69732,0.95147 -2.210791,1.31166 -3.377617,0.80383 z m 2.193581,-1.08001 c 0.413486,-0.4569 0.69903,-1.37573 0.491901,-1.58286 -0.365855,-0.36585 -2.749541,0.68086 -2.749541,1.20737 0,0.66637 1.73348,0.95469 2.25764,0.3755 z m -29.075421,0.8951 c -0.168351,-0.43872 -0.121525,-3.4892 0.0638,-4.15634 0.257529,-0.92706 0.854101,-1.38553 1.917646,-1.47373 0.621951,-0.0516 1.068114,0.009 1.426743,0.19479 0.477034,0.24669 0.577065,0.24675 1.165864,6.8e-4 0.812678,-0.33956 2.128692,-0.23545 2.626146,0.20775 0.637012,0.56754 0.821741,1.29758 0.818988,3.23659 -0.0028,1.94628 -0.104933,2.31815 -0.610366,2.22162 -0.284707,-0.0544 -0.327329,-0.2755 -0.403042,-2.09099 -0.09068,-2.17436 -0.281405,-2.77513 -0.894957,-2.81902 -1.417372,-0.1014 -1.543024,0.10479 -1.645043,2.69947 l -0.08467,2.15336 h -0.423334 -0.423333 l -0.08467,-2.11661 c -0.04657,-1.16417 -0.149218,-2.21662 -0.228115,-2.33878 -0.392009,-0.60697 -1.782743,-0.53533 -2.07594,0.10695 -0.07143,0.15647 -0.17279,1.1989 -0.225243,2.3165 -0.08949,1.90683 -0.117509,2.03516 -0.454816,2.08328 -0.21201,0.0302 -0.403016,-0.0623 -0.465667,-0.22551 z m 7.326238,-7.92907 c -2.221533,-0.91386 -3.578642,-2.57689 -4.047461,-4.95985 -0.186519,-0.94806 -0.168235,-1.14149 0.231936,-2.45345 0.874847,-2.86817 2.447594,-4.36235 5.151712,-4.89435 2.62667,-0.51677 5.492613,0.94283 6.701045,3.41277 0.661221,1.35149 0.924206,3.71097 0.541909,4.86196 -0.613862,1.84816 -2.106351,3.40567 -3.910264,4.0806 -1.338512,0.5008 -3.386389,0.47988 -4.668877,-0.0477 z m 3.957985,-1.56141 c 0.883846,-0.30116 2.209763,-1.38884 2.590456,-2.12502 1.175013,-2.27223 0.987925,-4.14117 -0.579888,-5.79294 -0.678583,-0.71493 -1.815514,-1.38025 -1.959764,-1.14685 -0.05052,0.0817 0.165901,0.70982 0.480932,1.39574 1.092198,2.37804 1.140245,3.89118 0.160531,5.0555 -0.612775,0.72825 -1.255832,1.01762 -2.261376,1.01762 -1.005518,0 -1.6486,-0.28937 -2.261317,-1.01755 -1.013303,-1.20424 -0.968335,-2.70231 0.152025,-5.06474 0.327681,-0.69096 0.533378,-1.31869 0.457106,-1.39496 -0.190531,-0.19053 -1.11326,0.32971 -1.850531,1.04334 -0.336335,0.32555 -0.796688,0.99281 -1.023009,1.48279 -0.359948,0.7793 -0.396958,1.03383 -0.295456,2.032 0.236388,2.32469 1.514678,4.03018 3.46542,4.62357 0.727008,0.22115 2.107729,0.16993 2.924871,-0.1085 z"
       id="path366"
       inkscape:connector-curvature="0" />
    <path
       style="fill:#ffffff;stroke-width:0.87780064"
       d="m 99.348146,274.47577 c -0.897557,9.7e-4 -1.813581,0.12702 -2.555695,0.37792 -0.958634,0.32414 -1.862295,0.9526 -2.381295,1.65556 -0.516765,0.69991 -0.06306,1.5572 0.824113,1.5572 0.34238,0 0.512297,-0.0922 1.101532,-0.59566 0.596587,-0.5097 1.050244,-0.75934 1.648701,-0.90786 1.336424,-0.33166 3.275878,-0.12532 4.007468,0.42645 0.45077,0.34 0.65861,0.94638 0.43122,1.25744 -0.30633,0.41906 -1.04111,0.69283 -3.771741,1.40519 -2.938631,0.76662 -4.330522,1.48953 -4.95233,2.57158 -0.183201,0.31881 -0.224395,0.49122 -0.252024,1.05432 -0.03853,0.78603 0.06002,1.28516 0.368454,1.86427 0.580352,1.08968 1.877182,1.84697 3.540796,2.06739 v -4.2e-4 c 0.637137,0.0844 2.162508,0.0843 2.747355,-4.3e-4 1.21459,-0.17585 2.18039,-0.61314 3.02239,-1.36782 0.84198,-0.75469 1.32938,-1.62035 1.52556,-2.70901 0.13415,-0.74421 0.10753,-4.54301 -0.0364,-5.19213 -0.14396,-0.64913 -0.61651,-1.54303 -1.05649,-1.99826 -0.35534,-0.36764 -1.16833,-0.87095 -1.76705,-1.09425 -0.6679,-0.24898 -1.54698,-0.37266 -2.444544,-0.37148 z m -87.296489,0.008 c -0.461895,6.4e-4 -0.905941,0.0284 -1.244793,0.0859 -1.9182001,0.32528 -3.1689865,1.17413 -3.9720292,2.69612 -1.0500889,1.99023 -1.0014135,5.40478 0.10541,7.41199 0.258304,0.46842 0.4713847,0.72698 0.9621034,1.16769 0.8599877,0.77234 1.8193631,1.19866 3.0640678,1.36094 1.139904,0.14862 2.421135,0.0698 3.414796,-0.21 1.031216,-0.29038 2.305479,-0.98166 2.63141,-1.42752 0.459665,-0.62879 -0.04378,-1.45026 -0.888795,-1.45026 -0.249393,0 -0.431651,0.0687 -0.8313,0.31393 -1.126855,0.69147 -1.96058,0.94958 -3.073173,0.95125 -2.5469897,0.004 -3.8055061,-1.48651 -3.8004991,-4.50199 0.004,-2.43057 0.7086767,-3.75371 2.2950561,-4.31046 0.588579,-0.20657 2.053819,-0.25489 2.690824,-0.0889 0.681508,0.17758 1.037246,0.36206 1.563897,0.81124 0.562744,0.47995 0.724089,0.5626 1.099135,0.5626 0.599021,0 1.007067,-0.36804 1.016247,-0.91604 0.0044,-0.26249 -0.04706,-0.38317 -0.292752,-0.68326 -0.524326,-0.64042 -1.561695,-1.24616 -2.684594,-1.56751 -0.465593,-0.13325 -1.285186,-0.20679 -2.055011,-0.20572 z m 47.866081,9.6e-4 c -0.788048,0.01 -1.662537,0.0852 -2.124005,0.204 -2.318673,0.59729 -3.67117,2.23699 -4.00605,4.85758 -0.05609,0.44159 -0.0769,2.58161 -0.06133,6.34092 0.02301,5.55934 0.02633,5.67791 0.180155,5.83287 0.08635,0.087 0.263364,0.21687 0.392892,0.28859 0.518731,0.2872 1.26273,0.0788 1.550002,-0.43375 0.123009,-0.21944 0.13751,-0.50571 0.13751,-2.76011 9.4e-5,-1.38349 0.02127,-2.51533 0.04696,-2.51533 0.02572,0 0.148613,0.0648 0.273107,0.1443 0.344235,0.21969 1.147343,0.52638 1.760341,0.6721 0.428268,0.10182 0.826489,0.1305 1.805383,0.12883 1.458867,-0.002 1.980083,-0.0953 3.022384,-0.53982 0.539489,-0.23005 0.787914,-0.39362 1.297975,-0.85504 0.677076,-0.61251 1.013568,-1.10515 1.339184,-1.96091 0.412124,-1.08312 0.593487,-2.81415 0.433137,-4.1335 -0.37637,-3.09698 -1.929308,-4.77335 -4.83016,-5.21317 -0.302952,-0.0459 -0.744654,-0.0635 -1.217483,-0.0576 z m -35.510143,0.003 c -0.173181,4.6e-4 -0.370334,0.005 -0.606106,0.0116 -1.309303,0.0397 -1.865067,0.14911 -2.805337,0.55056 -1.287065,0.54953 -2.247182,1.59701 -2.76461,3.01693 -0.314123,0.86202 -0.41803,1.73543 -0.376121,3.16037 0.04613,1.56853 0.230619,2.3295 0.819321,3.38025 0.798888,1.42591 2.24812,2.33533 4.148352,2.60336 0.750117,0.10582 2.491798,0.0345 3.198707,-0.13098 1.541927,-0.36089 2.788919,-1.25167 3.460793,-2.47238 0.673401,-1.22347 0.951831,-2.75631 0.826508,-4.55396 -0.210877,-3.02486 -1.822401,-4.93144 -4.602572,-5.44635 -0.47663,-0.0883 -0.779394,-0.12075 -1.298935,-0.1194 z m 62.064292,0.002 c -0.124097,9.7e-4 -0.248597,0.006 -0.373726,0.0125 -2.269854,0.12636 -3.690022,1.0113 -4.094209,2.55097 -0.23418,0.89208 -0.02413,1.91673 0.536631,2.61754 0.630652,0.78818 1.595578,1.28737 3.900639,2.01801 2.246797,0.71218 2.910674,1.10567 3.036279,1.79942 0.107507,0.59381 -0.350866,1.26084 -1.052659,1.53144 -0.586906,0.22591 -1.635164,0.32517 -2.450297,0.23148 -1.162298,-0.13361 -1.870762,-0.41227 -2.697532,-1.06076 -0.63765,-0.50013 -1.111307,-0.55097 -1.61181,-0.1735 -0.299127,0.22563 -0.425721,0.60113 -0.320541,0.95125 0.08613,0.28671 0.661397,0.8487 1.223232,1.19517 0.822578,0.50728 2.083697,0.9232 3.171395,1.04573 0.732168,0.0821 1.048564,0.0829 1.844669,0.004 2.286786,-0.22816 3.703042,-1.17512 4.091337,-2.73564 0.24665,-0.99125 0.03281,-1.99198 -0.579754,-2.71459 -0.610319,-0.71994 -1.618698,-1.23191 -3.747315,-1.90378 -2.210869,-0.69783 -2.910267,-1.08787 -3.10288,-1.72899 -0.323048,-1.07532 0.80286,-1.77608 2.663512,-1.6577 1.067409,0.0679 1.765769,0.32616 2.533187,0.93707 0.44134,0.35134 0.803208,0.43813 1.225149,0.29418 0.40033,-0.13658 0.645395,-0.48216 0.645395,-0.91044 0,-0.29466 -0.04361,-0.38706 -0.336831,-0.70946 -0.919041,-1.01052 -2.642424,-1.61369 -4.503871,-1.59329 z m -40.059531,0.007 c -0.214758,-0.006 -0.438019,-0.004 -0.669831,0.005 -0.561291,0.0204 -1.232494,0.0875 -1.491548,0.14902 -0.679541,0.16144 -1.533812,0.55525 -1.974038,0.91002 l -0.38139,0.30749 -0.392412,-0.31136 c -0.463657,-0.36788 -1.290319,-0.7466 -2.001349,-0.91732 -0.72958,-0.17533 -2.816146,-0.17203 -3.532664,0.006 -1.691896,0.41942 -2.819835,1.42333 -3.258597,2.89968 -0.219946,0.74006 -0.281417,2.05041 -0.257774,5.49018 0.02578,3.74336 0.0161,3.6757 0.556755,3.97118 0.150963,0.0824 0.392473,0.13743 0.604668,0.13743 0.431345,0 0.803818,-0.18905 0.997081,-0.50633 0.129731,-0.21299 0.144752,-0.55719 0.183507,-4.2426 0.04619,-4.3965 0.03966,-4.33902 0.535194,-5.03924 0.55199,-0.77997 1.673853,-1.14453 3.001782,-0.97573 1.195215,0.15195 1.831595,0.65256 2.236125,1.7582 0.127432,0.34834 0.146111,0.7891 0.185426,4.41395 l 0.0436,4.02744 0.288917,0.25853 c 0.24615,0.22054 0.350154,0.26284 0.706247,0.28645 0.491063,0.0326 0.836382,-0.12304 1.08572,-0.48958 0.150722,-0.22115 0.155884,-0.36137 0.156198,-3.93468 3.23e-4,-4.12003 0.03058,-4.44302 0.483446,-5.20458 0.466718,-0.78485 1.243072,-1.13848 2.500128,-1.13848 1.172322,0 1.966049,0.32267 2.439756,0.99204 0.499466,0.70579 0.492592,0.64157 0.539506,5.08433 0.03953,3.74626 0.05342,4.06345 0.184467,4.2426 0.446411,0.61024 1.52078,0.61743 1.937624,0.0129 0.153614,-0.22308 0.158114,-0.3419 0.158114,-4.25247 0,-4.52616 -0.01246,-4.65536 -0.553402,-5.69331 -0.234964,-0.45084 -0.427712,-0.69406 -0.837527,-1.05688 -0.87227,-0.77227 -1.970432,-1.15156 -3.473729,-1.18917 z m 27.47313,0.0171 c -1.119434,-1.6e-4 -1.3802,0.0219 -1.919894,0.1619 -0.985514,0.25576 -1.645652,0.6031 -2.365969,1.245 -0.518807,0.46233 -0.702594,0.68879 -1.002352,1.2334 -0.58789,1.06809 -0.768927,1.82147 -0.81501,3.38969 -0.04277,1.45588 0.06689,2.31342 0.411579,3.22178 0.734987,1.9369 2.328774,3.13044 4.595385,3.44124 v 4.2e-4 c 0.827975,0.11354 2.522832,0.0472 3.294053,-0.12883 1.252236,-0.28573 2.69987,-1.06404 3.024302,-1.62635 0.346906,-0.60128 -0.175392,-1.3324 -0.95252,-1.33303 -0.25671,-2.1e-4 -0.447172,0.0729 -0.930003,0.35816 -0.822801,0.48625 -1.348543,0.69127 -2.066988,0.80609 -0.781522,0.12454 -1.260838,0.12365 -1.940018,-0.005 -1.640521,-0.31009 -2.744425,-1.35473 -3.068383,-2.90355 -0.06697,-0.32023 -0.109718,-0.63672 -0.09535,-0.70345 0.02419,-0.11269 0.340697,-0.12409 4.434396,-0.15676 l 4.408044,-0.0352 0.210341,-0.17565 c 0.426541,-0.35729 0.469751,-0.51178 0.461408,-1.61862 -0.0063,-0.80369 -0.04339,-1.13955 -0.175844,-1.58298 -0.539722,-1.807 -1.824782,-3.00954 -3.701799,-3.46441 -0.389694,-0.0945 -0.816151,-0.12398 -1.805381,-0.12412 z m -13.999851,1.86556 c 2.100507,-0.002 3.259724,0.91885 3.680237,2.92374 0.187903,0.89585 0.125028,2.86911 -0.114993,3.60785 -0.435813,1.3414 -1.19962,2.06661 -2.494378,2.36888 v 4.4e-4 c -0.532757,0.12421 -1.630198,0.12743 -2.185813,0.007 -0.962045,-0.20948 -1.72349,-0.75384 -2.147963,-1.53573 -0.804388,-1.48178 -0.827538,-4.17196 -0.04887,-5.66152 0.623539,-1.1928 1.62175,-1.70843 3.311781,-1.71009 z m 13.999851,8.6e-4 c 1.212578,0 1.901537,0.22751 2.538936,0.83829 0.207088,0.19843 0.446554,0.50262 0.53232,0.6764 0.184213,0.37329 0.379537,1.15445 0.381392,1.52671 h 4.78e-4 l 9.6e-4,0.26369 h -3.648616 -3.648134 l 0.04552,-0.22847 c 0.202163,-1.01172 0.49005,-1.59198 1.056495,-2.12882 0.706567,-0.66962 1.511578,-0.9478 2.740652,-0.9478 z m -49.97715,0.002 c 0.669623,-0.006 1.399287,0.0639 1.777112,0.19583 1.662079,0.58057 2.454661,2.17638 2.330033,4.69052 -0.05557,1.12115 -0.20233,1.74493 -0.565379,2.40625 -0.482987,0.87977 -1.324093,1.45774 -2.384176,1.63794 -0.495961,0.0845 -1.550416,0.0821 -2.041116,-0.004 -0.929136,-0.16355 -1.814813,-0.76261 -2.27685,-1.5396 -0.448352,-0.75397 -0.592999,-1.4808 -0.587899,-2.95767 0.0038,-1.0948 0.03079,-1.38744 0.169135,-1.83978 0.429199,-1.40336 1.233766,-2.19703 2.527437,-2.49299 0.269574,-0.0616 0.649928,-0.0926 1.051703,-0.0962 z m 78.534544,4.17174 c 0.0862,-0.0131 0.0952,0.0939 0.0944,0.61884 -5.9e-4,0.37574 -0.067,0.94556 -0.15477,1.32702 -0.36319,1.57846 -1.29509,2.53499 -2.732977,2.80607 -0.397437,0.075 -1.484571,0.0922 -1.899758,0.03 -0.500577,-0.0749 -1.079444,-0.2624 -1.377504,-0.44621 -0.618742,-0.38157 -0.84276,-1.2245 -0.474826,-1.78568 0.378282,-0.57697 1.252163,-0.96975 3.763108,-1.69077 1.645387,-0.47247 2.202727,-0.64485 2.740647,-0.84732 0.0156,-0.006 0.0294,-0.0102 0.0417,-0.012 z"
       id="path873"
       inkscape:connector-curvature="0" />
    <path
       style="fill:#ffffff;stroke-width:0.1889881"
       d="m 52.714134,262.26555 c -2.157627,-0.77452 -3.574133,-1.97327 -4.573872,-3.87074 -0.500469,-0.94987 -0.526339,-1.12437 -0.526339,-3.55031 0,-2.45071 0.02748,-2.63068 0.696774,-4.56298 1.102453,-3.18287 2.6582,-6.10315 5.200947,-9.76267 1.049499,-1.51044 1.262359,-1.72401 1.511861,-1.51694 0.642308,0.53306 3.753215,5.49389 4.779475,7.62161 2.418723,5.01468 2.986045,8.43134 1.882839,11.33928 -0.60191,1.58658 -2.474453,3.45728 -4.055527,4.05154 -1.564525,0.58804 -3.677099,0.69599 -4.916158,0.25121 z"
       id="path881"
       inkscape:connector-curvature="0" />
    <path
       style="fill:#ffffff;stroke-width:0.1889881"
       d="m 67.846937,254.91064 c -0.560248,-0.56193 -0.623427,-0.7477 -0.742236,-2.18248 -0.296847,-3.58482 -1.925755,-6.66731 -4.655212,-8.80938 -1.047577,-0.82213 -2.90586,-1.84058 -3.779762,-2.07153 -0.329958,-0.0872 -0.871504,-0.72604 -1.795387,-2.11797 -0.727604,-1.09621 -1.441009,-2.15997 -1.585343,-2.36391 -0.254349,-0.3594 -0.228171,-0.36716 0.850446,-0.25215 8.329463,0.88816 14.582051,7.22378 15.130637,15.33156 l 0.117673,1.73913 -0.670472,0.67047 c -0.555121,0.55512 -0.80703,0.67047 -1.464221,0.67047 -0.643906,0 -0.909354,-0.11595 -1.406123,-0.61421 z"
       id="path883"
       inkscape:connector-curvature="0" />
    <path
       style="fill:#ffffff;stroke-width:0.1889881"
       d="m 41.89086,251.91572 c -0.474112,-0.42362 -0.797499,-0.54861 -1.419416,-0.54861 -0.745646,0 -1.543356,0.35644 -1.878808,0.8395 -0.277368,0.39941 -0.135438,-1.19309 0.236347,-2.6519 1.680241,-6.59291 7.255181,-11.50702 14.016216,-12.35478 0.848761,-0.10643 1.580928,-0.15578 1.627037,-0.10967 0.04611,0.0461 -0.332634,0.66214 -0.841653,1.36896 -0.509018,0.70682 -1.201322,1.72096 -1.538452,2.25364 -0.526554,0.83197 -0.767782,1.02495 -1.711201,1.36894 -3.031501,1.10534 -6.129532,4.24329 -7.11321,7.20487 -0.163449,0.4921 -0.401958,1.40839 -0.530019,2.03619 l -0.232838,1.14147 z"
       id="path885"
       inkscape:connector-curvature="0" />
    <path
       style="fill:#ffffff;stroke-width:0.1889881"
       d="m 52.119697,270.86871 c -6.440501,-1.23077 -11.625245,-5.92877 -13.180534,-11.94316 -1.113502,-4.30597 -0.634336,-6.31111 1.508162,-6.31111 1.389758,0 1.757114,0.49027 2.053815,2.74104 0.33193,2.518 0.563991,3.31421 1.482066,5.08503 2.431878,4.69071 8.139944,7.38201 13.285015,6.26376 2.482209,-0.53948 4.380665,-1.57472 6.188153,-3.37444 2.050069,-2.04125 2.967277,-3.76049 3.533714,-6.62369 l 0.218701,-1.10546 0.535299,0.51285 c 0.358828,0.34378 0.807698,0.54355 1.361567,0.60598 0.698657,0.0788 0.919779,0.0145 1.431776,-0.41637 l 0.60551,-0.5095 v 0.74252 c 0,0.40838 -0.163205,1.38064 -0.362676,2.16056 -1.218878,4.76578 -4.702477,8.90962 -9.207097,10.95211 -2.656636,1.20458 -6.761619,1.73429 -9.453471,1.21988 z"
       id="path887"
       inkscape:connector-curvature="0" />
    <rect
       style="fill:none;stroke-width:0.26458332"
       id="rect1089"
       width="29.104166"
       height="46.680061"
       x="-45.546127"
       y="259.39136" />
    <rect
       style="fill:none;stroke-width:0.26458332"
       id="rect1095"
       width="11.90625"
       height="3.2127976"
       x="130.2128"
       y="289.2515" />
    <rect
       style="fill:none;stroke-width:0.26458332"
       id="rect1097"
       width="43.84523"
       height="41.388424"
       x="-45.546124"
       y="259.39136" />
  </g>
</svg>
