<?xml version="1.0" encoding="utf-8"?>
<!-- Generator: Adobe Illustrator 20.1.0, SVG Export Plug-In . SVG Version: 6.00 Build 0)  -->
<svg version="1.2" baseProfile="tiny" id="Camada_1"
	 xmlns="http://www.w3.org/2000/svg" xmlns:xlink="http://www.w3.org/1999/xlink" x="0px" y="0px" viewBox="0 0 200 100"
	 overflow="scroll" xml:space="preserve">
<g id="XMLID_7854_">
	<path id="XMLID_7998_" fill="#FFFFFF" d="M94.2,66c-0.2-1.6-0.3-2.9-0.5-4.2c-0.4-1.9-1.6-3-3.4-3.3c-1.1-0.2-2.3-0.3-3.4-0.4
		c-2.6-0.4-4.3-2.4-4.1-4.7c0.2-2.5,2-4.1,4.7-4.2c3.2-0.1,6.4,2,7,5.3c0.7,4.1,0.8,8.3,1.2,12.6c-1,0.1-1.5,0.2-2,0.2
		c-5.3,0-10.6-0.1-15.9-0.1c-4.8-0.1-7.7-3-7.7-7.8c0-13.7,0-27.5,0.1-41.2c0-4.4,3.2-7.7,7.6-7.7c14.4,0,28.7,0,43.1,0.1
		c4.9,0,7.9,3.3,7.9,8.2c-0.1,13.7-0.2,27.5-0.3,41.2c0,4-2.9,7.2-7.2,7.4c-6,0.3-12.1,0.1-18.2,0.1c-0.1-4.8-0.6-9.3,1.1-13.7
		c1.3-3.4,5.4-5.3,8.5-4.4c2,0.6,3.1,2,3.2,4c0.2,1.9-1,3.7-3,4.3c-1.1,0.4-2.4,0.5-3.6,0.6c-3.6,0.3-5.8,3.1-5.1,6.6
		c0.1,0.4,0.8,0.9,1.2,1c5.1,0.1,10.2,0.3,15.3,0.1c3.9-0.2,6.7-3.3,6.7-7.2c0.1-13.1,0.2-26.2,0.2-39.4c0-5.3-2.9-8.1-8.3-8.2
		c-13.3-0.1-26.7-0.1-40-0.2c-4.6,0-7.8,3-7.8,7.6c-0.1,13.3-0.1,26.5-0.1,39.8c0,4.1,3.1,7.2,7.2,7.3C83.5,66,88.6,66,94.2,66z"/>
	<path id="XMLID_7997_" fill="#FFFFFF" d="M101.2,67.2c-0.2-0.5-0.6-1-0.6-1.5c0.1-6.4,0-12.9,0.4-19.3c0.1-2.4,0.9-4.8,1.8-7
		c2-4.9,7.4-7.4,12.6-6.2c3.7,0.8,6.1,3.9,6,7.6c-0.1,3.4-2.6,6.2-6.4,6.8c-0.9,0.2-1.9,0.1-2.8,0.3c-6.4,1-9.3,4-10,10.6
		c-0.3,2.9-0.4,5.8-0.5,8.7C101.5,67.1,101.3,67.1,101.2,67.2z"/>
	<path id="XMLID_7996_" fill="#FFFFFF" d="M96.3,67.5c-0.2-3.8-0.2-7-0.6-10.1c-0.9-6.7-4.1-9.4-10.8-9.9c-4-0.2-7-2.5-7.6-5.6
		c-0.7-3.7,1.1-7.2,4.4-8.5c5.1-2.1,11.5,0.1,13.5,5.3c1.3,3.3,2.1,6.9,2.3,10.4c0.3,5.7-0.1,11.4-0.3,17.1
		C97.2,66.5,96.9,66.7,96.3,67.5z"/>
	<path id="XMLID_7995_" fill="#FFFFFF" d="M98.2,66.9c0-7.1-0.2-14.1,0.1-21.2c0.1-3.7-1-6.6-3.3-9.3c-1-1.2-2-2.6-2.8-4c-2.7-4.7-0.7-9.4,4.5-11.1
		c5.3-1.7,10.7,1.8,11.1,7.2c0.2,2.3-0.8,4.1-2.2,5.7c-7.2,8.2-5.6,5.7-5.8,16.2c-0.1,5-0.1,9.9-0.2,14.9c0,0.6-0.3,1.2-0.4,1.8
		C98.7,67.1,98.4,67,98.2,66.9z"/>
	<text id="XMLID_7857_" fill="#FFFFFF" transform="matrix(1 0 0 1 70.2266 83.2734)" font-family="'Arial-BoldMT'" font-size="16.5805px">DNOCS</text>
</g>
</svg>
