<svg id="Camada_1" data-name="Camada 1" xmlns="http://www.w3.org/2000/svg" viewBox="0 0 190.34 104.83"><defs><style>.cls-1,.cls-2{fill:#fff;}.cls-2{font-size:22.01px;font-family:Arial-BoldMT, Arial;font-weight:700;}</style></defs><title>dnocs</title><g id="_Grupo_" data-name="&lt;Grupo&gt;"><path id="_Caminho_" data-name="&lt;Caminho&gt;" class="cls-1" d="M87,73.64c-.27-2.16-.38-3.86-.72-5.52-.51-2.48-2.25-3.92-4.85-4.37-1.6-.28-3.24-.34-4.85-.58C72.9,62.62,70.46,60,70.7,56.9c.26-3.26,2.79-5.4,6.59-5.55,4.49-.18,9.1,2.62,9.94,7,1,5.43,1.15,11,1.68,16.69-1.43.17-2.16.33-2.89.33-7.49,0-15-.07-22.46-.17-6.74-.08-10.88-4-10.87-10.39q0-27.35.11-54.7C52.82,4.36,57.3,0,63.49,0q30.38,0,60.75.15c6.9,0,11.2,4.37,11.16,10.91q-.14,27.35-.4,54.7c0,5.33-4,9.6-10.11,9.86-8.5.37-17,.09-25.75.09-.21-6.33-.85-12.36,1.61-18.12,1.9-4.46,7.6-7.09,11.93-5.78a5.8,5.8,0,0,1,4.56,5.3c.24,2.57-1.4,4.86-4.27,5.75a23.21,23.21,0,0,1-5.06.84c-5,.4-8.15,4.05-7.22,8.79a2.21,2.21,0,0,0,1.65,1.27c7.19.12,14.4.37,21.59.09a9.56,9.56,0,0,0,9.45-9.49q.24-26.13.31-52.25c0-7-4.13-10.78-11.69-10.82Q93.77,1.08,65.55,1c-6.47,0-11,4-11,10.1q-.21,26.4-.12,52.8c0,5.49,4.44,9.62,10.19,9.68C71.88,73.7,79.14,73.64,87,73.64Z"/><path id="_Caminho_2" data-name="&lt;Caminho&gt;" class="cls-1" d="M96.86,75.2a6,6,0,0,1-.78-2c.1-8.55.06-17.12.54-25.65a27.57,27.57,0,0,1,2.52-9.35c2.89-6.54,10.38-9.87,17.76-8.29,5.22,1.12,8.58,5.14,8.46,10.13-.11,4.57-3.71,8.19-9,9-1.32.2-2.68.18-4,.36-9,1.26-13.11,5.28-14.12,14.09-.44,3.82-.5,7.68-.73,11.53Z"/><path id="_Caminho_3" data-name="&lt;Caminho&gt;" class="cls-1" d="M90,75.63c-.31-5.05-.27-9.3-.9-13.46-1.34-8.84-5.83-12.53-15.27-13.09-5.61-.33-9.92-3.34-10.7-7.46a9.88,9.88,0,0,1,6.2-11.32c7.24-2.81,16.25.18,19.1,7a42.62,42.62,0,0,1,3.25,13.85c.41,7.55-.18,15.14-.4,22.71C91.25,74.27,90.74,74.64,90,75.63Z"/><path id="_Caminho_4" data-name="&lt;Caminho&gt;" class="cls-1" d="M92.58,74.87c0-9.36-.23-18.73.09-28.08A16.84,16.84,0,0,0,88,34.44a35.58,35.58,0,0,1-4-5.26c-3.74-6.27-1-12.54,6.3-14.78s15,2.4,15.6,9.61c.24,3-1.1,5.46-3.09,7.61-10.09,10.94-7.95,7.51-8.24,21.45-.14,6.58-.16,13.16-.3,19.74a10.83,10.83,0,0,1-.63,2.44Z"/><text class="cls-2" transform="translate(53.16 96.57) scale(1.06 1)">DNOCS</text></g></svg>