<?xml version="1.0" encoding="utf-8"?>
<!-- Generator: Adobe Illustrator 20.1.0, SVG Export Plug-In . SVG Version: 6.00 Build 0)  -->
<svg version="1.2" baseProfile="tiny" id="Camada_1"
	 xmlns="http://www.w3.org/2000/svg" xmlns:xlink="http://www.w3.org/1999/xlink" x="0px" y="0px" viewBox="0 0 54.5 54.5"
	 overflow="scroll" xml:space="preserve">
<g id="XMLID_381_">
	<path fill="#AAA" id="XMLID_389_" d="M23.3,39.7c2.5-3.9,1.6-3.3,6.3-4.8l0.8,0.5c-0.9-1.1-1.4-1.6-1.5-2.1c-0.2-0.6,0-1.2,0.3-3.1
		c0.4-5.9,7.9-4.6,6.1,1.1c-0.4,1.9-0.4,2.5-0.9,3c-0.3,0.4-0.9,0.7-2.2,1.4l0,0l1-0.2c3.9,3,3.3,2.1,4.2,6.7l0.1,0l3.3-18
		l-14.3-2.6L23.3,39.7L23.3,39.7z"/>
	<path fill="#AAA" id="XMLID_383_" d="M27.2,0C12.2,0,0,12.2,0,27.2s12.2,27.2,27.2,27.2c15,0,27.2-12.2,27.2-27.2S42.3,0,27.2,0z M11.4,12.6
		l19-2.3l1,8.8l-2.4-0.4l-0.7-5.7L14,14.8l2.1,18.2l0,0c0.7-2.6,0.4-3.7,2.6-5.2c-0.9-1-0.4-2.2-0.1-3.4c0.3-1.1,0.2-2.3,0.2-3
		c0-0.2,0-0.4,0-0.6v0c0-3.2,3.1-4.3,5-2.8l-3.1,17l-6.5,0.8L11.4,12.6z M39.3,45.2l-18.9-3.5l4.2-22.8l18.9,3.5L39.3,45.2z"/>
</g>
</svg>
