<?xml version="1.0" encoding="utf-8"?>
<!-- Generator: Adobe Illustrator 20.1.0, SVG Export Plug-In . SVG Version: 6.00 Build 0)  -->
<svg version="1.2" baseProfile="tiny" id="Camada_1"
	 xmlns="http://www.w3.org/2000/svg" xmlns:xlink="http://www.w3.org/1999/xlink" x="0px" y="0px" viewBox="0 0 200 100"
	 overflow="scroll" xml:space="preserve">
<g id="XMLID_7858_">
	<path id="XMLID_7950_" fill="#FFFFFF" d="M140.4,59.7c0.2-0.1,0.2-0.3,0.3-0.5c0.5-1,0.9-2.1,1.4-3.1c0.2-0.4,0.4-0.6,0.9-0.6c0.5,0,1.1,0,1.6,0
		c0.4,0,0.5,0.1,0.5,0.5c0,2.7,0,5.3,0,8c0,0.4,0,0.5-0.5,0.5c-0.5,0-0.9,0-1.4,0c-0.5,0-0.5,0-0.5-0.5c0-1.2,0-2.4,0-3.6
		c0-0.4,0-0.9,0-1.4c-0.2,0.1-0.2,0.2-0.2,0.3c-0.4,0.9-0.8,1.8-1.1,2.7c-0.1,0.3-0.3,0.5-0.7,0.5c-0.2,0-0.5,0-0.7,0
		c-0.3,0-0.5-0.1-0.6-0.4c-0.4-0.9-0.8-1.8-1.1-2.7c0-0.1-0.1-0.2-0.2-0.3c-0.1,0.2,0,0.3,0,0.5c0,1.4,0,2.8,0,4.2
		c0,0.1,0,0.3,0,0.4c0,0.2-0.1,0.3-0.3,0.3c-0.5,0-1.1,0-1.6,0c-0.2,0-0.3-0.1-0.3-0.3c0-0.1,0-0.3,0-0.4c0-2.5,0-5,0-7.6
		c0-0.7,0-0.7,0.7-0.7c0.5,0,1,0,1.6,0c0.4,0,0.6,0.1,0.7,0.4c0.5,1.1,1,2.3,1.5,3.4C140.2,59.5,140.2,59.6,140.4,59.7z"/>
	<path id="XMLID_7949_" fill="#FFFFFF" d="M110.3,58.7c0,0.7,0,1.3,0,2c0,1.1,0,2.1,0,3.2c0,0.6,0,0.6-0.6,0.6c-0.4,0-0.8,0-1.2,0
		c-0.3,0-0.4-0.1-0.4-0.4c0-0.1,0-0.2,0-0.3c0-2.5,0-5,0-7.5c0,0,0-0.1,0-0.1c0-0.6,0-0.6,0.6-0.6c0.6,0,1.1,0,1.7,0
		c0.4,0,0.6,0.1,0.8,0.5c0.8,1.3,1.7,2.6,2.5,3.9c0.1,0.1,0.1,0.3,0.3,0.4c0.1-0.2,0.1-0.3,0.1-0.5c0-1.2,0-2.5,0-3.7
		c0-0.6,0-0.6,0.6-0.6c0.4,0,0.8,0,1.2,0c0.3,0,0.4,0.1,0.4,0.4c0,0.1,0,0.2,0,0.3c0,2.5,0,5,0,7.5c0,0.1,0,0.2,0,0.2
		c0,0.5,0,0.5-0.5,0.5c-0.4,0-0.9,0-1.3,0c-0.3,0-0.5-0.1-0.7-0.4c-1-1.7-2.1-3.3-3.1-5C110.6,58.9,110.5,58.8,110.3,58.7
		C110.4,58.7,110.4,58.7,110.3,58.7z"/>
	<path id="XMLID_7948_" fill="#FFFFFF" d="M106.1,58.8c0,0.9,0,1.8,0,2.7c0,1-0.4,1.8-1.2,2.4c-0.6,0.4-1.2,0.6-1.9,0.7c-0.8,0.1-1.6,0.1-2.3-0.1
		c-1.6-0.3-2.6-1.5-2.6-3.1c0-1.8,0-3.6,0-5.5c0-0.4,0.1-0.5,0.5-0.5c0.5,0,0.9,0,1.4,0c0.4,0,0.5,0.1,0.5,0.5c0,1.6,0,3.2,0,4.8
		c0,0.3,0,0.5,0.1,0.8c0.1,0.9,0.6,1.4,1.7,1.3c0.9-0.1,1.3-0.4,1.4-1.3c0-0.2,0-0.5,0-0.7c0-1.5,0-3.1,0-4.6c0-0.1,0-0.3,0-0.4
		c0-0.2,0.1-0.3,0.3-0.3c0.6,0,1.2,0,1.8,0c0.2,0,0.3,0.1,0.3,0.3c0,0.3,0,0.6,0,0.9C106.1,57.5,106.1,58.1,106.1,58.8
		C106.1,58.8,106.1,58.8,106.1,58.8z"/>
	<path id="XMLID_7947_" fill="#FFFFFF" d="M127.3,60c0-1.3,0-2.6,0-3.9c0-0.5,0-0.6,0.6-0.6c1.8,0,3.6,0,5.4,0c0.5,0,0.5,0,0.6,0.6
		c0,0.3,0,0.5,0,0.8c0,0.4-0.1,0.4-0.4,0.4c-0.8,0-1.6,0-2.4,0c-0.3,0-0.5,0-0.8,0c-0.4,0-0.4,0-0.4,0.4c0,0.2,0,0.4,0,0.6
		c0,0.4,0,0.4,0.4,0.4c0.9,0,1.8,0,2.8,0c0.6,0,0.6,0,0.6,0.6c0,0.3,0,0.5,0,0.8c0,0.4-0.1,0.4-0.4,0.4c-0.3,0-0.5,0-0.8,0
		c-0.7,0-1.4,0-2.2,0c-0.4,0-0.5,0-0.5,0.5c0,0.4,0,0.8,0,1.1c0,0.4,0.1,0.4,0.4,0.4c1,0,2,0,3,0c0.7,0,0.7,0,0.7,0.7
		c0,0.2,0,0.4,0,0.7c0,0.4-0.1,0.4-0.4,0.4c-0.1,0-0.2,0-0.3,0c-1.7,0-3.4,0-5,0c-0.1,0-0.2,0-0.2,0c-0.5,0-0.5,0-0.5-0.5
		C127.3,62.6,127.3,61.3,127.3,60z"/>
	<path id="XMLID_7946_" fill="#FFFFFF" d="M147.3,60c0-1.3,0-2.5,0-3.8c0-0.1,0-0.3,0-0.4c0-0.2,0.1-0.3,0.3-0.3c0.1,0,0.2,0,0.4,0
		c1.7,0,3.5,0,5.2,0c0.1,0,0.2,0,0.2,0c0.4,0,0.4,0.1,0.4,0.4c0,0.3,0,0.6,0,0.9c0,0.4-0.1,0.4-0.5,0.5c-1,0-2,0-3,0
		c-0.7,0-0.7,0-0.7,0.7c0,0.8,0,0.8,0.8,0.8c0.8,0,1.7,0,2.5,0c0.6,0,0.6,0,0.6,0.6c0,0.3,0,0.5,0,0.8c0,0.4-0.1,0.4-0.4,0.4
		c-0.8,0-1.6,0-2.3,0c-0.2,0-0.5,0-0.7,0c-0.2,0-0.4,0.1-0.3,0.3c0,0.5,0,0.9,0,1.4c0,0.3,0.1,0.3,0.4,0.4c0.5,0,0.9,0,1.4,0
		c0.6,0,1.3,0,1.9,0c0.4,0,0.5,0.1,0.5,0.5c0,0.3,0,0.7,0,1c0,0.2-0.1,0.3-0.3,0.3c-0.1,0-0.2,0-0.3,0c-1.7,0-3.4,0-5.2,0
		c-0.1,0-0.2,0-0.3,0c-0.2,0-0.3-0.1-0.3-0.4c0-0.1,0-0.3,0-0.4C147.3,62.5,147.3,61.2,147.3,60z"/>
	<path id="XMLID_7945_" fill="#FFFFFF" d="M125.8,57.2c0,0.3,0,0.6,0,0.8c0,0.3-0.2,0.4-0.4,0.2c-0.2-0.2-0.5-0.4-0.7-0.5c-0.4-0.2-0.8-0.4-1.2-0.5
		c-1.1-0.2-2.3,0.3-2.7,1.3c-0.4,1-0.4,2.1,0.1,3.1c0.3,0.6,0.7,0.9,1.3,1.1c1,0.3,1.9,0,2.7-0.6c0.2-0.1,0.3-0.3,0.5-0.4
		c0.2-0.2,0.4-0.1,0.4,0.2c0,0.5,0,1.1,0,1.6c0,0.2-0.2,0.3-0.3,0.4c-0.6,0.3-1.2,0.5-1.8,0.6c-0.9,0.1-1.9,0.1-2.8-0.2
		c-1.3-0.4-2.2-1.3-2.6-2.6c-0.4-1.2-0.4-2.5,0-3.7c0.5-1.5,1.7-2.4,3.2-2.7c1.3-0.2,2.6-0.1,3.8,0.5c0.3,0.1,0.5,0.3,0.4,0.6
		C125.8,56.7,125.8,56.9,125.8,57.2C125.8,57.2,125.8,57.2,125.8,57.2z"/>
	<path id="XMLID_7944_" fill="#FFFFFF" d="M90.3,60c0-1.3,0-2.5,0-3.8c0-0.1,0-0.3,0-0.4c0-0.2,0.1-0.3,0.4-0.3c0.1,0,0.2,0,0.3,0
		c1.7,0,3.4,0,5.2,0c0.1,0,0.2,0,0.3,0c0.2,0,0.3,0.1,0.3,0.4c0,0.4,0,0.7,0,1.1c0,0.3-0.1,0.4-0.4,0.4c-0.4,0-0.7,0-1.1,0
		c-0.7,0-1.4,0-2.2,0c-0.4,0-0.4,0-0.4,0.4c0,0.2,0,0.4,0,0.7c0,0.4,0,0.5,0.5,0.5c0.5,0,1.1,0,1.6,0c0.4,0,0.8,0,1.2,0
		c0.4,0,0.4,0.1,0.4,0.4c0,0.3,0,0.6,0,0.9c0,0.4-0.1,0.4-0.4,0.4c-0.4,0-0.8,0-1.1,0c-0.6,0-1.2,0-1.8,0c-0.4,0-0.4,0-0.4,0.4
		c0,0.9,0,1.7,0,2.6c0,0.1,0,0.3,0,0.4c0,0.3-0.1,0.4-0.4,0.4c-0.5,0-1.1,0-1.6,0c-0.3,0-0.4-0.1-0.4-0.4c0-0.3,0-0.6,0-0.9
		C90.3,62.1,90.3,61,90.3,60z"/>
	<path id="XMLID_7864_" fill="#FFFFFF" d="M129.9,49.3c0-0.5-0.1-0.6-0.6-0.6c-1.1,0-2.3,0-3.4,0c-0.8,0-0.8,0.1-0.8-0.8c0-11.5,0-22.9,0-34.4
		c0-0.8,0-0.8-0.8-0.8c-11.5,0-22.9,0-34.4,0c-0.1,0-0.3,0-0.4,0c-0.6,0-0.6,0-0.6-0.6c0-1.1,0-2.1,0-3.2c0-0.3,0-0.5,0-0.8
		c0-0.2-0.1-0.3-0.3-0.3c-0.3,0-0.6,0-0.9,0c-0.2,0-0.3,0.1-0.3,0.4c0,0.1,0,0.3,0,0.4c0,1.2,0,2.4,0,3.7c0,0.4,0,0.4-0.4,0.4
		c-0.6,0-1.2,0-1.7,0c-0.9,0-0.9-0.1-0.9,0.9c0,11.4,0,22.7,0,34.1c0,0.2,0,0.3,0,0.5c0,0.3-0.1,0.4-0.4,0.4c-0.1,0-0.2,0-0.3,0
		c-1.5,0-3,0-4.5,0c-4.2,0-8.5,0-12.7,0c-5.8,0-11.7,0-17.5-0.1c-0.7,0-1.3,0-2,0c-0.5,0-0.6,0.1-0.6,0.6c0,0.2,0,0.4,0,0.6
		c0,0.3,0.1,0.4,0.4,0.4c0.1,0,0.1,0,0.2,0c2.8,0,5.6,0,8.4,0c4.3,0.1,8.6,0,12.8,0c5.2,0,10.4-0.1,15.6,0.1c0.6,0,0.6,0,0.6,0.6
		c0,0.7,0,1.4,0,2.2c0,0.5,0.1,0.5,0.5,0.5c0.6,0,1.3,0,1.9,0c0.6,0,0.6,0,0.6,0.6c0,0,0,0.1,0,0.1c0,10.7,0.1,21.3-0.1,32
		c0,1.8,0,3.5,0,5.3c0,0.2,0,0.3,0,0.5c0,0.2,0.1,0.3,0.3,0.3c0.3,0,0.6,0,0.9,0c0.2,0,0.3-0.1,0.3-0.4c0-0.2,0-0.4,0-0.6
		c0-12.4,0-24.7,0-37.1c0-0.7-0.1-0.7,0.8-0.7c5.8,0,11.6,0,17.4,0c3,0,6.1,0,9.1,0c2.8,0,5.7,0,8.5,0c0.6,0,0.6,0,0.6-0.6
		c0-0.7,0-1.4,0-2.1c0-0.5,0-0.5,0.5-0.5c1.1,0,2.2,0,3.3,0C129.9,50.3,129.9,50.4,129.9,49.3z M115.7,28.1c-3.3,0-6-2.7-6-6
		s2.7-6,6-6c3.3,0,6,2.7,6,6S119,28.1,115.7,28.1z"/>
</g>
</svg>
