<svg id="Camada_1" data-name="Camada 1" xmlns="http://www.w3.org/2000/svg" viewBox="0 0 190.34 104.83"><defs><style>.cls-1{fill:#fff;}</style></defs><title>funceme</title><g id="_Grupo_" data-name="&lt;Grupo&gt;"><path id="_Caminho_" data-name="&lt;Caminho&gt;" class="cls-1" d="M148.93,64.49a1.63,1.63,0,0,0,.39-.64c.62-1.3,1.26-2.59,1.85-3.9a1.06,1.06,0,0,1,1.17-.72c.73,0,1.46,0,2.19,0s.67.07.67.6q0,5,0,9.93c0,.54-.07.6-.65.6h-1.81c-.65,0-.69,0-.7-.68,0-1.5,0-3,0-4.5,0-.54,0-1.09,0-1.68-.22.1-.25.26-.31.39-.51,1.11-1,2.21-1.51,3.33a.83.83,0,0,1-.94.57,5.67,5.67,0,0,0-.94,0,.76.76,0,0,1-.85-.52c-.49-1.12-1-2.22-1.52-3.33a.56.56,0,0,0-.22-.31,1.21,1.21,0,0,0-.06.58q0,2.6,0,5.2c0,.18,0,.35,0,.53a.4.4,0,0,1-.46.43h-2.13a.37.37,0,0,1-.42-.4c0-.16,0-.31,0-.47q0-4.7,0-9.4c0-.85,0-.86.89-.86.69,0,1.38,0,2.06,0a.87.87,0,0,1,1,.56c.65,1.41,1.34,2.81,2,4.21C148.67,64.18,148.69,64.39,148.93,64.49Z"/><path id="_Caminho_2" data-name="&lt;Caminho&gt;" class="cls-1" d="M108.93,63.22q0,1.22,0,2.45c0,1.32,0,2.65,0,4,0,.72,0,.74-.82.74-.52,0-1,0-1.56,0s-.5-.08-.53-.48c0-.14,0-.27,0-.41q0-4.67,0-9.34c0-.06,0-.12,0-.18,0-.69,0-.72.78-.73s1.5,0,2.25,0a1.14,1.14,0,0,1,1.11.57c1.09,1.64,2.2,3.26,3.32,4.88.12.17.19.39.46.49a1,1,0,0,0,.07-.57c0-1.54,0-3.07,0-4.61,0-.71,0-.74.82-.75.52,0,1,0,1.56,0s.5.09.53.49c0,.14,0,.27,0,.41q0,4.64,0,9.28c0,.1,0,.19,0,.29,0,.61-.06.65-.73.66s-1.17,0-1.75,0a1,1,0,0,1-.95-.51c-1.36-2.07-2.74-4.14-4.11-6.2l-.33-.48Z"/><path id="_Caminho_3" data-name="&lt;Caminho&gt;" class="cls-1" d="M103.3,63.31c0,1.13,0,2.26,0,3.39a3.65,3.65,0,0,1-1.54,3,4.9,4.9,0,0,1-2.49.87,11.68,11.68,0,0,1-3.11-.08,3.9,3.9,0,0,1-3.49-3.85c0-2.26,0-4.52,0-6.78,0-.55.07-.61.65-.62s1.25,0,1.88,0,.64.07.64.62c0,2,0,4,0,6a6.74,6.74,0,0,0,.07,1c.16,1.11.83,1.68,2.31,1.6a1.7,1.7,0,0,0,1.88-1.66,5.37,5.37,0,0,0,.06-.87c0-1.91,0-3.82,0-5.72,0-.18,0-.35,0-.53a.35.35,0,0,1,.39-.37h2.37c.29,0,.39.19.39.43s0,.78,0,1.17q0,1.23,0,2.45Z"/><path id="_Caminho_4" data-name="&lt;Caminho&gt;" class="cls-1" d="M131.54,64.78c0-1.61,0-3.23,0-4.84,0-.65.05-.69.75-.7h7.18c.69,0,.73,0,.73.71,0,.33,0,.66,0,1s-.08.54-.59.54H135.3c-.53,0-.58.05-.59.53,0,.25,0,.51,0,.76,0,.48.06.52.59.53H139c.82,0,.84,0,.84.78,0,.31,0,.62,0,.93s-.08.51-.54.53-.71,0-1.06,0h-2.87c-.59,0-.63,0-.63.61s0,.93,0,1.4.07.54.58.55h3.94c1,0,1,0,1,.89,0,.27,0,.55,0,.82,0,.45-.08.5-.54.53h-7.43c-.63,0-.68-.06-.69-.63C131.53,68.09,131.54,66.44,131.54,64.78Z"/><path id="_Caminho_5" data-name="&lt;Caminho&gt;" class="cls-1" d="M158,64.8q0-2.33,0-4.67c0-.17,0-.35,0-.52a.34.34,0,0,1,.35-.35l.5,0h7.25c.47,0,.54.09.56.52s0,.78,0,1.17-.08.56-.64.56h-3.94c-.93,0-.93,0-.93.86,0,1-.05,1,1,1h3.31c.77,0,.79,0,.8.77,0,.31,0,.62,0,.93,0,.47-.08.54-.59.55-1,0-2.08,0-3.12,0h-.94c-.3,0-.47.12-.46.42,0,.56,0,1.13,0,1.69,0,.36.09.43.5.45.6,0,1.21,0,1.81,0,.85,0,1.71,0,2.56,0,.55,0,.61.08.62.58s0,.82,0,1.23-.15.43-.46.43h-7.75a.39.39,0,0,1-.45-.44c0-.16,0-.31,0-.47Q158,67.14,158,64.8Z"/><path id="_Caminho_6" data-name="&lt;Caminho&gt;" class="cls-1" d="M129.44,61.32c0,.35,0,.7,0,1.05s-.25.44-.55.25-.64-.44-1-.65a4.74,4.74,0,0,0-1.6-.64A3.11,3.11,0,0,0,122.77,63a4.4,4.4,0,0,0,.12,3.91,2.61,2.61,0,0,0,1.74,1.32,4.22,4.22,0,0,0,3.59-.7c.22-.15.42-.32.65-.45s.54-.11.55.24c0,.68,0,1.36,0,2,0,.28-.22.4-.45.5a8.22,8.22,0,0,1-2.38.68,9.16,9.16,0,0,1-3.71-.23,4.9,4.9,0,0,1-3.44-3.2,6.65,6.65,0,0,1,.06-4.64,5.23,5.23,0,0,1,4.3-3.33,9.27,9.27,0,0,1,5.07.57c.4.16.6.38.56.79s0,.54,0,.82Z"/><path id="_Caminho_7" data-name="&lt;Caminho&gt;" class="cls-1" d="M82.25,64.81q0-2.34,0-4.67c0-.16,0-.31,0-.47s.17-.42.47-.42h7.63c.3,0,.46.15.46.44,0,.45,0,.9,0,1.34s-.09.44-.49.46-1,0-1.44,0H86c-.52,0-.56.05-.58.54,0,.27,0,.55,0,.82,0,.52.06.57.61.58h2.19c.54,0,1.08,0,1.63,0s.57.08.59.55,0,.78,0,1.17-.08.51-.55.52-1,0-1.5,0H86c-.52,0-.58.06-.58.54,0,1.07,0,2.14,0,3.21,0,.16,0,.31,0,.47,0,.37-.1.44-.5.45q-1.06,0-2.13,0c-.44,0-.51-.07-.53-.48s0-.74,0-1.11Q82.25,66.8,82.25,64.81Z"/><path id="_Caminho_composto_" data-name="&lt;Caminho composto&gt;" class="cls-1" d="M134.92,51.52c0-.62-.09-.7-.77-.7h-4.5c-1.11,0-1.1.11-1.1-1q0-21.35,0-42.71c0-1,0-1-1.1-1H81.12c-.8,0-.82,0-.82-.74,0-1.3,0-2.61,0-3.91,0-.33,0-.66,0-1A.38.38,0,0,0,79.89,0H78.7a.39.39,0,0,0-.45.44c0,.18,0,.35,0,.53,0,1.52,0,3,0,4.56,0,.48-.06.54-.58.55-.77,0-1.54,0-2.31,0-1.25,0-1.19-.07-1.19,1.11q0,21.18,0,42.35c0,.21,0,.43,0,.64,0,.42-.08.47-.51.49H73.2l-6-.05c-5.63-.06-11.25,0-16.88-.05-7.77,0-15.55,0-23.32-.09-.88,0-1.75,0-2.63,0-.68,0-.74.07-.75.71,0,.23,0,.47,0,.7,0,.41.09.47.52.5h.25c3.73,0,7.46,0,11.19.06,5.69.08,11.38,0,17.07.05,6.9,0,13.8-.07,20.69.08.77,0,.8,0,.8.77,0,.9,0,1.79,0,2.69,0,.57.07.63.69.63h2.5c.75,0,.77,0,.78.72,0,0,0,.08,0,.12C78.07,70.78,78.2,84,78,97.3c0,2.18,0,4.36,0,6.54,0,.19,0,.39,0,.58a.4.4,0,0,0,.44.39h1.19a.41.41,0,0,0,.46-.44c0-.23,0-.47,0-.7q0-23,0-46.09c0-.9-.1-.92,1-.92h46.58c.73,0,.77,0,.78-.73,0-.86,0-1.71,0-2.57,0-.59,0-.63.68-.63,1.48,0,3,0,4.44,0C134.95,52.73,134.93,53,134.92,51.52ZM116,25.24a7.75,7.75,0,0,1-8-7.47,8,8,0,0,1,16,0A7.75,7.75,0,0,1,116,25.24Z"/></g></svg>