<?xml version="1.0" encoding="UTF-8"?>
<!DOCTYPE svg PUBLIC "-//W3C//DTD SVG 1.1//EN" "http://www.w3.org/Graphics/SVG/1.1/DTD/svg11.dtd">
<!-- Creator: CorelDRAW X7 -->
<svg xmlns="http://www.w3.org/2000/svg" xml:space="preserve" width="151.21mm" height="36.1456mm" version="1.1" style="shape-rendering:geometricPrecision; text-rendering:geometricPrecision; image-rendering:optimizeQuality; fill-rule:evenodd; clip-rule:evenodd"
viewBox="22100 -1000 10 5000"
 xmlns:xlink="http://www.w3.org/1999/xlink">
 <defs>
  <style type="text/css">
   <![CDATA[
    .fil0 {fill:#9D9D9C}
   ]]>
  </style>
 </defs>
 <g id="Camada_x0020_1">
  <metadata id="CorelCorpID_0Corel-Layer"/>
  <path class="fil0" d="M6484 3407c22,-78 16,-448 32,-487 10,14 12,30 17,49l92 345 125 -2c5,-20 95,-370 110,-393 10,27 11,200 14,247 5,66 -5,232 29,241 3,1 14,2 17,2l84 -6 -49 -620c-48,-10 -111,-11 -159,0 -24,71 -101,395 -111,407 -33,-162 -75,-276 -105,-407 -52,-9 -107,-11 -160,0 -9,74 -52,580 -43,620 33,10 72,6 107,4zm10997 -1141l0 1128 -4452 0c363,-306 1349,-784 2357,-1002 1008,-217 2095,-126 2095,-126zm-1477 -449c-418,77 -852,197 -1296,375 -526,211 -964,467 -1260,662 25,-486 508,-1123 1164,-1301 584,-159 1106,-15 1392,264zm-2975 -1582l4452 0 0 1465c-16,0 -32,0 -48,0l0 0 -2637 -1191 -1767 1441 0 -1715zm5136 1801c218,-5 599,-48 602,263 3,318 -379,258 -605,260l3 -523zm319 -185l-315 4 -2 -439 281 0c318,-24 325,425 36,435zm215 -1712c30,73 73,21 214,-64 -7,-39 -20,-55 -54,-75 -36,15 -50,37 -83,65 -40,34 -61,40 -77,74zm6422 3214l0 -38 -144 -3c8,-271 20,-290 -83,-294 -5,80 -16,308 17,365 183,0 162,17 210,-30zm-3001 -331l-225 -1 -2 365 83 -4 2 -144 116 -4 -5 -65 -113 -1 2 -73 142 -7 0 -66zm-2837 0l-76 -2 -73 289c-32,-93 -36,-212 -84,-290l-63 5c-20,37 50,235 61,279 19,73 17,96 139,80l96 -361zm4180 69c47,2 104,9 149,-5l-2 -63 -231 -2 3 345c52,30 81,19 153,20 61,0 95,-3 86,-71l-159 0 0 -78 120 -2 -4 -67 -116 -3 1 -74zm-3867 1l148 -3 -3 -67 -228 3c-3,61 -1,125 -1,185 0,194 -19,178 168,176 57,-1 79,-9 75,-71l-159 -3 -1 -75 121 -3 -4 -66 -116 -2 0 -74zm2845 1l147 -3 1 -62c-56,-20 -163,-4 -229,-7 -7,61 -14,307 8,345 26,30 95,20 146,19 56,0 93,-6 85,-70l-157 0 -3 -78 122 -2 -4 -68 -116 1 0 -75zm2056 10c14,30 32,100 40,137l-73 1 33 -138zm-59 205l118 3c13,31 13,44 30,74l78 -5c-5,-36 -102,-338 -117,-361l-93 3 -116 362 81 0 19 -76zm-6403 85l91 0c55,-18 101,6 104,-54 8,-163 0,-169 -140,-160 -21,77 16,61 60,77l-2 65c-115,15 -150,-45 -130,-159 23,-130 128,-56 182,-55 22,-28 21,-20 24,-62 -124,-42 -229,-45 -279,72 -32,73 -29,198 60,255 6,3 11,6 18,10l12 11zm548 -305c121,-64 124,193 64,230 -114,70 -130,-194 -64,-230zm-6 305l75 0c47,-32 59,-16 93,-69 22,-37 30,-90 27,-141 -14,-233 -309,-226 -314,9 -4,160 59,164 119,201zm5374 -311c50,1 89,-6 87,56 -2,54 -37,47 -88,48l1 -104zm120 147c29,-28 69,-56 49,-131 -26,-101 -172,-82 -255,-76l4 354c29,17 44,11 80,8l3 -133 49 5c22,35 33,92 57,130 31,2 55,-3 79,-12 -7,-41 -37,-96 -60,-132l-6 -13zm-2848 -147c61,62 63,265 -46,243 -53,-11 -54,-89 -52,-142 3,-79 18,-106 98,-101zm-68 311l76 0c45,-26 62,-20 93,-69 49,-79 52,-312 -132,-310 -194,2 -170,251 -126,313 30,44 47,41 89,66zm-1070 -215l-2 -94c133,-9 100,103 34,102 -7,0 -11,-1 -17,-2l-15 -6zm120 51c25,-23 47,-36 51,-82 16,-155 -160,-128 -257,-127l0 365 83 -1 1 -128c128,-17 36,189 187,116l-46 -112c-4,-6 -8,-12 -12,-18 -1,-1 -3,-3 -4,-6 0,-4 -2,-5 -3,-7zm2803 90l-79 0 -1 -232c78,-6 107,-1 119,71 12,76 -1,117 -39,161zm-164 63c178,27 293,6 293,-181 0,-202 -127,-182 -293,-181l0 362zm-2260 -250l111 248c34,11 58,8 100,3l-1 -366 -68 10c-26,65 -4,172 -10,250l-111 -252c-31,-10 -56,-6 -98,-4l0 365 79 -1 -2 -253zm-270 -2133l138 0 0 -748 -144 -4c-7,85 -11,709 6,752zm-1303 -628l189 2c19,87 -15,523 8,623l137 4c19,-75 4,-515 5,-626 117,-7 219,36 188,-121l-521 -3 -6 121zm-954 -12c123,2 206,-6 207,135 1,144 -79,142 -209,141l2 -276zm-140 639c45,4 101,7 137,-4l1 -247c115,5 197,7 281,-57 60,-46 93,-151 73,-257 -41,-213 -267,-202 -496,-182 -12,70 -13,706 4,747zm2967 -604l87 317 -182 -1 95 -316zm-317 599l127 9 57 -173 262 -1c24,120 52,221 197,160l-238 -739 -162 -2c-19,29 -246,708 -243,746zm4199 -598l16 36c18,62 73,241 75,280l-181 -1 90 -315zm-313 591c11,7 120,56 146,-29l36 -128 258 -1c2,3 4,3 4,7l12 27c19,60 35,202 185,124 -4,-64 -89,-288 -114,-369 -36,-114 -80,-264 -122,-368l-166 -1c-38,122 -80,240 -120,362 -21,64 -115,334 -119,376zm-5734 -596l93 319 -181 2 88 -321zm-320 595c38,24 90,19 135,14 13,-29 19,-51 28,-82 4,-13 8,-27 12,-42 3,-8 4,-14 7,-21l14 -25 256 -1c23,103 54,235 193,158 -3,-64 -89,-293 -114,-370 -41,-126 -80,-244 -119,-366l-170 -3 -242 738zm3407 -590l88 315 -183 1 95 -316zm-317 597c52,13 72,11 128,8l55 -171 263 -1c7,30 32,122 47,144 28,42 103,42 147,14 -2,-37 -221,-722 -240,-733 -47,-12 -108,-6 -161,-4 -28,66 -241,709 -239,743zm1890 -596l95 314 -182 1 87 -315zm-313 590c22,13 29,15 59,17 29,1 49,0 73,-8l52 -164 258 -3c24,43 26,105 51,144 27,42 97,41 149,14 -3,-42 -209,-671 -237,-736l-164 -3c-18,35 -236,697 -241,739zm-3282 -624c284,-55 244,195 151,224 -34,11 -114,12 -152,5l1 -229zm-136 -110c-21,46 -9,665 -8,744 54,4 92,12 145,-4l0 -281c171,-1 148,30 197,164 14,36 31,99 64,119 44,26 104,4 135,-26 -7,-28 0,-8 -18,-36 -69,-102 -25,-153 -141,-260 185,-74 195,-409 -105,-426 -63,-4 -214,-3 -269,6zm4318 108c225,1 279,25 281,262 1,227 -59,274 -283,263l2 -525zm-142 -104c-14,156 -8,532 -5,738 330,11 579,62 579,-390 0,-258 -117,-358 -343,-358 -70,0 -175,-13 -231,10zm-1605 740l139 4 33 -588c21,34 116,402 131,473l147 2c38,-76 93,-398 136,-474 8,97 10,197 15,291 3,51 5,103 9,154 8,122 -21,177 147,134l-58 -738c-62,-16 -129,-9 -192,-3l-130 487c-41,-166 -79,-332 -129,-488l-188 -3 -60 749zm1256 1727c71,14 184,14 256,0l-1 -1476c-61,-13 -194,-16 -255,1l0 1416 0 59zm932 -192c-2,-351 0,-702 -1,-1052 0,-85 10,-173 -45,-216 -26,-20 -205,-58 -214,6l1 520c0,224 -8,579 -1,793 3,75 42,129 110,141 104,19 395,4 518,4 193,0 330,26 322,-203l-690 7zm-2294 -114c-41,26 -102,97 -101,174 271,202 1015,272 1144,-143 111,-357 -225,-490 -464,-582 -113,-42 -301,-96 -344,-194 -63,-144 81,-257 257,-264 203,-8 370,91 440,99 33,-52 81,-84 82,-174 -77,-58 -297,-101 -418,-112 -294,-27 -638,104 -634,422 4,301 355,379 596,472 112,43 282,133 228,296 -67,198 -409,162 -597,90l-189 -84zm-1162 -241c8,-49 40,-122 58,-170 64,-175 124,-350 171,-532 29,23 56,138 68,177l180 528 -477 -3zm-437 545c83,15 153,17 240,5 42,-106 82,-266 130,-361l609 0c19,31 40,104 52,138 47,138 85,320 339,208 -12,-54 -44,-130 -64,-183l-476 -1282c-80,-13 -205,-11 -286,-1l-273 728c-39,102 -265,695 -271,748zm-1039 -1300c68,-13 332,-4 394,14 109,32 168,113 167,244 -1,132 -59,216 -174,247 -58,16 -326,27 -388,13l1 -518zm-254 1252l2 53c80,6 169,13 244,-2 19,-131 7,-430 8,-592 94,-16 281,-8 344,36 116,82 181,417 265,519 71,86 221,59 289,-14 -24,-49 -44,-22 -95,-143 -22,-52 -49,-117 -73,-173 -64,-151 -65,-200 -206,-284 196,-59 358,-244 288,-517 -70,-274 -336,-319 -607,-319 -57,0 -437,-6 -453,17l-6 1419zm-489 -740c78,-51 169,-81 208,-228 33,-125 -13,-257 -81,-327 -82,-83 -172,-114 -296,-133 -121,-17 -297,-7 -424,-5 -282,5 -230,-40 -230,202 0,203 -11,1224 8,1280 80,19 446,13 550,11 735,-10 672,-673 265,-800zm-9987 -1049c2,24 4,22 18,36l187 -76c-4,-33 -11,-45 -30,-58 -30,5 -61,30 -89,46 -25,15 -66,36 -86,52zm-5003 900c8,20 22,38 44,47 26,-9 81,-54 109,-72l108 64c90,-40 18,-72 -18,-111 -32,-35 -33,-42 -90,-42 -56,1 -56,12 -88,45 -19,20 -50,46 -65,69zm7675 725c-13,64 -42,57 -77,91 0,28 5,29 18,49 56,1 108,-53 128,-86 29,-49 39,-111 20,-175 -33,-11 -105,-25 -127,8 -8,13 -17,81 8,98l30 15zm-5313 0c-5,23 -17,43 -29,55 -18,18 -31,17 -50,36 0,26 8,35 18,49 94,2 203,-154 146,-261 -4,-3 -163,-59 -130,84 8,34 22,18 45,37zm4031 175c14,20 26,31 59,30 63,-70 72,-4 151,11 73,15 120,-35 135,-89 -1,-6 -36,-56 -70,-20 -7,7 -4,8 -16,14 -16,9 -27,5 -42,-1 -25,-10 -55,-29 -80,-36 -73,-18 -128,38 -137,91zm-7124 0c14,22 26,30 56,31l29 -30c64,-7 88,48 159,43 52,-4 95,-51 100,-97 -13,-14 -26,-27 -58,-27 -21,23 -32,41 -75,22 -20,-9 -57,-29 -80,-35 -68,-14 -122,39 -131,93zm3736 -1096l67 1 2 -623 -68 -3 -1 625zm799 -1l67 3 2 -625 -69 -2 0 624zm2081 1l68 1 2 -623 -69 -3 -1 625zm-1466 -568c34,11 126,4 167,4l2 563 68 3 1 -566c33,-1 133,6 155,-5 20,-9 21,-45 7,-53 -8,-5 -69,-2 -82,-2 -68,0 -264,-9 -317,3l-1 53zm2452 1474c38,11 85,10 123,1l0 -620c-36,-11 -82,-9 -121,-2l-2 621zm-7147 -620c-14,24 -6,608 -5,622 70,7 50,6 124,0 -8,-121 -2,-411 -1,-561 0,-42 12,-63 -27,-66 -28,-2 -70,-4 -91,5zm4809 1528c36,12 88,11 123,1l0 -621c-35,-6 -90,-9 -123,1l0 619zm-8149 2l-1 -622c-36,-8 -85,-6 -122,-1 0,84 -9,588 5,627l118 -4zm5173 -910c38,11 84,7 123,2l0 -621c-150,-20 -124,-13 -124,103 0,155 -6,375 1,516zm2437 -1017c-11,14 -24,26 -25,53 109,95 409,114 424,-90 15,-222 -319,-182 -327,-320 -3,-65 53,-102 110,-107 82,-7 115,28 176,41 10,-16 20,-29 21,-55 -89,-63 -264,-59 -331,12 -83,87 -62,201 70,262 79,37 266,89 197,210 -25,43 -89,61 -158,53 -76,-9 -110,-48 -157,-59zm1257 104c20,-14 21,-27 19,-53l-305 -1 1 -225c55,-2 204,7 244,-4l1 -54 -245 -2 0 -217 290 -1 1 -59 -355 -1c-15,61 -4,400 -4,488 0,134 -23,136 110,136 50,0 210,9 243,-7zm2201 -217c4,-43 83,-235 97,-319 11,11 2,-11 15,21l93 299 -205 -1zm-139 223l63 4 53 -165 249 0c53,105 23,191 123,161 6,-33 -205,-620 -208,-623l-73 -2c-20,45 -208,609 -207,625zm-1634 807l-250 -2c0,-107 0,-216 0,-324 0,-109 29,-233 -122,-197l-2 548c3,106 102,79 199,79 94,0 192,18 175,-104zm570 -1432c-166,46 -195,225 -181,381 34,371 539,358 485,-133 -16,-152 -122,-298 -304,-248zm-3593 918c-6,27 -5,64 1,93l156 2 0 519c38,10 83,9 123,1l-1 -519c113,-7 179,32 159,-103l-381 0c-25,-1 -38,-5 -57,7zm2791 -613l-1 -248c123,-1 247,-18 245,125 -1,137 -123,122 -244,123zm-71 -286c0,188 -4,425 2,607l65 2 3 -262c136,-15 165,1 204,104 50,132 50,187 138,148 -3,-27 -21,-42 -33,-71l-58 -147c-17,-34 -20,-34 -47,-54 65,-28 115,-73 114,-164 0,-124 -78,-183 -200,-182l-151 1c-23,0 -37,-4 -37,18zm1459 606c108,5 253,19 331,-36 74,-53 101,-154 101,-274 0,-299 -145,-338 -433,-312 -10,35 -9,597 1,622zm-3612 0l62 3c10,-62 3,-191 3,-259 0,-88 -7,-182 -4,-268 9,8 5,0 15,15l200 379c19,37 48,100 72,131l82 2 3 -626c-91,-14 -66,42 -66,234 0,101 6,205 5,304l-289 -538 -83 -1 0 624zm3675 -56c202,20 300,-21 295,-254 -2,-91 -9,-165 -60,-216 -54,-53 -142,-45 -233,-42l-2 512zm-4548 -563c-9,25 -53,593 -47,621l64 1 36 -547 148 449 65 0c37,-62 117,-405 151,-451l34 546 57 4c6,-10 6,-3 9,-18l-46 -608 -91 -2c-21,46 -132,394 -142,449 -15,-16 -68,-204 -75,-225 -22,-69 -46,-156 -73,-222 -33,-3 -59,-8 -86,1 -1,1 -3,2 -4,2zm-4237 1817c-24,-6 -85,-19 -106,-1 -29,24 -113,479 -143,511 -2,-5 -100,-396 -127,-472 -25,-70 -97,-53 -134,-30 1,29 88,323 103,375 18,61 34,127 55,188 11,35 23,48 67,52 34,3 77,3 108,-4 15,-25 176,-585 177,-619zm1527 -367c0,-34 -32,-68 -55,-80 -33,16 -53,37 -95,52 -148,53 -208,-68 -201,-225 4,-89 20,-184 94,-203 69,-18 123,17 139,78 8,30 3,39 9,57l6 10c168,46 142,-193 -47,-239 -169,-42 -274,55 -313,185 -44,147 -8,331 82,407 106,89 302,39 381,-42zm1841 -6c-8,-34 -31,-60 -54,-74 -21,7 -40,24 -63,36 -80,45 -168,40 -210,-44 -43,-86 -35,-278 24,-342 35,-37 111,-42 152,-4 70,64 -6,126 79,128 126,3 90,-169 -29,-226 -110,-54 -245,-22 -303,50 -126,154 -108,509 99,565 101,27 267,-25 305,-89zm3685 835c-32,8 -134,103 -228,45 -105,-64 -101,-392 25,-422 122,-30 135,80 144,144 195,40 130,-197 -40,-237 -368,-88 -408,441 -230,593 109,93 273,40 383,-44 -8,-37 -32,-61 -54,-79zm-3220 0c-50,29 -143,100 -225,43 -99,-68 -100,-390 30,-421 43,-10 86,4 111,33 36,43 22,99 36,112 152,64 162,-194 -53,-240 -270,-57 -356,217 -312,431 58,278 328,246 473,121 -7,-35 -36,-69 -60,-79zm2126 -835c-10,-35 -30,-58 -54,-73 -27,9 -58,36 -95,50 -41,15 -87,20 -123,0 -65,-36 -84,-120 -81,-218 8,-278 171,-220 205,-184 25,27 32,68 36,117 171,58 154,-188 -38,-236 -369,-92 -410,451 -231,594 133,105 346,8 381,-50zm2204 -1397c-119,26 -143,165 -136,297 7,127 61,256 204,226 115,-24 145,-162 137,-298 -7,-125 -62,-257 -205,-225zm-5912 1380l-285 0 1 -162c53,-2 174,6 215,-5 27,-146 -19,-81 -215,-97l-1 -154c267,-16 281,48 267,-102l-386 -2 -1 564c9,83 114,61 224,61 94,0 198,22 181,-103zm2780 -517c-7,155 -3,373 -2,534 0,112 77,86 212,86 109,0 202,26 195,-100l-286 -3 0 -162 199 -1c39,-8 16,-91 16,-91 -14,-18 -166,-6 -213,-9l-3 -156 260 0c13,-29 12,-67 7,-103l-385 5zm-1853 1002c14,-30 9,-60 7,-99l-388 3 1 568c14,75 122,55 232,55 93,0 192,16 172,-104l-284 1 1 -163 211 -1c13,-37 10,-62 2,-99l-214 -3 0 -152c71,-9 205,13 260,-6zm-1030 382c-22,23 -39,47 -42,87 88,80 371,116 440,-43 53,-123 -21,-211 -133,-259 -38,-16 -118,-44 -142,-69 -45,-46 -5,-103 58,-108 34,-3 67,4 93,11 28,8 59,24 83,27 22,-20 40,-47 40,-90 -91,-46 -227,-77 -328,-17 -104,60 -122,198 -35,272 84,71 239,79 250,162 9,70 -63,86 -127,80 -69,-7 -118,-49 -157,-53zm7483 -354c21,-21 42,-51 36,-91 -90,-56 -242,-66 -332,-12 -88,52 -122,193 -23,272 90,72 246,75 245,169 0,65 -72,76 -131,68 -30,-4 -58,-12 -82,-22 -26,-11 -44,-27 -69,-32 -23,22 -41,50 -44,89 94,84 384,116 444,-53 81,-230 -227,-262 -282,-319 -45,-48 4,-106 69,-108 79,-2 115,34 169,39zm-450 -24c12,-27 9,-66 7,-103l-388 3c-6,88 -1,197 -1,287 0,370 -49,336 234,336 97,0 187,16 172,-104l-284 1 0 -163 212 -1c13,-34 9,-65 2,-99l-214 -2 0 -155 260 0zm-7124 0c8,-36 11,-63 4,-101 -42,-5 -359,-6 -385,2 -7,54 -9,525 0,567 15,75 118,55 231,55 87,0 198,14 172,-104l-283 1 0 -163 212 -1c13,-33 10,-64 2,-100l-214 2 2 -158 259 0zm7146 -893c19,21 30,98 41,133 12,41 30,92 37,133l-154 1 76 -267zm-260 502c27,13 78,12 109,2l42 -136c72,-7 145,-3 217,-3 41,82 20,194 168,133l-197 -614c-43,-12 -93,-7 -138,-3 -18,23 -90,257 -107,309l-90 272c-7,21 -11,22 -4,40zm-5055 -502c11,14 73,233 79,266l-154 0 75 -266zm-265 500c34,12 75,12 115,6l41 -138 218 -3c38,82 24,195 167,134l-196 -615c-83,-11 -52,-7 -138,-4 -19,24 -90,256 -106,305l-101 315zm3749 440c5,-19 3,-20 14,-30l74 264 -152 1 64 -235zm-96 333l217 0c7,29 28,103 41,122 20,32 84,34 123,11 -3,-35 -80,-257 -97,-308 -32,-100 -66,-204 -99,-306 -41,-9 -105,-12 -140,1 -13,20 -203,593 -202,618 40,10 69,11 112,4l45 -142zm-7016 -366l74 268 -152 -2 78 -266zm-266 503c27,8 41,9 71,9 75,-2 31,-19 84,-146l218 2c38,84 21,188 165,133 4,-50 -174,-516 -195,-617 -43,-6 -130,-27 -150,19l-44 136c-26,77 -151,435 -149,464zm5252 -622c-14,25 -7,80 -7,111 0,252 -53,526 237,528 141,0 229,-75 240,-202 11,-134 -2,-296 1,-433 -38,-9 -86,-10 -124,0 2,119 1,241 0,360 0,65 2,111 -36,148 -29,29 -91,40 -137,17 -106,-54 -37,-346 -59,-478 -9,-54 -68,-66 -115,-51zm2642 836l52 0c44,-22 90,-26 97,-85 10,-80 -64,-87 -84,-97 7,-26 20,-18 53,-26 19,-4 39,-11 58,-19 39,-17 68,-37 94,-63 -4,-35 -34,-65 -55,-78 -54,22 -133,100 -223,47 -106,-62 -105,-393 21,-424 50,-12 90,5 113,30 28,31 27,66 32,113 157,52 146,-139 28,-209 -98,-59 -236,-52 -321,43 -96,107 -112,361 -2,498 31,39 72,57 139,72 -11,43 -32,67 14,73 2,1 50,-5 40,38 -8,34 -56,17 -86,13l-12 49c17,18 22,12 42,25zm-7130 0l55 0c23,-11 91,-20 99,-85 9,-74 -41,-78 -85,-97 10,-33 34,-12 110,-45 43,-19 68,-36 95,-63 -3,-34 -29,-66 -55,-78 -51,25 -141,99 -223,47 -60,-39 -77,-131 -73,-223 11,-275 177,-208 208,-172 22,26 28,67 32,114 80,26 130,-6 114,-92 -43,-235 -563,-246 -475,276 21,121 82,196 205,219 -6,25 -19,40 -10,69 29,10 75,-1 64,44 -8,35 -57,15 -86,12l-12 49 33 21c0,-1 2,2 4,4zm7904 -1145c3,-39 6,-237 -2,-265 -10,-39 -37,-51 -85,-51 -114,-1 -133,-13 -143,20 -6,19 -6,58 12,73 20,16 74,10 103,12l0 138c-34,18 -156,30 -213,-34 -61,-70 -83,-338 55,-389 88,-33 157,10 216,39 26,-12 53,-47 55,-90 -52,-26 -85,-50 -159,-59 -69,-9 -137,-1 -188,27 -90,48 -149,147 -152,286 -6,323 213,391 501,293zm-1848 -509c122,-36 166,81 171,186 5,105 -5,236 -99,261 -121,33 -164,-81 -169,-183 -5,-105 5,-236 97,-264zm-26 -93c-178,41 -216,222 -197,385 19,166 136,292 323,250 160,-37 219,-198 197,-386 -20,-165 -131,-294 -323,-249zm1030 94c125,-41 166,85 172,185 6,110 -8,233 -97,261 -121,37 -164,-80 -171,-183 -7,-111 7,-234 96,-263zm-23 -96c-161,35 -221,197 -199,390 19,165 135,288 326,246 303,-66 267,-722 -127,-636zm530 1289c-42,-352 239,-381 265,-124 31,319 -147,327 -218,254 -29,-29 -42,-82 -47,-130zm-129 -12c13,172 116,301 311,271 163,-25 228,-184 212,-374 -14,-172 -118,-298 -310,-268 -163,26 -228,182 -213,371zm-9015 -275c120,-26 156,89 161,197 4,105 -11,233 -105,253 -125,26 -160,-91 -164,-199 -4,-111 11,-230 108,-251zm287 287c59,-478 -477,-512 -520,-133 -22,194 36,355 197,389 199,43 302,-90 323,-256zm4591 0c-9,-95 -1,-239 76,-278 99,-49 175,24 188,151 34,332 -155,323 -216,259 -29,-30 -43,-80 -48,-132zm-128 0c16,166 128,296 322,257 158,-33 219,-192 199,-379 -18,-171 -128,-298 -318,-259 -162,32 -222,190 -203,381zm-2467 0c-7,53 -14,99 -47,133 -53,58 -252,81 -215,-265 25,-243 307,-223 262,132zm-394 -12c15,169 116,305 316,270 161,-28 226,-187 209,-369 -16,-172 -119,-305 -313,-272 -160,28 -228,184 -212,371zm1261 -1268l0 620c39,9 75,6 114,1 -1,-78 0,-156 0,-235 0,-78 -10,-163 -8,-237 4,5 5,4 9,12l215 460c54,6 92,6 145,-1l1 -625c-143,-26 -113,81 -113,192 0,99 10,200 8,295l-230 -485c-44,-6 -99,-7 -141,3zm3701 -1l0 623c40,5 74,5 114,-2 1,-77 0,-156 0,-234 0,-71 -11,-170 -6,-236 6,8 -1,-5 8,11l46 106c53,110 117,256 169,355 50,4 94,7 144,-3l2 -623c-139,-33 -114,78 -114,179 0,102 5,197 8,298 -8,-7 -4,0 -11,-11 -3,-4 -6,-13 -8,-17l-153 -331c-17,-37 -36,-83 -57,-117 -52,-5 -91,-5 -142,2zm-7534 1532c20,-65 -9,-402 -3,-479 6,8 185,411 226,478 48,5 99,6 143,-2 6,-66 8,-584 -3,-626 -143,-16 -109,78 -109,197 0,67 14,244 5,293 -10,-33 -38,-86 -53,-122 -33,-76 -153,-314 -169,-362 -43,-10 -104,-10 -146,1l1 623 108 -1zm7440 0c2,-81 0,-164 0,-245 0,-76 -9,-160 -7,-232 10,13 210,468 230,477 46,3 97,9 140,-5 0,-79 10,-592 -4,-619 -11,-12 -89,-17 -105,33 -12,41 2,390 4,445l-225 -478c-52,-5 -92,-8 -146,0l0 625 113 -1z"/>
 </g>
</svg>
