<?xml version="1.0" encoding="utf-8"?>
<!-- Generator: Adobe Illustrator 20.1.0, SVG Export Plug-In . SVG Version: 6.00 Build 0)  -->
<svg version="1.2" baseProfile="tiny" id="Camada_1"
	 xmlns="http://www.w3.org/2000/svg" xmlns:xlink="http://www.w3.org/1999/xlink" x="0px" y="0px" viewBox="0 0 3118.1 850.4"
	 overflow="scroll" xml:space="preserve">
<g>
	<g id="XMLID_44_">
		<g id="XMLID_83_">
			<g id="XMLID_85_">
				<path id="XMLID_111_" fill="#9D9D9C" d="M856.7,708.7c-12.9,0-14.8-8.5-6.6-20.1c8.2-11,23.3-20.1,35.3-20.1
					c6.9,0,9.8,1.9,11.3,5.4c-3.1,2.2-4.7,3.1-8.2,5c-1.3-2.5-3.1-4.1-8.2-4.1c-7.2,0-17.3,6.3-23,13.9c-6,8.2-4.7,13.9,3.8,13.9
					c3.8,0,8.2-1.3,12-2.8c2.2-2.8,3.1-4.4,5-7.2c-4.1,0-6.3,0-10.4,0c1.6-2.5,2.5-3.5,4.4-6c6.9,0,10.4,0,17,0
					c-4.4,6.6-6.9,9.8-11.3,16.4C871.8,705.8,864,708.7,856.7,708.7z"/>
				<path id="XMLID_109_" fill="#9D9D9C" d="M961.5,708.7c-12.6,0-15.7-9.1-8.8-20.1c6.9-11,21.4-20.1,33.4-20.1
					c12,0,15.1,9.1,8.8,20.1S974.1,708.7,961.5,708.7z M982.3,674.7c-7.9,0-17.3,6.3-22,13.9c-4.7,7.6-2.8,13.9,5.4,13.9
					c8.2,0,17.3-6.3,22-13.9C992.1,681,990.2,674.7,982.3,674.7z"/>
				<path id="XMLID_107_" fill="#9D9D9C" d="M1096.6,669.3c3.1,0,4.4,0,7.6,0c-12,13.2-23.9,26.1-35.9,39c-2.5,0-3.8,0-6.3,0
					c0.9-15.7,1.9-23.3,3.5-39c3.1,0,4.7,0,7.6,0c-1.3,12-1.9,17.9-3.1,29.9C1080.8,686.9,1086.2,681.3,1096.6,669.3z"/>
				<path id="XMLID_105_" fill="#9D9D9C" d="M1194.2,675.3c-9.1,0-13.5,0-22.3,0c-1.6,4.1-2.5,6-4.1,10.1c8.2,0,12,0,20.1,0
					c-0.9,2.5-1.3,3.8-2.2,6c-8.2,0-12.3,0-20.1,0c-1.6,4.1-2.5,6.3-4.1,10.4c9.4,0,14.2,0,23.3,0c-0.9,2.5-1.3,3.8-2.2,6
					c-12.3,0-18.6,0-30.8,0c6.3-15.4,9.8-23.3,16.1-38.7c11.6,0,17.6,0,29.3,0C1195.4,671.5,1195.1,672.8,1194.2,675.3z"/>
				<path id="XMLID_104_" fill="#9D9D9C" d="M1275.4,708c-2.5-5.4-3.8-8.2-6-13.5c-3.5,0-5.4,0-8.8,0c-1.6,5.4-2.5,8.2-4.1,13.5
					c-2.8,0-4.4,0-7.2,0c4.7-15.4,7.2-23.3,12.3-38.7c6.9,0,10.7,0,17.6,0c9.1,0,13.2,4.7,11.3,12.3c-1.9,6.3-6.9,10.4-12.9,11.6
					c2.5,6,4.1,8.8,6.9,14.8C1280.7,708,1278.8,708,1275.4,708z M1276.6,675.3c-4.1,0-6,0-10.1,0c-1.6,5.4-2.5,7.9-4.1,12.9
					c4.1,0,6.3,0,10.4,0c5,0,9.1-2.5,10.1-6.6C1284.2,677.5,1281.7,675.3,1276.6,675.3z"/>
				<path id="XMLID_102_" fill="#9D9D9C" d="M1385.9,669.3c2.8,0,4.1,0,6.9,0c-2.8,15.4-4.1,23.3-6.6,38.7c-2.5,0-3.8,0-6,0
					c-6.9-11-10.4-16.7-17-27.7c-2.2,11-3.5,16.7-5.7,27.7c-2.8,0-4.4,0-7.2,0c3.1-15.4,5-23.3,8.2-38.7c2.5,0,3.8,0,6.3,0
					c6.3,10.7,9.4,16.1,16.4,26.8C1383,685.4,1384,680,1385.9,669.3z"/>
				<path id="XMLID_100_" fill="#9D9D9C" d="M1475,708.7c-12.6,0-20.5-9.1-19.2-20.1s10.7-20.1,22.7-20.1c12,0,20.1,9.1,19.2,20.1
					C1497,699.5,1487.5,708.7,1475,708.7z M1477.5,674.7c-7.9,0-13.9,6.3-14.8,13.9c-0.6,7.6,4.4,13.9,12.6,13.9s14.2-6.3,14.8-13.9
					C1490.7,681,1485.3,674.7,1477.5,674.7z"/>
				<path id="XMLID_98_" fill="#9D9D9C" d="M1666.7,675.3c-9.1,0-13.5,0-22.7,0c0.3,4.1,0.6,6.3,0.9,10.7c8.2,0,12.3,0,20.1,0
					c0.3,2.5,0.3,3.8,0.6,6.3c-8.2,0-12.3,0-20.5,0c0.6,6.3,0.9,9.4,1.6,15.7c-2.8,0-4.4,0-7.2,0c-1.3-15.4-2.2-23.3-3.5-38.7
					c11.6,0,17.6,0,29.3,0C1666.3,671.8,1666.7,672.8,1666.7,675.3z"/>
				<path id="XMLID_96_" fill="#9D9D9C" d="M1760.5,675.3c-9.1,0-13.5,0-22.3,0c0.9,4.1,1.3,6,1.9,10.1c8.2,0,12,0,20.1,0
					c0.6,2.5,0.9,3.8,1.3,6c-8.2,0-12.3,0-20.1,0c0.9,4.1,1.3,6.3,1.9,10.4c9.4,0,14.2,0,23.3,0c0.6,2.5,0.9,3.8,1.3,6
					c-12.3,0-18.6,0-30.8,0c-2.8-15.4-4.4-23.3-7.2-38.7c11.6,0,17.6,0,29.3,0C1759.8,671.5,1760.1,672.8,1760.5,675.3z"/>
				<path id="XMLID_95_" fill="#9D9D9C" d="M1850.5,708c-6,0-9.1,0-15.4,0c-4.4-15.4-6.6-23.3-11.3-38.7c6,0,8.8,0,14.8,0
					c12.3,0,23.6,8.5,27.4,19.2C1869.7,699.5,1863.4,708,1850.5,708z M1840.7,675.3c-3.1,0-4.7,0-7.9,0c3.1,10.4,4.7,15.7,7.9,26.4
					c3.1,0,4.7,0,8.2,0c8.5,0,12.3-5.4,10.1-13.2C1856.2,681,1848.9,675.3,1840.7,675.3z"/>
				<path id="XMLID_93_" fill="#9D9D9C" d="M1956.3,675.3c-9.1,0-13.5,0-22.3,0c1.6,4.1,2.5,6,4.1,10.1c8.2,0,12,0,20.1,0
					c0.9,2.5,1.6,3.8,2.5,6c-8.2,0-12.3,0-20.1,0c1.6,4.1,2.5,6.3,4.1,10.4c9.4,0,14.2,0,23.3,0c0.9,2.5,1.6,3.8,2.5,6
					c-12.3,0-18.6,0-30.8,0c-6.3-15.4-9.1-23.3-15.4-38.7c11.6,0,17.6,0,29.3,0C1954.7,671.5,1955.3,672.8,1956.3,675.3z"/>
				<path id="XMLID_91_" fill="#9D9D9C" d="M2064.2,708c-6.9-5.4-10.4-8.2-17-13.5c-3.5,0-5.4,0-8.8,0c2.8,5.4,4.1,8.2,6.9,13.5
					c-2.8,0-4.4,0-7.2,0c-7.9-15.4-11.6-23.3-19.2-38.7c6.9,0,10.7,0,17.6,0c9.1,0,17,4.7,21.1,12.3c3.5,6.3,1.6,10.4-3.5,11.6
					c7.6,6,11.3,8.8,18.9,14.8C2069.3,708,2067.7,708,2064.2,708z M2038.7,675.3c-4.1,0-6,0-10.1,0c2.5,5.4,4.1,7.9,6.6,12.9
					c4.1,0,6.3,0,10.4,0c5,0,6.9-2.5,4.7-6.6C2048.2,677.5,2043.8,675.3,2038.7,675.3z"/>
				<path id="XMLID_89_" fill="#9D9D9C" d="M2178.2,708c-3.1,0-4.7,0-7.6,0c-4.1-3.8-6-5.7-10.1-9.4c-7.6,0-11.6,0-19.2,0
					c0.6,3.8,0.9,5.7,1.6,9.4c-2.8,0-4.4,0-7.2,0c-2.2-15.7-3.5-23.3-6-39c2.5,0,3.8,0,6.3,0C2149.9,681.9,2164,695.1,2178.2,708z
					 M2137.6,677.2c1.3,6.3,1.6,9.4,2.8,15.4c5.7,0,8.5,0,13.9,0C2147.3,686.3,2144.2,683.2,2137.6,677.2z"/>
				<path id="XMLID_87_" fill="#9D9D9C" d="M2216.6,669.3c2.8,0,4.1,0,6.9,0c9.4,12.9,14.2,19.5,23.3,32.4c8.5,0,12.9,0,21.4,0
					c1.9,2.5,2.8,3.8,4.7,6.3c-11.6,0-17.3,0-29,0C2233,692.6,2227.3,684.7,2216.6,669.3z"/>
			</g>
		</g>
		<g id="XMLID_78_">
			<polygon id="XMLID_82_" fill="#9D9D9C" points="1995.3,425 2075.9,569.8 2200.8,569.8 2252.2,643.8 2020.8,643.8 1920.1,425 			
				"/>
			<path id="XMLID_80_" fill="#9D9D9C" d="M1906.5,425h-75.2l6.6,19.5c-7.9-3.8-15.7-7.2-24.2-10.1c-8.2-2.8-16.7-5-25.5-6.9
				s-17.9-3.1-27.4-4.1c-9.4-0.9-19.5-1.3-29.9-1.3c-5.4,0-10.4,0.3-15.4,0.6c-16.1,31.5-40,58.2-69.6,77.4
				c1.9,4.1,4.1,7.9,7.2,11.6c6.3,7.9,15.1,14.2,25.8,19.5c10.7,5.4,23,9.4,36.5,13.2c13.5,3.5,28.3,6.6,43.4,9.1
				c7.2,1.3,13.2,2.5,18.3,3.5c5,1.3,9.1,2.2,12,3.5c3.1,1.3,5.4,2.5,6.9,4.1c1.6,1.6,2.5,3.1,3.1,5c0.3,1.6,0.3,3.1-0.3,4.4
				c-0.6,1.3-1.6,2.5-3.1,3.1c-1.6,0.9-3.8,1.6-6.6,1.9c-2.8,0.3-6.3,0.6-10.4,0.6c-7.9,0-16.1-0.6-24.2-1.6s-16.7-2.8-24.9-5
				c-8.2-2.2-16.7-5-24.9-8.8c-8.2-3.5-16.1-7.6-23.9-12.6l-24.9,30.5l-37.8-67.4c-23.6,10.7-49.7,16.7-77.1,17l7.2,17.6h-47.5
				l9.4-19.5c-25.2-3.5-49.1-11.6-70.2-23.6l-59.8,94.1l-24.2-43.8c8.8-3.5,16.7-7.6,23.9-12c7.2-4.4,13.5-9.8,18.9-15.4
				c5.4-5.7,9.8-11.6,13.2-18.3c2.8-5.7,5-12,6.3-18.6c-23.3-17.3-42.8-39.7-56.7-65.5c-2.2-0.3-4.4-0.6-6.9-0.9
				c-7.9-0.9-17-1.3-26.8-1.3h-109.9l-13.9,32.1c0-1.6,0-3.5,0-5c-0.3-1.6-0.6-3.1-0.9-4.4c-0.3-1.3-0.9-2.5-1.6-3.8
				c-0.6-1.3-1.6-2.2-2.2-3.5c-2.2-2.5-5-5-8.2-6.9c-3.5-1.9-7.2-3.5-12-5c-4.7-1.3-10.1-2.2-16.1-2.8c-6-0.6-12.9-0.9-20.8-0.9
				h-125.9L865.8,643.5h159.6c12.3,0,23.9-0.9,35.3-2.8c11-1.9,21.4-4.4,31.2-7.6c9.8-3.1,18.6-7.2,26.8-11.6
				c7.9-4.4,15.1-9.4,21.7-15.1l-16.1,37.1h96.3l24.9-74h18.9l30.8,74h58.9h50.7h51.9l17.9-36.2h97l15.7,36.2h104.5l-8.8-15.4
				c7.9,3.5,16.4,6.3,24.9,8.8c8.5,2.5,17.6,4.7,26.8,6.6s18.6,3.1,28,4.1c9.4,0.9,19.2,1.3,29,1.3c14.5,0,27.4-1.3,39-3.8
				c11.6-2.5,21.7-6,30.2-10.4s15.4-10.1,20.5-16.4s8.5-13.2,10.1-21.1l16.1,46h96.3L1906.5,425z M1083,559.8l-0.3,0.6
				c-1.3,2.5-3.1,4.7-5.4,6.9s-5,4.1-8.5,5.7c-3.1,1.6-6.9,2.8-11,3.8c-4.1,0.9-8.8,1.3-13.5,1.3h-45l20.8-34.9h43.8
				c4.7,0,8.5,0.3,11.6,1.3c3.1,0.9,5.4,1.9,6.9,3.5c1.6,1.6,2.5,3.1,2.5,5.4C1084.9,554.7,1084.3,557.2,1083,559.8z M1115.8,484.2
				l-0.3,0.6c-1.3,2.2-2.8,4.1-4.7,6c-1.9,1.6-4.4,3.1-7.2,4.4c-2.8,1.3-6,2.2-9.4,2.8c-3.5,0.6-7.6,0.9-12,0.9h-35.9l16.7-27.7
				h34.3c4.4,0,7.9,0.3,10.7,0.9c2.8,0.6,5,1.6,6.6,2.5c1.6,1.3,2.5,2.5,2.5,4.1C1117.4,480.1,1116.7,482,1115.8,484.2z
				 M1169.6,538.7c-1.3-2.8-2.8-5.4-4.7-7.6c-1.9-2.2-4.4-4.4-7.2-6.3c-2.8-1.9-6-3.5-9.4-5c-3.5-1.6-7.2-2.8-11.3-3.8
				c6-1.6,12-3.5,17.6-5.7c5.7-2.2,10.7-4.7,15.7-7.6c4.7-2.8,9.1-6,13.2-9.1c4.1-3.5,7.6-6.9,10.7-11L1169.6,538.7z M1337.1,494.9
				v0.6c-0.9,3.1-2.2,6-4.4,8.5c-2.2,2.5-4.7,4.7-7.9,6.3c-3.1,1.9-6.9,3.1-11.3,4.1c-4.1,0.9-8.8,1.3-13.9,1.3h-36.2L1277,476h34.9
				c4.7,0,8.8,0.3,12.3,1.3c3.5,0.6,6.3,1.9,8.8,3.5c2.2,1.6,3.8,3.5,4.7,6C1338,488.9,1338,491.8,1337.1,494.9z M1847.3,515.4
				c-7.6-4.1-16.1-7.9-25.5-11c-9.1-3.1-19.2-5.7-29.9-7.9c-10.7-2.2-22-4.1-33.7-6c-6.6-0.9-12.3-1.9-16.7-2.8
				c-4.4-0.9-7.9-1.9-10.4-2.8c-2.5-0.9-4.4-2.2-5.7-3.1c-1.3-1.3-1.9-2.2-2.2-3.8v-0.6c-0.3-1.3,0-2.2,0.3-3.1
				c0.6-0.9,1.3-1.9,2.8-2.5c1.3-0.6,2.8-1.3,5-1.6c2.2-0.3,4.7-0.6,7.6-0.6c5.7,0,11.3,0.3,17.6,0.9c6.3,0.6,12.6,1.9,19.2,3.5
				c6.6,1.6,13.2,3.5,20.1,6s13.5,5.4,20.5,8.8l23.3-40.3l28.3,81.8C1862.1,524.5,1855.2,519.8,1847.3,515.4z"/>
		</g>
		<path id="XMLID_77_" fill="#9D9D9C" d="M1556.5,278.7c-103.6-35.6-198.6-32.7-212.2,6.3c-3.1,8.8-1.6,18.6,3.5,29
			c0.3-1.9,0.3-4.1,0.6-6c-2.2-7.2-2.5-13.9-0.3-20.1c12.9-37.5,105.5-39.7,206.8-5c101.4,34.6,172.8,93.5,159.9,131.3
			c-2.2,6.3-6.6,11.3-12.6,15.7c-0.9,1.9-2.2,3.5-3.1,5.4c10.4-5,17.6-12,20.5-20.8C1733.4,375,1660.4,314.2,1556.5,278.7z"/>
		<g id="XMLID_50_">
			<path id="XMLID_75_" fill="#9D9D9C" d="M1374.2,237.7c0.9-1.9,2.5-3.5,3.8-4.7c1.6-1.6,3.1-2.8,4.7-4.1c1.9-1.3,3.5-1.9,5.4-2.5
				c1.9-0.6,3.5-0.6,4.7-0.6c1.3,0.3,2.2,0.6,2.8,1.6c0.6,0.9,0.9,1.9,0.9,3.5c0,1.3-0.3,3.1-0.9,4.7c-0.6,1.9-1.6,3.5-2.5,5.4
				c-0.9,1.6-2.5,3.5-3.8,4.7c-1.6,1.6-3.1,2.8-4.7,3.8c-1.9,1.3-3.5,1.9-5.4,2.5c-1.9,0.6-3.5,0.6-4.7,0.6
				c-1.3-0.3-2.2-0.6-2.8-1.6c-0.6-0.9-0.9-1.9-0.9-3.5c0-1.3,0.3-2.8,0.9-4.7C1372.3,241.2,1373,239.3,1374.2,237.7z M1376.4,244.4
				c0,0.9,0,1.6,0.3,2.2s0.6,0.9,1.6,1.3c0.6,0.3,1.6,0,2.8-0.3s2.5-0.9,3.5-1.6c0.9-0.6,1.9-1.6,2.8-2.5s1.6-1.9,2.2-3.1
				c0.6-0.9,0.9-2.2,1.3-3.1c0.3-0.9,0.6-2.2,0.6-3.1s0-1.6-0.3-2.2s-0.6-0.9-1.6-1.3c-0.6-0.3-1.6,0-2.8,0.3
				c-1.3,0.3-2.5,0.9-3.5,1.6c-0.9,0.6-1.9,1.6-2.8,2.5s-1.6,1.9-2.2,3.1c-0.6,0.9-0.9,2.2-1.6,3.1
				C1376.7,242.5,1376.4,243.4,1376.4,244.4z"/>
			<path id="XMLID_73_" fill="#9D9D9C" d="M1416.7,221.7c1.3,0,2.2,0,2.8,0.3c0.9,0.3,1.6,0.6,1.9,1.3s0.6,1.3,0.6,1.9
				c0,0.6,0,1.6-0.3,2.5c-0.6,1.6-1.3,2.8-2.2,3.8c-0.9,1.3-2.2,1.9-4.1,2.8l0,0c0.6,0,1.3,0.3,1.6,0.6c0.3,0.3,0.6,0.6,0.6,1.3
				s0,0.9,0,1.6s-0.3,1.3-0.3,1.9c0,0.3-0.3,0.9-0.3,1.3c-0.3,0.6-0.3,0.9-0.3,1.6s-0.3,0.9-0.3,1.6s0,0.9,0.3,1.3l-5.7,0.6
				c0-0.6,0-1.6,0.3-2.8c0.3-0.9,0.6-2.2,0.6-3.1c0.3-1.3,0.3-2.2-0.3-2.8c-0.3-0.6-1.3-0.6-2.8-0.6l-5.7,0.6l-3.5,9.8l-5.7,0.6
				l8.5-24.6L1416.7,221.7z M1410.7,233c1.3,0,2.5-0.6,3.1-1.3c0.9-0.6,1.6-1.6,1.9-2.8c0.3-1.3,0.3-1.9,0-2.5
				c-0.3-0.6-1.3-0.6-2.5-0.6l-6.3,0.6l-2.5,6.9L1410.7,233z"/>
			<path id="XMLID_71_" fill="#9D9D9C" d="M1438.8,220.7c1.6,0,3.1,0.3,4.4,0.9s2.2,1.3,2.8,2.2s1.3,2.2,1.3,3.8s-0.3,3.5-0.9,5.4
				c-0.6,1.9-1.6,3.5-2.5,5s-2.2,2.8-3.5,3.8s-2.8,1.9-4.7,2.5c-1.6,0.6-3.5,0.9-5.7,0.9h-11.3l8.5-24.6H1438.8z M1431.2,240.9
				c0.9,0,1.6,0,2.5-0.3c0.9-0.3,1.6-0.6,2.5-1.3s1.6-1.3,2.2-2.2c0.6-0.9,1.3-2.2,1.9-3.5c0.3-1.3,0.6-2.5,0.6-3.5s0-1.9-0.3-2.5
				s-0.9-1.3-1.9-1.6c-0.9-0.3-1.9-0.6-3.5-0.6h-4.1l-5.4,15.4L1431.2,240.9z"/>
			<path id="XMLID_70_" fill="#9D9D9C" d="M1472.4,222.9l-1.6,4.4l-13.9-1.3l-1.9,5.4l12.6,1.3l-1.6,4.1l-12.6-1.3l-2.2,6l13.9,1.3
				l-1.6,4.4l-19.8-1.9l8.5-24.6L1472.4,222.9z"/>
			<path id="XMLID_68_" fill="#9D9D9C" d="M1483.5,224.5l0.3,17.9l0,0l11.6-16.1l7.9,1.3l-8.5,24.6l-5.4-0.9l6-17.6l0,0l-12.3,16.4
				l-4.4-0.6l-0.3-18.3l0,0l-6,17.3l-5.4-0.9l8.5-24.6L1483.5,224.5z"/>
			<path id="XMLID_66_" fill="#9D9D9C" d="M1534.4,235.5l-1.6,4.4l-13.2-3.5l-1.9,5.4l12.3,3.1l-1.6,4.1l-12.3-3.1l-2.2,6l13.5,3.5
				l-1.6,4.4l-19.2-4.7l8.5-24.6L1534.4,235.5z"/>
			<path id="XMLID_64_" fill="#9D9D9C" d="M1557.1,242.1c1.6,0.6,2.8,1.3,3.8,1.9c0.9,0.9,1.6,1.6,2.2,2.5c0.3,0.9,0.6,1.9,0.6,3.1
				c0,0.9-0.3,2.2-0.6,3.1s-0.9,1.9-1.6,2.8c-0.6,0.9-1.6,1.6-2.5,2.2c-0.9,0.6-1.9,0.9-3.1,0.9s-2.5,0-4.1-0.6l-5.7-1.9l-3.1,8.8
				l-5.4-1.6l8.5-24.6L1557.1,242.1z M1551.8,253.5c0.6,0.3,1.3,0.3,1.9,0.3c0.6,0,1.3,0,1.6,0c0.6,0,0.9-0.3,1.6-0.6
				c0.3-0.3,0.6-0.9,0.9-1.9c0.3-0.6,0.3-1.6,0.3-1.9c0-0.6-0.3-0.9-0.6-1.6c-0.3-0.3-0.9-0.6-1.3-0.9c-0.6-0.3-1.3-0.6-1.9-0.6
				l-4.1-1.3l-2.5,7.2L1551.8,253.5z"/>
			<path id="XMLID_62_" fill="#9D9D9C" d="M1580.7,250.3c0.9,0.3,1.9,0.9,2.8,1.6c0.6,0.6,1.3,1.6,1.9,2.2c0.3,0.9,0.6,1.9,0.6,2.8
				c0,0.9,0,1.9-0.3,2.8c-0.6,1.6-1.3,2.5-2.2,3.5s-2.2,1.3-3.8,1.3l0,0c0.6,0.3,0.9,0.9,1.3,1.6c0.3,0.6,0.6,1.3,0.6,1.9
				c0,0.6,0,1.3,0,1.9c0,0.6-0.3,1.3-0.3,1.9c0,0.3-0.3,0.9-0.3,1.3c-0.3,0.6-0.3,0.9-0.3,1.6c0,0.6-0.3,1.3-0.3,1.6
				c0,0.6,0,0.9,0,1.6l-5.4-1.9c0-0.9,0-1.9,0.3-3.1s0.6-2.2,0.6-3.1c0.3-1.3,0.3-2.5-0.3-3.1c-0.3-0.9-1.3-1.6-2.5-1.9l-5.4-1.9
				l-3.5,9.8l-5.4-1.9l8.5-24.6L1580.7,250.3z M1574.7,260.7c1.3,0.3,2.2,0.6,3.1,0.3c0.9-0.3,1.6-1.3,1.9-2.2
				c0.3-1.3,0.3-2.2,0-2.8c-0.3-0.6-1.3-1.3-2.5-1.9l-6-2.2l-2.5,6.9L1574.7,260.7z"/>
			<path id="XMLID_61_" fill="#9D9D9C" d="M1587.6,261c0.9-1.3,2.2-2.5,3.8-3.1c1.3-0.6,2.8-1.3,4.7-1.3c1.6,0,3.5,0.3,5.4,0.9
				c1.9,0.6,3.5,1.9,4.7,3.1s2.2,2.8,2.8,4.4c0.6,1.6,0.9,3.1,0.9,5s-0.3,3.8-0.9,5.4c-0.6,1.9-1.6,3.5-2.5,4.7s-2.2,2.2-3.8,3.1
				c-1.3,0.6-2.8,1.3-4.7,1.3c-1.6,0-3.5-0.3-5.4-1.3c-1.9-0.6-3.5-1.9-4.7-3.1c-1.3-1.3-2.2-2.8-2.8-4.4c-0.6-1.6-0.9-3.1-0.9-5
				s0.3-3.5,0.9-5.4C1585.4,264.2,1586.4,262.6,1587.6,261z M1589.5,271.4c0,0.9,0,2.2,0.3,3.1s0.6,1.9,1.3,2.8
				c0.6,0.9,1.6,1.6,2.8,1.9c1.3,0.6,2.2,0.6,3.1,0.6s1.9-0.3,2.5-0.9c0.6-0.6,1.6-1.3,1.9-2.2c0.6-0.9,0.9-1.9,1.3-2.8
				c0.3-0.9,0.6-2.2,0.6-3.1c0-1.3,0-2.2-0.3-3.1s-0.6-1.9-1.3-2.8c-0.6-0.9-1.6-1.6-2.8-1.9c-1.3-0.6-2.2-0.6-3.1-0.6
				c-0.9,0-1.9,0.3-2.5,0.9c-0.9,0.6-1.6,1.3-2.2,2.2c-0.6,0.9-0.9,1.9-1.6,3.1C1589.8,269.2,1589.5,270.2,1589.5,271.4z"/>
			<path id="XMLID_59_" fill="#9D9D9C" d="M1620.7,296c-1.3,0-2.5-0.3-3.8-0.9c-1.9-0.9-3.1-1.9-4.4-3.5c-1.3-1.3-2.2-2.8-2.8-4.4
				c-0.6-1.6-0.9-3.5-0.9-5c0-1.9,0.3-3.5,0.9-5.4c0.6-1.9,1.6-3.5,2.5-4.7s2.2-2.2,3.8-3.1c1.3-0.6,2.8-0.9,4.7-0.9
				c1.6,0,3.5,0.6,5,1.3c1.3,0.6,2.2,1.3,3.1,2.2c0.9,0.9,1.9,1.9,2.5,3.1c0.6,1.3,0.9,2.5,1.3,3.8s0,2.8-0.3,4.4l-5-2.5
				c0.3-1.6,0-2.8-0.6-4.1c-0.6-1.3-1.6-1.9-2.8-2.5c-1.3-0.6-2.2-0.9-3.1-0.6c-0.9,0-1.9,0.3-2.5,0.9c-0.6,0.6-1.6,1.3-1.9,2.2
				c-0.6,0.9-0.9,1.9-1.6,2.8c-0.3,0.9-0.6,2.2-0.6,3.1s0,2.2,0.3,3.1s0.6,1.9,1.3,2.8c0.6,0.9,1.6,1.6,2.8,2.2
				c1.6,0.9,3.1,0.9,4.4,0.6c1.3-0.3,2.2-1.6,2.8-3.1l-5-2.5l1.3-4.1l9.8,4.7l-4.7,13.2l-3.1-1.6l0.3-3.1
				C1623.2,295.7,1622,296,1620.7,296z"/>
			<path id="XMLID_57_" fill="#9D9D9C" d="M1650.6,283.1c0.9,0.6,1.9,1.3,2.5,2.2c0.6,0.9,1.3,1.6,1.6,2.5c0.3,0.9,0.6,1.9,0.6,2.8
				c0,0.9,0,1.9-0.3,2.8c-0.6,1.6-1.3,2.5-2.2,3.1c-0.9,0.6-2.2,0.9-3.5,0.9l0,0c0.6,0.6,0.9,0.9,1.3,1.6c0.3,0.6,0.3,1.3,0.6,1.9
				c0,0.6,0,1.3,0,1.9c0,0.6-0.3,1.3-0.3,1.9c0,0.3-0.3,0.9-0.3,1.6c-0.3,0.6-0.3,1.3-0.3,1.6c0,0.6-0.3,1.3-0.3,1.6
				c0,0.6,0,0.9,0,1.6l-5-2.8c0-0.9,0-1.9,0.3-3.1s0.6-2.2,0.6-3.1c0.3-1.3,0.3-2.5,0-3.5s-1.3-1.6-2.5-2.5l-5-2.8l-3.5,9.8l-5-2.8
				l8.5-24.6L1650.6,283.1z M1644.9,293.1c1.3,0.6,2.2,0.9,2.8,0.6c0.6-0.3,1.3-0.9,1.9-2.2c0.3-1.3,0.3-2.2,0-3.1s-1.3-1.6-2.2-2.2
				l-5.4-3.1l-2.5,6.9L1644.9,293.1z"/>
			<path id="XMLID_56_" fill="#9D9D9C" d="M1675.8,298.8l-1.6,4.4l-11.6-7.6l-1.9,5.4l10.7,6.9l-1.6,4.1l-10.7-6.9l-2.2,6l11.6,7.6
				l-1.6,4.4l-16.7-10.7l8.5-24.6L1675.8,298.8z"/>
			<path id="XMLID_54_" fill="#9D9D9C" d="M1675.2,321.8c0,0.6,0.3,1.6,0.6,2.2c0.3,0.6,0.6,1.3,1.3,1.9c0.6,0.6,0.9,1.3,1.6,1.6
				c0.3,0.3,0.9,0.6,1.3,0.9c0.6,0.3,0.9,0.3,1.6,0.6c0.6,0,0.9,0,1.3-0.3c0.3-0.3,0.6-0.6,0.9-1.3c0.3-0.6,0.3-1.3,0-1.9
				c-0.3-0.6-0.6-1.3-0.9-2.2c-0.6-0.6-0.9-1.6-1.6-2.2c-0.6-0.6-1.3-1.6-1.9-2.5c-0.6-0.9-1.3-1.6-1.9-2.5s-1.3-1.9-1.6-2.8
				c-0.3-0.9-0.6-1.9-0.6-3.1c0-0.9,0-2.2,0.3-3.1c0.3-1.3,0.9-2.2,1.9-2.8c0.6-0.6,1.6-0.9,2.5-0.9s1.9,0,2.8,0.6
				c0.9,0.3,1.9,0.9,2.8,1.6c0.9,0.9,2.2,1.9,2.8,2.8c0.9,0.9,1.6,2.2,2.2,3.5c0.6,1.3,0.9,2.5,0.9,3.8s0,2.8-0.6,4.1l-4.4-3.5
				c0.3-0.6,0.3-1.6,0.3-2.2c0-0.6-0.3-1.3-0.6-1.9c-0.3-0.6-0.6-0.9-0.9-1.6c-0.3-0.6-0.9-0.9-1.6-1.3c-0.3-0.3-0.6-0.6-1.3-0.6
				c-0.3-0.3-0.9-0.3-1.3-0.3c-0.3,0-0.6,0-0.9,0.3c-0.3,0.3-0.6,0.6-0.6,0.9c-0.3,0.6-0.3,0.9-0.3,1.3c0,0.3,0.3,0.9,0.6,1.6
				c0.3,0.6,0.9,1.3,1.6,2.2c0.6,0.9,1.6,1.9,2.8,3.5c0.3,0.3,0.9,0.9,1.6,1.9c0.6,0.6,1.3,1.6,1.6,2.8c0.6,0.9,0.9,2.2,0.9,3.5
				c0.3,1.3,0,2.5-0.3,4.1c-0.3,1.3-0.9,1.9-1.6,2.8c-0.6,0.6-1.6,1.3-2.5,1.3s-2.2,0-3.1-0.3c-1.3-0.3-2.5-1.3-3.8-2.2
				c-1.3-0.9-2.2-1.9-3.1-3.1s-1.6-2.5-2.2-3.8c-0.6-1.3-0.9-2.8-0.9-4.1c0-1.6,0-2.8,0.6-4.4l4.4,3.5
				C1675.2,320.2,1675.2,320.8,1675.2,321.8z"/>
			<path id="XMLID_52_" fill="#9D9D9C" d="M1693.4,336.6c0,0.9,0.3,1.6,0.3,2.2c0.3,0.6,0.6,1.3,0.9,2.2c0.3,0.6,0.9,1.3,1.6,1.9
				c0.3,0.3,0.6,0.6,1.3,0.9c0.3,0.3,0.9,0.6,1.3,0.6s0.9,0,1.3,0c0.3-0.3,0.6-0.6,0.9-1.3c0.3-0.6,0.3-1.3,0-2.2
				c-0.3-0.6-0.6-1.6-0.9-2.2c-0.3-0.6-0.9-1.6-1.6-2.5s-1.3-1.6-1.9-2.5c-0.6-0.9-1.3-1.9-1.9-2.8c-0.6-0.9-0.9-1.9-1.3-3.1
				c-0.3-0.9-0.6-2.2-0.6-3.1c0-1.3,0-2.2,0.6-3.5c0.3-1.3,0.9-2.2,1.9-2.8c0.6-0.6,1.6-0.9,2.5-0.6c0.9,0,1.9,0.3,2.8,0.6
				c0.9,0.6,1.9,1.3,2.8,1.9c0.9,0.9,1.9,1.9,2.8,3.1c0.9,1.3,1.6,2.5,1.9,3.8c0.6,1.3,0.6,2.5,0.9,4.1c0,1.3,0,2.8-0.6,4.1
				l-4.1-3.8c0.3-0.6,0.3-1.6,0.3-2.2s-0.3-1.3-0.3-1.9c-0.3-0.6-0.6-1.3-0.9-1.6c-0.3-0.6-0.9-0.9-1.3-1.6
				c-0.3-0.3-0.6-0.6-0.9-0.9c-0.3-0.3-0.6-0.3-0.9-0.3c-0.3,0-0.6,0-0.9,0.3c-0.3,0.3-0.6,0.6-0.6,0.9c-0.3,0.6-0.3,0.9-0.3,1.3
				c0,0.3,0.3,0.9,0.6,1.6s0.9,1.6,1.6,2.5c0.6,0.9,1.6,2.2,2.5,3.8c0.3,0.3,0.6,0.9,1.3,1.9c0.6,0.9,0.9,1.9,1.6,2.8
				c0.3,1.3,0.6,2.2,0.9,3.8c0,1.3,0,2.5-0.6,4.1c-0.3,1.3-0.9,1.9-1.6,2.5c-0.6,0.6-1.6,0.9-2.2,0.9c-0.9,0-1.9-0.3-3.1-0.6
				c-1.3-0.6-2.2-1.6-3.5-2.5c-0.9-0.9-1.9-2.2-2.8-3.5s-1.6-2.5-2.2-4.1c-0.6-1.6-0.9-2.8-0.9-4.4c0-1.6,0.3-3.1,0.6-4.4l4.1,3.8
				C1693.7,334.7,1693.4,335.6,1693.4,336.6z"/>
			<path id="XMLID_51_" fill="#9D9D9C" d="M1711,338.2c0.9-1.3,1.9-1.9,2.8-2.2c0.9-0.3,2.2,0,3.1,0.6s2.2,1.9,3.5,3.5
				c1.3,1.6,2.2,3.5,2.8,5.4c0.6,1.9,1.3,4.1,1.3,6c0.3,2.2,0.3,4.1,0,6.3c-0.3,2.2-0.6,4.1-1.3,6c-0.6,1.9-1.3,3.1-2.2,4.4
				c-0.9,0.9-1.9,1.9-2.8,1.9c-0.9,0.3-2.2,0-3.1-0.6s-2.2-1.9-3.5-3.5c-1.3-1.6-2.2-3.5-2.8-5.4c-0.6-1.9-1.3-4.1-1.6-6
				s-0.3-4.1,0-6s0.6-4.1,1.3-5.7C1709.5,340.7,1710.1,339.1,1711,338.2z M1711.4,350.4c-0.3,1.3-0.3,2.5-0.3,3.8
				c0,1.3,0.3,2.5,0.6,3.8c0.3,1.3,0.9,2.2,1.6,3.5c0.6,0.9,1.6,1.6,2.2,1.9c0.6,0.3,1.3,0.3,1.9,0c0.6-0.3,1.3-0.9,1.6-1.6
				c0.6-0.6,0.9-1.6,1.3-2.8c0.3-0.9,0.6-2.2,0.9-3.5c0.3-1.3,0.3-2.5,0.3-3.8c0-1.3-0.3-2.5-0.6-3.8c-0.3-1.3-0.9-2.2-1.6-3.5
				c-0.6-0.9-1.6-1.6-2.2-1.9c-0.6-0.3-1.3-0.3-1.9,0c-0.6,0.3-1.3,0.9-1.6,1.6c-0.6,0.9-0.9,1.9-1.3,2.8
				C1711.7,348.2,1711.7,349.5,1711.4,350.4z"/>
		</g>
		<path id="XMLID_48_" fill="#9D9D9C" d="M1537.9,141.7c-64.2,0-120.9,31.5-155.5,80.3c37.1-15.7,110.2-11,188.2,16.1
			c78.1,26.8,138.8,68,158,103.2c0-2.8,0.3-5.7,0.3-8.5C1729,227,1643.4,141.7,1537.9,141.7z M1611.3,245.6l-8.5-5.7l-8.5,5l2.2-9.4
			l-7.9-6.6l9.8-0.3l3.5-8.5l4.1,9.1l9.8,1.3l-7.2,5.7L1611.3,245.6z"/>
		<path id="XMLID_46_" fill="#9D9D9C" d="M1554,286.5c-46-15.7-92.2-24.6-129.7-24.6c-39,0-64.8,9.4-71.8,25.8
			c-3.5,14.5-5.4,29.6-5.4,45c0,105.5,85.6,191.1,191.1,191.1c77.4,0,143.9-46,174.1-112.1C1721.7,376.6,1650.3,319.6,1554,286.5z
			 M1365.4,293.8l2.8-7.2l1.9,7.2l6.3,0.3l-5.4,5.4l1.3,7.6l-5-4.1l-5.4,4.4l1.9-7.6l-4.1-4.7L1365.4,293.8z M1370.8,405.8l-4.7-3.8
			l-3.8,2.5l0.6-5.7l-4.1-4.4l4.7,0.3l1.3-5.7l2.5,6.3l5,0.9l-3.5,3.8L1370.8,405.8z M1387.1,392.6l-6-4.7l-5,3.5l0.9-7.2l-5-5.4
			h6.3c0,0,1.9-6.9,1.9-7.2l2.8,7.6l6.6,0.9l-5,4.7L1387.1,392.6z M1399.7,375.6l-3.1-2.5l-3.1,2.2l0.6-4.1l-2.8-3.1h3.8l1.3-4.1
			l1.6,4.1l4.1,0.6l-3.1,2.8L1399.7,375.6z M1674.8,403l3.1-7.6l1.9,7.2h6.6l-5.7,5.4l0.9,7.2l-5.4-3.5l-6.3,4.7l2.5-7.6l-5-4.4
			L1674.8,403z M1580.7,322.4l2.5-6l2.2,6l6.3,0.6l-4.7,4.1l1.6,6.3l-5.4-3.5l-5.4,3.5l1.6-6l-4.7-4.1L1580.7,322.4z M1418.3,432.3
			l-4.7-3.5l-4.1,2.5l0.6-5l-4.1-3.8l5,0.3l1.6-5l2.5,5.4l5.4,0.9l-3.8,3.1L1418.3,432.3z M1424.6,413.4l-5.7-3.8l-5,2.8l1.3-6.3
			l-5-4.7h6l1.9-6l2.8,6.6l6.3,0.9l-4.7,4.1L1424.6,413.4z M1450.1,457.1l-6.9-4.4l-6,3.1l1.3-6.9l-6.3-5.4l7.6,0.3l2.2-6.6l3.5,7.2
			l7.9,1.3l-5.7,4.1L1450.1,457.1z M1449.1,342.3l1.6,6.9l-6-4.1l-5.7,3.8l1.6-6.9l-5-4.7l6.9-0.6l2.5-6.9l2.5,6.9l6.9,0.6
			L1449.1,342.3z M1507.4,400.5l-5.4-3.5l-5.4,3.1l1.6-6l-4.7-4.1l6-0.3l2.5-5.7l2.2,6l6.3,0.6l-4.7,4.1L1507.4,400.5z
			 M1514.3,410.6l1.3-4.4l-3.5-2.8l4.7-0.3l1.6-4.4l1.9,4.4l4.7,0.3l-3.8,2.8l1.3,4.4l-4.1-2.5L1514.3,410.6z M1534.8,499l-2.8-1.6
			l-3.1,1.6l0.9-2.5l-2.5-1.9l3.5-0.3l1.3-2.5l1.3,2.8l3.5,0.3l-2.8,1.9L1534.8,499z M1538.9,444.6l-7.2-4.1l-7.2,4.1l2.2-7.6
			l-6.6-5l8.5-0.3l3.1-7.6l3.1,7.6l8.5,0.6l-6.6,5L1538.9,444.6z M1537.9,373.7l1.9,7.2l-6.3-4.1l-6.3,3.8l1.9-7.2l-5.7-4.7l7.6-0.3
			l2.8-7.2l2.8,7.2l7.6,0.3L1537.9,373.7z M1559.9,399.9l-6.3-3.8l-6.3,3.8l1.9-6.9l-5.7-4.7l7.2-0.3l2.8-6.9l2.5,6.9l7.6,0.3
			l-6,4.7L1559.9,399.9z M1576,458.7l-5.4,2.8l1.6-5.4l-4.4-3.5l6-0.6l2.5-5.4l1.9,5l6,0.3l-4.7,3.8l1.3,5L1576,458.7z
			 M1596.8,483.6l-5.4-2.5l-6,3.1l1.9-5.4l-5-3.5l6.9-0.6l3.1-5.7l1.9,5.4h6.6l-5.4,4.1L1596.8,483.6z M1616,464.4l-4.4-2.5l-5,3.1
			l1.9-5l-4.1-3.1l5.7-0.6l2.5-5l1.6,4.7h5.4l-4.4,3.8L1616,464.4z M1634.5,491.8l-3.8-1.6l-4.7,2.8l1.9-4.4l-3.5-2.5l5-0.9l2.5-4.4
			l1.3,4.1l5-0.3l-4.4,3.5L1634.5,491.8z M1637.4,470.4l0.6,5.4l-4.7-2.5l-5.7,3.5l2.2-5.7l-4.4-3.1l6.3-0.9l3.1-5.7l1.6,5l6-0.3
			L1637.4,470.4z M1638.6,453.1l0.6,4.7l-4.1-2.2l-5,3.1l1.9-5l-3.8-3.1l5.7-0.9l2.5-5l1.6,4.7l5.4-0.3L1638.6,453.1z M1657.5,455.9
			l-4.1-2.2l-4.7,3.1l1.9-5l-3.5-2.8l5-0.9l2.5-5l1.3,4.7l5-0.3l-4.4,3.8L1657.5,455.9z M1675.5,447.1l-4.1-2.5l-5.4,3.8l2.2-6
			l-3.8-3.5l6-1.3l2.8-6l1.3,5.4l5.4-0.3l-4.7,4.4L1675.5,447.1z M1685.5,431.6l-4.1-2.5l-5,3.8l2.2-6l-3.8-3.5l5.7-1.3l2.8-6
			l1.6,5.7l5.4-0.3l-4.7,4.4V431.6z M1703.8,411.5l-3.1-2.2l-4.1,3.1l1.6-5.4l-3.1-3.1l4.4-0.9l2.2-5.4l0.9,5l4.1-0.3l-3.5,3.8
			L1703.8,411.5z"/>
	</g>
</g>
</svg>
