<svg id="Camada_1" data-name="Camada 1" xmlns="http://www.w3.org/2000/svg" viewBox="0 0 190.34 104.83"><defs><style>.cls-1{font-size:10.27px;font-family:Calibri-Bold, Calibri;font-weight:700;}.cls-1,.cls-6,.cls-7{fill:#fff;}.cls-2{letter-spacing:-0.02em;}.cls-3{letter-spacing:-0.01em;}.cls-4{letter-spacing:-0.08em;}.cls-5{letter-spacing:0em;}.cls-7{font-size:7.82px;font-family:Calibri, Calibri;}.cls-8{letter-spacing:-0.01em;}.cls-9{letter-spacing:-0.01em;}.cls-10{letter-spacing:-0.01em;}.cls-11{letter-spacing:0em;}.cls-12{letter-spacing:-0.01em;}.cls-13{letter-spacing:-0.01em;}.cls-14{letter-spacing:-0.02em;}.cls-15{letter-spacing:0em;}.cls-16{letter-spacing:-0.02em;}.cls-17{letter-spacing:-0.01em;}</style></defs><title>governo_rn</title><g id="_Grupo_" data-name="&lt;Grupo&gt;"><text class="cls-1" transform="translate(45.46 70.61) scale(1.03 1)">G<tspan class="cls-2" x="6.55" y="0">O</tspan><tspan x="13.32" y="0">VERNO DO </tspan><tspan class="cls-3" x="61.97" y="0">ES</tspan><tspan class="cls-4" x="71.64" y="0">T</tspan><tspan x="75.92" y="0">ADO</tspan><tspan x="-11.17" y="10.74">DO RIO GRANDE DO NO</tspan><tspan class="cls-3" x="90.96" y="10.74">R</tspan><tspan class="cls-5" x="96.65" y="10.74">TE</tspan></text><g id="_Grupo_2" data-name="&lt;Grupo&gt;"><path id="_Caminho_" data-name="&lt;Caminho&gt;" class="cls-6" d="M91.56,8.84c.18-.73.35-1.46.55-2.19.11-.38-.08-.59-.34-.82-.72-.61-1.43-1.24-2.3-2,1.06-.1,1.93-.22,2.81-.26a1.21,1.21,0,0,0,1.21-.83c.33-.84.75-1.64,1.13-2.46h.18A17.25,17.25,0,0,0,96,3.16c.17.42.59.35.92.39.88.1,1.77.17,2.77.26a12,12,0,0,1-2,1.84A1.12,1.12,0,0,0,97.22,7c.26.89.43,1.8.64,2.7a.42.42,0,0,1-.23.12c-.7-.34-1.47-.53-2.14-.94a1.48,1.48,0,0,0-1.69,0,15.22,15.22,0,0,1-1.5.66c-.24.12-.5.28-.75.06S91.42,9.1,91.56,8.84Z"/><path id="_Caminho_2" data-name="&lt;Caminho&gt;" class="cls-6" d="M84.34,54.22H83.25c-.34-.17-.79-.21-.89-.67,0-1.37,1.06-2,2-2.77a1.42,1.42,0,0,1,1-.05c.53.64-.2.8-.46,1.14l-.05.07c0,.06,0,.09.1.07a6.57,6.57,0,0,0,1-.17c.3-.12.6-.13.77.19a.65.65,0,0,1-.17.79A4,4,0,0,1,84.34,54.22Z"/><path id="_Caminho_3" data-name="&lt;Caminho&gt;" class="cls-6" d="M106.53,54.22h-1.8A3,3,0,0,1,103,52.69c-.14-.23-.31-.48-.09-.71s.51-.13.76,0a3.19,3.19,0,0,1,.87.45c.17.14.38.23.56,0s0-.4-.08-.62-.89-.32-.57-.91a.64.64,0,0,1,.54-.12,4.07,4.07,0,0,1,.82.51c.81.58,1.46,1.26,1.21,2.36C107,53.95,106.71,54.05,106.53,54.22Z"/><path id="_Caminho_4" data-name="&lt;Caminho&gt;" class="cls-6" d="M62.85,9.9c-.33-.06-.45.29-.72.34V9.89a8.21,8.21,0,0,1,2.84-3,9.41,9.41,0,0,1,.9-.38c.18-.09.26,0,.32.15a.6.6,0,0,1-.2.5c-.57.44-1.51.41-1.77,1.26C63.82,9,63.69,9.76,62.85,9.9Z"/><path id="_Caminho_5" data-name="&lt;Caminho&gt;" class="cls-6" d="M62.14,13.55l1.6-3.31a.44.44,0,0,1,.14-.36.48.48,0,0,1,.72.11c.19.6-.49.86-.56,1.36s-.68.63-.67,1.13a5.25,5.25,0,0,1-1.23,1.4Z"/><path id="_Caminho_6" data-name="&lt;Caminho&gt;" class="cls-6" d="M125.13,14.59l-.08,0H125c-.46.45-1.23.59-1.37,1.34-.27.36.2.65.09,1-.09.09-.25.07-.31.15-.57.7-.57.71-1.7.66h0c-.26-.34-.86-.18-1-.66-.59-.32-.37-1.12-.94-1.45-.15-.24-.47-.23-.66-.41s-.14-.53-.36-.73.15-.46.37-.61.46-.31.22-.62a2,2,0,0,1,0-3.06c.07-.06.15-.09.22-.14.91-.72.91-.72,1.47.25.42.38.76-.36,1.17-.08a.48.48,0,0,1,.23.27c-.13.41.21.71.28,1.07a1.28,1.28,0,0,0,.26.35c.1.1.24.16.35.27a.83.83,0,0,1,.16.38.82.82,0,0,0,.16.24,1.09,1.09,0,0,1,.19.26c.15.23.4.4.43.68s.53.11.75.3S125.34,14.32,125.13,14.59Z"/><path id="_Caminho_7" data-name="&lt;Caminho&gt;" class="cls-6" d="M120.91,18.78c.18-.06.36-.12.43.15.4.27,1.28.17.89,1.06-.06.15,0,.3,0,.45a7.92,7.92,0,0,0-.14,1c-.37.43-.64.84-.14,1.39.24.27.11.6-.26.76a.49.49,0,0,1-.24,0c-.22-.15-.34-.51-.72-.33a.62.62,0,0,0-.22.2,1,1,0,0,1-.53.6,1.22,1.22,0,0,0-.62.21c-.18.19,0,.52-.29.68s-.5-.05-.62.24a.55.55,0,0,1-.3.18c-.45-.09-.94-.08-1.21-.57-.15-.27-.49-.14-.74-.2-.31-.26-.71,0-1-.14a2.45,2.45,0,0,1-.39-1.71c.13-.57.92-.23,1.09-.74a.62.62,0,0,1,.17-.18c.58-.45,1.4-.74,1.17-1.73,0-.17.16-.35.31-.49a1,1,0,0,1,1-.56,3.68,3.68,0,0,0,1.91-.5C120.61,18.58,120.73,18.73,120.91,18.78Z"/><path id="_Caminho_8" data-name="&lt;Caminho&gt;" class="cls-6" d="M110.14,9.89a.93.93,0,0,1-.35-.53.28.28,0,0,0,0-.31c-.46-.6-.11-.8.47-.89.48.08.51-.33.67-.59a.89.89,0,0,1,.77-.23.71.71,0,0,0,.38-.15c.15-.12.21-.3.36-.41a.63.63,0,0,1,.33-.09h.22a1.2,1.2,0,0,0,.42-.08c.37-.14.27-.44.3-.71s0-.8.49-.93c.35.16.34.43.27.74s-.07.59.34.67a2.54,2.54,0,0,0,1.6,1,1.23,1.23,0,0,1,.58.06c.3.22.55-.14.85-.07a.31.31,0,0,1,.21.37c0,.37-.17.74,0,1.1s-.21.65-.38.95a1.3,1.3,0,0,1-1.09.8c-.61,0-.88.54-1.29.85a.79.79,0,0,1-.46,0c-.49.11,0,.7-.46.84-.12,0-.3,0-.32-.07-.26-1-1.22-1.23-2-1.6a1.77,1.77,0,0,1-.23-.14C111.35,9.83,110.6,10.27,110.14,9.89Z"/><path id="_Caminho_9" data-name="&lt;Caminho&gt;" class="cls-6" d="M119.15,43.24a4.78,4.78,0,0,1,.18,4.26c-.05.12-.07.21,0,.3a4.43,4.43,0,0,1-2.54,1.7,8.43,8.43,0,0,1-3.62.32c-.37,0-.87,0-1-.55.21-.55.79-.56,1.22-.77a6.52,6.52,0,0,0,4.45-1.3,3,3,0,0,0,.85-3.54C118.76,43.42,118.81,43.19,119.15,43.24Z"/><path id="_Caminho_10" data-name="&lt;Caminho&gt;" class="cls-6" d="M120.79,10.59c-1.1.25-.21-.62-.5-.83-1,.24-.82,1.31-1.45,1.82.59,0,.59.68.54.73-.51.56.16.39.32.53a1.05,1.05,0,0,0-.14.31c-.32,1-.64,1.15-1.71.76a8.75,8.75,0,0,1-.55-1.35,1.94,1.94,0,0,1,.4-1.4c.53-.51.91-1.23,1.79-1.27a3.63,3.63,0,0,1,1.61-1.4l-.12,1C121.65,10.11,121.61,10.33,120.79,10.59Z"/><path id="_Caminho_11" data-name="&lt;Caminho&gt;" class="cls-6" d="M112.49,6.92a1,1,0,0,1-.17.68.59.59,0,0,1-.41-.57,1.3,1.3,0,0,1-.14.94,1.53,1.53,0,0,0-.72-.33.21.21,0,0,1-.26,0,.47.47,0,0,1,0-.53c0-.18,0-.37.1-.54.41-.18.4-.51.33-.86L110.87,4c.61.42.48,1.08,1.05,1.45l-.2-2.8c.58.76.35,1.68.93,2.27.41.13.45.38.25.72S112.73,6.54,112.49,6.92Z"/><path id="_Caminho_12" data-name="&lt;Caminho&gt;" class="cls-6" d="M121.53,23.47c.47-.49-.23-.59-.31-.9s-.56-.35-.29-.87.64-.19.95-.28.56.11.75.35a.58.58,0,0,1,0,.72c.36.45.94.69,1.24,1.27-.7.25-1-.4-1.54-.62.27.88,1.13,1.22,1.51,2-.77-.05-1-1-1.77-.91C121.58,24.15,121.32,24,121.53,23.47Z"/><path id="_Caminho_13" data-name="&lt;Caminho&gt;" class="cls-6" d="M121.53,23.47l.52.72c.1.48.52.76.76,1.15.11.18.43.35.18.58s-.39-.11-.54-.22-.49-.41-.74-.62c-.5.12-1-.14-1.45-.17-.44-.25-.83-.52-.39-1.07l.2-.86c.34.25.81.07,1.14.34l.31.17Z"/><path id="_Caminho_14" data-name="&lt;Caminho&gt;" class="cls-6" d="M123.33,16c-.09-.17-.73-.25-.1-.54.05,0,.13,0,.16-.07.5-.82.5-.82,1.59-.77.31.64,1.18,0,1.53.62l-1.91.4C124.38,16.41,123.86,16.23,123.33,16Z"/><path id="_Caminho_15" data-name="&lt;Caminho&gt;" class="cls-6" d="M120.91,18.78l-.64,0a1.07,1.07,0,0,1-1.41-.59c-.12-1.15.28-2.06,2.15-1.35.08.4.7.4.69.87l-.18,0a.15.15,0,0,0-.18,0l-1,.24C120.66,18.19,121,18.36,120.91,18.78Z"/><path id="_Caminho_16" data-name="&lt;Caminho&gt;" class="cls-6" d="M122.42,11.82c-.29-.17-.34-.68-.9-.45a2,2,0,0,1,.69-.8.67.67,0,0,1,.76-.37c.82.09,1.32-.66,2.27-.79l-1.55,1.32a.47.47,0,0,1,0,.51A1.08,1.08,0,0,1,122.42,11.82Z"/><path id="_Caminho_17" data-name="&lt;Caminho&gt;" class="cls-6" d="M121.69,17.74a2.74,2.74,0,0,1,1.33,0c-.08-.42-.55-.41-.66-.8.41-.2.85,0,1.26-.05.2-.13.38-.28.65-.19a4,4,0,0,1,1.42.47c-.78.61-1.54-.27-2.25.14.12.5.75.49,1,1Z"/><path id="_Caminho_18" data-name="&lt;Caminho&gt;" class="cls-6" d="M122.41,21.93l-.53-.52-.72-.85c.29-.25.68.07.91-.22,0-.3.18-.24.36-.14a6.77,6.77,0,0,0,1.65,1.09c.13.09.4.15.29.35s-.34,0-.52,0a1.52,1.52,0,0,0-1.08.36A.37.37,0,0,1,122.41,21.93Z"/><path id="_Caminho_19" data-name="&lt;Caminho&gt;" class="cls-6" d="M116.1,25.92c.07-.52-.35-1.1.18-1.58,0-.2.07-.43.3-.47s.26.2.33.35c.15.32.17.74.76.56.26-.07.36.22.42.46a.44.44,0,0,1-.13.2.56.56,0,0,1-.8,0l-.43-.59v2.28C116.3,26.66,116.46,26.17,116.1,25.92Z"/><path id="_Caminho_20" data-name="&lt;Caminho&gt;" class="cls-6" d="M124,13.74l-.56-.17c-.57-.15-.1-.25,0-.38a1.56,1.56,0,0,1,2-.15l2.31-.2a8.67,8.67,0,0,1-2.82.9C124.64,13.86,124.33,14,124,13.74Z"/><path id="_Caminho_21" data-name="&lt;Caminho&gt;" class="cls-6" d="M114.64,6.55l-.27.47a3.85,3.85,0,0,1-.26-1.94c-.06-.09-.18-.16-.21-.27A6.82,6.82,0,0,1,114,2.21c.26.72,0,1.5.28,2.2.06.13-.07.41.22.35s.14-.29.18-.45c.42,0,.42.27.37.56C114.91,5.43,115.16,6.08,114.64,6.55Z"/><path id="_Caminho_22" data-name="&lt;Caminho&gt;" class="cls-6" d="M116.81,7.63l-.35.33a1,1,0,0,1-.48-1A3,3,0,0,0,116,6c0-.31-.09-.63.28-.82a5.15,5.15,0,0,0,.86-1.31c.07.82-.34,1.42-.15,2,.36.23.3.55.19.88l0,.3C117.24,7.37,117.16,7.59,116.81,7.63Z"/><path id="_Caminho_23" data-name="&lt;Caminho&gt;" class="cls-6" d="M124,13.74a.85.85,0,0,1,.93,0,.7.7,0,0,0,.93.3,5.61,5.61,0,0,1,2-.06,12.44,12.44,0,0,1-2.8.61c-.5-.61-1.25-.12-1.88-.4C123.4,13.84,123.83,14,124,13.74Z"/><path id="_Caminho_24" data-name="&lt;Caminho&gt;" class="cls-6" d="M120.79,10.59A.79.79,0,0,0,121,9.53c.72-.12,1-1,1.83-1-.09.55-.82.78-.75,1.39a.32.32,0,0,1,0,.49c-.27.16-.54.33-.82.47S120.82,10.86,120.79,10.59Z"/><path id="_Caminho_25" data-name="&lt;Caminho&gt;" class="cls-6" d="M111.28,51.22l1,.22c0,.18-.06.27-.22.3a16.34,16.34,0,0,1-4.65-.1.47.47,0,0,1-.37-.34c.14-.66.69-.4,1.1-.47.71,0,1.42,0,2.13,0A4.1,4.1,0,0,1,111.28,51.22Z"/><path id="_Caminho_26" data-name="&lt;Caminho&gt;" class="cls-6" d="M123.14,12.32c-.16-.13-.51.33-.55-.17.19-.48.69-.56,1.08-.77a.56.56,0,0,1,.57.07c.86.11,1.56-.54,2.54-.49a5.88,5.88,0,0,1-2,1.06C124.24,12.15,123.75,12.55,123.14,12.32Z"/><path id="_Caminho_27" data-name="&lt;Caminho&gt;" class="cls-6" d="M112.29,49.14c.17.55.67.48,1.09.53a17,17,0,0,0,3.44-.16,5.73,5.73,0,0,1-4,.45c-.17,0-.34-.08-.52-.12s-.36,0-.52-.08-.42-.37-.25-.68a.5.5,0,0,1,.65-.06Z"/><path id="_Caminho_28" data-name="&lt;Caminho&gt;" class="cls-6" d="M115,4.87a.77.77,0,0,0-.3-.56l.53-2.07c0,1,0,1.87,0,2.7,0,.25-.2.56.14.76a.22.22,0,0,1,.29.07A1.3,1.3,0,0,1,115,7.5,5.51,5.51,0,0,1,115,4.87Z"/><path id="_Caminho_29" data-name="&lt;Caminho&gt;" class="cls-6" d="M115.57,5.7h-.19L116.14,3c.46.78-.37,1.49.15,2.15V6C115.68,6.66,115.75,5.92,115.57,5.7Z"/><path id="_Caminho_30" data-name="&lt;Caminho&gt;" class="cls-6" d="M124.27,16.67l-.65.19c-.17-.26-.59-.45-.3-.86a1.57,1.57,0,0,0,1.27-.37c.66.22,1.34.34,2,.53l-2.38.21c-.06,0-.35-.13-.17.15C124.11,16.58,124.2,16.62,124.27,16.67Z"/><path id="_Caminho_31" data-name="&lt;Caminho&gt;" class="cls-6" d="M117.52,9c-.23-.51.08-.85.39-1.2l.06-.13.07.13c.63.45.75-.45,1.24-.43a1.81,1.81,0,0,1-.63,1.49C118.29,9,117.87,8.77,117.52,9Z"/><path id="_Caminho_32" data-name="&lt;Caminho&gt;" class="cls-6" d="M124.25,11.45c-.12.08-.22.21-.39.17s-.47-.16-.35-.49l.19-.39c.8.14,1.38-.67,2.39-.51Z"/><path id="_Caminho_33" data-name="&lt;Caminho&gt;" class="cls-6" d="M112.49,5.52c.3-.11.27-.32.16-.55a.71.71,0,0,0,.16-.67c0-.58-.33-1.2.2-1.72a8.39,8.39,0,0,1,.21,1.89c0,.6.12,1.2.06,1.8,0,.33,0,.69-.44.81l0-.14A1.35,1.35,0,0,1,112.49,5.52Z"/><path id="_Caminho_34" data-name="&lt;Caminho&gt;" class="cls-6" d="M111.28,51.22a1.49,1.49,0,0,1-1-.13c-.28-.45.05-.74.3-1,.34-.1.69-.41,1,0l.66.37C112.09,50.91,111.32,50.61,111.28,51.22Z"/><path id="_Caminho_35" data-name="&lt;Caminho&gt;" class="cls-6" d="M119.88,23.84c0,.42.36.63.6.91a.72.72,0,0,1,.12.23.54.54,0,0,1,0,.25c-.15.29-.41.31-.69.22a.43.43,0,0,1-.17,0c-.2-.07-.43-.09-.52-.33.07-.36-.13-.72,0-1.07S119.53,23.45,119.88,23.84Z"/><path id="_Caminho_36" data-name="&lt;Caminho&gt;" class="cls-6" d="M111.64,50.06a1.85,1.85,0,0,0-1,.3,2.25,2.25,0,0,1-1.42.52c-.21,0-.45,0-.55-.18s.08-.37.24-.5c.94-.45,1.87-1,3-.52l.38.17Z"/><path id="_Caminho_37" data-name="&lt;Caminho&gt;" class="cls-6" d="M120.43,24.9l.05-.16a1.65,1.65,0,0,1,1.23.34c-.32.32.08.5.17.74s.45.54.32,1a2.48,2.48,0,0,1-.88-.82A1.86,1.86,0,0,1,120.43,24.9Z"/><path id="_Caminho_38" data-name="&lt;Caminho&gt;" class="cls-6" d="M117.9,25.25h.18l.18-.17a.4.4,0,0,1,.56,0,.34.34,0,0,1,.21.28l-.06.11c-.58.25-.1.65-.1,1s.23.56.09.9c-.41-.25-.32-.89-.87-1C117.6,26,117.67,25.65,117.9,25.25Z"/><path id="_Caminho_39" data-name="&lt;Caminho&gt;" class="cls-6" d="M110.86,7.09v.49a.75.75,0,0,1-.71.63.23.23,0,0,1-.23-.08c.13-.77-.45-1.33-.63-2,.75,0,.66,1,1.36,1Q110.77,6.92,110.86,7.09Z"/><path id="_Caminho_40" data-name="&lt;Caminho&gt;" class="cls-6" d="M117.9,25.25a2.31,2.31,0,0,1,.18,1.06l-.27.85a6.52,6.52,0,0,1-.67-1.72C117.41,25.39,117.6,25.1,117.9,25.25Z"/><path id="_Caminho_41" data-name="&lt;Caminho&gt;" class="cls-6" d="M124.77,12.13c.7.22,1.31-.18,2-.25.34,0,.67-.13,1-.14a8.35,8.35,0,0,1-2.26,1,.67.67,0,0,1-.78-.08.39.39,0,0,1,0-.39Z"/><path id="_Caminho_42" data-name="&lt;Caminho&gt;" class="cls-6" d="M119.34,25.08l.36.33c-.06.77.66,1.36.47,2.17-.31-.77-1.08-1.28-1.2-2.15l0,0C119.08,25.26,119.15,25.11,119.34,25.08Z"/><path id="_Caminho_43" data-name="&lt;Caminho&gt;" class="cls-6" d="M112.86,7.08A3.35,3.35,0,0,0,113,5.47a1.73,1.73,0,0,1,.21-1c.3.13,0,.67.51.67-.12.59.08,1.23-.34,1.76-.19.11-.09.47-.4.45C112.95,7.35,112.91,7.17,112.86,7.08Z"/><path id="_Caminho_44" data-name="&lt;Caminho&gt;" class="cls-6" d="M119.87,25.45l.53-.37a1,1,0,0,1,.57,1l.44,1.17-.13.09Z"/><path id="_Caminho_45" data-name="&lt;Caminho&gt;" class="cls-6" d="M113.4,6.9c0-.6-.15-1.24.34-1.76,0-.13,0-.27.16-.33l.21.27c-.27.42-.11.88-.17,1.33S113.93,7.1,113.4,6.9Z"/><path id="_Caminho_46" data-name="&lt;Caminho&gt;" class="cls-6" d="M122.41,21.93l.2-.22c.63-.56.65.13.88.4l.76.65c-.67.17-1.07-.5-1.64-.29C122.58,22.28,122,22.27,122.41,21.93Z"/><path id="_Caminho_47" data-name="&lt;Caminho&gt;" class="cls-6" d="M117.52,9a5,5,0,0,0,.46-.39c.46-.48.53-.05.67.25l-.26.49-.11,0c-.2.05-.25.22-.35.37s-.17.6-.51.49.06-.45-.05-.67S117.9,9.29,117.52,9Z"/><path id="_Caminho_48" data-name="&lt;Caminho&gt;" class="cls-6" d="M109.94,8.13h.19a.14.14,0,0,1,.07.13q0,.08,0,.08c-.86.08,0,.76-.38,1L108.7,7.48C109.33,7.44,109.55,7.93,109.94,8.13Z"/><path id="_Caminho_49" data-name="&lt;Caminho&gt;" class="cls-6" d="M118,7.79h-.13l-.18-.33a.28.28,0,0,1,0-.39,2.73,2.73,0,0,1,1.09-1.28A8.52,8.52,0,0,1,118,7.79Z"/><path id="_Caminho_50" data-name="&lt;Caminho&gt;" class="cls-6" d="M117.19,6.78a1.77,1.77,0,0,1-.19-.88c.44-.19.4-.74,1-1.14C117.72,5.58,117.86,6.3,117.19,6.78Z"/><path id="_Caminho_51" data-name="&lt;Caminho&gt;" class="cls-6" d="M108.31,9.64C107,9.91,107.18,9,107,8.45Z"/><path id="_Caminho_52" data-name="&lt;Caminho&gt;" class="cls-6" d="M122.44,20.19l-.36.14a1,1,0,0,1-.74-.49,6.63,6.63,0,0,0,1.47-.37l1,.41C123.32,20.15,122.79,19.86,122.44,20.19Z"/><path id="_Caminho_53" data-name="&lt;Caminho&gt;" class="cls-6" d="M117.72,7.08v.39a2.66,2.66,0,0,1-.71.83c-.32-.16-.13-.45-.21-.66l.4-.55Z"/><path id="_Caminho_54" data-name="&lt;Caminho&gt;" class="cls-6" d="M124.76,12.52l.73.17,0,.35a9,9,0,0,0-2,.15l-.16-.16C123.6,12.33,124.18,12.41,124.76,12.52Z"/><path id="_Caminho_55" data-name="&lt;Caminho&gt;" class="cls-6" d="M122.81,19.47c-.32.76-1,.19-1.47.37.09-.33.53,0,.66-.36l-.66-.55A2.21,2.21,0,0,1,122.81,19.47Z"/><path id="_Caminho_56" data-name="&lt;Caminho&gt;" class="cls-6" d="M122.58,9.68l1.57-.83A3.17,3.17,0,0,1,123,10.1C122.71,10.07,122.5,10,122.58,9.68Z"/><path id="_Caminho_57" data-name="&lt;Caminho&gt;" class="cls-6" d="M106.78,9.43c-1.12.47-1-.55-1.37-.87C106,8.65,106.26,9.07,106.78,9.43Z"/><path id="_Caminho_58" data-name="&lt;Caminho&gt;" class="cls-6" d="M122.58,9.68l.39.41s0,.07,0,.11c-.21.2-.38.49-.76.37l-.15-.16V9.92Z"/><path id="_Caminho_59" data-name="&lt;Caminho&gt;" class="cls-6" d="M123.14,12.32c.52-.22,1-.62,1.63-.3a.24.24,0,0,1,0,.11.22.22,0,0,1,0,.12,3.79,3.79,0,0,1-1.79.46Z"/><path id="_Caminho_60" data-name="&lt;Caminho&gt;" class="cls-6" d="M110.86,7.09h-.2c0-.19-.06-.42.19-.54Z"/><path id="_Caminho_61" data-name="&lt;Caminho&gt;" class="cls-6" d="M121.33,17.72h0Z"/><path id="_Caminho_62" data-name="&lt;Caminho&gt;" class="cls-6" d="M72.77,24l0,.51c-.69-.45-1.23-.25-1.39.52a6.14,6.14,0,0,1-2.07-2.36c-.08-.13,0-.22.09-.31a.83.83,0,0,1,.22-.09c.33-.25.83-.07,1.13-.43a.53.53,0,0,1,.5.06A25.08,25.08,0,0,0,72.77,24Z"/><path id="_Caminho_63" data-name="&lt;Caminho&gt;" class="cls-6" d="M72.58,40.54l0,.58a1.82,1.82,0,0,1-.59.77,5.45,5.45,0,0,0-1.3,1.45,1.9,1.9,0,0,1-.29.63,2.93,2.93,0,0,0,.31,3.47c.26.33.76.65.47,1.21a.17.17,0,0,1-.25,0c-1.9-1.38-2.15-3.95-.63-6.13A8.72,8.72,0,0,1,72.58,40.54Z"/><path id="_Caminho_64" data-name="&lt;Caminho&gt;" class="cls-6" d="M65.75,21.58c-.48,1.15.18,2.32,0,3.65a12.31,12.31,0,0,1-1.24-3.79c-.05-.34-.13-.68-.2-1,0,0-.06,0-.06,0l-.1.14a.32.32,0,0,1-.35-.19c-.14-.51.16-.92.33-1.36a.52.52,0,0,1,.61-.26,3.08,3.08,0,0,1,.43,1.81c0,.53,0,1.07,0,1.58a6.83,6.83,0,0,1,0-1,.51.51,0,0,1,.39-.54C66.25,20.79,66.22,21.13,65.75,21.58Z"/><path id="_Caminho_65" data-name="&lt;Caminho&gt;" class="cls-6" d="M63.93,20.34l.17.19-.33,2a2.48,2.48,0,0,1-.56-1.8s0-.06-.06-.06l-.13,0c-.28,0-.32-.18-.34-.39a3,3,0,0,1,.53-1.93c.24-.33.5-.54.81-.07a.57.57,0,0,1,.11.39C64,19.24,63.54,19.74,63.93,20.34Z"/><path id="_Caminho_66" data-name="&lt;Caminho&gt;" class="cls-6" d="M71,48.64l.27,0A.58.58,0,0,1,72,48.5a11.43,11.43,0,0,0,4.88.71.45.45,0,0,1,.32.14.45.45,0,0,1,.07.27l0,.13-.1.1a25.86,25.86,0,0,1-3,0A6.61,6.61,0,0,1,71,48.64Z"/><path id="_Caminho_67" data-name="&lt;Caminho&gt;" class="cls-6" d="M77.84,51.11,81.45,51a.47.47,0,0,1,.69.06,4,4,0,0,1-2.24.45,6.37,6.37,0,0,1-2.74-.1Z"/><path id="_Caminho_68" data-name="&lt;Caminho&gt;" class="cls-6" d="M68.26,20.58c-.66.36-.73-.4-1.18-.58a3.63,3.63,0,0,0,.09,1.59c-.13.22,0,.94-.59.33a.89.89,0,0,1-.09-.26,11.69,11.69,0,0,0-.3-2.32c.4-.79.5-.82,1.15-.25.22.2.54.25.73.47s.43.44.37.78A.41.41,0,0,1,68.26,20.58Z"/><path id="_Caminho_69" data-name="&lt;Caminho&gt;" class="cls-6" d="M68.26,20.58v-.23c.26-.33.07-.64,0-.95s-.22-.59.17-.79.64.17.85.46a13.64,13.64,0,0,1,.29,3.38l-.21.22C68.81,22.05,68.84,21.17,68.26,20.58Z"/><path id="_Caminho_70" data-name="&lt;Caminho&gt;" class="cls-6" d="M66.65,21.74v.19a.13.13,0,0,1-.2,0c-.25-.09-.3-.54-.7-.36a.81.81,0,0,0-.2-.92.63.63,0,0,1,0-1.09c.34-.3.58-.06.75.26A19,19,0,0,1,66.65,21.74Z"/><path id="_Caminho_71" data-name="&lt;Caminho&gt;" class="cls-6" d="M62.83,20.31l.19.39-.12,1.7h-.14l-.3-1c.12-.35-.4-.71,0-1.07A.31.31,0,0,1,62.83,20.31Z"/><path id="_Caminho_72" data-name="&lt;Caminho&gt;" class="cls-6" d="M79.31,50.53l-.36.38c-.49-.39-1.24-.05-1.68-.57l-.16-.5,0,0A2.17,2.17,0,0,1,79.31,50.53Z"/><path id="_Caminho_73" data-name="&lt;Caminho&gt;" class="cls-6" d="M77.27,50.34c.61.06,1.27,0,1.68.57l-1.13,0C77.55,50.82,77.21,50.75,77.27,50.34Z"/><path id="_Caminho_74" data-name="&lt;Caminho&gt;" class="cls-6" d="M66.44,21.94h.2c.32.1.38-.18.52-.34a1.64,1.64,0,0,1,0,.16c.06.34.44.82,0,1S66.55,22.35,66.44,21.94Z"/><path id="_Caminho_75" data-name="&lt;Caminho&gt;" class="cls-6" d="M76,4.08c.63,0,.32-.75.8-.93.4.58-.28,1.24.08,1.82.42-.08.45-.57.9-.63a4.09,4.09,0,0,1-.44,1.49c.48,0,.94.13.53.76l-.22.11c-1.1.51-1.24.5-1.51-.2A2.61,2.61,0,0,1,76,5.86a1.7,1.7,0,0,0,0-1.33A.34.34,0,0,1,76,4.08Z"/><path id="_Caminho_76" data-name="&lt;Caminho&gt;" class="cls-6" d="M68.46,6.08a7.09,7.09,0,0,1,3.48,1L71.3,5.42c.46,0,.59.43.94.44a.5.5,0,0,1,.21.16c.1.51.11,1,.6,1.41a.56.56,0,0,1,.17.63c-.19.47-.49.41-.82.14a6.38,6.38,0,0,0-1.77-.92C70,7,69.31,7.13,68.7,6.84A.68.68,0,0,1,68.46,6.08Z"/><path id="_Caminho_77" data-name="&lt;Caminho&gt;" class="cls-6" d="M87.18,9.31a4,4,0,0,1-1.39,0,3.1,3.1,0,0,1-1.06-.44c-.24-.22-.44-.44-.26-.75a.49.49,0,0,1,.69-.21,6.87,6.87,0,0,0-2-.79c-.43-.18-.9-.31-1.08-.8.1-.25.28-.21.47-.13A6.34,6.34,0,0,1,87.18,9.31Z"/><path id="_Caminho_78" data-name="&lt;Caminho&gt;" class="cls-6" d="M72.77,5.14V3c.43.24.34.72.68.94.29-.69.11-1.45.47-2.13.21.26.13.55.15.82a3.76,3.76,0,0,1,.21.9,3,3,0,0,1-.6,2.11c-.49.49-.71.46-1.1-.19A.49.49,0,0,1,72.77,5.14Z"/><path id="_Caminho_79" data-name="&lt;Caminho&gt;" class="cls-6" d="M74.57,2.17a2.44,2.44,0,0,1,0-.43c.05-.22.14-.44.25-.79a6.68,6.68,0,0,1,.53,1.78,2.12,2.12,0,0,0,.37-1A3.78,3.78,0,0,1,76,3.94c-.3.24-.17.72-.55.92a.49.49,0,0,1-.24.06c-.45-.15-.32-.5-.34-.83a3.1,3.1,0,0,0-.29-1.59C74.55,2.4,74.49,2.29,74.57,2.17Z"/><path id="_Caminho_80" data-name="&lt;Caminho&gt;" class="cls-6" d="M82.59,6.2l-.42.17c-.19.37-.58.39-.92.4a6.9,6.9,0,0,0-3.31,1.14c-.33.2-.65.43-1.06.15-.54-.87.28-1.11.76-1.51l.27,0c-.05.13-.19.34-.14.39s.31,0,.45-.08A6,6,0,0,1,82.59,6.2Z"/><path id="_Caminho_81" data-name="&lt;Caminho&gt;" class="cls-6" d="M75.34,4.67l.43-1.1.25.37a.14.14,0,0,1,0,.14c.61.51.41,1.16.35,1.79C75.53,5.83,75.44,5.73,75.34,4.67Z"/><path id="_Caminho_82" data-name="&lt;Caminho&gt;" class="cls-6" d="M72.77,5.14v.4c0,.27.21.4.36.56s.34.58,0,.82-.61,0-.81-.26-.3-.38-.12-.62V5.86c-.06-.25-.13-.5-.18-.75s-.26-.46-.14-.77C72.39,4.44,72.46,4.92,72.77,5.14Z"/><path id="_Caminho_83" data-name="&lt;Caminho&gt;" class="cls-6" d="M74.57,2.17l.19.22a3.64,3.64,0,0,1-.13,2.45c-.35.12-.49-.07-.56-.36a5.08,5.08,0,0,0-.18-.83l.19-1C74.73,3,74.25,2.18,74.57,2.17Z"/><path id="_Caminho_84" data-name="&lt;Caminho&gt;" class="cls-6" d="M68.46,6.08l.36.47a2.76,2.76,0,0,1-2.72.18l-.22-.18A5.45,5.45,0,0,1,68.46,6.08Z"/><path id="_Caminho_85" data-name="&lt;Caminho&gt;" class="cls-6" d="M92.84,49.31c.48.19-.18.28,0,.44-.1.36-.57.33-.72.64-.65.16-1,.74-1.4,1.14a1.87,1.87,0,0,1-2.19.4c-.74-.47-.64-1.16-.5-1.85a3.1,3.1,0,0,0,.17-1.25c-.25-1.11.53-1.62,1.31-2a1.8,1.8,0,0,1,2,.54c.42.39,1,.6,1.33,1.08.05.66-.39.35-.64.27-.48-.16-.92-.41-1.4-.57-1.29-.45-1.64-.2-1.62,1.1,0,.32,0,.64,0,1a1.08,1.08,0,0,0,1.61.06A3.31,3.31,0,0,1,92.84,49.31Z"/><path id="_Caminho_86" data-name="&lt;Caminho&gt;" class="cls-6" d="M94.81,1.57c.31,2,1.48,2.94,3.66,2.51l-.05.27a14.33,14.33,0,0,1-1.28,1.12,1.13,1.13,0,0,0-.48,1.42A4.86,4.86,0,0,1,97,8.63c-.6-.32-1.15-.57-1.65-.9a1,1,0,0,0-1.3,0c-.51.34-1.08.61-1.68.94a5,5,0,0,1,.32-1.83,1,1,0,0,0-.42-1.28,18.34,18.34,0,0,1-1.4-1.19,5.26,5.26,0,0,1,2-.31,1.07,1.07,0,0,0,1-.75c.2-.56.5-1.09.75-1.64Z"/><path id="_Caminho_87" data-name="&lt;Caminho&gt;" class="cls-6" d="M63.36,12.5c-.24-.53.29-.82.41-1.24A6.52,6.52,0,0,1,65.39,10a.59.59,0,0,1,.38.08c.33.28.17.57,0,.82a1.1,1.1,0,0,0-.24.88c0,.21.14.4.12.62a5.8,5.8,0,0,1-.48.95.47.47,0,0,1-.64,0c0-.37,0-.75,0-1.12s.45-.56,0-.73-.45.29-.66.47S63.53,12.33,63.36,12.5Z"/><path id="_Caminho_88" data-name="&lt;Caminho&gt;" class="cls-6" d="M62.49,19.15c-.42-.42-.1-.86,0-1.27a7,7,0,0,1,1.42-3.19.44.44,0,0,1,.24.16c.21.32.06.6-.09.89a13.61,13.61,0,0,0-.93,2.39C62.93,18.49,63.08,19,62.49,19.15Z"/><path id="_Caminho_89" data-name="&lt;Caminho&gt;" class="cls-6" d="M62.49,19.15l.34-1.09c.3,0,.36-.37.63-.43s.5,0,.61.19.18.57-.29.6c-.3-.26-.32.05-.4.19a4.14,4.14,0,0,0-.56,1.69l-.36,0Z"/><path id="_Caminho_90" data-name="&lt;Caminho&gt;" class="cls-6" d="M64,15l-.06-.29c.06-.5.9-.67.61-1.32l.47-.16c.34-.18.42-.71.94-.65a.44.44,0,0,1,.33.52c-.43.63-1.07,1.08-1.52,1.69A.6.6,0,0,1,64,15Z"/><path id="_Caminho_91" data-name="&lt;Caminho&gt;" class="cls-6" d="M83.61,51.25a8.09,8.09,0,0,1-1.77,1c-.3.13-.64.2-.77.55-.61,0-1.15.41-1.78.34l.51-.68a.34.34,0,0,1,.5-.12l2.22-.93A2.2,2.2,0,0,1,83.61,51.25Z"/><path id="_Caminho_92" data-name="&lt;Caminho&gt;" class="cls-6" d="M81.3,52.83l.77-.2c.49-.14.32.15.26.37a4.29,4.29,0,0,1-1.3.77C80.85,53.36,81.19,53.12,81.3,52.83Z"/><path id="_Caminho_93" data-name="&lt;Caminho&gt;" class="cls-6" d="M63.94,10.06l-.2.18c-.44-.05-.6.43-1,.48-.14-.31.22-.54.12-.83.58-.4.47-1.24,1.12-1.59.39-.27.77-.68,1.28-.19.22.62-.65.68-.65,1.19C64.5,9.66,64,9.64,63.94,10.06Z"/><path id="_Caminho_94" data-name="&lt;Caminho&gt;" class="cls-6" d="M108.88,52.82c-1-.6-2.22-.8-3.08-1.63l.72.06,2.18.88c.62-.17.85.27,1.1.67.07.1.37.28,0,.28A3.29,3.29,0,0,1,108.88,52.82Z"/><path id="_Caminho_95" data-name="&lt;Caminho&gt;" class="cls-6" d="M107.28,53.16l-.22-.6a3,3,0,0,1,1.27.63c0,.16.17.37.11.46s-.3,0-.44-.08l-.55-.23Z"/><path id="_Caminho_96" data-name="&lt;Caminho&gt;" class="cls-6" d="M110.3,52c.18.2.45.32.54.59l-.87-.11a1.5,1.5,0,0,1-1.14-.44,1.29,1.29,0,0,1,1.14-.11Z"/><path id="_Caminho_97" data-name="&lt;Caminho&gt;" class="cls-6" d="M65.69,10.26h-.26c-.57.21-.86.06-.54-.51s-.12-1,.37-1.43c0-.52-.25-1.12.48-1.4l.36-.19a6.48,6.48,0,0,1,2.72-.18,11.92,11.92,0,0,1,2,.39c.13.19.33.33.44.53.89.94,2.08,1.55,2.89,2.57a11.57,11.57,0,0,1,.65,1.13c.14.33.08.72-.32.75A8.43,8.43,0,0,1,72,11.69c-.17,0-.23-.25-.32-.4a.42.42,0,0,0-.35-.2c-.33,0-.51.35-.84.32a.51.51,0,0,1-.22-.1c-.27-.2,0-.69-.49-.77s-.2-.52-.33-.77c-.32-.29-.48,0-.69.16-.52.29-.78.92-1.43,1A1.71,1.71,0,0,1,65.69,10.26Z"/><path id="_Caminho_98" data-name="&lt;Caminho&gt;" class="cls-6" d="M65.75,6.92c-.46.38.18,1-.36,1.4-.07.08-.13.08-.19,0-.41-.28-.82.08-1.22,0C64.25,7.47,65,7.21,65.75,6.92Z"/><path id="_Caminho_99" data-name="&lt;Caminho&gt;" class="cls-6" d="M65.19,8.31h.19c-.08.56.44,1.19-.28,1.68-.15.11.17.21.32.26a3.76,3.76,0,0,1-1.66,1,5.23,5.23,0,0,1,.69-1.2c-.16-.27.09-.61-.17-.85C64.37,8.69,64.79,8.51,65.19,8.31Z"/><path id="_Caminho_100" data-name="&lt;Caminho&gt;" class="cls-6" d="M64.29,9.2h.83l.18.29-.85.57h-.52C63.24,9.46,64.22,9.51,64.29,9.2Z"/><path id="_Caminho_composto_" data-name="&lt;Caminho composto&gt;" class="cls-6" d="M111.42,11.12c.33-.88-.08-1.31-1-1.09a4.48,4.48,0,0,1-1.77.06c-3.6,0-7.18-.4-10.78-.37h-.19a7.52,7.52,0,0,0-2.4-.43,51.69,51.69,0,0,0-5.16.42L88,9.74c-1,.26-1.89-.16-2.85-.12-2.32.11-4.63.29-6.95.37-.78,0-1,.31-.64,1.11a27.76,27.76,0,0,1,1.86,7.21,21.22,21.22,0,0,1-.21,4.91c-.46,1.86-.65,3.77-1,5.66a27.87,27.87,0,0,0-.33,5.63A7.84,7.84,0,0,0,79.43,39c1.87,2.52,4.63,3.55,7.56,4.33a3.75,3.75,0,0,1,1.38.52c.41.21.85.36,1.27.55a11.42,11.42,0,0,1,3.3,1.68,5,5,0,0,0,1.7,1,.6.6,0,0,0,.35-.18,2.42,2.42,0,0,1,.55-.56,27.29,27.29,0,0,1,6.37-2.88,6.09,6.09,0,0,1,.67-.2,16.64,16.64,0,0,0,1.69-.58c3.59-1.22,6.1-3.39,6.71-7.22a24.78,24.78,0,0,0-.1-5.63c-.11-1.65-.83-3.2-.85-4.86-.13-.9-.27-1.8-.38-2.7a19.62,19.62,0,0,1,.16-5.77A31,31,0,0,1,111.42,11.12ZM109.8,30.66c.18,1.22,0,1.4-1.21,1.29a38.33,38.33,0,0,0-4.71-.33,46.73,46.73,0,0,1-5.82-.36c-.38,0-.53-.32-.69-.61a1.52,1.52,0,0,0-.7-.66,2,2,0,0,1-1-1.11,1.91,1.91,0,0,1,.37-.75,1.41,1.41,0,0,1,.93-.2c.09,0,.22,0,.25,0s-.08-.1-.14-.11a1.48,1.48,0,0,1-.42-.11,6.43,6.43,0,0,1-2.49-3.77,23.38,23.38,0,0,0,.18-2.4c0-.27.06-.52-.21-.69-.91-.15-1.28.58-1.81,1a2.63,2.63,0,0,0-1.77,2c0,.08,0,.15,0,.23a.68.68,0,0,1,0,.34c-.07.23.07.46,0,.69a1.27,1.27,0,0,1-.22.62c-.2.17-.41.34-.4.62,0,1.18-.25,2.41.52,3.49,0,1.37-.17,1.62-1.61,1.61a33.78,33.78,0,0,0-3.46.18,44,44,0,0,0-4.51.29c-.6,0-1.24.28-1.75-.26.32-3.56,1.1-7.06,1.35-10.63.05-.76-.36-1.77.27-2.23s1.5-.25,2.27-.29c5-.25,10-.43,15-.3,3.24.08,6.49.19,9.72.42.52,0,.84.1.83.72C108.44,23.16,109.36,26.88,109.8,30.66Zm-1.1-13c0,.65-.47.54-.89.51-6.12-.42-12.24-.52-18.37-.37-2.7.07-5.4.21-8.1.38-.76,0-1-.16-1-.86A25,25,0,0,0,78.57,11c5.51-.42,10.91-.58,16.32-.57,4.93,0,9.85.15,14.76.51.71.05.76.23.53.82A20.32,20.32,0,0,0,108.69,17.61Z"/><path id="_Caminho_101" data-name="&lt;Caminho&gt;" class="cls-6" d="M109.94,32.26a12.18,12.18,0,0,1-.45,4.4c-1,2.78-3.24,4.13-5.88,5.1a63.58,63.58,0,0,0-6.39,2.36,9.4,9.4,0,0,0-2.12,1.31c-.26.23-.56.5-.94.18-2.34-2-5.28-2.71-8.09-3.73a20.37,20.37,0,0,1-3.21-1.38,7,7,0,0,1-3.75-6.17c0-.7,0-1.4,0-2.09.69-.64,1.6-.44,2.42-.52,1.76-.16,3.53-.15,5.29-.35a8.71,8.71,0,0,1,1.21,0,2.62,2.62,0,0,0,1.68.43,15.62,15.62,0,0,1,2.87.08c1.23.22,2.49,0,3.72.25.34.06.6-.19.9-.3,2.13.11,4.24-.32,6.37-.3,1.92,0,3.83.17,5.74.35C109.61,31.9,109.84,32,109.94,32.26Z"/><path id="_Caminho_102" data-name="&lt;Caminho&gt;" class="cls-6" d="M86.89,31.55c-1.67.27-3.37.23-5.06.34a10.82,10.82,0,0,0-2.72.35l0-.59a43,43,0,0,0,4.4-.26c.63,0,1.26,0,1.89,0C85.88,31.63,86.45,31.08,86.89,31.55Z"/><path id="_Caminho_103" data-name="&lt;Caminho&gt;" class="cls-6" d="M109.94,32.26a4.35,4.35,0,0,0-1.83-.35c-1.55-.1-3.1-.15-4.64-.22a.14.14,0,0,1-.06-.18c.12-.1.3,0,.41-.15a37.14,37.14,0,0,1,4.76.28c1.14.1,1.16.11,1.21-1A3.07,3.07,0,0,1,109.94,32.26Z"/><path id="_Caminho_104" data-name="&lt;Caminho&gt;" class="cls-6" d="M121,16.88a1.6,1.6,0,0,1-.44.06c-.92-.13-1.33.31-1.39,1.15a.37.37,0,0,1-.49,0,2.48,2.48,0,0,1,.38-2.69c.28-.09.55-.25.86-.12.3.28.93.18,1,.79,0,.16,0,.18-.28.31C120.61,16.67,121.27,16.41,121,16.88Z"/><path id="_Caminho_105" data-name="&lt;Caminho&gt;" class="cls-6" d="M117.91,13.73a6.35,6.35,0,0,0,.7.08c.23,0,.7.23.33-.38-.11-.18.49-.39.77-.58,0,.32.63.15.46.3s-.15.73-.56.89-.52.25-.78.38c.06.48-.31.43-.58.39a1.28,1.28,0,0,1-.94-.41c-.15-.38,0-.61.37-.75A.28.28,0,0,1,117.91,13.73Z"/><path id="_Caminho_106" data-name="&lt;Caminho&gt;" class="cls-6" d="M117.37,14.24c.49,0,.92.48,1.44.17.31,0,.73,0,.83.34s-.31.2-.44.35-.28.26-.48.29a2.36,2.36,0,0,1-1.48,0c-.26-.18-.51-.37-.48-.73a.56.56,0,0,1,.17-.41A.36.36,0,0,1,117.37,14.24Z"/><path id="_Caminho_107" data-name="&lt;Caminho&gt;" class="cls-6" d="M123,12.71c.6-.14,1.09-.68,1.79-.46v.27l-1.45.51C123.11,13,122.87,13,123,12.71Z"/><path id="_Caminho_108" data-name="&lt;Caminho&gt;" class="cls-6" d="M118.63,15.12l.57,0h.89c.09,0,.18.06.08.15s-.16,0-.25.06l-.79.35c-.27.14-.52.13-.66-.17C118.41,15.36,118.22,15.11,118.63,15.12Z"/><path id="_Caminho_109" data-name="&lt;Caminho&gt;" class="cls-6" d="M123.5,11.13l.35.49a2.64,2.64,0,0,0-1.26.54l-.18-.33A3.93,3.93,0,0,0,123.5,11.13Z"/><path id="_Caminho_110" data-name="&lt;Caminho&gt;" class="cls-6" d="M113.22,24.91a1.63,1.63,0,0,1-.37-.82,1.45,1.45,0,0,0,0-.26c-.27-.58.2-1.11.1-1.68s.21-.88-.16-1.38.09-.79.66-.81c.4,0,.61.34.9.53,1,.15,1,.85,1,1.58a.78.78,0,0,1-.24.57,3.79,3.79,0,0,0,.33,1.74l-.35.16a.5.5,0,0,1-.36-.07c-.37-.41-.71-.56-1,.11C113.62,24.8,113.5,25,113.22,24.91Z"/><path id="_Caminho_111" data-name="&lt;Caminho&gt;" class="cls-6" d="M115,22c0-.19-.08-.39-.14-.58-.12-.37-.29-.56-.64-.16-.08.1-.25.23-.37.1s0-.31.06-.47a1,1,0,0,1,.85-1,2,2,0,0,0,1.3-1.18c.28-.34.58-.44.91-.05.63,1.75.26,2.51-.89,3.36q0,.07,0,.15C115.67,22.57,115.3,22.68,115,22Z"/><path id="_Caminho_112" data-name="&lt;Caminho&gt;" class="cls-6" d="M116.82,18.76c-.2-.26-.37-.11-.54,0-.39.11-.5-.16-.61-.43a.53.53,0,0,1,0-.54.54.54,0,0,1,.5-.18c.83.49,1.78,0,2.63.26l.37.18,1.1.72a1.51,1.51,0,0,1-1.82.71c-.44-.11-.4.13-.54.29C117.19,19.81,117.13,19.16,116.82,18.76Z"/><path id="_Caminho_113" data-name="&lt;Caminho&gt;" class="cls-6" d="M116.82,18.76l1.1,1.06c-.15.28.28.43.18.71-.31.15-.32-.3-.59-.26,0,.37.32.53.46.89a1.42,1.42,0,0,0-1.28.8c-.31.54-.39,0-.57,0-.1-.31.22-.36.34-.53A2.93,2.93,0,0,0,116.82,18.76Z"/><path id="_Caminho_114" data-name="&lt;Caminho&gt;" class="cls-6" d="M115,22c.19-.05.41.37.48.12.26-1,.39.22.58,0-.08.66-.44.83-1.05.55Z"/><path id="_Caminho_115" data-name="&lt;Caminho&gt;" class="cls-6" d="M119.34,25.08a.47.47,0,0,1-.35.31l-.19-.15c-.09-.19,0-.3.17-.39l-.29-1.23c.32,0,.34.26.49.39A1.09,1.09,0,0,1,119.34,25.08Z"/><path id="_Caminho_116" data-name="&lt;Caminho&gt;" class="cls-6" d="M119,24.86l-.17.39-.54-.17c0-.33-.27-.63-.09-1C118.62,24.17,118.6,24.72,119,24.86Z"/><path id="_Caminho_117" data-name="&lt;Caminho&gt;" class="cls-6" d="M121.53,23.48l-.21.25a1.21,1.21,0,0,1-.86-.94C121.16,22.51,121.32,23,121.53,23.48Z"/><path id="_Caminho_118" data-name="&lt;Caminho&gt;" class="cls-6" d="M120.45,22.79l.86.94c-.65.11-.84-.48-1.24-.76Z"/><path id="_Caminho_119" data-name="&lt;Caminho&gt;" class="cls-6" d="M111.51,11.45l.46-1.21c.51-.12,1.1-.54,1.35.33,0,.08.06.19.13.22.62.25.62.24.7.93a2.74,2.74,0,0,0,.11.41.44.44,0,0,1,.45,0,1.36,1.36,0,0,1,.19,1.16.61.61,0,0,1-.17.25,1,1,0,0,1-.72.08.58.58,0,0,1-.23-.14c-.2-.85-.56-1.52-1.64-1.48A.66.66,0,0,1,111.51,11.45Z"/><path id="_Caminho_120" data-name="&lt;Caminho&gt;" class="cls-6" d="M117.37,9.56l.17.45c.36-.11.23-.71.74-.63l-.54,1.18c.23.91-.66,1-1.11,1.42a.69.69,0,0,1-.38.12c-.47-.08-1.07.08-1.2-.61a.35.35,0,0,1,.09-.24c-.07-1.09.71-1.36,1.55-1.28C117.15,10,117.21,9.8,117.37,9.56Z"/><path id="_Caminho_121" data-name="&lt;Caminho&gt;" class="cls-6" d="M115.57,5.7c.2.19.35.46.71.33.46.61-.25,1.31.18,1.92-.72-.33-1.72-.32-1.82-1.41A4.59,4.59,0,0,1,115,4.87q0,1.11,0,2.22A2.37,2.37,0,0,0,115.57,5.7Z"/><path id="_Caminho_122" data-name="&lt;Caminho&gt;" class="cls-6" d="M115.13,11.24l.05.29c.18.24.1.59.37.79a8.66,8.66,0,0,1,1.31,1c.31.28.4.56.14.9v.34a.83.83,0,0,1-.2.16c-.89-.21-1.86-.29-2.14-1.37l0-1.22a.69.69,0,0,1,.25-1.06Z"/><path id="_Caminho_123" data-name="&lt;Caminho&gt;" class="cls-6" d="M110.17,8.34l0-.2a.91.91,0,0,1,.75-.56l.18.06c.21.51.41,1-.38,1.32Z"/><path id="_Caminho_124" data-name="&lt;Caminho&gt;" class="cls-6" d="M114.89,11.1l-.25,1.06-.39,0A11.51,11.51,0,0,1,114.4,11c0-.18,0-.55.35-.45S114.93,10.88,114.89,11.1Z"/><path id="_Caminho_125" data-name="&lt;Caminho&gt;" class="cls-6" d="M111.77,8l-.11-1.57c.41.39.44.85.67,1.2Z"/><path id="_Caminho_126" data-name="&lt;Caminho&gt;" class="cls-6" d="M112.49,5.52l.34,1.41h-.34C112.36,6.46,112.12,6,112.49,5.52Z"/><path id="_Caminho_127" data-name="&lt;Caminho&gt;" class="cls-6" d="M116.31,45.86a1.66,1.66,0,0,0-.8-.66,1.34,1.34,0,0,0,0-.23c-.06-.31-.23-.58-.29-.89l.32-.31c.37-.34.57-.72.17-1.13s-.87-.19-1.24.15-.54.54-.81.81c-.62.15-.73-.29-.88-.69,0-.29.19-.41.48-.39l1.46-1a2.14,2.14,0,0,1,2.61.74,2.52,2.52,0,0,1,.1,3.19C117.15,45.74,116.87,46.16,116.31,45.86Z"/><path id="_Caminho_128" data-name="&lt;Caminho&gt;" class="cls-6" d="M112.86,41.12c-.22-.82-1-1.5-.56-2.47a.83.83,0,0,0,.43-.12c.74-.46,1,.18,1.35.56l.2.11a4.31,4.31,0,0,1,.77.56.77.77,0,0,1,0,1c-.18.11-.36.21-.52.34-.37.29-.71.71-1.13,0C113.32,41,113,41.11,112.86,41.12Z"/><path id="_Caminho_129" data-name="&lt;Caminho&gt;" class="cls-6" d="M115.93,34.32a3.19,3.19,0,0,0-.23,1.39,1.28,1.28,0,0,1-.77.68c-1.23.39-1.34.34-1.61-.82a2.61,2.61,0,0,1,.53-1.49,4.4,4.4,0,0,1,.54-.6c.37-.14.74-.41,1.15-.08A2.54,2.54,0,0,1,115.93,34.32Z"/><path id="_Caminho_130" data-name="&lt;Caminho&gt;" class="cls-6" d="M114.83,36.08a.67.67,0,0,1,.87-.37c.76.75.15,1.52,0,2.28l-.08.1a.86.86,0,0,1-.8,0,1.48,1.48,0,0,1-.46-1.23C114.35,36.53,114.69,36.36,114.83,36.08Z"/><path id="_Caminho_131" data-name="&lt;Caminho&gt;" class="cls-6" d="M115,40.75l-.36-.84c0-.36-.17-.7,0-1.09.35-.63.53-.7,1.22-.29a1.47,1.47,0,0,1,.18,1.38C116,40.54,115.5,40.62,115,40.75Z"/><path id="_Caminho_132" data-name="&lt;Caminho&gt;" class="cls-6" d="M114.85,24.36l.16.19c.08.47-.23.82-.37,1.23l0,.13c-.21.35-.52.32-.85.21a.39.39,0,0,1-.18-.34c-.09-.3-.43-.51-.38-.87l.19-.52A1.76,1.76,0,0,1,114.85,24.36Z"/><path id="_Caminho_133" data-name="&lt;Caminho&gt;" class="cls-6" d="M115.55,30.66c.77.75.18,1.51,0,2.26a.53.53,0,0,1-.55.23c-.43-.06-.56-.38-.67-.72a1.69,1.69,0,0,1,1.08-1.75Z"/><path id="_Caminho_134" data-name="&lt;Caminho&gt;" class="cls-6" d="M115.36,29.11c.6.46.31,1,.19,1.56h0a.69.69,0,0,1-.92.26,1.45,1.45,0,0,1-.48-1,1.17,1.17,0,0,1,.67-1.11C115.11,28.74,115.24,28.9,115.36,29.11Z"/><path id="_Caminho_135" data-name="&lt;Caminho&gt;" class="cls-6" d="M115.36,29.11l-.34-.19a.59.59,0,0,1-.74-.35,2.51,2.51,0,0,1,.05-1.14.64.64,0,0,1,.16-.24.56.56,0,0,1,.88.16c.44.19.35.54.26.87S115.45,28.81,115.36,29.11Z"/><path id="_Caminho_136" data-name="&lt;Caminho&gt;" class="cls-6" d="M115.36,27.34h-.71a.58.58,0,0,1-.39-.56,1.2,1.2,0,0,1,.39-1h0C116.29,25.7,115.18,26.8,115.36,27.34Z"/><path id="_Caminho_137" data-name="&lt;Caminho&gt;" class="cls-6" d="M118.46,44.62a3.86,3.86,0,0,0-.54-2.46c.17-.2.17-.2.64.18l.59.91a.63.63,0,0,0-.16.5C119,44.11,119.06,44.57,118.46,44.62Z"/><path id="_Caminho_138" data-name="&lt;Caminho&gt;" class="cls-6" d="M112.14,42c.07-.39-.11-.8.13-1.18.36,0,.36.37.57.51v.5c.33.45,0,.7-.32.93C112,42.7,112.37,42.19,112.14,42Z"/><path id="_Caminho_139" data-name="&lt;Caminho&gt;" class="cls-6" d="M112.47,42.73l.39-.91c1.09-.23.33.43.36.7l-.36.36c.08.28-.08.39-.34.42C112.21,43.13,112.13,42.95,112.47,42.73Z"/><path id="_Caminho_140" data-name="&lt;Caminho&gt;" class="cls-6" d="M118.56,42.33l-.64-.18-.26,0-.62-.59c-.07-.32,0-.56.37-.31A2.92,2.92,0,0,1,118.56,42.33Z"/><path id="_Caminho_141" data-name="&lt;Caminho&gt;" class="cls-6" d="M116.1,39.91a1.56,1.56,0,0,0-.35-1.19.54.54,0,0,1,0-.74h0c.16-.08.38-.32.43.07A3,3,0,0,1,116.1,39.91Z"/><path id="_Caminho_142" data-name="&lt;Caminho&gt;" class="cls-6" d="M115,32.91h.69c.06.31.19.64-.31.72-.45-.27-.49.25-.74.37C114.21,33.46,114.44,33.13,115,32.91Z"/><path id="_Caminho_143" data-name="&lt;Caminho&gt;" class="cls-6" d="M115.38,33.63l.31-.72c.43.42.31.92.23,1.41Z"/><path id="_Caminho_144" data-name="&lt;Caminho&gt;" class="cls-6" d="M113.56,48.8a3.59,3.59,0,0,1,2.17-1.5,4.7,4.7,0,0,0,2.17-1.46c.26-.13.35-.39.46-.62s.21-.37.47-.31.33.28.31.55a2.55,2.55,0,0,1-.61,1.33,1.86,1.86,0,0,0-.44.65A5,5,0,0,1,113.56,48.8Z"/><path id="_Caminho_145" data-name="&lt;Caminho&gt;" class="cls-6" d="M118.09,47.43c-.15-.38.15-.57.34-.82a3,3,0,0,0,.42-.66c.1-.24.18-.59,0-.73s-.37.24-.55.37l-.37.24.56-1.22.53-.87A2.88,2.88,0,0,1,118.09,47.43Z"/><path id="_Caminho_146" data-name="&lt;Caminho&gt;" class="cls-6" d="M109.82,17.58a13.14,13.14,0,0,1,.52-2.64.74.74,0,0,1,1-.12,1.54,1.54,0,0,1,1.34,1.29c.08.42.51.72.45,1.19a2.52,2.52,0,0,1-.38.67,2.24,2.24,0,0,1-.48.51q-1.5,1.41-2.23-.53A1.77,1.77,0,0,0,109.82,17.58Z"/><path id="_Caminho_147" data-name="&lt;Caminho&gt;" class="cls-6" d="M113,24l-.19.06c-.87-.84-.54.42-.89.48s-.55-.08-.8.08-.2.42-.37.58-.21.13-.33,0c-.09.06-.15.29-.31.07s-.14-.63-.2-1c.45-.66-.17-1.27-.12-1.91.28-.19.34-.52.49-.79.48-.87.77-1,1.66-.47a4.94,4.94,0,0,0,.47.24l.23.1A3,3,0,0,1,113,24Z"/><path id="_Caminho_148" data-name="&lt;Caminho&gt;" class="cls-6" d="M111.51,11.45a2.75,2.75,0,0,0,1.39.15c1.13-.09,1,.59,1,1.25,0,.17,0,.35,0,.52l-.07.1c-.49.29-1.18.27-1.41,1-.12.36-.62.2-1,.23s-.72-.25-.94-.59A16.06,16.06,0,0,1,111.51,11.45Z"/><path id="_Caminho_149" data-name="&lt;Caminho&gt;" class="cls-6" d="M112.47,21.73h-.13a8.06,8.06,0,0,0-1.69-1.63c-.26-.26-.88-.07-.88-.65a8.58,8.58,0,0,1,.05-1.89c.3,0,.42.29.61.47.66.65,1,.64,1.65,0,.12-.12.27-.23.4-.34a.62.62,0,0,1,.71.3.75.75,0,0,1,0,.51.87.87,0,0,0,.16.9c.2.24.36.48.08.77-.31.13-.49.28-.22.63a1.15,1.15,0,0,1,.06,1.28C112.91,22.11,112.9,21.54,112.47,21.73Z"/><path id="_Caminho_150" data-name="&lt;Caminho&gt;" class="cls-6" d="M110.71,19.82l.36-.26c.21-.15.39-.47.67-.3s0,.47-.08.66c-.39.57.72.48.44,1,.72.1.18.56.26.84a.25.25,0,0,1-.09,0,2.28,2.28,0,0,0-1.91.61c-.15.16-.28.32-.51.1a12.58,12.58,0,0,1-.09-2.33C110.07,20,110.22,19.46,110.71,19.82Z"/><path id="_Caminho_151" data-name="&lt;Caminho&gt;" class="cls-6" d="M110.55,14.09l1,.33a.48.48,0,0,1,.2.13c.23.41-.13.44-.37.56l-1.08-.17Z"/><path id="_Caminho_152" data-name="&lt;Caminho&gt;" class="cls-6" d="M110.71,19.82c-.36,0-.56.46-1,.32,0-.22-.14-.45,0-.67C110,19.71,110.6,19.18,110.71,19.82Z"/><path id="_Caminho_153" data-name="&lt;Caminho&gt;" class="cls-6" d="M116.46,11.62c.41-.37,1.07-.46,1.27-1.06.86,0,.09.47.18.7l-.37,1.24a.93.93,0,0,1-1-.27A.63.63,0,0,1,116.46,11.62Z"/><path id="_Caminho_154" data-name="&lt;Caminho&gt;" class="cls-6" d="M116.82,12c.45-.11.47.35.72.51a1.11,1.11,0,0,1,.36,1.22h-.18A1.35,1.35,0,0,1,116.82,12Z"/><path id="_Caminho_155" data-name="&lt;Caminho&gt;" class="cls-6" d="M111.63,49.17l-.25,0a9.18,9.18,0,0,1,1.83-.8c-.11.54-.69.48-.9.81Z"/><path id="_Caminho_156" data-name="&lt;Caminho&gt;" class="cls-6" d="M74.59,28.73c0,.12-.56.24,0,.34,1.45.27,1.45.26,1.46,1.69a11.78,11.78,0,0,0,.07,2.08c.17.88-.17,1.26-1,1.33a.4.4,0,0,0-.37.19c.44.41,1.16-.32,1.43.28a4.75,4.75,0,0,1,.18,1.54c0,.43.05.87.07,1.3a.6.6,0,0,1-.53.69c-.38,0-.78.1-1.12-.16-1.49,0-1.71-.26-1.53-1.64a14.83,14.83,0,0,0,.11-2.52c0-.7.12-1.13,1-1a.52.52,0,0,0,.52-.21c-.44-.16-1,0-1.29-.44s0-.85,0-1.28,0-.76,0-1.13c-.08-.82.23-1.21,1.12-1.08Z"/><path id="_Caminho_157" data-name="&lt;Caminho&gt;" class="cls-6" d="M69.54,22.45a6,6,0,0,1-.53-3.3c-.12-.49-.54-1,.15-1.43.5,0,.69-.36.81-.76.82-1,1.42-2.06,2.25-3a3.6,3.6,0,0,1,2.39-1.5.62.62,0,0,1,.46.75,4.68,4.68,0,0,0-.57,3.16c.15.58-.57.59-.77,1-.6.61-1.28,1.18-1.16,2.15-.24,0-.67-.15-.42.42s.28.91.76,1.18c.13.4-.35.42-.45.68l-.63.58c-.31.16-.49-.08-.71-.2l-.28-.19c-.28.37-1-.08-1.13.54Z"/><path id="_Caminho_158" data-name="&lt;Caminho&gt;" class="cls-6" d="M74.78,13.23l-.21-.56a.4.4,0,0,1,.15-.5.64.64,0,0,1,.4-.1A8.11,8.11,0,0,1,78.89,16a17.87,17.87,0,0,1,.19,7c-.48.56-.6-.16-.9-.24-.57-.3-.52-1-.89-1.38a2.4,2.4,0,0,1,0-.49c.36-.41-.14-1,.4-1.41-.16-.26.39-.49,0-.76-.7.06-1-.45-1.24-.91-.16-.23-.46-.26-.65-.44-.38-.36-.74-.65-.54-1.31C75.6,15.07,75.06,14.15,74.78,13.23Z"/><path id="_Caminho_159" data-name="&lt;Caminho&gt;" class="cls-6" d="M72.95,41.67a2,2,0,0,1,2.37.17,5.87,5.87,0,0,1,1.23,1c.2.31.63.53.45,1a.46.46,0,0,1-.63.08,2.43,2.43,0,0,1-1.39-1c-.34-.45-.69-.67-1.17-.25s-.23.77.11,1.12l.32.3a2.75,2.75,0,0,1-.53,1.2l-.58.56a.57.57,0,0,1-.8-.11C71.08,44.58,71.55,42.09,72.95,41.67Z"/><path id="_Caminho_160" data-name="&lt;Caminho&gt;" class="cls-6" d="M70.46,43.06a4.21,4.21,0,0,1,1.45-1.46c.32.32.07.59-.1.85a4.44,4.44,0,0,0-.68,2.2,3.29,3.29,0,0,0,2.32,2.42A6.2,6.2,0,0,1,76,48.65a.22.22,0,0,1,0,.28c-.41.42-1,.28-1.41.22-2-.23-3.64-.94-4.45-2.87a3.82,3.82,0,0,1,.06-2.39A4,4,0,0,0,70.46,43.06Z"/><path id="_Caminho_161" data-name="&lt;Caminho&gt;" class="cls-6" d="M74.6,28.74c-.67-.24-1.38-.33-.94-1.41.15-.38-.11-1.1-.16-1.67-.07-.74.65-.72,1-.85a.94.94,0,0,1,1.25.43c0,.08.11.2.08.23-.62.67.14,1.27.12,1.92,0,1.19,0,1.31-1.36,1.33Z"/><path id="_Caminho_162" data-name="&lt;Caminho&gt;" class="cls-6" d="M73.71,38.68h2.16c.32,0,.65,0,.66.42a9.07,9.07,0,0,1,.13,2.79,5.29,5.29,0,0,0-3.26-1.34c-.37,0-.38-.3-.36-.58,0-.43.08-.87.12-1.3A.37.37,0,0,1,73.71,38.68Z"/><path id="_Caminho_163" data-name="&lt;Caminho&gt;" class="cls-6" d="M82.51,43.59a10.24,10.24,0,0,0,2.19,3c.42.66.38.73-.36.77a1.22,1.22,0,0,1-.59,0,4.31,4.31,0,0,1-1.49-1.2,38,38,0,0,1-2.38-3.38c-.28-.44-.81-.68-1-1.21.11-.59.47-.53.91-.35s.67.55,1.12.64l.68.56A1.61,1.61,0,0,1,82.51,43.59Z"/><path id="_Caminho_164" data-name="&lt;Caminho&gt;" class="cls-6" d="M92.84,48.45a2.5,2.5,0,0,1-1.59-.89,1.55,1.55,0,0,0-1.88-.32,1,1,0,0,0-.73,1.36A3.11,3.11,0,0,1,88.38,50a4.21,4.21,0,0,0,.11,2c-1.12-.23-1.31-.49-1-1.53.22-.69.41-1.3-.22-1.9-.31-.29-.19-.63.1-.91a2,2,0,0,0,1.52-.8,1.12,1.12,0,0,1,1.19-.4c1,.12,1.73.88,2.58,1.33C93,47.85,92.84,48.19,92.84,48.45Z"/><path id="_Caminho_165" data-name="&lt;Caminho&gt;" class="cls-6" d="M79.1,41.47A16.75,16.75,0,0,1,82,45c.52.69.89,1.53,1.81,1.87.28.38,1,.21,1.09.86a3.08,3.08,0,0,1-2.61-1.08,14.63,14.63,0,0,1-2.66-3.57,5.2,5.2,0,0,0-2-2.14A1,1,0,0,1,79.1,41.47Z"/><path id="_Caminho_166" data-name="&lt;Caminho&gt;" class="cls-6" d="M75.08,22.52c.48.3.94.79.67,1.25a1.69,1.69,0,0,1-1.47.79.69.69,0,0,1-.74-.7c-.05-.47,0-.89.7-.81-.25-.46-1-.66-.64-1.21s.84-.41,1.29-.38.79,0,.88.44S75.33,22.33,75.08,22.52Z"/><path id="_Caminho_167" data-name="&lt;Caminho&gt;" class="cls-6" d="M72.58,19.47c-.29-.46-.85-.73-1-1.34.35-.17.55.2.9.16.08-.3-.4-.39-.34-.68s.39.11.59-.06l-.28-.61c.44-.11.64.38,1,.28a.43.43,0,0,1,.61.29c.13.42.58.63.68,1.06.13.84-.61,1-1.12,1.26C73.33,19.67,72.86,19.84,72.58,19.47Z"/><path id="_Caminho_168" data-name="&lt;Caminho&gt;" class="cls-6" d="M73.69,19.84c-.13-.72.61-.79.92-1.19a.59.59,0,0,1,.93-.15c.18.26.45.48.48.82.07.51-.46.82-.46,1.35,0,.22-.56.46-.9.32s-.81-.09-.55-.69C74.22,20,73.84,20,73.69,19.84Z"/><path id="_Caminho_169" data-name="&lt;Caminho&gt;" class="cls-6" d="M81.45,49.16c.18-.21.3-.45.7-.37.78.16,1.58.26,2.37.36.29,0,.54.07.53.43s-.3.36-.57.33L82,49.67c-.34,0-.58-.14-.54-.53Z"/><path id="_Caminho_170" data-name="&lt;Caminho&gt;" class="cls-6" d="M81.63,47.59c.16-.05.25-.29.46-.2a9,9,0,0,0,2.82.77c.15,0,.29.1.26.28s-.21.18-.35.21a4.62,4.62,0,0,1-3.35-.75C81.38,47.73,81.47,47.64,81.63,47.59Z"/><path id="_Caminho_171" data-name="&lt;Caminho&gt;" class="cls-6" d="M76,19.32c-.19-.22-.86-.08-.57-.68s.36-1.24,1.26-1.06c.35.21.6-.15.94-.15.07.4-.43.5-.49.83.36.22.67-.52,1,0,0,.7-.49,1-1,1.22a.57.57,0,0,1-.91,0s.13-.08.09-.16-.09,0-.13,0H76Z"/><path id="_Caminho_172" data-name="&lt;Caminho&gt;" class="cls-6" d="M78.37,22.45c.12-.12.24-.34.35-.33.29,0,.17.28.19.47s-.24.42.18.41l0,.51c-.3.79-.3.79-1.41,1l.5-.94c-.62.12-.81.68-1.28.8V24c-.17-.3,0-.48.21-.68A8.81,8.81,0,0,0,78.37,22.45Z"/><path id="_Caminho_173" data-name="&lt;Caminho&gt;" class="cls-6" d="M81.63,47.59l-.16.32a5,5,0,0,1-2.9-1.37c-.07-.14,0-.19.13-.23s.35-.2.57,0a5,5,0,0,0,2,.82C81.57,47.13,81.62,47.35,81.63,47.59Z"/><path id="_Caminho_174" data-name="&lt;Caminho&gt;" class="cls-6" d="M78.19,48.64a1,1,0,0,1,1.36-.31,4.3,4.3,0,0,0,1.38.29c.39,0,.52.21.52.54h0a.94.94,0,0,1-1.12.19c-.68-.32-1.53-.18-2.13-.71Z"/><path id="_Caminho_175" data-name="&lt;Caminho&gt;" class="cls-6" d="M78.69,46.31l-.13.23a1,1,0,0,1-1-.34c-.45-.41-1.1-.56-1.48-1.06,0-.2.23-.28.35-.42C77.21,45.17,78.21,45.38,78.69,46.31Z"/><path id="_Caminho_176" data-name="&lt;Caminho&gt;" class="cls-6" d="M76.38,44.73l-.35.42a7,7,0,0,1-1.92-1.65c-.15-.15-.27-.33-.09-.54s.35-.2.47,0C75,43.65,75.89,44,76.38,44.73Z"/><path id="_Caminho_177" data-name="&lt;Caminho&gt;" class="cls-6" d="M78.2,48.63a4.92,4.92,0,0,1-2.48-1.06.43.43,0,0,1,.3-.35c.85-.11,1.47.47,2.2.72.31.1,0,.46,0,.7Z"/><path id="_Caminho_178" data-name="&lt;Caminho&gt;" class="cls-6" d="M76,47.22l-.3.35c-.9-.12-1.38-.86-2-1.34-.16-.12-.13-.31,0-.46s.31-.16.4-.06C74.67,46.32,75.6,46.47,76,47.22Z"/><path id="_Caminho_179" data-name="&lt;Caminho&gt;" class="cls-6" d="M84.87,47.75c-.34-.31-.84-.44-1.09-.86.27-.19,1,.78.92-.31l1.21.54c.25.11.46.18.32.56s-.37.37-.68.27Z"/><path id="_Caminho_180" data-name="&lt;Caminho&gt;" class="cls-6" d="M84.71,50.36c-1-.1-2,.53-3.06.35,0-.35-1.21-.11-.42-.82C82.37,50.21,83.59,49.95,84.71,50.36Z"/><path id="_Caminho_181" data-name="&lt;Caminho&gt;" class="cls-6" d="M79.1,41.47A3.64,3.64,0,0,0,77.59,41c-.16,0-.4,0-.39-.24s.18-.19.34-.18a5.18,5.18,0,0,1,3.39,1.26c-.39.16-.59-.12-.85-.31S79.44,41,79.1,41.47Z"/><path id="_Caminho_182" data-name="&lt;Caminho&gt;" class="cls-6" d="M86.31,49.12c.24.16.91-.23.81.38s-.8.42-1.27.49-.46-.11-.43-.45C85.46,48.9,85.91,49.12,86.31,49.12Z"/><path id="_Caminho_183" data-name="&lt;Caminho&gt;" class="cls-6" d="M73,41.64c-1.11.31-1.62,1.11-1.66,2.64l-.18.37a2.27,2.27,0,0,1,.27-2.23l.51-.82.69-.48Z"/><path id="_Caminho_184" data-name="&lt;Caminho&gt;" class="cls-6" d="M71.11,22.13l.59,0a.34.34,0,0,1,.24-.08c.42.19.49.58.56,1-.09.38.27.65.27,1A4.49,4.49,0,0,1,71.11,22.13Z"/><path id="_Caminho_185" data-name="&lt;Caminho&gt;" class="cls-6" d="M77.81,43.75c.14-.2.25-.32.42,0a3,3,0,0,0,.67,1.08c.19.11.38.28.2.47s-.48,0-.73,0l-.17-.15c-.13-.17-.38-.18-.49-.36A1.67,1.67,0,0,1,77.81,43.75Z"/><path id="_Caminho_186" data-name="&lt;Caminho&gt;" class="cls-6" d="M77.31,20.88l.35.35a1.18,1.18,0,0,1-.79,1.06h-.13c-.75-.33-.14-.74,0-1.07C76.77,21.06,77.1,21,77.31,20.88Z"/><path id="_Caminho_187" data-name="&lt;Caminho&gt;" class="cls-6" d="M73.71,38.68h-.54c0-.5.27-.48.63-.43s.73.16.94-.26a2.24,2.24,0,0,1,1.12.16C75.21,38.59,74.39,38.37,73.71,38.68Z"/><path id="_Caminho_188" data-name="&lt;Caminho&gt;" class="cls-6" d="M80,45.83l-.9-1.41c.12-.16.31-.15.49-.17.26.41.66.74.75,1.24C80.36,45.7,80.41,46,80,45.83Z"/><path id="_Caminho_189" data-name="&lt;Caminho&gt;" class="cls-6" d="M77.83,44.79l.36.38a3.16,3.16,0,0,1-1.83-1.23l.59-.2q.11-.16.15,0h0C77.35,44.09,77.91,44.23,77.83,44.79Z"/><path id="_Caminho_190" data-name="&lt;Caminho&gt;" class="cls-6" d="M76.57,22.93c-.37-.31.12-.42.16-.63l0,0c.1-.06,0,0,.08,0,.33-.1.63-.69,1-.28a.8.8,0,0,1-.27,1.19.66.66,0,0,1-.41.05C76.94,23.12,76.68,23.19,76.57,22.93Z"/><path id="_Caminho_191" data-name="&lt;Caminho&gt;" class="cls-6" d="M72.26,21.58c-.51-1,.53-.23.65-.51.69.34,0,.69,0,1C72.49,22.18,72.29,22,72.26,21.58Z"/><path id="_Caminho_192" data-name="&lt;Caminho&gt;" class="cls-6" d="M72.5,23c-.43-.14-.47-.56-.65-.88.07-.41.34-.22.51-.13a10.53,10.53,0,0,1,.94.64C73.24,23.15,72.84,23,72.5,23Z"/><path id="_Caminho_193" data-name="&lt;Caminho&gt;" class="cls-6" d="M77.1,43.76l-.15,0-.58-.85c0-.18,0-.24.21-.19l.58.49c0-.72,0-1.3,0-1.87,0,0,0,0,0,0l.08,0A7,7,0,0,1,77.1,43.76Z"/><path id="_Caminho_194" data-name="&lt;Caminho&gt;" class="cls-6" d="M77.12,19.47l1-1.22c.54.66,0,.92-.47,1.22Z"/><path id="_Caminho_195" data-name="&lt;Caminho&gt;" class="cls-6" d="M78,49.12c-.29,0-.44.24-.67.35-.34-.37-1.15.07-1.28-.67l0-.14C76.79,48.37,77.33,49,78,49.12Z"/><path id="_Caminho_196" data-name="&lt;Caminho&gt;" class="cls-6" d="M73.31,22.63c-.54,0-.89-.56-1.45-.52H71.7c.07-.29.31-.41.56-.53l.66.52Z"/><path id="_Caminho_197" data-name="&lt;Caminho&gt;" class="cls-6" d="M77.1,22.81l.23.22c.19.18.06.33,0,.49l-.35.5c-1.07.09-.78-.49-.55-1C76.72,23.26,76.9,23,77.1,22.81Z"/><path id="_Caminho_198" data-name="&lt;Caminho&gt;" class="cls-6" d="M76.17,19.32c.11-.59.67-.4,1.05-.55a1,1,0,0,1-1,.71A1.69,1.69,0,0,0,76.17,19.32Z"/><path id="_Caminho_199" data-name="&lt;Caminho&gt;" class="cls-6" d="M75,44.93c-.38,0-.28.36-.37.56l-.73-.34c0-.51.22-.73.73-.72A.86.86,0,0,1,75,44.93Z"/><path id="_Caminho_200" data-name="&lt;Caminho&gt;" class="cls-6" d="M80.47,48.14c-.45,0-.95,0-1.25-.49A1.77,1.77,0,0,1,80.47,48.14Z"/><path id="_Caminho_201" data-name="&lt;Caminho&gt;" class="cls-6" d="M74.61,44.43c-.23.25-.63.35-.73.72l-.17.13c0-.46,0-.94.53-1.2Z"/><path id="_Caminho_202" data-name="&lt;Caminho&gt;" class="cls-6" d="M82.51,43.59l-.9-1.23.21-.22a3.35,3.35,0,0,1,.85,1.26Z"/><path id="_Caminho_203" data-name="&lt;Caminho&gt;" class="cls-6" d="M76.58,42.7l-.21.19-1.06-1C75.94,41.85,76.25,42.29,76.58,42.7Z"/><path id="_Caminho_204" data-name="&lt;Caminho&gt;" class="cls-6" d="M69.71,22.48c-.12-1.14.72-.42,1.13-.54l.07,1.12c-.4-.11-.39-.54-.71-.69-.3.27.08.59-.08.92A.94.94,0,0,1,69.71,22.48Z"/><path id="_Caminho_205" data-name="&lt;Caminho&gt;" class="cls-6" d="M76.06,48.79c.42.23,1,.17,1.28.67l-.22,0c-.8,0-1.59.05-2.39,0a8.13,8.13,0,0,1-3.49-.95c-1.74-1.66-2-3.31-.78-5.55.17.43-.12.79-.18,1.18a3.44,3.44,0,0,0,2,3.78A6.61,6.61,0,0,0,76.06,48.79Z"/><path id="_Caminho_206" data-name="&lt;Caminho&gt;" class="cls-6" d="M64,15c.71-.65,1.17-1.56,2.12-2,.26-.18.5-.49.86-.26s.14.45,0,.66c.24-.15.35-.39.56-.55A16.17,16.17,0,0,1,69.82,12a11.32,11.32,0,0,1,3.87-.23c.29,0,.65,0,.74.36s-.27.45-.5.61c-.65.45-1.12,1.1-1.75,1.58-.57.09-.79,1-1.53.64H70.4c-.72-.25-.81.56-1.29.72-.41,0-.42.32-.52.57a2.89,2.89,0,0,0-.31.34.9.9,0,0,0-.23.94,1.74,1.74,0,0,1,.08.92.74.74,0,0,0-.13.81.54.54,0,0,1-.26.74,3.5,3.5,0,0,1-.72-.86c-.28-.34-.36-.12-.41.16s.1.8-.54.71c-.14-.22-.29-.54-.47,0a2.92,2.92,0,0,0-.07.67l-.18.57c-.17.31-.35.3-.48,0a2.77,2.77,0,0,1-.12-1.27,1.88,1.88,0,0,0-.1-1.16l-.39.34c-.42.24-.43-.09-.5-.34v-.36c.08-.15.21-.34,0-.45s-.37.1-.48.25c-.37.49-.46.25-.49-.17A7.29,7.29,0,0,1,64,15Z"/><path id="_Caminho_207" data-name="&lt;Caminho&gt;" class="cls-6" d="M64.67,18.78c.49.35.19.83.22,1.25s-.23,1,.47,1.19q0,1,0,1.9A8.39,8.39,0,0,1,64.67,18.78Z"/><path id="_Caminho_208" data-name="&lt;Caminho&gt;" class="cls-6" d="M63.78,18.79l.5.34-.35,1.21L63.6,21A5.26,5.26,0,0,1,63.78,18.79Z"/><path id="_Caminho_209" data-name="&lt;Caminho&gt;" class="cls-6" d="M77.11,49.68a10,10,0,0,1,2.88.53l.78.43c-.61.16-1-.12-1.47-.1l-2.23-.74A.16.16,0,0,1,77.11,49.68Z"/><path id="_Caminho_210" data-name="&lt;Caminho&gt;" class="cls-6" d="M80.31,52.36l-.5.12c-.28-.06-.65.14-.84-.11s.15-.33.31-.45C79.58,52.14,80.28,51.5,80.31,52.36Z"/><path id="_Caminho_211" data-name="&lt;Caminho&gt;" class="cls-6" d="M67.76,20c-.11-.44-.22-.88-.32-1.32,0-.18-.16-.44.06-.53s.31.22.49.29a.22.22,0,0,1,.33,0,.26.26,0,0,1-.05.34c.73.86.73,1.18,0,1.57Z"/><path id="_Caminho_212" data-name="&lt;Caminho&gt;" class="cls-6" d="M66.09,20c.28-.16.37-.46.54-.71-.13.81.35,1.61,0,2.42A4,4,0,0,1,66.09,20Z"/><path id="_Caminho_213" data-name="&lt;Caminho&gt;" class="cls-6" d="M68.27,18.78v-.33c-.2-.29-.37-.57-.09-.9a4.39,4.39,0,0,0,.5-.53c.39-.3,0-.37-.16-.51a.27.27,0,0,1-.06-.33c-.12-.32-.29-.65.08-.91s.35.08.49.21a5.34,5.34,0,0,1,.77.58c.06.15.13.3.18.46a1.36,1.36,0,0,1-.63,1.39c-.31.37-.17.85-.32,1.26A1.07,1.07,0,0,0,68.27,18.78Z"/><path id="_Caminho_214" data-name="&lt;Caminho&gt;" class="cls-6" d="M83.44,6.74a5.44,5.44,0,0,1,2.9,1.93c-.67-.14-1.06-.51-1.71-.45l1.16,1.11a3.63,3.63,0,0,1-1.31.21c-2.51,0-5,.23-7.52.42-.27-.52.05-.78.46-1a9.87,9.87,0,0,1,1.41-.78.94.94,0,0,0,.56-.71.62.62,0,0,1,.46-.38C81,6.94,82.17,6.12,83.44,6.74Z"/><path id="_Caminho_215" data-name="&lt;Caminho&gt;" class="cls-6" d="M73.85,12a17.6,17.6,0,0,0-4.12.36c-.19.06-.24-.05-.27-.2a.49.49,0,0,1,.33-.39A4.18,4.18,0,0,0,71.56,11a.41.41,0,0,1,.5,0c-.07.79.64.34.95.54a1.25,1.25,0,0,0,1.34.05c.31-.31-.17-.77-.35-1.15l-.15-.31c-.06-.15,0-.24.14-.3.52-.11.49.41.76.61.05.09.1-.08,0,0s0,0-.07-.05a.56.56,0,0,1-.13-.57.63.63,0,0,1,.52-.36c.73.22,1.06-.59,1.7-.62a.49.49,0,0,1,.35.12c.2.5-.39.65-.48,1s-.32.55-.34,1a1.33,1.33,0,0,1,1.23.71l.14.39c-.2.44-.62.39-1,.39a3.33,3.33,0,0,0-1,0c-.2,0-.4,0-.59,0h-.32C74.44,12.33,74.22,12,73.85,12Z"/><path id="_Caminho_216" data-name="&lt;Caminho&gt;" class="cls-6" d="M77.53,11.59c-.33-.12-.61-.39-1,0a.7.7,0,0,1-.9,0c-.22-.27,0-.59.17-.88.32-.67,1-1.05,1.38-1.67a2,2,0,0,1,2.5-1.35c.1.7-.56.71-1,1C78.05,9,77.3,9.21,77,10Z"/><path id="_Caminho_217" data-name="&lt;Caminho&gt;" class="cls-6" d="M75.54,12.17A7,7,0,0,1,77.67,12a13.06,13.06,0,0,1,1,3.15c-.73-.2-.91-1-1.5-1.34s-.94-.87-1.52-1.2C75.57,12.51,75.39,12.38,75.54,12.17Z"/><path id="_Caminho_218" data-name="&lt;Caminho&gt;" class="cls-6" d="M75.54,12.17c.65.55,1.28,1.11,2,1.63a4.86,4.86,0,0,1,1.23,1.32l.17.85a14.29,14.29,0,0,0-3.78-3.62Z"/><path id="_Caminho_219" data-name="&lt;Caminho&gt;" class="cls-6" d="M76.75,9l-1.48,1.54c-.2-.33-.09-.68-.15-1-.44-.46-.22-1.06-.35-1.58,0-.33,0-.66,0-1,0,.43,0,.87,0,1.3s0,1.1-.56,1.19-.89-.48-1.16-.92c-.1-.16.06-.4-.11-.57-.31-.62-1.07-1.07-.72-1.92a.79.79,0,0,0,.74.73c.15-.47-.47-.78-.2-1.23.54.13.54.13.43-.73.67.23.67.23.66-1.17l.53,1.14a1.36,1.36,0,0,1,.9,0,.39.39,0,0,1,0-.11l1,1.2s.13.07.13.1c0,.79.38.89,1,.48l.11.12A6.18,6.18,0,0,0,76.93,8C77.18,8.37,76.9,8.68,76.75,9Z"/><path id="_Caminho_220" data-name="&lt;Caminho&gt;" class="cls-6" d="M73,8c.06.07.12.13.17.2.29.39.51,1.09,1,1s.39-.88.43-1.38-.25-1.32.37-2V7.82c-.14.68.18,1.4-.16,2.07l-.07.6c-.37-.1-.43-.44-.67-.61C73,9,71.72,8.31,70.6,7.45c.27-.1.23-.31.2-.52a6.23,6.23,0,0,1,1.61.93C72.55,8,72.71,8.31,73,8Z"/><path id="_Caminho_221" data-name="&lt;Caminho&gt;" class="cls-6" d="M76.75,9c-.35-.41-.58-.8.18-1a1.68,1.68,0,0,0,.78-.39,6.48,6.48,0,0,1,4.46-1.2,2.76,2.76,0,0,1,1.27.36,1.21,1.21,0,0,1-.78-.07c-.16,0-.47-.09-.5,0-.57,1-1.7.61-2.52,1A7.55,7.55,0,0,0,77.15,9Z"/><path id="_Caminho_222" data-name="&lt;Caminho&gt;" class="cls-6" d="M75.31,4.79a1.12,1.12,0,0,1-.9,0,16.53,16.53,0,0,0,.34-2.4c.48.24.28.69.35,1.05S75,4.37,75.31,4.79Z"/><path id="_Caminho_223" data-name="&lt;Caminho&gt;" class="cls-6" d="M97.88,49.49c.37.13.54.84,1.1.39a2,2,0,0,0,0-2.14c-.4-.48-.81-.18-1.19,0-.58.32-.57.33-1.39.1A2.78,2.78,0,0,1,100.6,47a1.09,1.09,0,0,1,.49,1.28c-.14.71-.26,1.42-.35,2.14a1.31,1.31,0,0,1-1.92,1,4.27,4.27,0,0,1-.89-1C97.78,50.07,97.57,49.8,97.88,49.49Z"/><path id="_Caminho_224" data-name="&lt;Caminho&gt;" class="cls-6" d="M104.74,47.75l-1.75.39c-.16,0-.37.17-.48,0s.07-.32.16-.47a1,1,0,0,1,.65-.44,5,5,0,0,0,2.79-2.34c.51-.82,1-1.63,1.61-2.41a2.05,2.05,0,0,1,.94-.79c.58-.12,1-.84,1.72-.41a.39.39,0,0,1-.11.53,32.17,32.17,0,0,0-3.43,4.38A6.59,6.59,0,0,1,104.74,47.75Z"/><path id="_Caminho_225" data-name="&lt;Caminho&gt;" class="cls-6" d="M104.74,47.75c.25-.66,1-.89,1.37-1.45.69-1,1.44-2,2.16-3a10.94,10.94,0,0,1,2.07-2c.29-.36.58-.63.89,0a4.32,4.32,0,0,0-1.32,1.51,34.06,34.06,0,0,1-2.5,3.6A3.33,3.33,0,0,1,104.74,47.75Z"/><path id="_Caminho_226" data-name="&lt;Caminho&gt;" class="cls-6" d="M98.95,51.08a.81.81,0,0,0,1.26-.52,28.2,28.2,0,0,0,.51-3,2.3,2.3,0,0,0-.11-.5c1.4.17,1.43.22,1.08,1.57-.19.72-.51,1.42,0,2.15.24.32,0,.66-.34.78a3,3,0,0,1-2.82.15C98.43,51.3,98.5,51.07,98.95,51.08Z"/><path id="_Caminho_227" data-name="&lt;Caminho&gt;" class="cls-6" d="M114.66,36.94c.32.29.27.71.37,1.07,0,.92-.23,1.21-1.1,1.37h0c-.29-.41-.3-1.05-1.05-1.08-.21,0-.24-.29-.19-.5l-.22-.66c-.08-.35.11-.65.15-1,.38-.45.81-.63,1,.05C113.85,36.75,114.48,36.52,114.66,36.94Z"/><path id="_Caminho_228" data-name="&lt;Caminho&gt;" class="cls-6" d="M115,32.91a3.12,3.12,0,0,0-.37,1.08l-.52.17c-.7.41-.78-.48-1.26-.55a.73.73,0,0,1-.22-.7,3.89,3.89,0,0,1-.18-1.75c0-.24.11-.38.39-.33l.12,0c.41.23.9.35,1.18.76.24.15.34.42.53.62Z"/><path id="_Caminho_229" data-name="&lt;Caminho&gt;" class="cls-6" d="M114.48,30a1.64,1.64,0,0,1,.37.89c.12.52-.16.8-.62,1-.56-.2-.9-.69-1.38-1h0l-.18-.54c-.21-.48.27-.78.35-1.18C113.76,28.86,114,29,114.48,30Z"/><path id="_Caminho_230" data-name="&lt;Caminho&gt;" class="cls-6" d="M108,47.72c-.09.21-.16.4-.44.48-.86.23-1.72.5-2.58.74-.27.07-.63.17-.73-.24s.14-.55.54-.6a6.32,6.32,0,0,0,2.31-.66c.35-.19.55,0,.77.17C107.92,47.59,108,47.63,108,47.72Z"/><path id="_Caminho_231" data-name="&lt;Caminho&gt;" class="cls-6" d="M114.48,30c-.5-.12-.73-.66-1.27-.71s-.46-.22-.37-.53v-.28a1,1,0,0,1,.25-1.25.61.61,0,0,1,.46-.08.82.82,0,0,1,.5.29,4.85,4.85,0,0,0,.61,1,.83.83,0,0,0,.37.55Z"/><path id="_Caminho_232" data-name="&lt;Caminho&gt;" class="cls-6" d="M98.95,51.08a.94.94,0,0,0-.38.58,1.86,1.86,0,0,1-.93-1.12,1.91,1.91,0,0,0-1.53-1.29c-.52-.1-.8-.34-.2-.76.86,0,1.63.13,2,1v0C97.95,50.2,98.6,50.54,98.95,51.08Z"/><path id="_Caminho_233" data-name="&lt;Caminho&gt;" class="cls-6" d="M94.08,47.43a2.15,2.15,0,0,0,1-.28.62.62,0,0,1,.81.17c.2.28,0,.53-.25.66a1,1,0,0,0-.46,1.33c.25.66-.39.24-.58.38a.78.78,0,0,1-.77-.94A2.54,2.54,0,0,1,94.08,47.43Z"/><path id="_Caminho_234" data-name="&lt;Caminho&gt;" class="cls-6" d="M107.8,49a5.65,5.65,0,0,1,3.29-.66c.28,0,.25.17.15.35a14.88,14.88,0,0,1-3.26.83C107.83,49.35,107.65,49.21,107.8,49Z"/><path id="_Caminho_235" data-name="&lt;Caminho&gt;" class="cls-6" d="M107.8,49l.18.52a14.27,14.27,0,0,1-3.65.31,1.82,1.82,0,0,1,1.25-.71c.61-.15,1.24-.23,1.85-.36C107.66,48.68,107.77,48.76,107.8,49Z"/><path id="_Caminho_236" data-name="&lt;Caminho&gt;" class="cls-6" d="M113,33.45c.67-.19.64.6,1.09.71l-.56,1.4c-.27.09-.49.3-.8.28s-.31-.35-.27-.61c.3-.32-.05-.52-.17-.75C112.56,34.13,112.33,33.49,113,33.45Z"/><path id="_Caminho_237" data-name="&lt;Caminho&gt;" class="cls-6" d="M108,47.72l-.13-.11c0-.23,0-.47.31-.55a6.11,6.11,0,0,0,2.06-.84c.17-.12.35-.12.44.08s.2.29.07.48A6.41,6.41,0,0,1,108,47.72Z"/><path id="_Caminho_238" data-name="&lt;Caminho&gt;" class="cls-6" d="M94.08,47.43a.75.75,0,0,1,.26.91,1.37,1.37,0,0,0,.29,1.35c-.34.27-.74.12-1.11.15l0,0c-.06-.59-.15-1.17-.19-1.76S93.52,47.33,94.08,47.43Z"/><path id="_Caminho_239" data-name="&lt;Caminho&gt;" class="cls-6" d="M113.4,45c-.46.72-1.31,1-2,1.47-.2.15-.41,0-.53-.18s-.13-.44.1-.52c.79-.28,1.32-1,2.19-1.14C113.53,44.63,113.51,44.8,113.4,45Z"/><path id="_Caminho_240" data-name="&lt;Caminho&gt;" class="cls-6" d="M111.24,48.66l-.15-.35c0-.14,0-.38.06-.4a11.88,11.88,0,0,1,2.41-.88c.18.07.29.17.2.38A5.4,5.4,0,0,1,111.24,48.66Z"/><path id="_Caminho_241" data-name="&lt;Caminho&gt;" class="cls-6" d="M113.4,45l-.19-.38c.42-.79,1.34-1.1,1.84-1.81.09-.13.28,0,.38.09a.27.27,0,0,1,0,.39C114.81,43.9,114.4,44.78,113.4,45Z"/><path id="_Caminho_242" data-name="&lt;Caminho&gt;" class="cls-6" d="M108.7,50l-.55.52a1.83,1.83,0,0,1-1.62.06c-.81-.36-1.72-.1-2.54-.37A41.21,41.21,0,0,1,108.7,50Z"/><path id="_Caminho_243" data-name="&lt;Caminho&gt;" class="cls-6" d="M111.05,24.36l.59-.49.31.7c.06.74.4,1.48,0,2.23-.08.11-.15.28-.25.3s-.1-.15-.13-.24a4.66,4.66,0,0,1-.19-1.58c-.17-.21-.51-.29-.52-.62A.35.35,0,0,1,111.05,24.36Z"/><path id="_Caminho_244" data-name="&lt;Caminho&gt;" class="cls-6" d="M102.35,49.38c-.3,0-.55,0-.44-.29.25-.76,1-.55,1.59-.74.37-.13.5.33.42.5C103.59,49.54,102.83,49.19,102.35,49.38Z"/><path id="_Caminho_245" data-name="&lt;Caminho&gt;" class="cls-6" d="M92.84,49.31a9.88,9.88,0,0,0-2.26,1.34c-.78.42-1.12.31-1.38-.45.46-.19,1,.48,1.45-.17a.33.33,0,0,1,.37-.36C91.7,49.86,92.14,49,92.84,49.31Z"/><path id="_Caminho_246" data-name="&lt;Caminho&gt;" class="cls-6" d="M112.51,43.23l.34-.36.76.73a16.29,16.29,0,0,1-2,1.4l-.1-.07c-.11-.48.51-.62.52-1C112.14,43.63,112.16,43.32,112.51,43.23Z"/><path id="_Caminho_247" data-name="&lt;Caminho&gt;" class="cls-6" d="M91,49.67l-.37.36H90.3c-.28,0-.6-.1-.61-.39s.39-.22.61-.31.4.15.33-.18c0-.05-.15-.08-.23-.12.37-.55.89,0,1.31-.17C91.95,49.48,91.19,49.34,91,49.67Z"/><path id="_Caminho_248" data-name="&lt;Caminho&gt;" class="cls-6" d="M113.58,27.35h-.36a.37.37,0,0,1-.34-.34,2.2,2.2,0,0,1-.15-1.34c.26.54.57.14.87.11l.16.16a1.51,1.51,0,0,1,.44.78A.64.64,0,0,1,113.58,27.35Z"/><path id="_Caminho_249" data-name="&lt;Caminho&gt;" class="cls-6" d="M111.22,41.29c-.3-.23-.59,0-.89,0-.63-.22-1.11.29-1.69.32a4.6,4.6,0,0,1,2.34-1c.22,0,.52-.09.62.19S111.43,41.2,111.22,41.29Z"/><path id="_Caminho_250" data-name="&lt;Caminho&gt;" class="cls-6" d="M110.66,45.46c-.32-.22-.12-.45,0-.68.43-.37.31-1,.79-1.37a6.18,6.18,0,0,1,.11,1.52l.08.07A1.51,1.51,0,0,1,110.66,45.46Z"/><path id="_Caminho_251" data-name="&lt;Caminho&gt;" class="cls-6" d="M91.72,48.84A4.3,4.3,0,0,1,90.4,49c-.28,0-.62.12-.8-.22a.32.32,0,0,1,.09-.4.76.76,0,0,1,.77,0C90.89,48.52,91.3,48.69,91.72,48.84Z"/><path id="_Caminho_252" data-name="&lt;Caminho&gt;" class="cls-6" d="M110.29,44.58c-.48.36-.45,1.19-1.24,1.26a.41.41,0,0,1,0-.55l.56-.86C109.83,44.54,110.18,44.06,110.29,44.58Z"/><path id="_Caminho_253" data-name="&lt;Caminho&gt;" class="cls-6" d="M105.44,43.91c.27-.23.24-1,.91-.5,0,.49-.48.79-.63,1.24-.17.09-.34.3-.52.07S105.33,44.18,105.44,43.91Z"/><path id="_Caminho_254" data-name="&lt;Caminho&gt;" class="cls-6" d="M98,48.81c-.15-.2-.42-.37-.2-.66a.63.63,0,0,1,.62-.25c.4.08.38.45.47.74A.69.69,0,0,1,98,48.81Z"/><path id="_Caminho_255" data-name="&lt;Caminho&gt;" class="cls-6" d="M112.69,37.81a1.76,1.76,0,0,1,1.25,1.58c-.38-.13-.39-1-1.09-.53-.4-.26-.38-.65-.36-1Z"/><path id="_Caminho_256" data-name="&lt;Caminho&gt;" class="cls-6" d="M113,33.45l-.69,1c.06-.53-.29-1.14.31-1.57A.82.82,0,0,1,113,33.45Z"/><path id="_Caminho_257" data-name="&lt;Caminho&gt;" class="cls-6" d="M112.5,35.23l.33.48c.19.16.15.34,0,.52l-.39.92A2.24,2.24,0,0,1,112.5,35.23Z"/><path id="_Caminho_258" data-name="&lt;Caminho&gt;" class="cls-6" d="M112.84,28.72l.37.53c0,.46-.39.68-.53,1C112.46,29.74,112.25,29.19,112.84,28.72Z"/><path id="_Caminho_259" data-name="&lt;Caminho&gt;" class="cls-6" d="M112.49,37.81a2.09,2.09,0,0,1,.36,1c-.08.19-.06.54-.36.46s-.14-.44-.2-.67S112.23,38,112.49,37.81Z"/><path id="_Caminho_260" data-name="&lt;Caminho&gt;" class="cls-6" d="M112.87,27l.34.34-.38,1.09C112.41,27.95,112.31,27.47,112.87,27Z"/><path id="_Caminho_261" data-name="&lt;Caminho&gt;" class="cls-6" d="M112.51,43.23a.88.88,0,0,1-.4.71q-.11.12-.15,0c-.44-.35.18-.69,0-1a2,2,0,0,0,.17-.88l.32.74A.48.48,0,0,0,112.51,43.23Z"/><path id="_Caminho_262" data-name="&lt;Caminho&gt;" class="cls-6" d="M112.1,46.54c.16.72-.3,1-1.29.7l1.31-.68Z"/><path id="_Caminho_263" data-name="&lt;Caminho&gt;" class="cls-6" d="M97.88,49.51a3.17,3.17,0,0,0-2-1C97.24,48.27,97.62,48.47,97.88,49.51Z"/><path id="_Caminho_264" data-name="&lt;Caminho&gt;" class="cls-6" d="M114.69,45.69c0-.27.23-.62-.24-.75a.76.76,0,0,1,.37-.5c.56-.09.79.16.77.68l-.08.09C115.09,45.14,115,45.55,114.69,45.69Z"/><path id="_Caminho_265" data-name="&lt;Caminho&gt;" class="cls-6" d="M102.53,49.77c.48-.09.94-.4,1.56-.12C103.52,50,103,49.8,102.53,49.77Z"/><path id="_Caminho_266" data-name="&lt;Caminho&gt;" class="cls-6" d="M98,48.81a1.8,1.8,0,0,1,.89-.17c0,.22.11.47-.24.54S98.1,49.2,98,48.81Z"/><path id="_Caminho_267" data-name="&lt;Caminho&gt;" class="cls-6" d="M69.9,9.54v.86c.44.58.08,1-.29,1.42a22.09,22.09,0,0,1-3.51,1l-.17-.15c-.08-.3-.34-.33-.59-.37a.35.35,0,0,1-.13-.48,1.87,1.87,0,0,1,.61-1,.63.63,0,0,1,1-.14c.21.19.3-.05.43-.14a8,8,0,0,0,1.43-.89l.1.05c.22.15,0,.42.19.58.11-.06.11-.16.13-.26s0-.16,0-.25C69.28,9.51,69.51,9.34,69.9,9.54Z"/><path id="_Caminho_268" data-name="&lt;Caminho&gt;" class="cls-6" d="M67.21,10.6c-.21.41-.21.41-.68.2-.22-.1-.32.07-.45.19l-.88.86c-.3-.66.48-1,.48-1.59Z"/><path id="_Caminho_269" data-name="&lt;Caminho&gt;" class="cls-6" d="M66.1,12.85a8.41,8.41,0,0,1,3.44-1.24,1.31,1.31,0,0,1,.38-.14c.15,0,.31.05.33.21s-.23.19-.35.28l-.37.19a19.4,19.4,0,0,1-1.9,1c-.4.18-.65.64-1.16.61-.11-.31.25-.41.32-.68-.22-.18-.48,0-.71,0Z"/><path id="_Caminho_270" data-name="&lt;Caminho&gt;" class="cls-6" d="M70.6,7.45a9.94,9.94,0,0,1,3.46,2.43l-.22.21a11.39,11.39,0,0,0-3.3-2.34c-.12-.05-.4-.1-.19-.34C70.38,7.38,70.51,7.44,70.6,7.45Z"/><path id="_Caminho_271" data-name="&lt;Caminho&gt;" class="cls-6" d="M69.9,12c.09-.11.24-.23,0-.33,0-.41.22-.45.55-.35h0c.72,0,.73-.59.91-1,.56-.07.45.5.71.71A2.81,2.81,0,0,1,69.9,12Z"/><path id="_Caminho_272" data-name="&lt;Caminho&gt;" class="cls-6" d="M70.44,11.28l-.55.35-.35,0,.36-1.22c.23-.17.39-.45.8-.47Z"/><path id="_Caminho_273" data-name="&lt;Caminho&gt;" class="cls-6" d="M69.9,9.54a.75.75,0,0,0-.6.51c-.48.37-.51-.1-.67-.33h0C69.14,9.08,69.47,9,69.9,9.54Z"/><path id="_Caminho_274" data-name="&lt;Caminho&gt;" class="cls-6" d="M71.34,10.25c-.05.55.15,1.31-.91,1Z"/><path id="_Caminho_275" data-name="&lt;Caminho&gt;" class="cls-6" d="M94.62,23.95c.47,1.35,1,2.67,2.38,3.4a6.68,6.68,0,0,0,.73.55c-.1.37-.45.13-.59.32l-.9.19c-1,.39-2,.64-3,1a1.78,1.78,0,0,0-1.39,1c-.64.31-1,.12-1.2-.54A9.18,9.18,0,0,1,90,27.45a4.24,4.24,0,0,1,.13-1.83.87.87,0,0,0,0-.62c0-.09.08-.17.09-.27a.37.37,0,0,0,0-.27.31.31,0,0,1,0-.18A.59.59,0,0,1,90.3,24v0a9.15,9.15,0,0,1,1.88-2.63,8.82,8.82,0,0,1,2.62-1.57c.18.5-.12,1-.19,1.43A13.17,13.17,0,0,0,94.62,23.95Z"/><path id="_Caminho_276" data-name="&lt;Caminho&gt;" class="cls-6" d="M90.26,27.52a8.4,8.4,0,0,0,.92,2.61c.1.3.34,0,.51,0,.6-.59,1.16,0,1.73.05.53-.09,1.26.12,1.25-.79a.62.62,0,0,1,.59-.52c.27,0,.41.19.55.37.42.3.45.87.86,1.18a4.24,4.24,0,0,1,1.25.56l5.91.38-.36.17a.81.81,0,0,1-.6.08,5.85,5.85,0,0,0-2.29.31,8.74,8.74,0,0,0-4.47-.1,12,12,0,0,1-3.29,0,10,10,0,0,0-4.23,0c-.24,0-.36-.12-.49-.26H86.89c-.49-.07-1,.07-1.47-.19a12.83,12.83,0,0,1,3.22-.21c1.38,0,1.38,0,1.45-1.34-.18-.61-.23-1.24-.39-1.86C89.57,27.51,89.74,27.25,90.26,27.52Z"/><path id="_Caminho_277" data-name="&lt;Caminho&gt;" class="cls-6" d="M95.35,29c-.29.1-.34.37-.46.59A1.38,1.38,0,0,1,93,29.8a.55.55,0,0,1,.14-.69,1.84,1.84,0,0,0,.41-.13,3,3,0,0,1,2.66-.58l-.25.52C95.82,29.22,95.56,29,95.35,29Z"/><path id="_Caminho_278" data-name="&lt;Caminho&gt;" class="cls-6" d="M90.26,27.52c-.49.05-.48.33-.34.68a2.55,2.55,0,0,1,.16,1.6c-.81-1.2-.54-2.52-.44-3.82,0-.21.25-.3.45-.38C90.47,26.22,90.21,26.89,90.26,27.52Z"/><path id="_Caminho_279" data-name="&lt;Caminho&gt;" class="cls-6" d="M92.17,21.4c-.44.85-1.13,1.56-1.5,2.45,0,.09-.25.12-.38.18A3.49,3.49,0,0,1,92.17,21.4Z"/><path id="_Caminho_280" data-name="&lt;Caminho&gt;" class="cls-6" d="M94.62,23.95a6.59,6.59,0,0,1,.18-4.11.39.39,0,0,1,.19.52,7.23,7.23,0,0,0-.24,3.28C94.76,23.73,94.66,23.84,94.62,23.95Z"/><path id="_Caminho_281" data-name="&lt;Caminho&gt;" class="cls-6" d="M97.92,31a4.92,4.92,0,0,1-1.49-.32c-.3-.46.17-.66.35-1a.63.63,0,0,1,.22-.12C97.56,29.88,97.6,30.51,97.92,31Z"/><path id="_Caminho_282" data-name="&lt;Caminho&gt;" class="cls-6" d="M97.14,28.21c.76-.41-.3-.55-.14-.87a3.64,3.64,0,0,1,1.25.74C97.87,28.35,97.49,28.2,97.14,28.21Z"/><path id="_Caminho_283" data-name="&lt;Caminho&gt;" class="cls-6" d="M95.35,29l.63-.11c.23.37.78.28,1,.65l0,0c-.51.55-.86,0-1.28-.16Z"/><path id="_Caminho_284" data-name="&lt;Caminho&gt;" class="cls-6" d="M90.29,24.73l-.18.26c0-.27-.21-.54,0-.81.12,0,.14.13.22.19v0A.27.27,0,0,1,90.29,24.73Z"/><path id="_Caminho_285" data-name="&lt;Caminho&gt;" class="cls-6" d="M90.31,24.38l-.22-.19L90.3,24Z"/><path id="_Caminho_286" data-name="&lt;Caminho&gt;" class="cls-6" d="M93,31.53l2.87-.17a1.55,1.55,0,0,0,.54.22.86.86,0,0,1,.77.63c0,.18-.08.31-.24.29-1.44-.21-2.92.21-4.34-.26a.41.41,0,0,1,0-.6A.63.63,0,0,1,93,31.53Z"/><path id="_Caminho_287" data-name="&lt;Caminho&gt;" class="cls-6" d="M97.2,32.22l-1-.5a8.63,8.63,0,0,1,3-.18c.45,0,1-.16,1.37.19a9.68,9.68,0,0,1,2.87-.2v.16C101.41,32.21,99.28,31.91,97.2,32.22Z"/><path id="_Caminho_288" data-name="&lt;Caminho&gt;" class="cls-6" d="M92.82,31.7l-.2.54c-1.59-.4-3.22,0-4.87-.23l.35-.46.39.15A11,11,0,0,1,92.82,31.7Z"/><path id="_Caminho_289" data-name="&lt;Caminho&gt;" class="cls-6" d="M96.75,33.18c1.57-1.09,3,.41,4.54.21C99.74,34,98.29,32.72,96.75,33.18Z"/><path id="_Caminho_290" data-name="&lt;Caminho&gt;" class="cls-6" d="M94.55,36.62c1.57-1.12,3.06.24,4.87.11C97.61,37.38,96.11,36,94.55,36.62Z"/><path id="_Caminho_291" data-name="&lt;Caminho&gt;" class="cls-6" d="M104.18,33.7c1.42-.65,2.62.57,4,.44C106.78,34.61,105.53,33.67,104.18,33.7Z"/><path id="_Caminho_292" data-name="&lt;Caminho&gt;" class="cls-6" d="M83.56,33.34c1.42-.78,2.68,0,4.16.35a4.09,4.09,0,0,1-2.15-.16A6.15,6.15,0,0,0,83.56,33.34Z"/><path id="_Caminho_293" data-name="&lt;Caminho&gt;" class="cls-6" d="M89.21,34.72c1.63-.69,2.93.57,4.41.23C93,35.38,93,35.38,89.21,34.72Z"/><path id="_Caminho_294" data-name="&lt;Caminho&gt;" class="cls-6" d="M107.08,37.07c-1.19.35-2.33-.51-3.53-.1C104.75,36.13,105.9,37,107.08,37.07Z"/><path id="_Caminho_295" data-name="&lt;Caminho&gt;" class="cls-6" d="M83.34,34.1A2.39,2.39,0,0,1,80.28,34a8.23,8.23,0,0,0,1.5.34C82.3,34.27,82.82,34.17,83.34,34.1Z"/><path id="_Caminho_296" data-name="&lt;Caminho&gt;" class="cls-6" d="M94.53,37.29a2.13,2.13,0,0,1-2.71,0A5.59,5.59,0,0,0,94.53,37.29Z"/><path id="_Caminho_297" data-name="&lt;Caminho&gt;" class="cls-6" d="M94,33.88a3.91,3.91,0,0,0,2.87-.18A2.18,2.18,0,0,1,94,33.88Z"/><path id="_Caminho_298" data-name="&lt;Caminho&gt;" class="cls-6" d="M88.86,35.55a2.18,2.18,0,0,1-2.82,0A5.61,5.61,0,0,0,88.86,35.55Z"/><path id="_Caminho_299" data-name="&lt;Caminho&gt;" class="cls-6" d="M84.32,37.5c1.07-.5,2,.06,3.19.22C86.33,38,85.37,37.26,84.32,37.5Z"/><path id="_Caminho_300" data-name="&lt;Caminho&gt;" class="cls-6" d="M103.5,34.64a2.39,2.39,0,0,1-2.61,0A4.43,4.43,0,0,0,103.5,34.64Z"/><path id="_Caminho_301" data-name="&lt;Caminho&gt;" class="cls-6" d="M101.38,39.39c-.78.26-1.47-.13-2.4-.19C100,38.81,100.62,39.45,101.38,39.39Z"/><path id="_Caminho_302" data-name="&lt;Caminho&gt;" class="cls-6" d="M96.23,41.7a2,2,0,0,1-1.81-.36Z"/><path id="_Caminho_303" data-name="&lt;Caminho&gt;" class="cls-6" d="M83.62,38.2c-.51.46-1,.17-1.46-.09Z"/><path id="_Caminho_304" data-name="&lt;Caminho&gt;" class="cls-6" d="M90.09,39.53l-1.74-.36C89.07,39,89.15,39,90.09,39.53Z"/><path id="_Caminho_305" data-name="&lt;Caminho&gt;" class="cls-6" d="M103.57,37.55a1.82,1.82,0,0,1-1.8,0Z"/><path id="_Caminho_306" data-name="&lt;Caminho&gt;" class="cls-6" d="M91.38,14.78a2,2,0,0,1-1.83-2.23,1,1,0,0,1,.39-.74c.71-.61,1.67-.52,2.49-.82.22-.08.41.28.58.49.27.47.41.93,0,1.37a2,2,0,0,1-.29.21.33.33,0,0,0-.11.32c0,.58-.62.84-.68,1.37A.35.35,0,0,1,91.38,14.78Z"/><path id="_Caminho_307" data-name="&lt;Caminho&gt;" class="cls-6" d="M95.71,11.28a6.88,6.88,0,0,1,1.57-.09c1.13.1,1.29.92,1.55,1.64.18.51-.58,1.52-1.24,1.82L97,15a.53.53,0,0,1-.61,0c-.38-.35-.22-.73-.08-1.11a1.29,1.29,0,0,1,0-.16c-.07-.15-.25-.18-.37-.26s-.2-.15-.3-.22c-.26-.34-.58-.65-.47-1.14S95.39,11.46,95.71,11.28Z"/><path id="_Caminho_308" data-name="&lt;Caminho&gt;" class="cls-6" d="M96.45,14.75,97,15a1.21,1.21,0,0,0,.66.86c.31.15.68.41.44.88-.71.1-1.43.15-2.14.31-.56-.18-.83-.7-1.28-1-.1-.19,0-.31.14-.42.31-.1.63.18.85,0a1.6,1.6,0,0,1-1-.13c-.36-.58,0-.71.51-.81.18,0,.36-.09.54-.12S96.19,14.68,96.45,14.75Z"/><path id="_Caminho_309" data-name="&lt;Caminho&gt;" class="cls-6" d="M93,16.56c-.58.86-1.48.42-2.22.43-.42,0-.21-.41,0-.64l.07-.05c.3-.3-.06-.81.31-1.06a3.12,3.12,0,0,1,2.28-.53c.43.09.7.28.49.75A4.75,4.75,0,0,0,93,16.56Z"/><path id="_Caminho_310" data-name="&lt;Caminho&gt;" class="cls-6" d="M101.81,15.48c-.42,0-.58-.36-.85-.57.46-.49-.08-1.14.26-1.61.23-.31.61,0,.9.05s.78-.4,1,.15a1.45,1.45,0,0,1-.07,1.63C102.75,15.57,102.24,15.39,101.81,15.48Z"/><path id="_Caminho_311" data-name="&lt;Caminho&gt;" class="cls-6" d="M105.34,15.3c-.07.47.36.61.61.87s.37.24.28.48-.27.2-.45.22-.63,0-.86.41-.62.09-.93-.16a2.06,2.06,0,0,1-.5-.79c.24-.3.58.1.76-.09-.35.06-.65,0-.57-.53.31-.61.73-1,1.47-.63A.46.46,0,0,1,105.34,15.3Z"/><path id="_Caminho_312" data-name="&lt;Caminho&gt;" class="cls-6" d="M93.79,12.14c.27-.15-.11-1,.66-.6,0,.09.1.2.16.17.71-.29.68.15.65.6s.41.88,0,1.31c-.31.21-.7.28-.94.58a.83.83,0,0,1-.58-.1,1,1,0,0,1-.56-.7C93.16,12.89,92.83,12.21,93.79,12.14Z"/><path id="_Caminho_313" data-name="&lt;Caminho&gt;" class="cls-6" d="M87.75,14.77a.32.32,0,0,1-.15.36c-.26.15-.57,0-.83.16s-.79.42-1.22.07-.21-.78-.2-1.19c.23-.53.48-1,1.24-.72.23.09.44-.12.63-.26l0,0c.5,0,.46.28.48.61S87.46,14.46,87.75,14.77Z"/><path id="_Caminho_314" data-name="&lt;Caminho&gt;" class="cls-6" d="M103.83,13.72l-.21-.67c.12-.66.56-.88,1.21-.8a.73.73,0,0,1,.54.23.78.78,0,0,1,.14.25c0,.53.35,1,.3,1.54a.79.79,0,0,1-.35.48.84.84,0,0,1-1,.05C104.11,14.53,103.75,14.25,103.83,13.72Z"/><path id="_Caminho_315" data-name="&lt;Caminho&gt;" class="cls-6" d="M83.43,16.87c-.29,0-.66.1-.77-.24s.24-.44.46-.57a.88.88,0,0,0,.45-.95c.64-.57,1.07.08,1.59.26a1.26,1.26,0,0,1,.44.41.59.59,0,0,1,.07.22l-.27.16c0,.26-.85-.07-.38.51a.67.67,0,0,1-.14.53c-.32.16-.61.21-.8-.19S83.7,16.72,83.43,16.87Z"/><path id="_Caminho_316" data-name="&lt;Caminho&gt;" class="cls-6" d="M93.72,15.49c.22-.39-.1-.45-.35-.55a.36.36,0,0,1,0-.46,1.77,1.77,0,0,1,.82-.32c.25-.09.49-.25.77-.07s.73.39.32.85c-.3,0-.7,0-.47.51q.14.12,0,.23l-.2.33c-.21.38-.15.88-.55,1.2-.42-.41.59-1.08-.35-1.31A.26.26,0,0,1,93.72,15.49Z"/><path id="_Caminho_317" data-name="&lt;Caminho&gt;" class="cls-6" d="M105.27,14.6l.18-.31c.2-.42-.08-1.2.85-1.09a.48.48,0,0,1,.23.18c.49.59.45,1.06-.31,1.41-.31.14-.6.34-.89.51l-.18-.11C105.08,15,105.22,14.79,105.27,14.6Z"/><path id="_Caminho_318" data-name="&lt;Caminho&gt;" class="cls-6" d="M104.91,12.51c-.51,0-.86.36-1.29.54-.62-1.09-.4-1.56.75-1.6C104.89,11.64,105.44,11.82,104.91,12.51Z"/><path id="_Caminho_319" data-name="&lt;Caminho&gt;" class="cls-6" d="M84.69,11.47c.48,0,1,0,1.11.55-.28.35.25,1-.42,1.2a1.49,1.49,0,0,1-1.47-.72C83.68,11.81,84.27,11.7,84.69,11.47Z"/><path id="_Caminho_320" data-name="&lt;Caminho&gt;" class="cls-6" d="M83.46,15.14c-.65-.34-1.49-.56-1.12-1.58.2-.57.57-.68,1.08-.35s.48.83.44,1.33A1.54,1.54,0,0,1,83.46,15.14Z"/><path id="_Caminho_321" data-name="&lt;Caminho&gt;" class="cls-6" d="M84.69,11.47c-.23.32-.53.61-.53,1s-.27.7-.77.65a1.34,1.34,0,0,1-.53-1.39C83.35,11,84.05,11.44,84.69,11.47Z"/><path id="_Caminho_322" data-name="&lt;Caminho&gt;" class="cls-6" d="M82.85,11.77A2.26,2.26,0,0,1,83.43,13c.09.19,0,.29-.18.35a1,1,0,0,0-.91.18C81.81,12.77,82.4,12.29,82.85,11.77Z"/><path id="_Caminho_323" data-name="&lt;Caminho&gt;" class="cls-6" d="M104.91,12.51c0-.44-.39-.7-.54-1.06.62-.21,1.24-.41,1.64.34.17.62-.05.94-.74.88Z"/><path id="_Caminho_324" data-name="&lt;Caminho&gt;" class="cls-6" d="M85.25,13c.37-.25.32-.71.54-1l.17.86c.19.45-.14.78-.28,1.16a1.44,1.44,0,0,0,.17,1.29c.36.3,0,.48-.13.69h0l-.24,0c-.25-.7-.71-1.36-.52-2.16C84.86,13.51,84.89,13.21,85.25,13Z"/><path id="_Caminho_325" data-name="&lt;Caminho&gt;" class="cls-6" d="M93.55,14.61l-.18.33a1.73,1.73,0,0,1-.26,0,2.09,2.09,0,0,0-2.32,1.4,1.07,1.07,0,0,0-.25-1.08c.3-.24.77-.05.84-.49.15,0,.31,0,.39-.16.21-.32.6-.21.89-.34A.75.75,0,0,1,93.55,14.61Z"/><path id="_Caminho_326" data-name="&lt;Caminho&gt;" class="cls-6" d="M105.26,12.67a2.14,2.14,0,0,0,.74-.88c.56.41,1.14.81.53,1.59h-.21c-.55,0-.78-.36-1.06-.69Z"/><path id="_Caminho_327" data-name="&lt;Caminho&gt;" class="cls-6" d="M103.83,13.72c.16.36.78.36.74.88a.76.76,0,0,1-1,.73C103.72,14.8,103.51,14.23,103.83,13.72Z"/><path id="_Caminho_328" data-name="&lt;Caminho&gt;" class="cls-6" d="M93.79,12.14c-.5.32-.44.76-.26,1.21-.74.25-.82-.16-.75-.71.36-.34-.09-.83.22-1.18C93.41,11.54,93.52,11.93,93.79,12.14Z"/><path id="_Caminho_329" data-name="&lt;Caminho&gt;" class="cls-6" d="M103.61,15.33a1.72,1.72,0,0,0,1-.73h.7a.42.42,0,0,1-.11.59c-.52.05-1,.1-1.33.61-.15.11-.29.13-.37-.08Z"/><path id="_Caminho_330" data-name="&lt;Caminho&gt;" class="cls-6" d="M83.46,15.14l.15-.55a.77.77,0,0,1,.62-.23c.81.28,1,.56.81,1.28a2.82,2.82,0,0,0-1.47-.52Z"/><path id="_Caminho_331" data-name="&lt;Caminho&gt;" class="cls-6" d="M85,16.69c-.53.26-.58-.78-1.33-.08.64-1,1.2-.46,1.71-.43Z"/><path id="_Caminho_332" data-name="&lt;Caminho&gt;" class="cls-6" d="M85.68,14c.1-.38,0-.81.28-1.16.37.29.74.6,1.26.31C86.91,13.82,86,13.42,85.68,14Z"/><path id="_Caminho_333" data-name="&lt;Caminho&gt;" class="cls-6" d="M101.81,15.48c.31-.51.77-.5,1.27-.34C103.06,15.92,103.06,15.92,101.81,15.48Z"/><path id="_Caminho_334" data-name="&lt;Caminho&gt;" class="cls-6" d="M85.72,16c.1-.22.26-.43.13-.69.47.08.34-.69.85-.56.7.18.3.54.15.86A1.66,1.66,0,0,0,85.72,16Z"/><path id="_Caminho_335" data-name="&lt;Caminho&gt;" class="cls-6" d="M103.46,15.73l.37.08c.1.34.41.27.66.32a1.88,1.88,0,0,1,.68.21h-1.68A.4.4,0,0,1,103.46,15.73Z"/><path id="_Caminho_336" data-name="&lt;Caminho&gt;" class="cls-6" d="M87.75,14.77c-.33-.14-.29-.4-.23-.66a.84.84,0,0,0-.32-.93.52.52,0,0,1,.63-.16c.2.12,0,.37,0,.56C87.82,14,87.79,14.37,87.75,14.77Z"/><path id="_Caminho_337" data-name="&lt;Caminho&gt;" class="cls-6" d="M86.85,15.63c-.48-.21.15-.61-.15-.86a1.83,1.83,0,0,1,.91.36C87.5,15.5,87.17,15.57,86.85,15.63Z"/><path id="_Caminho_338" data-name="&lt;Caminho&gt;" class="cls-6" d="M95.18,12.15c0-.2-.08-.38-.37-.3s-.32-.12-.37-.31c.47.12.78-.46,1.27-.26l-.37.87Q95.26,12.34,95.18,12.15Z"/><path id="_Caminho_339" data-name="&lt;Caminho&gt;" class="cls-6" d="M83.43,16.87c.62-.42.91.46,1.45.35-.37.18-.86,1-1-.18C83.87,16.83,83.6,16.91,83.43,16.87Z"/><path id="_Caminho_340" data-name="&lt;Caminho&gt;" class="cls-6" d="M93.72,15.49v.4l-.73.67c0-.42,1-1-.38-1.23A1.22,1.22,0,0,1,93.72,15.49Z"/><path id="_Caminho_341" data-name="&lt;Caminho&gt;" class="cls-6" d="M95.91,17A3.73,3.73,0,0,1,98,16.7,3.15,3.15,0,0,1,95.91,17Z"/><path id="_Caminho_342" data-name="&lt;Caminho&gt;" class="cls-6" d="M104.93,44.08q0,.36,0,.73c-.29.55-.5,1.17-1.29,1.22,0-.08.07-.16.09-.24.15-.44.53-1-.12-1.27a1.19,1.19,0,0,0-1.47.47c-.18.24-.2.63-.62.66-.55-.76-.5-1.19.22-1.75a3.31,3.31,0,0,1,2.62-.48Z"/><path id="_Caminho_343" data-name="&lt;Caminho&gt;" class="cls-6" d="M111.05,24.74c.24.11.47.22.34.54-.48.4-.43,1.09-.89,1.57-.47-.55.14-1.08,0-1.58l.25-.19C110.78,24.92,110.85,24.76,111.05,24.74Z"/><path id="_Caminho_344" data-name="&lt;Caminho&gt;" class="cls-6" d="M84.7,43.75l.54-.34a4.12,4.12,0,0,1,2.09.21,1.39,1.39,0,0,1,.94,1.86c-.26.09-.51.19-.68-.14a2.22,2.22,0,0,0-.22-.37,1.14,1.14,0,0,0-1.49-.42c-.57.32-.25.86-.06,1.31a3.94,3.94,0,0,0,.32.52,3.13,3.13,0,0,1-1.46-1.23C84.1,44.67,84.43,44.21,84.7,43.75Z"/><path id="_Caminho_345" data-name="&lt;Caminho&gt;" class="cls-6" d="M118.8,17.91c-.2.07-.45.08-.58.21-.75.77-1.35.45-1.92-.21-.78-.79-.82-1-.24-2.21a1,1,0,0,1,1.28-.59c.42,0,.85-.28,1.28,0,.22.13.11.56.5.54Z"/><path id="_Caminho_346" data-name="&lt;Caminho&gt;" class="cls-6" d="M116.82,12a6.49,6.49,0,0,1,.9,1.73c.1.31-.19.37-.36.51H117c-.42-.8-1.3-1.07-2-1.57-.24-1.17.78-.68,1.26-.88l.18-.18Z"/><path id="_Caminho_347" data-name="&lt;Caminho&gt;" class="cls-6" d="M117.35,15.11c-1,.57-1.3,1.39-1,2.8h-.56c-.91.12-1.83,0-2.73.18l-.55-.35.38-.51a1.88,1.88,0,0,0-.58-1.75c-.23-.22-.57-.37-.35-.77a3.31,3.31,0,0,1,.71-.21c.74-.06,1.1-.61,1.48-1.11h.35a2.41,2.41,0,0,0,2.36,1.24l.18,0Z"/><path id="_Caminho_348" data-name="&lt;Caminho&gt;" class="cls-6" d="M113.39,20.2c-.06-.09-.11-.22-.2-.26-.85-.35-.87-.86-.33-1.49a3,3,0,0,1,3-.17l.36.51c.44.8-.33.93-.75,1.27s-1.27.13-1.58.79C114,20.45,113.51,20.47,113.39,20.2Z"/><path id="_Caminho_349" data-name="&lt;Caminho&gt;" class="cls-6" d="M114.85,24.36a1.35,1.35,0,0,1-1.45,0c.31-.26-.24-.73.28-1,.86-.41,1-.31,1,.63A1,1,0,0,0,114.85,24.36Z"/><path id="_Caminho_350" data-name="&lt;Caminho&gt;" class="cls-6" d="M112.47,21.73c.66-.63.62,0,.76.38-.09.64.12,1.3-.2,1.92A4.44,4.44,0,0,0,112.47,21.73Z"/><path id="_Caminho_351" data-name="&lt;Caminho&gt;" class="cls-6" d="M115.91,18.28a17.26,17.26,0,0,1-3,.17l.16-.37a2.12,2.12,0,0,1,2.73-.18Z"/><path id="_Caminho_352" data-name="&lt;Caminho&gt;" class="cls-6" d="M116.82,14.62a1.51,1.51,0,0,1-2.36-1.24h.19Z"/><path id="_Caminho_353" data-name="&lt;Caminho&gt;" class="cls-6" d="M114.11,13.38c.08,1-.71,1.26-1.45,1.55-.19-.61-.08-1.07.65-1.24.24-.05.39-.26.61-.35v0Z"/><path id="_Caminho_354" data-name="&lt;Caminho&gt;" class="cls-6" d="M116.28,11.8c-.45.26-1.19.12-1.26.88-.33-.43,0-.79.16-1.15C115.51,11.78,115.93,11.64,116.28,11.8Z"/><path id="_Caminho_355" data-name="&lt;Caminho&gt;" class="cls-6" d="M113.93,39.38c.38-.45,1.1-.64,1.1-1.37.23-.16.47-.06.71,0v.74c-.31-.24-.58-.27-.73.16s-.24.69-.36,1c-.36-.59-.5.17-.81.12Z"/><path id="_Caminho_356" data-name="&lt;Caminho&gt;" class="cls-6" d="M112.85,36.24l0-.52a.58.58,0,0,1,.74-.15c.13.85.6.9,1.27.52l-.18.86c-.5.07-.89,0-1-.57S113.15,36.06,112.85,36.24Z"/><path id="_Caminho_357" data-name="&lt;Caminho&gt;" class="cls-6" d="M113.93,26.64a.78.78,0,0,1-.18-.7,1.77,1.77,0,0,0,.91-.18,1.54,1.54,0,0,0,0,.89C114.41,26.84,114.17,26.71,113.93,26.64Z"/><path id="_Caminho_358" data-name="&lt;Caminho&gt;" class="cls-6" d="M114.11,31.69a1.14,1.14,0,0,0,.73-.84l.72-.2c-.1.29.1.7-.53.73-.33,0-.37.51-.34.86-.23-.19-.64,0-.8-.34C113.92,31.78,114,31.75,114.11,31.69Z"/><path id="_Caminho_359" data-name="&lt;Caminho&gt;" class="cls-6" d="M113.93,26.64c.25-.4.49-.12.72,0v.68q0,.08,0,.17a.55.55,0,0,1-.9.18l-.18-.34Z"/><path id="_Caminho_360" data-name="&lt;Caminho&gt;" class="cls-6" d="M113.75,27.69a1.65,1.65,0,0,0,.9-.18,1.56,1.56,0,0,0,0,.85C114.43,28,113.66,28.4,113.75,27.69Z"/><path id="_Caminho_361" data-name="&lt;Caminho&gt;" class="cls-6" d="M111.95,14.77c.33.58,1.06.85,1.2,1.6.08.4.07.66-.3.86-.3-.57-.62-1.13-.9-1.71a.76.76,0,0,0-.54-.39c.19-.13.15-.34.18-.52C111.8,14.49,112,14.46,111.95,14.77Z"/><path id="_Caminho_362" data-name="&lt;Caminho&gt;" class="cls-6" d="M111.05,24.74a.56.56,0,0,1-.36.33c-.28-.3-.17-1.09.18-1.11s.14.26.18.4Z"/><path id="_Caminho_363" data-name="&lt;Caminho&gt;" class="cls-6" d="M111.95,14.77l-.35-.17q0-.08,0-.17c.22-.16.61,0,.66-.52s1.16-.85,1.67-.56c-.15.73-1.08.88-1.26,1.58Z"/><path id="_Caminho_364" data-name="&lt;Caminho&gt;" class="cls-6" d="M76.72,17.58c-.47.3-.53,1.06-1.26,1.06a1.33,1.33,0,0,1-.84,0,1.72,1.72,0,0,0-1.12-.34c.1-.37.54-.75,0-1.09-.62-.9,0-.73.83-.53-.37-.29-.54-.41-.69-.54s-.4-.37.08-.43c.25,0,.27-.2.23-.38-.2-.87.37-1.47.81-2.11a2,2,0,0,1,1,1.8c0,.4-.16.84.56.83l-.9.8C76.63,16.25,76.28,17.31,76.72,17.58Z"/><path id="_Caminho_365" data-name="&lt;Caminho&gt;" class="cls-6" d="M69.33,17.89l.38-1.38a2.66,2.66,0,0,0,.16-.58c-.12.07-.18.21-.33.24-.38-.1-.48-.38-.53-.71a.63.63,0,0,0,.28-.5c0-.38.06-.82.67-.45.29.18.23-.72.65-.21-.14.47.21.73.48,1a.49.49,0,0,1,.06.23,16,16,0,0,0-.88,1.7,1.61,1.61,0,0,0-.15.4C70,18.38,69.74,18.29,69.33,17.89Z"/><path id="_Caminho_366" data-name="&lt;Caminho&gt;" class="cls-6" d="M70.26,17.26c-.08-.72.57-1.16.72-1.79,0-.38.39-.62.43-1s.44-.08.64-.21c.64-.55,1.27-1.1,1.92-1.63.38-.31.17-.46-.12-.62a1.11,1.11,0,0,1,.94.37l-.23.31A9.38,9.38,0,0,0,71,16.18Z"/><path id="_Caminho_367" data-name="&lt;Caminho&gt;" class="cls-6" d="M77.29,23.52l0-.49c.23-.26.5-.5.39-.95l-.94.19.88-1c.48.27.28.92.71,1.22A1.61,1.61,0,0,1,77.29,23.52Z"/><path id="_Caminho_368" data-name="&lt;Caminho&gt;" class="cls-6" d="M84.19,44.95l-.95-1.33c-.1-.12-.16-.26-.05-.39s.23-.06.32,0,.33.34.49.51c.18.38.65.69.31,1.2Z"/><path id="_Caminho_369" data-name="&lt;Caminho&gt;" class="cls-6" d="M68.46,17.71c-.27.19-.1.5-.21.74H68a7.1,7.1,0,0,1-.32-2.2c0-.17,0-.29.23-.25C68.29,16.51,68.7,17,68.46,17.71Z"/><path id="_Caminho_370" data-name="&lt;Caminho&gt;" class="cls-6" d="M68.46,17.71A8.68,8.68,0,0,1,67.9,16l.53.17.17.17c.37.23.52.51.21.89Z"/><path id="_Caminho_371" data-name="&lt;Caminho&gt;" class="cls-6" d="M72,14.24c-.63.19-.58.93-1.07,1.23h0a.55.55,0,0,1-.23-.86c.22.14.37.12.48-.13S71.71,14.09,72,14.24Z"/><path id="_Caminho_372" data-name="&lt;Caminho&gt;" class="cls-6" d="M67.56,13a7.27,7.27,0,0,1,2-.89l.19.19-2.18.9s-.06-.09,0-.14S67.54,13,67.56,13Z"/><path id="_Caminho_373" data-name="&lt;Caminho&gt;" class="cls-6" d="M67.56,13v.2a3.14,3.14,0,0,1-1.37.88l.29-.39Z"/><path id="_Caminho_374" data-name="&lt;Caminho&gt;" class="cls-6" d="M70.76,14.62l.23.86c-.9-.16-.5-.71-.38-1.18Z"/><path id="_Caminho_375" data-name="&lt;Caminho&gt;" class="cls-6" d="M69.54,16.17V14.81c.83,1,.84,1.21.17,1.7Z"/><path id="_Caminho_376" data-name="&lt;Caminho&gt;" class="cls-6" d="M74.79,9.89a4.88,4.88,0,0,1,.16-2.07,5.24,5.24,0,0,1,.18,1.73Z"/><path id="_Caminho_377" data-name="&lt;Caminho&gt;" class="cls-6" d="M114.11,31.69l-.22.21c-.2-.5-1.21-.25-1-1.07C113.52,30.76,113.66,31.44,114.11,31.69Z"/><path id="_Caminho_378" data-name="&lt;Caminho&gt;" class="cls-6" d="M112,43.9l.15,0c0,.43-.34.68-.56,1a4.85,4.85,0,0,1-.11-1.52C111.7,43.49,111.33,44.19,112,43.9Z"/><path id="_Caminho_379" data-name="&lt;Caminho&gt;" class="cls-6" d="M93.17,29.11l0,.67c.52.3,0,.84.31,1.2-.21.15-.54.26-.58,0-.09-.82-.75-.68-1.26-.82A1.16,1.16,0,0,1,93.17,29.11Z"/><path id="_Caminho_380" data-name="&lt;Caminho&gt;" class="cls-6" d="M90.29,24.73v-.37C90.58,24.49,90.54,24.61,90.29,24.73Z"/><path id="_Caminho_381" data-name="&lt;Caminho&gt;" class="cls-6" d="M93.52,31c-.62-.27-.26-.78-.31-1.2a3.86,3.86,0,0,1,1.67-.16c.32.06.44.25.15.44s-.6.89-1.28.61C93.63,30.62,93.56,30.84,93.52,31Z"/><path id="_Caminho_382" data-name="&lt;Caminho&gt;" class="cls-6" d="M100.6,31.73H96.24l-.35-.36c1.43,0,2.86,0,4.29,0C100.34,31.38,100.92,31.12,100.6,31.73Z"/><path id="_Caminho_383" data-name="&lt;Caminho&gt;" class="cls-6" d="M92.82,31.7H88.49c0-.14.12-.3.28-.3a16.78,16.78,0,0,1,4.24.12Z"/><path id="_Caminho_384" data-name="&lt;Caminho&gt;" class="cls-6" d="M95.69,29.44a2.86,2.86,0,0,1,1.28.16c.46.66-.34.71-.54,1C95.58,30.59,96.08,29.77,95.69,29.44Z"/><path id="_Caminho_385" data-name="&lt;Caminho&gt;" class="cls-6" d="M92.78,12.64c.22.26.36.61.75.71l.38.55c.05.51-.34.49-.68.51s-.47-.13-.58.18c-.29.28-.59,0-.88,0-.4-.54.61-.73.34-1.24,0-.29,0-.64.39-.77Z"/><path id="_Caminho_386" data-name="&lt;Caminho&gt;" class="cls-6" d="M92.49,12.61a1.69,1.69,0,0,1-.39.77A1.77,1.77,0,0,1,91.9,13c-.07-.25-.49-.5-.18-.73S92.26,12.41,92.49,12.61Z"/><path id="_Caminho_387" data-name="&lt;Caminho&gt;" class="cls-6" d="M95.3,14.94c0-.3-.45-.41-.42-.74-.13-.19,0-.28.15-.38.43-.12.21-.9.87-.79l.14.13c.3.12.75.06.75.56l.37.17c.08.28-.14.28-.3.26a1.06,1.06,0,0,0-1.15.63Z"/><path id="_Caminho_388" data-name="&lt;Caminho&gt;" class="cls-6" d="M95.9,13c-.29.32-.32.81-.73,1-.22-.13-.41-.27-.2-.54a2.86,2.86,0,0,0,.22-1.38h.16C95.65,12.38,96,12.58,95.9,13Z"/><path id="_Caminho_389" data-name="&lt;Caminho&gt;" class="cls-6" d="M95.7,14.79c-.21-.5.19-.59.52-.68s.65,0,.93-.22c.11,0,.27,0,.29.14s-.21.2-.36.22c-.31,0-.86-.2-.63.49C96.21,15,96,14.79,95.7,14.79Z"/><path id="_Caminho_390" data-name="&lt;Caminho&gt;" class="cls-6" d="M96.78,13.73,96,13.16l1.07-.27C97.31,13.31,96.91,13.47,96.78,13.73Z"/><path id="_Caminho_391" data-name="&lt;Caminho&gt;" class="cls-6" d="M94.83,15.68v-.23a2.09,2.09,0,0,1,1.83.65A7.36,7.36,0,0,0,94.83,15.68Z"/><path id="_Caminho_392" data-name="&lt;Caminho&gt;" class="cls-6" d="M92.65,14.6c-.31-.29,0-.32.18-.34a1.61,1.61,0,0,0,1.08-.35l.35.18a.12.12,0,0,1,0,.19l-.68.34Z"/><path id="_Caminho_393" data-name="&lt;Caminho&gt;" class="cls-6" d="M94.24,14.27l0-.19c.12-.32-.07-1,.7-.56l.2.54-.29.12C94.66,14.17,94.49,14.56,94.24,14.27Z"/><path id="_Caminho_394" data-name="&lt;Caminho&gt;" class="cls-6" d="M105.27,12.68c.61-.13.63.57,1.06.69-.57.05-.66.54-.88.91Z"/><path id="_Caminho_395" data-name="&lt;Caminho&gt;" class="cls-6" d="M85,15.64c-.05-.66-.47-.94-1.1-1,0-1,.46-1.35,1.29-.92a3.1,3.1,0,0,0,.32,1.8c.11.16,0,.32-.12.46Z"/><path id="_Caminho_396" data-name="&lt;Caminho&gt;" class="cls-6" d="M85.23,13.74c-.67,0-.89.58-1.29.92l-.33-.06-.36-1.22.18-.35.73-.52c.4.11.85.12,1.09.53A.72.72,0,0,1,85.23,13.74Z"/></g><text class="cls-7" transform="translate(47.11 93.39) scale(1.03 1)">Sec<tspan class="cls-8" x="10.79" y="0">r</tspan><tspan class="cls-9" x="13.41" y="0">e</tspan><tspan class="cls-10" x="17.26" y="0">t</tspan><tspan class="cls-11" x="19.79" y="0">aria do Meio Ambie</tspan><tspan class="cls-12" x="82.39" y="0">n</tspan><tspan class="cls-13" x="86.43" y="0">t</tspan><tspan x="88.96" y="0">e</tspan><tspan x="-7.63" y="8.7">e dos </tspan><tspan class="cls-14" x="11.08" y="8.7">R</tspan><tspan class="cls-15" x="15.19" y="8.7">ecu</tspan><tspan class="cls-16" x="26.5" y="8.7">r</tspan><tspan x="29.09" y="8.7">sos Hdri</tspan><tspan class="cls-17" x="56.39" y="8.7">c</tspan><tspan x="59.63" y="8.7">os - SEMARH</tspan></text><rect id="_Retngulo_" data-name="&lt;Retngulo&gt;" class="cls-6" x="34.85" y="84.38" width="121.59" height="0.18"/></g></svg>