<svg id="Camada_1" data-name="Camada 1" xmlns="http://www.w3.org/2000/svg" viewBox="0 0 190.34 104.83"><defs><style>.cls-1,.cls-2{fill:#fff;}.cls-2{font-size:10.68px;font-family:MyriadPro-BoldCond, Myriad Pro;font-weight:700;}.cls-3{letter-spacing:-0.01em;}.cls-4{letter-spacing:0em;}.cls-5{letter-spacing:-0.01em;}</style></defs><title>inema</title><g id="_Grupo_" data-name="&lt;Grupo&gt;"><g id="_Grupo_2" data-name="&lt;Grupo&gt;"><path id="_Caminho_" data-name="&lt;Caminho&gt;" class="cls-1" d="M104.9,39c1-.8,1.77-1.34,2.47-1.92,4.61-3.84,15.37-4.33,19.24,2.29.7,1.19,1.31.6,2-.05a16.34,16.34,0,0,1,12.91-5A11,11,0,0,1,152,42.86a22.3,22.3,0,0,1,.76,5.71c0,6.18-.06,12.37,0,18.55,0,1.86-.53,2.66-2.46,2.55-2.53-.13-5.08,0-7.62,0-2.36,0-2.48-.13-2.49-2.64,0-5,0-10,0-15a22,22,0,0,0-.25-3.57c-.59-3.46-2.83-4.85-6.1-3.9-2.49.73-5.19,4.18-5.19,6.84,0,5.45,0,10.9.14,16.35,0,1.38-.39,2-1.73,2-2.93,0-5.86-.08-8.79,0-1.45,0-1.94-.62-1.93-2,0-4.65,0-9.31,0-14a38.78,38.78,0,0,0-.44-5.56c-.35-2.65-1.77-3.8-4.41-3.75-3.14.06-6.32,3.23-6.56,6.45-.41,5.44-.16,10.9-.16,16.34,0,1.93-.65,2.59-2.5,2.5-2.6-.12-5.21-.07-7.81,0-1.37,0-2-.44-2-1.94q0-15.46,0-30.91c0-1.47.58-2,2-2,2.6,0,5.21,0,7.81,0s2.51,0,2.53,2.64C104.76,37.83,104.82,38.21,104.9,39Z"/><path id="_Caminho_2" data-name="&lt;Caminho&gt;" class="cls-1" d="M28.26,39c.92-.7,1.55-1.16,2.15-1.64,3.81-3.07,8.22-3.64,12.76-2.73,5.22,1,8.53,5.26,8.72,11.29.23,7.3.07,14.61.11,21.92,0,1.43-.69,1.82-1.95,1.8-2.73,0-5.47-.07-8.2,0-1.6.05-2.19-.57-2.17-2.2.06-5.25,0-10.5,0-15.74a17.61,17.61,0,0,0-.29-3.16c-.8-4.21-4.54-5.66-7.87-3-2.14,1.72-3.65,3.74-3.5,6.9.24,4.9,0,9.83.09,14.74,0,1.75-.45,2.56-2.32,2.47-2.66-.13-5.33-.08-8,0-1.39,0-2-.47-2-2q0-15.44,0-30.89c0-1.47.58-2,2-2,2.6,0,5.21.12,7.81,0,2-.11,2.78.64,2.53,2.64A9.59,9.59,0,0,0,28.26,39Z"/><path id="_Caminho_composto_" data-name="&lt;Caminho composto&gt;" class="cls-1" d="M78.09,55.55c-3.19,0-6.38,0-9.56,0-.56,0-1.29-.24-1.62.36s.17,1.26.52,1.8A8.93,8.93,0,0,0,74.78,62,26.27,26.27,0,0,0,86.9,59.45c2.06-.91,2.23-.78,2.2,1.41,0,.6,0,1.2,0,1.79,0,4.34,0,4.43-3.93,5.79-7.09,2.43-14.27,3.07-21.39.25-7.67-3-10.79-11.11-10.16-18.22.95-10.73,9.05-16,18-16.15,6.69-.14,12.31,1.79,15.92,8C89.72,46,90,50.09,89.86,54.26c0,1.22-.94,1.28-1.82,1.29Zm-6.25-6.47h0c1.42,0,2.85,0,4.27,0,1.84,0,2.27-.66,1.78-2.48-.78-2.9-3.19-4.46-6.42-4.16a6.2,6.2,0,0,0-5.3,5.29c-.09,1,.32,1.35,1.2,1.35Z"/><path id="_Caminho_composto_2" data-name="&lt;Caminho composto&gt;" class="cls-1" d="M185.66,50.26c.13,2.47-.23,5.4.22,8.31.35,2.25.71,2.61,2.79,2,1.46-.44,1.7.1,1.67,1.37-.15,5.8,1,4.72-4.71,6.64a17.79,17.79,0,0,1-7.35.55,4.16,4.16,0,0,1-3.3-1.87c-.64-1-1.25-1.1-2.23-.42-3.66,2.54-7.73,3-12,2.2-3.86-.69-6.4-3.52-7.06-7.72-.58-3.71,1.38-7.35,5.15-9.47s8-3.1,12.05-4.58c1-.36,2.51-.24,2.29-2.1C173,43,172,41.88,170.09,41.66c-4.74-.56-8.83,1-12.51,4-.69.56-1.44,1.74-2.19,1.4-1-.44-.36-1.78-.43-2.72-.08-1.26.11-2.54,0-3.78-.29-2.22.74-3.41,2.59-4.32A29.35,29.35,0,0,1,177.85,34c5.08,1.21,7.79,5,7.81,10.25C185.67,46.1,185.66,48,185.66,50.26Zm-11.17,5.14c0-.21,0-.61-.09-1-.41-3.46-.43-3.49-3.58-2.05-2.36,1.08-5,1.59-7.1,3.19a4.08,4.08,0,0,0-1.64,4.34,3.76,3.76,0,0,0,3,3.21C169.61,64.29,174.52,60.37,174.49,55.41Z"/><path id="_Caminho_3" data-name="&lt;Caminho&gt;" class="cls-1" d="M12.92,52.36q0,7.27,0,14.53c0,2.69-.05,2.74-2.76,2.74-2.47,0-4.94-.05-7.41,0-1.45,0-2.13-.44-2.13-2Q.68,52.2.62,36.77c0-1.48.62-2,2-2q4.19.07,8.38,0c1.42,0,2,.6,1.94,2C12.89,42,12.92,47.19,12.92,52.36Z"/><path id="_Caminho_4" data-name="&lt;Caminho&gt;" class="cls-1" d="M6.86,34C3.08,34,0,31.22,0,27.86c.06-4.25,2.85-7.41,6.56-7.44a6.62,6.62,0,0,1,6.84,6.81C13.4,31.3,10.76,34,6.86,34Z"/></g><text class="cls-2" transform="translate(0 81.73) scale(0.98 1)">INSTITU<tspan class="cls-3" x="28.76" y="0">T</tspan><tspan class="cls-4" x="32.82" y="0">O DO MEIO AMBIENTE E RECURSOS HÍDRI</tspan><tspan class="cls-5" x="177.61" y="0">C</tspan><tspan x="181.7" y="0">OS</tspan></text></g></svg>