<?xml version="1.0" encoding="utf-8"?>
<!-- Generator: Adobe Illustrator 20.1.0, SVG Export Plug-In . SVG Version: 6.00 Build 0)  -->
<svg version="1.2" baseProfile="tiny" id="Camada_1"
	 xmlns="http://www.w3.org/2000/svg" xmlns:xlink="http://www.w3.org/1999/xlink" x="0px" y="0px" viewBox="0 0 200 100"
	 overflow="scroll" xml:space="preserve">
<g id="XMLID_7789_">
	<g id="XMLID_7776_">
		<path fill="#FFFFFF" id="XMLID_8081_" d="M105.4,42.7c0.6-0.4,1-0.7,1.4-1.1c2.6-2.1,8.6-2.4,10.8,1.3c0.4,0.7,0.7,0.3,1.1,0
			c2-1.9,4.4-2.9,7.2-2.7c2.9,0.2,5.1,1.9,5.9,4.7c0.3,1,0.4,2.1,0.4,3.1c0,3.4,0,6.8,0,10.2c0,1-0.3,1.5-1.4,1.4
			c-1.4-0.1-2.8,0-4.3,0c-1.3,0-1.4-0.1-1.4-1.4c0-2.7,0-5.5,0-8.2c0-0.7,0-1.3-0.1-2c-0.3-1.9-1.6-2.7-3.4-2.1
			c-1.4,0.4-2.9,2.3-2.9,3.7c0,3,0,6,0.1,9c0,0.8-0.2,1.1-1,1.1c-1.6,0-3.3,0-4.9,0c-0.8,0-1.1-0.3-1.1-1.1c0-2.5,0-5.1,0-7.6
			c0-1-0.1-2-0.2-3c-0.2-1.4-1-2.1-2.5-2.1c-1.8,0-3.5,1.8-3.7,3.5c-0.2,3-0.1,6-0.1,9c0,1.1-0.4,1.4-1.4,1.4c-1.5-0.1-2.9,0-4.4,0
			c-0.8,0-1.1-0.2-1.1-1.1c0-5.6,0-11.3,0-16.9c0-0.8,0.3-1.1,1.1-1.1c1.5,0,2.9,0,4.4,0c1.4,0,1.4,0,1.4,1.4
			C105.4,42,105.4,42.2,105.4,42.7z"/>
		<path fill="#FFFFFF" id="XMLID_8080_" d="M62.6,42.7c0.5-0.4,0.9-0.6,1.2-0.9c2.1-1.7,4.6-2,7.1-1.5c2.9,0.6,4.8,2.9,4.9,6.2c0.1,4,0,8,0.1,12
			c0,0.8-0.4,1-1.1,1c-1.5,0-3.1,0-4.6,0c-0.9,0-1.2-0.3-1.2-1.2c0-2.9,0-5.8,0-8.6c0-0.6-0.1-1.2-0.2-1.7c-0.4-2.3-2.5-3.1-4.4-1.6
			c-1.2,0.9-2,2-2,3.8c0.1,2.7,0,5.4,0.1,8.1c0,1-0.3,1.4-1.3,1.4c-1.5-0.1-3,0-4.5,0c-0.8,0-1.1-0.3-1.1-1.1c0-5.6,0-11.3,0-16.9
			c0-0.8,0.3-1.1,1.1-1.1c1.5,0,2.9,0.1,4.4,0c1.1-0.1,1.6,0.4,1.4,1.4C62.5,42,62.5,42.2,62.6,42.7z"/>
		<path fill="#FFFFFF" id="XMLID_8077_" d="M90.4,51.7c-1.8,0-3.6,0-5.4,0c-0.3,0-0.7-0.1-0.9,0.2c-0.2,0.4,0.1,0.7,0.3,1c1,1.5,2.3,2.2,4.1,2.3
			c2.4,0.1,4.6-0.4,6.8-1.4c1.2-0.5,1.2-0.4,1.2,0.8c0,0.3,0,0.7,0,1c0,2.4,0,2.4-2.2,3.2c-4,1.3-8,1.7-12,0.1
			c-4.3-1.7-6-6.1-5.7-10c0.5-5.9,5.1-8.7,10.1-8.8c3.7-0.1,6.9,1,8.9,4.4c1.2,2,1.4,4.3,1.3,6.5c0,0.7-0.5,0.7-1,0.7
			C94.2,51.7,92.3,51.7,90.4,51.7z M86.9,48.2C86.9,48.2,86.9,48.2,86.9,48.2c0.8,0,1.6,0,2.4,0c1,0,1.3-0.4,1-1.4
			c-0.4-1.6-1.8-2.4-3.6-2.3c-1.5,0.1-2.8,1.5-3,2.9c-0.1,0.5,0.2,0.7,0.7,0.7C85.3,48.2,86.1,48.2,86.9,48.2z"/>
		<path fill="#FFFFFF" id="XMLID_8074_" d="M150.6,48.8c0.1,1.4-0.1,3,0.1,4.6c0.2,1.2,0.4,1.4,1.6,1.1c0.8-0.2,1,0.1,0.9,0.8
			c-0.1,3.2,0.5,2.6-2.6,3.6c-1.3,0.4-2.7,0.4-4.1,0.3c-0.8-0.1-1.4-0.4-1.8-1c-0.4-0.5-0.7-0.6-1.2-0.2c-2,1.4-4.3,1.6-6.7,1.2
			c-2.2-0.4-3.6-1.9-3.9-4.2c-0.3-2,0.8-4,2.9-5.2c2.1-1.2,4.5-1.7,6.7-2.5c0.6-0.2,1.4-0.1,1.3-1.2c-0.1-1.1-0.7-1.8-1.7-1.9
			c-2.7-0.3-4.9,0.6-7,2.2c-0.4,0.3-0.8,1-1.2,0.8c-0.5-0.2-0.2-1-0.2-1.5c0-0.7,0.1-1.4,0-2.1c-0.2-1.2,0.4-1.9,1.4-2.4
			c3.7-1.8,7.5-2.1,11.4-1.2c2.8,0.7,4.4,2.7,4.4,5.6C150.6,46.5,150.6,47.6,150.6,48.8z M144.4,51.6c0-0.1,0-0.3,0-0.5
			c-0.2-1.9-0.2-1.9-2-1.1c-1.3,0.6-2.8,0.9-4,1.7c-0.8,0.6-1.1,1.4-0.9,2.4c0.2,1,0.8,1.5,1.7,1.8
			C141.6,56.5,144.4,54.4,144.4,51.6z"/>
		<path fill="#FFFFFF" id="XMLID_8073_" d="M54,50c0,2.7,0,5.3,0,8c0,1.5,0,1.5-1.5,1.5c-1.4,0-2.8,0-4.1,0c-0.8,0-1.2-0.2-1.2-1.1
			c0-5.6,0-11.3,0-16.9c0-0.8,0.3-1.1,1.1-1.1c1.6,0,3.1,0,4.7,0c0.8,0,1.1,0.3,1.1,1.1C54,44.3,54,47.1,54,50z"/>
		<path fill="#FFFFFF" id="XMLID_8072_" d="M50.6,39.9c-2.1,0-3.9-1.5-3.8-3.4c0-2.3,1.6-4.1,3.7-4.1c2.2,0,3.8,1.6,3.8,3.7
			C54.3,38.4,52.8,39.9,50.6,39.9z"/>
	</g>
	<text fill="#FFFFFF" transform="matrix(1 0 0 1 46.7597 66.0628)" font-family="'MyriadPro-BoldCond'" font-size="5.8531px">I</text>
	<text fill="#FFFFFF" transform="matrix(1 0 0 1 48.2109 66.0628)" font-family="'MyriadPro-BoldCond'" font-size="5.8531px">N</text>
	<text fill="#FFFFFF" transform="matrix(1 0 0 1 51.2314 66.0628)" font-family="'MyriadPro-BoldCond'" font-size="5.8531px">S</text>
	<text fill="#FFFFFF" transform="matrix(1 0 0 1 53.5371 66.0628)" font-family="'MyriadPro-BoldCond'" font-size="5.8531px">T</text>
	<text fill="#FFFFFF" transform="matrix(1 0 0 1 55.8379 66.0628)" font-family="'MyriadPro-BoldCond'" font-size="5.8531px">I</text>
	<text fill="#FFFFFF" transform="matrix(1 0 0 1 57.289 66.0628)" font-family="'MyriadPro-BoldCond'" font-size="5.8531px">T</text>
	<text fill="#FFFFFF" transform="matrix(1 0 0 1 59.5898 66.0628)" font-family="'MyriadPro-BoldCond'" font-size="5.8531px">U</text>
	<text fill="#FFFFFF" transform="matrix(1 0 0 1 62.5156 66.0628)" font-family="'MyriadPro-BoldCond'" font-size="5.8531px">T</text>
	<text fill="#FFFFFF" transform="matrix(1 0 0 1 64.7402 66.0628)" font-family="'MyriadPro-BoldCond'" font-size="5.8531px">O</text>
	<text fill="#FFFFFF" transform="matrix(1 0 0 1 67.5556 66.0628)" font-family="'MyriadPro-BoldCond'" font-size="5.8531px"> </text>
	<text fill="#FFFFFF" transform="matrix(1 0 0 1 68.4863 66.0628)" font-family="'MyriadPro-BoldCond'" font-size="5.8531px">D</text>
	<text fill="#FFFFFF" transform="matrix(1 0 0 1 71.3593 66.0628)" font-family="'MyriadPro-BoldCond'" font-size="5.8531px">O</text>
	<text fill="#FFFFFF" transform="matrix(1 0 0 1 74.1748 66.0628)" font-family="'MyriadPro-BoldCond'" font-size="5.8531px"> </text>
	<text fill="#FFFFFF" transform="matrix(1 0 0 1 75.1054 66.0628)" font-family="'MyriadPro-BoldCond'" font-size="5.8531px">M</text>
	<text fill="#FFFFFF" transform="matrix(1 0 0 1 78.834 66.0628)" font-family="'MyriadPro-BoldCond'" font-size="5.8531px">E</text>
	<text fill="#FFFFFF" transform="matrix(1 0 0 1 81.1406 66.0628)" font-family="'MyriadPro-BoldCond'" font-size="5.8531px">I</text>
	<text fill="#FFFFFF" transform="matrix(1 0 0 1 82.5918 66.0628)" font-family="'MyriadPro-BoldCond'" font-size="5.8531px">O</text>
	<text fill="#FFFFFF" transform="matrix(1 0 0 1 85.4072 66.0628)" font-family="'MyriadPro-BoldCond'" font-size="5.8531px"> </text>
	<text fill="#FFFFFF" transform="matrix(1 0 0 1 86.3379 66.0628)" font-family="'MyriadPro-BoldCond'" font-size="5.8531px">A</text>
	<text fill="#FFFFFF" transform="matrix(1 0 0 1 89.0185 66.0628)" font-family="'MyriadPro-BoldCond'" font-size="5.8531px">M</text>
	<text fill="#FFFFFF" transform="matrix(1 0 0 1 92.7461 66.0628)" font-family="'MyriadPro-BoldCond'" font-size="5.8531px">B</text>
	<text fill="#FFFFFF" transform="matrix(1 0 0 1 95.5732 66.0628)" font-family="'MyriadPro-BoldCond'" font-size="5.8531px">I</text>
	<text fill="#FFFFFF" transform="matrix(1 0 0 1 97.0254 66.0628)" font-family="'MyriadPro-BoldCond'" font-size="5.8531px">E</text>
	<text fill="#FFFFFF" transform="matrix(1 0 0 1 99.331 66.0628)" font-family="'MyriadPro-BoldCond'" font-size="5.8531px">N</text>
	<text fill="#FFFFFF" transform="matrix(1 0 0 1 102.3515 66.0628)" font-family="'MyriadPro-BoldCond'" font-size="5.8531px">T</text>
	<text fill="#FFFFFF" transform="matrix(1 0 0 1 104.6513 66.0628)" font-family="'MyriadPro-BoldCond'" font-size="5.8531px">E</text>
	<text fill="#FFFFFF" transform="matrix(1 0 0 1 106.958 66.0628)" font-family="'MyriadPro-BoldCond'" font-size="5.8531px"> </text>
	<text fill="#FFFFFF" transform="matrix(1 0 0 1 107.8877 66.0628)" font-family="'MyriadPro-BoldCond'" font-size="5.8531px">E</text>
	<text fill="#FFFFFF" transform="matrix(1 0 0 1 110.1943 66.0628)" font-family="'MyriadPro-BoldCond'" font-size="5.8531px"> </text>
	<text fill="#FFFFFF" transform="matrix(1 0 0 1 111.125 66.0628)" font-family="'MyriadPro-BoldCond'" font-size="5.8531px">R</text>
	<text fill="#FFFFFF" transform="matrix(1 0 0 1 113.8759 66.0628)" font-family="'MyriadPro-BoldCond'" font-size="5.8531px">E</text>
	<text fill="#FFFFFF" transform="matrix(1 0 0 1 116.1816 66.0628)" font-family="'MyriadPro-BoldCond'" font-size="5.8531px">C</text>
	<text fill="#FFFFFF" transform="matrix(1 0 0 1 118.4941 66.0628)" font-family="'MyriadPro-BoldCond'" font-size="5.8531px">U</text>
	<text fill="#FFFFFF" transform="matrix(1 0 0 1 121.4199 66.0628)" font-family="'MyriadPro-BoldCond'" font-size="5.8531px">R</text>
	<text fill="#FFFFFF" transform="matrix(1 0 0 1 124.1709 66.0628)" font-family="'MyriadPro-BoldCond'" font-size="5.8531px">S</text>
	<text fill="#FFFFFF" transform="matrix(1 0 0 1 126.4775 66.0628)" font-family="'MyriadPro-BoldCond'" font-size="5.8531px">O</text>
	<text fill="#FFFFFF" transform="matrix(1 0 0 1 129.292 66.0628)" font-family="'MyriadPro-BoldCond'" font-size="5.8531px">S</text>
	<text fill="#FFFFFF" transform="matrix(1 0 0 1 131.5986 66.0628)" font-family="'MyriadPro-BoldCond'" font-size="5.8531px"> </text>
	<text fill="#FFFFFF" transform="matrix(1 0 0 1 132.5293 66.0628)" font-family="'MyriadPro-BoldCond'" font-size="5.8531px">H</text>
	<text fill="#FFFFFF" transform="matrix(1 0 0 1 135.5439 66.0628)" font-family="'MyriadPro-BoldCond'" font-size="5.8531px">Í</text>
	<text fill="#FFFFFF" transform="matrix(1 0 0 1 136.9951 66.0628)" font-family="'MyriadPro-BoldCond'" font-size="5.8531px">D</text>
	<text fill="#FFFFFF" transform="matrix(1 0 0 1 139.8691 66.0628)" font-family="'MyriadPro-BoldCond'" font-size="5.8531px">R</text>
	<text fill="#FFFFFF" transform="matrix(1 0 0 1 142.6201 66.0628)" font-family="'MyriadPro-BoldCond'" font-size="5.8531px">I</text>
	<text fill="#FFFFFF" transform="matrix(1 0 0 1 144.0713 66.0628)" font-family="'MyriadPro-BoldCond'" font-size="5.8531px">C</text>
	<text fill="#FFFFFF" transform="matrix(1 0 0 1 146.3125 66.0628)" font-family="'MyriadPro-BoldCond'" font-size="5.8531px">O</text>
	<text fill="#FFFFFF" transform="matrix(1 0 0 1 149.1279 66.0628)" font-family="'MyriadPro-BoldCond'" font-size="5.8531px">S</text>
</g>
</svg>
