<svg id="Camada_1" data-name="Camada 1" xmlns="http://www.w3.org/2000/svg" viewBox="0 0 190.34 104.83"><defs><style>.cls-1{fill:#4671ac;}.cls-2,.cls-3{fill:#ba3e35;}.cls-3{fill-rule:evenodd;}</style></defs><title>Prancheta 2</title><g id="Logo_Insa" data-name="Logo Insa"><path id="_Caminho_composto_" data-name="&lt;Caminho composto&gt;" class="cls-1" d="M68.42,62.24V39.46h4.83V30.29H53.18v9.18H58V62.24H52.77v9.24H73.66V62.24Zm-5.47,4.35V35.23H57.24v-.59H69.19v.59H63.54V66.59h6.12v.59H56.71v-.59Z"/><path id="_Caminho_composto_2" data-name="&lt;Caminho composto&gt;" class="cls-1" d="M80.84,38.57h.65q3,2.87,5.9,5.77c2,1.93,3.89,3.86,5.81,5.81q3.13,2.91,6.2,5.92l6.16,6.06V34.28h.65V63.13h-.47l-6-5.83q-3-2.9-5.93-5.8l-6.07-6q-3.07-3-6.17-6V67.36h-.71Zm26.66,32.9h3.77V30.29H100.49V50.44L79.66,30.11H75.84V71.47H86.72V51.23Z"/><path id="_Caminho_composto_3" data-name="&lt;Caminho composto&gt;" class="cls-1" d="M138.62,39.17a8.34,8.34,0,0,0-2.48-2.59,11,11,0,0,0-3.36-1.5,14.12,14.12,0,0,0-7.52.18A10.87,10.87,0,0,0,122,36.87a7.79,7.79,0,0,0-2.27,2.57,7.22,7.22,0,0,0-.84,3.5,8.37,8.37,0,0,0,.83,4A5.71,5.71,0,0,0,122,49.22a10.86,10.86,0,0,0,3.34,1.17,33.44,33.44,0,0,0,4.08.49c1.21.09,2.39.2,3.55.34a20,20,0,0,1,3.25.68,8.58,8.58,0,0,1,2.68,1.34,5.85,5.85,0,0,1,1.8,2.31,8.83,8.83,0,0,1,.67,3.62,7.33,7.33,0,0,1-1,3.79,8.61,8.61,0,0,1-2.71,2.75,13.23,13.23,0,0,1-3.82,1.69,17,17,0,0,1-4.36.57,15.89,15.89,0,0,1-4.33-.58,11.66,11.66,0,0,1-3.75-1.76,8.24,8.24,0,0,1-2.59-3h.71a8.57,8.57,0,0,0,2.64,2.64,12.12,12.12,0,0,0,3.61,1.54,16.34,16.34,0,0,0,8.1-.1,12.35,12.35,0,0,0,3.5-1.57,8.07,8.07,0,0,0,2.46-2.53,6.61,6.61,0,0,0,.93-3.45,8.51,8.51,0,0,0-.64-3.49,5.36,5.36,0,0,0-1.74-2.16,7.67,7.67,0,0,0-2.56-1.18,18.51,18.51,0,0,0-3.1-.56q-1.66-.16-3.38-.26a34,34,0,0,1-4.25-.55,11.5,11.5,0,0,1-3.5-1.27,6.37,6.37,0,0,1-2.4-2.51,9.34,9.34,0,0,1-1-4.26,7.64,7.64,0,0,1,.86-3.78,8.33,8.33,0,0,1,2.46-2.78A11.88,11.88,0,0,1,125,34.67a14.52,14.52,0,0,1,4.07-.63,14.29,14.29,0,0,1,4.1.51,11.21,11.21,0,0,1,3.59,1.7,8.52,8.52,0,0,1,2.58,2.92ZM123.15,58.88H113A12.41,12.41,0,0,0,114,64.24a11.92,11.92,0,0,0,3,4,15.64,15.64,0,0,0,4.42,2.65,20.75,20.75,0,0,0,5.26,1.3,23.36,23.36,0,0,0,5.55,0,20.91,20.91,0,0,0,5.28-1.31,16.1,16.1,0,0,0,4.46-2.6,12,12,0,0,0,3.08-3.88,11.68,11.68,0,0,0,1.15-5.14,13.45,13.45,0,0,0-.89-5.14,8.63,8.63,0,0,0-2.45-3.36,11.55,11.55,0,0,0-3.61-2,24.72,24.72,0,0,0-4.4-1.1c-1.57-.25-3.18-.46-4.83-.63-.93-.1-1.8-.23-2.62-.39a8.22,8.22,0,0,1-2.13-.69A3.24,3.24,0,0,1,124,44.73,3.33,3.33,0,0,1,124.3,41,4.78,4.78,0,0,1,126,39.75a7.76,7.76,0,0,1,2.22-.66,9.32,9.32,0,0,1,2.39,0,7.14,7.14,0,0,1,2.19.61A4.14,4.14,0,0,1,134.36,41a3.35,3.35,0,0,1,.61,2h10a12.5,12.5,0,0,0-1-5.27,11.82,11.82,0,0,0-2.88-4,14.94,14.94,0,0,0-4.21-2.63,19,19,0,0,0-5-1.31,20.57,20.57,0,0,0-5.27,0,18.91,18.91,0,0,0-5,1.31,14.7,14.7,0,0,0-4.19,2.63,11.64,11.64,0,0,0-2.86,4,12.5,12.5,0,0,0-1,5.27,14,14,0,0,0,1.13,5.66,9.6,9.6,0,0,0,3,3.78,14.14,14.14,0,0,0,4.69,2.23,30.39,30.39,0,0,0,6.09,1c1,0,2,.14,2.91.26a11.13,11.13,0,0,1,2.4.55,3.76,3.76,0,0,1,1.62,1,2.61,2.61,0,0,1,.6,1.75,2.53,2.53,0,0,1-.72,1.77,4.89,4.89,0,0,1-1.83,1.2,10,10,0,0,1-2.52.59,12.24,12.24,0,0,1-2.75,0,9.07,9.07,0,0,1-2.51-.65,4.82,4.82,0,0,1-1.84-1.26A2.93,2.93,0,0,1,123.15,58.88Z"/><path id="_Caminho_composto_4" data-name="&lt;Caminho composto&gt;" class="cls-1" d="M164.86,47.35l-4.24,9.47h8.59Zm14.95,20.12H179l-2.71-5.83H153.57l-2.77,5.83H150l14.65-31.71H165Zm-4.35,4h10.3V69.94L167.16,29.76h-4.53L144.09,69.94v1.53h10.3l2.41-5.18H173ZM164.86,37.05h.06L176.1,61H153.8Z"/><path id="_Caminho_composto_5" data-name="&lt;Caminho composto&gt;" class="cls-2" d="M183.08,85.44a3.67,3.67,0,0,0,1.35-.24,3,3,0,0,0,1-.68,3,3,0,0,0,.67-1,3.93,3.93,0,0,0,0-2.68,2.87,2.87,0,0,0-1.69-1.69,3.75,3.75,0,0,0-1.34-.23,3.67,3.67,0,0,0-1.35.24,3,3,0,0,0-1,.68,3,3,0,0,0-.67,1,3.93,3.93,0,0,0,0,2.68,2.87,2.87,0,0,0,1.69,1.69,3.77,3.77,0,0,0,1.34.23m0-5.41a2.16,2.16,0,0,1,.83.16,1.72,1.72,0,0,1,.62.44,1.9,1.9,0,0,1,.39.67,2.79,2.79,0,0,1,0,1.71,1.94,1.94,0,0,1-.38.67,1.72,1.72,0,0,1-.62.44,2.08,2.08,0,0,1-.83.16,2.12,2.12,0,0,1-.83-.16,1.72,1.72,0,0,1-.62-.44,1.93,1.93,0,0,1-.39-.67,2.6,2.6,0,0,1-.13-.85,2.66,2.66,0,0,1,.13-.85,2,2,0,0,1,.38-.67,1.74,1.74,0,0,1,.62-.44A2.1,2.1,0,0,1,183.08,80Zm-7.45,5.3a4.51,4.51,0,0,0,2-.39,2.64,2.64,0,0,0,1.19-1.11,3.59,3.59,0,0,0,.4-1.75,3.65,3.65,0,0,0-.24-1.35,2.53,2.53,0,0,0-.68-1,2.92,2.92,0,0,0-1.08-.59,4.81,4.81,0,0,0-1.44-.2h-3V80.1h.54V84.2h-.54v1.12h2.89Zm-1.1-5.23h1.19a2.61,2.61,0,0,1,1.19.25,1.63,1.63,0,0,1,.72.7,2.3,2.3,0,0,1,.24,1.09,2.42,2.42,0,0,1-.23,1.1,1.66,1.66,0,0,1-.71.73,2.52,2.52,0,0,1-1.2.26h-1.19Zm-4.67,4.09h-.54v1.12h2.33V84.2h-.54V80.09h.54V79h-2.33v1.12h.54Zm-5.7-2.38V80.08h1.34a1.75,1.75,0,0,1,1,.2.72.72,0,0,1,.3.65.76.76,0,0,1-.3.67,1.64,1.64,0,0,1-1,.22Zm2.68,3.49h1.5V84.2h-.64l-1-1.47.1,0,.24-.08a1.72,1.72,0,0,0,.32-.18,1.51,1.51,0,0,0,.32-.32,1.68,1.68,0,0,0,.24-.49,2.36,2.36,0,0,0,.1-.7,1.79,1.79,0,0,0-.62-1.48,2.85,2.85,0,0,0-1.82-.5h-.88l-.8,0-.76,0h-.76v1.09h.54V84.2h-.54v1.12h2.33V84.2h-.54V82.94h1.2Zm-6.92-8.13h-1.76l-.58,1.18h1.17Zm-1.7,2.88.92,2.53h-1.83Zm1.89,5.25h1.6V84.2h-.61L159.19,79H157.3l-1.92,5.23h-.61v1.12h1.56l.59-1.63h2.6Zm-7.79-1.12h-.54v1.12h2.33V84.2h-.54V80.09h.54V79h-2.33v1.12h.54ZM150.69,79h-2.5l-1.27,2.95L145.68,79h-2.57v1.12h.54V84.2h-.54v1.12h2.31V84.2h-.54V80.09L146.17,83h1.43l1.3-2.91V84.2h-.54v1.12h2.33V84.2h-.54V80.09h.54ZM137.43,84.2h-.54v1.12h5.27V84.21h-3.49V82.67H142v-1.1h-3.28v-1.5h3.45V79h-5.24v1.12h.54Zm-3.2-2.6-.82-.24a3.34,3.34,0,0,1-.53-.21.76.76,0,0,1-.28-.22.45.45,0,0,1-.08-.28.5.5,0,0,1,.1-.3.69.69,0,0,1,.26-.2,1.45,1.45,0,0,1,.38-.11,2.83,2.83,0,0,1,.45,0,4,4,0,0,1,.65.05,3.25,3.25,0,0,1,.51.12,2.83,2.83,0,0,1,.36.15l.22.12.07.05V79.29l-.11-.06a2.14,2.14,0,0,0-.33-.14,3.64,3.64,0,0,0-.58-.14,5.07,5.07,0,0,0-.84-.06,3.75,3.75,0,0,0-1,.12,2.42,2.42,0,0,0-.78.36,1.67,1.67,0,0,0-.52.59,1.76,1.76,0,0,0-.19.82,2.15,2.15,0,0,0,.11.71,1.34,1.34,0,0,0,.33.52,2,2,0,0,0,.56.38,4.85,4.85,0,0,0,.81.28l.82.23a3.48,3.48,0,0,1,.52.2.74.74,0,0,1,.28.21.46.46,0,0,1,.08.28.55.55,0,0,1-.12.37.8.8,0,0,1-.42.25,3.09,3.09,0,0,1-.81.09,3.28,3.28,0,0,1-.67-.07,3.53,3.53,0,0,1-.56-.16,3.61,3.61,0,0,1-.43-.19l-.27-.16-.1-.07v1.3l.09.05.26.12.42.15a4.25,4.25,0,0,0,.57.12,4.81,4.81,0,0,0,.71.05,4.47,4.47,0,0,0,1.18-.14,2.32,2.32,0,0,0,.82-.4,1.6,1.6,0,0,0,.48-.61,1.89,1.89,0,0,0,.16-.78,2.12,2.12,0,0,0-.11-.71,1.32,1.32,0,0,0-.33-.51,1.93,1.93,0,0,0-.56-.37A4.91,4.91,0,0,0,134.23,81.6Zm-9.36,3.84a3.67,3.67,0,0,0,1.35-.24,3,3,0,0,0,1-.68,3,3,0,0,0,.67-1,3.93,3.93,0,0,0,0-2.68,2.87,2.87,0,0,0-1.69-1.69,3.75,3.75,0,0,0-1.34-.23,3.67,3.67,0,0,0-1.35.24,3,3,0,0,0-1,.68,3,3,0,0,0-.67,1,3.93,3.93,0,0,0,0,2.68,2.87,2.87,0,0,0,1.69,1.69A3.77,3.77,0,0,0,124.87,85.44Zm0-5.41a2.15,2.15,0,0,1,.83.16,1.72,1.72,0,0,1,.62.44,1.9,1.9,0,0,1,.39.67,2.79,2.79,0,0,1,0,1.71,1.94,1.94,0,0,1-.38.67,1.72,1.72,0,0,1-.62.44,2.07,2.07,0,0,1-.83.16,2.12,2.12,0,0,1-.83-.16,1.72,1.72,0,0,1-.62-.44A1.93,1.93,0,0,1,123,83a2.6,2.6,0,0,1-.13-.85,2.66,2.66,0,0,1,.13-.85,2,2,0,0,1,.38-.67,1.74,1.74,0,0,1,.62-.44A2.1,2.1,0,0,1,124.87,80Zm-7.45,5.3a4.51,4.51,0,0,0,2-.39,2.64,2.64,0,0,0,1.19-1.11,3.59,3.59,0,0,0,.4-1.75,3.65,3.65,0,0,0-.24-1.35,2.53,2.53,0,0,0-.68-1,2.92,2.92,0,0,0-1.08-.59,4.81,4.81,0,0,0-1.44-.2h-3V80.1h.54V84.2h-.54v1.12h2.89Zm-1.1-5.23h1.19a2.61,2.61,0,0,1,1.19.25,1.63,1.63,0,0,1,.72.7,2.3,2.3,0,0,1,.24,1.09,2.42,2.42,0,0,1-.23,1.1,1.66,1.66,0,0,1-.71.73,2.52,2.52,0,0,1-1.2.26h-1.19ZM107,84.2h-.54v1.12h5.06V84.2h-3.27V80.09h.54V79h-2.33v1.12H107Zm-4.68-4.14.92,2.53h-1.83Zm1.89,5.25h1.6V84.2h-.61L103.26,79h-1.89L99.46,84.2h-.61v1.12h1.56l.59-1.63h2.6Zm-12.73,0h2.31V84.2h-.54V80.06l2.45,5.25h2.1V80.09h.54V79H96v1.12h.54v4.13L94.09,79H91.45v1.12H92V84.2h-.54Zm-4.19.13a3.67,3.67,0,0,0,1.35-.24,3,3,0,0,0,1-.68,3,3,0,0,0,.67-1,3.93,3.93,0,0,0,0-2.68,2.87,2.87,0,0,0-1.69-1.69,3.75,3.75,0,0,0-1.34-.23,3.67,3.67,0,0,0-1.35.24,3,3,0,0,0-1,.68,3,3,0,0,0-.67,1,3.93,3.93,0,0,0,0,2.68,2.87,2.87,0,0,0,1.69,1.69A3.77,3.77,0,0,0,87.26,85.44Zm0-5.41a2.15,2.15,0,0,1,.83.16,1.72,1.72,0,0,1,.62.44,1.9,1.9,0,0,1,.39.67,2.79,2.79,0,0,1,0,1.71,1.94,1.94,0,0,1-.38.67,1.72,1.72,0,0,1-.62.44,2.07,2.07,0,0,1-.83.16,2.12,2.12,0,0,1-.83-.16,1.72,1.72,0,0,1-.62-.44,1.93,1.93,0,0,1-.39-.67,2.6,2.6,0,0,1-.13-.85,2.66,2.66,0,0,1,.13-.85,2,2,0,0,1,.38-.67,1.74,1.74,0,0,1,.62-.44A2.1,2.1,0,0,1,87.26,80Zm-6,4.17h-.54v1.12h2.33V84.2h-.54V80.09h.54V79H80.75v1.12h.54Zm-1.54-.63-.08.07-.24.17A2.62,2.62,0,0,1,79,84a3.42,3.42,0,0,1-.6.17,4.37,4.37,0,0,1-.8.07,2.42,2.42,0,0,1-.8-.13,2,2,0,0,1-.67-.39,1.83,1.83,0,0,1-.46-.66,2.49,2.49,0,0,1,0-1.79,1.91,1.91,0,0,1,.45-.67,2,2,0,0,1,.68-.43,2.41,2.41,0,0,1,.86-.15,3.79,3.79,0,0,1,.77.08,3.2,3.2,0,0,1,.59.18,2.7,2.7,0,0,1,.41.22l.24.18.08.08V79.44l-.09-.06-.26-.14a3.57,3.57,0,0,0-.43-.17,4.15,4.15,0,0,0-.59-.14,4.59,4.59,0,0,0-.74-.06,3.9,3.9,0,0,0-1.39.24,3.2,3.2,0,0,0-1.09.68,3,3,0,0,0-.71,1,3.44,3.44,0,0,0-.25,1.32,3.79,3.79,0,0,0,.17,1.14,3,3,0,0,0,.47.91,2.87,2.87,0,0,0,.72.67,3.3,3.3,0,0,0,.92.41,4,4,0,0,0,1.08.14,5.45,5.45,0,0,0,.79-.06,4.62,4.62,0,0,0,.62-.14,3.58,3.58,0,0,0,.44-.16l.26-.14.09-.06Zm-9.34-3.51.92,2.53H69.5Zm1.89,5.25h1.6V84.2h-.61L71.38,79H69.49L67.57,84.2H67v1.12h1.56l.59-1.63h2.6Zm-12.73,0h2.31V84.2h-.54V80.06l2.45,5.25h2.1V80.09h.54V79H64.12v1.12h.54v4.13L62.21,79H59.57v1.12h.54V84.2h-.54ZM53,85.44a3.67,3.67,0,0,0,1.35-.24,3,3,0,0,0,1-.68,3,3,0,0,0,.67-1,3.93,3.93,0,0,0,0-2.68,2.87,2.87,0,0,0-1.69-1.69A3.75,3.75,0,0,0,53,78.88a3.67,3.67,0,0,0-1.35.24,3,3,0,0,0-1,.68,3,3,0,0,0-.67,1,3.93,3.93,0,0,0,0,2.68,2.87,2.87,0,0,0,1.69,1.69A3.77,3.77,0,0,0,53,85.44ZM53,80a2.16,2.16,0,0,1,.83.16,1.72,1.72,0,0,1,.62.44,1.9,1.9,0,0,1,.39.67,2.79,2.79,0,0,1,0,1.71,1.94,1.94,0,0,1-.38.67,1.72,1.72,0,0,1-.62.44,2.07,2.07,0,0,1-.83.16,2.12,2.12,0,0,1-.83-.16,1.72,1.72,0,0,1-.62-.44,1.93,1.93,0,0,1-.39-.67,2.6,2.6,0,0,1-.13-.85,2.66,2.66,0,0,1,.13-.85,2,2,0,0,1,.38-.67,1.74,1.74,0,0,1,.62-.44A2.1,2.1,0,0,1,53,80ZM45.64,84.2v1.12H48V84.2h-.54V80.1h2.1V79H44.08V80.1h2.1V84.2ZM43,80.09h.54V79H41.25v1.12h.54v2.46a2.33,2.33,0,0,1-.18,1,1.18,1.18,0,0,1-.53.56,1.77,1.77,0,0,1-.83.18,1.79,1.79,0,0,1-.85-.18,1.21,1.21,0,0,1-.54-.58,2.45,2.45,0,0,1-.19-1V80.09h.54V79H36.9v1.12h.54v2.58a3.58,3.58,0,0,0,.21,1.27,2.16,2.16,0,0,0,.58.86,2.33,2.33,0,0,0,.89.49,3.91,3.91,0,0,0,1.14.15,3.76,3.76,0,0,0,1.14-.16,2.29,2.29,0,0,0,.88-.49,2.2,2.2,0,0,0,.57-.87,3.74,3.74,0,0,0,.2-1.29ZM32.51,84.2v1.12h2.33V84.2H34.3V80.1h2.1V79H31V80.1h2.1V84.2Zm-4,0h-.54v1.12h2.33V84.2h-.54V80.09h.54V79H27.95v1.12h.54Zm-5.11,0v1.12h2.33V84.2h-.54V80.1h2.1V79H21.83V80.1h2.1V84.2Zm-3.71-2.6-.82-.24a3.34,3.34,0,0,1-.53-.21.76.76,0,0,1-.28-.22.44.44,0,0,1-.08-.28.5.5,0,0,1,.1-.3.69.69,0,0,1,.26-.2A1.45,1.45,0,0,1,18.7,80a2.83,2.83,0,0,1,.45,0,4,4,0,0,1,.65.05,3.25,3.25,0,0,1,.51.12,2.83,2.83,0,0,1,.36.15l.22.12.07.05V79.29l-.11-.06a2.14,2.14,0,0,0-.33-.14,3.64,3.64,0,0,0-.58-.14,5.07,5.07,0,0,0-.84-.06,3.75,3.75,0,0,0-1,.12,2.42,2.42,0,0,0-.78.36,1.67,1.67,0,0,0-.52.59,1.76,1.76,0,0,0-.19.82,2.14,2.14,0,0,0,.11.71,1.34,1.34,0,0,0,.33.52,2,2,0,0,0,.56.38,4.85,4.85,0,0,0,.81.28l.82.23a3.48,3.48,0,0,1,.52.2.74.74,0,0,1,.28.21.46.46,0,0,1,.08.28.55.55,0,0,1-.12.37.8.8,0,0,1-.42.25,3.08,3.08,0,0,1-.81.09,3.28,3.28,0,0,1-.67-.07,3.52,3.52,0,0,1-.56-.16,3.61,3.61,0,0,1-.43-.19l-.27-.16-.1-.07v1.3l.09.05.26.12.42.15a4.25,4.25,0,0,0,.57.12,4.81,4.81,0,0,0,.71.05A4.47,4.47,0,0,0,20,85.26a2.32,2.32,0,0,0,.82-.4,1.61,1.61,0,0,0,.48-.61,1.88,1.88,0,0,0,.16-.78,2.12,2.12,0,0,0-.11-.71,1.32,1.32,0,0,0-.33-.51,1.93,1.93,0,0,0-.56-.37A4.92,4.92,0,0,0,19.67,81.6ZM9,85.31h2.31V84.2H10.8V80.06l2.45,5.25h2.1V80.09h.54V79H13.58v1.12h.54v4.13L11.67,79H9v1.12h.54V84.2H9ZM6.15,84.2H5.61v1.12H7.94V84.2H7.4V80.09h.54V79H5.61v1.12h.54Z"/><path id="_Caminho_composto_6" data-name="&lt;Caminho composto&gt;" class="cls-3" d="M30.53,44.17a24,24,0,0,1-4.42,0,21,21,0,0,1-3.62-.61,13,13,0,0,1-2.95-1.08c-1.89-1.06-2.83-3.56-3.77-6S14,31.85,12.44,31.06a26.48,26.48,0,0,0-4.25-1.19l-.28-.06L7,29.65H7c-.73-.13-1.62-.29-2.16-.41a.72.72,0,0,0-.38.93.79.79,0,0,0,.24.38h0a.87.87,0,0,0,.43.22c.27,0,.62.09,1,.14A12.72,12.72,0,0,1,12,32.74a5.68,5.68,0,0,1,1.46,2.05c.44.9.86,2,1.24,3,.16.41.32.86.47,1.29a18.86,18.86,0,0,0,1.55,3.61c1.7,2.44,3.52,2.49,6.13,2.56.71,0,1.47,0,2.27.1a6.73,6.73,0,0,1,2.29.65,3.12,3.12,0,0,1,1.11.88,3.4,3.4,0,0,1,2.53-1.54l.21,0h0c.6-.14,1.11-.23,1.61-.32a11.63,11.63,0,0,0,2.65-.69,5.31,5.31,0,0,0,2.42-2.61l.13-.23h0a12.59,12.59,0,0,0,1-2.63h0A24,24,0,0,1,41,34.07a6.38,6.38,0,0,1,2.09-1.7,35.1,35.1,0,0,1,4.07-2.09,2,2,0,0,0,1.14-.93h0a1,1,0,0,0,.1-.54.83.83,0,0,0-.18-.44h0a.85.85,0,0,0-.41-.27A12.66,12.66,0,0,1,45,29.81l-.71.36A21.43,21.43,0,0,0,42,31.62,12,12,0,0,0,40.38,33h0a6.94,6.94,0,0,0-1.31,2.62,27.94,27.94,0,0,1-1.46,3.58,11.88,11.88,0,0,1-1.42,2.22,6.57,6.57,0,0,1-1.63,1.47,9.79,9.79,0,0,1-3.9,1.24ZM6.85,24.4l.56.06c2,.19,5.39.52,8,1.84A11.58,11.58,0,0,1,18,28.07a12,12,0,0,1,2,2.41A12.4,12.4,0,0,1,21.1,33a15.84,15.84,0,0,0,.61,1.57c1.77,3.67,5.37,3.37,8.1,3.15h0l.29,0c1.21-.1,1.79-.76,2.61-1.7h0l.39-.44a10.85,10.85,0,0,0,1.55-2.4,29.57,29.57,0,0,0,1.17-2.76c.08-.2.14-.38.2-.56h0a6,6,0,0,1,1.27-2.42,20.28,20.28,0,0,1,5.34-3.51c.88-.45,1.74-.89,2.5-1.37a7.53,7.53,0,0,1,2.06-.86c.2-.06.27,0,.31,0l0-.05a1.29,1.29,0,0,0,.23-.75,1.25,1.25,0,0,0-.18-.5.79.79,0,0,0-.82-.33,31.57,31.57,0,0,0-6.88,3.27c-2.56,1.54-4.76,3.15-5.13,3.9-.22.44-.49,1.1-.8,1.83-1,2.27-2.21,5.26-3.46,5.64h0a1.31,1.31,0,0,1-.58,0,1.1,1.1,0,0,1-.52-.23,3.06,3.06,0,0,1-1-2.2v-.08c0-.27-.06-.92-.1-2-.05-1.44-.14-3.62-.32-6.54,0-.33,0-.68,0-1.06a7.31,7.31,0,0,0-.38-2.89h0a.72.72,0,0,0-.23-.33h0l-.09,0h0a.35.35,0,0,0-.14,0h0a1.88,1.88,0,0,0-.72.73,6.79,6.79,0,0,0-.12,1.71c0,.29,0,.56,0,.74a27,27,0,0,0,0,2.86c0,.52,0,1,0,1.49,0,.21,0,.74.1,1.42a31.51,31.51,0,0,1,.15,5.38,1.22,1.22,0,0,1-1.35,1h0c-1.69,0-2.39-2.11-3-3.92-.16-.49-.32-.95-.48-1.33h0l-.08-.18a5.79,5.79,0,0,0-1.84-2.69,24.36,24.36,0,0,0-6.35-2.8,37.35,37.35,0,0,0-8.08-1.62,1.77,1.77,0,0,0-.79.17,1.16,1.16,0,0,0-.49.4,1,1,0,0,0,.08.86h0l0,.06h0c.06.15.52.29,1,.4A15.89,15.89,0,0,0,6.85,24.4Zm40.73,1.14-.19.13a24.44,24.44,0,0,1-3.16,1.66,16.58,16.58,0,0,0-4.1,2.39l-.16.15a17.87,17.87,0,0,0-2.72,4.81l-.42.94h0l-.18.39a13.15,13.15,0,0,1-2.3,3.92,5,5,0,0,1-.86.74c-.24.16-.5.33-.78.49a7.41,7.41,0,0,1-.92.45h0a10.9,10.9,0,0,1-1.87.45,12.65,12.65,0,0,1-2.44.08,17.37,17.37,0,0,1-4.13-.69A7.66,7.66,0,0,1,20.44,40l-.12-.11V39.7c0-.08-.2-.15-.41-.39h0a5.15,5.15,0,0,1-.69-.88l-.84-1.92c-.2-.46-.46-1-.73-1.51a23.86,23.86,0,0,1-1.35-3,5.65,5.65,0,0,0-2.82-2.58,18.27,18.27,0,0,0-5.7-1.84c-.13,0-1-.13-1.95-.33l-.31-.07L5,27.12H5c-.5-.09-.63.1-.71.21l0,0h0a.65.65,0,0,0,0,.28h0v.1h0a.7.7,0,0,0,.12.38,1,1,0,0,0,.34.32h0l.11-.05.07,0h.15a1.39,1.39,0,0,1,.53.08h0c.6.19,1.5.4,2.47.62l.19,0h0l1,.22h0a14.45,14.45,0,0,1,3.57,1c1.84.91,2.76,3.35,3.7,5.83s1.78,4.73,3.44,5.65a12.2,12.2,0,0,0,2.77,1,20.24,20.24,0,0,0,3.49.59,23.57,23.57,0,0,0,4.22,0h0a9.08,9.08,0,0,0,3.61-1.14A5.85,5.85,0,0,0,35.53,41a11.11,11.11,0,0,0,1.32-2.08,27.32,27.32,0,0,0,1.43-3.49,7.46,7.46,0,0,1,1.46-2.88A12.54,12.54,0,0,1,41.52,31a22.31,22.31,0,0,1,2.35-1.5l.72-.37a12.41,12.41,0,0,0,2.59-1.57l.07-.06a.43.43,0,0,1,.3-.21,2.42,2.42,0,0,0,.24-.3,1.6,1.6,0,0,0,.35-1,.51.51,0,0,0-.13-.29.59.59,0,0,0-.25-.16Zm.6-1.57a2.07,2.07,0,0,0,.11-1.36l-.06-.1c-.05-.1-.16-.3-.3-.32a2.54,2.54,0,0,1-.56.2,6.87,6.87,0,0,0-1.87.77c-.81.51-1.67,1-2.56,1.4A19.7,19.7,0,0,0,37.8,28a5.44,5.44,0,0,0-1.09,2.13h0l-.21.58a30.35,30.35,0,0,1-1.19,2.83,11.58,11.58,0,0,1-1.67,2.57l-.38.43h0c-.94,1.07-1.59,1.83-3.11,2l-.29,0C26.92,38.72,23,39,21,34.92a16.42,16.42,0,0,1-.64-1.65,11.87,11.87,0,0,0-1-2.4,11.23,11.23,0,0,0-1.9-2.26A10.84,10.84,0,0,0,15.07,27c-2.48-1.26-5.81-1.58-7.73-1.77h0l-.56-.06h0l-.54,0c-.42,0-.93,0-1.41-.12h0l-.14,0H4.6s0,0,0-.06l0,0a1.54,1.54,0,0,0-.23.39h0a.64.64,0,0,0,0,.39h0a.5.5,0,0,0,.19.26h0a1,1,0,0,0,.24.13,7.65,7.65,0,0,0,1,.28l.4,0H6l.3,0h0L8,26.73H8a19.07,19.07,0,0,1,6,1.92,6.3,6.3,0,0,1,3.17,3,23.44,23.44,0,0,0,1.31,2.9c.27.53.53,1,.75,1.55L20,38a6.6,6.6,0,0,0,.57.69,5,5,0,0,1,.51.63,7,7,0,0,0,2.57,1.3,16.63,16.63,0,0,0,4,.66,12,12,0,0,0,2.3-.08,10.19,10.19,0,0,0,1.73-.42,6.82,6.82,0,0,0,.82-.4h0c.27-.16.51-.31.73-.46h0a4.23,4.23,0,0,0,.61-.5,13.46,13.46,0,0,0,2-3.58l.18-.4.41-.92a17.51,17.51,0,0,1,3-5.16l.31-.31A17,17,0,0,1,44,26.54a24,24,0,0,0,3.07-1.61h0l.15-.06A2.83,2.83,0,0,0,48.18,24ZM25.79,67.43h0a1,1,0,0,0-.47.6,2.26,2.26,0,0,0-.18,1,.8.8,0,0,0,0,.15,5,5,0,0,1,.16.68h0a2.09,2.09,0,0,0,.16.56s.05,0,.14,0a4,4,0,0,0,.76.1,1,1,0,0,0,.59-.27.74.74,0,0,0,.28-.48,2.2,2.2,0,0,1,.06-.51.35.35,0,0,0-.06-.32l0,0v0l0,0h0a3.42,3.42,0,0,0-.48-1,1.66,1.66,0,0,0-.6-.43h0l-.15-.05Zm.38-3a3.71,3.71,0,0,0-.94.19h0a1,1,0,0,0-.54.46,1.08,1.08,0,0,0,.11,1v0h0s.16,0,.37,0,.63,0,.74,0a1,1,0,0,0,.59-.27.74.74,0,0,0,.28-.48h0v-.21h0a.83.83,0,0,0-.17-.61h0v0s-.11,0-.26-.1l0,0Zm-.28-2.55a3.7,3.7,0,0,0-.94.19h0a1,1,0,0,0-.54.46,1.08,1.08,0,0,0,.12,1h0v0h0s.16,0,.37,0,.63,0,.74,0a1,1,0,0,0,.59-.27.74.74,0,0,0,.28-.48h0v-.21h0a.83.83,0,0,0-.17-.61v0s-.11,0-.26-.1l0,0ZM25.53,59a3.7,3.7,0,0,0-.94.19,1,1,0,0,0-.54.46,1.08,1.08,0,0,0,.11,1h0v0h0s.16,0,.37,0,.63,0,.74,0a1,1,0,0,0,.59-.27.74.74,0,0,0,.28-.48h0v-.21h0a.82.82,0,0,0-.17-.61v0s-.11,0-.26-.1l0,0Zm-.32-2.75a3.69,3.69,0,0,0-.94.19h0a1,1,0,0,0-.54.46,1.08,1.08,0,0,0,.11,1h0v0h0s.16,0,.37,0,.63,0,.74,0a1,1,0,0,0,.59-.27.74.74,0,0,0,.28-.48h0V57h0a.82.82,0,0,0-.17-.61v0s-.11,0-.26-.1h0Zm7.91-4.6a3.28,3.28,0,0,0-.24-.8.8.8,0,0,0-.43-.41.92.92,0,0,0-.85.19h0c-.05,0,.07.12.07.29s0,.55,0,.64a.81.81,0,0,0,.28.47h0a.61.61,0,0,0,.41.19h0l.19,0h0a.7.7,0,0,0,.5-.2l0,0a1.89,1.89,0,0,1,0-.21h0v0ZM30.29,53a3.59,3.59,0,0,0-.9.18.91.91,0,0,0-.51.44h0a1,1,0,0,0,.11,1h0v0h0s.15,0,.35,0,.6,0,.71,0a.91.91,0,0,0,.56-.26.7.7,0,0,0,.27-.45h0v-.21h0a.79.79,0,0,0-.16-.58v0s-.11,0-.25-.09h0ZM28.64,50.9a1.43,1.43,0,0,1,0,.18l.44.79h0a.89.89,0,0,0,.49.36.69.69,0,0,0,.52,0h0l.18-.1h0a.77.77,0,0,0,.42-.41v0s0-.11,0-.26v0l-.08-.12a3.51,3.51,0,0,0-.58-.69h0a.89.89,0,0,0-.62-.23A1,1,0,0,0,28.64,50.9Zm-1.33-.32a3.57,3.57,0,0,0-.9.18h0a.91.91,0,0,0-.51.44,1,1,0,0,0,.11,1h0v0h0s.15,0,.35,0,.6,0,.71,0a.91.91,0,0,0,.56-.26.7.7,0,0,0,.27-.45h0v-.21h0a.79.79,0,0,0-.16-.58v0s-.11,0-.25-.09h0ZM30.19,49a1.34,1.34,0,0,1,0-.88v-.05s-.07,0-.18-.05h-.13a3,3,0,0,0-.75.15h0a.71.71,0,0,0-.4.34h0a.83.83,0,0,0,.09.78h0v0h0c0,.06.1-.07.25-.06s.51,0,.6,0a.72.72,0,0,0,.44-.21Zm2.17-1.39a3.58,3.58,0,0,0-.9.18,1,1,0,0,0-.45.33,1.42,1.42,0,0,1,0,.45v.17h0a1,1,0,0,1-.06.31l.07.14h0v0h0s.15,0,.35,0,.6,0,.71,0A.91.91,0,0,0,32.7,49a.7.7,0,0,0,.27-.45h0v-.2h0a.79.79,0,0,0-.16-.58h0v0s-.11,0-.24-.09h0ZM26,54.49h0a1,1,0,0,1,0,.15l.08.16v0h0s.15,0,.35,0,.6,0,.71,0a.91.91,0,0,0,.56-.26.7.7,0,0,0,.27-.45h0v-.21h0a.79.79,0,0,0-.17-.58h0v0s-.1,0-.24-.08h0l-.15,0a3.55,3.55,0,0,0-.9.18h0a.92.92,0,0,0-.5.41,1.71,1.71,0,0,1,0,.5Zm-1.34-.91a3.55,3.55,0,0,0-.9.18h0a.9.9,0,0,0-.51.44h0a1,1,0,0,0,.11,1h0v0h0s.15,0,.35,0,.6,0,.71,0a.91.91,0,0,0,.56-.26,1,1,0,0,0,.22-.27,1.37,1.37,0,0,1,0-.86l-.07-.12h0v0s-.1,0-.24-.09h0Zm-.28-2.93a3.74,3.74,0,0,0-.95.19h0a1,1,0,0,0-.54.46h0a1.09,1.09,0,0,0,.12,1h0v0h0s.17,0,.38,0,.63,0,.74,0a1,1,0,0,0,.6-.27.75.75,0,0,0,.29-.49h0V51.4h0a.84.84,0,0,0-.17-.62v0s-.12,0-.26-.1l0,0Zm1.53-1.73h0a1.19,1.19,0,0,1,0,.32c0,.1.08.2.13.3h0v0h0s.15,0,.35,0,.6,0,.71,0a.91.91,0,0,0,.56-.26.7.7,0,0,0,.27-.45h0v-.21h0a.79.79,0,0,0-.17-.58h0v0s-.1,0-.24-.09h0l-.16,0a3.53,3.53,0,0,0-.9.18h0a.92.92,0,0,0-.48.38v.4Zm-1.56-1.19a4.43,4.43,0,0,0-1.12.22,1.19,1.19,0,0,0-.67.57h0a1.33,1.33,0,0,0,.14,1.27h0v0h0s.23,0,.5,0,.75,0,.88,0a1.2,1.2,0,0,0,.75-.34,1.32,1.32,0,0,0,.27-.32,1.35,1.35,0,0,1,.08-.85A1.21,1.21,0,0,0,25,47.9v0l-.34-.15-.06,0Z"/></g></svg>