<?xml version="1.0" encoding="utf-8"?>
<!-- Generator: Adobe Illustrator 20.1.0, SVG Export Plug-In . SVG Version: 6.00 Build 0)  -->
<svg version="1.2" baseProfile="tiny" id="Camada_1"
	 xmlns="http://www.w3.org/2000/svg" xmlns:xlink="http://www.w3.org/1999/xlink" x="0px" y="0px" viewBox="0 0 3118.1 850.4"
	 overflow="scroll" xml:space="preserve">
<g>
	<g id="Logo_Insa_1_">
		<path id="XMLID_120_" fill="#9D9D9C" d="M1329.7,509.4V314.1h41.1c0-10,0-19.1,0-27.2s0-16.5,0-24.6c0-8.1,0-17.2,0-26.9
			c-28.8,0-57.3,0-86.2,0c-28.5,0-57.3,0-86.2,0c0,9.7,0,18.8,0,26.9c0,8.1,0,16.2,0,24.6c0,8.1,0,17.2,0,27.2h41.5v195.3h-45
			c0,7.5,0,14.3,0,20.7s0,12.6,0,18.5c0,6.2,0,12.3,0,18.8s0,13.6,0,21.1c30.1,0,59.9,0,89.7,0s59.6,0,89.7,0c0-7.8,0-14.6,0-21.1
			s0-12.6,0-18.8s0-12.3,0-18.5c0-6.5,0-13.3,0-20.7H1329.7z M1282.7,546.7V277.5h-48.9v-5.2c16.8,0,34,0,51.2,0s34.3,0,51.2,0v5.2
			h-48.6v269.2h52.5v5.2c-18.5,0-36.9,0-55.4,0c-18.5,0-36.9,0-55.7,0v-5.2H1282.7z"/>
		<path id="XMLID_118_" fill="#9D9D9C" d="M1436,306.3h5.5c16.8,16.5,33.7,33,50.5,49.6c16.8,16.5,33.4,33,49.9,49.9
			c17.8,16.5,35.6,33.7,53.1,50.9c17.5,17.2,35.3,34.7,52.8,51.8V269.4h5.5v247.5h-3.9c-17.5-16.8-34.7-33.7-51.5-50.2
			c-17.2-16.5-34-33-50.9-49.6c-17.2-16.8-34.7-34-52.2-51.2c-17.5-17.2-35.3-34.3-52.8-51.2v238.4h-6.2V306.3z M1664.7,588.5h32.4
			V235.4c-30.8,0-61.6,0-92.3,0V408l-178.8-174.3h-32.7v354.7c15.5,0,30.8,0,46.7,0c15.5,0,31.1,0,47,0V414.8L1664.7,588.5z"/>
		<path id="XMLID_117_" fill="#9D9D9C" d="M1932,311.5c-5.5-9.1-12.6-16.5-21.4-22.4s-18.5-10-28.8-13c-10.7-2.6-21.4-3.9-32.4-3.6
			c-11,0.3-21.7,1.9-32.1,5.2s-19.4,7.8-27.9,13.9c-8.1,5.8-14.6,13.3-19.4,22c-4.9,8.7-7.1,18.8-7.1,30.1c0,13.9,2.6,25.3,7.1,34
			c4.9,8.7,11.3,15.2,19.4,20.1c8.1,4.5,17.8,8.1,28.8,10c11,1.9,22.7,3.6,35,4.2c10.4,0.6,20.4,1.6,30.5,2.9
			c10,1.3,19.1,3.2,27.9,5.8s16.2,6.5,23,11.7c6.5,4.9,11.7,11.7,15.6,19.8c3.9,8.1,5.5,18.5,5.8,31.1c-0.3,12.3-3.2,23-8.7,32.4
			c-5.8,9.4-13.6,17.2-23.3,23.6c-9.7,6.5-20.7,11.3-32.7,14.6c-12,3.2-24.6,4.9-37.6,4.9s-25.3-1.6-37.3-4.9
			c-12-3.2-22.7-8.4-32.1-14.9c-9.4-6.8-16.8-15.2-22.4-25.6h6.2c5.8,9.1,13.3,16.5,22.7,22.7c9.4,5.8,19.8,10.4,31.1,13.3
			c11.3,2.9,23,4.2,35,3.9c12-0.3,23.3-1.6,34.7-4.9c11-3.2,21.1-7.5,30.1-13.6c8.7-5.8,15.9-13.3,21.1-21.7
			c5.2-8.4,7.8-18.5,8.1-29.5c0-12-1.9-22-5.5-29.8c-3.6-7.8-8.4-13.9-14.9-18.5c-6.2-4.5-13.6-7.8-22-10
			c-8.1-2.3-17.2-3.9-26.6-4.9c-9.4-1-19.1-1.6-29.2-2.3c-13-1-24.9-2.6-36.3-4.9c-11.3-2.3-21.4-5.8-30.1-11
			c-8.7-5.2-15.6-12.3-20.7-21.4c-5.2-9.4-7.8-21.4-8.4-36.6c-0.3-12.3,2.3-23,7.5-32.4c5.2-9.4,12.3-17.5,21.1-23.6
			c9.1-6.5,19.1-11.3,30.1-14.6c11.3-3.6,23-5.2,35-5.5c12-0.3,24,1.3,35.3,4.5c11.3,3.2,21.7,8.1,30.8,14.6
			c9.4,6.5,16.5,14.9,22,24.9h-6.8V311.5z M1799.1,480.6c-10,0-20.1,0-29.5,0c-9.4,0-19.1,0-28.5,0c-9.4,0-19.1,0-29.2,0
			c0,17.2,2.9,32.7,9.4,46c6.2,13.3,14.9,24.6,25.9,34.3c11,9.4,23.6,16.8,37.9,22.7c14.3,5.5,29.2,9.4,45,11.3
			c15.9,1.9,31.7,1.9,47.6,0c15.9-1.9,31.1-5.5,45.4-11.3c14.3-5.5,27.2-13,38.2-22.4c11.3-9.4,20.1-20.4,26.6-33.4
			c6.5-13,9.7-27.5,9.7-44.1c0-17.5-2.6-32.4-7.8-44.1c-5.2-12-12-21.4-21.1-28.8c-9.1-7.5-19.1-13.3-31.1-17.2
			c-11.7-4.2-24.3-7.5-37.9-9.4c-13.6-2.3-27.2-3.9-41.5-5.5c-8.1-1-15.6-1.9-22.4-3.2c-7.1-1.3-13-3.2-18.1-5.8
			c-5.2-2.6-9.1-5.8-12-10c-2.9-4.2-3.9-9.7-3.6-16.5c0.6-5.8,2.6-11.3,6.5-15.6c3.6-4.5,8.4-8.1,14.3-10.7
			c5.8-2.9,12.3-4.5,19.1-5.5c6.8-1,13.6-1,20.4-0.3c6.8,1,13,2.6,18.8,5.2c5.5,2.6,10,6.5,13.6,11c3.2,4.5,5.2,10.4,5.2,16.8
			c10,0,19.8,0,28.8,0s18.1,0,27.5,0c9.1,0,19.1,0,29.5,0c0-16.8-2.9-32.1-8.7-45c-5.8-13.3-14.3-24.6-24.6-34
			c-10.4-9.4-22.7-16.8-36-22.7c-13.6-5.5-27.9-9.4-42.8-11.3c-14.9-1.9-30.1-1.9-45,0c-14.9,1.9-29.2,5.5-42.8,11.3
			c-13.6,5.5-25.6,13.3-36,22.7c-10.4,9.4-18.8,20.7-24.6,34c-5.8,13.3-8.7,28.2-8.4,45c0.3,19.1,3.6,35.3,9.7,48.6
			c6.2,13.3,14.9,24,26.2,32.4s24.6,14.6,40.2,19.1c15.6,4.5,33,7.1,52.2,8.4c9.1,0.3,17.2,1.3,24.9,2.3c7.8,1,14.6,2.6,20.7,4.9
			c5.8,1.9,10.4,5.2,13.9,9.1c3.2,3.9,5.2,8.7,5.2,14.9c0,5.8-1.9,11-6.2,15.2c-3.9,4.2-9.1,7.8-15.9,10.4
			c-6.5,2.6-13.9,4.2-21.7,5.2c-7.8,1-15.9,0.6-23.6-0.3c-7.8-1-14.9-2.9-21.4-5.5c-6.5-2.6-12-6.2-15.9-11
			C1801.4,492.6,1799.1,487.1,1799.1,480.6z"/>
		<path id="XMLID_115_" fill="#9D9D9C" d="M2157.1,381.8l-36.3,81.3h73.9L2157.1,381.8z M2285.4,554.5h-6.5l-23.3-49.9h-195.3
			l-23.6,49.9h-6.5l125.7-272.1h2.9L2285.4,554.5z M2247.8,588.5h88.4v-13.3l-159.4-344.7H2138l-159.1,344.7v13.3h88.4l20.7-44.4
			h139.3L2247.8,588.5z M2157.1,293.3h0.6l95.9,205.4h-191.5L2157.1,293.3z"/>
		<path id="XMLID_114_" fill="#9D9D9C" d="M2313.3,708.3c4.2,0,8.1-0.6,11.7-1.9c3.6-1.3,6.5-3.2,8.7-5.8c2.6-2.6,4.5-5.5,5.8-9.1
			c1.3-3.6,1.9-7.5,1.9-11.7c0-4.2-0.6-8.1-1.9-11.3c-1.3-3.6-3.2-6.5-5.5-8.7c-2.6-2.6-5.5-4.2-8.7-5.8c-3.6-1.3-7.1-1.9-11.7-1.9
			c-4.2,0-8.1,0.6-11.7,1.9s-6.5,3.2-8.7,5.8c-2.6,2.6-4.5,5.5-5.8,9.1c-1.3,3.6-1.9,7.5-1.9,11.7c0,4.2,0.6,8.1,1.9,11.3
			c1.3,3.6,3.2,6.5,5.5,8.7c2.6,2.6,5.5,4.2,8.7,5.8C2305.2,707.7,2309,708.3,2313.3,708.3 M2313.3,662c2.6,0,5.2,0.3,7.1,1.3
			c1.9,1,3.9,2.3,5.2,3.9c1.6,1.6,2.6,3.6,3.2,5.8c0.6,2.3,1.3,4.5,1.3,7.5c0,2.6-0.3,5.2-1.3,7.5c-0.6,2.3-1.9,4.2-3.2,5.8
			c-1.3,1.6-3.2,2.9-5.2,3.9c-1.9,1-4.5,1.3-7.1,1.3s-5.2-0.3-7.1-1.3c-1.9-1-3.9-2.3-5.2-3.9c-1.6-1.6-2.6-3.6-3.2-5.8
			c-0.6-2.3-1.3-4.5-1.3-7.5c0-2.6,0.3-5.2,1.3-7.5c0.6-2.3,1.9-4.2,3.2-5.8c1.3-1.6,3.2-2.9,5.2-3.9
			C2308.4,662.7,2310.7,662,2313.3,662z M2249.4,707.4c6.8,0,12.3-1,16.8-3.2c4.5-2.3,7.8-5.5,10.4-9.4c2.3-4.2,3.6-9.1,3.6-14.9
			c0-4.5-0.6-8.1-1.9-11.7c-1.3-3.2-3.2-6.2-5.8-8.4c-2.6-2.3-5.5-3.9-9.4-5.2c-3.6-1.3-7.8-1.6-12.3-1.6c-2.3,0-4.5,0-6.5,0
			c-1.9,0-3.6,0-5.2,0c-1.6,0-3.2,0-4.5,0c-1.6,0-2.9,0-4.5,0s-3.2,0-4.9,0v9.7h4.5v35h-4.5v9.7c1.6,0,3.2,0,4.9,0
			c1.3,0,2.9,0,4.2,0c1.3,0,2.9,0,4.2,0c1.6,0,3.2,0,5.2,0C2244.9,707.4,2246.8,707.4,2249.4,707.4z M2240,662.7c0,0,0.3,0,1,0
			s1.3,0,2.6,0c1,0,1.9,0,3.2,0s2.3,0,3.6,0c4.2,0,7.5,0.6,10.4,2.3c2.6,1.3,4.9,3.6,6.2,6.2c1.3,2.6,1.9,5.8,1.9,9.4
			c0,3.6-0.6,6.8-1.9,9.4s-3.2,4.9-6.2,6.2c-2.6,1.6-6.2,2.3-10.4,2.3c-1.3,0-2.3,0-3.6,0c-1.3,0-2.3,0-3.2,0c-1,0-1.9,0-2.6,0
			s-1,0-1,0V662.7z M2199.9,697.6h-4.5v9.7h20.1v-9.7h-4.5v-35.3h4.5v-9.7h-20.1v9.7h4.5V697.6z M2151,677.2v-14.9h11.7
			c3.6,0,6.5,0.6,8.1,1.6c1.6,1.3,2.6,2.9,2.6,5.5c0,2.6-1,4.5-2.6,5.8c-1.6,1.3-4.5,1.9-8.1,1.9H2151z M2174,707.4h13v-9.7h-5.5
			L2173,685c0,0,0.3,0,1-0.3c0.6,0,1.3-0.3,1.9-0.6c1-0.3,1.6-1,2.6-1.6c1-0.6,1.9-1.6,2.6-2.6c1-1,1.6-2.6,1.9-4.2
			c0.6-1.6,1-3.6,1-5.8c0-5.5-1.9-9.7-5.2-12.6c-3.6-2.9-8.7-4.2-15.6-4.2c-2.6,0-5.2,0-7.5,0s-4.5,0-6.8,0s-4.2,0-6.5,0
			c-2.3,0-4.2,0-6.5,0v9.4h4.5v35.3h-4.5v9.7h20.1v-9.7h-4.5V687h3.9c0.6,0,1.3,0,1.9,0s1.3,0,1.9,0c0.6,0,1.3,0,1.6,0
			c0.3,0,0.6,0,0.6,0L2174,707.4z M2114.7,637.7h-15.2l-4.9,10h10L2114.7,637.7z M2100.1,662.3l7.8,21.7H2092L2100.1,662.3z
			 M2116.3,707.4h13.6v-9.7h-5.2l-16.5-44.7H2092l-16.5,44.7h-4.9v9.7h13.3l5.2-13.9h22.4L2116.3,707.4z M2049.6,697.6h-4.9v9.7
			h20.1v-9.7h-4.5v-35.3h4.5v-9.7h-20.1v9.7h4.5v35.3H2049.6z M2035.6,652.9h-21.4l-11,25.3l-10.7-25.3h-22v9.7h4.5V698h-4.5v9.7
			h19.8V698h-4.5v-35.3l11,24.9h12.3l11-24.9V698h-4.5v9.7h20.1V698h-4.5v-35.3h4.5V652.9z M1921.6,697.6h-4.5v9.7h45.4V698h-29.8
			v-13.3h28.2v-9.4h-28.2v-13h29.5v-9.4h-45v9.7h4.5L1921.6,697.6L1921.6,697.6z M1894.1,675.6c-2.9-0.6-5.2-1.3-7.1-1.9
			c-1.9-0.6-3.6-1.3-4.5-1.6c-1-0.6-1.9-1.3-2.3-1.9c-0.6-0.6-0.6-1.6-0.6-2.3c0-1,0.3-1.9,1-2.6c0.6-0.6,1.3-1.3,2.3-1.6
			c1-0.3,1.9-0.6,3.2-1c1.3-0.3,2.6-0.3,3.9-0.3c1.9,0,3.9,0,5.5,0.3c1.6,0.3,3.2,0.6,4.2,1c1.3,0.3,2.3,1,3.2,1.3
			c1,0.3,1.3,0.6,1.9,1c0.3,0.3,0.6,0.3,0.6,0.3v-10.4c0,0-0.3-0.3-1-0.6c-0.6-0.3-1.6-0.6-2.9-1.3c-1.3-0.3-2.9-1-4.9-1.3
			s-4.5-0.6-7.1-0.6c-2.9,0-5.8,0.3-8.4,1c-2.6,0.6-4.9,1.6-6.8,3.2c-1.9,1.3-3.2,2.9-4.5,5.2c-1,1.9-1.6,4.2-1.6,7.1
			c0,2.3,0.3,4.5,1,6.2c0.6,1.6,1.6,3.2,2.9,4.5c1.3,1.3,2.9,2.3,4.9,3.2c1.9,1,4.2,1.6,6.8,2.3c2.9,0.6,5.2,1.3,7.1,1.9
			c1.9,0.6,3.2,1.3,4.5,1.6c1,0.6,1.9,1.3,2.3,1.9c0.3,0.6,0.6,1.3,0.6,2.3c0,1.3-0.3,2.3-1,3.2c-0.6,1-1.9,1.6-3.6,1.9
			c-1.6,0.6-3.9,0.6-6.8,0.6c-1.9,0-3.9-0.3-5.8-0.6c-1.6-0.3-3.2-1-4.9-1.3c-1.3-0.6-2.6-1-3.6-1.6c-1-0.6-1.9-1-2.3-1.3
			c-0.6-0.3-1-0.6-1-0.6v11c0,0,0.3,0,0.6,0.3c0.6,0.3,1.3,0.6,2.3,1c1,0.3,2.3,1,3.6,1.3s2.9,0.6,4.9,1c1.9,0.3,3.9,0.3,6.2,0.3
			c3.9,0,7.5-0.3,10-1.3c2.9-0.6,5.2-1.9,7.1-3.6c1.9-1.6,3.2-3.2,4.2-5.2c1-1.9,1.3-4.2,1.3-6.8c0-2.3-0.3-4.5-1-6.2
			c-0.6-1.6-1.6-3.2-2.9-4.5c-1.3-1.3-2.9-2.3-4.9-3.2C1899.2,676.9,1897,676.3,1894.1,675.6z M1814,708.3c4.2,0,8.1-0.6,11.7-1.9
			c3.6-1.3,6.5-3.2,8.7-5.8c2.6-2.6,4.5-5.5,5.8-9.1c1.3-3.6,1.9-7.5,1.9-11.7c0-4.2-0.6-8.1-1.9-11.3c-1.3-3.6-3.2-6.5-5.5-8.7
			c-2.6-2.6-5.5-4.2-8.7-5.8c-3.6-1.3-7.1-1.9-11.7-1.9c-4.2,0-8.1,0.6-11.7,1.9c-3.6,1.3-6.5,3.2-8.7,5.8c-2.6,2.6-4.5,5.5-5.8,9.1
			c-1.3,3.6-1.9,7.5-1.9,11.7c0,4.2,0.6,8.1,1.9,11.3c1.3,3.6,3.2,6.5,5.5,8.7c2.6,2.6,5.5,4.2,8.7,5.8
			C1805.9,707.7,1809.8,708.3,1814,708.3z M1814,662c2.6,0,5.2,0.3,7.1,1.3c1.9,1,3.9,2.3,5.2,3.9c1.6,1.6,2.6,3.6,3.2,5.8
			c0.6,2.3,1.3,4.5,1.3,7.5c0,2.6-0.3,5.2-1.3,7.5c-0.6,2.3-1.9,4.2-3.2,5.8c-1.3,1.6-3.2,2.9-5.2,3.9c-1.9,1-4.5,1.3-7.1,1.3
			s-5.2-0.3-7.1-1.3c-1.9-1-3.9-2.3-5.2-3.9c-1.6-1.6-2.6-3.6-3.2-5.8c-0.6-2.3-1.3-4.5-1.3-7.5c0-2.6,0.3-5.2,1.3-7.5
			c0.6-2.3,1.9-4.2,3.2-5.8c1.3-1.6,3.2-2.9,5.2-3.9C1808.9,662.7,1811.4,662,1814,662z M1749.9,707.4c6.8,0,12.3-1,16.8-3.2
			c4.5-2.3,7.8-5.5,10.4-9.4c2.3-4.2,3.6-9.1,3.6-14.9c0-4.5-0.6-8.1-1.9-11.7c-1.3-3.2-3.2-6.2-5.8-8.4s-5.5-3.9-9.4-5.2
			c-3.6-1.3-7.8-1.6-12.3-1.6c-2.3,0-4.5,0-6.5,0c-1.9,0-3.6,0-5.2,0c-1.6,0-3.2,0-4.5,0c-1.6,0-2.9,0-4.5,0s-3.2,0-4.9,0v9.7h4.5
			v35h-4.5v9.7c1.6,0,3.2,0,4.9,0c1.3,0,2.9,0,4.2,0s2.9,0,4.2,0c1.6,0,3.2,0,5.2,0C1745.4,707.4,1747.6,707.4,1749.9,707.4z
			 M1740.5,662.7c0,0,0.3,0,1,0c0.6,0,1.3,0,2.6,0c1,0,1.9,0,3.2,0c1.3,0,2.3,0,3.6,0c4.2,0,7.5,0.6,10.4,2.3
			c2.6,1.3,4.9,3.6,6.2,6.2c1.3,2.6,1.9,5.8,1.9,9.4c0,3.6-0.6,6.8-1.9,9.4s-3.2,4.9-6.2,6.2c-2.6,1.6-6.2,2.3-10.4,2.3
			c-1.3,0-2.3,0-3.6,0c-1.3,0-2.3,0-3.2,0c-1,0-1.9,0-2.6,0c-0.6,0-1,0-1,0V662.7z M1660.5,697.6h-4.5v9.7h43.4v-9.7h-28.2v-35.3
			h4.5v-9.7h-20.1v9.7h4.5v35.3H1660.5z M1620.3,662.3l7.8,21.7h-15.9L1620.3,662.3z M1636.5,707.4h13.6v-9.7h-5.2l-16.5-44.7h-16.2
			l-16.5,44.7h-5.2v9.7h13.3l5.2-13.9h22.4L1636.5,707.4z M1527.3,707.4h19.8v-9.7h-4.5V662l21.1,45h18.1v-44.7h4.5v-9.7h-19.8v9.7
			h4.5v35.3l-21.1-45h-22.7v9.7h4.5v35.3h-4.5V707.4z M1491.4,708.3c4.2,0,8.1-0.6,11.7-1.9c3.6-1.3,6.5-3.2,8.7-5.8
			c2.6-2.6,4.5-5.5,5.8-9.1c1.3-3.6,1.9-7.5,1.9-11.7c0-4.2-0.6-8.1-1.9-11.3c-1.3-3.6-3.2-6.5-5.5-8.7c-2.6-2.6-5.5-4.2-8.7-5.8
			c-3.6-1.3-7.1-1.9-11.7-1.9c-4.2,0-8.1,0.6-11.7,1.9s-6.5,3.2-8.7,5.8c-2.6,2.6-4.5,5.5-5.8,9.1c-1.3,3.6-1.9,7.5-1.9,11.7
			c0,4.2,0.6,8.1,1.9,11.3c1.3,3.6,3.2,6.5,5.5,8.7c2.6,2.6,5.5,4.2,8.7,5.8C1483.3,707.7,1486.8,708.3,1491.4,708.3z M1491.4,662
			c2.6,0,5.2,0.3,7.1,1.3c1.9,1,3.9,2.3,5.2,3.9c1.6,1.6,2.6,3.6,3.2,5.8c0.6,2.3,1.3,4.5,1.3,7.5c0,2.6-0.3,5.2-1.3,7.5
			c-0.6,2.3-1.9,4.2-3.2,5.8c-1.3,1.6-3.2,2.9-5.2,3.9c-1.9,1-4.5,1.3-7.1,1.3c-2.6,0-5.2-0.3-7.1-1.3c-1.9-1-3.9-2.3-5.2-3.9
			c-1.6-1.6-2.6-3.6-3.2-5.8c-0.6-2.3-1.3-4.5-1.3-7.5c0-2.6,0.3-5.2,1.3-7.5c0.6-2.3,1.9-4.2,3.2-5.8c1.3-1.6,3.2-2.9,5.2-3.9
			C1486.2,662.7,1488.5,662,1491.4,662z M1440.2,697.6h-4.5v9.7h20.1v-9.7h-4.5v-35.3h4.5v-9.7h-20.1v9.7h4.5V697.6z M1426.9,692.5
			c0,0-0.3,0.3-0.6,0.6c-0.3,0.3-1,1-1.9,1.3c-1,0.6-2.3,1.3-3.6,1.6c-1.3,0.6-3.2,1-5.2,1.3c-1.9,0.3-4.2,0.6-6.8,0.6
			c-2.3,0-4.9-0.3-6.8-1c-2.3-0.6-4.2-1.9-5.8-3.2c-1.6-1.6-2.9-3.2-3.9-5.5s-1.6-4.9-1.6-7.8c0-2.9,0.3-5.2,1.3-7.5
			c1-2.3,2.3-4.2,3.9-5.8c1.6-1.6,3.6-2.9,5.8-3.6c2.3-1,4.5-1.3,7.5-1.3c2.6,0,4.5,0.3,6.5,0.6c1.9,0.3,3.6,1,5.2,1.6
			c1.3,0.6,2.6,1.3,3.6,1.9c1,0.6,1.6,1.3,1.9,1.6s0.6,0.6,0.6,0.6v-11.3c0,0-0.3-0.3-0.6-0.6c-0.6-0.3-1.3-0.6-2.3-1.3
			c-1-0.3-2.3-1-3.6-1.3c-1.6-0.3-3.2-1-5.2-1.3c-1.9-0.3-3.9-0.6-6.5-0.6c-4.2,0-8.4,0.6-12,1.9c-3.6,1.3-6.8,3.2-9.4,5.8
			c-2.6,2.6-4.5,5.5-6.2,9.1c-1.3,3.6-2.3,7.1-2.3,11.3c0,3.6,0.6,6.8,1.3,9.7c1,2.9,2.3,5.5,3.9,7.8s3.9,4.2,6.2,5.8
			c2.3,1.6,5.2,2.6,7.8,3.6c2.9,0.6,6.2,1.3,9.4,1.3c2.6,0,4.9-0.3,6.8-0.6c1.9-0.3,3.9-0.6,5.2-1.3c1.6-0.3,2.9-1,3.9-1.3
			c1-0.3,1.6-1,2.3-1.3c0.6-0.3,0.6-0.3,0.6-0.6v-11H1426.9z M1346.6,662.3l7.8,21.7h-15.9L1346.6,662.3z M1362.8,707.4h13.6v-9.7
			h-5.2l-16.5-44.7h-16.2l-16.5,44.7h-5.2v9.7h13.3l5.2-13.9h22.4L1362.8,707.4z M1253.6,707.4h19.8v-9.7h-4.5V662l21.1,45h18.1
			v-44.7h4.5v-9.7h-19.8v9.7h4.5v35.3l-21.1-45h-22.7v9.7h4.5v35.3h-4.5V707.4z M1197.5,708.3c4.2,0,8.1-0.6,11.7-1.9
			c3.6-1.3,6.5-3.2,8.7-5.8c2.6-2.6,4.5-5.5,5.8-9.1c1.3-3.6,1.9-7.5,1.9-11.7c0-4.2-0.6-8.1-1.9-11.3c-1.3-3.6-3.2-6.5-5.5-8.7
			c-2.6-2.6-5.5-4.2-8.7-5.8c-3.6-1.3-7.1-1.9-11.7-1.9c-4.2,0-8.1,0.6-11.7,1.9c-3.6,1.3-6.5,3.2-8.7,5.8c-2.6,2.6-4.5,5.5-5.8,9.1
			c-1.3,3.6-1.9,7.5-1.9,11.7c0,4.2,0.6,8.1,1.9,11.3c1.3,3.6,3.2,6.5,5.5,8.7c2.6,2.6,5.5,4.2,8.7,5.8
			C1189.4,707.7,1193.3,708.3,1197.5,708.3z M1197.5,662c2.6,0,5.2,0.3,7.1,1.3c1.9,1,3.9,2.3,5.2,3.9c1.6,1.6,2.6,3.6,3.2,5.8
			c0.6,2.3,1.3,4.5,1.3,7.5c0,2.6-0.3,5.2-1.3,7.5c-0.6,2.3-1.9,4.2-3.2,5.8c-1.3,1.6-3.2,2.9-5.2,3.9c-1.9,1-4.5,1.3-7.1,1.3
			s-5.2-0.3-7.1-1.3c-1.9-1-3.9-2.3-5.2-3.9c-1.6-1.6-2.6-3.6-3.2-5.8c-0.6-2.3-1.3-4.5-1.3-7.5c0-2.6,0.3-5.2,1.3-7.5
			c0.6-2.3,1.9-4.2,3.2-5.8c1.3-1.6,3.2-2.9,5.2-3.9C1192.4,662.7,1194.6,662,1197.5,662z M1134,697.6v9.7h20.1v-9.7h-4.5v-35h18.1
			v-9.7h-46.7v9.7h18.1v35H1134z M1112,662.7h4.5v-9.7h-20.1v9.7h4.5v21.1c0,3.6-0.6,6.5-1.6,8.4c-1,2.3-2.6,3.9-4.5,4.9
			c-1.9,1-4.2,1.6-7.1,1.6c-2.9,0-5.2-0.6-7.1-1.6c-1.9-1-3.6-2.6-4.5-4.9c-1-2.3-1.6-5.2-1.6-8.7v-20.7h4.5v-9.7h-20.1v9.7h4.5v22
			c0,4.2,0.6,7.8,1.6,11c1.3,2.9,2.9,5.5,4.9,7.5c2.3,1.9,4.5,3.2,7.8,4.2c2.9,1,6.2,1.3,9.7,1.3c3.6,0,6.8-0.3,9.7-1.3
			c2.9-1,5.5-2.3,7.5-4.2c1.9-1.9,3.9-4.5,4.9-7.5c1.3-2.9,1.6-6.8,1.6-11v-22H1112z M1021.6,697.6v9.7h20.1v-9.7h-4.5v-35h18.1
			v-9.7h-46.7v9.7h18.1v35H1021.6z M987,697.6h-4.5v9.7h20.1v-9.7H998v-35.3h4.5v-9.7h-20.1v9.7h4.5V697.6z M943.2,697.6v9.7h20.1
			v-9.7h-4.5v-35h18.1v-9.7h-46.7v9.7h18.1v35H943.2z M911.5,675.6c-2.9-0.6-5.2-1.3-7.1-1.9c-1.9-0.6-3.6-1.3-4.5-1.6
			c-1-0.6-1.9-1.3-2.3-1.9c-0.6-0.6-0.6-1.6-0.6-2.3c0-1,0.3-1.9,1-2.6c0.6-0.6,1.3-1.3,2.3-1.6c1-0.3,1.9-0.6,3.2-1
			c1.3-0.3,2.6-0.3,3.9-0.3c1.9,0,3.9,0,5.5,0.3s3.2,0.6,4.2,1c1.3,0.3,2.3,1,3.2,1.3c1,0.3,1.3,0.6,1.9,1c0.3,0.3,0.6,0.3,0.6,0.3
			v-10.4c0,0-0.3-0.3-1-0.6c-0.6-0.3-1.6-0.6-2.9-1.3c-1.3-0.3-2.9-1-4.9-1.3c-1.9-0.3-4.5-0.6-7.1-0.6c-2.9,0-5.8,0.3-8.4,1
			c-2.6,0.6-4.9,1.6-6.8,3.2c-1.9,1.3-3.2,2.9-4.5,5.2c-1,1.9-1.6,4.2-1.6,7.1c0,2.3,0.3,4.5,1,6.2c0.6,1.6,1.6,3.2,2.9,4.5
			c1.3,1.3,2.9,2.3,4.9,3.2c1.9,1,4.2,1.6,6.8,2.3c2.9,0.6,5.2,1.3,7.1,1.9c1.9,0.6,3.2,1.3,4.5,1.6c1,0.6,1.9,1.3,2.3,1.9
			c0.3,0.6,0.6,1.3,0.6,2.3c0,1.3-0.3,2.3-1,3.2s-1.9,1.6-3.6,1.9c-1.6,0.6-3.9,0.6-6.8,0.6c-1.9,0-3.9-0.3-5.8-0.6
			c-1.6-0.3-3.2-1-4.9-1.3c-1.3-0.6-2.6-1-3.6-1.6c-1-0.6-1.9-1-2.3-1.3c-0.6-0.3-1-0.6-1-0.6v11c0,0,0.3,0,0.6,0.3
			c0.6,0.3,1.3,0.6,2.3,1c1,0.3,2.3,1,3.6,1.3s2.9,0.6,4.9,1c1.9,0.3,3.9,0.3,6.2,0.3c3.9,0,7.5-0.3,10-1.3c2.9-0.6,5.2-1.9,7.1-3.6
			c1.9-1.6,3.2-3.2,4.2-5.2c1-1.9,1.3-4.2,1.3-6.8c0-2.3-0.3-4.5-1-6.2c-0.6-1.6-1.6-3.2-2.9-4.5c-1.3-1.3-2.9-2.3-4.9-3.2
			C916.3,676.9,914.1,676.3,911.5,675.6z M820.1,707.4h19.8v-9.7h-4.5V662l21.1,45h18.1v-44.7h4.5v-9.7H859v9.7h4.5v35.3l-21.1-45
			h-22.7v9.7h4.5v35.3h-4.2V707.4z M795.5,697.6H791v9.7h20.1v-9.7h-4.5v-35.3h4.5v-9.7H791v9.7h4.5V697.6z"/>
		<path id="XMLID_112_" fill="#9D9D9C" d="M1004.5,354.2c-12,1.3-24.9,1.3-37.9,0.3c-9.4-0.6-20.4-2.6-31.1-5.2
			c-9.7-2.6-18.8-5.8-25.3-9.4c-16.2-9.1-24.3-30.5-32.4-51.8c-7.5-20.1-14.9-39.8-28.5-46.7c-6.8-3.2-22-6.8-36.6-10l-2.3-0.6
			l-7.8-1.3l0,0c-6.2-1-13.9-2.6-18.5-3.6c-2.3,1.3-4.5,3.2-3.2,8.1c0.3,1.3,1,2.3,1.9,3.2l0,0c1,1,2.3,1.6,3.6,1.9
			c2.3,0.3,5.2,0.6,8.4,1.3c13.9,1.6,34.3,4.2,50.2,15.6c4.5,3.2,8.7,9.7,12.6,17.5c3.9,7.8,7.5,16.8,10.7,25.6
			c1.3,3.6,2.6,7.5,4.2,11c4.5,12.6,9.1,24.9,13.3,31.1c14.6,21.1,30.1,21.4,52.5,22c6.2,0.3,12.6,0.3,19.4,1
			c4.5,0.3,12.6,1.9,19.8,5.5c3.9,1.9,7.1,4.5,9.4,7.5c5.8-9.4,13.6-11.3,21.7-13.3l1.9-0.3l0,0c5.2-1.3,9.7-1.9,13.9-2.9
			c7.8-1.3,14.9-2.6,22.7-5.8c11-4.5,16.5-14.6,20.7-22.4l1-1.9l0,0c4.2-7.5,6.2-14.6,8.7-22.7l0,0c3.2-10.7,7.1-23,16.2-40.5
			c2.3-4.2,9.4-9.4,17.8-14.6c13-7.8,29.2-15.6,35-17.8c5.2-1.9,8.4-4.9,9.7-8.1l0,0c0.6-1.6,1-3.2,1-4.5c0-1.3-0.6-2.6-1.6-3.9l0,0
			c-1-1-1.9-1.9-3.6-2.3c-6.8,6.2-16.2,10.7-24,14.6c-2.3,1.3-4.5,2.3-6.2,3.2c-5.8,3.2-13,7.8-19.4,12.3c-5.8,4.2-11.3,8.7-14.3,12
			l0,0c-5.5,6.2-8.1,13-11.3,22.7c-2.6,8.1-6.2,17.8-12.6,30.8c-2.9,5.8-7.1,13-12.3,19.1c-4.2,4.9-8.7,9.4-13.9,12.6
			c-9.7,5.8-21.1,9.1-33.4,10.7L1004.5,354.2z M801.3,184.8l4.9,0.3c16.8,1.6,46.3,4.5,68.7,15.9c8.1,3.9,15.2,9.1,22,15.2
			c6.5,5.8,12.3,13,17.5,20.7c4.2,6.5,6.8,14.3,9.4,22c1.6,4.9,3.2,9.4,5.2,13.6c15.2,31.4,46,28.8,69.3,26.9l0,0l2.6-0.3
			c10.4-1,15.2-6.5,22.4-14.6l0,0c1-1,1.9-2.3,3.2-3.9c5.2-5.8,9.4-13,13.3-20.7c3.9-7.8,7.1-15.9,10-23.6c0.6-1.6,1.3-3.2,1.6-4.9
			l0,0c2.6-7.5,5.2-14.9,11-20.7c13.9-13.9,30.5-22.4,45.7-30.1c7.5-3.9,14.9-7.5,21.4-11.7c6.8-4.2,13.3-6.2,17.8-7.5
			c1.6-0.6,2.3,0,2.6-0.3l0.3-0.3c1.6-2.6,1.9-4.9,1.9-6.5s-1-2.9-1.6-4.2c-1.9-3.2-6.2-2.9-7.1-2.9c-15.2,3.9-38.2,15.6-59,28.2
			c-22,13.3-40.8,27.2-44.1,33.4c-1.9,3.9-4.2,9.4-6.8,15.6c-8.1,19.4-18.8,45-29.8,48.3l0,0c-1.6,0.3-3.2,0.6-4.9,0.3
			c-1.6-0.3-3.2-1-4.5-1.9c-6.8-5.5-7.8-13-8.7-18.8v-0.6c-0.3-2.3-0.6-7.8-1-16.8c-0.3-12.3-1.3-31.1-2.6-56
			c-0.3-2.9-0.3-5.8-0.3-9.1c0-8.1,0-17.2-3.2-24.6l0,0c-0.6-1.6-1.3-2.3-1.9-2.9l0,0c-0.3-0.3-0.6-0.3-0.6-0.3l0,0
			c-0.3,0-0.6,0-1.3,0.3l0,0c-1.9,1-4.2,3.2-6.2,6.2c-1,1.6-1,8.7-1,14.6c0,2.6,0,4.9,0,6.5c-0.6,9.1-0.3,17.2,0,24.6
			c0.3,4.5,0.3,8.7,0.3,12.6c0,1.9,0.3,6.5,1,12.3c1.3,13.6,2.9,34.3,1.3,46c-1.3,9.1-9.7,9.1-11.7,9.1l0,0l0,0l0,0
			c-14.6,0-20.4-18.1-25.6-33.7c-1.3-4.2-2.6-8.1-4.2-11.3l0,0l-0.6-1.6c-2.9-7.1-7.1-17.2-15.9-23c-13.9-9.7-34-17.8-54.4-24
			c-27.2-8.4-54.7-13.3-69.3-13.9c-2.3,0-4.5,0.3-6.8,1.3c-1.6,1-3.2,1.9-4.2,3.6c-1.6,2.9,0,6.2,0.6,7.5l0,0l0.3,0.6l0,0
			c0.6,1.3,4.5,2.6,9.1,3.6C792.6,183.8,798.4,184.5,801.3,184.8z M1150.9,194.5l-1.6,1c-8.1,5.5-17.8,9.7-27.2,14.3
			c-13,6.2-25.9,12-35.3,20.4c-0.3,0.3-1,1-1.3,1.3c-9.7,10.4-17.5,27.9-23.3,41.1c-1.3,2.9-2.6,5.8-3.6,8.1l0,0l-1.6,3.2
			c-6.8,14.9-11.7,25.6-19.8,33.7c-2.3,2.3-4.5,4.5-7.5,6.5c-1.9,1.3-4.2,2.9-6.8,4.2s-5.2,2.6-7.8,3.9h-0.3
			c-5.2,1.6-10.4,2.9-16.2,3.9c-5.8,1-12.3,1.3-21.1,0.6c-11.7-0.6-24.3-2.6-35.3-5.8c-9.7-2.9-18.8-7.1-24.6-12.6l-1-1V316
			c0-0.6-1.6-1.3-3.6-3.2l0,0c-2.6-2.9-5.2-5.8-5.8-7.5l-7.1-16.5c-1.6-3.9-3.9-8.4-6.2-13c-3.9-7.8-8.1-16.2-11.7-25.6
			c-2.9-8.4-12.6-15.9-24.3-22c-16.2-8.7-36.3-14.3-48.9-15.9c-1.3,0-9.1-1.3-16.8-2.9c-1-0.3-1.9-0.3-2.6-0.6
			c-1.6-0.3-2.9-0.3-4.2-0.6l0,0c-4.2-0.6-5.5,1-6.2,1.9l-0.3,0.3l0,0c-0.3,0.3-0.3,1.6-0.3,2.3l0,0v1l0,0c0,1.3,0.3,2.3,1,3.2
			c1,1.3,2.3,2.3,2.9,2.9h0.3l1-0.3l0.6-0.3h0.6h0.6c1.6,0,2.3,0,4.5,0.6l0,0c5.2,1.6,13,3.6,21.1,5.5l1.6,0.3l0,0
			c3.6,0.6,6.2,1.3,8.7,1.9l0,0c12,2.6,21.4,4.5,30.8,9.1c15.9,7.8,23.6,28.8,31.7,49.9c7.5,20.1,15.2,40.5,29.5,48.6
			c5.8,3.2,14.6,6.5,23.6,8.7c10,2.6,21.1,4.5,29.8,4.9c12.3,1,24.6,1,36.3-0.3l0,0c11.3-1.3,22-4.2,31.1-9.7
			c4.5-2.9,8.7-6.8,12.3-11.3c4.9-5.8,8.7-12.3,11.3-17.8c6.2-12.6,9.7-22.4,12.3-30.1c3.6-10.4,6.2-17.5,12.6-24.6
			c3.2-3.6,9.1-8.4,15.2-13c6.8-4.9,13.9-9.7,20.1-13c1.6-1,3.9-1.9,6.2-3.2c7.1-3.6,16.2-8.1,22-13.6l0.6-0.6
			c0.6-1,1.3-1.6,2.6-1.9c0.6-1,1.3-1.6,1.9-2.6c2.6-3.9,3.2-6.8,2.9-8.7c0-1-0.6-1.9-1-2.6c-0.6-0.6-1.3-1-2.3-1.3
			C1151.9,194.5,1151.2,194.5,1150.9,194.5z M1156.1,181.3c1.6-2.9,1.9-6.5,1-11.7c-0.3-0.3-0.3-0.6-0.3-1c-0.3-1-1.3-2.6-2.6-2.6
			c-1.3,0.6-2.9,1.3-4.9,1.6c-3.9,1-10,2.9-15.9,6.5c-6.8,4.5-14.3,8.1-22,12c-14.9,7.8-30.8,15.9-44.4,28.8
			c-4.5,4.5-7.1,11.7-9.4,18.1l0,0c-0.6,1.6-1.3,3.6-1.6,4.9c-2.9,7.8-6.2,16.2-10.4,24.3c-3.9,8.1-8.7,15.9-14.3,22
			c-1,1-2.3,2.6-3.2,3.9l0,0c-8.1,9.1-13.6,15.9-26.6,16.8l-2.6,0.3c-25.3,1.9-58.6,4.9-75.8-30.5c-1.9-4.2-3.9-9.1-5.5-14.3
			c-2.6-7.1-5.2-14.6-8.7-20.7c-4.5-7.1-10-13.6-16.2-19.4c-6.2-5.5-13.3-10.4-20.4-14.3c-21.4-10.7-49.9-13.6-66.4-15.2l0,0l-5.2,0
			l0,0l0,0c-1.3,0-2.9-0.3-4.5-0.3c-3.6-0.3-8.1-0.3-12-1l0,0l0,0c-0.3,0-1,0-1.3,0.3l0,0h-0.3l0,0c-0.3,0-0.3-0.3-0.3-0.6l-0.3,0.3
			c-1,1.3-1.6,2.3-1.9,3.2l0,0c-0.6,1.3-0.6,2.3-0.3,3.2l0,0c0.3,1,0.6,1.6,1.6,2.3l0,0c0.6,0.3,1.3,1,1.9,1c2.3,1,5.2,1.6,8.1,2.3
			l3.2,0.3l0,0l2.6,0.3l0,0l13.9,1.6l0,0c13,1.6,34,7.5,51.2,16.5c13,6.8,23.6,15.6,27.2,25.6c3.2,9.1,7.5,17.2,11.3,24.9
			c2.3,4.5,4.5,8.7,6.5,13.3l7.1,16.5c0.3,0.6,2.6,3.6,4.9,5.8c1.6,1.9,3.6,3.9,4.5,5.5c5.2,4.9,13.3,8.4,22,11
			c10.7,3.2,22.7,5.2,34,5.8c8.1,0.3,14.3,0,19.8-0.6c5.5-0.6,10-1.9,14.9-3.6c2.6-1,4.9-2.3,7.1-3.6l0,0c2.3-1.3,4.5-2.6,6.2-3.9
			l0,0c1.9-1.3,3.6-2.6,5.2-4.2c6.8-7.1,11.3-17.2,17.5-30.8l1.6-3.6c1-2.3,2.3-4.9,3.6-7.8c6.2-14.3,14.6-33,25.6-44.4
			c1-1,1.6-1.9,2.6-2.6c10-9.1,23.3-15.2,36.6-21.7c9.4-4.2,18.5-8.7,26.2-13.9h0.3c0.3-0.3,1-0.3,1.3-0.6
			C1151.9,186.1,1154.5,183.8,1156.1,181.3z M964,553.8h-0.3l0,0c-1.6,0.6-2.9,2.6-4.2,5.2c-1.3,2.9-1.9,6.2-1.6,8.7
			c0,0.3,0,1,0.3,1.3c0.6,2.6,1,4.2,1.3,5.8l0,0c0.3,1.6,0.6,3.2,1.3,4.9c0,0.3,0.3-0.3,1.3,0c2.3,0.6,5.5,1,6.5,1
			c1.6,0,3.6-1,5.2-2.3c1.3-1.3,2.3-2.9,2.3-4.2c0-1.9,0.3-3.2,0.6-4.2c0.3-1,0.3-1.3-0.6-2.9v-0.3v-0.3v-0.3l0,0
			c-0.3-1.3-1.9-5.8-4.2-8.1c-1.6-1.6-3.6-2.9-5.2-3.6l0,0c-0.6-0.3-1-0.3-1.3-0.3L964,553.8z M967.2,528.2
			c-2.9,0.3-5.8,0.6-8.1,1.6l0,0c-1.9,0.6-3.6,1.9-4.5,3.9c-1.6,3.2-0.3,5.8,1,8.7v0.3l0,0c0.3,0.3,1.3-0.3,3.2-0.3
			c2.6,0.3,5.5,0.3,6.5,0.3c1.6,0,3.6-1,5.2-2.3c1.3-1.3,2.3-2.9,2.3-4.2l0,0v-1.9l0,0c0-2.3,0-2.6-1.6-5.2l0,0l0,0c0,0-1-0.3-2.3-1
			h-0.3L967.2,528.2z M964.6,506.2c-2.9,0.3-5.8,0.6-8.1,1.6l0,0c-1.9,0.6-3.6,1.9-4.5,3.9c-1.6,3.2-0.3,5.8,1,8.7l0,0v0.3l0,0
			c0.3,0.3,1.3-0.3,3.2-0.3c2.6,0.3,5.5,0.3,6.5,0.3c1.6,0,3.6-1,5.2-2.3c1.3-1.3,2.3-2.9,2.3-4.2l0,0v-1.9l0,0c0-2.3,0-2.6-1.6-5.2
			v-0.3c0,0-1-0.3-2.3-1h-0.3L964.6,506.2z M961.7,481.9c-2.9,0.3-5.8,0.6-8.1,1.6c-1.9,0.6-3.6,1.9-4.5,3.9c-1.6,3.2-0.3,5.8,1,8.7
			l0,0v0.3l0,0c0.3,0.3,1.3-0.3,3.2-0.3c2.6,0.3,5.5,0.3,6.5,0.3c1.6,0,3.6-1,5.2-2.3c1.3-1.3,2.3-2.9,2.3-4.2l0,0V488l0,0
			c0-2.3,0-2.6-1.6-5.2v-0.3c0,0-1-0.3-2.3-1H963L961.7,481.9z M958.8,458.6c-2.9,0.3-5.8,0.6-8.1,1.6l0,0c-1.9,0.6-3.6,1.9-4.5,3.9
			c-1.6,3.2-0.3,5.8,1,8.7l0,0v0.3l0,0c0.3,0.3,1.3-0.3,3.2-0.3c2.6,0.3,5.5,0.3,6.2,0.3c1.6,0,3.6-1,5.2-2.3
			c1.3-1.3,2.3-2.9,2.3-4.2l0,0v-1.9l0,0c0-2.3,0-2.6-1.6-5.2v-0.3c0,0-1-0.3-2.3-1l0,0h-0.3L958.8,458.6z M1026.8,419
			c-0.6-2.6-1-4.9-1.9-6.8c-1-1.6-1.9-2.9-3.6-3.6c-2.9-1-4.9,0.3-7.5,1.6h-0.3l0,0c-0.3,0.3,0.6,1,0.6,2.6c0,2.3,0.3,4.9,0.3,5.5
			c0,1.3,1,2.9,2.3,3.9l0,0c1.3,1,2.6,1.6,3.6,1.6l0,0h1.6l0,0c1.9,0,2.3-0.3,4.2-1.6h0.3c0,0,0-0.6,0.3-1.9l0,0V420V419z
			 M1002.5,430.4c-2.6,0.3-5.5,0.6-7.8,1.6c-1.9,0.6-3.6,1.9-4.5,3.9l0,0c-1.6,2.9-0.3,5.5,1,8.4l0,0v0.3l0,0
			c0.3,0.3,1.3-0.3,2.9-0.3c2.6,0.3,5.2,0.3,6.2,0.3c1.6,0,3.2-1,4.9-2.3c1.3-1.3,2.3-2.6,2.3-3.9l0,0v-1.6l0,0c0-2.3,0-2.6-1.3-4.9
			v-0.3c0,0-1-0.3-1.9-0.6h-0.3L1002.5,430.4z M988.3,412.2c0,0.3,0,1,0,1.6l3.9,6.8l0,0l0,0l0,0c0.6,1.3,2.3,2.6,4.2,3.2
			c1.6,0.6,3.2,0.6,4.5,0l0,0l1.6-1l0,0c1.9-1,2.3-1.3,3.6-3.6V419c0,0-0.3-1-0.3-2.3v-0.3l-0.6-1c-1.6-2.3-3.2-4.5-4.9-5.8l0,0
			c-1.6-1.3-3.2-1.9-5.2-1.9C991.5,407.7,989.9,410,988.3,412.2z M976.9,409.3c-2.6,0.3-5.5,0.6-7.8,1.6l0,0
			c-1.9,0.6-3.6,1.9-4.5,3.9c-1.6,2.9-0.3,5.5,1,8.4l0,0v0.3l0,0c0.3,0.3,1.3-0.3,2.9-0.3c2.6,0.3,5.2,0.3,6.2,0.3
			c1.6,0,3.2-1,4.9-2.3c1.3-1.3,2.3-2.6,2.3-3.9l0,0v-1.6l0,0c0-2.3,0-2.6-1.3-4.9v-0.3c0,0-1-0.3-2.3-0.6h-0.3L976.9,409.3z
			 M1001.5,396c-0.6-2.3-1-4.5,0-7.5v-0.3v-0.3c0,0-0.6,0-1.6-0.3l0,0l0,0h-1c-2.3,0.3-4.5,0.6-6.5,1.3l0,0
			c-1.6,0.6-2.6,1.6-3.6,2.9l0,0c-1.3,2.3-0.3,4.5,1,6.8l0,0v0.3l0,0c0.3,0.6,1-0.6,2.3-0.3c1.9,0.3,4.5,0.3,5.2,0.3
			c1.3,0,2.6-0.6,3.9-1.6C1001.2,396.7,1001.5,396.4,1001.5,396z M1020.3,384.4c-2.6,0.3-5.5,0.6-7.8,1.6c-1.6,0.6-2.9,1.6-3.9,2.9
			c0.3,1,0.3,2.3,0.3,3.9v1.6l0,0c0,1-0.3,1.9-0.3,2.6l0.6,1.3l0,0v0.3l0,0c0.3,0.3,1.3-0.3,2.9-0.3c2.6,0.3,5.2,0.3,6.2,0.3
			c1.6,0,3.2-1,4.9-2.3c1.3-1.3,2.3-2.6,2.3-3.9l0,0v-1.6l0,0c0-2.3,0-2.6-1.3-4.9l0,0l0,0c0,0-1-0.3-1.9-0.6h-0.3L1020.3,384.4z
			 M965.6,443L965.6,443c0,0.3,0,1,0,1.3l0.6,1.3v0.3l0,0c0.3,0.3,1.3-0.3,2.9-0.3c2.6,0.3,5.2,0.3,6.2,0.3c1.6,0,3.2-1,4.9-2.3
			c1.3-1.3,2.3-2.6,2.3-3.9l0,0v-1.6l0,0c0-2.3,0-2.6-1.3-4.9l0,0V433c0,0-1-0.3-1.9-0.6h-0.3h-1.3c-2.6,0.3-5.5,0.6-7.8,1.6l0,0
			c-1.9,0.6-3.2,1.6-4.2,3.6c0.3,1.3,0.3,2.3,0.3,4.2L965.6,443z M953.9,435.2c-2.6,0.3-5.5,0.6-7.8,1.6l0,0
			c-1.9,0.6-3.6,1.9-4.2,3.9l0,0c-1.6,2.9-0.3,5.5,1,8.4l0,0v0.3l0,0c0.3,0.3,1.3-0.3,2.9-0.3c2.6,0.3,5.2,0.3,6.2,0.3
			c1.6,0,3.2-1,4.9-2.3c0.6-0.6,1.3-1.6,1.9-2.3c-0.6-2.3-1.3-4.5-0.3-7.5l-0.6-1l0,0l0,0c0,0-1-0.3-1.9-0.6h-0.3L953.9,435.2z
			 M951.7,410c-2.9,0.3-5.8,0.6-8.1,1.6l0,0c-1.9,0.6-3.6,1.9-4.5,3.9l0,0c-1.6,3.2-0.3,6.2,1,8.7l0,0v0.3l0,0
			c0.3,0.3,1.3-0.3,3.2-0.3c2.6,0.3,5.5,0.3,6.5,0.3c1.6,0,3.6-1,5.2-2.3c1.3-1.3,2.6-2.9,2.6-4.2l0,0v-1.9l0,0c0-2.3,0-2.9-1.6-5.2
			v-0.3c0,0-1-0.3-2.3-1h-0.3L951.7,410z M964.9,395.1L964.9,395.1c0,1,0,1.9-0.3,2.6c0.3,1,0.6,1.6,1,2.6l0,0v0.3l0,0
			c0.3,0.3,1.3-0.3,2.9-0.3c2.6,0.3,5.2,0.3,6.2,0.3c1.6,0,3.2-1,4.9-2.3c1.3-1.3,2.3-2.6,2.3-3.9l0,0v-1.6l0,0c0-2.3,0-2.6-1.3-4.9
			l0,0l0,0c0,0-1-0.3-1.9-0.6h-0.3h-1.3c-2.6,0.3-5.5,0.6-7.8,1.6l0,0c-1.6,0.6-3.2,1.6-4.2,3.2v1.3L964.9,395.1z M951.3,385
			c-3.6,0.3-6.8,1-9.7,1.9c-2.6,1-4.5,2.6-5.8,4.9l0,0c-1.9,4.2-0.3,7.5,1.3,11l0,0v0.3l0,0c0,0.3,1.9,0,4.2,0
			c3.2,0.3,6.5,0.3,7.5,0.3c2.3,0,4.5-1.3,6.5-2.9c1-1,1.6-1.9,2.3-2.9c-0.3-2.3-0.3-4.5,0.6-7.1c0-1-0.6-1.9-1.6-3.9v-0.3
			c0,0-1.3-0.6-2.9-1.3l-0.6-0.3L951.3,385z"/>
	</g>
</g>
</svg>
