<?xml version="1.0" encoding="utf-8"?>
<!-- Generator: Adobe Illustrator 20.1.0, SVG Export Plug-In . SVG Version: 6.00 Build 0)  -->
<svg version="1.2" baseProfile="tiny" id="Camada_1"
	 xmlns="http://www.w3.org/2000/svg" xmlns:xlink="http://www.w3.org/1999/xlink" x="0px" y="0px" viewBox="0 0 200 100"
	 overflow="scroll" xml:space="preserve">
<g id="Logo_Insa">
	<path fill="#FFFFFF" id="XMLID_115_" d="M85.3,55.4V42.9H88c0-0.6,0-1.2,0-1.7c0-0.5,0-1,0-1.6c0-0.5,0-1.1,0-1.7c-1.8,0-3.7,0-5.5,0
		c-1.8,0-3.7,0-5.5,0c0,0.6,0,1.2,0,1.7c0,0.5,0,1,0,1.6c0,0.5,0,1.1,0,1.7h2.6v12.5h-2.9c0,0.5,0,0.9,0,1.3c0,0.4,0,0.8,0,1.2
		c0,0.4,0,0.8,0,1.2c0,0.4,0,0.9,0,1.4c1.9,0,3.8,0,5.7,0c1.9,0,3.8,0,5.7,0c0-0.5,0-0.9,0-1.4c0-0.4,0-0.8,0-1.2c0-0.4,0-0.8,0-1.2
		c0-0.4,0-0.8,0-1.3H85.3z M82.3,57.8V40.6h-3.1v-0.3c1.1,0,2.2,0,3.3,0c1.1,0,2.2,0,3.3,0v0.3h-3.1v17.2H86v0.3c-1.2,0-2.4,0-3.5,0
		c-1.2,0-2.4,0-3.6,0v-0.3H82.3z"/>
	<path fill="#FFFFFF" id="XMLID_112_" d="M92.1,42.4h0.4c1.1,1,2.2,2.1,3.2,3.2c1.1,1.1,2.1,2.1,3.2,3.2c1.1,1.1,2.3,2.2,3.4,3.3
		c1.1,1.1,2.3,2.2,3.4,3.3V40h0.4v15.8h-0.3c-1.1-1.1-2.2-2.1-3.3-3.2c-1.1-1.1-2.2-2.1-3.3-3.2c-1.1-1.1-2.2-2.2-3.3-3.3
		c-1.1-1.1-2.3-2.2-3.4-3.3v15.3h-0.4V42.4z M106.8,60.5h2.1V37.9c-2,0-3.9,0-5.9,0v11.1L91.5,37.8h-2.1v22.7c1,0,2,0,3,0
		c1,0,2,0,3,0V49.4L106.8,60.5z"/>
	<path fill="#FFFFFF" id="XMLID_109_" d="M123.9,42.7c-0.4-0.6-0.8-1-1.4-1.4c-0.6-0.4-1.2-0.6-1.8-0.8c-0.7-0.2-1.4-0.3-2.1-0.2
		c-0.7,0-1.4,0.1-2.1,0.3c-0.7,0.2-1.2,0.5-1.8,0.9c-0.5,0.4-0.9,0.9-1.2,1.4c-0.3,0.6-0.5,1.2-0.5,1.9c0,0.9,0.2,1.6,0.5,2.2
		c0.3,0.6,0.7,1,1.2,1.3c0.5,0.3,1.1,0.5,1.8,0.6c0.7,0.1,1.4,0.2,2.2,0.3c0.7,0,1.3,0.1,1.9,0.2c0.6,0.1,1.2,0.2,1.8,0.4
		c0.6,0.2,1,0.4,1.5,0.7c0.4,0.3,0.8,0.7,1,1.3c0.2,0.5,0.4,1.2,0.4,2c0,0.8-0.2,1.5-0.6,2.1c-0.4,0.6-0.9,1.1-1.5,1.5
		c-0.6,0.4-1.3,0.7-2.1,0.9c-0.8,0.2-1.6,0.3-2.4,0.3c-0.8,0-1.6-0.1-2.4-0.3c-0.8-0.2-1.5-0.5-2.1-1c-0.6-0.4-1.1-1-1.4-1.6h0.4
		c0.4,0.6,0.9,1.1,1.4,1.4c0.6,0.4,1.3,0.7,2,0.8c0.7,0.2,1.5,0.3,2.2,0.3c0.8,0,1.5-0.1,2.2-0.3c0.7-0.2,1.4-0.5,1.9-0.9
		c0.6-0.4,1-0.8,1.4-1.4c0.3-0.5,0.5-1.2,0.5-1.9c0-0.8-0.1-1.4-0.3-1.9c-0.2-0.5-0.5-0.9-1-1.2c-0.4-0.3-0.9-0.5-1.4-0.6
		c-0.5-0.1-1.1-0.2-1.7-0.3c-0.6-0.1-1.2-0.1-1.9-0.1c-0.8-0.1-1.6-0.2-2.3-0.3c-0.7-0.1-1.4-0.4-1.9-0.7c-0.6-0.3-1-0.8-1.3-1.4
		c-0.3-0.6-0.5-1.4-0.5-2.3c0-0.8,0.2-1.5,0.5-2.1c0.3-0.6,0.8-1.1,1.4-1.5c0.6-0.4,1.2-0.7,1.9-0.9c0.7-0.2,1.5-0.3,2.2-0.3
		c0.8,0,1.5,0.1,2.3,0.3c0.7,0.2,1.4,0.5,2,0.9c0.6,0.4,1.1,1,1.4,1.6H123.9z M115.4,53.6c-0.7,0-1.3,0-1.9,0c-0.6,0-1.2,0-1.8,0
		c-0.6,0-1.2,0-1.9,0c0,1.1,0.2,2.1,0.6,2.9c0.4,0.9,1,1.6,1.7,2.2c0.7,0.6,1.5,1.1,2.4,1.5c0.9,0.4,1.9,0.6,2.9,0.7
		c1,0.1,2,0.1,3,0c1-0.1,2-0.4,2.9-0.7c0.9-0.4,1.7-0.8,2.4-1.4c0.7-0.6,1.3-1.3,1.7-2.1c0.4-0.8,0.6-1.8,0.6-2.8
		c0-1.1-0.2-2.1-0.5-2.8c-0.3-0.8-0.8-1.4-1.3-1.8c-0.6-0.5-1.2-0.8-2-1.1c-0.7-0.3-1.6-0.5-2.4-0.6c-0.9-0.1-1.7-0.3-2.6-0.3
		c-0.5-0.1-1-0.1-1.4-0.2c-0.4-0.1-0.8-0.2-1.2-0.4c-0.3-0.2-0.6-0.4-0.8-0.7c-0.2-0.3-0.2-0.6-0.2-1c0-0.4,0.2-0.7,0.4-1
		c0.2-0.3,0.5-0.5,0.9-0.7c0.4-0.2,0.8-0.3,1.2-0.4c0.4-0.1,0.9-0.1,1.3,0c0.4,0.1,0.8,0.2,1.2,0.3c0.4,0.2,0.7,0.4,0.9,0.7
		c0.2,0.3,0.3,0.7,0.3,1.1c0.7,0,1.3,0,1.8,0c0.6,0,1.2,0,1.8,0s1.2,0,1.9,0c0-1.1-0.2-2-0.6-2.9c-0.4-0.8-0.9-1.6-1.6-2.2
		c-0.7-0.6-1.4-1.1-2.3-1.4c-0.9-0.4-1.8-0.6-2.7-0.7c-1-0.1-1.9-0.1-2.9,0c-1,0.1-1.9,0.4-2.7,0.7c-0.9,0.4-1.6,0.8-2.3,1.4
		c-0.7,0.6-1.2,1.3-1.6,2.2c-0.4,0.8-0.6,1.8-0.5,2.9c0,1.2,0.2,2.3,0.6,3.1c0.4,0.9,0.9,1.5,1.7,2.1c0.7,0.5,1.6,0.9,2.6,1.2
		c1,0.3,2.1,0.5,3.3,0.5c0.6,0,1.1,0.1,1.6,0.1c0.5,0.1,0.9,0.2,1.3,0.3c0.4,0.1,0.7,0.3,0.9,0.6c0.2,0.2,0.3,0.6,0.3,1
		c0,0.4-0.1,0.7-0.4,1c-0.3,0.3-0.6,0.5-1,0.7c-0.4,0.2-0.9,0.3-1.4,0.3c-0.5,0.1-1,0-1.5,0c-0.5-0.1-1-0.2-1.4-0.4
		c-0.4-0.2-0.8-0.4-1-0.7C115.5,54.3,115.4,54,115.4,53.6z"/>
	<path fill="#FFFFFF" id="XMLID_104_" d="M138.3,47.2l-2.3,5.2h4.7L138.3,47.2z M146.5,58.3H146l-1.5-3.2h-12.5l-1.5,3.2h-0.4l8-17.4h0.2
		L146.5,58.3z M144.1,60.5h5.7v-0.8l-10.2-22.1H137l-10.2,22.1v0.8h5.7l1.3-2.8h8.9L144.1,60.5z M138.3,41.6L138.3,41.6l6.2,13.1
		h-12.2L138.3,41.6z"/>
	<path fill="#FFFFFF" id="XMLID_64_" d="M148.3,68.1c0.3,0,0.5,0,0.7-0.1c0.2-0.1,0.4-0.2,0.6-0.4c0.2-0.2,0.3-0.4,0.4-0.6c0.1-0.2,0.1-0.5,0.1-0.7
		c0-0.3,0-0.5-0.1-0.7c-0.1-0.2-0.2-0.4-0.4-0.6c-0.2-0.2-0.3-0.3-0.6-0.4c-0.2-0.1-0.5-0.1-0.7-0.1c-0.3,0-0.5,0-0.7,0.1
		c-0.2,0.1-0.4,0.2-0.6,0.4c-0.2,0.2-0.3,0.4-0.4,0.6c-0.1,0.2-0.1,0.5-0.1,0.7c0,0.3,0,0.5,0.1,0.7c0.1,0.2,0.2,0.4,0.4,0.6
		c0.2,0.2,0.3,0.3,0.6,0.4C147.7,68.1,148,68.1,148.3,68.1 M148.3,65.2c0.2,0,0.3,0,0.5,0.1c0.1,0.1,0.2,0.1,0.3,0.2
		c0.1,0.1,0.2,0.2,0.2,0.4c0,0.1,0.1,0.3,0.1,0.5c0,0.2,0,0.3-0.1,0.5c0,0.1-0.1,0.3-0.2,0.4c-0.1,0.1-0.2,0.2-0.3,0.2
		c-0.1,0.1-0.3,0.1-0.5,0.1c-0.2,0-0.3,0-0.5-0.1c-0.1-0.1-0.2-0.1-0.3-0.2c-0.1-0.1-0.2-0.2-0.2-0.4c0-0.1-0.1-0.3-0.1-0.5
		c0-0.2,0-0.3,0.1-0.5c0-0.1,0.1-0.3,0.2-0.4c0.1-0.1,0.2-0.2,0.3-0.2C147.9,65.2,148.1,65.2,148.3,65.2z M144.2,68.1
		c0.4,0,0.8-0.1,1.1-0.2c0.3-0.1,0.5-0.3,0.7-0.6c0.1-0.3,0.2-0.6,0.2-1c0-0.3,0-0.5-0.1-0.7c-0.1-0.2-0.2-0.4-0.4-0.5
		c-0.2-0.1-0.4-0.3-0.6-0.3c-0.2-0.1-0.5-0.1-0.8-0.1c-0.2,0-0.3,0-0.4,0c-0.1,0-0.2,0-0.3,0c-0.1,0-0.2,0-0.3,0c-0.1,0-0.2,0-0.3,0
		c-0.1,0-0.2,0-0.3,0v0.6h0.3v2.2h-0.3v0.6c0.1,0,0.2,0,0.3,0c0.1,0,0.2,0,0.3,0c0.1,0,0.2,0,0.3,0c0.1,0,0.2,0,0.3,0
		C143.9,68.1,144,68.1,144.2,68.1z M143.6,65.2C143.6,65.2,143.6,65.2,143.6,65.2c0.1,0,0.2,0,0.2,0c0.1,0,0.1,0,0.2,0
		c0.1,0,0.2,0,0.2,0c0.3,0,0.5,0,0.7,0.1c0.2,0.1,0.3,0.2,0.4,0.4c0.1,0.2,0.1,0.4,0.1,0.6c0,0.2,0,0.4-0.1,0.6
		c-0.1,0.2-0.2,0.3-0.4,0.4c-0.2,0.1-0.4,0.1-0.7,0.1c-0.1,0-0.1,0-0.2,0c-0.1,0-0.1,0-0.2,0c-0.1,0-0.1,0-0.2,0c0,0-0.1,0-0.1,0
		V65.2z M141,67.4h-0.3v0.6h1.3v-0.6h-0.3v-2.3h0.3v-0.6h-1.3v0.6h0.3V67.4z M137.9,66.1v-1h0.7c0.2,0,0.4,0,0.5,0.1
		c0.1,0.1,0.2,0.2,0.2,0.4c0,0.2-0.1,0.3-0.2,0.4c-0.1,0.1-0.3,0.1-0.5,0.1H137.9z M139.3,68.1h0.8v-0.6h-0.4l-0.5-0.8
		c0,0,0,0,0.1,0c0,0,0.1,0,0.1,0c0.1,0,0.1-0.1,0.2-0.1c0.1,0,0.1-0.1,0.2-0.2c0.1-0.1,0.1-0.2,0.1-0.3c0-0.1,0.1-0.2,0.1-0.4
		c0-0.4-0.1-0.6-0.3-0.8c-0.2-0.2-0.6-0.3-1-0.3c-0.2,0-0.3,0-0.5,0c-0.2,0-0.3,0-0.4,0c-0.1,0-0.3,0-0.4,0c-0.1,0-0.3,0-0.4,0v0.6
		h0.3v2.3h-0.3v0.6h1.3v-0.6h-0.3v-0.7h0.2c0,0,0.1,0,0.1,0c0,0,0.1,0,0.1,0c0,0,0.1,0,0.1,0c0,0,0,0,0,0L139.3,68.1z M135.6,63.6
		h-1l-0.3,0.6h0.6L135.6,63.6z M134.6,65.2l0.5,1.4h-1L134.6,65.2z M135.7,68.1h0.9v-0.6h-0.3l-1.1-2.9h-1l-1.1,2.9h-0.3v0.6h0.9
		l0.3-0.9h1.4L135.7,68.1z M131.4,67.4h-0.3v0.6h1.3v-0.6h-0.3v-2.3h0.3v-0.6h-1.3v0.6h0.3V67.4z M130.5,64.6h-1.4l-0.7,1.6
		l-0.7-1.6h-1.4v0.6h0.3v2.3h-0.3v0.6h1.3v-0.6h-0.3v-2.3l0.7,1.6h0.8l0.7-1.6v2.3h-0.3v0.6h1.3v-0.6h-0.3v-2.3h0.3V64.6z
		 M123.2,67.4h-0.3v0.6h2.9v-0.6h-1.9v-0.8h1.8V66h-1.8v-0.8h1.9v-0.6h-2.9v0.6h0.3V67.4z M121.4,66c-0.2,0-0.3-0.1-0.5-0.1
		c-0.1,0-0.2-0.1-0.3-0.1c-0.1,0-0.1-0.1-0.2-0.1c0,0,0-0.1,0-0.2c0-0.1,0-0.1,0.1-0.2c0,0,0.1-0.1,0.1-0.1c0.1,0,0.1,0,0.2-0.1
		c0.1,0,0.2,0,0.2,0c0.1,0,0.3,0,0.4,0c0.1,0,0.2,0,0.3,0.1c0.1,0,0.1,0.1,0.2,0.1c0.1,0,0.1,0,0.1,0.1c0,0,0,0,0,0v-0.7
		c0,0,0,0-0.1,0c0,0-0.1,0-0.2-0.1c-0.1,0-0.2-0.1-0.3-0.1c-0.1,0-0.3,0-0.5,0c-0.2,0-0.4,0-0.5,0.1c-0.2,0-0.3,0.1-0.4,0.2
		c-0.1,0.1-0.2,0.2-0.3,0.3c-0.1,0.1-0.1,0.3-0.1,0.4c0,0.2,0,0.3,0.1,0.4c0,0.1,0.1,0.2,0.2,0.3c0.1,0.1,0.2,0.1,0.3,0.2
		c0.1,0.1,0.3,0.1,0.4,0.2c0.2,0,0.3,0.1,0.5,0.1c0.1,0,0.2,0.1,0.3,0.1c0.1,0,0.1,0.1,0.2,0.1c0,0,0,0.1,0,0.2c0,0.1,0,0.1-0.1,0.2
		c0,0.1-0.1,0.1-0.2,0.1c-0.1,0-0.3,0-0.4,0c-0.1,0-0.3,0-0.4,0c-0.1,0-0.2-0.1-0.3-0.1c-0.1,0-0.2-0.1-0.2-0.1
		c-0.1,0-0.1-0.1-0.1-0.1c0,0-0.1,0-0.1,0v0.7c0,0,0,0,0,0c0,0,0.1,0,0.1,0.1c0.1,0,0.1,0.1,0.2,0.1c0.1,0,0.2,0,0.3,0.1
		c0.1,0,0.2,0,0.4,0c0.2,0,0.5,0,0.7-0.1c0.2-0.1,0.3-0.1,0.5-0.2c0.1-0.1,0.2-0.2,0.3-0.3c0.1-0.1,0.1-0.3,0.1-0.4
		c0-0.2,0-0.3-0.1-0.4c0-0.1-0.1-0.2-0.2-0.3c-0.1-0.1-0.2-0.1-0.3-0.2C121.8,66.1,121.6,66.1,121.4,66z M116.3,68.1
		c0.3,0,0.5,0,0.7-0.1c0.2-0.1,0.4-0.2,0.6-0.4c0.2-0.2,0.3-0.4,0.4-0.6c0.1-0.2,0.1-0.5,0.1-0.7c0-0.3,0-0.5-0.1-0.7
		c-0.1-0.2-0.2-0.4-0.4-0.6c-0.2-0.2-0.3-0.3-0.6-0.4c-0.2-0.1-0.5-0.1-0.7-0.1c-0.3,0-0.5,0-0.7,0.1c-0.2,0.1-0.4,0.2-0.6,0.4
		c-0.2,0.2-0.3,0.4-0.4,0.6c-0.1,0.2-0.1,0.5-0.1,0.7c0,0.3,0,0.5,0.1,0.7c0.1,0.2,0.2,0.4,0.4,0.6c0.2,0.2,0.3,0.3,0.6,0.4
		C115.8,68.1,116,68.1,116.3,68.1z M116.3,65.2c0.2,0,0.3,0,0.5,0.1c0.1,0.1,0.2,0.1,0.3,0.2c0.1,0.1,0.2,0.2,0.2,0.4
		c0,0.1,0.1,0.3,0.1,0.5c0,0.2,0,0.3-0.1,0.5c0,0.1-0.1,0.3-0.2,0.4c-0.1,0.1-0.2,0.2-0.3,0.2c-0.1,0.1-0.3,0.1-0.5,0.1
		c-0.2,0-0.3,0-0.5-0.1c-0.1-0.1-0.2-0.1-0.3-0.2c-0.1-0.1-0.2-0.2-0.2-0.4c0-0.1-0.1-0.3-0.1-0.5c0-0.2,0-0.3,0.1-0.5
		c0-0.1,0.1-0.3,0.2-0.4c0.1-0.1,0.2-0.2,0.3-0.2C116,65.2,116.1,65.2,116.3,65.2z M112.2,68.1c0.4,0,0.8-0.1,1.1-0.2
		c0.3-0.1,0.5-0.3,0.7-0.6c0.1-0.3,0.2-0.6,0.2-1c0-0.3,0-0.5-0.1-0.7c-0.1-0.2-0.2-0.4-0.4-0.5c-0.2-0.1-0.4-0.3-0.6-0.3
		c-0.2-0.1-0.5-0.1-0.8-0.1c-0.2,0-0.3,0-0.4,0c-0.1,0-0.2,0-0.3,0c-0.1,0-0.2,0-0.3,0c-0.1,0-0.2,0-0.3,0c-0.1,0-0.2,0-0.3,0v0.6
		h0.3v2.2h-0.3v0.6c0.1,0,0.2,0,0.3,0c0.1,0,0.2,0,0.3,0c0.1,0,0.2,0,0.3,0c0.1,0,0.2,0,0.3,0C111.9,68.1,112.1,68.1,112.2,68.1z
		 M111.6,65.2C111.6,65.2,111.6,65.2,111.6,65.2c0.1,0,0.2,0,0.2,0c0.1,0,0.1,0,0.2,0c0.1,0,0.2,0,0.2,0c0.3,0,0.5,0,0.7,0.1
		c0.2,0.1,0.3,0.2,0.4,0.4c0.1,0.2,0.1,0.4,0.1,0.6c0,0.2,0,0.4-0.1,0.6c-0.1,0.2-0.2,0.3-0.4,0.4c-0.2,0.1-0.4,0.1-0.7,0.1
		c-0.1,0-0.1,0-0.2,0c-0.1,0-0.1,0-0.2,0c-0.1,0-0.1,0-0.2,0c0,0-0.1,0-0.1,0V65.2z M106.5,67.4h-0.3v0.6h2.8v-0.6h-1.8v-2.3h0.3
		v-0.6h-1.3v0.6h0.3V67.4z M103.9,65.2l0.5,1.4h-1L103.9,65.2z M104.9,68.1h0.9v-0.6h-0.3l-1.1-2.9h-1l-1.1,2.9H102v0.6h0.9l0.3-0.9
		h1.4L104.9,68.1z M98,68.1h1.3v-0.6h-0.3v-2.3l1.3,2.9h1.2v-2.9h0.3v-0.6h-1.3v0.6h0.3v2.3l-1.3-2.9H98v0.6h0.3v2.3H98V68.1z
		 M95.7,68.1c0.3,0,0.5,0,0.7-0.1c0.2-0.1,0.4-0.2,0.6-0.4c0.2-0.2,0.3-0.4,0.4-0.6c0.1-0.2,0.1-0.5,0.1-0.7c0-0.3,0-0.5-0.1-0.7
		c-0.1-0.2-0.2-0.4-0.4-0.6c-0.2-0.2-0.3-0.3-0.6-0.4c-0.2-0.1-0.5-0.1-0.7-0.1c-0.3,0-0.5,0-0.7,0.1c-0.2,0.1-0.4,0.2-0.6,0.4
		c-0.2,0.2-0.3,0.4-0.4,0.6c-0.1,0.2-0.1,0.5-0.1,0.7c0,0.3,0,0.5,0.1,0.7c0.1,0.2,0.2,0.4,0.4,0.6c0.2,0.2,0.3,0.3,0.6,0.4
		C95.1,68.1,95.4,68.1,95.7,68.1z M95.7,65.2c0.2,0,0.3,0,0.5,0.1c0.1,0.1,0.2,0.1,0.3,0.2c0.1,0.1,0.2,0.2,0.2,0.4
		c0,0.1,0.1,0.3,0.1,0.5c0,0.2,0,0.3-0.1,0.5c0,0.1-0.1,0.3-0.2,0.4c-0.1,0.1-0.2,0.2-0.3,0.2c-0.1,0.1-0.3,0.1-0.5,0.1
		c-0.2,0-0.3,0-0.5-0.1c-0.1-0.1-0.2-0.1-0.3-0.2c-0.1-0.1-0.2-0.2-0.2-0.4c0-0.1-0.1-0.3-0.1-0.5c0-0.2,0-0.3,0.1-0.5
		c0-0.1,0.1-0.3,0.2-0.4c0.1-0.1,0.2-0.2,0.3-0.2C95.3,65.2,95.5,65.2,95.7,65.2z M92.4,67.4h-0.3v0.6h1.3v-0.6h-0.3v-2.3h0.3v-0.6
		h-1.3v0.6h0.3V67.4z M91.5,67.1C91.5,67.1,91.5,67.1,91.5,67.1c-0.1,0.1-0.1,0.1-0.2,0.1c-0.1,0-0.1,0.1-0.2,0.1
		c-0.1,0-0.2,0.1-0.3,0.1c-0.1,0-0.3,0-0.4,0c-0.2,0-0.3,0-0.4-0.1c-0.1,0-0.3-0.1-0.4-0.2c-0.1-0.1-0.2-0.2-0.3-0.4
		c-0.1-0.1-0.1-0.3-0.1-0.5c0-0.2,0-0.3,0.1-0.5c0.1-0.1,0.1-0.3,0.2-0.4c0.1-0.1,0.2-0.2,0.4-0.2c0.1-0.1,0.3-0.1,0.5-0.1
		c0.2,0,0.3,0,0.4,0c0.1,0,0.2,0.1,0.3,0.1c0.1,0,0.2,0.1,0.2,0.1c0.1,0,0.1,0.1,0.1,0.1c0,0,0,0,0,0v-0.7c0,0,0,0,0,0
		c0,0-0.1,0-0.1-0.1c-0.1,0-0.1-0.1-0.2-0.1c-0.1,0-0.2-0.1-0.3-0.1c-0.1,0-0.3,0-0.4,0c-0.3,0-0.5,0-0.8,0.1
		c-0.2,0.1-0.4,0.2-0.6,0.4c-0.2,0.2-0.3,0.4-0.4,0.6c-0.1,0.2-0.1,0.5-0.1,0.7c0,0.2,0,0.4,0.1,0.6c0.1,0.2,0.1,0.4,0.3,0.5
		c0.1,0.1,0.2,0.3,0.4,0.4c0.2,0.1,0.3,0.2,0.5,0.2c0.2,0.1,0.4,0.1,0.6,0.1c0.2,0,0.3,0,0.4,0c0.1,0,0.2,0,0.3-0.1
		c0.1,0,0.2-0.1,0.2-0.1c0.1,0,0.1-0.1,0.1-0.1c0,0,0,0,0,0V67.1z M86.4,65.2l0.5,1.4h-1L86.4,65.2z M87.4,68.1h0.9v-0.6H88
		l-1.1-2.9h-1l-1.1,2.9h-0.3v0.6h0.9l0.3-0.9h1.4L87.4,68.1z M80.5,68.1h1.3v-0.6h-0.3v-2.3l1.3,2.9h1.2v-2.9h0.3v-0.6h-1.3v0.6h0.3
		v2.3l-1.3-2.9h-1.5v0.6h0.3v2.3h-0.3V68.1z M76.9,68.1c0.3,0,0.5,0,0.7-0.1c0.2-0.1,0.4-0.2,0.6-0.4c0.2-0.2,0.3-0.4,0.4-0.6
		c0.1-0.2,0.1-0.5,0.1-0.7c0-0.3,0-0.5-0.1-0.7c-0.1-0.2-0.2-0.4-0.4-0.6c-0.2-0.2-0.3-0.3-0.6-0.4c-0.2-0.1-0.5-0.1-0.7-0.1
		c-0.3,0-0.5,0-0.7,0.1c-0.2,0.1-0.4,0.2-0.6,0.4c-0.2,0.2-0.3,0.4-0.4,0.6c-0.1,0.2-0.1,0.5-0.1,0.7c0,0.3,0,0.5,0.1,0.7
		c0.1,0.2,0.2,0.4,0.4,0.6c0.2,0.2,0.3,0.3,0.6,0.4C76.3,68.1,76.6,68.1,76.9,68.1z M76.9,65.2c0.2,0,0.3,0,0.5,0.1
		c0.1,0.1,0.2,0.1,0.3,0.2c0.1,0.1,0.2,0.2,0.2,0.4c0,0.1,0.1,0.3,0.1,0.5c0,0.2,0,0.3-0.1,0.5c0,0.1-0.1,0.3-0.2,0.4
		c-0.1,0.1-0.2,0.2-0.3,0.2c-0.1,0.1-0.3,0.1-0.5,0.1c-0.2,0-0.3,0-0.5-0.1c-0.1-0.1-0.2-0.1-0.3-0.2c-0.1-0.1-0.2-0.2-0.2-0.4
		c0-0.1-0.1-0.3-0.1-0.5c0-0.2,0-0.3,0.1-0.5c0-0.1,0.1-0.3,0.2-0.4c0.1-0.1,0.2-0.2,0.3-0.2C76.5,65.2,76.7,65.2,76.9,65.2z
		 M72.8,67.4v0.6h1.3v-0.6h-0.3v-2.2h1.2v-0.6h-3v0.6h1.2v2.2H72.8z M71.4,65.2h0.3v-0.6h-1.3v0.6h0.3v1.4c0,0.2,0,0.4-0.1,0.5
		c-0.1,0.1-0.2,0.2-0.3,0.3c-0.1,0.1-0.3,0.1-0.5,0.1c-0.2,0-0.3,0-0.5-0.1c-0.1-0.1-0.2-0.2-0.3-0.3C69,66.9,69,66.7,69,66.5v-1.3
		h0.3v-0.6H68v0.6h0.3v1.4c0,0.3,0,0.5,0.1,0.7c0.1,0.2,0.2,0.4,0.3,0.5c0.1,0.1,0.3,0.2,0.5,0.3c0.2,0.1,0.4,0.1,0.6,0.1
		c0.2,0,0.4,0,0.6-0.1c0.2-0.1,0.3-0.1,0.5-0.3c0.1-0.1,0.2-0.3,0.3-0.5c0.1-0.2,0.1-0.4,0.1-0.7V65.2z M65.6,67.4v0.6h1.3v-0.6
		h-0.3v-2.2h1.2v-0.6h-3v0.6h1.2v2.2H65.6z M63.4,67.4h-0.3v0.6h1.3v-0.6h-0.3v-2.3h0.3v-0.6h-1.3v0.6h0.3V67.4z M60.6,67.4v0.6h1.3
		v-0.6h-0.3v-2.2h1.2v-0.6h-3v0.6h1.2v2.2H60.6z M58.5,66c-0.2,0-0.3-0.1-0.5-0.1c-0.1,0-0.2-0.1-0.3-0.1c-0.1,0-0.1-0.1-0.2-0.1
		c0,0,0-0.1,0-0.2c0-0.1,0-0.1,0.1-0.2c0,0,0.1-0.1,0.1-0.1c0.1,0,0.1,0,0.2-0.1c0.1,0,0.2,0,0.2,0c0.1,0,0.2,0,0.4,0
		c0.1,0,0.2,0,0.3,0.1c0.1,0,0.1,0.1,0.2,0.1c0.1,0,0.1,0,0.1,0.1c0,0,0,0,0,0v-0.7c0,0,0,0-0.1,0c0,0-0.1,0-0.2-0.1
		c-0.1,0-0.2-0.1-0.3-0.1c-0.1,0-0.3,0-0.5,0c-0.2,0-0.4,0-0.5,0.1c-0.2,0-0.3,0.1-0.4,0.2c-0.1,0.1-0.2,0.2-0.3,0.3
		c-0.1,0.1-0.1,0.3-0.1,0.4c0,0.2,0,0.3,0.1,0.4c0,0.1,0.1,0.2,0.2,0.3c0.1,0.1,0.2,0.1,0.3,0.2c0.1,0.1,0.3,0.1,0.4,0.2
		c0.2,0,0.3,0.1,0.5,0.1c0.1,0,0.2,0.1,0.3,0.1c0.1,0,0.1,0.1,0.2,0.1c0,0,0,0.1,0,0.2c0,0.1,0,0.1-0.1,0.2c0,0.1-0.1,0.1-0.2,0.1
		c-0.1,0-0.3,0-0.4,0c-0.1,0-0.3,0-0.4,0c-0.1,0-0.2-0.1-0.3-0.1c-0.1,0-0.2-0.1-0.2-0.1c-0.1,0-0.1-0.1-0.1-0.1c0,0-0.1,0-0.1,0
		v0.7c0,0,0,0,0,0c0,0,0.1,0,0.1,0.1c0.1,0,0.1,0.1,0.2,0.1c0.1,0,0.2,0,0.3,0.1c0.1,0,0.2,0,0.4,0c0.2,0,0.5,0,0.7-0.1
		c0.2-0.1,0.3-0.1,0.5-0.2c0.1-0.1,0.2-0.2,0.3-0.3c0.1-0.1,0.1-0.3,0.1-0.4c0-0.2,0-0.3-0.1-0.4c0-0.1-0.1-0.2-0.2-0.3
		c-0.1-0.1-0.2-0.1-0.3-0.2C58.9,66.1,58.7,66.1,58.5,66z M52.7,68.1H54v-0.6h-0.3v-2.3l1.3,2.9h1.2v-2.9h0.3v-0.6h-1.3v0.6h0.3v2.3
		l-1.3-2.9h-1.4v0.6H53v2.3h-0.3V68.1z M51.1,67.4h-0.3v0.6h1.3v-0.6h-0.3v-2.3h0.3v-0.6h-1.3v0.6h0.3V67.4z"/>
	<path fill="#FFFFFF" id="XMLID_43_" fill-rule="evenodd" d="M64.5,45.5c-0.8,0.1-1.6,0.1-2.4,0c-0.6,0-1.3-0.2-2-0.3c-0.6-0.2-1.2-0.4-1.6-0.6
		c-1-0.6-1.6-2-2.1-3.3c-0.5-1.3-1-2.5-1.8-3c-0.4-0.2-1.4-0.4-2.3-0.7l-0.2,0l-0.5-0.1l0,0c-0.4-0.1-0.9-0.2-1.2-0.2
		c-0.1,0.1-0.3,0.2-0.2,0.5c0,0.1,0.1,0.2,0.1,0.2v0c0.1,0.1,0.2,0.1,0.2,0.1c0.1,0,0.3,0.1,0.5,0.1c0.9,0.1,2.2,0.3,3.2,1
		c0.3,0.2,0.6,0.6,0.8,1.1c0.2,0.5,0.5,1.1,0.7,1.6c0.1,0.2,0.2,0.5,0.3,0.7c0.3,0.8,0.6,1.6,0.9,2c0.9,1.3,1.9,1.4,3.4,1.4
		c0.4,0,0.8,0,1.2,0.1c0.3,0,0.8,0.1,1.3,0.4c0.2,0.1,0.5,0.3,0.6,0.5c0.4-0.6,0.9-0.7,1.4-0.8l0.1,0l0,0c0.3-0.1,0.6-0.1,0.9-0.2
		c0.5-0.1,0.9-0.2,1.5-0.4c0.7-0.3,1.1-0.9,1.3-1.4l0.1-0.1v0c0.3-0.5,0.4-0.9,0.6-1.4v0c0.2-0.7,0.5-1.5,1-2.6
		c0.1-0.3,0.6-0.6,1.1-0.9c0.8-0.5,1.9-1,2.2-1.1c0.3-0.1,0.5-0.3,0.6-0.5l0,0c0-0.1,0.1-0.2,0.1-0.3c0-0.1,0-0.2-0.1-0.2h0
		c-0.1-0.1-0.1-0.1-0.2-0.1c-0.4,0.4-1,0.7-1.5,0.9c-0.1,0.1-0.3,0.1-0.4,0.2c-0.4,0.2-0.8,0.5-1.2,0.8c-0.4,0.3-0.7,0.6-0.9,0.8
		l0,0c-0.4,0.4-0.5,0.8-0.7,1.4c-0.2,0.5-0.4,1.1-0.8,2c-0.2,0.4-0.4,0.8-0.8,1.2c-0.3,0.3-0.6,0.6-0.9,0.8
		C66.1,45.2,65.4,45.4,64.5,45.5L64.5,45.5z M51.5,34.6l0.3,0c1.1,0.1,3,0.3,4.4,1c0.5,0.3,1,0.6,1.4,1c0.4,0.4,0.8,0.8,1.1,1.3
		c0.3,0.4,0.4,0.9,0.6,1.4c0.1,0.3,0.2,0.6,0.3,0.9c1,2,2.9,1.9,4.4,1.7h0l0.2,0c0.7-0.1,1-0.4,1.4-0.9l0,0c0.1-0.1,0.1-0.1,0.2-0.2
		c0.3-0.4,0.6-0.8,0.9-1.3c0.2-0.5,0.5-1,0.6-1.5c0-0.1,0.1-0.2,0.1-0.3l0,0c0.2-0.5,0.3-1,0.7-1.3c0.9-0.9,1.9-1.4,2.9-1.9
		c0.5-0.2,1-0.5,1.4-0.8c0.4-0.3,0.9-0.4,1.1-0.5c0.1,0,0.2,0,0.2,0l0,0c0.1-0.2,0.1-0.3,0.1-0.4c0-0.1-0.1-0.2-0.1-0.3
		c-0.1-0.2-0.4-0.2-0.4-0.2c-1,0.3-2.5,1-3.8,1.8c-1.4,0.8-2.6,1.7-2.8,2.1c-0.1,0.2-0.3,0.6-0.4,1c-0.5,1.2-1.2,2.9-1.9,3.1l0,0
		c-0.1,0-0.2,0-0.3,0c-0.1,0-0.2-0.1-0.3-0.1c-0.4-0.4-0.5-0.8-0.6-1.2l0,0c0-0.1,0-0.5-0.1-1.1c0-0.8-0.1-2-0.2-3.6
		c0-0.2,0-0.4,0-0.6c0-0.5,0-1.1-0.2-1.6l0,0c0-0.1-0.1-0.2-0.1-0.2l0,0c0,0,0,0-0.1,0h0c0,0,0,0-0.1,0l0,0
		c-0.1,0.1-0.3,0.2-0.4,0.4c-0.1,0.1-0.1,0.6-0.1,0.9c0,0.2,0,0.3,0,0.4c0,0.6,0,1.1,0,1.6c0,0.3,0,0.6,0,0.8c0,0.1,0,0.4,0.1,0.8
		c0.1,0.9,0.2,2.2,0.1,3c-0.1,0.6-0.6,0.6-0.7,0.6v0h0l0,0c-0.9,0-1.3-1.2-1.6-2.2c-0.1-0.3-0.2-0.5-0.3-0.7l0,0l0-0.1
		c-0.2-0.5-0.5-1.1-1-1.5c-0.9-0.6-2.2-1.1-3.5-1.5c-1.7-0.5-3.5-0.8-4.4-0.9c-0.1,0-0.3,0-0.4,0.1c-0.1,0.1-0.2,0.1-0.3,0.2
		c-0.1,0.2,0,0.4,0,0.5l0,0l0,0l0,0c0,0.1,0.3,0.2,0.6,0.2C50.9,34.6,51.3,34.6,51.5,34.6z M73.9,35.2l-0.1,0.1
		c-0.5,0.3-1.1,0.6-1.7,0.9c-0.8,0.4-1.7,0.8-2.3,1.3c0,0-0.1,0.1-0.1,0.1c-0.6,0.7-1.1,1.8-1.5,2.6c-0.1,0.2-0.2,0.4-0.2,0.5l0,0
		L67.9,41c-0.4,0.9-0.8,1.6-1.3,2.2c-0.1,0.2-0.3,0.3-0.5,0.4c-0.1,0.1-0.3,0.2-0.4,0.3c-0.2,0.1-0.3,0.2-0.5,0.2l0,0
		c-0.3,0.1-0.7,0.2-1,0.2c-0.4,0.1-0.8,0.1-1.3,0c-0.7,0-1.6-0.2-2.3-0.4c-0.6-0.2-1.2-0.5-1.6-0.8l-0.1-0.1V43c0,0-0.1-0.1-0.2-0.2
		l0,0c-0.2-0.2-0.3-0.4-0.4-0.5l-0.5-1.1c-0.1-0.3-0.3-0.5-0.4-0.8c-0.3-0.5-0.5-1-0.7-1.6c-0.2-0.5-0.8-1-1.5-1.4
		c-1-0.6-2.3-0.9-3.1-1c-0.1,0-0.6-0.1-1.1-0.2c-0.1,0-0.1,0-0.2,0c-0.1,0-0.2,0-0.3,0l0,0c-0.3-0.1-0.3,0.1-0.4,0.1l0,0l0,0
		c0,0,0,0.1,0,0.2v0l0,0.1v0c0,0.1,0,0.2,0.1,0.2c0.1,0.1,0.1,0.2,0.2,0.2l0,0l0.1,0l0,0l0,0l0,0c0.1,0,0.1,0,0.3,0v0
		c0.3,0.1,0.8,0.2,1.4,0.3l0.1,0l0,0c0.2,0.1,0.4,0.1,0.6,0.1v0c0.8,0.2,1.4,0.3,2,0.6c1,0.5,1.5,1.8,2,3.2c0.5,1.3,1,2.6,1.9,3.1
		c0.4,0.2,0.9,0.4,1.5,0.6c0.6,0.2,1.3,0.3,1.9,0.3c0.8,0.1,1.6,0.1,2.3,0l0,0c0.7-0.1,1.4-0.3,2-0.6c0.3-0.2,0.6-0.4,0.8-0.7
		c0.3-0.4,0.6-0.8,0.7-1.1c0.4-0.8,0.6-1.4,0.8-1.9c0.2-0.7,0.4-1.1,0.8-1.6c0.2-0.2,0.6-0.5,1-0.8c0.4-0.3,0.9-0.6,1.3-0.8
		c0.1-0.1,0.2-0.1,0.4-0.2c0.5-0.2,1-0.5,1.4-0.9l0,0c0-0.1,0.1-0.1,0.2-0.1c0-0.1,0.1-0.1,0.1-0.2c0.2-0.2,0.2-0.4,0.2-0.6
		c0-0.1,0-0.1-0.1-0.2C74.1,35.3,74,35.3,73.9,35.2C73.9,35.3,73.9,35.2,73.9,35.2z M74.2,34.4c0.1-0.2,0.1-0.4,0.1-0.7
		c0,0,0,0,0-0.1c0-0.1-0.1-0.2-0.2-0.2c-0.1,0-0.2,0.1-0.3,0.1c-0.3,0.1-0.6,0.2-1,0.4c-0.4,0.3-0.9,0.5-1.4,0.8c-1,0.5-2,1-2.8,1.9
		c-0.3,0.3-0.5,0.7-0.6,1.2h0c0,0.1-0.1,0.2-0.1,0.3c-0.2,0.5-0.4,1-0.7,1.6c-0.3,0.5-0.6,1-0.9,1.4c-0.1,0.1-0.1,0.2-0.2,0.2v0
		c-0.5,0.6-0.9,1-1.7,1.1l-0.2,0c-1.6,0.1-3.7,0.3-4.8-2c-0.1-0.3-0.2-0.6-0.4-0.9c-0.2-0.5-0.3-0.9-0.6-1.3c-0.3-0.5-0.6-0.9-1-1.2
		c-0.4-0.4-0.8-0.7-1.3-0.9c-1.4-0.7-3.2-0.9-4.2-1h0l-0.3,0h0l0,0c-0.1,0-0.2,0-0.3,0c-0.2,0-0.5,0-0.8-0.1l0,0h0c0,0-0.1,0-0.1,0
		l0,0l0,0h0c0,0,0,0,0,0l0,0c-0.1,0.1-0.1,0.1-0.1,0.2h0c0,0.1,0,0.2,0,0.2h0c0,0.1,0.1,0.1,0.1,0.1l0,0c0,0,0.1,0.1,0.1,0.1
		c0.1,0.1,0.3,0.1,0.5,0.2l0.2,0h0l0.2,0h0l0.9,0.1h0c0.8,0.1,2.2,0.5,3.3,1.1c0.8,0.4,1.5,1,1.7,1.6c0.2,0.6,0.5,1.1,0.7,1.6
		c0.1,0.3,0.3,0.6,0.4,0.8l0.5,1.1c0,0,0.2,0.2,0.3,0.4c0.1,0.1,0.2,0.2,0.3,0.3c0.3,0.3,0.8,0.5,1.4,0.7c0.7,0.2,1.5,0.3,2.2,0.4
		c0.5,0,0.9,0,1.3,0c0.3,0,0.6-0.1,1-0.2c0.2-0.1,0.3-0.1,0.5-0.2v0c0.1-0.1,0.3-0.2,0.4-0.3l0,0c0.1-0.1,0.2-0.2,0.3-0.3
		c0.4-0.5,0.7-1.1,1.1-2l0.1-0.2c0.1-0.1,0.1-0.3,0.2-0.5c0.4-0.9,0.9-2.1,1.6-2.8c0.1-0.1,0.1-0.1,0.2-0.2c0.6-0.6,1.5-1,2.4-1.4
		c0.6-0.3,1.2-0.6,1.7-0.9l0,0c0,0,0.1,0,0.1,0C73.9,34.7,74.1,34.6,74.2,34.4z M61.9,58.2C61.9,58.2,61.9,58.2,61.9,58.2L61.9,58.2
		c-0.1,0-0.2,0.2-0.3,0.3c-0.1,0.2-0.1,0.4-0.1,0.6c0,0,0,0.1,0,0.1c0,0.2,0.1,0.3,0.1,0.4l0,0c0,0.1,0,0.2,0.1,0.3c0,0,0,0,0.1,0
		c0.2,0,0.3,0.1,0.4,0.1c0.1,0,0.2-0.1,0.3-0.1c0.1-0.1,0.2-0.2,0.2-0.3c0-0.1,0-0.2,0-0.3c0-0.1,0-0.1,0-0.2l0,0l0,0l0,0l0,0
		c0-0.1-0.1-0.4-0.3-0.5c-0.1-0.1-0.2-0.2-0.3-0.2l0,0C62,58.3,62,58.2,61.9,58.2L61.9,58.2z M62.1,56.6c-0.2,0-0.4,0-0.5,0.1h0
		c-0.1,0-0.2,0.1-0.3,0.3c-0.1,0.2,0,0.4,0.1,0.6l0,0l0,0c0,0,0.1,0,0.2,0c0.2,0,0.3,0,0.4,0c0.1,0,0.2-0.1,0.3-0.1
		c0.1-0.1,0.2-0.2,0.2-0.3l0,0l0-0.1v0c0-0.1,0-0.2-0.1-0.3l0,0l0,0c0,0-0.1,0-0.1-0.1H62.1L62.1,56.6z M62,55.2
		c-0.2,0-0.4,0-0.5,0.1h0c-0.1,0-0.2,0.1-0.3,0.3c-0.1,0.2,0,0.4,0.1,0.6v0l0,0l0,0c0,0,0.1,0,0.2,0c0.2,0,0.3,0,0.4,0
		c0.1,0,0.2-0.1,0.3-0.1c0.1-0.1,0.2-0.2,0.2-0.3l0,0l0-0.1v0c0-0.1,0-0.2-0.1-0.3l0,0c0,0-0.1,0-0.1-0.1L62,55.2L62,55.2z
		 M61.8,53.6c-0.2,0-0.4,0-0.5,0.1c-0.1,0-0.2,0.1-0.3,0.3c-0.1,0.2,0,0.4,0.1,0.6v0l0,0l0,0c0,0,0.1,0,0.2,0c0.2,0,0.3,0,0.4,0
		c0.1,0,0.2-0.1,0.3-0.1c0.1-0.1,0.2-0.2,0.2-0.3l0,0l0-0.1v0c0-0.1,0-0.2-0.1-0.3l0,0c0,0-0.1,0-0.1-0.1L61.8,53.6L61.8,53.6z
		 M61.6,52.1c-0.2,0-0.4,0-0.5,0.1h0c-0.1,0-0.2,0.1-0.3,0.3c-0.1,0.2,0,0.4,0.1,0.6l0,0l0,0l0,0c0,0,0.1,0,0.2,0c0.2,0,0.3,0,0.4,0
		c0.1,0,0.2-0.1,0.3-0.1c0.1-0.1,0.2-0.2,0.2-0.3l0,0l0-0.1v0c0-0.1,0-0.2-0.1-0.3l0,0c0,0-0.1,0-0.1-0.1l0,0L61.6,52.1L61.6,52.1z
		 M65.9,49.6c0-0.2-0.1-0.3-0.1-0.4c-0.1-0.1-0.1-0.2-0.2-0.2c-0.2-0.1-0.3,0-0.5,0.1l0,0l0,0c0,0,0,0.1,0,0.2c0,0.1,0,0.3,0,0.4
		c0,0.1,0.1,0.2,0.2,0.3l0,0c0.1,0.1,0.2,0.1,0.2,0.1h0l0.1,0l0,0c0.1,0,0.1,0,0.3-0.1l0,0C65.9,49.8,65.9,49.8,65.9,49.6L65.9,49.6
		L65.9,49.6L65.9,49.6z M64.4,50.3c-0.2,0-0.4,0-0.5,0.1c-0.1,0-0.2,0.1-0.3,0.2l0,0c-0.1,0.2,0,0.4,0.1,0.5l0,0l0,0l0,0
		c0,0,0.1,0,0.2,0c0.2,0,0.3,0,0.4,0c0.1,0,0.2-0.1,0.3-0.1c0.1-0.1,0.1-0.2,0.1-0.2l0,0l0-0.1v0c0-0.1,0-0.2-0.1-0.3l0,0
		C64.6,50.4,64.6,50.4,64.4,50.3L64.4,50.3L64.4,50.3z M63.5,49.2C63.5,49.2,63.5,49.2,63.5,49.2l0.2,0.5l0,0l0,0l0,0
		c0,0.1,0.2,0.2,0.3,0.2c0.1,0,0.2,0,0.3,0l0,0l0.1-0.1l0,0c0.1-0.1,0.1-0.1,0.2-0.2l0,0c0,0,0-0.1,0-0.1l0,0l0-0.1
		c-0.1-0.1-0.2-0.3-0.3-0.4v0c-0.1-0.1-0.2-0.1-0.3-0.1C63.7,48.9,63.6,49,63.5,49.2z M62.7,49c-0.2,0-0.4,0-0.5,0.1h0
		c-0.1,0-0.2,0.1-0.3,0.2c-0.1,0.2,0,0.4,0.1,0.5l0,0l0,0l0,0c0,0,0.1,0,0.2,0c0.2,0,0.3,0,0.4,0c0.1,0,0.2-0.1,0.3-0.1
		c0.1-0.1,0.1-0.2,0.1-0.2l0,0l0-0.1v0c0-0.1,0-0.2-0.1-0.3l0,0C63,49,62.9,49,62.7,49L62.7,49L62.7,49z M64.3,48.1
		c0-0.1-0.1-0.3,0-0.5l0,0l0,0c0,0,0,0-0.1,0h0l0,0l-0.1,0c-0.1,0-0.3,0-0.4,0.1h0c-0.1,0-0.2,0.1-0.2,0.2h0c-0.1,0.2,0,0.3,0.1,0.4
		v0l0,0l0,0c0,0,0.1,0,0.1,0c0.1,0,0.3,0,0.3,0C64.1,48.3,64.2,48.3,64.3,48.1C64.3,48.2,64.3,48.2,64.3,48.1z M65.5,47.4
		c-0.2,0-0.4,0-0.5,0.1c-0.1,0-0.2,0.1-0.2,0.2c0,0.1,0,0.1,0,0.2l0,0.1h0c0,0.1,0,0.1,0,0.2l0,0.1l0,0l0,0l0,0c0,0,0.1,0,0.2,0
		c0.2,0,0.3,0,0.4,0c0.1,0,0.2-0.1,0.3-0.1c0.1-0.1,0.1-0.2,0.1-0.2l0,0l0-0.1v0c0-0.1,0-0.2-0.1-0.3l0,0l0,0
		C65.7,47.4,65.7,47.4,65.5,47.4L65.5,47.4L65.5,47.4z M62,51.1L62,51.1C62,51.2,62,51.2,62,51.1l0,0.2l0,0l0,0c0,0,0.1,0,0.2,0
		c0.2,0,0.3,0,0.4,0c0.1,0,0.2-0.1,0.3-0.1c0.1-0.1,0.1-0.2,0.1-0.2l0,0l0-0.1v0c0-0.1,0-0.2-0.1-0.3l0,0l0,0c0,0-0.1,0-0.1,0l0,0
		l-0.1,0c-0.2,0-0.4,0-0.5,0.1h0c-0.1,0-0.2,0.1-0.3,0.2c0,0.1,0,0.1,0,0.3L62,51.1z M61.3,50.6c-0.2,0-0.4,0-0.5,0.1h0
		c-0.1,0-0.2,0.1-0.3,0.2h0c-0.1,0.2,0,0.4,0.1,0.5v0l0,0l0,0c0,0,0.1,0,0.2,0c0.2,0,0.3,0,0.4,0c0.1,0,0.2-0.1,0.3-0.1
		c0.1,0,0.1-0.1,0.1-0.1c-0.1-0.1-0.1-0.3,0-0.5l0-0.1l0,0l0,0c0,0-0.1,0-0.1,0L61.3,50.6L61.3,50.6z M61.1,49c-0.2,0-0.4,0-0.5,0.1
		h0c-0.1,0-0.2,0.1-0.3,0.3h0c-0.1,0.2,0,0.4,0.1,0.6l0,0l0,0l0,0c0,0,0.1,0,0.2,0c0.2,0,0.3,0,0.4,0c0.1,0,0.2-0.1,0.3-0.2
		c0.1-0.1,0.2-0.2,0.2-0.3l0,0l0-0.1v0c0-0.1,0-0.2-0.1-0.3l0,0c0,0-0.1,0-0.1-0.1L61.1,49L61.1,49z M62,48.1L62,48.1
		c0,0.1,0,0.1,0,0.2c0,0.1,0,0.1,0.1,0.2l0,0l0,0l0,0c0,0,0.1,0,0.2,0c0.2,0,0.3,0,0.4,0c0.1,0,0.2-0.1,0.3-0.1
		c0.1-0.1,0.1-0.2,0.1-0.2l0,0l0-0.1v0c0-0.1,0-0.2-0.1-0.3l0,0l0,0c0,0-0.1,0-0.1,0l0,0l-0.1,0c-0.2,0-0.3,0-0.5,0.1h0
		c-0.1,0-0.2,0.1-0.3,0.2l0,0.1L62,48.1z M61.1,47.4c-0.2,0-0.4,0.1-0.6,0.1c-0.2,0.1-0.3,0.2-0.4,0.3l0,0c-0.1,0.3,0,0.5,0.1,0.7
		l0,0l0,0l0,0c0,0,0.1,0,0.3,0c0.2,0,0.4,0,0.5,0c0.1,0,0.3-0.1,0.4-0.2c0.1-0.1,0.1-0.1,0.1-0.2c0-0.1,0-0.3,0-0.5
		c0-0.1,0-0.1-0.1-0.3l0,0c0,0-0.1,0-0.2-0.1l0,0L61.1,47.4z"/>
</g>
</svg>
