<?xml version="1.0" encoding="utf-8"?>
<!-- Generator: Adobe Illustrator 20.1.0, SVG Export Plug-In . SVG Version: 6.00 Build 0)  -->
<svg version="1.2" baseProfile="tiny" id="Camada_1"
	 xmlns="http://www.w3.org/2000/svg" xmlns:xlink="http://www.w3.org/1999/xlink" x="0px" y="0px" viewBox="0 0 200 100"
	 overflow="scroll" xml:space="preserve">
<g>
	<path fill="#FFFFFF" d="M95.1,39.2c0-4,4-7.2,9-7.2c5,0,9,3.2,9,7.2v3h23.4v-3c0-10.4-10.5-18.9-23.5-18.9
		c-7.2,0-13.6,2.6-17.9,6.7V10.3H62.9v58.9h32.2V39.2z"/>
	<rect x="131.8" y="45" fill="#FFFFFF" width="1.6" height="24.3"/>
	<rect x="135" y="45" fill="#FFFFFF" width="1.6" height="24.3"/>
	<rect x="125.6" y="45" fill="#FFFFFF" width="1.6" height="24.3"/>
	<rect x="128.7" y="45" fill="#FFFFFF" width="1.6" height="24.3"/>
	<rect x="119.3" y="45" fill="#FFFFFF" width="1.6" height="24.3"/>
	<rect x="122.5" y="45" fill="#FFFFFF" width="1.6" height="24.3"/>
	<rect x="113.1" y="45" fill="#FFFFFF" width="1.6" height="24.3"/>
	<rect x="116.2" y="45" fill="#FFFFFF" width="1.6" height="24.3"/>
	<polygon fill="#FFFFFF" points="63.4,76.9 63.4,82.4 67.6,82.4 67.6,81 65.2,81 65.2,76.9 	"/>
	<path fill="#FFFFFF" d="M67.8,82.4h1.7l0.2-0.7h1.8l0.2,0.7h1.8l-1.9-5.5h-1.8L67.8,82.4z M70.6,78.6l0.6,1.9h-1.1L70.6,78.6z"/>
	<path fill="#FFFFFF" d="M78.1,82.2c0.3-0.1,0.5-0.3,0.6-0.6c0.1-0.2,0.2-0.5,0.2-0.9c0-0.3-0.1-0.6-0.2-0.8s-0.4-0.4-0.6-0.5
		c0.2-0.1,0.4-0.3,0.5-0.5c0.1-0.2,0.2-0.4,0.2-0.7c0-0.3-0.1-0.6-0.2-0.8c-0.1-0.2-0.4-0.4-0.6-0.5c-0.2-0.1-0.4-0.1-0.6-0.1
		c-0.2,0-0.6,0-1.1,0H74v5.5h2.4c0.5,0,0.9,0,1.1-0.1C77.8,82.3,78,82.3,78.1,82.2z M75.7,78.2h0.5c0.4,0,0.6,0,0.7,0.1
		c0.1,0.1,0.2,0.2,0.2,0.4c0,0.2,0,0.3-0.2,0.4c-0.1,0.1-0.3,0.1-0.5,0.1h-0.7V78.2z M77.1,81c-0.1,0.1-0.3,0.1-0.6,0.1h-0.8v-1h0.8
		c0.3,0,0.5,0,0.6,0.1c0.1,0.1,0.2,0.2,0.2,0.4C77.3,80.8,77.2,80.9,77.1,81z"/>
	<path fill="#FFFFFF" d="M80.3,77.5c-0.5,0.5-0.8,1.2-0.8,2.1c0,0.9,0.3,1.6,0.8,2.1c0.5,0.5,1.2,0.8,2.1,0.8c0.9,0,1.6-0.3,2.1-0.8
		c0.5-0.5,0.8-1.2,0.8-2.1c0-0.9-0.3-1.6-0.8-2.1c-0.5-0.5-1.2-0.8-2.1-0.8C81.5,76.8,80.8,77,80.3,77.5z M83.3,78.5
		c0.2,0.2,0.3,0.6,0.3,1.2c0,0.5-0.1,0.9-0.3,1.2c-0.2,0.2-0.4,0.4-0.8,0.4c-0.4,0-0.6-0.1-0.8-0.4c-0.2-0.2-0.3-0.6-0.3-1.2
		c0-0.5,0.1-0.9,0.3-1.2c0.2-0.2,0.4-0.4,0.8-0.4C82.8,78.2,83.1,78.3,83.3,78.5z"/>
	<path fill="#FFFFFF" d="M87.9,80.5h0.8c0.3,0,0.5,0.1,0.6,0.2c0.1,0.1,0.2,0.3,0.2,0.6v0.6c0,0.1,0,0.1,0,0.2c0,0.1,0,0.2,0.1,0.3
		h1.8v-0.2c-0.1,0-0.2-0.1-0.2-0.3c0,0,0,0,0,0l0-0.8c0-0.4-0.1-0.7-0.2-0.8s-0.4-0.3-0.7-0.4c0.3-0.1,0.5-0.3,0.7-0.5
		c0.1-0.2,0.2-0.5,0.2-0.8c0-0.6-0.2-1-0.5-1.2c-0.4-0.2-0.9-0.4-1.8-0.4h-2.6v5.5h1.8V80.5z M87.9,78.2h0.8c0.3,0,0.5,0,0.6,0.1
		c0.1,0.1,0.2,0.2,0.2,0.4c0,0.2-0.1,0.3-0.2,0.4c-0.1,0.1-0.3,0.1-0.6,0.1h-0.8V78.2z"/>
	<path fill="#FFFFFF" d="M93.4,76.9l-1.9,5.5h1.7l0.2-0.7h1.8l0.2,0.7h1.8l-1.9-5.5H93.4z M93.7,80.5l0.6-1.9l0.6,1.9H93.7z"/>
	<polygon fill="#FFFFFF" points="101.9,76.9 96.9,76.9 96.9,78.4 98.5,78.4 98.5,82.4 100.3,82.4 100.3,78.4 101.9,78.4 	"/>
	<polygon fill="#FFFFFF" points="105.2,75 104.5,76.4 105,76.4 106.3,75 	"/>
	<path fill="#FFFFFF" d="M102.2,79.7c0,0.9,0.3,1.6,0.8,2.1c0.5,0.5,1.2,0.8,2.1,0.8c0.9,0,1.6-0.3,2.1-0.8c0.5-0.5,0.8-1.2,0.8-2.1
		c0-0.9-0.3-1.6-0.8-2.1c-0.5-0.5-1.2-0.8-2.1-0.8c-0.9,0-1.6,0.3-2.1,0.8C102.5,78.1,102.2,78.8,102.2,79.7z M104.3,78.5
		c0.2-0.2,0.4-0.4,0.8-0.4c0.4,0,0.6,0.1,0.8,0.4c0.2,0.2,0.3,0.6,0.3,1.2c0,0.5-0.1,0.9-0.3,1.2c-0.2,0.2-0.4,0.4-0.8,0.4
		c-0.4,0-0.6-0.1-0.8-0.4c-0.2-0.2-0.3-0.6-0.3-1.2C104,79.2,104.1,78.8,104.3,78.5z"/>
	<path fill="#FFFFFF" d="M113.5,79.3c0.1-0.2,0.2-0.5,0.2-0.8c0-0.6-0.2-1-0.5-1.2c-0.4-0.2-0.9-0.4-1.8-0.4h-2.6v5.5h1.8v-1.9h0.8
		c0.3,0,0.5,0.1,0.6,0.2c0.1,0.1,0.2,0.3,0.2,0.6v0.6c0,0.1,0,0.1,0,0.2c0,0.1,0,0.2,0.1,0.3h1.8v-0.2c-0.1,0-0.2-0.1-0.2-0.3
		c0,0,0,0,0,0l0-0.8c0-0.4-0.1-0.7-0.2-0.8s-0.4-0.3-0.7-0.4C113.2,79.7,113.4,79.6,113.5,79.3z M111.9,79.2
		c-0.1,0.1-0.3,0.1-0.6,0.1h-0.8v-1h0.8c0.3,0,0.5,0,0.6,0.1c0.1,0.1,0.2,0.2,0.2,0.4C112.1,79,112.1,79.1,111.9,79.2z"/>
	<rect x="114.7" y="76.9" fill="#FFFFFF" width="1.8" height="5.5"/>
	<path fill="#FFFFFF" d="M120.2,82.6c0.9,0,1.6-0.3,2.1-0.8c0.5-0.5,0.8-1.2,0.8-2.1c0-0.9-0.3-1.6-0.8-2.1
		c-0.5-0.5-1.2-0.8-2.1-0.8c-0.9,0-1.6,0.3-2.1,0.8c-0.5,0.5-0.8,1.2-0.8,2.1c0,0.9,0.3,1.6,0.8,2.1S119.3,82.6,120.2,82.6z
		 M119.4,78.5c0.2-0.2,0.4-0.4,0.8-0.4c0.4,0,0.6,0.1,0.8,0.4c0.2,0.2,0.3,0.6,0.3,1.2c0,0.5-0.1,0.9-0.3,1.2
		c-0.2,0.2-0.4,0.4-0.8,0.4c-0.4,0-0.6-0.1-0.8-0.4c-0.2-0.2-0.3-0.6-0.3-1.2C119.1,79.2,119.2,78.8,119.4,78.5z"/>
	<path fill="#FFFFFF" d="M67.5,84.3c-0.2-0.1-0.4-0.2-0.7-0.2c-0.3,0-0.7-0.1-1.2-0.1h-2.1v5.5h1.8c0.6,0,1,0,1.3-0.1
		c0.3,0,0.5-0.1,0.7-0.2c0.5-0.2,0.8-0.5,1.1-1c0.2-0.4,0.4-1,0.4-1.6c0-0.6-0.1-1.1-0.3-1.5C68.1,84.9,67.8,84.5,67.5,84.3z
		 M66.6,87.8c-0.2,0.2-0.5,0.3-0.9,0.3h-0.5v-2.7h0.5c0.4,0,0.7,0.1,0.9,0.3c0.2,0.2,0.3,0.6,0.3,1.1C66.8,87.3,66.7,87.6,66.6,87.8
		z"/>
	<polygon fill="#FFFFFF" points="71.2,87.3 73.4,87.3 73.4,86.1 71.2,86.1 71.2,85.3 73.9,85.3 73.9,84 69.4,84 69.4,89.5 74,89.5 
		74,88.2 71.2,88.2 	"/>
	<polygon fill="#FFFFFF" points="80.8,85.9 79.1,85.9 79.1,84 77.3,84 77.3,89.5 79.1,89.5 79.1,87.4 80.8,87.4 80.8,89.5 
		82.5,89.5 82.5,84 80.8,84 	"/>
	<rect x="83.6" y="84" fill="#FFFFFF" width="1.8" height="5.5"/>
	<path fill="#FFFFFF" d="M90.6,84.3c-0.2-0.1-0.4-0.2-0.7-0.2c-0.3,0-0.7-0.1-1.2-0.1h-2.1v5.5h1.8c0.6,0,1,0,1.3-0.1
		c0.3,0,0.5-0.1,0.7-0.2c0.5-0.2,0.8-0.5,1.1-1c0.2-0.4,0.4-1,0.4-1.6c0-0.6-0.1-1.1-0.3-1.5C91.2,84.9,90.9,84.5,90.6,84.3z
		 M89.7,87.8c-0.2,0.2-0.5,0.3-0.9,0.3h-0.5v-2.7h0.5c0.4,0,0.7,0.1,0.9,0.3c0.2,0.2,0.3,0.6,0.3,1.1C89.9,87.3,89.8,87.6,89.7,87.8
		z"/>
	<path fill="#FFFFFF" d="M97.5,89C97.5,89,97.5,89,97.5,89l0-0.8c0-0.4-0.1-0.7-0.2-0.8S96.9,87,96.6,87c0.3-0.1,0.5-0.3,0.7-0.5
		c0.1-0.2,0.2-0.5,0.2-0.8c0-0.6-0.2-1-0.5-1.2C96.6,84.1,96,84,95.2,84h-2.6v5.5h1.8v-1.9H95c0.3,0,0.5,0.1,0.6,0.2
		c0.1,0.1,0.2,0.3,0.2,0.6V89c0,0.1,0,0.1,0,0.2c0,0.1,0,0.2,0.1,0.3h1.8v-0.2C97.6,89.3,97.5,89.2,97.5,89z M95.7,86.3
		c-0.1,0.1-0.3,0.1-0.6,0.1h-0.8v-1H95c0.3,0,0.5,0,0.6,0.1c0.1,0.1,0.2,0.2,0.2,0.4C95.8,86.1,95.8,86.2,95.7,86.3z"/>
	<path fill="#FFFFFF" d="M99.8,84l-1.9,5.5h1.7l0.2-0.7h1.8l0.2,0.7h1.8l-1.9-5.5H99.8z M100.1,87.6l0.6-1.9l0.6,1.9H100.1z"/>
	<polygon fill="#FFFFFF" points="100.6,83.5 101.9,82.1 100.8,82.1 100.1,83.5 	"/>
	<path fill="#FFFFFF" d="M107.5,87.4c0,0.3-0.1,0.5-0.2,0.7c-0.1,0.1-0.3,0.2-0.6,0.2c-0.3,0-0.5-0.1-0.7-0.2
		c-0.1-0.1-0.2-0.4-0.2-0.7V84H104v3.5c0,0.7,0.2,1.2,0.7,1.6c0.5,0.4,1.1,0.6,2,0.6c0.8,0,1.5-0.2,1.9-0.5c0.4-0.4,0.7-0.9,0.7-1.6
		V84h-1.8V87.4z"/>
	<polygon fill="#FFFFFF" points="112.1,84 110.3,84 110.3,89.5 114.5,89.5 114.5,88.1 112.1,88.1 	"/>
	<rect x="115.3" y="84" fill="#FFFFFF" width="1.8" height="5.5"/>
	<path fill="#FFFFFF" d="M121.5,88.1c-0.2,0.2-0.4,0.2-0.7,0.2c-0.4,0-0.6-0.1-0.8-0.4c-0.2-0.3-0.3-0.6-0.3-1.1
		c0-0.5,0.1-0.9,0.3-1.2c0.2-0.3,0.4-0.4,0.8-0.4c0.3,0,0.5,0.1,0.7,0.2c0.2,0.1,0.2,0.4,0.3,0.6h1.7c-0.1-0.7-0.3-1.3-0.8-1.7
		c-0.5-0.4-1.1-0.6-1.9-0.6c-0.9,0-1.6,0.3-2.1,0.8c-0.5,0.5-0.8,1.2-0.8,2.1c0,0.9,0.3,1.6,0.8,2.1c0.5,0.5,1.2,0.8,2.1,0.8
		c0.8,0,1.4-0.2,1.9-0.6c0.5-0.4,0.7-1,0.8-1.7h-1.7C121.7,87.7,121.6,87.9,121.5,88.1z"/>
	<path fill="#FFFFFF" d="M125.6,84l-1.9,5.5h1.7l0.2-0.7h1.8l0.2,0.7h1.8l-1.9-5.5H125.6z M125.9,87.6l0.6-1.9l0.6,1.9H125.9z"/>
	<rect x="132.4" y="84" fill="#FFFFFF" width="1.8" height="5.5"/>
	<rect x="135.3" y="84" fill="#FFFFFF" width="1.8" height="5.5"/>
</g>
</svg>
