<?xml version="1.0" encoding="utf-8"?>
<!-- Generator: Adobe Illustrator 20.1.0, SVG Export Plug-In . SVG Version: 6.00 Build 0)  -->
<svg version="1.1" id="Camada_1" xmlns="http://www.w3.org/2000/svg" xmlns:xlink="http://www.w3.org/1999/xlink" x="0px" y="0px"
	 viewBox="0 0 567.4 379.6" style="enable-background:new 0 0 567.4 379.6;" xml:space="preserve">
<style type="text/css">
	.st0{fill:#22CBFF;}
	.st1{fill:#FFFFFF;}
	.st2{fill:#211915;}
</style>
<g>
	<path class="st0" d="M548.7,247.7l-4.7-47l0,0v0L503.6,173l-3.3-9.1l-0.3-0.8l2.1-29.5l0,0v0l-5-3.4l-17-5.5l-9.8-15l-2.1-3.3l0,0
		l-22.1,9.4L425,99.9l0,0l-3.6,0.3l-8.4,0.6h0l0,0l-1.5,2.8l-10.3,9.5l-3.9,2l-0.1,0l0,0l-0.3,0.1h0l0,0l-7.9,4l-10.7,5.1l-23.5,8.8
		l-19.7,4.3l-30.7,1.9l-37.4,1.1l-41.3-7.4l-13.8-5.1l-11.4-6.5l-17.8-9.7l-0.4-0.4l0,0l0,0l-6.3,5.8l-8.5,7.7l-29-14.5l-6.7-3.4
		l-15.6,2l-25.9,23.4l-11.4,5.2l-31.1,3.5l-1.4,3.1l-1,2.1L53,186l-1.7,8l-2.8,8l-9.1,12.4l-2,8.8l0,0L69.2,248l7.7,19.2l-9.7,46.4
		l5.3,8l73.6,3.5l10.3,0.5l0.2,0.1l0.3,0.3l48.3,40.1l9.2-1.6l36.5-22.6l20.1-0.5l18.9,19.2l0,0l7.7,1.1l0,0h0l16.7-18.3l9.3-10.2
		l30.8-14.9l58.5,34.4l21.2-0.8l13.8-17v0l16.8-15.9l21.1-19.9l0.5-0.1l68.8-15.3l2.4-7.3L548.7,247.7z"/>
	<polygon class="st0" points="104.4,367.2 99.7,374.1 96,374.3 91.7,373.1 87.2,369.1 86.2,366.1 88.3,361.3 93.5,358.5 96.2,358.9 
		101.3,362.1 	"/>
	<polygon class="st0" points="504.9,361.5 499.6,367.7 495.4,367.9 490.5,366.8 485.4,363.3 484.2,360.5 486.6,356.3 492.5,353.7 
		495.5,354.1 501.4,357 	"/>
	<polygon class="st0" points="510.8,327.8 509.5,331.4 508,332.4 504.1,333.1 500.4,332.1 499.7,326.8 501.5,325 504.1,323.7 
		508,323.5 509.8,324.5 	"/>
	<polygon class="st0" points="18,169.7 16.4,174.2 14.5,175.4 9.7,176.4 5.1,175.1 4.3,168.5 6.4,166.3 9.7,164.7 14.5,164.5 
		16.8,165.7 	"/>
</g>
<path class="st1" d="M406.5,59.4l-12.2-13.3l-17.1-7.4l-14.7-4.5l-8.1-1.9l-11.1-3.1l-23-0.9l-23.6,0.5l-33,3.1L253,33.1l-12.9,1.7
	l-11.6,3.4l-19.2,8.3l-11,10.1l-9.7,7.8l-5.7,8.3L179,83.8v8.6l4.6,7.7l1.2,0.8l5.3,3.4h0l2.8,1.8l17.1,9.7l10.4,3.5l10.5,4.1l6.9,2
	l12.6,1.8l9.3,0.8l0.3,0l0.4,0l0.1,0h0.1l0.2,0h0l3,0.3h12.5l52.6-0.5l14.2-2.7l13.5-4.4l8.4-3.8l8.6-3l4.4-1.9h0l5.9-2.6l3.5-2.2
	l3.2-2l11.2-8l1.4-1l1.4-2.3l4-6.7l1.6-11.9l0.1-7.8L406.5,59.4z M343.1,84.9l-1.5,5.8v0l-0.7,2.9l-3.6,7.3l-2.8,4.5l-3.8,5.3
	l-3.2,4.1l-6.7,3.5l-7.7,2.2l-11.8,2l-13.5-1.1l-3.9-1.1h0l-5.7-1.6l-0.3-0.2l-1-0.8l-5.3-3.8l-5.5-4.3l-4.9-5.1l-3.9-6.4l-3.3-8.4
	l-1.8-12.5l0.7-10.1l2.3-5l5.5-7.8l12.3-7l7-2.8l4.6-1.5l6.1-0.3l8.6,0.2l12.4,2.3l8.9,3.2l4.9,2.6l4.4,3.4l5.8,7.5l3.5,7.7l3.2,7.7
	l1,6.6L343.1,84.9z"/>
<g>
	<path class="st2" d="M102.3,353.1L99,352l-9.9-0.7l-10.5,6.6l0.9,12.3l3.2,3.9l4.3,3.1l11.9,2.5l7-5.1l2.4-3.5l1.3-2.5l0.5-5.4
		l-2.5-5.4L102.3,353.1z M99.7,374.1l-3.7,0.2l-4.3-1.2l-4.5-3.9l-1-3.1l2.2-4.8l5.2-2.8l2.7,0.4l5.1,3.2l3.1,5L99.7,374.1z"/>
	<path class="st2" d="M502.6,349l-3.7-1l-11.3-0.7l-12,5.9l1,11l3.6,3.5l5,2.8l13.6,2.2l8-4.6l2.8-3.1l1.5-2.3l0.5-4.8l-2.8-4.8
		L502.6,349z M499.6,367.7l-4.3,0.2l-4.9-1.1l-5.1-3.5l-1.2-2.8l2.4-4.2l5.9-2.5l3,0.4l5.9,2.9l3.5,4.5L499.6,367.7z"/>
	<path class="st2" d="M508,319.2l-3.4,0.5l-6.9,4.1l-1.2,5.5l0.3,2.8l0.5,1.8l2.1,2.8l3.5,1.5l4.6-0.2l2.1-0.9l5.2-4.1l2.3-7.8
		l-5.7-5.4L508,319.2z M509.5,331.4l-1.5,1l-3.9,0.7l-3.7-1l-0.7-5.3l1.7-1.8l2.6-1.3l3.9-0.2l1.8,1l1,3.2L509.5,331.4z"/>
	<path class="st2" d="M18.6,159.6l-4-0.5l-4.3,0.6l-8.6,5.1l-1.5,6.9l0.4,3.4l0.6,2.2l2.6,3.4l4.3,1.8l5.7-0.3l2.6-1.1l6.4-5
		l2.9-9.7L18.6,159.6z M16.4,174.2l-1.9,1.2l-4.9,0.9l-4.6-1.2l-0.9-6.7l2.2-2.2l3.3-1.6l4.8-0.2l2.3,1.2l1.2,4L16.4,174.2z"/>
	<path class="st2" d="M557.2,228.7l1.6-33l-9.7-16.3l-36.8-15.6l-2.1-7.1l2.6-26.3l-10.1-9.9l-13-6l-11.3-16.8l-12.9-3.9l-23.2,12.3
		l-16.2-15.1L418,92h-0.1l1.3-2.3l1.4-7.2l0.9-9.5l-1.4-10.5l1.4-2.5l13.7-24.4l-13.7,3.5l-11.3,2.9l-4-2.4l-5.3-4.3l3-20.7
		l-19,11.3l-4.4-1.3L374,0l-13.6,19.3l-20.7-2.7l-46.5,0.3l-30,2.7l-25.8,4.3l-26.2,7.7l-27.4,16.1l-0.3,0.2l-12.7,14.7l-6.4,14.7
		l-0.1,0.3l0.1,8.2l2.7,6.8l8.1,13.2l2.1,1.7l0,0l-8.6,7.6l-36.9-18.7l-17.6,1l-35.7,28l-31.6-0.1l-9.5,5.9l-3.5,4.9l-1.3,4.7
		l-0.4,6.5l10.5,31.3l1.4,7.8l-3.3,6.5l-15.9,23.3l6.3,20.2l35.1,27.5l-9.1,52.3l6.1,14.4l99.9,12.6l38.2,33h17.4l37.8-23.2h11
		l20.2,20.4l18.2-3.7l21.9-26.2l29.2-8.9l60.7,29.6l23.2-0.5l19.8-18.9l17.2-26.5l16.5-12.4l67.4-14.6l5-21.7L557.2,228.7z
		 M179,83.8l3.9-11.2l5.7-8.3l9.7-7.8l11-10.1l19.2-8.3l11.6-3.4l12.9-1.7l10.5-1.3l33-3.1l23.6-0.5l23,0.9l11.1,3.1l8.1,1.9
		l14.7,4.5l17.1,7.4l12.2,13.3l3.8,8.2l-0.1,7.8l-1.6,11.9l-4,6.7l-1.4,2.3l-1.4,1l-11.2,8l-3.2,2l-3.5,2.2l-5.9,2.6h0l-4.4,1.9
		l-8.6,3l-8.4,3.8l-13.5,4.4l-14.2,2.7l-52.6,0.5h-12.5l-3-0.3h0l-0.2,0h-0.1l-0.1,0l-0.4,0l-0.3,0l-9.3-0.8l-12.6-1.8l-6.9-2
		l-10.5-4.1l-10.4-3.5l-17.1-9.7l-2.8-1.8h0l-5.3-3.4l-1.2-0.8l-4.6-7.7V83.8z M555.4,283.5l-68.8,15.3l-0.5,0.1L465,318.9
		l-16.8,15.9v0l-13.8,17l-21.2,0.8l-58.5-34.4l-30.8,14.9l-9.3,10.2l-16.7,18.3h0l0,0l-7.7-1.1l0,0l-18.9-19.2l-20.1,0.5l-36.5,22.6
		l-9.2,1.6L156.9,326l-0.3-0.3l-0.2-0.1l-10.3-0.5l-73.6-3.5l-5.3-8l9.7-46.4L69.2,248l-31.9-24.9l0,0l2-8.8l9.1-12.4l2.8-8l1.7-8
		l-7.8-39.7l1-2.1l1.4-3.1l31.1-3.5l11.4-5.2l25.9-23.4l15.6-2l6.7,3.4l29,14.5l8.5-7.7l6.3-5.8l0,0l0,0l0.4,0.4l17.8,9.7l11.4,6.5
		l13.8,5.1l41.3,7.4l37.4-1.1l30.7-1.9l19.7-4.3l23.5-8.8l10.7-5.1l7.9-4l0,0h0l0.3-0.1l0,0l0.1,0l3.9-2l10.3-9.5l1.5-2.8l0,0h0
		l8.4-0.6l3.6-0.3l0,0l21.3,15.7l22.1-9.4l0,0l2.1,3.3l9.8,15l17,5.5l5,3.4v0l0,0l-2.1,29.5l0.3,0.8l3.3,9.1l40.4,27.7v0l0,0l4.7,47
		l9.1,28.6L555.4,283.5z"/>
	<polygon class="st2" points="257.4,98.3 261.3,104.7 266.2,109.8 271.7,114.2 277,117.9 278,118.7 278.3,118.9 284,120.4 
		284,120.4 287.8,121.5 301.4,122.7 313.2,120.6 320.9,118.5 327.6,114.9 330.9,110.8 334.6,105.5 337.4,101 341,93.7 341.7,90.8 
		341.7,90.8 343.1,84.9 343.3,84.3 342.3,77.7 339.1,69.9 335.6,62.2 329.9,54.7 325.5,51.3 320.6,48.7 311.7,45.5 299.3,43.2 
		290.7,43 284.6,43.4 280,44.8 273,47.7 260.7,54.7 255.2,62.4 252.9,67.4 252.3,77.4 254.1,90 	"/>
	<path class="st2" d="M214.6,231.4l8-73.3h-56.5l7.2,76.2L214.6,231.4z M210.3,173l-5,44.6l-19.6,2.9l-6.5-45.2L210.3,173z"/>
	<polygon class="st2" points="269.8,223.2 246.5,220.6 251.1,158.2 237,158.2 235.6,235.4 269.9,232.6 	"/>
	<polygon class="st2" points="331.9,234.4 329.1,160.1 319.1,159.4 314,194.3 297.2,193.6 291.4,158.8 280.6,158.1 284.8,232.9 
		292.8,232.6 295.5,208 317.6,205.9 325.4,234.3 	"/>
	<path class="st2" d="M352.1,234.3l41.3-2.9l8-73.3h-56.6L352.1,234.3z M389.1,173l-5,44.6l-19.7,2.9l-6.5-45.2L389.1,173z"/>
	<polygon class="st2" points="199.3,248.4 196.8,281.1 179.6,246.2 166.1,246.2 171.3,300.5 176,300.5 178.1,269.3 198.3,300 
		207.2,299.4 204.1,247.8 	"/>
	<polygon class="st2" points="214.3,255.5 217.2,258.5 233,251.6 222.9,246.6 	"/>
	<path class="st2" d="M238.2,246.2l3.5,52.8l3.5,0.5l3.5-14l15-1.5l5.5,16.5l4.6-1l-2.6-51.8L238.2,246.2z M248.7,275.4l3.8-17.8
		l5.1-0.5l4.6,18.8L248.7,275.4z"/>
	<polygon class="st2" points="296.3,276.3 306.9,278 302.8,290 290.5,291.1 288.2,257.2 312.8,253.6 312.8,246.9 274.9,246.1 
		280.5,300.6 311.6,299.4 316.1,270.5 295.4,270.5 	"/>
	<polygon class="st2" points="348.4,246.5 346.9,289.1 337.1,287.4 331.4,246.2 324.9,246.2 327,298.9 359.1,300.4 356.1,246.5 	"/>
	<path class="st2" d="M365.8,246.2l3.4,52.8l3.5,0.5l3.5-14l15.1-1.5l5.6,16.5l4.5-1l-2.6-51.8L365.8,246.2z M376.2,275.4l3.9-17.8
		l5.1-0.5l4.6,18.8L376.2,275.4z"/>
</g>
</svg>
