<svg id="Camada_1" data-name="Camada 1" xmlns="http://www.w3.org/2000/svg" viewBox="0 0 190.34 104.83"><defs><style>.cls-1{fill:#d8d9dd;}.cls-1,.cls-2,.cls-3,.cls-6{fill-rule:evenodd;}.cls-2,.cls-5{fill:#9a999e;}.cls-3,.cls-4{fill:#305479;}.cls-6,.cls-7{fill:#618dc0;}</style></defs><title>Prancheta 2</title><g id="Logo_Olho_dagua" data-name="Logo Olho dagua"><path id="_Caminho_" data-name="&lt;Caminho&gt;" class="cls-1" d="M104,52.14a42.3,42.3,0,1,1-84,7c0-.85,0-1.69.08-2.52A48.07,48.07,0,0,0,44.64,65C76.45,66.88,76.43,45.34,104,52.14Z"/><path id="_Caminho_composto_" data-name="&lt;Caminho composto&gt;" class="cls-2" d="M119.33,33.12a5.76,5.76,0,0,1,1.8-4.48,7.19,7.19,0,0,1,5-1.64,8.71,8.71,0,0,1,2.8.43,6.26,6.26,0,0,1,2.17,1.22,5.33,5.33,0,0,1,1.39,1.92,6.43,6.43,0,0,1,.47,2.55V71.81a5.75,5.75,0,0,1-1.79,4.48,7.22,7.22,0,0,1-5,1.64,8.63,8.63,0,0,1-2.81-.43,6.28,6.28,0,0,1-2.15-1.23,5.33,5.33,0,0,1-1.39-1.92,6.37,6.37,0,0,1-.49-2.54V33.12Zm8.89,0a2.33,2.33,0,0,0-.5-1.55,2.36,2.36,0,0,0-3.1,0,2.28,2.28,0,0,0-.52,1.55V71.81a2.29,2.29,0,0,0,.5,1.54,1.94,1.94,0,0,0,1.56.59,2,2,0,0,0,1.55-.59,2.24,2.24,0,0,0,.51-1.54V33.12Zm11.33,44.23a.65.65,0,0,1-.53-.21.8.8,0,0,1-.18-.53V28.32a.81.81,0,0,1,.18-.53.65.65,0,0,1,.53-.21h2a2.18,2.18,0,0,1,1.49.5,1.66,1.66,0,0,1,.57,1.32v44H148a1.66,1.66,0,0,1,1.32.57,2.19,2.19,0,0,1,.5,1.49v1.21a.65.65,0,0,1-.21.53.8.8,0,0,1-.53.18Zm17.8-49.78a2.19,2.19,0,0,1,1.49.5,1.66,1.66,0,0,1,.57,1.32V50h4.12V29.39a1.66,1.66,0,0,1,.57-1.32,2.19,2.19,0,0,1,1.49-.5h2a.65.65,0,0,1,.53.21.8.8,0,0,1,.18.53V76.61a.8.8,0,0,1-.18.53.65.65,0,0,1-.53.21h-2a1.94,1.94,0,0,1-1.54-.59,2.19,2.19,0,0,1-.52-1.51V54h-4.12V75.25a2.19,2.19,0,0,1-.51,1.51,2,2,0,0,1-1.55.59h-2a.65.65,0,0,1-.53-.21.8.8,0,0,1-.18-.53V28.32a.8.8,0,0,1,.18-.53.65.65,0,0,1,.53-.21Zm16.81,5.55a5.76,5.76,0,0,1,1.8-4.48A7.19,7.19,0,0,1,181,27a8.72,8.72,0,0,1,2.8.43A6.26,6.26,0,0,1,186,28.65a5.33,5.33,0,0,1,1.39,1.92,6.43,6.43,0,0,1,.47,2.55V71.81A5.75,5.75,0,0,1,186,76.29a7.22,7.22,0,0,1-5,1.64,8.63,8.63,0,0,1-2.81-.43A6.28,6.28,0,0,1,176,76.26a5.33,5.33,0,0,1-1.39-1.92,6.37,6.37,0,0,1-.49-2.54V33.12Zm8.89,0a2.33,2.33,0,0,0-.5-1.55,2.36,2.36,0,0,0-3.1,0,2.28,2.28,0,0,0-.52,1.55V71.81a2.29,2.29,0,0,0,.5,1.54,1.94,1.94,0,0,0,1.56.59,2,2,0,0,0,1.55-.59,2.24,2.24,0,0,0,.51-1.54Z"/><g id="_Grupo_" data-name="&lt;Grupo&gt;"><path id="_Caminho_composto_2" data-name="&lt;Caminho composto&gt;" class="cls-3" d="M180.45,93.29h5l0,.1,1,2.13h3.19l-6.7-15-6.68,15h3.18l1-2.12,0-.11Zm1.21-2.6L183,87.62l1.3,3.06Z"/><path id="_Caminho_2" data-name="&lt;Caminho&gt;" class="cls-3" d="M173.56,80.82v8.88a2.82,2.82,0,0,1-.88,2.08,2.94,2.94,0,0,1-4.17,0,2.84,2.84,0,0,1-.87-2.08V80.82h-3V89.7a5.93,5.93,0,1,0,11.87,0V80.82Z"/><path id="_Caminho_3" data-name="&lt;Caminho&gt;" class="cls-3" d="M155.47,80.74a7.14,7.14,0,0,0-5.25,2.19,7.44,7.44,0,1,0,12.7,5.27,7.06,7.06,0,0,0-.14-1.48h-7.29v3h4.21a4.52,4.52,0,0,1-1.61,2.15,4.45,4.45,0,0,1-5.75-.48,4.47,4.47,0,0,1,0-6.32,4.27,4.27,0,0,1,3.15-1.32A4.32,4.32,0,0,1,158.65,85l2.1-2.1a7.89,7.89,0,0,0-2.38-1.59,7.15,7.15,0,0,0-2.89-.58Z"/><path id="_Caminho_composto_3" data-name="&lt;Caminho composto&gt;" class="cls-3" d="M139.62,93.29h5l1,2.23h3.18l-6.7-15-6.68,15h3.17c.34-.75.68-1.49,1-2.24Zm1.21-2.61,1.31-3.06,1.3,3.06Z"/><polygon id="_Caminho_4" data-name="&lt;Caminho&gt;" class="cls-3" points="143.12 76.72 140.77 80.06 141.83 80.86 144.83 78.08 143.12 76.72"/><polygon id="_Caminho_5" data-name="&lt;Caminho&gt;" class="cls-3" points="134.5 80.82 134.87 85.59 137.08 85.59 137.46 80.82 134.5 80.82"/><polygon id="_Caminho_6" data-name="&lt;Caminho&gt;" class="cls-3" points="120.81 80.54 120.81 95.56 123.76 95.56 123.76 87.4 132.59 95.83 132.59 80.82 129.64 80.82 129.64 88.96 120.81 80.54"/></g><rect id="_Caminho_7" data-name="&lt;Caminho&gt;" class="cls-4" x="18.14" y="79.53" width="12.76" height="2.41" transform="translate(-38.92 25.1) rotate(-31.86)"/><path id="_Caminho_composto_4" data-name="&lt;Caminho composto&gt;" class="cls-2" d="M10.8,78.5A10.18,10.18,0,1,1,.62,88.68,10.18,10.18,0,0,1,10.8,78.5Zm0,2A8.16,8.16,0,1,0,19,88.68,8.16,8.16,0,0,0,10.8,80.52Z"/><rect id="_Caminho_8" data-name="&lt;Caminho&gt;" class="cls-5" x="85.63" y="19.86" width="12.76" height="2.41" transform="translate(19.42 81.39) rotate(-52.62)"/><rect id="_Caminho_9" data-name="&lt;Caminho&gt;" class="cls-4" x="91.82" y="89.38" width="1.82" height="9.64" transform="translate(-38.91 82.19) rotate(-40.24)"/><path id="_Caminho_composto_5" data-name="&lt;Caminho composto&gt;" class="cls-2" d="M62.26,16.8A42.3,42.3,0,1,1,20,59.1a42.3,42.3,0,0,1,42.3-42.3Zm0,5.29a37,37,0,1,0,37,37A37,37,0,0,0,62.26,22.08Z"/><path id="_Caminho_10" data-name="&lt;Caminho&gt;" class="cls-6" d="M62.26,81.71A22.62,22.62,0,1,0,39.64,59.1,22.66,22.66,0,0,0,62.26,81.71Z"/><path id="_Caminho_11" data-name="&lt;Caminho&gt;" class="cls-3" d="M104,52.14l0,.11q.06.37.11.75l0,.11,0,.27q0,.29.08.59t.07.59l0,.39q0,.37.07.74l0,.27q0,.44.06.89V57q0,.5,0,1v0q0,.53,0,1.07a42.3,42.3,0,0,1-84.6,0c0-.34,0-.67,0-1v-.22h0c0-.22,0-.44,0-.66v0q0-.29,0-.59a47.85,47.85,0,0,0,5.22,3.13,37,37,0,1,0,73.15-8.61A47.86,47.86,0,0,1,104,52.14Z"/><path id="_Caminho_12" data-name="&lt;Caminho&gt;" class="cls-3" d="M84,52.67A22.62,22.62,0,1,1,40.3,64.52c1.4.21,2.84.36,4.34.45C66.2,66.26,73.14,56.79,84,52.67Z"/><path id="_Caminho_13" data-name="&lt;Caminho&gt;" class="cls-6" d="M100.43,19a9,9,0,1,0-9-9A9,9,0,0,0,100.43,19Z"/><circle id="_Caminho_14" data-name="&lt;Caminho&gt;" class="cls-4" cx="97.06" cy="98.92" r="5.11"/><circle id="_Caminho_15" data-name="&lt;Caminho&gt;" class="cls-7" cx="10.8" cy="88.68" r="4.95"/><path id="_Caminho_composto_6" data-name="&lt;Caminho composto&gt;" class="cls-2" d="M62.26,24.39A34.71,34.71,0,1,1,27.56,59.1,34.71,34.71,0,0,1,62.26,24.39Zm0,1A33.73,33.73,0,1,0,96,59.1,33.73,33.73,0,0,0,62.26,25.37Z"/></g></svg>