<?xml version="1.0" encoding="utf-8"?>
<!-- Generator: Adobe Illustrator 20.1.0, SVG Export Plug-In . SVG Version: 6.00 Build 0)  -->
<svg version="1.2" baseProfile="tiny" id="Camada_1"
	 xmlns="http://www.w3.org/2000/svg" xmlns:xlink="http://www.w3.org/1999/xlink" x="0px" y="0px" viewBox="0 0 200 100"
	 overflow="scroll" xml:space="preserve">
<g id="Logo_Olho_dagua">
	<path id="XMLID_41_" fill-rule="evenodd" fill="#D8D9DD" d="M105.9,49.7c0.2,1.5,0.4,3,0.4,4.6c0,15.5-12.5,28-28,28
		c-15.5,0-28-12.5-28-28c0-0.6,0-1.1,0.1-1.7c3.7,2.5,9.1,5.1,16.3,5.6C87.6,59.5,87.6,45.2,105.9,49.7z"/>
	<path id="XMLID_34_" fill-rule="evenodd" fill="#9A999E" d="M116,37.1c0-1.3,0.4-2.2,1.2-3c0.8-0.7,1.9-1.1,3.3-1.1
		c0.7,0,1.3,0.1,1.9,0.3c0.6,0.2,1,0.5,1.4,0.8c0.4,0.4,0.7,0.8,0.9,1.3c0.2,0.5,0.3,1.1,0.3,1.7v25.6c0,1.3-0.4,2.2-1.2,3
		c-0.8,0.7-1.9,1.1-3.3,1.1c-0.7,0-1.3-0.1-1.9-0.3c-0.5-0.2-1-0.5-1.4-0.8c-0.4-0.4-0.7-0.8-0.9-1.3c-0.2-0.5-0.3-1.1-0.3-1.7V37.1
		L116,37.1z M121.9,37.1c0-0.4-0.1-0.8-0.3-1c-0.2-0.3-0.6-0.4-1-0.4c-0.5,0-0.8,0.1-1,0.4c-0.2,0.3-0.3,0.6-0.3,1v25.6
		c0,0.4,0.1,0.8,0.3,1c0.2,0.3,0.6,0.4,1,0.4c0.5,0,0.8-0.1,1-0.4c0.2-0.3,0.3-0.6,0.3-1V37.1L121.9,37.1z M129.4,66.4
		c-0.2,0-0.3,0-0.4-0.1c-0.1-0.1-0.1-0.2-0.1-0.4V34c0-0.1,0-0.3,0.1-0.4c0.1-0.1,0.2-0.1,0.4-0.1h1.3c0.4,0,0.7,0.1,1,0.3
		c0.3,0.2,0.4,0.5,0.4,0.9v29.1h2.9c0.4,0,0.7,0.1,0.9,0.4c0.2,0.3,0.3,0.6,0.3,1v0.8c0,0.2,0,0.3-0.1,0.4c-0.1,0.1-0.2,0.1-0.4,0.1
		H129.4L129.4,66.4z M141.2,33.5c0.4,0,0.7,0.1,1,0.3c0.3,0.2,0.4,0.5,0.4,0.9v13.6h2.7V34.7c0-0.4,0.1-0.7,0.4-0.9
		c0.3-0.2,0.6-0.3,1-0.3h1.3c0.2,0,0.3,0,0.4,0.1c0.1,0.1,0.1,0.2,0.1,0.4v31.9c0,0.1,0,0.3-0.1,0.4c-0.1,0.1-0.2,0.1-0.4,0.1h-1.3
		c-0.5,0-0.8-0.1-1-0.4c-0.2-0.3-0.3-0.6-0.3-1V51h-2.7V65c0,0.4-0.1,0.7-0.3,1c-0.2,0.3-0.6,0.4-1,0.4h-1.3c-0.2,0-0.3,0-0.4-0.1
		c-0.1-0.1-0.1-0.2-0.1-0.4V34c0-0.1,0-0.3,0.1-0.4c0.1-0.1,0.2-0.1,0.4-0.1H141.2L141.2,33.5z M152.3,37.1c0-1.3,0.4-2.2,1.2-3
		c0.8-0.7,1.9-1.1,3.3-1.1c0.7,0,1.3,0.1,1.9,0.3c0.6,0.2,1,0.5,1.4,0.8c0.4,0.4,0.7,0.8,0.9,1.3c0.2,0.5,0.3,1.1,0.3,1.7v25.6
		c0,1.3-0.4,2.2-1.2,3c-0.8,0.7-1.9,1.1-3.3,1.1c-0.7,0-1.3-0.1-1.9-0.3c-0.5-0.2-1-0.5-1.4-0.8c-0.4-0.4-0.7-0.8-0.9-1.3
		c-0.2-0.5-0.3-1.1-0.3-1.7V37.1L152.3,37.1z M158.2,37.1c0-0.4-0.1-0.8-0.3-1c-0.2-0.3-0.6-0.4-1-0.4c-0.5,0-0.8,0.1-1,0.4
		c-0.2,0.3-0.3,0.6-0.3,1v25.6c0,0.4,0.1,0.8,0.3,1c0.2,0.3,0.6,0.4,1,0.4c0.5,0,0.8-0.1,1-0.4c0.2-0.3,0.3-0.6,0.3-1V37.1z"/>
	<g id="XMLID_22_">
		<path id="XMLID_31_" fill-rule="evenodd" fill="#305479" d="M156.4,77h3.3l0,0.1l0.6,1.4h0.3h0.1h1.3h0.4l-4.4-9.9l-4.4,9.9h0.4
			h1.3h0.1h0.3L156.4,77L156.4,77L156.4,77z M157.2,75.2l0.9-2l0.9,2H157.2z"/>
		<path id="XMLID_30_" fill-rule="evenodd" fill="#305479" d="M151.9,68.7v3.9v1.8v0.2c0,0.5-0.2,1-0.6,1.4
			c-0.4,0.4-0.8,0.6-1.4,0.6c-0.5,0-1-0.2-1.4-0.6c-0.4-0.4-0.6-0.8-0.6-1.4v-0.2v-1.8v-3.9h-2v3.9v2c0,1.1,0.4,2,1.2,2.8
			c0.8,0.8,1.7,1.2,2.8,1.2c1.1,0,2-0.4,2.8-1.2c0.8-0.8,1.1-1.7,1.1-2.8v-2v-3.9H151.9z"/>
		<path id="XMLID_29_" fill-rule="evenodd" fill="#305479" d="M139.9,68.7c-1.4,0-2.5,0.5-3.5,1.5c-1,1-1.4,2.1-1.4,3.5
			c0,1.4,0.5,2.5,1.4,3.5c1,1,2.1,1.4,3.5,1.4c1.4,0,2.5-0.5,3.5-1.4c1-1,1.4-2.1,1.4-3.5c0-0.3,0-0.7-0.1-1h-0.9h-1.1h-2.8v2h2.8
			c-0.2,0.6-0.6,1-1.1,1.4c-0.5,0.4-1.1,0.6-1.7,0.6c-0.8,0-1.5-0.3-2.1-0.9c-0.6-0.6-0.9-1.3-0.9-2.1c0-0.8,0.3-1.5,0.9-2.1
			c0.6-0.6,1.3-0.9,2.1-0.9c0.8,0,1.5,0.3,2.1,0.9l1.4-1.4c-0.5-0.4-1-0.8-1.6-1.1C141.2,68.8,140.6,68.7,139.9,68.7L139.9,68.7z"/>
		<path id="XMLID_26_" fill-rule="evenodd" fill="#305479" d="M129.4,77h3.3c0.2,0.5,0.4,1,0.7,1.5h2.1l-4.4-9.9l-4.4,9.9h2.1
			C129,77.9,129.2,77.4,129.4,77L129.4,77L129.4,77z M130.2,75.2l0.9-2l0.9,2H130.2z"/>
		<polygon id="XMLID_25_" fill-rule="evenodd" fill="#305479" points="131.7,66 130.2,68.2 130.9,68.7 132.9,66.9 		"/>
		<polygon id="XMLID_24_" fill-rule="evenodd" fill="#305479" points="126,68.7 126.3,71.9 127.7,71.9 128,68.7 		"/>
		<polygon id="XMLID_23_" fill-rule="evenodd" fill="#305479" points="117,68.5 117,78.5 118.9,78.5 118.9,73.1 124.8,78.6 
			124.8,68.7 122.8,68.7 122.8,74.1 		"/>
	</g>
	
		<rect id="XMLID_21_" x="49.1" y="67.9" transform="matrix(0.8494 -0.5278 0.5278 0.8494 -28.2105 38.4628)" fill-rule="evenodd" fill="#305479" width="8.4" height="1.6"/>
	<path id="XMLID_18_" fill-rule="evenodd" fill="#9A999E" d="M44.2,67.2c3.7,0,6.7,3,6.7,6.7c0,3.7-3,6.7-6.7,6.7
		c-3.7,0-6.7-3-6.7-6.7C37.5,70.2,40.5,67.2,44.2,67.2L44.2,67.2z M44.2,68.5c-3,0-5.4,2.4-5.4,5.4c0,3,2.4,5.4,5.4,5.4
		c3,0,5.4-2.4,5.4-5.4C49.6,70.9,47.2,68.5,44.2,68.5z"/>
	
		<rect id="XMLID_17_" x="93.7" y="28.4" transform="matrix(0.6071 -0.7946 0.7946 0.6071 15.2968 89.2785)" fill-rule="evenodd" fill="#9A999E" width="8.4" height="1.6"/>
	
		<rect id="XMLID_16_" x="97.8" y="74.4" transform="matrix(0.7634 -0.6459 0.6459 0.7634 -26.8156 81.9157)" fill-rule="evenodd" fill="#305479" width="1.2" height="6.4"/>
	<path id="XMLID_13_" fill-rule="evenodd" fill="#9A999E" d="M78.2,26.3c15.5,0,28,12.5,28,28c0,15.5-12.5,28-28,28
		c-15.5,0-28-12.5-28-28C50.3,38.9,62.8,26.3,78.2,26.3L78.2,26.3z M78.2,29.8c-13.5,0-24.5,11-24.5,24.5c0,13.5,11,24.5,24.5,24.5
		c13.5,0,24.5-11,24.5-24.5C102.7,40.8,91.8,29.8,78.2,29.8z"/>
	<path id="XMLID_12_" fill-rule="evenodd" fill="#618DC0" d="M78.2,69.3c8.2,0,15-6.7,15-15c0-8.2-6.7-15-15-15s-15,6.7-15,15
		C63.3,62.6,70,69.3,78.2,69.3z"/>
	<path id="XMLID_11_" fill-rule="evenodd" fill="#305479" d="M105.9,49.7L105.9,49.7c0,0.2,0.1,0.4,0.1,0.6l0,0.1l0,0.2
		c0,0.1,0,0.3,0.1,0.4c0,0.1,0,0.3,0,0.4l0,0.3c0,0.2,0,0.3,0,0.5l0,0.2c0,0.2,0,0.4,0,0.6l0,0.1c0,0.2,0,0.4,0,0.7l0,0
		c0,0.2,0,0.5,0,0.7c0,15.5-12.5,28-28,28c-15.5,0-28-12.5-28-28c0-0.2,0-0.4,0-0.7l0-0.1l0,0v0c0-0.1,0-0.3,0-0.4l0,0
		c0-0.1,0-0.3,0-0.4c1,0.7,2.2,1.4,3.5,2.1C54,68.1,64.9,78.8,78.2,78.8c13.5,0,24.5-11,24.5-24.5c0-1.8-0.2-3.6-0.6-5.3
		C103.3,49.2,104.5,49.4,105.9,49.7z"/>
	<path id="XMLID_10_" fill-rule="evenodd" fill="#305479" d="M92.6,50.1c0.4,1.3,0.6,2.8,0.6,4.3c0,8.3-6.7,15-15,15
		c-7,0-12.9-4.8-14.5-11.4c0.9,0.1,1.9,0.2,2.9,0.3C80.9,59.1,85.4,52.8,92.6,50.1z"/>
	<path id="XMLID_9_" fill-rule="evenodd" fill="#618DC0" d="M103.5,27.8c3.3,0,5.9-2.7,5.9-5.9s-2.7-5.9-5.9-5.9
		c-3.3,0-5.9,2.7-5.9,5.9S100.2,27.8,103.5,27.8z"/>
	<circle id="XMLID_8_" fill-rule="evenodd" fill="#305479" cx="101.3" cy="80.7" r="3.4"/>
	<circle id="XMLID_7_" fill-rule="evenodd" fill="#618DC0" cx="44.2" cy="73.9" r="3.3"/>
	<path id="XMLID_4_" fill-rule="evenodd" fill="#9A999E" d="M78.2,31.4c12.7,0,23,10.3,23,23c0,12.7-10.3,23-23,23
		c-12.7,0-23-10.3-23-23C55.3,41.7,65.6,31.4,78.2,31.4L78.2,31.4z M78.2,32c-12.3,0-22.3,10-22.3,22.3c0,12.3,10,22.3,22.3,22.3
		c12.3,0,22.3-10,22.3-22.3C100.6,42,90.6,32,78.2,32z"/>
</g>
</svg>
