<?xml version="1.0" encoding="utf-8"?>
<!-- Generator: Adobe Illustrator 20.1.0, SVG Export Plug-In . SVG Version: 6.00 Build 0)  -->
<svg version="1.2" baseProfile="tiny" id="Camada_1"
	 xmlns="http://www.w3.org/2000/svg" xmlns:xlink="http://www.w3.org/1999/xlink" x="0px" y="0px" viewBox="0 0 3118.1 850.4"
	 overflow="scroll" xml:space="preserve">
<g>
	<g id="XMLID_221_">
		<g id="XMLID_222_">
			<path id="XMLID_275_" fill="#9D9D9C" d="M1673.7,272.1h-0.7l-46.3-68v103.1h-14.2V179.8h14.6l46.3,69.5l46.3-69.5h14.6v127.4
				h-14.6V204.1L1673.7,272.1z"/>
			<path id="XMLID_274_" fill="#9D9D9C" d="M1779,179.5v127.4h-14.6V179.5H1779z"/>
			<path id="XMLID_273_" fill="#9D9D9C" d="M1902.6,179.5h14.2v127.4h-11.6l-82.2-104.6v104.6h-13.8V179.5h13.4l80.3,102v-102
				H1902.6z"/>
			<path id="XMLID_272_" fill="#9D9D9C" d="M1961.3,179.5v127.4h-14.6V179.5H1961.3z"/>
			<path id="XMLID_271_" fill="#9D9D9C" d="M2037.1,236.2c28.4,6.3,41.5,16.4,41.5,36.2c0,22-18.3,36.2-43.3,36.2
				c-20.2,0-36.6-6.7-51.9-20.5l9-10.5c13.4,12,26.1,17.9,43.7,17.9c17.2,0,28.4-9,28.4-21.7c0-12-6.3-18.7-33.2-24.3
				c-29.1-6.3-42.9-15.7-42.9-37c0-20.5,17.6-35.1,41.8-35.1c18.7,0,31.7,5.2,44.8,15.7l-8.2,11.2c-12-9.7-23.5-13.8-36.6-13.8
				c-16.4,0-27.3,9-27.3,20.9C2002.4,223.5,2009.1,230.2,2037.1,236.2z"/>
			<path id="XMLID_270_" fill="#9D9D9C" d="M2145.8,307.2h-14.6V192.9h-42.9v-13.4h100.1v13.4h-42.9v114.3H2145.8z"/>
			<path id="XMLID_269_" fill="#9D9D9C" d="M2300.4,192.5h-77.7v43.3h69.5v13.1h-69.5v44.8h78.8v13.1h-93V179.5h92.2v13.1H2300.4z
				 M2244.4,168.2l17.2-26.5l14.6,6.7l-20.5,19.8L2244.4,168.2L2244.4,168.2z"/>
			<path id="XMLID_268_" fill="#9D9D9C" d="M2410.6,307.2l-37-49.7h-36.2v49.7h-14.2V179.8h54.9c28,0,45.9,14.9,45.9,38.1
				c0,21.3-14.6,33.6-34.7,37.3l39.2,51.9H2410.6z M2376.6,192.9h-39.2v51.5h39.2c19,0,32.9-9.7,32.9-26.5
				C2409.4,202.2,2397.1,192.9,2376.6,192.9z"/>
			<path id="XMLID_267_" fill="#9D9D9C" d="M2462.9,179.5v127.4h-14.6V179.5H2462.9z"/>
			<path id="XMLID_266_" fill="#9D9D9C" d="M2552.1,309c-38.8,0-64.6-30.3-64.6-65.7s26.5-66.1,65-66.1c38.8,0,64.6,30.3,64.6,65.7
				S2591,309,2552.1,309z M2552.1,190.7c-29.1,0-50,23.2-50,52.3c0,29.1,21.3,52.7,50,52.7c29.1,0,50-23.2,50-52.3
				C2602.5,214.2,2581.2,190.7,2552.1,190.7z"/>
			<path id="XMLID_265_" fill="#9D9D9C" d="M2731.8,307.2h-44.1V179.8h44.1c40,0,67.6,27.6,67.6,63.5
				C2799.7,279.2,2772.1,307.2,2731.8,307.2z M2731.8,192.9h-29.9v100.8h29.9c32.1,0,52.7-22,52.7-50
				C2784.8,214.9,2764.2,192.9,2731.8,192.9z"/>
			<path id="XMLID_264_" fill="#9D9D9C" d="M2933.1,307.2h-15.3l-14.9-33.6h-69.5l-14.9,33.6h-14.6l57.9-128.5h13.4L2933.1,307.2z
				 M2868.1,195.5l-29.1,65h57.9L2868.1,195.5z"/>
			<path id="XMLID_263_" fill="#9D9D9C" d="M870.4,428.6L870.4,428.6c0-37.3,28.8-66.5,67.2-66.5c26.1,0,42.9,10.8,54.2,26.5
				l-26.5,20.5c-7.5-9-15.7-14.9-28-14.9c-17.9,0-30.3,14.9-30.3,33.6v0.4c0,19,12.7,34,30.3,34c13.4,0,21.3-6.3,28.8-15.3l26.5,19
				c-12,16.4-28.4,28.8-56.4,28.8C899.5,494.7,870.4,466.7,870.4,428.6z"/>
			<path id="XMLID_262_" fill="#9D9D9C" d="M1001.1,364.7h35.5V492h-35.5V364.7z"/>
			<path id="XMLID_261_" fill="#9D9D9C" d="M1052.3,364.7h102.3v29.9H1087V414h61.2v28H1087v20.2h68.7V492h-103.5V364.7z
				 M1090,326.2h28l23.2,29.9h-22l-15.3-11.2l-15.3,11.2h-21.7L1090,326.2z"/>
			<path id="XMLID_260_" fill="#9D9D9C" d="M1166.5,364.7h32.9l52.3,67.2v-67.2h35.1V492h-31l-54.5-69.8V492h-35.1V364.7H1166.5z"/>
			<path id="XMLID_259_" fill="#9D9D9C" d="M1297.6,428.6L1297.6,428.6c0-37.3,28.8-66.5,67.2-66.5c26.1,0,42.9,10.8,54.2,26.5
				l-26.5,20.5c-7.5-9-15.7-14.9-28-14.9c-17.9,0-30.3,14.9-30.3,33.6v0.4c0,19,12.7,34,30.3,34c13.4,0,21.3-6.3,28.8-15.3l26.5,19
				c-12,16.4-28.4,28.8-56.4,28.8C1327.1,494.7,1297.6,466.7,1297.6,428.6z"/>
			<path id="XMLID_258_" fill="#9D9D9C" d="M1428.3,364.7h35.5V492h-35.5V364.7z"/>
			<path id="XMLID_257_" fill="#9D9D9C" d="M1523.9,363.6h34l54.2,128.5h-37.7l-9.3-22.8h-49.3l-9,22.8h-37L1523.9,363.6z
				 M1554.9,442l-14.2-36.2l-14.6,36.2H1554.9z"/>
			<path id="XMLID_256_" fill="#9D9D9C" d="M1609.5,508.9c12.3-1.5,18.7-7.1,18.3-17.2h-14.2v-35.5h35.9v29.1
				c0,26.9-14.6,36.2-37.3,37L1609.5,508.9z"/>
			<path id="XMLID_255_" fill="#9D9D9C" d="M1736.1,395.7H1698v-31h111.3v31h-38.1V492h-35.5v-96.4H1736.1z"/>
			<path id="XMLID_254_" fill="#9D9D9C" d="M1817.5,364.7h102.3v29.9h-67.6V414h61.6v28h-61.2v20.2h68.3V492h-103.5L1817.5,364.7
				L1817.5,364.7z"/>
			<path id="XMLID_253_" fill="#9D9D9C" d="M1926.6,428.6L1926.6,428.6c0-37.3,28.8-66.5,67.2-66.5c26.1,0,42.9,10.8,54.2,26.5
				l-26.5,20.5c-7.5-9-15.7-14.9-28-14.9c-17.9,0-30.3,14.9-30.3,33.6v0.4c0,19,12.7,34,30.3,34c13.4,0,21.3-6.3,28.8-15.3l26.5,19
				c-12,16.4-28.4,28.8-56.4,28.8C1955.7,494.7,1926.6,466.7,1926.6,428.6z"/>
			<path id="XMLID_252_" fill="#9D9D9C" d="M2056.5,364.7h32.9l52.3,67.2v-67.2h35.1V492h-31l-54.5-69.8V492h-35.1V364.7H2056.5z"/>
			<path id="XMLID_251_" fill="#9D9D9C" d="M2187.6,428.6L2187.6,428.6c0-37,29.5-66.5,68.7-66.5c39.2,0,68.3,29.1,68.3,65.7v0.4
				c0,36.6-29.5,66.1-68.7,66.1C2216.7,494.3,2187.6,465.2,2187.6,428.6z M2288.8,428.6L2288.8,428.6c0-18.7-13.4-34.7-32.9-34.7
				c-19.4,0-32.1,15.7-32.1,34v0.4c0,18.3,13.4,34.4,32.5,34.4C2275.7,462.9,2288.8,447.2,2288.8,428.6z"/>
			<path id="XMLID_250_" fill="#9D9D9C" d="M2335.9,364.7h35.5v96.4h61.6v31h-97.1V364.7z"/>
			<path id="XMLID_249_" fill="#9D9D9C" d="M2429.2,428.6L2429.2,428.6c0-37,29.5-66.5,68.7-66.5c39.2,0,68.3,29.1,68.3,65.7v0.4
				c0,36.6-29.5,66.1-68.7,66.1C2458.4,494.7,2429.2,465.2,2429.2,428.6z M2530.5,428.6L2530.5,428.6c0-18.7-13.4-34.7-32.9-34.7
				c-19.4,0-32.1,15.7-32.1,34v0.4c0,18.3,13.4,34.4,32.5,34.4C2517.4,462.9,2530.5,447.2,2530.5,428.6z"/>
			<path id="XMLID_248_" fill="#9D9D9C" d="M2573,428.6L2573,428.6c0-37.3,29.1-66.5,68.7-66.5c22.4,0,38.1,7.1,51.5,18.7l-20.9,25
				c-9-7.8-18.3-12-30.6-12c-18.3,0-32.5,15.3-32.5,35.1v0.4c0,20.5,14.2,35.1,34.7,35.1c8.6,0,14.9-1.9,20.5-5.2v-15.3h-25v-25.8
				h58.6v57.5c-13.4,11.2-32.1,19.8-55.3,19.8C2602.9,494.7,2573,467.4,2573,428.6z"/>
			<path id="XMLID_247_" fill="#9D9D9C" d="M2710.8,364.7h35.5V492h-35.5V364.7z"/>
			<path id="XMLID_246_" fill="#9D9D9C" d="M2806.4,363.6h34l54.2,128.5h-37.7l-9.3-22.8h-49.3l-9,22.8h-37L2806.4,363.6z
				 M2837.4,442l-14.2-36.2l-14.6,36.2H2837.4z"/>
			<path id="XMLID_245_" fill="#9D9D9C" d="M2892,508.9c12.3-1.5,18.7-7.1,18.3-17.2h-14.2v-35.5h35.9v29.1
				c0,26.9-14.6,36.2-37.3,37L2892,508.9z"/>
			<path id="XMLID_244_" fill="#9D9D9C" d="M183.9,549.6h35.5v127.4h-35.5V549.6z"/>
			<path id="XMLID_243_" fill="#9D9D9C" d="M235.1,549.6H268l52.3,67.2v-67.2h35.1v127.4h-31l-54.5-69.8v69.8h-35.1V549.6H235.1z"/>
			<path id="XMLID_242_" fill="#9D9D9C" d="M366.6,613.8L366.6,613.8c0-37,29.5-66.5,68.7-66.5s68.3,29.1,68.3,65.7v0.4
				c0,36.6-29.5,66.1-68.7,66.1S366.6,650.4,366.6,613.8z M467.8,613.8L467.8,613.8c0-18.7-13.4-34.7-32.9-34.7
				c-19.4,0-32.1,15.7-32.1,34v0.4c0,18.3,13.4,34.4,32.5,34.4C454.7,647.8,467.8,632.1,467.8,613.8z"/>
			<path id="XMLID_241_" fill="#9D9D9C" d="M496.5,549.6h39.2l28.8,80.7l28.8-80.7h38.8L580.6,678h-32.9L496.5,549.6z"/>
			<path id="XMLID_240_" fill="#9D9D9C" d="M663.5,548.8h34l54.2,128.5h-37.7l-9.3-22.8h-49.3l-9,22.8h-37L663.5,548.8z
				 M694.5,626.9l-14.2-36.2l-14.6,36.2H694.5z"/>
			<path id="XMLID_239_" fill="#9D9D9C" d="M787.5,697.1l14.2-19.4c-28.4-7.1-49.3-31.7-49.3-63.9v-0.4c0-37,28.8-66.1,67.2-66.1
				c26.1,0,42.9,10.8,54.2,26.5l-26.5,20.5c-7.5-9-15.7-14.9-28-14.9c-17.9,0-30.3,14.9-30.3,33.6v0.4c0,19,12.7,34,30.3,34
				c13.4,0,21.3-6.3,28.8-15.3l26.5,19c-10.8,14.9-25.4,26.5-49.7,28.4l-10.1,29.1L787.5,697.1z"/>
			<path id="XMLID_238_" fill="#9D9D9C" d="M878.2,613.8L878.2,613.8c0-37,29.5-66.5,68.7-66.5c39.2,0,68.3,29.1,68.3,65.7v0.4
				c0,36.6-29.5,66.1-68.7,66.1C907.3,679.5,878.2,650.4,878.2,613.8z M908.5,538c3.7-17.9,10.1-27.3,22.4-27.3
				c10.8,0,22.4,7.1,28.4,7.1c5.2,0,7.1-2.6,9.3-8.2l16.4,4.5c-3.7,17.9-10.1,27.3-22.4,27.3c-10.8,0-22.4-7.1-28.4-7.1
				c-5.2,0-7.1,2.6-9.3,8.2L908.5,538z M979.4,613.8L979.4,613.8c0-18.7-13.4-34.7-32.9-34.7s-32.1,15.7-32.1,34v0.4
				c0,18.3,13.4,34.4,32.5,34.4C966.4,647.8,979.4,632.1,979.4,613.8z"/>
			<path id="XMLID_237_" fill="#9D9D9C" d="M1026.5,549.6h102.3v29.9h-67.6v19.4h61.2v28h-61.2V647h68.3v29.9h-103.5V549.6H1026.5z"
				/>
			<path id="XMLID_236_" fill="#9D9D9C" d="M1130.7,658.2l19.8-23.5c12.7,10.1,26.5,15.3,41.5,15.3c9.3,0,14.6-3.4,14.6-8.6v-0.4
				c0-5.2-4.1-8.2-21.7-12.3c-27.3-6.3-48.2-13.8-48.2-40v-0.4c0-23.5,18.7-40.7,49.3-40.7c21.7,0,38.5,6,52.3,16.8l-17.6,25
				c-11.6-8.2-24.3-12.7-35.9-12.7c-8.6,0-12.7,3.7-12.7,8.2v0.4c0,6,4.5,8.2,22,12.3c29.1,6.3,47.4,15.7,47.4,39.6v0.4
				c0,26.1-20.5,41.5-51.5,41.5C1168,679.2,1146.4,672.1,1130.7,658.2z"/>
			<path id="XMLID_235_" fill="#9D9D9C" d="M1295,549.6h102.3v29.9h-67.6v19.4h61.2v28h-61.2V647h68.7v29.9H1295V549.6z"/>
			<path id="XMLID_234_" fill="#9D9D9C" d="M1447.8,613.8L1447.8,613.8c0-37.3,28.8-66.5,67.2-66.5c26.1,0,42.9,10.8,54.2,26.5
				l-26.5,20.5c-7.5-9-15.7-14.9-28-14.9c-17.9,0-30.3,14.9-30.3,33.6v0.4c0,19,12.7,34,30.3,34c13.4,0,21.3-6.3,28.8-15.3l26.5,19
				c-12,16.4-28.4,28.8-56.4,28.8C1477.3,679.5,1447.8,651.9,1447.8,613.8z"/>
			<path id="XMLID_233_" fill="#9D9D9C" d="M1569.9,613.8L1569.9,613.8c0-37,29.5-66.5,68.7-66.5s68.3,29.1,68.3,65.7v0.4
				c0,36.6-29.5,66.1-68.7,66.1C1599,679.5,1569.9,650.4,1569.9,613.8z M1671.1,613.8L1671.1,613.8c0-18.7-13.4-34.7-32.9-34.7
				c-19.4,0-32.1,15.7-32.1,34v0.4c0,18.3,13.4,34.4,32.5,34.4C1658,647.8,1671.1,632.1,1671.1,613.8z"/>
			<path id="XMLID_232_" fill="#9D9D9C" d="M1718.2,549.6h37.3l30.3,49.3l30.3-49.3h37.3v127.4h-35.1v-73.2l-32.5,50h-0.7
				l-32.5-49.7v72.8h-34.7V549.6H1718.2z"/>
			<path id="XMLID_231_" fill="#9D9D9C" d="M1867.2,621.3v-71.7h35.9v71c0,18.3,9.3,27.3,23.5,27.3s23.5-8.2,23.5-26.1v-71.7h35.9
				v70.6c0,41.1-23.5,59-59.8,59C1890,679.5,1867.2,661.2,1867.2,621.3z"/>
			<path id="XMLID_230_" fill="#9D9D9C" d="M1999.4,549.6h32.9l52.3,67.2v-67.2h35.1v127.4h-31l-54.5-69.8v69.8H1999V549.6H1999.4z"
				/>
			<path id="XMLID_229_" fill="#9D9D9C" d="M2135.7,549.6h35.5v127.4h-35.5V549.6z"/>
			<path id="XMLID_228_" fill="#9D9D9C" d="M2182.8,613.8L2182.8,613.8c0-37.3,28.8-66.5,67.2-66.5c26.1,0,42.9,10.8,54.2,26.5
				l-26.5,20.5c-7.5-9-15.7-14.9-28-14.9c-17.9,0-30.3,14.9-30.3,33.6v0.4c0,19,12.7,34,30.3,34c13.4,0,21.3-6.3,28.8-15.3l26.5,19
				c-12,16.4-28.4,28.8-56.4,28.8C2212.3,679.5,2182.8,651.9,2182.8,613.8z"/>
			<path id="XMLID_227_" fill="#9D9D9C" d="M2355.7,548.8h34l54.2,128.5h-37.7l-9.3-22.8h-49.3l-9,22.8h-37L2355.7,548.8z
				 M2386.7,626.9l-14.2-36.2l-14.6,36.2H2386.7z"/>
			<path id="XMLID_226_" fill="#9D9D9C" d="M2479.7,697.1l14.2-19.4c-28.4-7.1-49.3-31.7-49.3-63.9v-0.4c0-37,28.8-66.1,67.2-66.1
				c26.1,0,42.9,10.8,54.2,26.5l-26.5,20.5c-7.5-9-15.7-14.9-28-14.9c-17.9,0-30.3,14.9-30.3,33.6v0.4c0,19,12.7,34,30.3,34
				c13.4,0,21.3-6.3,28.8-15.3l26.5,19c-10.8,14.9-25.4,26.5-49.7,28.4l-10.1,29.1L2479.7,697.1z"/>
			<path id="XMLID_225_" fill="#9D9D9C" d="M2570.4,613.8L2570.4,613.8c0-37,29.5-66.5,68.7-66.5c39.2,0,68.3,29.1,68.3,65.7v0.4
				c0,36.6-29.5,66.1-68.7,66.1C2599.5,679.5,2570.4,650.4,2570.4,613.8z M2600.7,538c3.7-17.9,10.1-27.3,22.4-27.3
				c10.8,0,22.4,7.1,28.4,7.1c5.2,0,7.1-2.6,9.3-8.2l16.4,4.5c-3.7,17.9-10.1,27.3-22.4,27.3c-10.8,0-22.4-7.1-28.4-7.1
				c-5.2,0-7.1,2.6-9.3,8.2L2600.7,538z M2671.6,613.8L2671.6,613.8c0-18.7-13.4-34.7-32.9-34.7c-19.4,0-32.1,15.7-32.1,34v0.4
				c0,18.3,13.4,34.4,32.5,34.4C2658.6,647.8,2671.6,632.1,2671.6,613.8z"/>
			<path id="XMLID_224_" fill="#9D9D9C" d="M2718.7,549.6H2821v29.9h-67.6v19.4h61.2v28h-61.2V647h68.3v29.9h-103.5V549.6H2718.7z"
				/>
			<path id="XMLID_223_" fill="#9D9D9C" d="M2823.3,658.2l19.8-23.5c12.7,10.1,26.5,15.3,41.5,15.3c9.3,0,14.6-3.4,14.6-8.6v-0.4
				c0-5.2-4.1-8.2-21.7-12.3c-27.3-6.3-48.2-13.8-48.2-40v-0.4c0-23.5,18.7-40.7,49.3-40.7c21.7,0,38.5,6,52.3,16.8l-17.6,25
				c-11.6-8.2-24.3-12.7-35.9-12.7c-8.6,0-12.7,3.7-12.7,8.2v0.4c0,6,4.5,8.2,22,12.3c29.1,6.3,47.4,15.7,47.4,39.6v0.4
				c0,26.1-20.5,41.5-51.5,41.5C2860.2,679.2,2838.9,672.1,2823.3,658.2z"/>
		</g>
	</g>
</g>
</svg>
