<?xml version="1.0" encoding="utf-8"?>
<!-- Generator: Adobe Illustrator 20.1.0, SVG Export Plug-In . SVG Version: 6.00 Build 0)  -->
<svg version="1.2" baseProfile="tiny" id="Camada_1"
	 xmlns="http://www.w3.org/2000/svg" xmlns:xlink="http://www.w3.org/1999/xlink" x="0px" y="0px" viewBox="0 0 54.5 54.5"
	 overflow="scroll" xml:space="preserve">
<g id="XMLID_391_">
	<path fill="#AAA" id="XMLID_396_" d="M16.2,16c-0.1-0.3-0.4-0.6-0.7-0.8c-0.4-0.2-0.8-0.2-1.1-0.1c-0.3,0.1-0.7,0.4-0.8,0.7L8.2,26.9
		C8,27.3,8,27.7,8.1,28c0.1,0.3,0.4,0.6,0.7,0.8c0,0,0.1,0,0.1,0c0.3,0.2,0.7,0.2,1.1,0c0.3-0.1,0.6-0.4,0.8-0.7c0,0,0-0.1,0-0.1
		l5.4-11C16.3,16.8,16.3,16.4,16.2,16z"/>
	<path fill="#AAA" id="XMLID_395_" d="M37.6,30.9C37.6,30.9,37.6,30.9,37.6,30.9C37.6,30.9,37.6,30.9,37.6,30.9c-0.1-0.1-0.1-0.1-0.1-0.1l-4.4-5
		c-0.6,0-1.6-0.2-2.9-0.8c-1.6-0.8-2.5-2.3-2.8-3.4l-1,1.2c0,0,0,0,0,0l-1.5,1.8c-0.8,0.9-2.1,1-3.1,0.3c-0.9-0.8-1-2.1-0.3-3.1
		l1.6-1.9c0,0,0,0,0,0l1.3-1.6l0,0c0,0,0.7-1,1.8-1.7c-0.5-0.1-1-0.2-1.5-0.1c-2.9,0.3-5.4,2.3-5.4,2.3c-0.3,0.2-0.6,0.2-0.9,0.1
		l-1.2-0.5l-4.9,10.1l2,1.5c0,0,0,0,0.1,0.1c0,0,0,0,0,0l0.1-0.1l0,0l1.3-1.6c0.7-0.8,1.8-0.9,2.6-0.2c0.8,0.7,0.9,1.8,0.2,2.6
		l-1.3,1.6h0l-0.2,0.3c0.1,0.1,0.2,0.2,0.3,0.3l0.5-0.6l0,0l1.4-1.7c0.7-0.8,1.9-0.9,2.8-0.2c0.8,0.7,0.9,1.9,0.2,2.8l-0.6,0.8
		l-1.4,1.6c0.1,0.1,0.2,0.2,0.3,0.3l0.3-0.3l0.6-0.7c0.6-0.8,1.8-0.9,2.6-0.2c0.8,0.7,0.9,1.8,0.2,2.6l-0.6,0.7l-0.3,0.4
		c0.1,0.1,0.1,0.1,0.2,0.2l0.4-0.5c0.7-0.8,1.8-0.9,2.6-0.2c0.8,0.7,0.9,1.8,0.2,2.6l-0.7,0.8l0.4,0.4c0.2,0.2,0.5,0.4,0.8,0.4
		c0.3,0,0.6-0.1,0.8-0.2c0,0,0,0,0.1-0.1c0.1-0.1,0.2-0.3,0.3-0.4c0.1-0.2,0.1-0.4,0.1-0.6c0-0.1-0.5-0.9-0.7-1.2l-0.1-0.1
		c-0.2-0.4-0.1-0.9,0.2-1.1c0.4-0.2,0.8-0.1,1.1,0.2l1.2,1.5c0,0,0,0,0.1,0.1c0.2,0.2,0.5,0.3,0.7,0.3c0.3,0,0.6-0.1,0.8-0.2
		c0,0,0.1,0,0.1-0.1c0.2-0.2,0.3-0.4,0.3-0.6c0.1-0.3,0-0.5-0.1-0.7c0,0-0.1-0.2-0.3-0.4c-0.2-0.3-0.5-0.7-0.7-0.8l-0.1-0.1
		c-0.3-0.3-0.2-0.8,0.1-1.1c0.3-0.3,0.8-0.3,1.1,0.1l0,0l1.4,1.6l0,0c0.2,0.3,0.6,0.4,0.9,0.4c0.3,0,0.7-0.1,0.9-0.3
		c0,0,0.1-0.1,0.1-0.1c0.2-0.2,0.3-0.4,0.4-0.6c0.1-0.3,0.1-0.5,0-0.8c0-0.1-0.4-0.4-0.8-0.9c-0.4-0.5-0.8-0.9-0.9-1.1
		c-0.2-0.4,0-0.9,0.4-1.1c0.3-0.2,0.7-0.1,0.9,0.2c0.2,0.1,0.5,0.4,0.8,0.7c0.5,0.5,1,1,1,1.1c0.3,0.1,0.7,0.2,1,0.1
		c0.3,0,0.6-0.2,0.8-0.4c0,0,0.1-0.1,0.1-0.1c0.3-0.3,0.5-0.7,0.5-1.1c0-0.4-0.1-0.9-0.4-1.2L37.6,30.9z"/>
	<path fill="#AAA" id="XMLID_392_" d="M27.2,0C12.2,0,0,12.2,0,27.2s12.2,27.2,27.2,27.2c15,0,27.2-12.2,27.2-27.2S42.3,0,27.2,0z M46.8,28.1
		c-1,0.6-2.3,0.3-3-0.6l-4,3.5l0.8,0.9c0.6,0.7,0.9,1.6,0.8,2.4c-0.1,0.8-0.4,1.6-1.1,2.2l0,0c-0.5,0.5-1.1,0.7-1.7,0.8
		c-0.3,0.1-0.7,0.1-1,0c0,0.2-0.1,0.4-0.1,0.5c-0.2,0.5-0.4,1-0.9,1.4l0,0c-0.6,0.5-1.4,0.8-2.1,0.7c-0.3,0-0.5-0.1-0.7-0.1
		c-0.1,0.5-0.4,1-0.8,1.3c0,0,0,0,0,0c0,0,0,0,0,0l0,0c-0.6,0.5-1.3,0.7-2,0.7c-0.3,0-0.7-0.1-1-0.2c0,0,0,0,0,0
		c-0.1,0.4-0.4,0.8-0.7,1.1c0,0,0,0,0,0c0,0,0,0,0,0c-0.6,0.5-1.3,0.7-2,0.7c-0.7,0-1.4-0.4-1.9-0.9l-0.3-0.3
		c-0.7,0.4-1.5,0.3-2.1-0.2c-0.7-0.6-0.9-1.7-0.3-2.5c-0.1-0.1-0.1-0.1-0.2-0.2c-0.7,0.7-1.8,0.8-2.5,0.2c-0.8-0.7-0.9-1.8-0.2-2.6
		l0,0c-0.1-0.1-0.2-0.2-0.3-0.3L19.3,37c-0.7,0.8-1.9,0.9-2.8,0.2c-0.8-0.7-0.9-1.9-0.2-2.8l0.3-0.3c-0.1-0.1-0.2-0.2-0.3-0.3
		L16.1,34c-0.6,0.8-1.8,0.9-2.6,0.2c-0.8-0.6-0.9-1.8-0.2-2.6l0.2-0.2c0,0,0,0-0.1,0l-2-1.5c-0.3,0.3-0.6,0.4-1,0.6
		c-0.7,0.3-1.6,0.2-2.3-0.1h0c-0.8-0.4-1.3-1-1.5-1.7c-0.3-0.7-0.2-1.6,0.1-2.3l5.4-11.1c0.4-0.8,1-1.3,1.7-1.5
		c0.7-0.3,1.6-0.2,2.3,0.1c0.8,0.4,1.3,1,1.5,1.7c0.2,0.5,0.2,1,0.1,1.5l0.9,0.4c0.9-0.6,3.2-2.1,5.9-2.4c1.4-0.1,2.7,0.3,3.7,0.8
		c0.4-0.1,0.8-0.1,1.3-0.1c3.2,0,6,2,6,2l1.8-0.9c-0.5-1-0.2-2.3,0.8-2.9c1.1-0.6,2.4-0.3,3.1,0.8l6.3,10.6
		C48.2,26.1,47.8,27.5,46.8,28.1z"/>
</g>
</svg>
