<?xml version="1.0" encoding="utf-8"?>
<!-- Generator: Adobe Illustrator 20.1.0, SVG Export Plug-In . SVG Version: 6.00 Build 0)  -->
<svg version="1.2" baseProfile="tiny" id="Camada_1"
	 xmlns="http://www.w3.org/2000/svg" xmlns:xlink="http://www.w3.org/1999/xlink" x="0px" y="0px" viewBox="0 0 3118.1 850.4"
	 overflow="scroll" xml:space="preserve">
<g>
	<g id="Logo_SIGSAB_1_">
		<g id="XMLID_1_">
			<g id="XMLID_42_">
				<path id="XMLID_47_" fill="#9D9D9C" d="M761,584.6c0,3-0.7,5.6-1.9,7.9c-1.1,2.2-2.6,4.1-4.5,5.6c-1.9,1.5-4.1,2.6-6.7,3.4
					c-2.6,0.7-5.2,1.1-8.2,1.1c-1.9,0-3.7,0-5.6-0.4c-1.9-0.4-3.4-0.7-4.5-1.1c-1.5-0.4-2.2-0.7-3.4-1.5c-0.7-0.4-1.5-1.1-1.9-1.5
					c-0.4-0.4-0.7-1.1-0.7-1.5c0-0.7-0.4-1.9-0.4-3c0-0.8,0-1.5,0-2.2s0-1.1,0.4-1.5c0-0.4,0.4-0.7,0.4-0.7c0.4,0,0.4-0.4,0.7-0.4
					c0.4,0,1.1,0.4,1.9,0.7c0.7,0.4,1.9,1.1,3,1.5c1.1,0.8,2.6,1.1,4.1,1.5c1.5,0.4,3.7,0.7,5.6,0.7c1.5,0,2.6,0,3.7-0.4
					c1.1-0.4,2.2-0.7,3-1.5c0.7-0.7,1.5-1.5,1.9-2.2c0.4-0.7,0.7-1.9,0.7-3s-0.4-2.2-1.1-3.4c-0.7-0.7-1.5-1.9-2.6-2.6
					c-1.1-0.7-2.6-1.5-3.7-1.9c-1.5-0.7-3-1.1-4.5-1.9c-1.5-0.8-3-1.5-4.5-2.2s-2.6-1.9-3.7-3s-2.2-2.6-2.6-4.5
					c-0.7-1.5-1.1-3.7-1.1-6c0-2.6,0.4-5.2,1.5-7.1c1.1-1.9,2.2-3.7,4.1-5.2c1.9-1.5,3.7-2.2,6-3c2.2-0.7,4.9-1.1,7.5-1.1
					c1.5,0,2.6,0,4.1,0.4c1.5,0.4,2.6,0.4,3.7,0.7s2.2,0.7,3,1.1c0.7,0.4,1.5,0.7,1.9,1.1c0.4,0.4,0.4,0.4,0.7,0.7
					c0,0.4,0.4,0.4,0.4,0.7c0,0.4,0,0.8,0,1.1c0,0.4,0,1.1,0,1.9c0,0.8,0,1.5,0,2.2s0,1.1-0.4,1.5c0,0.4-0.4,0.7-0.4,0.7
					c-0.4,0-0.4,0.4-0.7,0.4s-0.7-0.4-1.5-0.8c-0.7-0.4-1.5-0.7-2.6-1.5c-1.1-0.4-2.2-0.7-3.7-1.1c-1.5-0.4-3-0.7-4.5-0.7
					c-1.1,0-2.2,0-3.4,0.4c-1.1,0.4-1.9,0.8-2.2,1.1c-0.7,0.4-1.1,1.1-1.5,1.9c-0.4,0.8-0.4,1.5-0.4,2.2c0,1.1,0.4,2.2,1.1,3.4
					c0.7,0.7,1.5,1.9,3,2.6c1.1,0.7,2.6,1.5,4.1,1.9c1.5,0.8,3,1.1,4.5,1.9c1.5,0.7,3,1.5,4.5,2.2c1.5,0.8,3,1.9,4.1,3.4
					c1.1,1.1,2.2,2.6,3,4.5C760.6,580.4,761,582.3,761,584.6L761,584.6z M781.6,599.9c0,0.4,0,0.4-0.4,0.8c-0.4,0.4-0.4,0.4-1.1,0.7
					c-0.4,0-1.1,0.4-1.9,0.4s-1.9,0-3,0s-2.2,0-3,0c-0.7,0-1.5-0.4-1.9-0.4c-0.4,0-0.7-0.4-1.1-0.7c-0.4-0.4-0.4-0.4-0.4-0.8v-53.2
					c0-0.4,0-0.4,0.4-0.7c0.4-0.4,0.4-0.4,1.1-0.8c0.4,0,1.1-0.4,1.9-0.4c0.7,0,1.9,0,3,0s2.2,0,3,0s1.5,0.4,1.9,0.4
					s0.7,0.4,1.1,0.8c0.4,0.4,0.4,0.4,0.4,0.7V599.9L781.6,599.9z M828.8,584.6c0,3-0.7,5.6-1.9,7.9s-2.6,4.1-4.5,5.6
					c-1.9,1.5-4.1,2.6-6.7,3.4c-2.6,0.7-5.2,1.1-8.2,1.1c-1.9,0-3.7,0-5.6-0.4c-1.9-0.4-3.4-0.7-4.5-1.1c-1.5-0.4-2.2-0.7-3.4-1.5
					c-0.7-0.4-1.5-1.1-1.9-1.5c-0.4-0.4-0.7-1.1-0.7-1.5c0-0.7-0.4-1.9-0.4-3c0-0.8,0-1.5,0-2.2s0-1.1,0.4-1.5
					c0-0.4,0.4-0.7,0.4-0.7c0.4,0,0.4-0.4,0.7-0.4s1.1,0.4,1.9,0.7c0.7,0.4,1.9,1.1,3,1.5c1.1,0.8,2.6,1.1,4.1,1.5
					c1.5,0.4,3.7,0.7,5.6,0.7c1.5,0,2.6,0,3.7-0.4c1.1-0.4,2.2-0.7,3-1.5c0.7-0.7,1.5-1.5,1.9-2.2c0.4-0.7,0.7-1.9,0.7-3
					s-0.4-2.2-1.1-3.4c-0.7-0.7-1.5-1.9-3-2.6c-1.1-0.7-2.6-1.5-3.7-1.9c-1.5-0.7-3-1.1-4.5-1.9c-1.5-0.8-3-1.5-4.5-2.2
					c-1.5-0.7-2.6-1.9-3.7-3c-1.1-1.1-2.2-2.6-2.6-4.5c-0.7-1.5-1.1-3.7-1.1-6c0-2.6,0.4-5.2,1.5-7.1c1.1-1.9,2.2-3.7,4.1-5.2
					c1.9-1.5,3.7-2.2,6-3c2.2-0.7,4.9-1.1,7.5-1.1c1.5,0,2.6,0,4.1,0.4c1.5,0.4,2.6,0.4,3.7,0.7c1.1,0.4,2.2,0.7,3,1.1
					c0.7,0.4,1.5,0.7,1.9,1.1c0.4,0.4,0.4,0.4,0.7,0.7c0,0.4,0.4,0.4,0.4,0.7c0,0.4,0,0.8,0,1.1c0,0.4,0,1.1,0,1.9
					c0,0.8,0,1.5,0,2.2s0,1.1-0.4,1.5c0,0.4-0.4,0.7-0.4,0.7c-0.4,0-0.4,0.4-0.7,0.4s-0.7-0.4-1.5-0.8c-0.7-0.4-1.5-0.7-2.6-1.5
					c-1.1-0.4-2.2-0.7-3.7-1.1c-1.5-0.4-3-0.7-4.5-0.7c-1.1,0-2.2,0-3.4,0.4c-1.1,0.4-1.9,0.8-2.2,1.1c-0.7,0.4-1.1,1.1-1.5,1.9
					c-0.4,0.8-0.4,1.5-0.4,2.2c0,1.1,0.4,2.2,1.1,3.4c0.7,0.7,1.5,1.9,3,2.6c1.1,0.7,2.6,1.5,4.1,1.9c1.5,0.8,3,1.1,4.5,1.9
					c1.5,0.7,3,1.5,4.5,2.2c1.5,0.8,3,1.9,4.1,3.4c1.1,1.1,2.2,2.6,3,4.5C828.5,580.4,828.8,582.3,828.8,584.6L828.8,584.6z
					 M875.3,549.7c0,0.7,0,1.5,0,2.2c0,0.7,0,1.1-0.4,1.5c0,0.4-0.4,0.7-0.7,0.7c-0.4,0-0.4,0.4-0.7,0.4h-14.2v45.4
					c0,0.4,0,0.4-0.4,0.8c-0.4,0.4-0.4,0.4-1.1,0.7c-0.4,0-1.1,0.4-1.9,0.4c-0.7,0-1.9,0-3,0c-1.1,0-2.2,0-3,0
					c-0.7,0-1.5-0.4-1.9-0.4c-0.4,0-0.7-0.4-1.1-0.7c-0.4-0.4-0.4-0.4-0.4-0.8v-45.4H833c-0.4,0-0.4,0-0.7-0.4
					c-0.4,0-0.4-0.4-0.4-0.7c0-0.4-0.4-0.7-0.4-1.5c0-0.8,0-1.5,0-2.2s0-1.5,0-2.2s0.4-1.1,0.4-1.5c0-0.4,0.4-0.8,0.4-0.8
					c0.4,0,0.4-0.4,0.7-0.4h40.9c0.4,0,0.4,0,0.7,0.4c0.4,0,0.4,0.4,0.7,0.8c0,0.4,0.4,0.7,0.4,1.5
					C875.3,548.2,875.3,548.9,875.3,549.7L875.3,549.7z M916.6,596.9c0,0.7,0,1.5,0,2.2s0,1.1-0.4,1.5c0,0.4-0.4,0.7-0.7,0.7
					c-0.4,0-0.4,0.4-0.7,0.4h-29.2c-1.1,0-1.9-0.4-2.6-0.8c-0.7-0.7-1.1-1.5-1.1-2.6v-49.1c0-1.1,0.4-2.2,1.1-2.6
					c0.7-0.7,1.5-0.7,2.6-0.7h28.9c0.4,0,0.4,0,0.7,0.4c0.4,0,0.4,0.4,0.4,0.8c0,0.4,0.4,0.7,0.4,1.5c0,0.7,0,1.1,0,2.2
					c0,0.7,0,1.5,0,2.2c0,0.7,0,1.1-0.4,1.5c0,0.4-0.4,0.7-0.4,0.7c-0.4,0-0.4,0.4-0.7,0.4h-20.6v13.9h17.6c0.4,0,0.4,0,0.7,0.4
					c0.4,0,0.4,0.4,0.7,0.7c0,0.4,0.4,0.7,0.4,1.5c0,0.7,0,1.1,0,1.9s0,1.5,0,2.2c0,0.4,0,1.1-0.4,1.5c0,0.4-0.4,0.7-0.7,0.7
					s-0.4,0.4-0.7,0.4h-17.6v15.7h21c0.4,0,0.4,0,0.7,0.4c0.4,0,0.4,0.4,0.7,0.7c0,0.4,0.4,0.8,0.4,1.5
					C916.6,595.4,916.6,596.2,916.6,596.9L916.6,596.9z M994.6,599.9c0,0.4,0,0.4-0.4,0.8c0,0.4-0.4,0.4-0.7,0.7
					c-0.4,0-1.1,0.4-1.9,0.4s-1.5,0-2.6,0s-1.9,0-2.6,0c-0.7,0-1.1-0.4-1.9-0.4c-0.4,0-0.7-0.4-0.7-0.7c0-0.4-0.4-0.4-0.4-0.8v-46.1
					l0,0l-16.9,46.1c0,0.4-0.4,0.8-0.7,1.1c-0.4,0.4-0.7,0.4-1.1,0.8c-0.4,0-1.1,0.4-1.9,0.4c-0.7,0-1.5,0-2.6,0s-1.9,0-2.6,0
					c-0.7,0-1.5-0.4-1.9-0.4c-0.4,0-0.7-0.4-1.1-0.8c-0.4-0.4-0.4-0.4-0.4-0.7l-16.1-46.1l0,0v46.1c0,0.4,0,0.4-0.4,0.7
					c0,0.4-0.4,0.4-0.7,0.8c-0.4,0-1.1,0.4-1.9,0.4s-1.5,0-2.6,0c-1.1,0-1.9,0-2.6,0s-1.1-0.4-1.9-0.4c-0.4,0-0.7-0.4-0.7-0.8
					c0-0.4-0.4-0.4-0.4-0.7v-50.2c0-1.5,0.4-2.6,1.1-3.4c0.7-0.7,1.9-1.1,3.4-1.1h7.9c1.5,0,2.6,0,3.4,0.4c1.1,0.4,1.9,0.7,2.6,1.1
					c0.7,0.4,1.5,1.1,1.9,1.9c0.4,0.7,0.7,1.9,1.1,3l12.4,33.7l0,0l13.1-33.7c0.4-1.1,0.7-2.2,1.1-3c0.4-0.8,1.1-1.5,1.5-1.9
					c0.7-0.4,1.5-0.7,2.2-1.1c0.7-0.4,1.9-0.4,3-0.4h7.9c0.7,0,1.5,0,2.2,0.4c0.7,0.4,1.1,0.4,1.5,0.7c0.4,0.4,0.7,0.7,0.7,1.5
					c0.4,0.7,0.4,1.1,0.4,1.9v49.9H994.6z M1054.6,597.3c0.4,1.1,0.8,1.9,0.8,2.6c0,0.8,0,1.1-0.4,1.5s-0.8,0.4-1.9,0.7
					c-0.8,0-1.9,0-3.4,0c-1.5,0-2.6,0-3.7,0c-0.7,0-1.5,0-1.9-0.4c-0.4,0-0.7-0.4-0.7-0.4c0-0.4-0.4-0.4-0.4-0.7l-3.7-11.2h-21.7
					l-3.7,10.9c0,0.4-0.4,0.7-0.4,1.1c0,0.4-0.4,0.4-0.7,0.7c-0.4,0-1.1,0.4-1.9,0.4c-0.7,0-1.9,0-3,0c-1.5,0-2.6,0-3.4,0
					c-0.8,0-1.5-0.4-1.5-0.7c-0.4-0.4-0.4-0.7-0.4-1.5c0-0.7,0.4-1.5,0.8-2.6l18-50.2c0-0.4,0.4-0.7,0.7-1.1
					c0.4-0.4,0.7-0.4,1.1-0.7c0.4,0,1.1-0.4,2.2-0.4c0.8,0,2.2,0,3.7,0c1.9,0,3,0,4.1,0c1.1,0,1.9,0,2.6,0.4c0.8,0,1.1,0.4,1.1,0.7
					c0.4,0.4,0.4,0.7,0.7,1.1L1054.6,597.3L1054.6,597.3z M1028.3,555.7L1028.3,555.7l-8.2,24h16.1L1028.3,555.7L1028.3,555.7z
					 M1131.8,572.2c0,5.2-0.7,9.7-2.2,13.1c-1.5,3.7-3.4,6.7-6,9c-2.6,2.2-5.6,4.1-9.4,5.2s-8.2,1.5-13.1,1.5h-13.9
					c-1.1,0-1.9-0.4-2.6-0.7c-0.7-0.7-1.1-1.5-1.1-2.6v-49.1c0-1.1,0.4-2.2,1.1-2.6c0.8-0.7,1.5-0.7,2.6-0.7h15
					c5.2,0,9.7,0.7,13.1,1.9c3.7,1.1,6.7,3,9,5.2c2.6,2.2,4.5,5.2,5.6,8.6C1131,563.9,1131.8,568.1,1131.8,572.2L1131.8,572.2z
					 M1119.4,572.9c0-2.6-0.4-5.2-1.1-7.5c-0.8-2.2-1.5-4.1-3-6c-1.5-1.5-3.4-3-5.6-4.1c-2.2-1.1-5.2-1.5-8.6-1.5h-5.6v38.2h6
					c3.4,0,6-0.4,8.2-1.1c2.2-0.7,4.1-1.9,5.6-3.7c1.5-1.5,2.6-3.7,3.4-6C1119,578.9,1119.4,575.9,1119.4,572.9L1119.4,572.9z
					 M1175.7,596.9c0,0.7,0,1.5,0,2.2s0,1.1-0.4,1.5c0,0.4-0.4,0.7-0.8,0.7s-0.4,0.4-0.7,0.4h-29.2c-1.1,0-1.9-0.4-2.6-0.8
					c-0.7-0.7-1.1-1.5-1.1-2.6v-49.1c0-1.1,0.4-2.2,1.1-2.6c0.8-0.7,1.5-0.7,2.6-0.7h28.9c0.4,0,0.4,0,0.7,0.4
					c0.4,0,0.4,0.4,0.4,0.8c0,0.4,0.4,0.7,0.4,1.5c0,0.7,0,1.1,0,2.2c0,0.7,0,1.5,0,2.2c0,0.7,0,1.1-0.4,1.5c0,0.4-0.4,0.7-0.4,0.7
					c-0.4,0-0.4,0.4-0.7,0.4h-20.6v13.9h17.6c0.4,0,0.4,0,0.8,0.4c0.4,0,0.4,0.4,0.7,0.7c0,0.4,0.4,0.7,0.4,1.5c0,0.7,0,1.1,0,1.9
					s0,1.5,0,2.2c0,0.4,0,1.1-0.4,1.5c0,0.4-0.4,0.7-0.7,0.7s-0.4,0.4-0.8,0.4h-17.6v15.7h21c0.4,0,0.4,0,0.7,0.4
					c0.4,0,0.4,0.4,0.8,0.7c0,0.4,0.4,0.8,0.4,1.5C1175.7,595.4,1175.7,596.2,1175.7,596.9L1175.7,596.9z M1253.7,553.8
					c0,0.7,0,1.5,0,2.2c0,0.7,0,1.1-0.4,1.5c0,0.4-0.4,0.7-0.4,0.7c-0.4,0-0.4,0.4-0.8,0.4s-1.1-0.4-1.9-0.7
					c-0.8-0.4-1.9-1.1-3.4-1.9c-1.5-0.8-3-1.1-5.2-1.9c-1.9-0.4-4.1-0.7-6.7-0.7c-2.6,0-5.2,0.4-7.5,1.5s-4.1,2.2-6,4.1
					c-1.5,1.9-3,3.7-3.7,6.4c-0.8,2.2-1.1,5.2-1.1,7.9c0,3.4,0.4,6,1.5,8.6c0.7,2.6,2.2,4.5,3.7,6c1.5,1.5,3.4,3,5.6,3.7
					c2.2,0.7,4.9,1.1,7.5,1.1c1.5,0,2.6,0,3.7-0.4c1.1-0.4,2.6-0.7,3.7-1.5v-13.1h-10.9c-0.4,0-1.1-0.4-1.1-1.1
					c-0.4-0.7-0.4-1.9-0.4-3.4c0-0.8,0-1.5,0-1.9c0-0.4,0.4-1.1,0.4-1.5s0.4-0.7,0.4-0.7c0.4,0,0.4-0.4,0.7-0.4h19.5
					c0.4,0,0.7,0,1.1,0.4c0.4,0,0.8,0.4,1.1,0.7c0.4,0.4,0.4,0.7,0.8,1.1c0,0.4,0.4,1.1,0.4,1.5v22.5c0,0.8,0,1.5-0.4,2.2
					s-1.1,1.1-1.9,1.5c-1.1,0.4-2.2,0.7-3.7,1.1c-1.5,0.4-3,0.7-4.5,1.1c-1.5,0.4-3,0.4-4.5,0.7c-1.5,0-3,0.4-4.9,0.4
					c-4.5,0-8.6-0.7-12.4-1.9s-6.7-3-9.4-5.6c-2.6-2.6-4.5-5.6-6-9c-1.5-3.4-1.9-7.5-1.9-12c0-4.5,0.8-8.6,2.2-12.4
					c1.5-3.7,3.4-6.7,6-9.4c2.6-2.6,5.6-4.5,9.4-6c3.7-1.5,7.9-1.9,12.4-1.9c2.6,0,4.9,0,6.7,0.4s3.7,0.7,5.2,1.1
					c1.5,0.4,3,1.1,3.7,1.5c1.1,0.7,1.9,1.1,2.2,1.5c0.4,0.4,0.7,1.1,0.7,1.9C1253.3,551.2,1253.7,552.3,1253.7,553.8L1253.7,553.8z
					 M1299.8,596.9c0,0.7,0,1.5,0,2.2s0,1.1-0.4,1.5c0,0.4-0.4,0.7-0.8,0.7s-0.4,0.4-0.7,0.4h-29.2c-1.1,0-1.9-0.4-2.6-0.8
					c-0.7-0.7-1.1-1.5-1.1-2.6v-49.1c0-1.1,0.4-2.2,1.1-2.6c0.8-0.7,1.5-0.7,2.6-0.7h28.9c0.4,0,0.4,0,0.7,0.4
					c0.4,0,0.4,0.4,0.4,0.8c0,0.4,0.4,0.7,0.4,1.5c0,0.7,0,1.1,0,2.2c0,0.7,0,1.5,0,2.2c0,0.7,0,1.1-0.4,1.5c0,0.4-0.4,0.7-0.4,0.7
					c-0.4,0-0.4,0.4-0.7,0.4h-20.6v13.9h17.6c0.4,0,0.4,0,0.8,0.4c0.4,0,0.4,0.4,0.7,0.7c0,0.4,0.4,0.7,0.4,1.5c0,0.7,0,1.1,0,1.9
					s0,1.5,0,2.2c0,0.4,0,1.1-0.4,1.5c0,0.4-0.4,0.7-0.7,0.7s-0.4,0.4-0.8,0.4h-17.6v15.7h21c0.4,0,0.4,0,0.7,0.4
					c0.4,0,0.4,0.4,0.8,0.7c0,0.4,0.4,0.8,0.4,1.5C1299.8,595.4,1299.8,596.2,1299.8,596.9L1299.8,596.9z M1343.6,584.6
					c0,3-0.7,5.6-1.9,7.9c-1.1,2.2-2.6,4.1-4.5,5.6c-1.9,1.5-4.1,2.6-6.7,3.4c-2.6,0.7-5.2,1.1-8.2,1.1c-1.9,0-3.7,0-5.6-0.4
					c-1.9-0.4-3.4-0.7-4.5-1.1c-1.5-0.4-2.2-0.7-3.4-1.5c-0.7-0.4-1.5-1.1-1.9-1.5c-0.4-0.4-0.7-1.1-0.7-1.5c0-0.7-0.4-1.9-0.4-3
					c0-0.8,0-1.5,0-2.2s0-1.1,0.4-1.5c0-0.4,0.4-0.7,0.4-0.7c0.4,0,0.4-0.4,0.8-0.4s1.1,0.4,1.9,0.7c0.8,0.4,1.9,1.1,3,1.5
					c1.1,0.8,2.6,1.1,4.1,1.5c1.5,0.4,3.7,0.7,5.6,0.7c1.5,0,2.6,0,3.7-0.4c1.1-0.4,2.2-0.7,3-1.5c0.7-0.7,1.5-1.5,1.9-2.2
					c0.4-0.7,0.7-1.9,0.7-3s-0.4-2.2-1.1-3.4c-0.8-0.7-1.5-1.9-3-2.6c-1.1-0.7-2.6-1.5-3.7-1.9c-1.5-0.7-3-1.1-4.5-1.9
					c-1.5-0.8-3-1.5-4.5-2.2s-2.6-1.9-3.7-3c-1.1-1.1-2.2-2.6-3-4.5c-0.8-1.5-1.1-3.7-1.1-6c0-2.6,0.4-5.2,1.5-7.1
					c1.1-1.9,2.2-3.7,4.1-5.2c1.9-1.5,3.7-2.2,6-3c2.2-0.7,4.9-1.1,7.5-1.1c1.5,0,2.6,0,4.1,0.4c1.5,0.4,2.6,0.4,3.7,0.7
					c1.1,0.4,2.2,0.7,3,1.1c0.7,0.4,1.5,0.7,1.9,1.1c0.4,0.4,0.4,0.4,0.7,0.7c0,0.4,0.4,0.4,0.4,0.7c0,0.4,0,0.8,0,1.1
					c0,0.4,0,1.1,0,1.9c0,0.8,0,1.5,0,2.2s0,1.1-0.4,1.5c0,0.4-0.4,0.7-0.4,0.7c-0.4,0-0.4,0.4-0.7,0.4s-0.8-0.4-1.5-0.8
					c-0.8-0.4-1.5-0.7-2.6-1.5c-1.1-0.4-2.2-0.7-3.7-1.1c-1.5-0.4-3-0.7-4.5-0.7c-1.1,0-2.2,0-3.4,0.4c-1.1,0.4-1.9,0.8-2.2,1.1
					c-0.8,0.4-1.1,1.1-1.5,1.9c-0.4,0.8-0.4,1.5-0.4,2.2c0,1.1,0.4,2.2,1.1,3.4c0.8,0.7,1.5,1.9,3,2.6c1.1,0.7,2.6,1.5,4.1,1.9
					c1.5,0.8,3,1.1,4.5,1.9c1.5,0.7,3,1.5,4.5,2.2c1.5,0.8,3,1.9,4.1,3.4c1.1,1.1,2.2,2.6,3,4.5
					C1343.3,580.4,1343.6,582.3,1343.6,584.6L1343.6,584.6z M1390.5,549.7c0,0.7,0,1.5,0,2.2c0,0.7,0,1.1-0.4,1.5
					c0,0.4-0.4,0.7-0.7,0.7c-0.4,0-0.4,0.4-0.8,0.4H1374v45.4c0,0.4,0,0.4-0.4,0.8c-0.4,0.4-0.4,0.4-1.1,0.7c-0.4,0-1.1,0.4-1.9,0.4
					c-0.8,0-1.9,0-3,0c-1.1,0-2.2,0-3,0c-0.8,0-1.5-0.4-1.9-0.4s-0.8-0.4-1.1-0.7c-0.4-0.4-0.4-0.4-0.4-0.8v-45.4h-14.6
					c-0.4,0-0.4,0-0.8-0.4c-0.4,0-0.4-0.4-0.4-0.7c0-0.4-0.4-0.7-0.4-1.5c0-0.8,0-1.5,0-2.2s0-1.5,0-2.2s0.4-1.1,0.4-1.5
					c0-0.4,0.4-0.8,0.4-0.8c0.4,0,0.4-0.4,0.8-0.4h40.9c0.4,0,0.4,0,0.7,0.4c0.4,0,0.4,0.4,0.8,0.8c0,0.4,0.4,0.7,0.4,1.5
					C1390.1,548.2,1390.5,548.9,1390.5,549.7z"/>
				<path id="XMLID_45_" fill="#9D9D9C" d="M1437.4,597.3c0.4,1.1,0.8,1.9,0.8,2.6c0,0.8,0,1.1-0.4,1.5s-0.8,0.4-1.9,0.7
					c-0.8,0-1.9,0-3.4,0c-1.5,0-2.6,0-3.7,0c-0.7,0-1.5,0-1.9-0.4c-0.4,0-0.7-0.4-0.7-0.4c0-0.4-0.4-0.4-0.4-0.7l-3.7-11.2h-21.7
					l-3.7,10.9c0,0.4-0.4,0.7-0.4,1.1c0,0.4-0.4,0.4-0.7,0.7c-0.4,0-1.1,0.4-1.9,0.4c-0.8,0-1.9,0-3,0c-1.5,0-2.6,0-3.4,0
					c-0.8,0-1.5-0.4-1.5-0.7c-0.4-0.4-0.4-0.7-0.4-1.5c0-0.7,0.4-1.5,0.7-2.6l18-50.2c0-0.4,0.4-0.7,0.8-1.1
					c0.4-0.4,0.8-0.4,1.1-0.7c0.4,0,1.1-0.4,2.2-0.4c0.8,0,2.2,0,3.7,0c1.9,0,3,0,4.1,0c1.1,0,1.9,0,2.6,0.4c0.8,0,1.1,0.4,1.1,0.7
					c0.4,0.4,0.4,0.7,0.7,1.1L1437.4,597.3L1437.4,597.3z M1410.8,555.7L1410.8,555.7l-8.2,24h16.1L1410.8,555.7L1410.8,555.7z
					 M1420.9,530.2c0-0.4,0.4-0.7,0.8-0.7s1.5-0.4,2.6-0.4c1.5,0,2.2,0,2.6,0.4c0.4,0.4,0.8,0.7,0.8,1.5c0,3.4-0.8,6-2.6,7.5
					c-1.5,1.9-4.1,2.6-7.1,2.6c-1.9,0-3-0.4-4.5-0.7c-1.1-0.4-2.2-1.1-3-1.5c-0.7-0.4-1.9-1.1-2.6-1.5c-0.8-0.4-1.5-0.7-2.6-0.7
					s-1.9,0.4-2.2,0.7s-0.8,1.5-0.8,2.2c0,0.4,0,0.4-0.4,0.7c0,0-0.4,0.4-0.8,0.4s-0.8,0-1.1,0c-0.4,0-1.1,0-1.5,0
					c-1.5,0-2.2,0-2.6-0.4c-0.4-0.4-0.8-0.7-0.8-1.5c0-1.5,0.4-3,0.8-4.5c0.4-1.1,1.1-2.2,1.9-3.4c0.7-0.7,1.9-1.5,3-1.9
					c1.1-0.4,2.6-0.7,4.1-0.7c1.9,0,3,0.4,4.5,0.7c1.1,0.4,2.2,1.1,3,1.5c0.8,0.4,1.9,1.1,2.6,1.5c0.8,0.4,1.5,0.7,2.6,0.7
					c0.7,0,1.5-0.4,1.9-0.7C1420.5,532.1,1420.9,531.3,1420.9,530.2L1420.9,530.2z M1496.6,572.6c0,4.5-0.8,9-1.9,12.7
					c-1.1,3.7-3,6.7-5.2,9.4c-2.2,2.6-5.2,4.5-8.6,6c-3.4,1.5-7.5,1.9-12,1.9c-4.5,0-8.6-0.7-11.6-1.9c-3.4-1.1-6-3-8.2-5.2
					c-2.2-2.2-3.7-5.2-4.9-9c-1.1-3.7-1.5-7.9-1.5-12.7c0-4.5,0.8-8.6,1.9-12.4c1.1-3.7,3-6.7,5.2-9.4c2.2-2.6,5.2-4.5,8.6-6
					c3.4-1.5,7.5-1.9,12-1.9s8.2,0.8,11.6,1.9c3.4,1.1,6,3,8.2,5.2c2.2,2.2,4.1,5.2,5.2,9C1495.9,563.6,1496.6,567.7,1496.6,572.6
					L1496.6,572.6z M1484.3,573.3c0-3-0.4-5.6-0.8-8.2c-0.4-2.2-1.1-4.5-2.2-6.4s-2.6-3-4.5-4.1c-1.9-1.1-4.1-1.5-7.1-1.5
					c-3,0-5.2,0.4-7.1,1.5s-3.4,2.6-4.9,4.1c-1.1,1.9-1.9,3.7-2.6,6.4c-0.4,2.2-0.7,4.9-0.7,7.5c0,3,0.4,6,0.7,8.2
					c0.4,2.6,1.1,4.5,2.2,6.4s2.6,3,4.5,4.1c1.9,0.7,4.1,1.5,7.1,1.5c3,0,5.2-0.4,7.1-1.5s3.4-2.6,4.9-4.1c1.1-1.9,1.9-3.7,2.6-6.4
					C1483.9,578.6,1484.3,575.9,1484.3,573.3L1484.3,573.3z M1575.4,572.2c0,5.2-0.7,9.7-2.2,13.1c-1.5,3.7-3.4,6.7-6,9
					c-2.6,2.2-5.6,4.1-9.4,5.2s-8.2,1.5-13.1,1.5h-13.9c-1.1,0-1.9-0.4-2.6-0.7c-0.8-0.7-1.1-1.5-1.1-2.6v-49.1
					c0-1.1,0.4-2.2,1.1-2.6c0.7-0.7,1.5-0.7,2.6-0.7h15c5.2,0,9.7,0.7,13.1,1.9c3.7,1.1,6.7,3,9,5.2c2.6,2.2,4.5,5.2,5.6,8.6
					C1574.6,563.9,1575.4,568.1,1575.4,572.2L1575.4,572.2z M1563,572.9c0-2.6-0.4-5.2-1.1-7.5c-0.8-2.2-1.5-4.1-3-6
					c-1.5-1.5-3.4-3-5.6-4.1c-2.2-1.1-5.2-1.5-8.6-1.5h-6v38.2h6c3.4,0,6-0.4,8.2-1.1c2.2-0.7,4.1-1.9,5.6-3.7
					c1.5-1.5,2.6-3.7,3.4-6C1562.6,578.9,1563,575.9,1563,572.9L1563,572.9z M1630.5,597.3c0.4,1.1,0.8,1.9,0.8,2.6
					c0,0.8,0,1.1-0.4,1.5s-0.8,0.4-1.9,0.7c-0.8,0-1.9,0-3.4,0c-1.5,0-2.6,0-3.7,0c-0.7,0-1.5,0-1.9-0.4c-0.4,0-0.7-0.4-0.7-0.4
					c0-0.4-0.4-0.4-0.4-0.7l-3.7-11.2h-21.7l-3.7,10.9c0,0.4-0.4,0.7-0.4,1.1c0,0.4-0.4,0.4-0.7,0.7c-0.4,0-1.1,0.4-1.9,0.4
					c-0.8,0-1.9,0-3,0c-1.5,0-2.6,0-3.4,0c-0.8,0-1.5-0.4-1.5-0.7c-0.4-0.4-0.4-0.7-0.4-1.5c0-0.7,0.4-1.5,0.7-2.6l18-50.2
					c0-0.4,0.4-0.7,0.7-1.1c0.4-0.4,0.8-0.4,1.1-0.7c0.4,0,1.1-0.4,2.2-0.4c0.7,0,2.2,0,3.7,0c1.9,0,3,0,4.1,0c1.1,0,1.9,0,2.6,0.4
					c0.8,0,1.1,0.4,1.1,0.7c0.4,0.4,0.4,0.7,0.7,1.1L1630.5,597.3L1630.5,597.3z M1603.9,555.7L1603.9,555.7l-8.2,24h16.1
					L1603.9,555.7L1603.9,555.7z M1671,599.9c0,0.4,0,0.4-0.4,0.8c-0.4,0.4-0.4,0.4-1.1,0.7c-0.4,0-1.1,0.4-1.9,0.4s-1.9,0-3,0
					c-1.1,0-2.2,0-3,0c-0.8,0-1.5-0.4-1.9-0.4s-0.8-0.4-1.1-0.7c-0.4-0.4-0.4-0.4-0.4-0.8v-53.2c0-0.4,0-0.4,0.4-0.7
					c0.4-0.4,0.4-0.4,1.1-0.8c0.4,0,1.1-0.4,1.9-0.4c0.7,0,1.9,0,3,0c1.1,0,2.2,0,3,0c0.8,0,1.5,0.4,1.9,0.4s0.8,0.4,1.1,0.8
					c0.4,0.4,0.4,0.4,0.4,0.7V599.9L1671,599.9z M1731.7,597.3c0,0.7,0,1.1-0.4,1.9c-0.4,0.4-0.8,1.1-1.1,1.1
					c-0.4,0.4-0.7,0.7-1.5,0.7c-0.8,0-1.1,0.4-1.5,0.4h-4.9c-1.1,0-1.9,0-2.6-0.4c-0.7-0.4-1.5-0.7-2.2-1.1
					c-0.7-0.4-1.1-1.1-1.9-2.2c-0.7-0.7-1.1-2.2-1.9-3.4l-14.2-26.2c-0.7-1.5-1.5-3.4-2.6-5.2c-0.8-1.9-1.5-3.7-2.2-5.2l0,0
					c0,2.2,0.4,4.1,0.4,6.4s0,4.1,0,6.4v29.6c0,0.4,0,0.4-0.4,0.8c0,0.4-0.4,0.4-0.8,0.7c-0.4,0-1.1,0.4-1.5,0.4c-0.8,0-1.5,0-2.6,0
					c-1.1,0-1.9,0-2.6,0c-0.7,0-1.1-0.4-1.5-0.4s-0.7-0.4-0.7-0.7c0-0.4-0.4-0.4-0.4-0.8v-51c0-1.5,0.4-2.2,1.1-3
					c0.8-0.8,1.9-1.1,3-1.1h6.4c1.1,0,2.2,0,3,0.4c0.8,0.4,1.5,0.4,2.2,1.1c0.8,0.4,1.1,1.1,1.9,1.9c0.4,0.7,1.1,1.9,1.5,3
					l11.2,20.6c0.7,1.1,1.1,2.6,1.9,3.7s1.1,2.2,1.9,3.7c0.8,1.1,1.1,2.2,1.9,3.4c0.8,1.1,1.1,2.2,1.5,3.4l0,0c0-1.9,0-4.1-0.4-6.4
					c0-2.2,0-4.5,0-6.4v-26.6c0-0.4,0-0.4,0.4-0.7c0-0.4,0.4-0.4,0.8-0.7c0.4,0,1.1-0.4,1.5-0.4c0.8,0,1.5,0,2.6,0
					c1.1,0,1.9,0,2.6,0c0.7,0,1.1,0.4,1.5,0.4s0.8,0.4,0.8,0.7c0,0.4,0.4,0.4,0.4,0.7v50.6H1731.7z M1776.7,549.7c0,0.7,0,1.5,0,2.2
					c0,0.7-0.4,1.1-0.4,1.5c0,0.4-0.4,0.7-0.4,0.7c-0.4,0-0.4,0.4-0.8,0.4h-19.1v15.4h18c0.4,0,0.4,0,0.7,0.4c0.4,0,0.4,0.4,0.8,0.8
					c0,0.4,0.4,0.7,0.4,1.5c0,0.7,0,1.5,0,2.2s0,1.5,0,2.2s0,1.1-0.4,1.5c0,0.4-0.4,0.8-0.8,0.8c-0.4,0-0.4,0.4-0.7,0.4h-18v21
					c0,0.4,0,0.8-0.4,0.8c0,0.4-0.4,0.4-1.1,0.7c-0.4,0-1.1,0.4-1.9,0.4c-0.7,0-1.9,0-3,0c-1.1,0-2.2,0-3,0c-0.8,0-1.5-0.4-1.9-0.4
					s-0.8-0.4-1.1-0.7c-0.4-0.4-0.4-0.4-0.4-0.8v-51.4c0-1.1,0.4-2.2,1.1-2.6c0.8-0.8,1.5-0.8,2.6-0.8h27.4c0.4,0,0.4,0,0.8,0.4
					c0.4,0,0.4,0.4,0.4,0.7c0,0.4,0.4,0.7,0.4,1.5C1776.7,548.2,1776.7,548.9,1776.7,549.7L1776.7,549.7z M1837.8,572.6
					c0,4.5-0.7,9-1.9,12.7c-1.1,3.7-3,6.7-5.2,9.4c-2.2,2.6-5.2,4.5-8.6,6c-3.4,1.5-7.5,1.9-12,1.9s-8.6-0.7-11.6-1.9
					c-3.4-1.1-6-3-8.2-5.2s-3.7-5.2-4.9-9c-1.1-3.7-1.5-7.9-1.5-12.7c0-4.5,0.7-8.6,1.9-12.4c1.1-3.7,3-6.7,5.2-9.4
					c2.2-2.6,5.2-4.5,8.6-6c3.4-1.5,7.5-1.9,12-1.9s8.2,0.8,11.6,1.9c3.4,1.1,6,3,8.2,5.2c2.2,2.2,4.1,5.2,5.2,9
					C1837.1,563.6,1837.8,567.7,1837.8,572.6L1837.8,572.6z M1825.5,573.3c0-3-0.4-5.6-0.7-8.2c-0.4-2.2-1.1-4.5-2.2-6.4
					s-2.6-3-4.5-4.1c-1.9-1.1-4.1-1.5-7.1-1.5c-3,0-5.2,0.4-7.1,1.5s-3.4,2.6-4.9,4.1c-1.1,1.9-1.9,3.7-2.6,6.4
					c-0.4,2.2-0.8,4.9-0.8,7.5c0,3,0.4,6,0.8,8.2c0.4,2.6,1.1,4.5,2.2,6.4c1.1,1.9,2.6,3,4.5,4.1c1.9,0.7,4.5,1.5,7.1,1.5
					c3,0,5.2-0.4,7.1-1.5c1.9-1.1,3.4-2.6,4.9-4.1c1.1-1.9,1.9-3.7,2.6-6.4C1825.1,578.6,1825.5,575.9,1825.5,573.3L1825.5,573.3z
					 M1890.7,599.9c0,0.4,0,0.8,0,0.8c0,0.4-0.4,0.4-0.7,0.4s-1.1,0.4-1.9,0.4c-0.8,0-1.9,0-3.4,0c-1.1,0-2.2,0-3,0
					c-0.8,0-1.5,0-1.9-0.4c-0.4,0-0.8-0.4-0.8-0.7s-0.4-0.4-0.4-0.7l-5.2-12.7c-0.8-1.5-1.1-2.6-1.9-3.7c-0.8-1.1-1.1-1.9-1.9-2.6
					c-0.8-0.8-1.5-1.1-2.6-1.5c-1.1-0.4-2.2-0.7-3.4-0.7h-3.7v21.7c0,0.4,0,0.4-0.4,0.7c-0.4,0.4-0.4,0.4-1.1,0.7
					c-0.4,0-1.1,0.4-1.9,0.4c-0.7,0-1.9,0-3,0c-1.1,0-2.2,0-3,0c-0.8,0-1.5-0.4-1.9-0.4s-0.8-0.4-0.8-0.7c0-0.4-0.4-0.4-0.4-0.7
					v-51.4c0-1.1,0.4-2.2,1.1-2.6c0.8-0.7,1.5-0.7,2.6-0.7h15c1.5,0,2.6,0,3.7,0c1.1,0,1.9,0,2.6,0.4c2.2,0.4,4.5,0.7,6.4,1.5
					c1.9,0.7,3.4,1.9,4.9,3c1.1,1.1,2.2,2.6,3,4.5c0.8,1.9,1.1,3.7,1.1,6c0,1.9-0.4,3.7-0.8,5.2c-0.4,1.5-1.1,3-2.2,4.1
					c-1.1,1.1-2.2,2.2-3.4,3c-1.5,0.8-3,1.5-4.9,2.2c0.8,0.4,1.5,0.7,2.6,1.5c0.8,0.7,1.5,1.1,2.2,2.2c0.7,0.8,1.5,1.9,1.9,3
					c0.7,1.1,1.1,2.2,1.9,3.7l4.9,11.2c0.4,1.1,0.7,1.9,0.7,2.2C1890.7,599.2,1890.7,599.6,1890.7,599.9L1890.7,599.9z
					 M1875.3,561.7c0-1.9-0.4-3.4-1.1-4.9c-0.7-1.1-2.2-2.2-4.1-2.6c-0.8,0-1.1-0.4-1.9-0.4c-0.7,0-1.9,0-3,0h-5.2v16.1h6
					c1.5,0,3-0.4,4.5-0.7c1.1-0.4,2.2-0.7,3-1.5c0.7-0.7,1.5-1.5,1.9-2.6C1875.3,563.9,1875.3,562.8,1875.3,561.7L1875.3,561.7z
					 M1966.8,599.9c0,0.4,0,0.4-0.4,0.8c0,0.4-0.4,0.4-0.8,0.7c-0.4,0-1.1,0.4-1.9,0.4c-0.7,0-1.5,0-2.6,0c-1.1,0-1.9,0-2.6,0
					s-1.1-0.4-1.9-0.4c-0.4,0-0.8-0.4-0.8-0.7c0-0.4-0.4-0.4-0.4-0.8v-46.1l0,0l-16.9,46.1c0,0.4-0.4,0.8-0.8,1.1
					c-0.4,0.4-0.7,0.4-1.1,0.8c-0.4,0-1.1,0.4-1.9,0.4c-0.8,0-1.5,0-2.6,0c-1.1,0-1.9,0-2.6,0c-0.7,0-1.5-0.4-1.9-0.4
					s-0.7-0.4-1.1-0.8c-0.4-0.4-0.4-0.4-0.4-0.7l-16.1-46.1l0,0v46.1c0,0.4,0,0.4-0.4,0.7c0,0.4-0.4,0.4-0.8,0.8
					c-0.4,0-1.1,0.4-1.9,0.4c-0.7,0-1.5,0-2.6,0s-1.9,0-2.6,0s-1.1-0.4-1.9-0.4c-0.4,0-0.8-0.4-0.8-0.8c0-0.4-0.4-0.4-0.4-0.7v-50.2
					c0-1.5,0.4-2.6,1.1-3.4c0.8-0.7,1.9-1.1,3.4-1.1h7.9c1.5,0,2.6,0,3.4,0.4c1.1,0.4,1.9,0.7,2.6,1.1c0.8,0.4,1.5,1.1,1.9,1.9
					c0.4,0.7,0.7,1.9,1.1,3l12.4,33.7l0,0l13.1-33.7c0.4-1.1,0.7-2.2,1.1-3c0.4-0.8,1.1-1.5,1.5-1.9c0.8-0.4,1.5-0.7,2.2-1.1
					c0.8-0.4,1.9-0.4,3-0.4h7.9c0.7,0,1.5,0,2.2,0.4c0.7,0.4,1.1,0.4,1.5,0.7c0.4,0.4,0.8,0.7,0.8,1.5c0.4,0.7,0.4,1.1,0.4,1.9v49.9
					H1966.8z M2027.2,597.3c0.4,1.1,0.8,1.9,0.8,2.6c0,0.8,0,1.1-0.4,1.5s-0.8,0.4-1.9,0.7c-0.8,0-1.9,0-3.4,0c-1.5,0-2.6,0-3.7,0
					c-0.8,0-1.5,0-1.9-0.4c-0.4,0-0.7-0.4-0.7-0.4c0-0.4-0.4-0.4-0.4-0.7l-3.7-11.2h-21.7l-3.7,10.9c0,0.4-0.4,0.7-0.4,1.1
					c0,0.4-0.4,0.4-0.7,0.7c-0.4,0-1.1,0.4-1.9,0.4c-0.8,0-1.9,0-3,0c-1.5,0-2.6,0-3.4,0s-1.5-0.4-1.5-0.7c-0.4-0.4-0.4-0.7-0.4-1.5
					c0-0.7,0.4-1.5,0.7-2.6l18-50.2c0-0.4,0.4-0.7,0.7-1.1c0.4-0.4,0.8-0.4,1.1-0.7c0.4,0,1.1-0.4,2.2-0.4c0.7,0,2.2,0,3.7,0
					c1.9,0,3,0,4.1,0c1.1,0,1.9,0,2.6,0.4c0.7,0,1.1,0.4,1.1,0.7c0.4,0.4,0.4,0.7,0.8,1.1L2027.2,597.3L2027.2,597.3z M2000.6,555.7
					L2000.6,555.7l-8.2,24h16.1L2000.6,555.7L2000.6,555.7z M2062.4,604.4c0.4,1.1,1.1,2.2,1.1,3c0.4,0.7,0.4,1.5,0.4,2.6
					c0,1.5-0.4,2.6-0.8,3.4c-0.4,1.1-1.1,1.9-2.2,2.2c-0.7,0.7-1.9,1.1-3,1.5c-1.1,0.4-2.2,0.4-3.7,0.4c-1.1,0-2.6,0-3.7-0.4
					c-1.1,0-1.9-0.4-2.6-0.8c-0.7-0.4-1.1-0.4-1.5-0.4c-0.4,0-0.4-0.4-0.8-0.7c0-0.4-0.4-0.4-0.4-0.8c0-0.4,0-0.7,0-1.5
					c0-1.1,0-1.9,0.4-2.2c0.4-0.4,0.8-0.7,1.1-0.7h5.2c0.7,0,1.5,0,1.9-0.4c0.4-0.4,0.7-0.7,0.7-1.5c0-0.4,0-0.7-0.4-1.1
					c0-0.4-0.4-0.7-0.4-1.5l-1.5-3.4c-2.6-0.4-4.9-1.1-7.5-2.2c-2.2-1.1-4.5-2.6-6.7-4.9c-1.9-2.2-3.7-5.2-4.9-8.6
					c-1.1-3.4-1.9-7.5-1.9-12.4s0.8-9,1.9-12.7c1.5-3.7,3-6.7,5.6-9.4c2.2-2.6,5.2-4.5,8.6-5.6c3.4-1.1,6.7-1.9,10.9-1.9
					c1.5,0,3,0,4.5,0.4c1.5,0.4,3,0.7,4.1,1.1c1.1,0.4,2.2,0.7,3.4,1.5c1.1,0.7,1.9,1.1,2.2,1.5c0.4,0.4,0.8,0.7,0.8,1.1
					c0,0.4,0.4,0.7,0.4,1.1c0,0.4,0,0.7,0.4,1.5c0,0.4,0,1.1,0,1.9c0,0.8,0,1.5,0,2.2s0,1.1-0.4,1.5c0,0.4-0.4,0.7-0.4,0.7
					c-0.4,0-0.4,0.4-0.8,0.4c-0.4,0-1.1-0.4-1.9-0.7c-0.8-0.4-1.5-1.1-2.6-1.9s-2.2-1.1-3.7-1.9c-1.5-0.4-3.4-0.7-5.2-0.7
					c-2.2,0-4.5,0.4-6,1.5c-1.9,0.8-3.4,2.2-4.5,3.7c-1.1,1.9-2.2,3.7-3,6c-0.7,2.2-1.1,5.2-1.1,8.2c0,3.4,0.4,6.4,1.1,8.6
					c0.8,2.2,1.9,4.5,3,6c1.1,1.5,3,2.6,4.9,3.4c1.9,0.7,3.7,1.1,6.4,1.1c1.9,0,3.7-0.4,5.2-0.7c1.5-0.4,3-1.1,4.1-1.5
					c1.1-0.7,1.9-1.1,2.6-1.5c0.8-0.4,1.1-0.8,1.5-0.8c0.4,0,0.4,0,0.8,0c0,0,0.4,0.4,0.4,0.8c0,0.4,0.4,0.7,0.4,1.5
					c0,0.7,0,1.5,0,2.6c0,0.8,0,1.5,0,1.9c0,0.4,0,1.1-0.4,1.5c0,0.4-0.4,0.7-0.4,1.1c0,0.4-0.4,0.4-0.8,0.7
					c-0.4,0.4-1.1,0.8-1.9,1.1c-1.1,0.4-1.9,1.1-3,1.5c-1.1,0.4-2.2,0.7-3.4,1.1c-1.1,0.4-2.2,0.4-3.4,0.4L2062.4,604.4
					L2062.4,604.4z M2130.3,597.3c0.4,1.1,0.8,1.9,0.8,2.6c0,0.8,0,1.1-0.4,1.5c-0.4,0.4-0.8,0.4-1.9,0.7c-0.8,0-1.9,0-3.4,0
					c-1.5,0-2.6,0-3.7,0c-0.7,0-1.5,0-1.9-0.4c-0.4,0-0.7-0.4-0.7-0.4c0-0.4-0.4-0.4-0.4-0.7l-3.7-11.2h-22.1l-3.7,10.9
					c0,0.4-0.4,0.7-0.4,1.1c0,0.4-0.4,0.4-0.8,0.7c-0.4,0-1.1,0.4-1.9,0.4s-1.9,0-3,0c-1.5,0-2.6,0-3.4,0s-1.5-0.4-1.5-0.7
					c-0.4-0.4-0.4-0.7-0.4-1.5c0-0.7,0.4-1.5,0.8-2.6l18-50.2c0-0.4,0.4-0.7,0.8-1.1c0.4-0.4,0.8-0.4,1.1-0.7c0.4,0,1.1-0.4,2.2-0.4
					c0.7,0,2.2,0,3.7,0c1.9,0,3,0,4.1,0s1.9,0,2.6,0.4c0.8,0,1.1,0.4,1.1,0.7c0.4,0.4,0.4,0.7,0.8,1.1L2130.3,597.3L2130.3,597.3z
					 M2103.7,555.7L2103.7,555.7l-8.2,24h16.1L2103.7,555.7L2103.7,555.7z M2113.4,530.2c0-0.4,0.4-0.7,0.8-0.7s1.5-0.4,2.6-0.4
					c1.5,0,2.2,0,2.6,0.4c0.4,0.4,0.8,0.7,0.8,1.5c0,3.4-0.8,6-2.6,7.5c-1.5,1.9-4.1,2.6-7.1,2.6c-1.9,0-3-0.4-4.5-0.7
					c-1.1-0.4-2.2-1.1-3-1.5c-0.8-0.4-1.9-1.1-2.6-1.5s-1.5-0.7-2.6-0.7c-1.1,0-1.9,0.4-2.2,0.7c-0.4,0.4-0.8,1.5-0.8,2.2
					c0,0.4,0,0.4-0.4,0.7c0,0-0.4,0.4-0.8,0.4s-0.8,0-1.1,0c-0.4,0-1.1,0-1.5,0c-1.5,0-2.2,0-2.6-0.4c-0.4-0.4-0.8-0.7-0.8-1.5
					c0-1.5,0.4-3,0.8-4.5c0.4-1.1,1.1-2.2,1.9-3.4c0.8-0.7,1.9-1.5,3-1.9c1.1-0.4,2.6-0.7,4.1-0.7c1.9,0,3,0.4,4.5,0.7
					c1.1,0.4,2.2,1.1,3,1.5c0.8,0.4,1.9,1.1,2.6,1.5c0.8,0.4,1.5,0.7,2.6,0.7c0.8,0,1.5-0.4,1.9-0.7
					C2113,532.1,2113.4,531.3,2113.4,530.2z"/>
				<path id="XMLID_43_" fill="#9D9D9C" d="M2189.2,572.6c0,4.5-0.8,9-1.9,12.7s-3,6.7-5.2,9.4c-2.2,2.6-5.2,4.5-8.6,6
					c-3.4,1.5-7.5,1.9-12,1.9s-8.6-0.7-11.6-1.9c-3.4-1.1-6-3-8.2-5.2c-2.2-2.2-3.7-5.2-4.9-9c-1.1-3.7-1.5-7.9-1.5-12.7
					c0-4.5,0.8-8.6,1.9-12.4c1.1-3.7,3-6.7,5.2-9.4c2.2-2.6,5.2-4.5,8.6-6c3.4-1.5,7.5-1.9,12-1.9s8.2,0.8,11.6,1.9
					c3.4,1.1,6,3,8.2,5.2c2.2,2.2,4.1,5.2,5.2,9C2188.8,563.6,2189.2,567.7,2189.2,572.6L2189.2,572.6z M2176.8,573.3
					c0-3-0.4-5.6-0.7-8.2c-0.4-2.2-1.1-4.5-2.2-6.4s-2.6-3-4.5-4.1c-1.9-1.1-4.1-1.5-7.1-1.5s-5.2,0.4-7.1,1.5s-3.4,2.6-4.9,4.1
					c-1.1,1.9-1.9,3.7-2.6,6.4c-0.4,2.2-0.8,4.9-0.8,7.5c0,3,0.4,6,0.8,8.2c0.4,2.6,1.1,4.5,2.2,6.4s2.6,3,4.5,4.1
					c1.9,0.7,4.1,1.5,7.1,1.5c3,0,5.2-0.4,7.1-1.5s3.4-2.6,4.9-4.1c1.1-1.9,1.9-3.7,2.6-6.4C2176.4,578.6,2176.8,575.9,2176.8,573.3
					L2176.8,573.3z M2254,596.9c0,0.7,0,1.5,0,2.2s0,1.1-0.4,1.5c0,0.4-0.4,0.7-0.8,0.7c-0.4,0-0.4,0.4-0.8,0.4h-29.2
					c-1.1,0-1.9-0.4-2.6-0.8c-0.8-0.7-1.1-1.5-1.1-2.6v-49.1c0-1.1,0.4-2.2,1.1-2.6c0.8-0.7,1.5-0.7,2.6-0.7h28.9
					c0.4,0,0.4,0,0.8,0.4c0.4,0,0.4,0.4,0.4,0.8c0,0.4,0.4,0.7,0.4,1.5c0,0.7,0,1.1,0,2.2c0,0.7,0,1.5,0,2.2c0,0.7,0,1.1-0.4,1.5
					c0,0.4-0.4,0.7-0.4,0.7c-0.4,0-0.4,0.4-0.8,0.4h-20.2v13.9h17.6c0.4,0,0.4,0,0.8,0.4c0.4,0,0.4,0.4,0.8,0.7
					c0,0.4,0.4,0.7,0.4,1.5c0,0.7,0,1.1,0,1.9s0,1.5,0,2.2c0,0.4,0,1.1-0.4,1.5c0,0.4-0.4,0.7-0.8,0.7c-0.4,0-0.4,0.4-0.8,0.4h-17.6
					v15.7h21c0.4,0,0.4,0,0.8,0.4c0.4,0,0.4,0.4,0.7,0.7c0,0.4,0.4,0.8,0.4,1.5C2254,595.4,2254,596.2,2254,596.9L2254,596.9z
					 M2333.5,572.2c0,5.2-0.8,9.7-2.2,13.1c-1.5,3.7-3.4,6.7-6,9c-2.6,2.2-5.6,4.1-9.4,5.2s-8.2,1.5-13.1,1.5h-13.9
					c-1.1,0-1.9-0.4-2.6-0.7c-0.7-0.7-1.1-1.5-1.1-2.6v-49.1c0-1.1,0.4-2.2,1.1-2.6c0.8-0.7,1.5-0.7,2.6-0.7h15
					c5.2,0,9.4,0.7,13.1,1.9s6.7,3,9,5.2c2.6,2.2,4.5,5.2,5.6,8.6C2332.8,563.9,2333.5,568.1,2333.5,572.2L2333.5,572.2z
					 M2321.5,572.9c0-2.6-0.4-5.2-1.1-7.5c-0.8-2.2-1.5-4.1-3-6c-1.5-1.5-3.4-3-5.6-4.1c-2.2-1.1-5.2-1.5-8.6-1.5h-6v38.2h6
					c3.4,0,6-0.4,8.2-1.1c2.2-0.7,4.1-1.9,5.6-3.7c1.5-1.5,2.6-3.7,3.4-6C2321.1,578.9,2321.5,575.9,2321.5,572.9L2321.5,572.9z
					 M2395.4,572.6c0,4.5-0.8,9-1.9,12.7s-3,6.7-5.2,9.4c-2.2,2.6-5.2,4.5-8.6,6c-3.4,1.5-7.5,1.9-12,1.9s-8.6-0.7-11.6-1.9
					c-3.4-1.1-6-3-8.2-5.2c-2.2-2.2-3.7-5.2-4.9-9c-1.1-3.7-1.5-7.9-1.5-12.7c0-4.5,0.7-8.6,1.9-12.4c1.1-3.7,3-6.7,5.2-9.4
					c2.2-2.6,5.2-4.5,8.6-6c3.4-1.5,7.5-1.9,12-1.9s8.2,0.8,11.6,1.9c3.4,1.1,6,3,8.2,5.2c2.2,2.2,4.1,5.2,5.2,9
					C2394.6,563.6,2395.4,567.7,2395.4,572.6L2395.4,572.6z M2383,573.3c0-3-0.4-5.6-0.8-8.2c-0.4-2.2-1.1-4.5-2.2-6.4
					c-1.1-1.9-2.6-3-4.5-4.1c-1.9-1.1-4.1-1.5-7.1-1.5c-3,0-5.2,0.4-7.1,1.5s-3.4,2.6-4.9,4.1c-1.1,1.9-1.9,3.7-2.6,6.4
					c-0.4,2.2-0.8,4.9-0.8,7.5c0,3,0.4,6,0.8,8.2c0.4,2.6,1.1,4.5,2.2,6.4c1.1,1.9,2.6,3,4.5,4.1c1.9,0.7,4.5,1.5,7.1,1.5
					c3,0,5.2-0.4,7.1-1.5s3.4-2.6,4.9-4.1c1.1-1.9,1.9-3.7,2.6-6.4C2382.6,578.6,2383,575.9,2383,573.3z"/>
			</g>
			<path id="XMLID_41_" fill="#9D9D9C" d="M1075.2,419.9V184.1h-44.2v-4.5h46.1h46.1v4.5h-43.5v235.8h47.2v4.5h-49.9h-50.2v-4.5
				H1075.2L1075.2,419.9z M1117.2,387.3V216h37.1v-24v-21.4V147h-77.6h-77.6v23.6V192v24h37.1v171.4h-40.5v18v16.5v16.5v18.7h80.6
				h80.6v-18.7v-16.5v-16.5v-18H1117.2z"/>
			<path id="XMLID_40_" fill="#9D9D9C" d="M791.3,362.2h-26.6h-25.5H713c0,15,2.6,28.5,8.2,40.1c5.6,11.6,13.5,21.7,23.2,30
				c9.7,8.2,21.4,15,34.1,19.9c12.7,4.9,26.2,8.2,40.5,9.7s28.5,1.5,42.7,0c14.2-1.5,27.7-4.9,40.9-10.1
				c12.7-4.9,24.4-11.2,34.5-19.5c10.1-8.2,18-18,23.6-29.2c5.6-11.2,8.6-24.4,9-38.6c0-15.4-2.6-28.1-6.7-38.6
				c-4.5-10.5-10.9-18.7-18.7-25.1c-8.2-6.4-17.2-11.6-27.7-15c-10.5-3.7-21.7-6.4-34.1-8.2c-12-1.9-24.4-3.4-37.1-4.5
				c-7.1-0.7-13.9-1.9-20.2-3s-11.6-3-16.5-5.2c-4.9-2.2-8.2-5.2-10.5-9c-2.6-3.7-3.4-8.6-3-14.2c0.4-5.2,2.2-9.7,5.6-13.5
				c3.4-4.1,7.5-7.1,12.7-9.4c5.2-2.6,10.9-4.1,17.2-4.9c6.4-1.1,12.4-1.1,18.4-0.4c6,0.7,11.6,2.2,16.9,4.5
				c5.2,2.2,9.4,5.6,12.4,9.7s4.5,9,4.5,15h25.9h24.7h26.6c0-14.6-2.6-28.1-7.9-39.7c-5.2-11.6-12.7-21.4-22.1-29.6
				c-9.4-8.2-20.2-15-32.6-19.9s-25.1-8.2-38.6-10.1c-13.5-1.5-27-1.5-40.9,0c-13.5,1.5-26.2,4.9-38.6,10.1
				c-12.4,4.9-22.9,11.6-32.2,19.9c-9.4,8.2-16.9,18.4-22.1,29.6c-5.2,11.6-7.9,24.7-7.5,39.7c0.4,16.9,3,30.7,8.6,42.7
				c5.6,11.6,13.5,21,23.6,28.5c10.1,7.1,22.1,13.1,36.4,16.9c13.9,3.7,29.6,6.4,46.9,7.5c7.9,0.4,15.4,1.1,22.5,1.9
				c7.1,0.7,13.1,2.2,18.4,4.1c5.2,1.9,9.4,4.5,12.4,7.9c3,3.4,4.5,7.9,4.5,13.1s-1.9,9.7-5.6,13.1c-3.4,3.7-8.2,6.7-14.2,9
				c-6,2.2-12.4,3.7-19.5,4.5c-7.1,0.7-14.2,0.7-21.4,0c-7.1-0.7-13.5-2.2-19.5-4.9c-6-2.2-10.5-5.6-14.2-9.4
				C793.2,372.3,791.3,367.8,791.3,362.2L791.3,362.2z M910.6,213.7c-4.9-7.9-11.2-14.2-19.1-19.5c-7.9-5.2-16.5-9-25.9-11.2
				s-19.1-3.4-29.2-3c-10.1,0-19.5,1.9-28.9,4.5s-17.6,6.7-24.7,12c-7.5,5.2-13.1,11.6-17.6,19.5c-4.1,7.5-6.4,16.5-6.4,26.2
				c0,12.4,2.2,22.1,6.4,30c4.1,7.5,10.1,13.5,17.6,17.6c7.5,4.1,16.1,7.1,25.9,8.6c9.7,1.9,20.2,3,31.5,3.7
				c9.4,0.7,18.4,1.5,27.4,2.6c9,1.1,17.2,3,25.1,5.2c7.9,2.2,14.6,5.6,20.6,10.1c6,4.5,10.5,10.1,13.9,17.2
				c3.4,7.1,4.9,16.1,5.2,27.4c0,10.9-2.6,20.2-7.9,28.5c-5.2,8.2-12.4,15-21,20.6c-8.6,5.6-18.7,9.7-29.6,12.7
				c-10.9,2.6-22.1,4.1-33.7,4.1c-11.6,0-22.9-1.5-33.4-4.5c-10.9-3-20.2-7.1-28.9-13.1c-8.6-6-15.4-13.5-19.9-22.5h5.6
				c5.2,7.9,12,14.6,20.2,19.9c8.2,5.2,17.6,9,27.7,11.6s20.6,3.7,31.5,3.4c10.9,0,21-1.5,31.1-4.1s19.1-6.7,27-12
				c7.9-5.2,14.2-11.6,19.1-19.1c4.5-7.5,7.1-16.1,7.1-25.9c0-10.5-1.5-19.5-4.9-26.2c-3.4-6.7-7.5-12.4-13.5-16.1
				c-5.6-4.1-12-6.7-19.9-9c-7.5-1.9-15.4-3.4-24-4.1c-8.6-0.7-17.2-1.5-26.2-1.9c-11.6-0.7-22.5-2.2-32.6-4.1
				c-10.1-1.9-19.1-5.2-27-9.7c-7.9-4.5-13.9-10.9-18.4-18.7c-4.5-8.2-7.1-18.7-7.5-31.9c0-10.9,2.2-20.2,6.7-28.5
				c4.5-8.2,10.9-15.4,19.1-21c8.2-5.6,17.2-9.7,27.4-12.7c10.1-3,20.6-4.5,31.5-4.9c10.9-0.4,21.4,1.1,31.5,3.7s19.5,7.1,27.7,12.7
				s15,13.1,19.9,22.1h-6.7V213.7z"/>
			<path id="XMLID_39_" fill="#9D9D9C" d="M1946.2,197.6h-0.4L1860.3,378h172.1L1946.2,197.6z M1945.8,275.2l33.8,71.2h-66.4
				L1945.8,275.2z M1963.4,142.9h-34.9l-143.2,302.2v11.6h79.5l18.8-39h125.6l18.4,39h79.5v-11.6L1963.4,142.9z M2055.7,426.7
				l-21-43.9h-175.9l-21.4,43.9h-6l113.2-238.5h2.6l114,238.5H2055.7z M1945.8,197.6L1860.3,378h172.1l-86.2-180.4H1945.8z
				 M1913.2,346.5l32.6-71.2l33.8,71.2H1913.2z M1946.2,197.6h-0.4L1860.3,378h172.1L1946.2,197.6z M1945.8,275.2l33.8,71.2h-66.4
				L1945.8,275.2z"/>
			<path id="XMLID_38_" fill="#9D9D9C" d="M1600.1,362.2h-26.6H1548h-26.2c0,15,2.6,28.5,8.2,40.1c5.6,11.6,13.5,21.7,23.2,30
				c9.7,8.2,21.4,15,34.1,19.9c12.7,4.9,26.2,8.2,40.5,9.7s28.5,1.5,42.7,0s27.7-4.9,40.9-10.1c12.7-4.9,24.4-11.2,34.5-19.5
				c10.1-8.2,18-18,23.6-29.2s8.6-24.4,9-38.6c0-15.4-2.6-28.1-6.7-38.6c-4.5-10.5-10.9-18.7-18.7-25.1c-8.2-6.4-17.2-11.6-27.7-15
				c-10.5-3.7-21.7-6.4-34.1-8.2c-12-1.9-24.4-3.4-37.1-4.5c-7.1-0.7-13.9-1.9-20.2-3s-11.6-3-16.5-5.2c-4.9-2.2-8.2-5.2-10.5-9
				c-2.6-3.7-3.4-8.6-3-14.2c0.4-5.2,2.2-9.7,5.6-13.5c3.4-4.1,7.5-7.1,12.7-9.4c5.2-2.6,10.9-4.1,17.2-4.9
				c6.4-1.1,12.4-1.1,18.4-0.4s11.6,2.2,16.9,4.5c5.2,2.2,9.4,5.6,12.4,9.7c3,4.1,4.5,9,4.5,15h25.9h24.7h26.6
				c0-14.6-2.6-28.1-7.9-39.7c-5.2-11.6-12.7-21.4-22.1-29.6c-9.4-8.2-20.2-15-32.6-19.9c-12.4-4.9-25.1-8.2-38.6-10.1
				c-13.5-1.5-27-1.5-40.9,0c-13.5,1.5-26.2,4.9-38.6,10.1c-12.4,4.9-22.9,11.6-32.2,19.9c-9.4,8.2-16.9,18.4-22.1,29.6
				c-5.2,11.6-7.9,24.7-7.5,39.7c0.4,16.9,3,30.7,8.6,42.7c5.6,11.6,13.5,21,23.6,28.5c10.1,7.1,22.1,13.1,36.4,16.9
				c13.9,3.7,29.6,6.4,46.9,7.5c7.9,0.4,15.4,1.1,22.5,1.9c7.1,0.7,13.1,2.2,18.4,4.1c5.2,1.9,9.4,4.5,12.4,7.9
				c3,3.4,4.5,7.9,4.5,13.1s-1.9,9.7-5.6,13.1c-3.4,3.7-8.2,6.7-14.2,9c-6,2.2-12.4,3.7-19.5,4.5c-7.1,0.7-14.2,0.7-21.4,0
				c-7.1-0.7-13.5-2.2-19.5-4.9c-6-2.2-10.5-5.6-14.2-9.4C1602,372.3,1600.1,367.8,1600.1,362.2L1600.1,362.2z M1719.7,213.7
				c-4.9-7.9-11.2-14.2-19.1-19.5c-7.9-5.2-16.5-9-25.9-11.2c-9.4-2.2-19.1-3.4-29.2-3c-10.1,0-19.5,1.9-28.9,4.5s-17.6,6.7-24.7,12
				c-7.5,5.2-13.1,11.6-17.6,19.5c-4.1,7.5-6.4,16.5-6.4,26.2c0,12.4,2.2,22.1,6.4,30c4.1,7.5,10.1,13.5,17.6,17.6
				c7.5,4.1,16.1,7.1,25.9,8.6c9.7,1.9,20.2,3,31.5,3.7c9.4,0.7,18.4,1.5,27.4,2.6c9,1.1,17.2,3,25.1,5.2
				c7.9,2.2,14.6,5.6,20.6,10.1c6,4.5,10.5,10.1,13.9,17.2c3.4,7.1,4.9,16.1,5.2,27.4c0,10.9-2.6,20.2-7.9,28.5
				c-5.2,8.2-12.4,15-21,20.6c-8.6,5.6-18.7,9.7-29.6,12.7c-10.9,2.6-22.1,4.1-33.7,4.1s-22.9-1.5-33.4-4.5
				c-10.9-3-20.2-7.1-28.9-13.1s-15.4-13.5-19.9-22.5h5.6c5.2,7.9,12,14.6,20.2,19.9c8.2,5.2,17.6,9,27.7,11.6
				c10.1,2.6,20.6,3.7,31.5,3.4c10.9,0,21-1.5,31.1-4.1c10.1-2.6,19.1-6.7,27-12c7.9-5.2,14.2-11.6,19.1-19.1
				c4.5-7.5,7.1-16.1,7.1-25.9c0-10.5-1.5-19.5-4.9-26.2c-3.4-6.7-7.5-12.4-13.5-16.1c-5.6-4.1-12-6.7-19.9-9
				c-7.5-1.9-15.4-3.4-24-4.1c-8.6-0.7-17.2-1.5-26.2-1.9c-11.6-0.7-22.5-2.2-32.6-4.1c-10.1-1.9-19.1-5.2-27-9.7
				s-13.9-10.9-18.4-18.7c-4.5-8.2-7.1-18.7-7.5-31.9c0-10.9,2.2-20.2,6.7-28.5c4.5-8.2,10.9-15.4,19.1-21s17.2-9.7,27.4-12.7
				c10.1-3,20.6-4.5,31.5-4.9c10.9-0.4,21.4,1.1,31.5,3.7c10.1,2.6,19.5,7.1,27.7,12.7c8.2,5.6,15,13.1,19.9,22.1h-6.7V213.7z"/>
			<path id="XMLID_37_" fill="#9D9D9C" d="M2278.4,183h-97.1v114.7h93.7c31.1,0,56.2-27,56.2-58.9
				C2331.3,211.8,2309.1,181.9,2278.4,183z M2261.9,267h-48l0.8-51.4h58.5c8.3,0,19.5,13.5,19.5,21.8
				C2294.1,254.2,2278.4,267,2261.9,267z M2287,305.2h-106.1v114.7h102c34.5-0.4,60.8-27.4,60.8-58.9
				C2343.6,334.1,2320.4,304.1,2287,305.2z M2269,388.8h-52.9l1.1-51.4h63.7c9.4,0,21.4,13.5,21.4,21.8
				C2304.3,376.1,2287,388.8,2269,388.8z M2287,305.2h-106.1v114.7h102c34.5-0.4,60.8-27.4,60.8-58.9
				C2343.6,334.1,2320.4,304.1,2287,305.2z M2269,388.8h-52.9l1.1-51.4h63.7c9.4,0,21.4,13.5,21.4,21.8
				C2304.3,376.1,2287,388.8,2269,388.8z M2278.4,183h-97.1v114.7h93.7c31.1,0,56.2-27,56.2-58.9
				C2331.3,211.8,2309.1,181.9,2278.4,183z M2261.9,267h-48l0.8-51.4h58.5c8.3,0,19.5,13.5,19.5,21.8
				C2294.1,254.2,2278.4,267,2261.9,267z M2278.4,183h-97.1v114.7h93.7c31.1,0,56.2-27,56.2-58.9
				C2331.3,211.8,2309.1,181.9,2278.4,183z M2261.9,267h-48l0.8-51.4h58.5c8.3,0,19.5,13.5,19.5,21.8
				C2294.1,254.2,2278.4,267,2261.9,267z M2287,305.2h-106.1v114.7h102c34.5-0.4,60.8-27.4,60.8-58.9
				C2343.6,334.1,2320.4,304.1,2287,305.2z M2269,388.8h-52.9l1.1-51.4h63.7c9.4,0,21.4,13.5,21.4,21.8
				C2304.3,376.1,2287,388.8,2269,388.8z M2287,305.2h-106.1v114.7h102c34.5-0.4,60.8-27.4,60.8-58.9
				C2343.6,334.1,2320.4,304.1,2287,305.2z M2269,388.8h-52.9l1.1-51.4h63.7c9.4,0,21.4,13.5,21.4,21.8
				C2304.3,376.1,2287,388.8,2269,388.8z M2331.3,238.8c0-27-22.1-57-52.9-55.9h-97.1v114.7h93.7
				C2306.1,297.7,2331.3,270.7,2331.3,238.8z M2213.9,267l0.8-51.4h58.5c8.3,0,19.5,13.5,19.5,21.8c1.5,16.9-14.3,29.6-30.7,29.6
				H2213.9z M2350,295.8c0.8-4.5,35.3-30.7,21.4-82.9c-7.5-26.3-33.4-66-90-66.7h-134.2c-2.6,0-7.5-0.8-10.1,0.8l-0.8,308.6
				c4.5,1.9,125.2,0.8,147.3,0.8c47.6,0.4,99.4-20.6,104.2-74.6C2389.8,361.8,2391.6,318.7,2350,295.8z M2284.4,425.9
				c-22.1,0-107.6-0.8-110.2,0c0-10.9,0.8-157.1,0.8-186v-62.2h7.5c15.7,0,73.1-0.8,97.1,0c37.9,0.8,55.5,28.9,57.4,57
				c0.8,17.3-5.6,36-17.6,49.5c-6.8,6.4-18.7,13.5-27.7,16.1c5.6,0.8,13.9,1.9,19.5,3.8c27.8,10.9,39,34.1,39,55.9
				C2350,397.8,2320.4,425.9,2284.4,425.9z M2287,305.2h-106.1v114.7h102c34.5-0.4,60.8-27.4,60.8-58.9
				C2343.6,334.1,2320.4,304.1,2287,305.2z M2269,388.8h-52.9l1.1-51.4h63.7c9.4,0,21.4,13.5,21.4,21.8
				C2304.3,376.1,2287,388.8,2269,388.8z M2331.3,238.8c0-27-22.1-57-52.9-55.9h-97.1v114.7h93.7
				C2306.1,297.7,2331.3,270.7,2331.3,238.8z M2213.9,267l0.8-51.4h58.5c8.3,0,19.5,13.5,19.5,21.8c1.5,16.9-14.3,29.6-30.7,29.6
				H2213.9z"/>
			<path id="XMLID_36_" fill="#9D9D9C" d="M1340.3,141.7c37.1,0,71.6,12,99,33c34.1,26.2,45,50.6,54,81.7h-83.6
				c-14.2-26.2-39.7-43.9-69.4-43.9c-44.6,0-80.6,40.1-80.6,90c0,17.2,3.7,33.7,12.7,47.6c4.9,7.5,10.9,15.7,17.6,21.7
				c24,21.7,68.2,30.4,97.9,6.7l-54.4,0.4v-18.7v-16.5v-16.5v-18c54,0,108.4,0,162.4-0.4v18c-2.2,32.6-6.4,52.1-30.4,79.9
				c-30,35.2-78.4,56.6-125.2,56.6c-90,0-162.7-72-162.7-160.9C1177.2,213.7,1250.3,141.7,1340.3,141.7L1340.3,141.7z M1455.4,340.8
				h-91.9v6h84.7l0,0l0,0l0,0l0,0l0,0l0,0l0,0l0,0l0,0l0,0l0,0l0,0l0,0l0,0l0,0l0,0l0,0l0,0l0,0l0,0l0,0l0,0l0,0l0,0l0,0l0,0l0,0
				l0,0l0,0l0,0l0,0l0,0l0,0l0,0l0,0l0,0l0,0l0,0l0,0l0,0l0,0l0,0l0,0l0,0l0,0l0,0l0,0l0,0l0,0l0,0l0,0l0,0l0,0l0,0l0,0l0,0l0,0l0,0
				c-7.9,45.7-63.7,75.4-107.2,75.4c-65.6,0-118.5-54.4-118.5-121.5s52.9-121.5,118.5-121.5c27,0,52.1,9,72,25.1
				c10.9,8.6,18.4,16.9,24,25.5h7.5c-6.4-10.5-15-20.2-27.7-30.7c-21-16.9-47.6-26.2-76.5-26.2c-69.4,0-125.6,57.4-125.6,128.2
				s56.2,128.2,125.6,128.2C1387.1,430.8,1455.4,393.3,1455.4,340.8z"/>
			<g id="XMLID_2_">
				<path id="XMLID_35_" fill="#9D9D9C" d="M750.8,698.9c0,0.7,0,1.5,0,1.9c0,0.4,0,1.1-0.4,1.1c0,0.4-0.4,0.8-0.4,1.1
					c0,0.4-0.4,0.4-0.7,0.8c-0.4,0.4-1.1,0.7-1.9,1.1c-1.1,0.4-2.2,1.1-3.4,1.5c-1.5,0.4-3,0.7-4.5,1.1c-1.9,0.4-3.7,0.4-5.6,0.4
					c-4.1,0-7.5-0.8-10.9-1.9s-6-3-8.2-5.2c-2.2-2.2-4.1-5.2-5.2-9c-1.1-3.4-1.9-7.5-1.9-12.4c0-4.9,0.7-9,1.9-12.7
					c1.5-3.7,3-6.7,5.6-9.4c2.2-2.6,5.2-4.5,8.6-5.6c3.4-1.1,6.7-1.9,10.9-1.9c1.5,0,3,0,4.5,0.4c1.5,0.4,3,0.7,4.1,1.1
					c1.1,0.4,2.2,0.7,3.4,1.5c1.1,0.7,1.9,1.1,2.2,1.5c0.4,0.4,0.7,0.7,0.7,1.1c0,0.4,0.4,0.7,0.4,1.1c0,0.4,0,0.7,0.4,1.5
					c0,0.4,0,1.1,0,1.9s0,1.5,0,2.2c0,0.7,0,1.1-0.4,1.5c0,0.4-0.4,0.7-0.4,0.7c-0.4,0-0.4,0.4-0.7,0.4s-1.1-0.4-1.9-0.7
					c-0.7-0.4-1.5-1.1-2.6-1.9c-1.1-0.8-2.2-1.1-3.7-1.9c-1.5-0.4-3.4-0.7-5.2-0.7c-2.2,0-4.5,0.4-6,1.5c-1.9,0.7-3.4,2.2-4.5,3.7
					c-1.1,1.9-2.2,3.7-3,6s-1.1,5.2-1.1,8.2c0,3.4,0.4,6,1.1,8.6c0.7,2.2,1.9,4.5,3,6c1.1,1.5,3,2.6,4.9,3.4
					c1.9,0.8,3.7,1.1,6.4,1.1c2.2,0,3.7-0.4,5.2-0.7c1.5-0.4,3-1.1,3.7-1.5c1.1-0.8,1.9-1.1,2.6-1.5c0.7-0.4,1.1-0.7,1.5-0.7
					c0.4,0,0.4,0,0.7,0c0,0,0.4,0.4,0.4,0.7s0.4,0.7,0.4,1.5C750.8,697,750.8,698.2,750.8,698.9L750.8,698.9z M810.8,678.7
					c0,4.5-0.7,9-1.9,12.7c-1.1,3.7-3,6.7-5.2,9.4c-2.2,2.6-5.2,4.5-8.6,6c-3.4,1.5-7.5,1.9-12,1.9s-8.6-0.8-11.6-1.9
					c-3.4-1.1-6-3-8.2-5.2c-2.2-2.2-3.7-5.2-4.9-9c-1.1-3.7-1.5-7.9-1.5-12.7c0-4.5,0.7-8.6,1.9-12.4s3-6.7,5.2-9.4
					c2.2-2.6,5.2-4.5,8.6-6c3.4-1.5,7.5-1.9,12-1.9c4.5,0,8.2,0.7,11.6,1.9c3.4,1.1,6,3,8.2,5.2c2.2,2.2,4.1,5.2,5.2,9
					C810.1,669.7,810.8,673.8,810.8,678.7L810.8,678.7z M798.5,679.4c0-3-0.4-5.6-0.7-8.2c-0.4-2.2-1.1-4.5-2.2-6.4s-2.6-3-4.5-4.1
					c-1.9-1.1-4.1-1.5-7.1-1.5c-3,0-5.2,0.4-7.1,1.5s-3.4,2.6-4.9,4.1c-1.1,1.9-1.9,3.7-2.6,6.4c-0.4,2.2-0.7,4.9-0.7,7.5
					c0,3,0.4,6,0.7,8.2c0.4,2.6,1.1,4.5,2.2,6.4s2.6,3,4.5,4.1c1.9,0.7,4.5,1.5,7.1,1.5c3,0,5.2-0.4,7.1-1.5s3.4-2.6,4.9-4.1
					c1.1-1.9,1.9-3.7,2.6-6.4C798.1,684.7,798.5,682,798.5,679.4L798.5,679.4z M868.6,703.4c0,0.7,0,1.1-0.4,1.9
					c-0.4,0.4-0.7,1.1-1.1,1.5c-0.4,0.4-0.7,0.7-1.5,0.7s-1.1,0.4-1.5,0.4h-4.9c-1.1,0-1.9,0-2.6-0.4c-0.7-0.4-1.5-0.7-2.2-1.1
					c-0.7-0.4-1.1-1.1-1.9-2.2c-0.7-0.7-1.1-2.2-1.9-3.4l-14.2-26.2c-0.7-1.5-1.5-3.4-2.6-5.2c-0.7-1.9-1.5-3.7-2.2-5.2l0,0
					c0,2.2,0.4,4.1,0.4,6.4s0,4.1,0,6.4v29.6c0,0.4,0,0.4-0.4,0.7c0,0.4-0.4,0.4-0.7,0.7c-0.4,0-1.1,0.4-1.5,0.4c-0.7,0-1.5,0-2.6,0
					s-1.9,0-2.6,0s-1.1-0.4-1.5-0.4s-0.7-0.4-0.7-0.7c0-0.4-0.4-0.4-0.4-0.7v-50.6c0-1.5,0.4-2.2,1.1-3c0.7-0.7,1.9-1.1,3-1.1h6.4
					c1.1,0,2.2,0,3,0.4s1.5,0.4,2.2,0.7c0.7,0.4,1.1,1.1,1.9,1.9c0.4,0.8,1.1,1.9,1.5,3l11.2,20.6c0.7,1.1,1.1,2.6,1.9,3.7
					c0.7,1.1,1.1,2.2,1.9,3.7c0.7,1.1,1.1,2.2,1.9,3.4c0.7,1.1,1.1,2.2,1.5,3.4l0,0c0-1.9,0-4.1-0.4-6.4c0-2.2,0-4.5,0-6.4v-26.6
					c0-0.4,0-0.4,0.4-0.7c0-0.4,0.4-0.4,0.7-0.7c0.4,0,1.1-0.4,1.5-0.4c0.7,0,1.5,0,2.6,0s1.9,0,2.6,0c0.7,0,1.1,0.4,1.5,0.4
					s0.7,0.4,0.7,0.7c0,0.4,0.4,0.4,0.4,0.7v50.2H868.6z M926.3,706c0,0.4,0,0.4-0.4,0.8c-0.4,0.4-0.4,0.4-1.1,0.7
					c-0.4,0-1.1,0.4-1.9,0.4c-0.7,0-1.5,0-2.6,0s-2.2,0-3,0s-1.5-0.4-1.9-0.4s-0.7-0.4-0.7-0.7c-0.4-0.4-0.4-0.4-0.4-0.8v-22.9H893
					V706c0,0.4,0,0.4-0.4,0.8c0,0.4-0.4,0.4-0.7,0.7c-0.4,0-1.1,0.4-1.9,0.4s-1.9,0-3,0s-2.2,0-3,0s-1.5-0.4-1.9-0.4
					c-0.4,0-0.7-0.4-1.1-0.7c-0.4-0.4-0.4-0.4-0.4-0.8v-53.2c0-0.4,0-0.4,0.4-0.8c0.4-0.4,0.4-0.4,1.1-0.7c0.4,0,1.1-0.4,1.9-0.4
					s1.9,0,3,0s2.2,0,3,0s1.5,0.4,1.9,0.4c0.4,0,0.7,0.4,0.7,0.7c0,0.4,0.4,0.4,0.4,0.8v20.6h21.7v-20.6c0-0.4,0-0.4,0.4-0.8
					c0.4-0.4,0.4-0.4,0.7-0.7c0.4,0,1.1-0.4,1.9-0.4c0.7,0,1.9,0,3,0s2.2,0,2.6,0c0.7,0,1.5,0.4,1.9,0.4c0.4,0,0.7,0.4,1.1,0.7
					c0.4,0.4,0.4,0.4,0.4,0.8V706H926.3z M973.6,703c0,0.7,0,1.5,0,2.2s0,1.1-0.4,1.5c0,0.4-0.4,0.7-0.7,0.7c-0.4,0-0.4,0.4-0.7,0.4
					h-29.2c-1.1,0-1.9-0.4-2.6-0.7c-0.7-0.7-1.1-1.5-1.1-2.6v-49.1c0-1.1,0.4-2.2,1.1-2.6c0.7-0.8,1.5-0.8,2.6-0.8h28.9
					c0.4,0,0.4,0,0.7,0.4c0.4,0,0.4,0.4,0.4,0.7c0,0.4,0.4,0.7,0.4,1.5c0,0.7,0,1.1,0,2.2c0,0.7,0,1.5,0,2.2c0,0.8,0,1.1-0.4,1.5
					c0,0.4-0.4,0.7-0.4,0.7c-0.4,0-0.4,0.4-0.7,0.4h-20.6v13.9h17.6c0.4,0,0.4,0,0.7,0.4c0.4,0,0.4,0.4,0.7,0.7
					c0,0.4,0.4,0.7,0.4,1.5c0,0.8,0,1.1,0,1.9c0,0.7,0,1.5,0,2.2c0,0.4,0,1.1-0.4,1.5c0,0.4-0.4,0.7-0.7,0.7s-0.4,0.4-0.7,0.4h-17.6
					v15.7h21c0.4,0,0.4,0,0.7,0.4c0.4,0,0.4,0.4,0.7,0.7c0,0.4,0.4,0.7,0.4,1.5C973.6,701.5,973.6,702.3,973.6,703L973.6,703z
					 M1022.7,698.9c0,0.7,0,1.5,0,1.9c0,0.4,0,1.1-0.4,1.1c0,0.4-0.4,0.8-0.4,1.1c0,0.4-0.4,0.4-0.7,0.8c-0.4,0.4-1.1,0.7-1.9,1.1
					c-1.1,0.4-2.2,1.1-3.4,1.5c-1.5,0.4-3,0.7-4.5,1.1c-1.9,0.4-3.7,0.4-5.6,0.4c-4.1,0-7.5-0.8-10.9-1.9s-6-3-8.2-5.2
					c-2.2-2.2-4.1-5.2-5.2-9c-1.1-3.4-1.9-7.5-1.9-12.4c0-4.9,0.7-9,1.9-12.7c1.5-3.7,3-6.7,5.6-9.4c2.2-2.6,5.2-4.5,8.6-5.6
					s6.7-1.9,10.9-1.9c1.5,0,3,0,4.5,0.4c1.5,0.4,3,0.7,4.1,1.1c1.1,0.4,2.2,0.7,3.4,1.5c1.1,0.7,1.9,1.1,2.2,1.5
					c0.4,0.4,0.8,0.7,0.8,1.1c0,0.4,0.4,0.7,0.4,1.1c0,0.4,0,0.7,0.4,1.5c0,0.4,0,1.1,0,1.9s0,1.5,0,2.2c0,0.7,0,1.1-0.4,1.5
					c0,0.4-0.4,0.7-0.4,0.7c-0.4,0-0.4,0.4-0.8,0.4c-0.4,0-1.1-0.4-1.9-0.7c-0.7-0.4-1.5-1.1-2.6-1.9c-1.1-0.8-2.2-1.1-3.7-1.9
					c-1.5-0.4-3.4-0.7-5.2-0.7c-2.2,0-4.5,0.4-6,1.5c-1.9,0.7-3.4,2.2-4.5,3.7c-1.1,1.9-2.2,3.7-3,6s-1.1,5.2-1.1,8.2
					c0,3.4,0.4,6,1.1,8.6c0.7,2.2,1.9,4.5,3,6c1.1,1.5,3,2.6,4.9,3.4c1.9,0.8,3.7,1.1,6.4,1.1c2.2,0,3.7-0.4,5.2-0.7
					c1.5-0.4,3-1.1,3.7-1.5c1.1-0.8,1.9-1.1,2.6-1.5c0.8-0.4,1.1-0.7,1.5-0.7s0.4,0,0.7,0c0,0,0.4,0.4,0.4,0.7s0.4,0.7,0.4,1.5
					C1022.7,697,1022.7,698.2,1022.7,698.9L1022.7,698.9z M1042.9,706c0,0.4,0,0.4-0.4,0.8c-0.4,0.4-0.4,0.4-1.1,0.7
					c-0.4,0-1.1,0.4-1.9,0.4c-0.8,0-1.9,0-3,0c-1.1,0-2.2,0-3,0s-1.5-0.4-1.9-0.4c-0.4,0-0.7-0.4-1.1-0.7c-0.4-0.4-0.4-0.4-0.4-0.8
					v-53.2c0-0.4,0-0.4,0.4-0.8c0.4-0.4,0.4-0.4,1.1-0.7c0.4,0,1.1-0.4,1.9-0.4c0.8,0,1.9,0,3,0c1.1,0,2.2,0,3,0s1.5,0.4,1.9,0.4
					c0.4,0,0.7,0.4,1.1,0.7c0.4,0.4,0.4,0.4,0.4,0.8V706L1042.9,706z M1123.2,706c0,0.4,0,0.4-0.4,0.8c0,0.4-0.4,0.4-0.8,0.7
					c-0.4,0-1.1,0.4-1.9,0.4s-1.5,0-2.6,0c-1.1,0-1.9,0-2.6,0c-0.8,0-1.1-0.4-1.9-0.4c-0.4,0-0.8-0.4-0.8-0.7c0-0.4-0.4-0.4-0.4-0.8
					v-46.1l0,0l-16.9,46.1c0,0.4-0.4,0.8-0.7,1.1c-0.4,0.4-0.8,0.4-1.1,0.7c-0.4,0-1.1,0.4-1.9,0.4c-0.7,0-1.5,0-2.6,0s-1.9,0-2.6,0
					c-0.8,0-1.5-0.4-1.9-0.4s-0.8-0.4-1.1-0.7c-0.4-0.4-0.4-0.4-0.4-0.7l-16.1-46.1l0,0v46.1c0,0.4,0,0.4-0.4,0.7
					c0,0.4-0.4,0.4-0.8,0.7c-0.4,0-1.1,0.4-1.9,0.4s-1.5,0-2.6,0c-1.1,0-1.9,0-2.6,0c-0.8,0-1.1-0.4-1.9-0.4c-0.4,0-0.7-0.4-0.7-0.7
					c0-0.4-0.4-0.4-0.4-0.7v-50.2c0-1.5,0.4-2.6,1.1-3.4c0.7-0.8,1.9-1.1,3.4-1.1h7.9c1.5,0,2.6,0,3.4,0.4c1.1,0.4,1.9,0.8,2.6,1.1
					c0.8,0.4,1.5,1.1,1.9,1.9c0.4,0.8,0.8,1.9,1.1,3l12.4,33.7l0,0l13.1-33.7c0.4-1.1,0.8-2.2,1.1-3c0.4-0.7,1.1-1.5,1.5-1.9
					c0.7-0.4,1.5-0.7,2.2-1.1c0.7-0.4,1.9-0.4,3-0.4h7.9c0.8,0,1.5,0,2.2,0.4c0.8,0.4,1.1,0.4,1.5,0.8c0.4,0.4,0.7,0.7,0.7,1.5
					c0.4,0.7,0.4,1.1,0.4,1.9V706H1123.2z M1170,703c0,0.7,0,1.5,0,2.2s0,1.1-0.4,1.5c0,0.4-0.4,0.7-0.8,0.7s-0.4,0.4-0.8,0.4h-29.2
					c-1.1,0-1.9-0.4-2.6-0.7c-0.8-0.7-1.1-1.5-1.1-2.6v-49.1c0-1.1,0.4-2.2,1.1-2.6c0.8-0.8,1.5-0.8,2.6-0.8h28.9
					c0.4,0,0.4,0,0.7,0.4c0.4,0,0.4,0.4,0.4,0.7c0,0.4,0.4,0.7,0.4,1.5c0,0.7,0,1.1,0,2.2c0,0.7,0,1.5,0,2.2c0,0.8,0,1.1-0.4,1.5
					c0,0.4-0.4,0.7-0.4,0.7c-0.4,0-0.4,0.4-0.7,0.4h-20.6v13.9h17.6c0.4,0,0.4,0,0.8,0.4c0.4,0,0.4,0.4,0.7,0.7
					c0,0.4,0.4,0.7,0.4,1.5c0,0.8,0,1.1,0,1.9c0,0.7,0,1.5,0,2.2c0,0.4,0,1.1-0.4,1.5c0,0.4-0.4,0.7-0.7,0.7c-0.4,0-0.4,0.4-0.8,0.4
					h-17.6v15.7h21c0.4,0,0.4,0,0.8,0.4c0.4,0,0.4,0.4,0.8,0.7c0,0.4,0.4,0.7,0.4,1.5C1170,701.5,1170,702.3,1170,703L1170,703z
					 M1228.5,703.4c0,0.7,0,1.1-0.4,1.9c-0.4,0.4-0.8,1.1-1.1,1.5c-0.4,0.4-0.7,0.7-1.5,0.7s-1.1,0.4-1.5,0.4h-4.9
					c-1.1,0-1.9,0-2.6-0.4c-0.8-0.4-1.5-0.7-2.2-1.1c-0.8-0.4-1.1-1.1-1.9-2.2c-0.8-0.7-1.1-2.2-1.9-3.4l-14.2-26.2
					c-0.7-1.5-1.5-3.4-2.6-5.2c-0.8-1.9-1.5-3.7-2.2-5.2l0,0c0,2.2,0.4,4.1,0.4,6.4s0,4.1,0,6.4v29.6c0,0.4,0,0.4-0.4,0.7
					c0,0.4-0.4,0.4-0.8,0.7c-0.4,0-1.1,0.4-1.5,0.4c-0.8,0-1.5,0-2.6,0c-1.1,0-1.9,0-2.6,0c-0.8,0-1.1-0.4-1.5-0.4
					c-0.4,0-0.7-0.4-0.7-0.7c0-0.4-0.4-0.4-0.4-0.7v-50.6c0-1.5,0.4-2.2,1.1-3c0.8-0.7,1.9-1.1,3-1.1h6.4c1.1,0,2.2,0,3,0.4
					c0.8,0.4,1.5,0.4,2.2,0.7c0.8,0.4,1.1,1.1,1.9,1.9c0.4,0.8,1.1,1.9,1.5,3l11.2,20.6c0.8,1.1,1.1,2.6,1.9,3.7
					c0.8,1.1,1.1,2.2,1.9,3.7c0.8,1.1,1.1,2.2,1.9,3.4c0.8,1.1,1.1,2.2,1.5,3.4l0,0c0-1.9,0-4.1-0.4-6.4c0-2.2,0-4.5,0-6.4v-26.6
					c0-0.4,0-0.4,0.4-0.7c0-0.4,0.4-0.4,0.7-0.7c0.4,0,1.1-0.4,1.5-0.4c0.8,0,1.5,0,2.6,0s1.9,0,2.6,0c0.7,0,1.1,0.4,1.5,0.4
					s0.8,0.4,0.8,0.7c0,0.4,0.4,0.4,0.4,0.7v50.2H1228.5z M1279.5,655.8c0,0.7,0,1.5,0,2.2c0,0.8,0,1.1-0.4,1.5
					c0,0.4-0.4,0.7-0.8,0.7s-0.4,0.4-0.7,0.4H1263V706c0,0.4,0,0.4-0.4,0.7c-0.4,0.4-0.4,0.4-1.1,0.8c-0.4,0-1.1,0.4-1.9,0.4
					c-0.7,0-1.9,0-3,0c-1.1,0-2.2,0-3,0s-1.5-0.4-1.9-0.4s-0.7-0.4-1.1-0.8c-0.4-0.4-0.4-0.4-0.4-0.7v-45.4h-14.6
					c-0.4,0-0.4,0-0.7-0.4c-0.4,0-0.4-0.4-0.4-0.7s-0.4-0.7-0.4-1.5c0-0.7,0-1.5,0-2.2c0-0.8,0-1.5,0-2.2s0.4-1.1,0.4-1.5
					c0-0.4,0.4-0.7,0.4-0.7c0.4,0,0.4-0.4,0.7-0.4h40.9c0.4,0,0.4,0,0.8,0.4c0.4,0,0.4,0.4,0.7,0.7c0,0.4,0.4,0.8,0.4,1.5
					C1279.5,654.3,1279.5,655,1279.5,655.8z"/>
				<path id="XMLID_34_" fill="#9D9D9C" d="M1336.1,678.7c0,4.5-0.8,9-1.9,12.7c-1.1,3.7-3,6.7-5.2,9.4c-2.2,2.6-5.2,4.5-8.6,6
					c-3.4,1.5-7.5,1.9-12,1.9c-4.5,0-8.6-0.8-11.6-1.9c-3.4-1.1-6-3-8.2-5.2c-2.2-2.2-3.7-5.2-4.9-9c-1.1-3.7-1.5-7.9-1.5-12.7
					c0-4.5,0.8-8.6,1.9-12.4c1.1-3.7,3-6.7,5.2-9.4c2.2-2.6,5.2-4.5,8.6-6c3.4-1.5,7.5-1.9,12-1.9c4.5,0,8.2,0.7,11.6,1.9
					s6,3,8.2,5.2s4.1,5.2,5.2,9C1335.8,669.7,1336.1,673.8,1336.1,678.7L1336.1,678.7z M1323.8,679.4c0-3-0.4-5.6-0.8-8.2
					c-0.4-2.2-1.1-4.5-2.2-6.4c-1.1-1.9-2.6-3-4.5-4.1c-1.9-1.1-4.1-1.5-7.1-1.5c-3,0-5.2,0.4-7.1,1.5s-3.4,2.6-4.9,4.1
					c-1.1,1.9-1.9,3.7-2.6,6.4c-0.4,2.2-0.7,4.9-0.7,7.5c0,3,0.4,6,0.7,8.2c0.4,2.6,1.1,4.5,2.2,6.4s2.6,3,4.5,4.1
					c1.9,0.7,4.1,1.5,7.1,1.5c3,0,5.2-0.4,7.1-1.5s3.4-2.6,4.9-4.1c1.1-1.9,1.9-3.7,2.6-6.4C1323.4,684.7,1323.8,682,1323.8,679.4
					L1323.8,679.4z M1414.9,678.7c0,5.2-0.7,9.7-2.2,13.1c-1.5,3.7-3.4,6.7-6,9c-2.6,2.2-5.6,4.1-9.4,5.2s-8.2,1.5-13.1,1.5h-13.9
					c-1.1,0-1.9-0.4-2.6-0.7c-0.7-0.8-1.1-1.5-1.1-2.6V655c0-1.1,0.4-2.2,1.1-2.6c0.8-0.7,1.5-0.7,2.6-0.7h15
					c5.2,0,9.7,0.7,13.1,1.9c3.7,1.1,6.7,3,9,5.2c2.6,2.2,4.5,5.2,5.6,8.6C1414.5,670,1414.9,674.2,1414.9,678.7L1414.9,678.7z
					 M1402.9,679c0-2.6-0.4-5.2-1.1-7.5c-0.8-2.2-1.5-4.1-3-6c-1.5-1.5-3.4-3-5.6-4.1c-2.2-0.7-5.2-1.5-8.6-1.5h-6v38.2h6
					c3.4,0,6-0.4,8.2-1.1c2.2-0.7,4.1-1.9,5.6-3.7c1.5-1.5,2.6-3.7,3.4-6C1402.5,685,1402.9,682,1402.9,679L1402.9,679z
					 M1476.8,678.7c0,4.5-0.8,9-1.9,12.7c-1.1,3.7-3,6.7-5.2,9.4c-2.2,2.6-5.2,4.5-8.6,6c-3.4,1.5-7.5,1.9-12,1.9
					c-4.5,0-8.6-0.8-11.6-1.9c-3.4-1.1-6-3-8.2-5.2c-2.2-2.2-3.7-5.2-4.9-9c-1.1-3.7-1.5-7.9-1.5-12.7c0-4.5,0.8-8.6,1.9-12.4
					c1.1-3.7,3-6.7,5.2-9.4c2.2-2.6,5.2-4.5,8.6-6c3.4-1.5,7.5-1.9,12-1.9c4.5,0,8.2,0.7,11.6,1.9s6,3,8.2,5.2s4.1,5.2,5.2,9
					C1476.4,669.7,1476.8,673.8,1476.8,678.7L1476.8,678.7z M1464.4,679.4c0-3-0.4-5.6-0.8-8.2c-0.4-2.2-1.1-4.5-2.2-6.4
					c-1.1-1.9-2.6-3-4.5-4.1c-1.9-1.1-4.1-1.5-7.1-1.5c-3,0-5.2,0.4-7.1,1.5c-1.9,1.1-3.4,2.6-4.9,4.1c-1.1,1.9-1.9,3.7-2.6,6.4
					c-0.4,2.2-0.7,4.9-0.7,7.5c0,3,0.4,6,0.7,8.2c0.4,2.6,1.1,4.5,2.2,6.4s2.6,3,4.5,4.1c1.9,0.7,4.1,1.5,7.1,1.5
					c3,0,5.2-0.4,7.1-1.5s3.4-2.6,4.9-4.1c1.1-1.9,1.9-3.7,2.6-6.4C1464.4,684.7,1464.4,682,1464.4,679.4L1464.4,679.4z M1542,690.7
					c0,3-0.8,5.6-1.9,7.9c-1.1,2.2-2.6,4.1-4.5,5.6c-1.9,1.5-4.1,2.6-6.7,3.4c-2.6,0.7-5.2,1.1-8.2,1.1c-1.9,0-3.7,0-5.6-0.4
					c-1.9-0.4-3.4-0.7-4.5-1.1c-1.5-0.4-2.2-0.7-3.4-1.5c-0.8-0.4-1.5-1.1-1.9-1.5c-0.4-0.4-0.8-1.1-0.8-1.5c0-0.8-0.4-1.9-0.4-3
					c0-0.7,0-1.5,0-2.2s0-1.1,0.4-1.5c0-0.4,0.4-0.7,0.4-0.7c0.4,0,0.4-0.4,0.8-0.4c0.4,0,1.1,0.4,1.9,0.8c0.7,0.4,1.9,1.1,3,1.5
					c1.1,0.7,2.6,1.1,4.1,1.5c1.5,0.4,3.7,0.7,5.6,0.7c1.5,0,2.6,0,3.7-0.4c1.1-0.4,2.2-0.7,3-1.5c0.8-0.7,1.5-1.5,1.9-2.2
					s0.8-1.9,0.8-3s-0.4-2.2-1.1-3.4c-0.7-0.7-1.5-1.9-3-2.6c-1.1-0.7-2.6-1.5-3.7-1.9c-1.5-0.8-3-1.1-4.5-1.9
					c-1.5-0.7-3-1.5-4.5-2.2c-1.5-0.8-2.6-1.9-3.7-3c-1.1-1.1-2.2-2.6-3-4.5c-0.7-1.5-1.1-3.7-1.1-6c0-2.6,0.4-5.2,1.5-7.1
					c1.1-1.9,2.2-3.7,4.1-5.2c1.9-1.5,3.7-2.2,6-3c2.2-0.7,4.9-1.1,7.5-1.1c1.5,0,2.6,0,4.1,0.4c1.5,0.4,2.6,0.4,3.7,0.7
					c1.1,0.4,2.2,0.7,3,1.1c0.8,0.4,1.5,0.7,1.9,1.1c0.4,0.4,0.4,0.4,0.8,0.7c0,0.4,0.4,0.4,0.4,0.7c0,0.4,0,0.7,0,1.1
					c0,0.4,0,1.1,0,1.9s0,1.5,0,2.2s0,1.1-0.4,1.5c0,0.4-0.4,0.7-0.4,0.7c-0.4,0-0.4,0.4-0.8,0.4c-0.4,0-0.7-0.4-1.5-0.7
					c-0.7-0.4-1.5-0.7-2.6-1.5c-1.1-0.4-2.2-0.8-3.7-1.1c-1.5-0.4-3-0.8-4.5-0.8c-1.1,0-2.2,0-3.4,0.4c-1.1,0.4-1.9,0.7-2.2,1.1
					c-0.7,0.4-1.1,1.1-1.5,1.9s-0.4,1.5-0.4,2.2c0,1.1,0.4,2.2,1.1,3.4c0.7,0.7,1.5,1.9,3,2.6c1.1,0.7,2.6,1.5,4.1,1.9
					c1.5,0.7,3,1.1,4.5,1.9c1.5,0.8,3,1.5,4.5,2.2c1.5,0.7,3,1.9,4.1,3.4c1.1,1.1,2.2,2.6,3,4.5C1541.6,686.5,1542,688.4,1542,690.7
					L1542,690.7z M1585.1,703c0,0.7,0,1.5,0,2.2s0,1.1-0.4,1.5c0,0.4-0.4,0.7-0.8,0.7s-0.4,0.4-0.8,0.4H1554c-1.1,0-1.9-0.4-2.6-0.7
					c-0.7-0.7-1.1-1.5-1.1-2.6v-49.1c0-1.1,0.4-2.2,1.1-2.6c0.8-0.8,1.5-0.8,2.6-0.8h28.9c0.4,0,0.4,0,0.7,0.4
					c0.4,0,0.4,0.4,0.4,0.7c0,0.4,0.4,0.7,0.4,1.5c0,0.7,0,1.1,0,2.2c0,0.7,0,1.5,0,2.2c0,0.8,0,1.1-0.4,1.5c0,0.4-0.4,0.7-0.4,0.7
					c-0.4,0-0.4,0.4-0.7,0.4h-20.6v13.9h17.6c0.4,0,0.4,0,0.8,0.4c0.4,0,0.4,0.4,0.7,0.7c0,0.4,0.4,0.7,0.4,1.5c0,0.8,0,1.1,0,1.9
					c0,0.7,0,1.5,0,2.2c0,0.4,0,1.1-0.4,1.5c0,0.4-0.4,0.7-0.7,0.7c-0.4,0-0.4,0.4-0.8,0.4h-17.6v15.7h21c0.4,0,0.4,0,0.8,0.4
					c0.4,0,0.4,0.4,0.8,0.7c0,0.4,0.4,0.7,0.4,1.5C1585.1,701.5,1585.1,702.3,1585.1,703L1585.1,703z M1663.1,706
					c0,0.4,0,0.4-0.4,0.8c0,0.4-0.4,0.4-0.7,0.7c-0.4,0-1.1,0.4-1.9,0.4c-0.8,0-1.5,0-2.6,0c-1.1,0-1.9,0-2.6,0
					c-0.7,0-1.1-0.4-1.9-0.4c-0.4,0-0.7-0.4-0.7-0.7c0-0.4-0.4-0.4-0.4-0.8v-46.1l0,0L1635,706c0,0.4-0.4,0.8-0.7,1.1
					c-0.4,0.4-0.8,0.4-1.1,0.7c-0.4,0-1.1,0.4-1.9,0.4s-1.5,0-2.6,0c-1.1,0-1.9,0-2.6,0c-0.8,0-1.5-0.4-1.9-0.4
					c-0.4,0-0.8-0.4-1.1-0.7c-0.4-0.4-0.4-0.4-0.4-0.7l-16.1-46.1l0,0v46.1c0,0.4,0,0.4-0.4,0.7c0,0.4-0.4,0.4-0.7,0.7
					c-0.4,0-1.1,0.4-1.9,0.4c-0.8,0-1.5,0-2.6,0c-1.1,0-1.9,0-2.6,0c-0.7,0-1.1-0.4-1.9-0.4c-0.4,0-0.7-0.4-0.7-0.7
					c0-0.4-0.4-0.4-0.4-0.7v-50.2c0-1.5,0.4-2.6,1.1-3.4c0.8-0.8,1.9-1.1,3.4-1.1h7.9c1.5,0,2.6,0,3.4,0.4c1.1,0.4,1.9,0.8,2.6,1.1
					c0.7,0.4,1.5,1.1,1.9,1.9c0.4,0.8,0.7,1.9,1.1,3l12.4,33.7l0,0l13.1-33.7c0.4-1.1,0.7-2.2,1.1-3c0.4-0.7,1.1-1.5,1.5-1.9
					c0.7-0.4,1.5-0.7,2.2-1.1c0.8-0.4,1.9-0.4,3-0.4h7.9c0.8,0,1.5,0,2.2,0.4c0.8,0.4,1.1,0.4,1.5,0.8c0.4,0.4,0.8,0.7,0.8,1.5
					c0.4,0.7,0.4,1.1,0.4,1.9V706H1663.1z M1687.9,706c0,0.4,0,0.4-0.4,0.8c-0.4,0.4-0.4,0.4-1.1,0.7c-0.4,0-1.1,0.4-1.9,0.4
					c-0.8,0-1.9,0-3,0c-1.1,0-2.2,0-3,0c-0.8,0-1.5-0.4-1.9-0.4c-0.4,0-0.8-0.4-1.1-0.7c-0.4-0.4-0.4-0.4-0.4-0.8v-53.2
					c0-0.4,0-0.4,0.4-0.8c0.4-0.4,0.4-0.4,1.1-0.7c0.4,0,1.1-0.4,1.9-0.4c0.7,0,1.9,0,3,0c1.1,0,2.2,0,3,0s1.5,0.4,1.9,0.4
					s0.7,0.4,1.1,0.7c0.4,0.4,0.4,0.4,0.4,0.8V706L1687.9,706z M1747.8,703.4c0.4,1.1,0.7,1.9,0.7,2.6s0,1.1-0.4,1.5
					c-0.4,0.4-0.7,0.4-1.9,0.7c-0.7,0-1.9,0-3.4,0s-2.6,0-3.7,0c-0.8,0-1.5,0-1.9-0.4c-0.4,0-0.8-0.4-0.8-0.4
					c-0.4-0.4-0.4-0.4-0.4-0.7l-3.7-11.2h-22.1l-3.7,10.9c0,0.4-0.4,0.7-0.4,1.1c0,0.4-0.4,0.4-0.8,0.7c-0.4,0-1.1,0.4-1.9,0.4
					c-0.7,0-1.9,0-3,0c-1.5,0-2.6,0-3.4,0s-1.5-0.4-1.5-0.8c-0.4-0.4-0.4-0.7-0.4-1.5c0-0.7,0.4-1.5,0.8-2.6l18-50.2
					c0-0.4,0.4-0.7,0.8-1.1c0.4-0.4,0.7-0.4,1.1-0.7c0.4,0,1.1-0.4,2.2-0.4c0.8,0,2.2,0,3.7,0c1.9,0,3,0,4.1,0s1.9,0,2.6,0.4
					c0.8,0,1.1,0.4,1.1,0.7c0.4,0.4,0.4,0.7,0.8,1.5L1747.8,703.4L1747.8,703.4z M1721.2,661.8L1721.2,661.8l-8.2,24h16.1
					L1721.2,661.8L1721.2,661.8z M1724.2,635.9c0.4-0.4,0.8-0.7,1.1-1.1c0.4-0.4,0.7-0.4,1.5-0.7c0.4,0,1.1-0.4,1.9-0.4s1.5,0,2.6,0
					c1.5,0,2.6,0,3.4,0.4c0.8,0,1.1,0.4,1.5,0.7c0.4,0.4,0.4,0.7,0.4,1.1c0,0.4-0.4,0.7-0.8,1.1l-10.1,8.6c-0.4,0.4-0.7,0.4-0.7,0.7
					c-0.4,0.4-0.8,0.4-1.1,0.4s-1.1,0.4-1.5,0.4c-0.7,0-1.5,0-2.2,0c-1.1,0-1.9,0-2.6,0c-0.8,0-1.1-0.4-1.1-0.4
					c-0.4,0-0.4-0.4-0.4-0.7c0-0.4,0.4-0.7,0.8-1.1L1724.2,635.9L1724.2,635.9z M1798.8,706c0,0.4,0,0.8,0,0.8
					c0,0.4-0.4,0.4-0.8,0.4s-1.1,0.4-1.9,0.4c-0.8,0-1.9,0-3.4,0c-1.1,0-2.2,0-3,0c-0.8,0-1.5,0-1.9-0.4c-0.4,0-0.8-0.4-0.8-0.7
					s-0.4-0.4-0.4-0.7l-5.2-12.7c-0.8-1.5-1.1-2.6-1.9-3.7s-1.1-1.9-1.9-2.6c-0.8-0.7-1.5-1.1-2.6-1.5c-1.1-0.4-2.2-0.7-3.4-0.7
					h-3.7V706c0,0.4,0,0.4-0.4,0.8c-0.4,0.4-0.4,0.4-1.1,0.7c-0.4,0-1.1,0.4-1.9,0.4c-0.7,0-1.9,0-3,0c-1.1,0-2.2,0-3,0
					s-1.5-0.4-1.9-0.4s-0.8-0.4-0.8-0.7c0-0.4-0.4-0.4-0.4-0.8v-51.4c0-1.1,0.4-2.2,1.1-2.6c0.8-0.8,1.5-0.8,2.6-0.8h15
					c1.5,0,2.6,0,3.7,0c1.1,0,1.9,0,2.6,0.4c2.2,0.4,4.5,0.7,6.4,1.5c1.9,0.7,3.4,1.9,4.9,3c1.1,1.1,2.2,2.6,3,4.5
					c0.8,1.9,1.1,3.7,1.1,6c0,1.9-0.4,3.7-0.8,5.2c-0.4,1.5-1.1,3-2.2,4.1c-1.1,1.1-2.2,2.2-3.4,3c-1.5,0.7-3,1.5-4.9,2.2
					c0.8,0.4,1.5,0.7,2.6,1.5c0.8,0.8,1.5,1.1,2.2,2.2c0.8,0.7,1.5,1.9,1.9,3c0.8,1.1,1.1,2.2,1.9,3.7l4.9,11.2
					c0.4,1.1,0.7,1.9,0.7,2.2C1798.8,705.3,1798.8,705.7,1798.8,706L1798.8,706z M1783.8,667.8c0-1.9-0.4-3.4-1.1-4.9
					c-0.7-1.1-2.2-2.2-4.1-2.6c-0.7,0-1.1-0.4-1.9-0.4c-0.7,0-1.9,0-3,0h-5.2V676h6c1.5,0,3-0.4,4.5-0.7c1.1-0.4,2.2-1.1,3-1.5
					c0.7-0.7,1.5-1.5,1.9-2.6C1783.5,670,1783.8,668.9,1783.8,667.8L1783.8,667.8z M1819.5,706c0,0.4,0,0.4-0.4,0.8
					c-0.4,0.4-0.4,0.4-1.1,0.7c-0.4,0-1.1,0.4-1.9,0.4s-1.9,0-3,0c-1.1,0-2.2,0-3,0c-0.8,0-1.5-0.4-1.9-0.4s-0.8-0.4-1.1-0.7
					c-0.4-0.4-0.4-0.4-0.4-0.8v-53.2c0-0.4,0-0.4,0.4-0.8c0.4-0.4,0.4-0.4,1.1-0.7c0.4,0,1.1-0.4,1.9-0.4s1.9,0,3,0c1.1,0,2.2,0,3,0
					c0.8,0,1.5,0.4,1.9,0.4s0.8,0.4,1.1,0.7c0.4,0.4,0.4,0.4,0.4,0.8V706L1819.5,706z M1880.2,678.7c0,5.2-0.8,9.7-2.2,13.1
					c-1.5,3.7-3.4,6.7-6,9c-2.6,2.2-5.6,4.1-9.4,5.2s-8.2,1.5-13.1,1.5h-13.9c-1.1,0-1.9-0.4-2.6-0.7c-0.8-0.8-1.1-1.5-1.1-2.6V655
					c0-1.1,0.4-2.2,1.1-2.6c0.7-0.7,1.5-0.7,2.6-0.7h15c5.2,0,9.4,0.7,13.1,1.9s6.7,3,9,5.2c2.6,2.2,4.5,5.2,5.6,8.6
					C1879.8,670,1880.2,674.2,1880.2,678.7L1880.2,678.7z M1868.2,679c0-2.6-0.4-5.2-1.1-7.5c-0.8-2.2-1.5-4.1-3-6
					c-1.5-1.5-3.4-3-5.6-4.1c-2.2-0.7-5.2-1.5-8.6-1.5h-6v38.2h6c3.4,0,6-0.4,8.2-1.1c2.2-0.7,4.1-1.9,5.6-3.7
					c1.5-1.5,2.6-3.7,3.4-6C1867.8,685,1868.2,682,1868.2,679L1868.2,679z M1942.1,678.7c0,4.5-0.7,9-1.9,12.7
					c-1.1,3.7-3,6.7-5.2,9.4c-2.2,2.6-5.2,4.5-8.6,6c-3.4,1.5-7.5,1.9-12,1.9s-8.6-0.8-11.6-1.9c-3.4-1.1-6-3-8.2-5.2
					c-2.2-2.2-3.7-5.2-4.9-9c-1.1-3.7-1.5-7.9-1.5-12.7c0-4.5,0.7-8.6,1.9-12.4c1.1-3.7,3-6.7,5.2-9.4c2.2-2.6,5.2-4.5,8.6-6
					c3.4-1.5,7.5-1.9,12-1.9s8.2,0.7,11.6,1.9c3.4,1.1,6,3,8.2,5.2s4.1,5.2,5.2,9C1941.7,669.7,1942.1,673.8,1942.1,678.7
					L1942.1,678.7z M1929.7,679.4c0-3-0.4-5.6-0.7-8.2c-0.4-2.2-1.1-4.5-2.2-6.4s-2.6-3-4.5-4.1c-1.9-1.1-4.1-1.5-7.1-1.5
					c-3,0-5.2,0.4-7.1,1.5s-3.4,2.6-4.9,4.1c-1.1,1.9-1.9,3.7-2.6,6.4c-0.4,2.2-0.8,4.9-0.8,7.5c0,3,0.4,6,0.8,8.2
					c0.4,2.6,1.1,4.5,2.2,6.4c1.1,1.9,2.6,3,4.5,4.1c1.9,0.7,4.1,1.5,7.1,1.5c3,0,5.2-0.4,7.1-1.5s3.4-2.6,4.9-4.1
					c1.1-1.9,1.9-3.7,2.6-6.4C1929.3,684.7,1929.7,682,1929.7,679.4L1929.7,679.4z M2014.8,690.7c0,1.9-0.4,3.7-0.7,5.6
					c-0.8,1.5-1.5,3-2.2,4.5c-1.1,1.1-2.2,2.2-3.7,3.4c-1.5,0.7-3,1.5-4.5,2.2s-3.4,1.1-5.2,1.1c-1.9,0.4-4.1,0.4-6.4,0.4h-15.4
					c-1.1,0-1.9-0.4-2.6-0.7c-0.8-0.7-1.1-1.5-1.1-2.6v-49.1c0-1.1,0.4-2.2,1.1-2.6c0.7-0.7,1.5-0.7,2.6-0.7h14.6
					c3.4,0,6.4,0.4,9,0.7c2.6,0.7,4.5,1.5,6.4,2.6c1.9,1.1,3,2.6,3.7,4.5c0.7,1.9,1.5,3.7,1.5,6.4c0,1.5,0,2.6-0.4,3.7
					s-0.8,2.2-1.5,3.4c-0.8,1.1-1.5,1.9-2.6,2.6c-1.1,0.7-2.2,1.5-3.4,1.9c1.5,0.4,3,0.7,4.5,1.5c1.5,0.8,2.6,1.5,3.7,3
					c1.1,1.1,1.9,2.6,2.6,4.1C2014.4,686.9,2014.8,688.8,2014.8,690.7L2014.8,690.7z M1999.4,667c0-1.1,0-2.2-0.4-3
					c-0.4-0.7-0.7-1.5-1.5-2.2c-0.8-0.8-1.5-1.1-2.6-1.5c-1.1-0.4-2.6-0.4-4.5-0.4h-6v14.6h6.7c1.9,0,3-0.4,4.1-0.7
					c1.1-0.4,1.9-0.7,2.6-1.5c0.7-0.7,1.1-1.5,1.5-2.2C1999.4,668.9,1999.4,667.8,1999.4,667L1999.4,667z M2002.4,691
					c0-1.5-0.4-2.6-0.7-3.4c-0.4-1.1-1.1-1.9-1.9-2.6c-0.8-0.7-1.9-1.1-3.4-1.5c-1.5-0.4-3-0.7-5.2-0.7h-7.1v16.1h8.6
					c1.5,0,3,0,4.1-0.4c1.1-0.4,2.2-0.7,3-1.5c0.8-0.7,1.5-1.5,1.9-2.6C2002.4,693.3,2002.4,692.2,2002.4,691L2002.4,691z
					 M2067.3,706c0,0.4,0,0.8,0,0.8c0,0.4-0.4,0.4-0.8,0.4c-0.4,0-1.1,0.4-1.9,0.4c-0.7,0-1.9,0-3.4,0c-1.1,0-2.2,0-3,0
					c-0.8,0-1.5,0-1.9-0.4c-0.4,0-0.7-0.4-0.7-0.7s-0.4-0.4-0.4-0.7l-5.2-12.7c-0.8-1.5-1.1-2.6-1.9-3.7c-0.8-1.1-1.1-1.9-1.9-2.6
					c-0.8-0.7-1.5-1.1-2.6-1.5c-1.1-0.4-2.2-0.7-3.4-0.7h-3.7V706c0,0.4,0,0.4-0.4,0.8c-0.4,0.4-0.4,0.4-1.1,0.7
					c-0.4,0-1.1,0.4-1.9,0.4c-0.7,0-1.9,0-3,0c-1.1,0-2.2,0-3,0c-0.7,0-1.5-0.4-1.9-0.4s-0.7-0.4-0.7-0.7c0-0.4-0.4-0.4-0.4-0.8
					v-51.4c0-1.1,0.4-2.2,1.1-2.6c0.8-0.8,1.5-0.8,2.6-0.8h15c1.5,0,2.6,0,3.7,0c1.1,0,1.9,0,2.6,0.4c2.2,0.4,4.5,0.7,6.4,1.5
					c1.9,0.7,3.4,1.9,4.9,3c1.1,1.1,2.2,2.6,3,4.5s1.1,3.7,1.1,6c0,1.9-0.4,3.7-0.7,5.2c-0.4,1.5-1.1,3-2.2,4.1
					c-1.1,1.1-2.2,2.2-3.4,3c-1.5,0.7-3,1.5-4.9,2.2c0.8,0.4,1.5,0.7,2.6,1.5c0.8,0.8,1.5,1.1,2.2,2.2c0.7,0.7,1.5,1.9,1.9,3
					c0.7,1.1,1.1,2.2,1.9,3.7l4.9,11.2c0.4,1.1,0.8,1.9,0.8,2.2C2067.3,705.3,2067.3,705.7,2067.3,706L2067.3,706z M2051.9,667.8
					c0-1.9-0.4-3.4-1.1-4.9c-0.7-1.1-2.2-2.2-4.1-2.6c-0.8,0-1.1-0.4-1.9-0.4c-0.8,0-1.9,0-3,0h-5.2V676h6c1.5,0,3-0.4,4.5-0.7
					c1.1-0.4,2.2-1.1,3-1.5c0.7-0.7,1.5-1.5,1.9-2.6C2051.9,670,2051.9,668.9,2051.9,667.8L2051.9,667.8z M2123.5,703.4
					c0.4,1.1,0.8,1.9,0.8,2.6s0,1.1-0.4,1.5c-0.4,0.4-0.8,0.4-1.9,0.7c-0.8,0-1.9,0-3.4,0c-1.5,0-2.6,0-3.7,0c-0.8,0-1.5,0-1.9-0.4
					c-0.4,0-0.8-0.4-0.8-0.4c0-0.4-0.4-0.4-0.4-0.7l-3.7-11.2h-21.7l-3.7,10.9c0,0.4-0.4,0.7-0.4,1.1c0,0.4-0.4,0.4-0.8,0.7
					c-0.4,0-1.1,0.4-1.9,0.4s-1.9,0-3,0c-1.5,0-2.6,0-3.4,0s-1.5-0.4-1.5-0.8c-0.4-0.4-0.4-0.7-0.4-1.5c0-0.7,0.4-1.5,0.8-2.6
					l18-50.2c0-0.4,0.4-0.7,0.8-1.1c0.4-0.4,0.8-0.4,1.1-0.7c0.4,0,1.1-0.4,2.2-0.4c0.7,0,2.2,0,3.7,0c1.9,0,3,0,4.1,0
					s1.9,0,2.6,0.4c0.8,0,1.1,0.4,1.1,0.7c0.4,0.4,0.4,0.7,0.8,1.5L2123.5,703.4L2123.5,703.4z M2096.9,661.8L2096.9,661.8l-8.2,24
					h16.1L2096.9,661.8z"/>
				<path id="XMLID_4_" fill="#9D9D9C" d="M2165.9,690.7c0,3-0.8,5.6-1.9,7.9c-1.1,2.2-2.6,4.1-4.5,5.6c-1.9,1.5-4.1,2.6-6.7,3.4
					c-2.6,0.7-5.2,1.1-8.2,1.1c-1.9,0-3.7,0-5.6-0.4c-1.9-0.4-3.4-0.7-4.5-1.1c-1.5-0.4-2.2-0.7-3.4-1.5c-0.8-0.4-1.5-1.1-1.9-1.5
					c-0.4-0.4-0.8-1.1-0.8-1.5c0-0.8-0.4-1.9-0.4-3c0-0.7,0-1.5,0-2.2s0-1.1,0.4-1.5c0-0.4,0.4-0.7,0.4-0.7c0.4,0,0.4-0.4,0.8-0.4
					s1.1,0.4,1.9,0.8c0.8,0.4,1.9,1.1,3,1.5c1.1,0.7,2.6,1.1,4.1,1.5c1.5,0.4,3.7,0.7,5.6,0.7c1.5,0,2.6,0,3.7-0.4
					c1.1-0.4,2.2-0.7,3-1.5c0.8-0.7,1.5-1.5,1.9-2.2c0.4-0.7,0.8-1.9,0.8-3s-0.4-2.2-1.1-3.4c-0.8-0.7-1.5-1.9-3-2.6
					c-1.1-0.7-2.6-1.5-3.7-1.9c-1.5-0.8-3-1.1-4.5-1.9c-1.5-0.7-3-1.5-4.5-2.2c-1.5-0.8-2.6-1.9-3.7-3s-2.2-2.6-3-4.5
					c-0.8-1.5-1.1-3.7-1.1-6c0-2.6,0.4-5.2,1.5-7.1c1.1-1.9,2.2-3.7,4.1-5.2c1.9-1.5,3.7-2.2,6-3c2.2-0.7,4.9-1.1,7.5-1.1
					c1.5,0,2.6,0,4.1,0.4c1.5,0.4,2.6,0.4,3.7,0.7c1.1,0.4,2.2,0.7,3,1.1c0.8,0.4,1.5,0.7,1.9,1.1c0.4,0.4,0.4,0.4,0.8,0.7
					c0,0.4,0.4,0.4,0.4,0.7c0,0.4,0,0.7,0,1.1c0,0.4,0,1.1,0,1.9s0,1.5,0,2.2s0,1.1-0.4,1.5c0,0.4-0.4,0.7-0.4,0.7
					c-0.4,0-0.4,0.4-0.7,0.4s-0.8-0.4-1.5-0.7c-0.8-0.4-1.5-0.7-2.6-1.5c-1.1-0.4-2.2-0.8-3.7-1.1c-1.5-0.4-3-0.8-4.5-0.8
					c-1.1,0-2.2,0-3.4,0.4s-1.9,0.7-2.2,1.1c-0.8,0.4-1.1,1.1-1.5,1.9c-0.4,0.7-0.4,1.5-0.4,2.2c0,1.1,0.4,2.2,1.1,3.4
					c0.8,0.7,1.5,1.9,3,2.6c1.1,0.7,2.6,1.5,4.1,1.9c1.5,0.7,3,1.1,4.5,1.9c1.5,0.8,3,1.5,4.5,2.2c1.5,0.7,3,1.9,4.1,3.4
					c1.1,1.1,2.2,2.6,3,4.5C2165.5,686.5,2165.9,688.4,2165.9,690.7L2165.9,690.7z M2186.9,706c0,0.4,0,0.4-0.4,0.8
					c-0.4,0.4-0.4,0.4-1.1,0.7c-0.4,0-1.1,0.4-1.9,0.4s-1.9,0-3,0c-1.1,0-2.2,0-3,0s-1.5-0.4-1.9-0.4c-0.4,0-0.8-0.4-1.1-0.7
					c-0.4-0.4-0.4-0.4-0.4-0.8v-53.2c0-0.4,0-0.4,0.4-0.8c0.4-0.4,0.4-0.4,1.1-0.7c0.4,0,1.1-0.4,1.9-0.4s1.9,0,3,0c1.1,0,2.2,0,3,0
					s1.5,0.4,1.9,0.4c0.4,0,0.8,0.4,1.1,0.7c0.4,0.4,0.4,0.4,0.4,0.8V706L2186.9,706z M2231.2,702.7c0,0.7,0,1.5,0,2.2
					c0,0.8-0.4,1.1-0.4,1.5s-0.4,0.7-0.8,0.7c-0.4,0-0.4,0.4-0.7,0.4h-26.6c-1.1,0-1.9-0.4-2.6-0.7c-0.8-0.8-1.1-1.5-1.1-2.6v-51.4
					c0-0.4,0-0.4,0.4-0.8c0.4-0.4,0.4-0.4,1.1-0.7c0.4,0,1.1-0.4,1.9-0.4s1.9,0,3,0c1.1,0,2.2,0,3,0s1.5,0.4,1.9,0.4
					c0.4,0,0.8,0.4,1.1,0.7c0.4,0.4,0.4,0.4,0.4,0.8v45.4h18.4c0.4,0,0.8,0,0.8,0.4c0.4,0,0.4,0.4,0.8,0.7c0,0.4,0.4,0.7,0.4,1.5
					C2231.2,701.2,2231.2,701.9,2231.2,702.7L2231.2,702.7z M2272.4,703c0,0.7,0,1.5,0,2.2s0,1.1-0.4,1.5c0,0.4-0.4,0.7-0.8,0.7
					c-0.4,0-0.4,0.4-0.8,0.4h-29.2c-1.1,0-1.9-0.4-2.6-0.7c-0.8-0.7-1.1-1.5-1.1-2.6v-49.1c0-1.1,0.4-2.2,1.1-2.6
					c0.8-0.8,1.5-0.8,2.6-0.8h28.9c0.4,0,0.4,0,0.8,0.4c0.4,0,0.4,0.4,0.4,0.7c0,0.4,0.4,0.7,0.4,1.5c0,0.7,0,1.1,0,2.2
					c0,0.7,0,1.5,0,2.2c0,0.8,0,1.1-0.4,1.5c0,0.4-0.4,0.7-0.4,0.7c-0.4,0-0.4,0.4-0.8,0.4h-20.6v13.9h17.6c0.4,0,0.4,0,0.7,0.4
					c0.4,0,0.4,0.4,0.8,0.7c0,0.4,0.4,0.7,0.4,1.5c0,0.8,0,1.1,0,1.9c0,0.7,0,1.5,0,2.2c0,0.4,0,1.1-0.4,1.5c0,0.4-0.4,0.7-0.8,0.7
					c-0.4,0-0.4,0.4-0.7,0.4h-17.6v15.7h21c0.4,0,0.4,0,0.8,0.4c0.4,0,0.4,0.4,0.8,0.7c0,0.4,0.4,0.7,0.4,1.5
					C2272.4,701.5,2272.4,702.3,2272.4,703L2272.4,703z M2294.9,706c0,0.4,0,0.4-0.4,0.8c-0.4,0.4-0.4,0.4-1.1,0.7
					c-0.4,0-1.1,0.4-1.9,0.4s-1.9,0-3,0s-2.2,0-3,0c-0.8,0-1.5-0.4-1.9-0.4c-0.4,0-0.8-0.4-1.1-0.7c-0.4-0.4-0.4-0.4-0.4-0.8v-53.2
					c0-0.4,0-0.4,0.4-0.8c0.4-0.4,0.4-0.4,1.1-0.7c0.4,0,1.1-0.4,1.9-0.4c0.7,0,1.9,0,3,0s2.2,0,3,0s1.5,0.4,1.9,0.4
					c0.4,0,0.8,0.4,1.1,0.7c0.4,0.4,0.4,0.4,0.4,0.8V706L2294.9,706z M2350.4,706c0,0.4,0,0.8,0,0.8c0,0.4-0.4,0.4-0.8,0.4
					c-0.4,0-1.1,0.4-1.9,0.4c-0.7,0-1.9,0-3.4,0c-1.1,0-2.2,0-3,0c-0.8,0-1.5,0-1.9-0.4c-0.4,0-0.7-0.4-0.7-0.7s-0.4-0.4-0.4-0.7
					l-5.2-12.7c-0.8-1.5-1.1-2.6-1.9-3.7c-0.8-1.1-1.1-1.9-1.9-2.6c-0.7-0.7-1.5-1.1-2.6-1.5c-1.1-0.4-2.2-0.7-3.4-0.7h-3.7V706
					c0,0.4,0,0.4-0.4,0.8c-0.4,0.4-0.4,0.4-1.1,0.7c-0.4,0-1.1,0.4-1.9,0.4s-1.9,0-3,0s-2.2,0-3,0c-0.8,0-1.5-0.4-1.9-0.4
					c-0.4,0-0.8-0.4-0.8-0.7c0-0.4-0.4-0.4-0.4-0.8v-51.4c0-1.1,0.4-2.2,1.1-2.6c0.7-0.8,1.5-0.8,2.6-0.8h15c1.5,0,2.6,0,3.7,0
					s1.9,0,2.6,0.4c2.2,0.4,4.5,0.7,6.4,1.5c1.9,0.7,3.4,1.9,4.9,3c1.1,1.1,2.2,2.6,3,4.5s1.1,3.7,1.1,6c0,1.9-0.4,3.7-0.7,5.2
					c-0.4,1.5-1.1,3-2.2,4.1c-1.1,1.1-2.2,2.2-3.4,3c-1.5,0.7-3,1.5-4.9,2.2c0.8,0.4,1.5,0.7,2.6,1.5c0.8,0.8,1.5,1.1,2.2,2.2
					c0.7,0.7,1.5,1.9,1.9,3c0.7,1.1,1.1,2.2,1.9,3.7l4.9,11.2c0.4,1.1,0.8,1.9,0.8,2.2C2350.4,705.3,2350.4,705.7,2350.4,706
					L2350.4,706z M2335.4,667.8c0-1.9-0.4-3.4-1.1-4.9c-0.8-1.1-2.2-2.2-4.1-2.6c-0.8,0-1.1-0.4-1.9-0.4s-1.9,0-3,0h-5.2V676h6
					c1.5,0,3-0.4,4.5-0.7c1.1-0.4,2.2-1.1,3-1.5c0.8-0.7,1.5-1.5,1.9-2.6C2335,670,2335.4,668.9,2335.4,667.8L2335.4,667.8z
					 M2410.4,678.7c0,4.5-0.8,9-1.9,12.7c-1.1,3.7-3,6.7-5.2,9.4c-2.2,2.6-5.2,4.5-8.6,6c-3.4,1.5-7.5,1.9-12,1.9s-8.6-0.8-11.6-1.9
					c-3.4-1.1-6-3-8.2-5.2c-2.2-2.2-3.7-5.2-4.9-9c-1.1-3.7-1.5-7.9-1.5-12.7c0-4.5,0.8-8.6,1.9-12.4s3-6.7,5.2-9.4
					c2.2-2.6,5.2-4.5,8.6-6c3.4-1.5,7.5-1.9,12-1.9s8.2,0.7,11.6,1.9s6,3,8.2,5.2c2.2,2.2,4.1,5.2,5.2,9
					C2409.6,669.7,2410.4,673.8,2410.4,678.7L2410.4,678.7z M2398,679.4c0-3-0.4-5.6-0.8-8.2c-0.4-2.2-1.1-4.5-2.2-6.4
					s-2.6-3-4.5-4.1c-1.9-1.1-4.1-1.5-7.1-1.5c-3,0-5.2,0.4-7.1,1.5s-3.4,2.6-4.9,4.1c-1.1,1.9-1.9,3.7-2.6,6.4
					c-0.4,2.2-0.8,4.9-0.8,7.5c0,3,0.4,6,0.8,8.2c0.4,2.6,1.1,4.5,2.2,6.4s2.6,3,4.5,4.1c1.9,0.7,4.1,1.5,7.1,1.5s5.2-0.4,7.1-1.5
					s3.4-2.6,4.9-4.1c1.1-1.9,1.9-3.7,2.6-6.4C2397.6,684.7,2398,682,2398,679.4z"/>
			</g>
		</g>
	</g>
</g>
</svg>
