<?xml version="1.0" encoding="utf-8"?>
<!-- Generator: Adobe Illustrator 20.1.0, SVG Export Plug-In . SVG Version: 6.00 Build 0)  -->
<svg version="1.2" baseProfile="tiny" id="Camada_1"
	 xmlns="http://www.w3.org/2000/svg" xmlns:xlink="http://www.w3.org/1999/xlink" x="0px" y="0px" viewBox="0 0 200 100"
	 overflow="scroll" xml:space="preserve">
<g>
	<path fill="#FFFFFF" fill-rule="evenodd" d="M58.5,61c0,0,0.1,0,0.1,0c0,0,0,0,0.1,0c0,0,0,0,0,0v-2.5h0.8c0,0,0,0,0,0c0,0,0,0,0,0c0,0,0,0,0-0.1
		c0,0,0-0.1,0-0.1c0,0,0-0.1,0-0.1c0,0,0-0.1,0-0.1c0,0,0,0,0,0c0,0,0,0,0,0h-2.3c0,0,0,0,0,0c0,0,0,0,0,0c0,0,0,0,0,0.1
		c0,0,0,0.1,0,0.1c0,0,0,0.1,0,0.1c0,0,0,0.1,0,0.1c0,0,0,0,0,0c0,0,0,0,0,0H58V61c0,0,0,0,0,0c0,0,0,0,0.1,0c0,0,0.1,0,0.1,0
		c0,0,0.1,0,0.2,0C58.4,61.1,58.5,61.1,58.5,61z"/>
	<path fill="#FFFFFF" fill-rule="evenodd" d="M25.8,57.9c0,0-0.1,0-0.2,0c-0.1,0-0.1,0-0.2,0c0,0-0.1,0-0.1,0c0,0,0,0-0.1,0c0,0,0,0,0,0v3
		c0,0,0,0,0,0c0,0,0,0,0.1,0c0,0,0.1,0,0.1,0c0,0,0.1,0,0.2,0c0.1,0,0.1,0,0.2,0c0,0,0.1,0,0.1,0c0,0,0,0,0.1,0c0,0,0,0,0,0v-3
		c0,0,0,0,0,0C25.9,57.9,25.9,57.9,25.8,57.9C25.9,57.9,25.8,57.9,25.8,57.9z"/>
	<path fill="#FFFFFF" fill-rule="evenodd" d="M28.5,60.5c0.1-0.1,0.1-0.3,0.1-0.4c0-0.1,0-0.2-0.1-0.3c0-0.1-0.1-0.2-0.2-0.2
		c-0.1-0.1-0.1-0.1-0.2-0.2c-0.1,0-0.2-0.1-0.3-0.1c-0.1,0-0.2-0.1-0.3-0.1c-0.1,0-0.2-0.1-0.2-0.1c-0.1,0-0.1-0.1-0.2-0.1
		c0-0.1-0.1-0.1-0.1-0.2c0,0,0-0.1,0-0.1c0,0,0-0.1,0.1-0.1c0,0,0.1-0.1,0.1-0.1c0.1,0,0.1,0,0.2,0c0.1,0,0.2,0,0.3,0
		c0.1,0,0.1,0,0.2,0.1c0.1,0,0.1,0.1,0.1,0.1c0,0,0.1,0,0.1,0c0,0,0,0,0,0c0,0,0,0,0,0c0,0,0,0,0-0.1c0,0,0-0.1,0-0.1
		c0,0,0-0.1,0-0.1c0,0,0-0.1,0-0.1c0,0,0,0,0,0c0,0,0,0,0,0c0,0-0.1,0-0.1-0.1c-0.1,0-0.1,0-0.2-0.1c-0.1,0-0.1,0-0.2,0
		c-0.1,0-0.2,0-0.2,0c-0.1,0-0.3,0-0.4,0.1c-0.1,0-0.2,0.1-0.3,0.2c-0.1,0.1-0.2,0.2-0.2,0.3c-0.1,0.1-0.1,0.2-0.1,0.4
		c0,0.1,0,0.2,0.1,0.3c0,0.1,0.1,0.2,0.2,0.2c0.1,0.1,0.1,0.1,0.2,0.2c0.1,0,0.2,0.1,0.3,0.1c0.1,0,0.2,0.1,0.3,0.1
		c0.1,0,0.2,0.1,0.2,0.1c0.1,0,0.1,0.1,0.2,0.1c0,0.1,0.1,0.1,0.1,0.2c0,0.1,0,0.1,0,0.2c0,0-0.1,0.1-0.1,0.1c0,0-0.1,0.1-0.2,0.1
		c-0.1,0-0.1,0-0.2,0c-0.1,0-0.2,0-0.3,0c-0.1,0-0.2-0.1-0.2-0.1c-0.1,0-0.1-0.1-0.2-0.1c0,0-0.1,0-0.1,0c0,0,0,0,0,0c0,0,0,0,0,0
		c0,0,0,0,0,0.1c0,0,0,0.1,0,0.1c0,0.1,0,0.1,0,0.2c0,0,0,0.1,0,0.1c0,0,0.1,0,0.1,0.1c0,0,0.1,0.1,0.2,0.1c0.1,0,0.2,0,0.3,0.1
		c0.1,0,0.2,0,0.3,0c0.2,0,0.3,0,0.5-0.1c0.1,0,0.3-0.1,0.4-0.2C28.3,60.8,28.4,60.7,28.5,60.5z"/>
	<path fill="#FFFFFF" fill-rule="evenodd" d="M56.8,59.5c-0.1-0.1-0.1-0.1-0.2-0.2c-0.1,0-0.2-0.1-0.3-0.1c-0.1,0-0.2-0.1-0.3-0.1
		c-0.1,0-0.2-0.1-0.2-0.1c-0.1,0-0.1-0.1-0.2-0.1c0-0.1-0.1-0.1-0.1-0.2c0,0,0-0.1,0-0.1c0,0,0-0.1,0.1-0.1c0,0,0.1-0.1,0.1-0.1
		c0.1,0,0.1,0,0.2,0c0.1,0,0.2,0,0.3,0c0.1,0,0.1,0,0.2,0.1c0.1,0,0.1,0.1,0.1,0.1c0,0,0.1,0,0.1,0c0,0,0,0,0,0c0,0,0,0,0,0
		c0,0,0,0,0-0.1c0,0,0-0.1,0-0.1c0,0,0-0.1,0-0.1c0,0,0-0.1,0-0.1c0,0,0,0,0,0c0,0,0,0,0,0c0,0-0.1,0-0.1-0.1c-0.1,0-0.1,0-0.2-0.1
		c-0.1,0-0.1,0-0.2,0c-0.1,0-0.2,0-0.2,0c-0.1,0-0.3,0-0.4,0.1c-0.1,0-0.2,0.1-0.3,0.2c-0.1,0.1-0.2,0.2-0.2,0.3
		C55,58.5,55,58.6,55,58.8c0,0.1,0,0.2,0.1,0.3c0,0.1,0.1,0.2,0.2,0.2c0.1,0.1,0.1,0.1,0.2,0.2c0.1,0,0.2,0.1,0.3,0.1
		c0.1,0,0.2,0.1,0.3,0.1c0.1,0,0.2,0.1,0.2,0.1c0.1,0,0.1,0.1,0.2,0.1c0,0.1,0.1,0.1,0.1,0.2c0,0.1,0,0.1,0,0.2c0,0-0.1,0.1-0.1,0.1
		c0,0-0.1,0.1-0.2,0.1c-0.1,0-0.1,0-0.2,0c-0.1,0-0.2,0-0.3,0c-0.1,0-0.2-0.1-0.2-0.1c-0.1,0-0.1-0.1-0.2-0.1c0,0-0.1,0-0.1,0
		c0,0,0,0,0,0c0,0,0,0,0,0c0,0,0,0,0,0.1c0,0,0,0.1,0,0.1c0,0.1,0,0.1,0,0.2c0,0,0,0.1,0,0.1c0,0,0.1,0,0.1,0.1c0,0,0.1,0.1,0.2,0.1
		c0.1,0,0.2,0,0.3,0.1c0.1,0,0.2,0,0.3,0c0.2,0,0.3,0,0.5-0.1c0.1,0,0.3-0.1,0.4-0.2c0.1-0.1,0.2-0.2,0.3-0.3
		c0.1-0.1,0.1-0.3,0.1-0.4c0-0.1,0-0.2-0.1-0.3C56.9,59.7,56.9,59.6,56.8,59.5z"/>
	<path fill="#FFFFFF" fill-rule="evenodd" d="M33.3,58.4C33.3,58.4,33.3,58.4,33.3,58.4C33.3,58.4,33.4,58.4,33.3,58.4c0.1-0.1,0.1-0.1,0.1-0.1
		c0,0,0-0.1,0-0.1c0,0,0-0.1,0-0.1c0,0,0-0.1,0-0.1c0,0,0,0,0,0c0,0,0,0,0,0h-1.6c-0.1,0-0.1,0-0.1,0c0,0-0.1,0.1-0.1,0.2v2.7
		c0,0.1,0,0.1,0.1,0.2c0,0,0.1,0,0.1,0h1.6c0,0,0,0,0,0c0,0,0,0,0,0c0,0,0,0,0-0.1c0,0,0-0.1,0-0.1c0,0,0-0.1,0-0.1c0,0,0-0.1,0-0.1
		c0,0,0,0,0,0c0,0,0,0,0,0h-1.2v-0.9h1c0,0,0,0,0,0c0,0,0,0,0,0c0,0,0,0,0-0.1c0,0,0-0.1,0-0.1c0,0,0-0.1,0-0.1c0,0,0-0.1,0-0.1
		c0,0,0,0,0,0c0,0,0,0,0,0h-1v-0.8H33.3z"/>
	<path fill="#FFFFFF" fill-rule="evenodd" d="M31.1,58C31.1,58,31.1,57.9,31.1,58C31.1,57.9,31,57.9,31.1,58l-2.3-0.1c0,0,0,0,0,0c0,0,0,0,0,0
		c0,0,0,0,0,0.1c0,0,0,0.1,0,0.1c0,0,0,0.1,0,0.1c0,0,0,0.1,0,0.1c0,0,0,0,0,0c0,0,0,0,0,0h0.8V61c0,0,0,0,0,0c0,0,0,0,0.1,0
		c0,0,0.1,0,0.1,0c0,0,0.1,0,0.2,0c0.1,0,0.1,0,0.2,0c0,0,0.1,0,0.1,0c0,0,0,0,0.1,0c0,0,0,0,0,0v-2.5H31c0,0,0,0,0,0c0,0,0,0,0,0
		c0,0,0,0,0-0.1c0,0,0-0.1,0-0.1C31.1,58.1,31.1,58.1,31.1,58C31.1,58,31.1,58,31.1,58z"/>
	<path fill="#FFFFFF" fill-rule="evenodd" d="M40,58C40,58,40,58,40,58c0-0.1-0.1-0.1-0.1-0.1c0,0-0.1,0-0.1,0c-0.1,0-0.1,0-0.2,0
		c-0.1,0-0.2,0-0.2,0c-0.1,0-0.1,0-0.1,0c0,0,0,0-0.1,0c0,0,0,0,0,0.1l-1,2.8c0,0.1,0,0.1,0,0.1c0,0,0,0.1,0,0.1c0,0,0,0,0.1,0
		c0,0,0.1,0,0.2,0c0.1,0,0.1,0,0.2,0c0,0,0.1,0,0.1,0c0,0,0,0,0.1,0c0,0,0,0,0-0.1l0.2-0.6h1.2l0.2,0.6c0,0,0,0,0,0.1c0,0,0,0,0.1,0
		c0,0,0.1,0,0.1,0c0,0,0.1,0,0.2,0c0.1,0,0.1,0,0.2,0c0,0,0.1,0,0.1,0c0,0,0,0,0-0.1c0,0,0-0.1,0-0.1L40,58z M39.1,59.8l0.4-1.3h0
		l0.5,1.3H39.1z"/>
	<path fill="#FFFFFF" fill-rule="evenodd" d="M24.8,60.1c0-0.1,0-0.2-0.1-0.3c0-0.1-0.1-0.2-0.2-0.2c-0.1-0.1-0.1-0.1-0.2-0.2
		c-0.1,0-0.2-0.1-0.3-0.1c-0.1,0-0.2-0.1-0.3-0.1c-0.1,0-0.2-0.1-0.2-0.1c-0.1,0-0.1-0.1-0.2-0.1c0-0.1-0.1-0.1-0.1-0.2
		c0,0,0-0.1,0-0.1c0,0,0-0.1,0.1-0.1c0,0,0.1-0.1,0.1-0.1c0.1,0,0.1,0,0.2,0c0.1,0,0.2,0,0.3,0c0.1,0,0.1,0,0.2,0.1
		c0.1,0,0.1,0.1,0.1,0.1c0,0,0.1,0,0.1,0c0,0,0,0,0,0c0,0,0,0,0,0c0,0,0,0,0-0.1c0,0,0-0.1,0-0.1c0,0,0-0.1,0-0.1c0,0,0-0.1,0-0.1
		c0,0,0,0,0,0c0,0,0,0,0,0c0,0-0.1,0-0.1-0.1c-0.1,0-0.1,0-0.2-0.1c-0.1,0-0.1,0-0.2,0c-0.1,0-0.2,0-0.2,0c-0.1,0-0.3,0-0.4,0.1
		c-0.1,0-0.2,0.1-0.3,0.2c-0.1,0.1-0.2,0.2-0.2,0.3c-0.1,0.1-0.1,0.2-0.1,0.4c0,0.1,0,0.2,0.1,0.3c0,0.1,0.1,0.2,0.2,0.2
		c0.1,0.1,0.1,0.1,0.2,0.2c0.1,0,0.2,0.1,0.3,0.1c0.1,0,0.2,0.1,0.3,0.1c0.1,0,0.2,0.1,0.2,0.1c0.1,0,0.1,0.1,0.2,0.1
		c0,0.1,0.1,0.1,0.1,0.2c0,0.1,0,0.1,0,0.2c0,0-0.1,0.1-0.1,0.1c0,0-0.1,0.1-0.2,0.1c-0.1,0-0.1,0-0.2,0c-0.1,0-0.2,0-0.3,0
		c-0.1,0-0.2-0.1-0.2-0.1c-0.1,0-0.1-0.1-0.2-0.1c0,0-0.1,0-0.1,0c0,0,0,0,0,0c0,0,0,0,0,0c0,0,0,0,0,0.1c0,0,0,0.1,0,0.1
		c0,0.1,0,0.1,0,0.2c0,0,0,0.1,0,0.1c0,0,0.1,0,0.1,0.1c0,0,0.1,0.1,0.2,0.1c0.1,0,0.2,0,0.3,0.1c0.1,0,0.2,0,0.3,0
		c0.2,0,0.3,0,0.5-0.1c0.1,0,0.3-0.1,0.4-0.2c0.1-0.1,0.2-0.2,0.3-0.3C24.8,60.4,24.8,60.3,24.8,60.1z"/>
	<path fill="#FFFFFF" fill-rule="evenodd" d="M44.9,58.3c-0.1-0.1-0.3-0.2-0.5-0.3c-0.2-0.1-0.4-0.1-0.7-0.1h-0.8c-0.1,0-0.1,0-0.1,0
		c0,0-0.1,0.1-0.1,0.2v2.7c0,0.1,0,0.1,0.1,0.2c0,0,0.1,0,0.1,0h0.8c0.3,0,0.5,0,0.7-0.1c0.2-0.1,0.4-0.2,0.5-0.3
		c0.1-0.1,0.3-0.3,0.3-0.5c0.1-0.2,0.1-0.4,0.1-0.7c0-0.2,0-0.5-0.1-0.7C45.1,58.6,45,58.4,44.9,58.3z M44.6,59.9
		c0,0.1-0.1,0.2-0.2,0.3c-0.1,0.1-0.2,0.2-0.3,0.2c-0.1,0-0.3,0.1-0.5,0.1h-0.3v-2.1h0.3c0.2,0,0.4,0,0.5,0.1
		c0.1,0.1,0.2,0.1,0.3,0.2c0.1,0.1,0.1,0.2,0.2,0.3c0,0.1,0.1,0.3,0.1,0.4C44.6,59.6,44.6,59.8,44.6,59.9z"/>
	<path fill="#FFFFFF" fill-rule="evenodd" d="M51.4,61c0.1,0,0.2,0,0.2-0.1c0.1,0,0.1,0,0.2-0.1c0.1,0,0.1,0,0.1-0.1c0,0,0-0.1,0-0.1v-1.2
		c0,0,0-0.1,0-0.1c0,0,0,0,0-0.1c0,0,0,0-0.1,0c0,0,0,0-0.1,0h-1.1c0,0,0,0,0,0c0,0,0,0,0,0c0,0,0,0,0,0.1c0,0,0,0.1,0,0.1
		c0,0.1,0,0.1,0,0.2c0,0,0,0.1,0.1,0.1h0.6v0.7c-0.1,0-0.1,0.1-0.2,0.1c-0.1,0-0.1,0-0.2,0c-0.1,0-0.3,0-0.4-0.1
		c-0.1,0-0.2-0.1-0.3-0.2c-0.1-0.1-0.2-0.2-0.2-0.3c0-0.1-0.1-0.3-0.1-0.5c0-0.2,0-0.3,0.1-0.4c0-0.1,0.1-0.2,0.2-0.3
		c0.1-0.1,0.2-0.2,0.3-0.2c0.1-0.1,0.3-0.1,0.4-0.1c0.1,0,0.3,0,0.4,0c0.1,0,0.2,0.1,0.3,0.1c0.1,0,0.1,0.1,0.2,0.1c0,0,0.1,0,0.1,0
		c0,0,0,0,0,0c0,0,0,0,0,0c0,0,0,0,0-0.1c0,0,0-0.1,0-0.1c0-0.1,0-0.1,0-0.2c0,0,0-0.1,0-0.1c0,0-0.1,0-0.1-0.1
		c-0.1,0-0.1-0.1-0.2-0.1c-0.1,0-0.2,0-0.3-0.1c-0.1,0-0.2,0-0.4,0c-0.3,0-0.5,0-0.7,0.1c-0.2,0.1-0.4,0.2-0.5,0.3
		c-0.1,0.1-0.3,0.3-0.3,0.5c-0.1,0.2-0.1,0.4-0.1,0.7c0,0.2,0,0.5,0.1,0.7c0.1,0.2,0.2,0.4,0.3,0.5c0.1,0.1,0.3,0.2,0.5,0.3
		c0.2,0.1,0.4,0.1,0.7,0.1c0.1,0,0.2,0,0.3,0C51.3,61.1,51.4,61.1,51.4,61z"/>
	<path fill="#FFFFFF" fill-rule="evenodd" d="M47.7,60.6C47.7,60.6,47.7,60.6,47.7,60.6C47.7,60.5,47.7,60.5,47.7,60.6l-1.2-0.1v-0.9h1c0,0,0,0,0,0
		c0,0,0,0,0,0c0,0,0,0,0-0.1c0,0,0-0.1,0-0.1c0,0,0-0.1,0-0.1c0,0,0-0.1,0-0.1c0,0,0,0,0,0c0,0,0,0,0,0h-1v-0.8h1.1c0,0,0,0,0,0
		c0,0,0,0,0,0c0,0,0,0,0-0.1c0,0,0-0.1,0-0.1c0,0,0-0.1,0-0.1c0,0,0-0.1,0-0.1c0,0,0,0,0,0c0,0,0,0,0,0H46c-0.1,0-0.1,0-0.1,0
		c0,0-0.1,0.1-0.1,0.2v2.7c0,0.1,0,0.1,0.1,0.2c0,0,0.1,0,0.1,0h1.6c0,0,0,0,0,0c0,0,0,0,0,0c0,0,0,0,0-0.1c0,0,0-0.1,0-0.1
		C47.7,60.7,47.7,60.7,47.7,60.6C47.7,60.6,47.7,60.6,47.7,60.6z"/>
	<path fill="#FFFFFF" fill-rule="evenodd" d="M54.5,58.4C54.5,58.4,54.5,58.4,54.5,58.4C54.5,58.4,54.5,58.4,54.5,58.4c0.1-0.1,0.1-0.1,0.1-0.1
		c0,0,0-0.1,0-0.1c0,0,0-0.1,0-0.1c0,0,0-0.1,0-0.1c0,0,0,0,0,0c0,0,0,0,0,0h-1.6c-0.1,0-0.1,0-0.1,0c0,0-0.1,0.1-0.1,0.2v2.7
		c0,0.1,0,0.1,0.1,0.2c0,0,0.1,0,0.1,0h1.6c0,0,0,0,0,0c0,0,0,0,0,0c0,0,0,0,0-0.1c0,0,0-0.1,0-0.1c0,0,0-0.1,0-0.1c0,0,0-0.1,0-0.1
		c0,0,0,0,0,0c0,0,0,0,0,0h-1.2v-0.9h1c0,0,0,0,0,0c0,0,0,0,0,0c0,0,0,0,0-0.1c0,0,0-0.1,0-0.1c0,0,0-0.1,0-0.1c0,0,0-0.1,0-0.1
		c0,0,0,0,0,0c0,0,0,0,0,0h-1v-0.8H54.5z"/>
	<path fill="#FFFFFF" fill-rule="evenodd" d="M35.5,61C35.5,61,35.6,61,35.5,61c0.1,0,0.1,0,0.2,0.1c0,0,0.1,0,0.1,0c0.1,0,0.1,0,0.1,0
		c0,0,0.1,0,0.1,0c0,0,0,0,0.1,0c0,0,0,0,0-0.1l0.9-2.5h0V61c0,0,0,0,0,0c0,0,0,0,0,0c0,0,0.1,0,0.1,0c0,0,0.1,0,0.1,0
		c0.1,0,0.1,0,0.2,0c0,0,0.1,0,0.1,0c0,0,0,0,0,0c0,0,0,0,0,0v-2.8c0,0,0-0.1,0-0.1c0,0,0-0.1,0-0.1c0,0,0,0-0.1,0c0,0-0.1,0-0.1,0
		H37c-0.1,0-0.1,0-0.2,0c0,0-0.1,0-0.1,0.1c0,0-0.1,0.1-0.1,0.1c0,0,0,0.1-0.1,0.2l-0.7,1.9h0l-0.7-1.9c0-0.1,0-0.1-0.1-0.2
		c0,0-0.1-0.1-0.1-0.1c0,0-0.1,0-0.1-0.1c-0.1,0-0.1,0-0.2,0h-0.4c-0.1,0-0.1,0-0.2,0.1c0,0-0.1,0.1-0.1,0.2V61c0,0,0,0,0,0
		c0,0,0,0,0.1,0c0,0,0.1,0,0.1,0c0,0,0.1,0,0.1,0c0.1,0,0.1,0,0.1,0c0,0,0.1,0,0.1,0c0,0,0,0,0.1,0c0,0,0,0,0,0v-2.5h0L35.5,61
		C35.5,61,35.5,61,35.5,61z"/>
	<path fill="#FFFFFF" fill-rule="evenodd" d="M84.3,59.4c0-0.3,0-0.5-0.1-0.7c-0.1-0.2-0.2-0.4-0.3-0.5c-0.1-0.1-0.3-0.2-0.5-0.3
		c-0.2-0.1-0.4-0.1-0.6-0.1c-0.3,0-0.5,0-0.7,0.1c-0.2,0.1-0.4,0.2-0.5,0.3c-0.1,0.1-0.2,0.3-0.3,0.5c-0.1,0.2-0.1,0.4-0.1,0.7
		c0,0.3,0,0.5,0.1,0.7c0.1,0.2,0.2,0.4,0.3,0.5c0.1,0.1,0.3,0.2,0.5,0.3c0.2,0.1,0.4,0.1,0.7,0.1c0.3,0,0.5,0,0.7-0.1
		c0.2-0.1,0.4-0.2,0.5-0.3c0.1-0.1,0.2-0.3,0.3-0.5C84.3,59.9,84.3,59.7,84.3,59.4z M83.6,59.9c0,0.1-0.1,0.2-0.1,0.3
		c-0.1,0.1-0.2,0.2-0.3,0.2c-0.1,0.1-0.2,0.1-0.4,0.1c-0.2,0-0.3,0-0.4-0.1c-0.1-0.1-0.2-0.1-0.3-0.2c-0.1-0.1-0.1-0.2-0.1-0.3
		c0-0.1,0-0.3,0-0.5c0-0.1,0-0.3,0-0.4c0-0.1,0.1-0.2,0.1-0.3c0.1-0.1,0.2-0.2,0.3-0.2c0.1-0.1,0.2-0.1,0.4-0.1c0.2,0,0.3,0,0.4,0.1
		c0.1,0.1,0.2,0.1,0.3,0.2c0.1,0.1,0.1,0.2,0.1,0.3c0,0.1,0,0.3,0,0.4C83.6,59.6,83.6,59.8,83.6,59.9z"/>
	<path fill="#FFFFFF" fill-rule="evenodd" d="M61.3,57C61.3,57.1,61.3,57.1,61.3,57c0,0.1-0.1,0.2-0.1,0.2c0,0-0.1,0-0.1,0c0,0-0.1,0-0.1,0
		c0,0-0.1-0.1-0.1-0.1c-0.1,0-0.1-0.1-0.2-0.1c-0.1,0-0.1,0-0.2,0c-0.1,0-0.2,0-0.2,0c-0.1,0-0.1,0.1-0.2,0.1c0,0-0.1,0.1-0.1,0.2
		c0,0.1,0,0.2,0,0.2c0,0,0,0.1,0,0.1c0,0,0.1,0,0.2,0c0,0,0.1,0,0.1,0c0,0,0,0,0.1,0c0,0,0,0,0,0c0,0,0,0,0,0c0-0.1,0-0.1,0-0.1
		s0.1,0,0.1,0c0,0,0.1,0,0.1,0c0,0,0.1,0.1,0.1,0.1c0.1,0,0.1,0.1,0.2,0.1c0.1,0,0.1,0,0.2,0c0.2,0,0.3,0,0.4-0.1
		c0.1-0.1,0.1-0.2,0.1-0.4c0,0,0-0.1,0-0.1c0,0-0.1,0-0.2,0C61.4,57,61.3,57,61.3,57z"/>
	<path fill="#FFFFFF" fill-rule="evenodd" d="M99,57.1c-0.1,0-0.1,0-0.2,0c-0.1,0-0.2,0-0.2,0c-0.1,0-0.1,0.1-0.2,0.1c0,0-0.1,0.1-0.1,0.2
		c0,0.1,0,0.2,0,0.2c0,0,0,0.1,0,0.1c0,0,0.1,0,0.2,0c0,0,0.1,0,0.1,0c0,0,0,0,0.1,0c0,0,0,0,0,0c0,0,0,0,0,0c0-0.1,0-0.1,0-0.1
		c0,0,0.1,0,0.1,0c0,0,0.1,0,0.1,0c0,0,0.1,0.1,0.1,0.1c0.1,0,0.1,0.1,0.2,0.1c0.1,0,0.1,0,0.2,0c0.2,0,0.3,0,0.4-0.1
		c0.1-0.1,0.1-0.2,0.1-0.4c0,0,0-0.1,0-0.1c0,0-0.1,0-0.2,0c-0.1,0-0.1,0-0.2,0c0,0,0,0,0,0.1c0,0.1,0,0.1,0,0.1c0,0-0.1,0-0.1,0
		c0,0-0.1,0-0.1,0c0,0-0.1-0.1-0.1-0.1C99.1,57.1,99,57.1,99,57.1z"/>
	<path fill="#FFFFFF" fill-rule="evenodd" d="M87.2,61C87.2,61,87.2,61,87.2,61C87.3,61,87.3,61,87.2,61c0.1-0.1,0.1-0.1,0-0.1c0,0,0-0.1,0-0.1
		l-0.3-0.6c0-0.1-0.1-0.1-0.1-0.2c0-0.1-0.1-0.1-0.1-0.2c0,0-0.1-0.1-0.1-0.1c0,0-0.1-0.1-0.1-0.1c0.1,0,0.2-0.1,0.3-0.1
		c0.1,0,0.1-0.1,0.2-0.2c0.1-0.1,0.1-0.1,0.1-0.2c0-0.1,0-0.2,0-0.3c0-0.1,0-0.2-0.1-0.3c0-0.1-0.1-0.2-0.2-0.2
		c-0.1-0.1-0.2-0.1-0.3-0.2c-0.1,0-0.2-0.1-0.3-0.1c0,0-0.1,0-0.1,0c-0.1,0-0.1,0-0.2,0h-0.8c-0.1,0-0.1,0-0.1,0
		c0,0-0.1,0.1-0.1,0.2V61c0,0,0,0,0,0c0,0,0,0,0.1,0c0,0,0.1,0,0.1,0c0,0,0.1,0,0.2,0c0.1,0,0.1,0,0.2,0c0,0,0.1,0,0.1,0
		c0,0,0,0,0.1,0c0,0,0,0,0,0v-1.2h0.2c0.1,0,0.1,0,0.2,0c0.1,0,0.1,0.1,0.1,0.1c0,0,0.1,0.1,0.1,0.2c0,0.1,0.1,0.1,0.1,0.2l0.3,0.7
		c0,0,0,0,0,0c0,0,0,0,0.1,0c0,0,0.1,0,0.1,0c0,0,0.1,0,0.2,0c0.1,0,0.1,0,0.2,0C87.1,61,87.2,61,87.2,61z M86.4,59
		c0,0.1-0.1,0.1-0.1,0.1c0,0-0.1,0.1-0.2,0.1c-0.1,0-0.1,0-0.2,0h-0.3v-0.9h0.3c0.1,0,0.1,0,0.2,0c0,0,0.1,0,0.1,0
		c0.1,0,0.2,0.1,0.2,0.2c0,0.1,0.1,0.2,0.1,0.3C86.4,58.9,86.4,59,86.4,59z"/>
	<path fill="#FFFFFF" fill-rule="evenodd" d="M79.8,59.8h1c0,0,0,0,0,0c0,0,0,0,0,0c0,0,0,0,0-0.1c0,0,0-0.1,0-0.1c0,0,0-0.1,0-0.1c0,0,0-0.1,0-0.1
		c0,0,0,0,0,0c0,0,0,0,0,0h-1v-0.8h1.1c0,0,0,0,0,0c0,0,0,0,0,0c0,0,0,0,0-0.1c0,0,0-0.1,0-0.1c0,0,0-0.1,0-0.1c0,0,0-0.1,0-0.1
		c0,0,0,0,0,0c0,0,0,0,0,0h-1.5c-0.1,0-0.1,0-0.1,0c0,0-0.1,0.1-0.1,0.2v2.8c0,0,0,0,0,0c0,0,0,0,0.1,0c0,0,0.1,0,0.1,0
		c0,0,0.1,0,0.2,0c0.1,0,0.1,0,0.2,0c0,0,0.1,0,0.1,0c0,0,0,0,0.1,0c0,0,0,0,0,0V59.8z"/>
	<path fill="#FFFFFF" fill-rule="evenodd" d="M97.3,60.8C97.4,60.8,97.4,60.8,97.3,60.8c0-0.1,0.1-0.1,0.1-0.1c0,0,0,0,0-0.1c0,0,0-0.1,0-0.1
		c0-0.1,0-0.1,0-0.1c0,0,0-0.1,0-0.1c0,0,0,0,0,0c0,0,0,0,0,0c0,0-0.1,0-0.1,0c0,0-0.1,0.1-0.1,0.1c-0.1,0-0.1,0.1-0.2,0.1
		c-0.1,0-0.2,0-0.3,0c-0.1,0-0.2,0-0.3-0.1c-0.1,0-0.2-0.1-0.3-0.2c-0.1-0.1-0.1-0.2-0.2-0.3c0-0.1-0.1-0.3-0.1-0.5
		c0-0.2,0-0.3,0.1-0.5c0-0.1,0.1-0.2,0.2-0.3c0.1-0.1,0.2-0.2,0.3-0.2c0.1-0.1,0.2-0.1,0.3-0.1c0.1,0,0.2,0,0.3,0
		c0.1,0,0.2,0.1,0.2,0.1c0.1,0,0.1,0.1,0.1,0.1c0,0,0.1,0,0.1,0c0,0,0,0,0,0c0,0,0,0,0,0c0,0,0,0,0-0.1c0,0,0-0.1,0-0.1
		c0,0,0-0.1,0-0.1c0,0,0-0.1,0-0.1c0,0,0,0,0-0.1c0,0,0,0,0-0.1c0,0-0.1,0-0.1-0.1c-0.1,0-0.1-0.1-0.2-0.1c-0.1,0-0.1,0-0.2-0.1
		c-0.1,0-0.2,0-0.3,0c-0.2,0-0.4,0-0.6,0.1c-0.2,0.1-0.3,0.2-0.5,0.3c-0.1,0.1-0.2,0.3-0.3,0.5C95.1,59,95,59.3,95,59.5
		c0,0.3,0,0.5,0.1,0.7c0.1,0.2,0.2,0.4,0.3,0.5c0.1,0.1,0.2,0.2,0.4,0.3c0.1,0.1,0.3,0.1,0.4,0.1l0.1,0.2c0,0,0,0.1,0,0.1
		c0,0,0,0,0,0.1c0,0,0,0.1,0,0.1c0,0-0.1,0-0.1,0h-0.3c0,0-0.1,0-0.1,0c0,0,0,0.1,0,0.1c0,0,0,0.1,0,0.1c0,0,0,0,0,0c0,0,0,0,0,0
		c0,0,0,0,0.1,0c0,0,0.1,0,0.2,0c0.1,0,0.1,0,0.2,0c0.1,0,0.1,0,0.2,0c0.1,0,0.1,0,0.2-0.1c0,0,0.1-0.1,0.1-0.1c0-0.1,0-0.1,0-0.2
		c0,0,0-0.1,0-0.1c0,0,0-0.1-0.1-0.2l-0.1-0.1c0.1,0,0.1,0,0.2,0c0.1,0,0.1,0,0.2-0.1c0.1,0,0.1,0,0.2-0.1
		C97.3,60.9,97.3,60.9,97.3,60.8z"/>
	<path fill="#FFFFFF" fill-rule="evenodd" d="M100.5,61C100.5,61,100.5,61,100.5,61c0-0.1,0-0.2,0-0.2l-1-2.8c0,0,0-0.1,0-0.1c0,0,0,0-0.1,0
		c0,0-0.1,0-0.1,0c-0.1,0-0.1,0-0.2,0c-0.1,0-0.2,0-0.2,0c-0.1,0-0.1,0-0.1,0c0,0,0,0-0.1,0c0,0,0,0,0,0.1l-1,2.8c0,0.1,0,0.1,0,0.1
		c0,0,0,0.1,0,0.1c0,0,0,0,0.1,0c0,0,0.1,0,0.2,0c0.1,0,0.1,0,0.2,0c0,0,0.1,0,0.1,0c0,0,0,0,0.1,0c0,0,0,0,0-0.1l0.2-0.6h1.2
		l0.2,0.6c0,0,0,0,0,0.1c0,0,0,0,0.1,0c0,0,0.1,0,0.1,0c0,0,0.1,0,0.2,0C100.3,61.1,100.4,61.1,100.5,61C100.5,61,100.5,61,100.5,61
		z M98.6,59.8l0.4-1.3h0l0.5,1.3H98.6z"/>
	<path fill="#FFFFFF" fill-rule="evenodd" d="M91.4,58C91.4,58,91.4,57.9,91.4,58c-0.1-0.1-0.1-0.1-0.2-0.1h-0.4c-0.1,0-0.1,0-0.2,0
		c0,0-0.1,0-0.1,0.1c0,0-0.1,0.1-0.1,0.1c0,0,0,0.1-0.1,0.2l-0.7,1.9h0l-0.7-1.9c0-0.1,0-0.1-0.1-0.2c0,0-0.1-0.1-0.1-0.1
		c0,0-0.1,0-0.1-0.1c-0.1,0-0.1,0-0.2,0H88c-0.1,0-0.1,0-0.2,0.1c0,0-0.1,0.1-0.1,0.2V61c0,0,0,0,0,0c0,0,0,0,0,0c0,0,0.1,0,0.1,0
		c0,0,0.1,0,0.1,0c0.1,0,0.1,0,0.1,0c0,0,0.1,0,0.1,0c0,0,0,0,0.1,0c0,0,0,0,0,0v-2.5h0l0.9,2.5c0,0,0,0,0,0c0,0,0,0,0.1,0
		c0,0,0.1,0,0.1,0c0,0,0.1,0,0.1,0c0.1,0,0.1,0,0.1,0c0,0,0.1,0,0.1,0c0,0,0,0,0.1,0c0,0,0,0,0-0.1l0.9-2.5h0V61c0,0,0,0,0,0
		c0,0,0,0,0,0c0,0,0.1,0,0.1,0c0,0,0.1,0,0.1,0c0.1,0,0.1,0,0.2,0c0,0,0.1,0,0.1,0c0,0,0,0,0.1,0c0,0,0,0,0,0v-2.8
		C91.5,58.1,91.5,58.1,91.4,58C91.4,58,91.4,58,91.4,58z"/>
	<path fill="#FFFFFF" fill-rule="evenodd" d="M61.6,61C61.6,61,61.6,61,61.6,61c0.1,0,0.1,0,0.2,0c0,0,0.1,0,0.2,0c0.1,0,0.1,0,0.2,0
		c0,0,0.1,0,0.1,0c0,0,0,0,0-0.1c0,0,0-0.1,0-0.1l-1-2.8c0,0,0-0.1,0-0.1c0,0,0,0-0.1,0c0,0-0.1,0-0.1,0c-0.1,0-0.1,0-0.2,0
		c-0.1,0-0.2,0-0.2,0c-0.1,0-0.1,0-0.1,0c0,0,0,0-0.1,0c0,0,0,0,0,0.1l-1,2.8c0,0.1,0,0.1,0,0.1c0,0,0,0.1,0,0.1c0,0,0,0,0.1,0
		c0,0,0.1,0,0.2,0c0.1,0,0.1,0,0.2,0c0,0,0.1,0,0.1,0c0,0,0,0,0.1,0c0,0,0,0,0-0.1l0.2-0.6h1.2L61.6,61C61.6,61,61.6,61,61.6,61z
		 M60.3,59.8l0.4-1.3h0l0.5,1.3H60.3z"/>
	<path fill="#FFFFFF" fill-rule="evenodd" d="M94.8,61C94.8,61,94.8,61,94.8,61c0-0.1,0-0.2,0-0.2l-1-2.8c0,0,0-0.1,0-0.1c0,0,0,0-0.1,0
		c0,0-0.1,0-0.1,0c-0.1,0-0.1,0-0.2,0c-0.1,0-0.2,0-0.2,0c-0.1,0-0.1,0-0.1,0c0,0,0,0-0.1,0c0,0,0,0,0,0.1l-1,2.8c0,0.1,0,0.1,0,0.1
		c0,0,0,0.1,0,0.1c0,0,0,0,0.1,0c0,0,0.1,0,0.2,0c0.1,0,0.1,0,0.2,0c0,0,0.1,0,0.1,0c0,0,0,0,0.1,0c0,0,0,0,0-0.1l0.2-0.6h1.2
		l0.2,0.6c0,0,0,0,0,0.1c0,0,0,0,0.1,0c0,0,0.1,0,0.1,0c0,0,0.1,0,0.2,0C94.6,61.1,94.7,61.1,94.8,61C94.8,61,94.8,61,94.8,61z
		 M92.9,59.8l0.4-1.3h0l0.5,1.3H92.9z"/>
	<path fill="#FFFFFF" fill-rule="evenodd" d="M72.2,61C72.2,61,72.2,61,72.2,61C72.3,61,72.3,61,72.2,61c0.1,0.1,0.1,0.1,0.2,0.1c0,0,0.1,0,0.2,0
		c0.1,0,0.1,0,0.2,0c0,0,0.1,0,0.1,0c0,0,0,0,0-0.1c0,0,0-0.1,0-0.1l-1-2.8c0,0,0-0.1,0-0.1c0,0,0,0-0.1,0c0,0-0.1,0-0.1,0
		c-0.1,0-0.1,0-0.2,0c-0.1,0-0.2,0-0.2,0c-0.1,0-0.1,0-0.1,0c0,0,0,0-0.1,0c0,0,0,0,0,0.1l-1,2.8c0,0.1,0,0.1,0,0.1c0,0,0,0.1,0,0.1
		c0,0,0,0,0.1,0c0,0,0.1,0,0.2,0c0.1,0,0.1,0,0.2,0c0,0,0.1,0,0.1,0c0,0,0,0,0.1,0c0,0,0,0,0-0.1l0.2-0.6H72L72.2,61z M70.9,59.8
		l0.4-1.3h0l0.5,1.3H70.9z"/>
	<path fill="#FFFFFF" fill-rule="evenodd" d="M76.4,58.6L76.4,58.6c0,0.1,0.1,0.2,0.1,0.3c0,0.1,0.1,0.2,0.1,0.3l0.8,1.5c0,0.1,0.1,0.1,0.1,0.2
		c0,0.1,0.1,0.1,0.1,0.1c0,0,0.1,0.1,0.1,0.1c0,0,0.1,0,0.2,0h0.3c0,0,0.1,0,0.1,0c0,0,0.1,0,0.1,0c0,0,0,0,0.1-0.1c0,0,0-0.1,0-0.1
		V58c0,0,0,0,0,0c0,0,0,0,0,0c0,0,0,0-0.1,0c0,0-0.1,0-0.1,0c-0.1,0-0.1,0-0.1,0c0,0-0.1,0-0.1,0c0,0,0,0,0,0c0,0,0,0,0,0v1.5
		c0,0.1,0,0.2,0,0.4c0,0.1,0,0.2,0,0.4h0c0-0.1-0.1-0.1-0.1-0.2c0-0.1-0.1-0.1-0.1-0.2c0-0.1-0.1-0.1-0.1-0.2c0-0.1-0.1-0.1-0.1-0.2
		l-0.6-1.1c0-0.1-0.1-0.1-0.1-0.2c0,0-0.1-0.1-0.1-0.1c0,0-0.1,0-0.1-0.1c0,0-0.1,0-0.2,0h-0.3c-0.1,0-0.1,0-0.2,0.1
		c0,0-0.1,0.1-0.1,0.2V61c0,0,0,0,0,0c0,0,0,0,0,0c0,0,0.1,0,0.1,0c0,0,0.1,0,0.1,0c0.1,0,0.1,0,0.1,0c0,0,0.1,0,0.1,0c0,0,0,0,0,0
		c0,0,0,0,0,0v-1.6c0-0.1,0-0.2,0-0.4C76.4,58.8,76.4,58.7,76.4,58.6z"/>
	<path fill="#FFFFFF" fill-rule="evenodd" d="M65.1,58.2C65,58.1,64.8,58,64.6,58c-0.2-0.1-0.4-0.1-0.6-0.1c-0.3,0-0.5,0-0.7,0.1
		c-0.2,0.1-0.4,0.2-0.5,0.3c-0.1,0.1-0.2,0.3-0.3,0.5s-0.1,0.4-0.1,0.7c0,0.3,0,0.5,0.1,0.7c0.1,0.2,0.2,0.4,0.3,0.5
		c0.1,0.1,0.3,0.2,0.5,0.3c0.2,0.1,0.4,0.1,0.7,0.1c0.3,0,0.5,0,0.7-0.1c0.2-0.1,0.4-0.2,0.5-0.3c0.1-0.1,0.2-0.3,0.3-0.5
		c0.1-0.2,0.1-0.4,0.1-0.7c0-0.3,0-0.5-0.1-0.7C65.3,58.5,65.2,58.4,65.1,58.2z M64.7,59.9c0,0.1-0.1,0.2-0.1,0.3
		c-0.1,0.1-0.2,0.2-0.3,0.2c-0.1,0.1-0.2,0.1-0.4,0.1c-0.2,0-0.3,0-0.4-0.1c-0.1-0.1-0.2-0.1-0.3-0.2c-0.1-0.1-0.1-0.2-0.1-0.3
		c0-0.1,0-0.3,0-0.5c0-0.1,0-0.3,0-0.4c0-0.1,0.1-0.2,0.1-0.3c0.1-0.1,0.2-0.2,0.3-0.2c0.1-0.1,0.2-0.1,0.4-0.1c0.2,0,0.3,0,0.4,0.1
		c0.1,0.1,0.2,0.1,0.3,0.2c0.1,0.1,0.1,0.2,0.1,0.3c0,0.1,0,0.3,0,0.4C64.8,59.6,64.8,59.8,64.7,59.9z"/>
	<path fill="#FFFFFF" fill-rule="evenodd" d="M69.4,60.7c0.1-0.1,0.3-0.3,0.3-0.5c0.1-0.2,0.1-0.4,0.1-0.7c0-0.2,0-0.5-0.1-0.7
		c-0.1-0.2-0.2-0.3-0.3-0.5c-0.1-0.1-0.3-0.2-0.5-0.3c-0.2-0.1-0.4-0.1-0.7-0.1h-0.8c-0.1,0-0.1,0-0.1,0c0,0-0.1,0.1-0.1,0.2v2.7
		c0,0.1,0,0.1,0.1,0.2c0,0,0.1,0,0.1,0h0.8c0.3,0,0.5,0,0.7-0.1C69.1,60.9,69.2,60.8,69.4,60.7z M68.2,60.5h-0.3v-2.1h0.3
		c0.2,0,0.4,0,0.5,0.1c0.1,0.1,0.2,0.1,0.3,0.2c0.1,0.1,0.1,0.2,0.2,0.3c0,0.1,0.1,0.3,0.1,0.4c0,0.2,0,0.3-0.1,0.5
		c0,0.1-0.1,0.2-0.2,0.3c-0.1,0.1-0.2,0.2-0.3,0.2C68.5,60.5,68.3,60.5,68.2,60.5z"/>
	<path fill="#FFFFFF" fill-rule="evenodd" d="M75,57.9C75,57.9,75,57.9,75,57.9c-0.1,0-0.2,0-0.3,0c-0.1,0-0.1,0-0.2,0c0,0-0.1,0-0.1,0
		c0,0,0,0-0.1,0c0,0,0,0,0,0v3c0,0,0,0,0,0c0,0,0,0,0.1,0c0,0,0.1,0,0.1,0c0,0,0.1,0,0.2,0c0.1,0,0.1,0,0.2,0c0,0,0.1,0,0.1,0
		c0,0,0,0,0.1,0c0,0,0,0,0,0L75,57.9C75.1,58,75.1,58,75,57.9C75.1,57.9,75.1,57.9,75,57.9z"/>
	<path fill="#FFFFFF" fill-rule="evenodd" d="M107.3,58.4C107.3,58.4,107.3,58.4,107.3,58.4C107.3,58.4,107.3,58.4,107.3,58.4
		c0.1-0.1,0.1-0.1,0.1-0.1c0,0,0-0.1,0-0.1c0,0,0-0.1,0-0.1c0,0,0-0.1,0-0.1c0,0,0,0,0,0c0,0,0,0,0,0h-1.6c-0.1,0-0.1,0-0.1,0
		c0,0-0.1,0.1-0.1,0.2v2.7c0,0.1,0,0.1,0.1,0.2c0,0,0.1,0,0.1,0h1.6c0,0,0,0,0,0c0,0,0,0,0,0c0,0,0,0,0-0.1c0,0,0-0.1,0-0.1
		c0,0,0-0.1,0-0.1c0,0,0-0.1,0-0.1c0,0,0,0,0,0c0,0,0,0,0,0h-1.2v-0.9h1c0,0,0,0,0,0c0,0,0,0,0,0c0,0,0,0,0-0.1c0,0,0-0.1,0-0.1
		c0,0,0-0.1,0-0.1c0,0,0-0.1,0-0.1c0,0,0,0,0,0c0,0,0,0,0,0h-1v-0.8H107.3z"/>
	<path fill="#FFFFFF" fill-rule="evenodd" d="M103.4,58.2c-0.1-0.1-0.3-0.2-0.5-0.3c-0.2-0.1-0.4-0.1-0.6-0.1c-0.3,0-0.5,0-0.7,0.1
		c-0.2,0.1-0.4,0.2-0.5,0.3c-0.1,0.1-0.2,0.3-0.3,0.5c-0.1,0.2-0.1,0.4-0.1,0.7c0,0.3,0,0.5,0.1,0.7c0.1,0.2,0.2,0.4,0.3,0.5
		c0.1,0.1,0.3,0.2,0.5,0.3c0.2,0.1,0.4,0.1,0.7,0.1c0.3,0,0.5,0,0.7-0.1c0.2-0.1,0.4-0.2,0.5-0.3c0.1-0.1,0.2-0.3,0.3-0.5
		c0.1-0.2,0.1-0.4,0.1-0.7c0-0.3,0-0.5-0.1-0.7C103.6,58.5,103.5,58.4,103.4,58.2z M103,59.9c0,0.1-0.1,0.2-0.1,0.3
		c-0.1,0.1-0.2,0.2-0.3,0.2c-0.1,0.1-0.2,0.1-0.4,0.1c-0.2,0-0.3,0-0.4-0.1c-0.1-0.1-0.2-0.1-0.3-0.2c-0.1-0.1-0.1-0.2-0.1-0.3
		c0-0.1,0-0.3,0-0.5c0-0.1,0-0.3,0-0.4c0-0.1,0.1-0.2,0.1-0.3c0.1-0.1,0.2-0.2,0.3-0.2c0.1-0.1,0.2-0.1,0.4-0.1c0.2,0,0.3,0,0.4,0.1
		c0.1,0.1,0.2,0.1,0.3,0.2c0.1,0.1,0.1,0.2,0.1,0.3c0,0.1,0,0.3,0,0.4C103.1,59.6,103.1,59.8,103,59.9z"/>
	<path fill="#FFFFFF" fill-rule="evenodd" d="M111.3,60.7c0.1-0.1,0.3-0.3,0.3-0.5c0.1-0.2,0.1-0.4,0.1-0.7c0-0.2,0-0.5-0.1-0.7
		c-0.1-0.2-0.2-0.3-0.3-0.5c-0.1-0.1-0.3-0.2-0.5-0.3c-0.2-0.1-0.4-0.1-0.7-0.1h-0.8c-0.1,0-0.1,0-0.1,0c0,0-0.1,0.1-0.1,0.2v2.7
		c0,0.1,0,0.1,0.1,0.2c0,0,0.1,0,0.1,0h0.8c0.3,0,0.5,0,0.7-0.1C111,60.9,111.2,60.8,111.3,60.7z M110.1,60.5h-0.3v-2.1h0.3
		c0.2,0,0.4,0,0.5,0.1c0.1,0.1,0.2,0.1,0.3,0.2c0.1,0.1,0.1,0.2,0.2,0.3c0,0.1,0.1,0.3,0.1,0.4c0,0.2,0,0.3-0.1,0.5
		c0,0.1-0.1,0.2-0.2,0.3c-0.1,0.1-0.2,0.2-0.3,0.2C110.4,60.5,110.2,60.5,110.1,60.5z"/>
	<path fill="#FFFFFF" fill-rule="evenodd" d="M113.7,57.9c-0.3,0-0.5,0-0.7,0.1c-0.2,0.1-0.4,0.2-0.5,0.3c-0.1,0.1-0.2,0.3-0.3,0.5
		c-0.1,0.2-0.1,0.4-0.1,0.7c0,0.3,0,0.5,0.1,0.7c0.1,0.2,0.2,0.4,0.3,0.5c0.1,0.1,0.3,0.2,0.5,0.3c0.2,0.1,0.4,0.1,0.7,0.1
		c0.3,0,0.5,0,0.7-0.1c0.2-0.1,0.4-0.2,0.5-0.3c0.1-0.1,0.2-0.3,0.3-0.5c0.1-0.2,0.1-0.4,0.1-0.7c0-0.3,0-0.5-0.1-0.7
		c-0.1-0.2-0.2-0.4-0.3-0.5c-0.1-0.1-0.3-0.2-0.5-0.3C114.1,57.9,113.9,57.9,113.7,57.9z M114.5,59.5c0,0.2,0,0.3,0,0.4
		c0,0.1-0.1,0.2-0.1,0.3c-0.1,0.1-0.2,0.2-0.3,0.2c-0.1,0.1-0.2,0.1-0.4,0.1c-0.2,0-0.3,0-0.4-0.1c-0.1-0.1-0.2-0.1-0.3-0.2
		c-0.1-0.1-0.1-0.2-0.1-0.3c0-0.1,0-0.3,0-0.5c0-0.1,0-0.3,0-0.4c0-0.1,0.1-0.2,0.1-0.3c0.1-0.1,0.2-0.2,0.3-0.2
		c0.1-0.1,0.2-0.1,0.4-0.1c0.2,0,0.3,0,0.4,0.1c0.1,0.1,0.2,0.1,0.3,0.2c0.1,0.1,0.1,0.2,0.1,0.3C114.5,59.2,114.5,59.3,114.5,59.5z
		"/>
	<path fill="#FFFFFF" fill-rule="evenodd" d="M46.7,53v-1v-0.9v-0.9v-1h-2.2v-9.5h2.1v-1.3v-1.2v-1.3h-4.3H38v1.3v1.2v1.3h2.1v9.5h-2.2v1v0.9V52v1
		h4.5H46.7z M39.5,51.3V51h2.7V38h-2.4v-0.2h2.5h2.6V38h-2.4v13H45v0.2h-2.8H39.5z"/>
	<path fill="#FFFFFF" fill-rule="evenodd" d="M30.9,49.2c-0.3,0.1-0.7,0.2-1.1,0.2c-0.4,0-0.8,0-1.2,0c-0.4,0-0.8-0.1-1.1-0.3
		c-0.3-0.1-0.6-0.3-0.8-0.5c-0.2-0.2-0.3-0.5-0.3-0.8H25h-1.4h-1.5c0,0.8,0.1,1.6,0.5,2.2c0.3,0.6,0.7,1.2,1.3,1.7
		c0.5,0.5,1.2,0.8,1.9,1.1c0.7,0.3,1.5,0.5,2.2,0.5c0.8,0.1,1.6,0.1,2.4,0c0.8-0.1,1.5-0.3,2.3-0.5c0.7-0.3,1.3-0.6,1.9-1.1
		c0.6-0.5,1-1,1.3-1.6c0.3-0.6,0.5-1.3,0.5-2.1c0-0.9-0.1-1.6-0.4-2.1c-0.3-0.6-0.6-1-1-1.4c-0.4-0.4-1-0.6-1.5-0.8
		c-0.6-0.2-1.2-0.4-1.9-0.5c-0.7-0.1-1.4-0.2-2.1-0.3c-0.4,0-0.8-0.1-1.1-0.2c-0.3-0.1-0.6-0.2-0.9-0.3c-0.3-0.1-0.5-0.3-0.6-0.5
		c-0.1-0.2-0.2-0.5-0.2-0.8c0-0.3,0.1-0.5,0.3-0.8c0.2-0.2,0.4-0.4,0.7-0.5c0.3-0.1,0.6-0.2,0.9-0.3c0.3-0.1,0.7-0.1,1,0
		c0.3,0,0.6,0.1,0.9,0.3c0.3,0.1,0.5,0.3,0.7,0.5c0.2,0.2,0.3,0.5,0.3,0.8H33h1.4h1.5c0-0.8-0.1-1.6-0.4-2.2
		c-0.3-0.6-0.7-1.2-1.2-1.6c-0.5-0.5-1.1-0.8-1.8-1.1c-0.7-0.3-1.4-0.5-2.1-0.5c-0.8-0.1-1.5-0.1-2.3,0c-0.7,0.1-1.5,0.3-2.1,0.5
		c-0.7,0.3-1.3,0.6-1.8,1.1c-0.5,0.5-0.9,1-1.2,1.6c-0.3,0.6-0.4,1.4-0.4,2.2c0,0.9,0.2,1.7,0.5,2.4c0.3,0.6,0.7,1.2,1.3,1.6
		c0.6,0.4,1.2,0.7,2,0.9c0.8,0.2,1.6,0.3,2.6,0.4c0.4,0,0.9,0.1,1.2,0.1c0.4,0,0.7,0.1,1,0.2c0.3,0.1,0.5,0.2,0.7,0.4
		c0.2,0.2,0.3,0.4,0.3,0.7c0,0.3-0.1,0.5-0.3,0.7C31.5,48.9,31.2,49,30.9,49.2z M33.7,46.5c-0.2-0.4-0.4-0.7-0.7-0.9
		c-0.3-0.2-0.7-0.4-1.1-0.5c-0.4-0.1-0.9-0.2-1.3-0.2c-0.5,0-1-0.1-1.4-0.1c-0.6,0-1.2-0.1-1.8-0.2c-0.6-0.1-1.1-0.3-1.5-0.5
		c-0.4-0.2-0.8-0.6-1-1c-0.3-0.5-0.4-1-0.4-1.8c0-0.6,0.1-1.1,0.4-1.6c0.3-0.5,0.6-0.8,1-1.2c0.4-0.3,0.9-0.5,1.5-0.7
		c0.6-0.2,1.1-0.3,1.7-0.3c0.6,0,1.2,0.1,1.7,0.2c0.6,0.1,1.1,0.4,1.5,0.7c0.5,0.3,0.8,0.7,1.1,1.2h-0.3c-0.3-0.4-0.6-0.8-1.1-1.1
		c-0.4-0.3-0.9-0.5-1.4-0.6c-0.5-0.1-1.1-0.2-1.6-0.2c-0.6,0-1.1,0.1-1.6,0.2c-0.5,0.2-1,0.4-1.4,0.7c-0.4,0.3-0.7,0.6-1,1.1
		c-0.2,0.4-0.4,0.9-0.4,1.5c0,0.7,0.1,1.2,0.4,1.6c0.2,0.4,0.6,0.7,1,1c0.4,0.2,0.9,0.4,1.4,0.5c0.5,0.1,1.1,0.2,1.7,0.2
		c0.5,0,1,0.1,1.5,0.1c0.5,0.1,1,0.2,1.4,0.3c0.4,0.1,0.8,0.3,1.1,0.6c0.3,0.2,0.6,0.6,0.8,1c0.2,0.4,0.3,0.9,0.3,1.5
		c0,0.6-0.2,1.1-0.4,1.6c-0.3,0.5-0.7,0.8-1.2,1.1c-0.5,0.3-1,0.5-1.6,0.7c-0.6,0.2-1.2,0.2-1.9,0.2c-0.6,0-1.3-0.1-1.9-0.2
		c-0.6-0.2-1.1-0.4-1.6-0.7c-0.5-0.3-0.8-0.7-1.1-1.2h0.3c0.3,0.4,0.7,0.8,1.1,1.1c0.5,0.3,1,0.5,1.5,0.6c0.6,0.1,1.1,0.2,1.7,0.2
		c0.6,0,1.2-0.1,1.7-0.2c0.6-0.2,1-0.4,1.5-0.7c0.4-0.3,0.8-0.6,1.1-1.1c0.3-0.4,0.4-0.9,0.4-1.4C34,47.3,33.9,46.8,33.7,46.5z"/>
	<path fill="#FFFFFF" fill-rule="evenodd" d="M90.3,38.7l-4.7,10h9.5L90.3,38.7L90.3,38.7z M88.5,46.9l1.8-3.9l1.9,3.9H88.5z"/>
	<path fill="#FFFFFF" fill-rule="evenodd" d="M86.9,50.9h6.9l1,2.2h4.4v-0.6l-7.9-16.7h-1.9l-7.9,16.7V53h4.4L86.9,50.9z M84.3,51.4H84l6.3-13.2
		h0.2l6.3,13.2h-0.3L95.2,49h-9.7L84.3,51.4z"/>
	<path fill="#FFFFFF" fill-rule="evenodd" d="M75.6,49.2c-0.3,0.1-0.7,0.2-1.1,0.2c-0.4,0-0.8,0-1.2,0c-0.4,0-0.8-0.1-1.1-0.3
		c-0.3-0.1-0.6-0.3-0.8-0.5c-0.2-0.2-0.3-0.5-0.3-0.8h-1.5h-1.4h-1.5c0,0.8,0.1,1.6,0.5,2.2c0.3,0.6,0.7,1.2,1.3,1.7
		c0.5,0.5,1.2,0.8,1.9,1.1c0.7,0.3,1.5,0.5,2.2,0.5c0.8,0.1,1.6,0.1,2.4,0c0.8-0.1,1.5-0.3,2.3-0.5c0.7-0.3,1.3-0.6,1.9-1.1
		c0.6-0.5,1-1,1.3-1.6c0.3-0.6,0.5-1.3,0.5-2.1c0-0.9-0.1-1.6-0.4-2.1c-0.3-0.6-0.6-1-1-1.4c-0.4-0.4-1-0.6-1.5-0.8
		c-0.6-0.2-1.2-0.4-1.9-0.5c-0.7-0.1-1.4-0.2-2.1-0.3c-0.4,0-0.8-0.1-1.1-0.2c-0.3-0.1-0.6-0.2-0.9-0.3c-0.3-0.1-0.5-0.3-0.6-0.5
		c-0.1-0.2-0.2-0.5-0.2-0.8c0-0.3,0.1-0.5,0.3-0.8c0.2-0.2,0.4-0.4,0.7-0.5c0.3-0.1,0.6-0.2,0.9-0.3c0.3-0.1,0.7-0.1,1,0
		c0.3,0,0.6,0.1,0.9,0.3c0.3,0.1,0.5,0.3,0.7,0.5c0.2,0.2,0.3,0.5,0.3,0.8h1.4H79h1.5c0-0.8-0.1-1.6-0.4-2.2
		c-0.3-0.6-0.7-1.2-1.2-1.6c-0.5-0.5-1.1-0.8-1.8-1.1c-0.7-0.3-1.4-0.5-2.1-0.5c-0.8-0.1-1.5-0.1-2.3,0c-0.7,0.1-1.5,0.3-2.1,0.5
		c-0.7,0.3-1.3,0.6-1.8,1.1c-0.5,0.5-0.9,1-1.2,1.6c-0.3,0.6-0.4,1.4-0.4,2.2c0,0.9,0.2,1.7,0.5,2.4c0.3,0.6,0.7,1.2,1.3,1.6
		c0.6,0.4,1.2,0.7,2,0.9c0.8,0.2,1.6,0.3,2.6,0.4c0.4,0,0.9,0.1,1.2,0.1c0.4,0,0.7,0.1,1,0.2c0.3,0.1,0.5,0.2,0.7,0.4
		c0.2,0.2,0.3,0.4,0.3,0.7c0,0.3-0.1,0.5-0.3,0.7C76.2,48.9,75.9,49,75.6,49.2z M78.4,46.5c-0.2-0.4-0.4-0.7-0.7-0.9
		c-0.3-0.2-0.7-0.4-1.1-0.5c-0.4-0.1-0.9-0.2-1.3-0.2c-0.5,0-1-0.1-1.4-0.1c-0.6,0-1.2-0.1-1.8-0.2c-0.6-0.1-1.1-0.3-1.5-0.5
		c-0.4-0.2-0.8-0.6-1-1c-0.3-0.5-0.4-1-0.4-1.8c0-0.6,0.1-1.1,0.4-1.6c0.3-0.5,0.6-0.8,1-1.2c0.4-0.3,0.9-0.5,1.5-0.7
		c0.6-0.2,1.1-0.3,1.7-0.3c0.6,0,1.2,0.1,1.7,0.2c0.6,0.1,1.1,0.4,1.5,0.7c0.5,0.3,0.8,0.7,1.1,1.2h-0.3c-0.3-0.4-0.6-0.8-1.1-1.1
		c-0.4-0.3-0.9-0.5-1.4-0.6c-0.5-0.1-1.1-0.2-1.6-0.2c-0.6,0-1.1,0.1-1.6,0.2c-0.5,0.2-1,0.4-1.4,0.7c-0.4,0.3-0.7,0.6-1,1.1
		c-0.2,0.4-0.4,0.9-0.4,1.5c0,0.7,0.1,1.2,0.4,1.6c0.2,0.4,0.6,0.7,1,1c0.4,0.2,0.9,0.4,1.4,0.5c0.5,0.1,1.1,0.2,1.7,0.2
		c0.5,0,1,0.1,1.5,0.1c0.5,0.1,1,0.2,1.4,0.3c0.4,0.1,0.8,0.3,1.1,0.6c0.3,0.2,0.6,0.6,0.8,1c0.2,0.4,0.3,0.9,0.3,1.5
		c0,0.6-0.2,1.1-0.4,1.6c-0.3,0.5-0.7,0.8-1.2,1.1c-0.5,0.3-1,0.5-1.6,0.7c-0.6,0.2-1.2,0.2-1.9,0.2c-0.6,0-1.3-0.1-1.9-0.2
		c-0.6-0.2-1.1-0.4-1.6-0.7c-0.5-0.3-0.8-0.7-1.1-1.2h0.3c0.3,0.4,0.7,0.8,1.1,1.1c0.5,0.3,1,0.5,1.5,0.6c0.6,0.1,1.1,0.2,1.7,0.2
		c0.6,0,1.2-0.1,1.7-0.2c0.6-0.2,1-0.4,1.5-0.7c0.4-0.3,0.8-0.6,1.1-1.1c0.3-0.4,0.4-0.9,0.4-1.4C78.7,47.3,78.6,46.8,78.4,46.5z"/>
	<path fill="#FFFFFF" fill-rule="evenodd" d="M109,53c2.7,0,5.5-1.1,5.8-4.1c0.1-1.1,0.2-3.5-2.1-4.7c0.1-0.2,1.9-1.7,1.2-4.6
		c-0.4-1.4-1.8-3.6-5-3.7h-7.4c-0.2,0-0.4,0-0.6,0L100.8,53C101.1,53.1,107.7,53,109,53z M102.9,51.3c0-0.6,0.1-8.7,0.1-10.3
		c0-1.1,0-2.3,0-3.4h0.4c0.9,0,4,0,5.4,0c2.1,0,3.1,1.6,3.2,3.1c0.1,0.9-0.3,2-1,2.7c-0.4,0.3-1,0.7-1.5,0.9c0.3,0,0.8,0.1,1.1,0.2
		c1.5,0.6,2.2,1.9,2.2,3.1c0,2.1-1.6,3.6-3.6,3.6C107.8,51.3,103.1,51.3,102.9,51.3z"/>
	<path fill="#FFFFFF" fill-rule="evenodd" d="M111.6,41c0-1.5-1.2-3.1-2.9-3.1h-5.4v6.3c0.4,0,4.2,0,5.2,0C110.2,44.2,111.6,42.7,111.6,41z
		 M105.5,42.5h-0.4l0.1-2.8c0.7,0,2.5,0,3.2,0c0.5,0,1.1,0.7,1.1,1.2c0.1,0.9-0.8,1.6-1.7,1.6H105.5z"/>
	<path fill="#FFFFFF" fill-rule="evenodd" d="M112.3,47.7c0-1.5-1.3-3.1-3.1-3.1h-5.9V51c0.4,0,4.6,0,5.6,0C110.9,51,112.3,49.5,112.3,47.7z
		 M108.2,49.3h-2.5h-0.4l0.1-2.8c0.8,0,2.7,0,3.5,0c0.5,0,1.2,0.7,1.2,1.2C110.1,48.6,109.2,49.3,108.2,49.3z"/>
	<path fill="#FFFFFF" fill-rule="evenodd" d="M56.8,53.4c2.6,0,5.3-1.2,6.9-3.1c1.3-1.5,1.6-2.6,1.7-4.4l0-1c-3,0-6,0-9,0v1v0.9v0.9v1l3,0
		c-1.6,1.3-4.1,0.8-5.4-0.4c-0.4-0.3-0.7-0.8-1-1.2c-0.5-0.8-0.7-1.7-0.7-2.6c0-2.7,2-5,4.5-5c1.6,0,3.1,1,3.8,2.4h4.6
		c-0.5-1.7-1.1-3.1-3-4.5c-1.5-1.2-3.4-1.8-5.5-1.8c-5,0-9,4-9,8.9S51.8,53.4,56.8,53.4z M56.8,37.4c1.6,0,3.1,0.5,4.2,1.5
		c0.7,0.6,1.2,1.1,1.5,1.7h-0.4c-0.3-0.5-0.7-0.9-1.3-1.4c-1.1-0.9-2.5-1.4-4-1.4c-3.6,0-6.6,3-6.6,6.7c0,3.7,2.9,6.7,6.6,6.7
		c2.4,0,5.5-1.6,5.9-4.2l0,0l0,0l0,0l0,0l0,0l0,0l0,0l0,0l0,0l0,0l0,0l0,0l0,0l0,0l0,0l0,0l0,0l0,0l0,0l0,0l0,0l0,0l0,0l0,0l0,0l0,0
		l0,0l0,0l0,0l0,0l0,0l0,0l0,0l0,0l0,0l0,0l0,0l0,0l0,0l0,0l0,0l0,0l0,0l0,0l0,0l0,0l0,0l0,0v0l0,0l0,0l0,0l0,0l0,0l0,0l0,0l0,0l0,0
		h-4.7v-0.3h5.1c0,2.9-3.8,5-6.4,5c-3.8,0-7-3.2-7-7.1C49.9,40.6,53,37.4,56.8,37.4z"/>
	<path fill="#FFFFFF" fill-rule="evenodd" d="M36.5,66.5C36.5,66.4,36.5,66.4,36.5,66.5C36.5,66.4,36.5,66.4,36.5,66.5l-1.2-0.1v-0.9h1c0,0,0,0,0,0
		c0,0,0,0,0,0c0,0,0,0,0-0.1c0,0,0-0.1,0-0.1c0,0,0-0.1,0-0.1c0,0,0-0.1,0-0.1c0,0,0,0,0,0c0,0,0,0,0,0h-1v-0.8h1.1c0,0,0,0,0,0
		c0,0,0,0,0,0c0,0,0,0,0-0.1c0,0,0-0.1,0-0.1c0,0,0-0.1,0-0.1c0,0,0-0.1,0-0.1c0,0,0,0,0,0c0,0,0,0,0,0h-1.6c-0.1,0-0.1,0-0.1,0
		c0,0-0.1,0.1-0.1,0.2v2.7c0,0.1,0,0.1,0.1,0.2c0,0,0.1,0,0.1,0h1.6c0,0,0,0,0,0c0,0,0,0,0,0c0,0,0,0,0-0.1c0,0,0-0.1,0-0.1
		C36.5,66.6,36.5,66.6,36.5,66.5C36.5,66.5,36.5,66.5,36.5,66.5z"/>
	<path fill="#FFFFFF" fill-rule="evenodd" d="M39.2,66.2C39.2,66.2,39.2,66.2,39.2,66.2C39.2,66.2,39.2,66.2,39.2,66.2c-0.1,0-0.1,0-0.2,0
		c0,0-0.1,0.1-0.1,0.1c-0.1,0-0.1,0.1-0.2,0.1c-0.1,0-0.2,0-0.3,0c-0.1,0-0.2,0-0.3-0.1c-0.1,0-0.2-0.1-0.3-0.2
		c-0.1-0.1-0.1-0.2-0.2-0.3c0-0.1-0.1-0.3-0.1-0.5c0-0.2,0-0.3,0.1-0.5c0-0.1,0.1-0.2,0.2-0.3c0.1-0.1,0.2-0.2,0.3-0.2
		c0.1-0.1,0.2-0.1,0.3-0.1c0.1,0,0.2,0,0.3,0c0.1,0,0.2,0.1,0.2,0.1c0.1,0,0.1,0.1,0.1,0.1s0.1,0,0.1,0c0,0,0,0,0,0c0,0,0,0,0,0
		c0,0,0,0,0-0.1c0,0,0-0.1,0-0.1c0,0,0-0.1,0-0.1c0,0,0-0.1,0-0.1c0,0,0,0,0-0.1c0,0,0,0,0-0.1c0,0-0.1,0-0.1-0.1
		c-0.1,0-0.1-0.1-0.2-0.1c-0.1,0-0.1,0-0.2-0.1c-0.1,0-0.2,0-0.3,0c-0.2,0-0.4,0-0.6,0.1c-0.2,0.1-0.3,0.2-0.5,0.3
		c-0.1,0.1-0.2,0.3-0.3,0.5c-0.1,0.2-0.1,0.4-0.1,0.7c0,0.3,0,0.5,0.1,0.7c0.1,0.2,0.2,0.4,0.3,0.5c0.1,0.1,0.3,0.2,0.5,0.3
		c0.2,0.1,0.4,0.1,0.6,0.1c0.1,0,0.2,0,0.3,0c0.1,0,0.2,0,0.3-0.1c0.1,0,0.1-0.1,0.2-0.1c0.1,0,0.1-0.1,0.1-0.1c0,0,0,0,0,0
		c0,0,0,0,0-0.1c0,0,0,0,0-0.1c0,0,0-0.1,0-0.1C39.3,66.4,39.3,66.3,39.2,66.2C39.3,66.3,39.3,66.2,39.2,66.2z"/>
	<path fill="#FFFFFF" fill-rule="evenodd" d="M27.2,64.1c-0.1-0.1-0.3-0.2-0.5-0.3c-0.2-0.1-0.4-0.1-0.6-0.1c-0.3,0-0.5,0-0.7,0.1
		c-0.2,0.1-0.4,0.2-0.5,0.3c-0.1,0.1-0.2,0.3-0.3,0.5c-0.1,0.2-0.1,0.4-0.1,0.7c0,0.3,0,0.5,0.1,0.7c0.1,0.2,0.2,0.4,0.3,0.5
		c0.1,0.1,0.3,0.2,0.5,0.3c0.2,0.1,0.4,0.1,0.7,0.1c0.3,0,0.5,0,0.7-0.1c0.2-0.1,0.4-0.2,0.5-0.3c0.1-0.1,0.2-0.3,0.3-0.5
		c0.1-0.2,0.1-0.4,0.1-0.7c0-0.3,0-0.5-0.1-0.7C27.4,64.4,27.3,64.2,27.2,64.1z M26.8,65.8c0,0.1-0.1,0.2-0.1,0.3
		c-0.1,0.1-0.2,0.2-0.3,0.2c-0.1,0.1-0.2,0.1-0.4,0.1c-0.2,0-0.3,0-0.4-0.1c-0.1-0.1-0.2-0.1-0.3-0.2c-0.1-0.1-0.1-0.2-0.1-0.3
		c0-0.1,0-0.3,0-0.5c0-0.1,0-0.3,0-0.4c0-0.1,0.1-0.2,0.1-0.3c0.1-0.1,0.2-0.2,0.3-0.2c0.1-0.1,0.2-0.1,0.4-0.1c0.2,0,0.3,0,0.4,0.1
		c0.1,0.1,0.2,0.1,0.3,0.2c0.1,0.1,0.1,0.2,0.1,0.3c0,0.1,0,0.3,0,0.4C26.9,65.5,26.9,65.6,26.8,65.8z"/>
	<path fill="#FFFFFF" fill-rule="evenodd" d="M33.9,63.8C33.9,63.8,33.8,63.8,33.9,63.8c-0.1,0-0.2,0-0.3,0c-0.1,0-0.1,0-0.2,0c0,0-0.1,0-0.1,0
		c0,0,0,0-0.1,0c0,0,0,0,0,0V65h-1.2v-1.1c0,0,0,0,0,0c0,0,0,0-0.1,0c0,0-0.1,0-0.1,0c0,0-0.1,0-0.2,0c-0.1,0-0.1,0-0.2,0
		c0,0-0.1,0-0.1,0c0,0,0,0-0.1,0c0,0,0,0,0,0v3c0,0,0,0,0,0c0,0,0,0,0.1,0c0,0,0.1,0,0.1,0c0,0,0.1,0,0.2,0c0.1,0,0.1,0,0.2,0
		c0,0,0.1,0,0.1,0c0,0,0,0,0.1,0c0,0,0,0,0,0v-1.3h1.2v1.3c0,0,0,0,0,0c0,0,0,0,0.1,0c0,0,0.1,0,0.1,0c0,0,0.1,0,0.2,0
		c0.1,0,0.1,0,0.2,0c0,0,0.1,0,0.1,0c0,0,0,0,0.1,0c0,0,0,0,0,0L33.9,63.8C33.9,63.9,33.9,63.8,33.9,63.8
		C33.9,63.8,33.9,63.8,33.9,63.8z"/>
	<path fill="#FFFFFF" fill-rule="evenodd" d="M30.7,63.8C30.7,63.8,30.6,63.8,30.7,63.8c-0.1,0-0.2,0-0.2,0c-0.1,0-0.1,0-0.1,0s-0.1,0-0.1,0
		c0,0,0,0,0,0c0,0,0,0,0,0v1.5c0,0.1,0,0.2,0,0.4c0,0.1,0,0.2,0,0.4h0c0-0.1-0.1-0.1-0.1-0.2c0-0.1-0.1-0.1-0.1-0.2
		c0-0.1-0.1-0.1-0.1-0.2c0-0.1-0.1-0.1-0.1-0.2l-0.6-1.1c0-0.1-0.1-0.1-0.1-0.2c0,0-0.1-0.1-0.1-0.1c0,0-0.1,0-0.1-0.1
		c0,0-0.1,0-0.2,0h-0.3c-0.1,0-0.1,0-0.2,0.1c0,0-0.1,0.1-0.1,0.2v2.8c0,0,0,0,0,0c0,0,0,0,0,0c0,0,0.1,0,0.1,0c0,0,0.1,0,0.1,0
		c0.1,0,0.1,0,0.1,0c0,0,0.1,0,0.1,0c0,0,0,0,0,0c0,0,0,0,0,0v-1.6c0-0.1,0-0.2,0-0.4c0-0.1,0-0.2,0-0.3h0c0,0.1,0.1,0.2,0.1,0.3
		c0,0.1,0.1,0.2,0.1,0.3l0.8,1.5c0,0.1,0.1,0.1,0.1,0.2c0,0.1,0.1,0.1,0.1,0.1c0,0,0.1,0.1,0.1,0.1c0,0,0.1,0,0.2,0h0.3
		c0,0,0.1,0,0.1,0c0,0,0.1,0,0.1,0c0,0,0,0,0.1-0.1c0,0,0-0.1,0-0.1L30.7,63.8C30.7,63.9,30.7,63.8,30.7,63.8
		C30.7,63.8,30.7,63.8,30.7,63.8z"/>
	<path fill="#FFFFFF" fill-rule="evenodd" d="M44.8,63.9C44.7,63.8,44.7,63.8,44.8,63.9c-0.1-0.1-0.1-0.1-0.2-0.1h-0.4c-0.1,0-0.1,0-0.2,0
		c0,0-0.1,0-0.1,0.1c0,0-0.1,0.1-0.1,0.1c0,0,0,0.1-0.1,0.2L43,66h0l-0.7-1.9c0-0.1,0-0.1-0.1-0.2c0,0-0.1-0.1-0.1-0.1
		c0,0-0.1,0-0.1-0.1c-0.1,0-0.1,0-0.2,0h-0.4c-0.1,0-0.1,0-0.2,0.1c0,0-0.1,0.1-0.1,0.2v2.8c0,0,0,0,0,0c0,0,0,0,0,0
		c0,0,0.1,0,0.1,0c0,0,0.1,0,0.1,0c0.1,0,0.1,0,0.1,0c0,0,0.1,0,0.1,0c0,0,0,0,0.1,0c0,0,0,0,0,0v-2.5h0l0.9,2.5c0,0,0,0,0,0
		c0,0,0,0,0.1,0c0,0,0.1,0,0.1,0c0,0,0.1,0,0.1,0c0.1,0,0.1,0,0.1,0c0,0,0.1,0,0.1,0c0,0,0,0,0.1,0c0,0,0,0,0-0.1l0.9-2.5h0v2.5
		c0,0,0,0,0,0c0,0,0,0,0,0c0,0,0.1,0,0.1,0c0,0,0.1,0,0.1,0c0.1,0,0.1,0,0.2,0c0,0,0.1,0,0.1,0c0,0,0,0,0.1,0c0,0,0,0,0,0V64
		C44.8,64,44.8,64,44.8,63.9C44.8,63.9,44.8,63.9,44.8,63.9z"/>
	<path fill="#FFFFFF" fill-rule="evenodd" d="M40.3,63.8C40.3,63.8,40.3,63.8,40.3,63.8c-0.1,0-0.2,0-0.3,0c-0.1,0-0.1,0-0.2,0c0,0-0.1,0-0.1,0
		c0,0,0,0-0.1,0c0,0,0,0,0,0v3c0,0,0,0,0,0c0,0,0,0,0.1,0c0,0,0.1,0,0.1,0c0,0,0.1,0,0.2,0c0.1,0,0.1,0,0.2,0c0,0,0.1,0,0.1,0
		c0,0,0,0,0.1,0c0,0,0,0,0,0L40.3,63.8C40.4,63.9,40.4,63.8,40.3,63.8C40.4,63.8,40.3,63.8,40.3,63.8z"/>
	<path fill="#FFFFFF" fill-rule="evenodd" d="M47.4,66.5C47.4,66.4,47.4,66.4,47.4,66.5C47.4,66.4,47.3,66.4,47.4,66.5l-1.2-0.1v-0.9h1c0,0,0,0,0,0
		c0,0,0,0,0,0c0,0,0,0,0-0.1c0,0,0-0.1,0-0.1c0,0,0-0.1,0-0.1c0,0,0-0.1,0-0.1c0,0,0,0,0,0c0,0,0,0,0,0h-1v-0.8h1.1c0,0,0,0,0,0
		c0,0,0,0,0,0c0,0,0,0,0-0.1c0,0,0-0.1,0-0.1c0,0,0-0.1,0-0.1c0,0,0-0.1,0-0.1c0,0,0,0,0,0c0,0,0,0,0,0h-1.6c-0.1,0-0.1,0-0.1,0
		c0,0-0.1,0.1-0.1,0.2v2.7c0,0.1,0,0.1,0.1,0.2c0,0,0.1,0,0.1,0h1.6c0,0,0,0,0,0c0,0,0,0,0,0c0,0,0,0,0-0.1c0,0,0-0.1,0-0.1
		C47.4,66.6,47.4,66.6,47.4,66.5C47.4,66.5,47.4,66.5,47.4,66.5z"/>
	<path fill="#FFFFFF" fill-rule="evenodd" d="M50.6,63.8C50.6,63.8,50.5,63.8,50.6,63.8c-0.1,0-0.2,0-0.2,0c-0.1,0-0.1,0-0.1,0c0,0-0.1,0-0.1,0
		c0,0,0,0,0,0c0,0,0,0,0,0v1.5c0,0.1,0,0.2,0,0.4c0,0.1,0,0.2,0,0.4h0c0-0.1-0.1-0.1-0.1-0.2c0-0.1-0.1-0.1-0.1-0.2
		c0-0.1-0.1-0.1-0.1-0.2c0-0.1-0.1-0.1-0.1-0.2L49,64.1C49,64,49,64,49,64c0,0-0.1-0.1-0.1-0.1c0,0-0.1,0-0.1-0.1c0,0-0.1,0-0.2,0
		h-0.3c-0.1,0-0.1,0-0.2,0.1c0,0-0.1,0.1-0.1,0.2v2.8c0,0,0,0,0,0c0,0,0,0,0,0c0,0,0.1,0,0.1,0c0,0,0.1,0,0.1,0c0.1,0,0.1,0,0.1,0
		c0,0,0.1,0,0.1,0c0,0,0,0,0,0c0,0,0,0,0,0v-1.6c0-0.1,0-0.2,0-0.4c0-0.1,0-0.2,0-0.3h0c0,0.1,0.1,0.2,0.1,0.3
		c0,0.1,0.1,0.2,0.1,0.3l0.8,1.5c0,0.1,0.1,0.1,0.1,0.2c0,0.1,0.1,0.1,0.1,0.1c0,0,0.1,0.1,0.1,0.1c0,0,0.1,0,0.2,0h0.3
		c0,0,0.1,0,0.1,0c0,0,0.1,0,0.1,0c0,0,0,0,0.1-0.1c0,0,0-0.1,0-0.1L50.6,63.8C50.6,63.9,50.6,63.8,50.6,63.8
		C50.6,63.8,50.6,63.8,50.6,63.8z"/>
	<path fill="#FFFFFF" fill-rule="evenodd" d="M53.4,63.8C53.4,63.8,53.4,63.8,53.4,63.8C53.4,63.8,53.4,63.8,53.4,63.8l-2.3-0.1c0,0,0,0,0,0
		c0,0,0,0,0,0c0,0,0,0,0,0.1c0,0,0,0.1,0,0.1c0,0,0,0.1,0,0.1c0,0,0,0.1,0,0.1c0,0,0,0,0,0c0,0,0,0,0,0h0.8v2.5c0,0,0,0,0,0
		c0,0,0,0,0.1,0c0,0,0.1,0,0.1,0c0,0,0.1,0,0.2,0c0.1,0,0.1,0,0.2,0c0,0,0.1,0,0.1,0c0,0,0,0,0.1,0c0,0,0,0,0,0v-2.5h0.8
		c0,0,0,0,0,0c0,0,0,0,0,0c0,0,0,0,0-0.1c0,0,0-0.1,0-0.1C53.5,64,53.5,64,53.4,63.8C53.5,63.9,53.5,63.9,53.4,63.8z"/>
	<path fill="#FFFFFF" fill-rule="evenodd" d="M24.2,66.2C24.2,66.2,24.2,66.2,24.2,66.2C24.2,66.2,24.2,66.2,24.2,66.2c-0.1,0-0.1,0-0.2,0
		c0,0-0.1,0.1-0.1,0.1c-0.1,0-0.1,0.1-0.2,0.1c-0.1,0-0.2,0-0.3,0c-0.1,0-0.2,0-0.3-0.1c-0.1,0-0.2-0.1-0.3-0.2
		c-0.1-0.1-0.1-0.2-0.2-0.3c0-0.1-0.1-0.3-0.1-0.5c0-0.2,0-0.3,0.1-0.5c0-0.1,0.1-0.2,0.2-0.3c0.1-0.1,0.2-0.2,0.3-0.2
		c0.1-0.1,0.2-0.1,0.3-0.1c0.1,0,0.2,0,0.3,0c0.1,0,0.2,0.1,0.2,0.1c0.1,0,0.1,0.1,0.1,0.1s0.1,0,0.1,0c0,0,0,0,0,0c0,0,0,0,0,0
		c0,0,0,0,0-0.1c0,0,0-0.1,0-0.1c0,0,0-0.1,0-0.1c0,0,0-0.1,0-0.1c0,0,0,0,0-0.1c0,0,0,0,0-0.1c0,0-0.1,0-0.1-0.1
		c-0.1,0-0.1-0.1-0.2-0.1c-0.1,0-0.1,0-0.2-0.1c-0.1,0-0.2,0-0.3,0c-0.2,0-0.4,0-0.6,0.1c-0.2,0.1-0.3,0.2-0.5,0.3
		c-0.1,0.1-0.2,0.3-0.3,0.5c-0.1,0.2-0.1,0.4-0.1,0.7c0,0.3,0,0.5,0.1,0.7c0.1,0.2,0.2,0.4,0.3,0.5c0.1,0.1,0.3,0.2,0.5,0.3
		c0.2,0.1,0.4,0.1,0.6,0.1c0.1,0,0.2,0,0.3,0c0.1,0,0.2,0,0.3-0.1c0.1,0,0.1-0.1,0.2-0.1c0.1,0,0.1-0.1,0.1-0.1c0,0,0,0,0,0
		c0,0,0,0,0-0.1c0,0,0,0,0-0.1c0,0,0-0.1,0-0.1C24.2,66.4,24.2,66.3,24.2,66.2C24.2,66.3,24.2,66.2,24.2,66.2z"/>
	<path fill="#FFFFFF" fill-rule="evenodd" d="M99.1,63.9C99.1,63.9,99.1,63.8,99.1,63.9c0-0.1-0.1-0.1-0.1-0.1c0,0-0.1,0-0.1,0c-0.1,0-0.1,0-0.2,0
		c-0.1,0-0.2,0-0.2,0c-0.1,0-0.1,0-0.1,0c0,0,0,0-0.1,0c0,0,0,0,0,0.1l-1,2.8c0,0.1,0,0.1,0,0.1c0,0,0,0.1,0,0.1c0,0,0,0,0.1,0
		c0,0,0.1,0,0.2,0c0.1,0,0.1,0,0.2,0c0,0,0.1,0,0.1,0c0,0,0,0,0.1,0c0,0,0,0,0-0.1l0.2-0.6h1.2l0.2,0.6c0,0,0,0,0,0.1c0,0,0,0,0.1,0
		c0,0,0.1,0,0.1,0c0,0,0.1,0,0.2,0c0.1,0,0.1,0,0.2,0c0,0,0.1,0,0.1,0c0,0,0,0,0-0.1c0,0,0-0.1,0-0.1L99.1,63.9z M98.2,65.7l0.4-1.3
		h0l0.5,1.3H98.2z"/>
	<path fill="#FFFFFF" fill-rule="evenodd" d="M78.5,62.8c-0.1,0-0.1,0-0.2,0c0,0-0.1,0-0.1,0c0,0-0.1,0-0.1,0c0,0,0,0-0.1,0.1l-0.4,0.5
		c0,0,0,0,0,0.1c0,0,0,0,0,0c0,0,0,0,0.1,0c0,0,0.1,0,0.1,0c0.1,0,0.1,0,0.1,0c0,0,0.1,0,0.1,0c0,0,0,0,0.1,0c0,0,0,0,0.1,0l0.6-0.5
		c0,0,0,0,0-0.1c0,0,0,0,0-0.1c0,0,0,0-0.1,0C78.6,62.8,78.5,62.8,78.5,62.8z"/>
	<path fill="#FFFFFF" fill-rule="evenodd" d="M67.8,65.4c-0.1-0.1-0.1-0.1-0.2-0.2c-0.1,0-0.2-0.1-0.3-0.1c-0.1,0-0.2-0.1-0.3-0.1
		c-0.1,0-0.2-0.1-0.2-0.1c-0.1,0-0.1-0.1-0.2-0.1c0-0.1-0.1-0.1-0.1-0.2c0,0,0-0.1,0-0.1c0,0,0-0.1,0.1-0.1c0,0,0.1-0.1,0.1-0.1
		c0.1,0,0.1,0,0.2,0c0.1,0,0.2,0,0.3,0c0.1,0,0.1,0,0.2,0.1c0.1,0,0.1,0.1,0.1,0.1c0,0,0.1,0,0.1,0c0,0,0,0,0,0c0,0,0,0,0,0
		c0,0,0,0,0-0.1c0,0,0-0.1,0-0.1c0,0,0-0.1,0-0.1c0,0,0-0.1,0-0.1c0,0,0,0,0,0c0,0,0,0,0,0c0,0-0.1,0-0.1-0.1c-0.1,0-0.1,0-0.2-0.1
		c-0.1,0-0.1,0-0.2,0c-0.1,0-0.2,0-0.2,0c-0.1,0-0.3,0-0.4,0.1c-0.1,0-0.2,0.1-0.3,0.2c-0.1,0.1-0.2,0.2-0.2,0.3
		c-0.1,0.1-0.1,0.2-0.1,0.4c0,0.1,0,0.2,0.1,0.3c0,0.1,0.1,0.2,0.2,0.2c0.1,0.1,0.1,0.1,0.2,0.2c0.1,0,0.2,0.1,0.3,0.1
		c0.1,0,0.2,0.1,0.3,0.1c0.1,0,0.2,0.1,0.2,0.1c0.1,0,0.1,0.1,0.2,0.1c0,0.1,0.1,0.1,0.1,0.2c0,0.1,0,0.1,0,0.2c0,0-0.1,0.1-0.1,0.1
		c0,0-0.1,0.1-0.2,0.1c-0.1,0-0.1,0-0.2,0c-0.1,0-0.2,0-0.3,0c-0.1,0-0.2-0.1-0.2-0.1c-0.1,0-0.1-0.1-0.2-0.1c0,0-0.1,0-0.1,0
		c0,0,0,0,0,0c0,0,0,0,0,0c0,0,0,0,0,0.1c0,0,0,0.1,0,0.1c0,0.1,0,0.1,0,0.2c0,0,0,0.1,0,0.1c0,0,0.1,0,0.1,0.1c0,0,0.1,0.1,0.2,0.1
		c0.1,0,0.2,0,0.3,0.1c0.1,0,0.2,0,0.3,0c0.2,0,0.3,0,0.5-0.1c0.1,0,0.3-0.1,0.4-0.2c0.1-0.1,0.2-0.2,0.3-0.3
		c0.1-0.1,0.1-0.3,0.1-0.4c0-0.1,0-0.2-0.1-0.3C67.9,65.6,67.8,65.5,67.8,65.4z"/>
	<path fill="#FFFFFF" fill-rule="evenodd" d="M78.4,63.9C78.4,63.9,78.3,63.8,78.4,63.9c0-0.1-0.1-0.1-0.1-0.1c0,0-0.1,0-0.1,0c-0.1,0-0.1,0-0.2,0
		c-0.1,0-0.2,0-0.2,0c-0.1,0-0.1,0-0.1,0c0,0,0,0-0.1,0c0,0,0,0,0,0.1l-1,2.8c0,0.1,0,0.1,0,0.1c0,0,0,0.1,0,0.1c0,0,0,0,0.1,0
		c0,0,0.1,0,0.2,0c0.1,0,0.1,0,0.2,0c0,0,0.1,0,0.1,0c0,0,0,0,0.1,0c0,0,0,0,0-0.1l0.2-0.6h1.2l0.2,0.6c0,0,0,0,0,0.1c0,0,0,0,0.1,0
		c0,0,0.1,0,0.1,0c0,0,0.1,0,0.2,0c0.1,0,0.1,0,0.2,0c0,0,0.1,0,0.1,0c0,0,0,0,0-0.1c0,0,0-0.1,0-0.1L78.4,63.9z M77.4,65.7l0.4-1.3
		h0l0.5,1.3H77.4z"/>
	<path fill="#FFFFFF" fill-rule="evenodd" d="M56.2,64.1c-0.1-0.1-0.3-0.2-0.5-0.3c-0.2-0.1-0.4-0.1-0.6-0.1c-0.3,0-0.5,0-0.7,0.1
		c-0.2,0.1-0.4,0.2-0.5,0.3c-0.1,0.1-0.2,0.3-0.3,0.5c-0.1,0.2-0.1,0.4-0.1,0.7c0,0.3,0,0.5,0.1,0.7c0.1,0.2,0.2,0.4,0.3,0.5
		c0.1,0.1,0.3,0.2,0.5,0.3c0.2,0.1,0.4,0.1,0.7,0.1c0.3,0,0.5,0,0.7-0.1c0.2-0.1,0.4-0.2,0.5-0.3c0.1-0.1,0.2-0.3,0.3-0.5
		c0.1-0.2,0.1-0.4,0.1-0.7c0-0.3,0-0.5-0.1-0.7C56.4,64.4,56.3,64.2,56.2,64.1z M55.9,65.8c0,0.1-0.1,0.2-0.1,0.3
		c-0.1,0.1-0.2,0.2-0.3,0.2c-0.1,0.1-0.2,0.1-0.4,0.1c-0.2,0-0.3,0-0.4-0.1c-0.1-0.1-0.2-0.1-0.3-0.2c-0.1-0.1-0.1-0.2-0.1-0.3
		c0-0.1,0-0.3,0-0.5c0-0.1,0-0.3,0-0.4c0-0.1,0.1-0.2,0.1-0.3c0.1-0.1,0.2-0.2,0.3-0.2c0.1-0.1,0.2-0.1,0.4-0.1c0.2,0,0.3,0,0.4,0.1
		c0.1,0.1,0.2,0.1,0.3,0.2c0.1,0.1,0.1,0.2,0.1,0.3c0,0.1,0,0.3,0,0.4C55.9,65.5,55.9,65.6,55.9,65.8z"/>
	<path fill="#FFFFFF" fill-rule="evenodd" d="M60.5,64.2c-0.1-0.1-0.3-0.2-0.5-0.3c-0.2-0.1-0.4-0.1-0.7-0.1h-0.8c-0.1,0-0.1,0-0.1,0
		c0,0-0.1,0.1-0.1,0.2v2.7c0,0.1,0,0.1,0.1,0.2c0,0,0.1,0,0.1,0h0.8c0.3,0,0.5,0,0.7-0.1c0.2-0.1,0.4-0.2,0.5-0.3
		c0.1-0.1,0.3-0.3,0.3-0.5c0.1-0.2,0.1-0.4,0.1-0.7c0-0.2,0-0.5-0.1-0.7C60.8,64.5,60.7,64.3,60.5,64.2z M60.2,65.8
		c0,0.1-0.1,0.2-0.2,0.3c-0.1,0.1-0.2,0.2-0.3,0.2c-0.1,0-0.3,0.1-0.5,0.1h-0.3v-2.1h0.3c0.2,0,0.4,0,0.5,0.1
		c0.1,0.1,0.2,0.1,0.3,0.2c0.1,0.1,0.1,0.2,0.2,0.3c0,0.1,0.1,0.3,0.1,0.4C60.3,65.5,60.3,65.7,60.2,65.8z"/>
	<path fill="#FFFFFF" fill-rule="evenodd" d="M64,64.1c-0.1-0.1-0.3-0.2-0.5-0.3c-0.2-0.1-0.4-0.1-0.6-0.1c-0.3,0-0.5,0-0.7,0.1
		c-0.2,0.1-0.4,0.2-0.5,0.3c-0.1,0.1-0.2,0.3-0.3,0.5c-0.1,0.2-0.1,0.4-0.1,0.7c0,0.3,0,0.5,0.1,0.7c0.1,0.2,0.2,0.4,0.3,0.5
		c0.1,0.1,0.3,0.2,0.5,0.3c0.2,0.1,0.4,0.1,0.7,0.1c0.3,0,0.5,0,0.7-0.1c0.2-0.1,0.4-0.2,0.5-0.3c0.1-0.1,0.2-0.3,0.3-0.5
		c0.1-0.2,0.1-0.4,0.1-0.7c0-0.3,0-0.5-0.1-0.7C64.2,64.4,64.1,64.2,64,64.1z M63.7,65.8c0,0.1-0.1,0.2-0.1,0.3
		c-0.1,0.1-0.2,0.2-0.3,0.2c-0.1,0.1-0.2,0.1-0.4,0.1c-0.2,0-0.3,0-0.4-0.1c-0.1-0.1-0.2-0.1-0.3-0.2c-0.1-0.1-0.1-0.2-0.1-0.3
		c0-0.1,0-0.3,0-0.5c0-0.1,0-0.3,0-0.4c0-0.1,0.1-0.2,0.1-0.3c0.1-0.1,0.2-0.2,0.3-0.2c0.1-0.1,0.2-0.1,0.4-0.1c0.2,0,0.3,0,0.4,0.1
		c0.1,0.1,0.2,0.1,0.3,0.2c0.1,0.1,0.1,0.2,0.1,0.3c0,0.1,0,0.3,0,0.4C63.7,65.5,63.7,65.6,63.7,65.8z"/>
	<path fill="#FFFFFF" fill-rule="evenodd" d="M70.3,66.5C70.3,66.4,70.3,66.4,70.3,66.5C70.3,66.4,70.3,66.4,70.3,66.5l-1.2-0.1v-0.9h1c0,0,0,0,0,0
		c0,0,0,0,0,0c0,0,0,0,0-0.1c0,0,0-0.1,0-0.1c0,0,0-0.1,0-0.1c0,0,0-0.1,0-0.1c0,0,0,0,0,0c0,0,0,0,0,0h-1v-0.8h1.1c0,0,0,0,0,0
		c0,0,0,0,0,0c0,0,0,0,0-0.1c0,0,0-0.1,0-0.1c0,0,0-0.1,0-0.1c0,0,0-0.1,0-0.1c0,0,0,0,0,0c0,0,0,0,0,0h-1.6c-0.1,0-0.1,0-0.1,0
		c0,0-0.1,0.1-0.1,0.2v2.7c0,0.1,0,0.1,0.1,0.2c0,0,0.1,0,0.1,0h1.6c0,0,0,0,0,0c0,0,0,0,0,0c0,0,0,0,0-0.1c0,0,0-0.1,0-0.1
		C70.4,66.6,70.4,66.6,70.3,66.5C70.4,66.5,70.4,66.5,70.3,66.5z"/>
	<path fill="#FFFFFF" fill-rule="evenodd" d="M76,63.8C75.9,63.8,75.9,63.8,76,63.8c-0.1,0-0.2,0-0.3,0c-0.1,0-0.1,0-0.2,0c0,0-0.1,0-0.1,0
		c0,0,0,0-0.1,0c0,0,0,0,0,0v3c0,0,0,0,0,0c0,0,0,0,0.1,0c0,0,0.1,0,0.1,0c0,0,0.1,0,0.2,0c0.1,0,0.1,0,0.2,0c0,0,0.1,0,0.1,0
		c0,0,0,0,0.1,0c0,0,0,0,0,0L76,63.8C76,63.9,76,63.8,76,63.8C76,63.8,76,63.8,76,63.8z"/>
	<path fill="#FFFFFF" fill-rule="evenodd" d="M82.1,66.6L81.9,66c0-0.1-0.1-0.1-0.1-0.2c0-0.1-0.1-0.1-0.1-0.2c0,0-0.1-0.1-0.1-0.1
		c0,0-0.1-0.1-0.1-0.1c0.1,0,0.2-0.1,0.3-0.1c0.1,0,0.1-0.1,0.2-0.2c0.1-0.1,0.1-0.1,0.1-0.2c0-0.1,0-0.2,0-0.3c0-0.1,0-0.2-0.1-0.3
		c0-0.1-0.1-0.2-0.2-0.2c-0.1-0.1-0.2-0.1-0.3-0.2c-0.1,0-0.2-0.1-0.3-0.1c0,0-0.1,0-0.1,0c-0.1,0-0.1,0-0.2,0H80
		c-0.1,0-0.1,0-0.1,0c0,0-0.1,0.1-0.1,0.2v2.8c0,0,0,0,0,0c0,0,0,0,0.1,0c0,0,0.1,0,0.1,0c0,0,0.1,0,0.2,0c0.1,0,0.1,0,0.2,0
		c0,0,0.1,0,0.1,0c0,0,0,0,0.1,0c0,0,0,0,0,0v-1.2h0.2c0.1,0,0.1,0,0.2,0c0.1,0,0.1,0.1,0.1,0.1c0,0,0.1,0.1,0.1,0.2
		c0,0.1,0.1,0.1,0.1,0.2l0.3,0.7c0,0,0,0,0,0c0,0,0,0,0.1,0c0,0,0.1,0,0.1,0c0,0,0.1,0,0.2,0c0.1,0,0.1,0,0.2,0c0,0,0.1,0,0.1,0
		c0,0,0,0,0,0c0,0,0,0,0,0c0,0,0,0,0-0.1C82.2,66.7,82.2,66.7,82.1,66.6z M81.3,64.9c0,0.1-0.1,0.1-0.1,0.1c0,0-0.1,0.1-0.2,0.1
		c-0.1,0-0.1,0-0.2,0h-0.3v-0.9h0.3c0.1,0,0.1,0,0.2,0c0,0,0.1,0,0.1,0c0.1,0,0.2,0.1,0.2,0.2c0,0.1,0.1,0.2,0.1,0.3
		C81.3,64.8,81.3,64.8,81.3,64.9z"/>
	<path fill="#FFFFFF" fill-rule="evenodd" d="M97,66.6L96.7,66c0-0.1-0.1-0.1-0.1-0.2c0-0.1-0.1-0.1-0.1-0.2c0,0-0.1-0.1-0.1-0.1
		c0,0-0.1-0.1-0.1-0.1c0.1,0,0.2-0.1,0.3-0.1c0.1,0,0.1-0.1,0.2-0.2c0.1-0.1,0.1-0.1,0.1-0.2c0-0.1,0-0.2,0-0.3c0-0.1,0-0.2-0.1-0.3
		c0-0.1-0.1-0.2-0.2-0.2c-0.1-0.1-0.2-0.1-0.3-0.2c-0.1,0-0.2-0.1-0.3-0.1c0,0-0.1,0-0.1,0c-0.1,0-0.1,0-0.2,0h-0.8
		c-0.1,0-0.1,0-0.1,0c0,0-0.1,0.1-0.1,0.2v2.8c0,0,0,0,0,0c0,0,0,0,0.1,0c0,0,0.1,0,0.1,0c0,0,0.1,0,0.2,0c0.1,0,0.1,0,0.2,0
		c0,0,0.1,0,0.1,0c0,0,0,0,0.1,0c0,0,0,0,0,0v-1.2h0.2c0.1,0,0.1,0,0.2,0c0.1,0,0.1,0.1,0.1,0.1c0,0,0.1,0.1,0.1,0.2
		C96,66,96,66,96,66.1l0.3,0.7c0,0,0,0,0,0c0,0,0,0,0.1,0c0,0,0.1,0,0.1,0c0,0,0.1,0,0.2,0c0.1,0,0.1,0,0.2,0c0,0,0.1,0,0.1,0
		c0,0,0,0,0,0c0,0,0,0,0,0c0,0,0,0,0-0.1C97,66.7,97,66.7,97,66.6z M96.1,64.9c0,0.1-0.1,0.1-0.1,0.1c0,0-0.1,0.1-0.2,0.1
		c-0.1,0-0.1,0-0.2,0h-0.3v-0.9h0.3c0.1,0,0.1,0,0.2,0c0,0,0.1,0,0.1,0c0.1,0,0.2,0.1,0.2,0.2c0,0.1,0.1,0.2,0.1,0.3
		C96.2,64.8,96.2,64.8,96.1,64.9z"/>
	<path fill="#FFFFFF" fill-rule="evenodd" d="M89.7,64.1c-0.1-0.1-0.3-0.2-0.5-0.3c-0.2-0.1-0.4-0.1-0.6-0.1c-0.3,0-0.5,0-0.7,0.1
		c-0.2,0.1-0.4,0.2-0.5,0.3c-0.1,0.1-0.2,0.3-0.3,0.5c-0.1,0.2-0.1,0.4-0.1,0.7c0,0.3,0,0.5,0.1,0.7c0.1,0.2,0.2,0.4,0.3,0.5
		c0.1,0.1,0.3,0.2,0.5,0.3c0.2,0.1,0.4,0.1,0.7,0.1c0.3,0,0.5,0,0.7-0.1c0.2-0.1,0.4-0.2,0.5-0.3c0.1-0.1,0.2-0.3,0.3-0.5
		c0.1-0.2,0.1-0.4,0.1-0.7c0-0.3,0-0.5-0.1-0.7C89.9,64.4,89.8,64.2,89.7,64.1z M89.4,65.8c0,0.1-0.1,0.2-0.1,0.3
		c-0.1,0.1-0.2,0.2-0.3,0.2c-0.1,0.1-0.2,0.1-0.4,0.1c-0.2,0-0.3,0-0.4-0.1c-0.1-0.1-0.2-0.1-0.3-0.2c-0.1-0.1-0.1-0.2-0.1-0.3
		c0-0.1,0-0.3,0-0.5c0-0.1,0-0.3,0-0.4c0-0.1,0.1-0.2,0.1-0.3c0.1-0.1,0.2-0.2,0.3-0.2c0.1-0.1,0.2-0.1,0.4-0.1c0.2,0,0.3,0,0.4,0.1
		c0.1,0.1,0.2,0.1,0.3,0.2c0.1,0.1,0.1,0.2,0.1,0.3c0,0.1,0,0.3,0,0.4C89.4,65.5,89.4,65.6,89.4,65.8z"/>
	<path fill="#FFFFFF" fill-rule="evenodd" d="M93.9,65.5c-0.1-0.1-0.1-0.1-0.2-0.2c-0.1,0-0.2-0.1-0.3-0.1c0.1,0,0.1-0.1,0.2-0.1
		c0.1,0,0.1-0.1,0.1-0.1c0-0.1,0.1-0.1,0.1-0.2c0-0.1,0-0.1,0-0.2c0-0.1,0-0.3-0.1-0.4c0-0.1-0.1-0.2-0.2-0.2
		c-0.1-0.1-0.2-0.1-0.3-0.1c-0.1,0-0.3,0-0.5,0H92c-0.1,0-0.1,0-0.1,0c0,0-0.1,0.1-0.1,0.2v2.7c0,0.1,0,0.1,0.1,0.2c0,0,0.1,0,0.1,0
		h0.9c0.1,0,0.2,0,0.4,0c0.1,0,0.2,0,0.3-0.1c0.1,0,0.2-0.1,0.3-0.1c0.1-0.1,0.1-0.1,0.2-0.2c0.1-0.1,0.1-0.1,0.1-0.2
		c0-0.1,0-0.2,0-0.3c0-0.1,0-0.2,0-0.3C94,65.6,94,65.5,93.9,65.5z M92.4,64.3h0.3c0.1,0,0.2,0,0.2,0c0.1,0,0.1,0,0.1,0.1
		c0,0,0.1,0.1,0.1,0.1c0,0.1,0,0.1,0,0.2c0,0.1,0,0.1,0,0.2c0,0.1,0,0.1-0.1,0.1c0,0-0.1,0.1-0.1,0.1c-0.1,0-0.1,0-0.2,0h-0.4V64.3z
		 M93.4,66.2c0,0.1-0.1,0.1-0.1,0.1c0,0-0.1,0.1-0.2,0.1c-0.1,0-0.1,0-0.2,0h-0.5v-0.9h0.4c0.1,0,0.2,0,0.3,0c0.1,0,0.1,0.1,0.2,0.1
		c0,0,0.1,0.1,0.1,0.1c0,0.1,0,0.1,0,0.2C93.4,66.1,93.4,66.1,93.4,66.2z"/>
	<path fill="#FFFFFF" fill-rule="evenodd" d="M74.6,63.9C74.6,63.8,74.6,63.8,74.6,63.9c-0.1-0.1-0.1-0.1-0.2-0.1H74c-0.1,0-0.1,0-0.2,0
		c0,0-0.1,0-0.1,0.1c0,0-0.1,0.1-0.1,0.1c0,0,0,0.1-0.1,0.2L72.8,66h0l-0.7-1.9c0-0.1,0-0.1-0.1-0.2c0,0-0.1-0.1-0.1-0.1
		c0,0-0.1,0-0.1-0.1c-0.1,0-0.1,0-0.2,0h-0.4c-0.1,0-0.1,0-0.2,0.1c0,0-0.1,0.1-0.1,0.2v2.8c0,0,0,0,0,0c0,0,0,0,0.1,0
		c0,0,0.1,0,0.1,0c0,0,0.1,0,0.1,0c0.1,0,0.1,0,0.1,0c0,0,0.1,0,0.1,0c0,0,0,0,0.1,0c0,0,0,0,0,0v-2.5h0l0.9,2.5c0,0,0,0,0,0
		c0,0,0,0,0.1,0c0,0,0.1,0,0.1,0c0,0,0.1,0,0.1,0c0.1,0,0.1,0,0.1,0c0,0,0.1,0,0.1,0c0,0,0,0,0.1,0c0,0,0,0,0-0.1l0.9-2.5h0v2.5
		c0,0,0,0,0,0c0,0,0,0,0,0c0,0,0.1,0,0.1,0c0,0,0.1,0,0.1,0c0.1,0,0.1,0,0.2,0c0,0,0.1,0,0.1,0c0,0,0,0,0,0c0,0,0,0,0,0V64
		C74.7,64,74.7,64,74.6,63.9C74.7,63.9,74.6,63.9,74.6,63.9z"/>
	<path fill="#FFFFFF" fill-rule="evenodd" d="M86.3,64.2c-0.1-0.1-0.3-0.2-0.5-0.3c-0.2-0.1-0.4-0.1-0.7-0.1h-0.8c-0.1,0-0.1,0-0.1,0
		c0,0-0.1,0.1-0.1,0.2v2.7c0,0.1,0,0.1,0.1,0.2c0,0,0.1,0,0.1,0H85c0.3,0,0.5,0,0.7-0.1c0.2-0.1,0.4-0.2,0.5-0.3
		c0.1-0.1,0.3-0.3,0.3-0.5c0.1-0.2,0.1-0.4,0.1-0.7c0-0.2,0-0.5-0.1-0.7C86.5,64.5,86.4,64.3,86.3,64.2z M85.9,65.8
		c0,0.1-0.1,0.2-0.2,0.3c-0.1,0.1-0.2,0.2-0.3,0.2c-0.1,0-0.3,0.1-0.5,0.1h-0.3v-2.1H85c0.2,0,0.4,0,0.5,0.1
		c0.1,0.1,0.2,0.1,0.3,0.2c0.1,0.1,0.1,0.2,0.2,0.3c0,0.1,0.1,0.3,0.1,0.4C86,65.5,86,65.7,85.9,65.8z"/>
	<path fill="#FFFFFF" fill-rule="evenodd" d="M83.3,63.8C83.2,63.8,83.2,63.8,83.3,63.8c-0.1,0-0.2,0-0.3,0c-0.1,0-0.1,0-0.2,0c0,0-0.1,0-0.1,0
		c0,0,0,0-0.1,0c0,0,0,0,0,0v3c0,0,0,0,0,0c0,0,0,0,0.1,0c0,0,0.1,0,0.1,0c0,0,0.1,0,0.2,0c0.1,0,0.1,0,0.2,0c0,0,0.1,0,0.1,0
		c0,0,0,0,0.1,0c0,0,0,0,0,0L83.3,63.8C83.3,63.9,83.3,63.8,83.3,63.8C83.3,63.8,83.3,63.8,83.3,63.8z"/>
	<path fill="#FFFFFF" fill-rule="evenodd" d="M102.3,65.4c-0.1-0.1-0.1-0.1-0.2-0.2c-0.1,0-0.2-0.1-0.3-0.1c-0.1,0-0.2-0.1-0.3-0.1
		c-0.1,0-0.2-0.1-0.2-0.1c-0.1,0-0.1-0.1-0.2-0.1c0-0.1-0.1-0.1-0.1-0.2c0,0,0-0.1,0-0.1c0,0,0-0.1,0.1-0.1c0,0,0.1-0.1,0.1-0.1
		c0.1,0,0.1,0,0.2,0c0.1,0,0.2,0,0.3,0c0.1,0,0.1,0,0.2,0.1c0.1,0,0.1,0.1,0.1,0.1c0,0,0.1,0,0.1,0c0,0,0,0,0,0c0,0,0,0,0,0
		c0,0,0,0,0-0.1c0,0,0-0.1,0-0.1c0,0,0-0.1,0-0.1c0,0,0-0.1,0-0.1c0,0,0,0,0,0c0,0,0,0,0,0c0,0-0.1,0-0.1-0.1c-0.1,0-0.1,0-0.2-0.1
		c-0.1,0-0.1,0-0.2,0c-0.1,0-0.2,0-0.2,0c-0.1,0-0.3,0-0.4,0.1c-0.1,0-0.2,0.1-0.3,0.2c-0.1,0.1-0.2,0.2-0.2,0.3
		c-0.1,0.1-0.1,0.2-0.1,0.4c0,0.1,0,0.2,0.1,0.3c0,0.1,0.1,0.2,0.2,0.2c0.1,0.1,0.1,0.1,0.2,0.2c0.1,0,0.2,0.1,0.3,0.1
		c0.1,0,0.2,0.1,0.3,0.1c0.1,0,0.2,0.1,0.2,0.1c0.1,0,0.1,0.1,0.2,0.1c0,0.1,0.1,0.1,0.1,0.2c0,0.1,0,0.1,0,0.2c0,0-0.1,0.1-0.1,0.1
		c0,0-0.1,0.1-0.2,0.1c-0.1,0-0.1,0-0.2,0c-0.1,0-0.2,0-0.3,0c-0.1,0-0.2-0.1-0.2-0.1c-0.1,0-0.1-0.1-0.2-0.1c0,0-0.1,0-0.1,0
		c0,0,0,0,0,0c0,0,0,0,0,0c0,0,0,0,0,0.1c0,0,0,0.1,0,0.1c0,0.1,0,0.1,0,0.2c0,0,0,0.1,0,0.1c0,0,0.1,0,0.1,0.1c0,0,0.1,0.1,0.2,0.1
		c0.1,0,0.2,0,0.3,0.1c0.1,0,0.2,0,0.3,0c0.2,0,0.3,0,0.5-0.1c0.1,0,0.3-0.1,0.4-0.2c0.1-0.1,0.2-0.2,0.3-0.3
		c0.1-0.1,0.1-0.3,0.1-0.4c0-0.1,0-0.2-0.1-0.3C102.4,65.6,102.3,65.5,102.3,65.4z"/>
	<path fill="#FFFFFF" fill-rule="evenodd" d="M112.6,66.6l-0.3-0.6c0-0.1-0.1-0.1-0.1-0.2c0-0.1-0.1-0.1-0.1-0.2c0,0-0.1-0.1-0.1-0.1
		c0,0-0.1-0.1-0.1-0.1c0.1,0,0.2-0.1,0.3-0.1c0.1,0,0.1-0.1,0.2-0.2c0.1-0.1,0.1-0.1,0.1-0.2c0-0.1,0-0.2,0-0.3c0-0.1,0-0.2-0.1-0.3
		c0-0.1-0.1-0.2-0.2-0.2c-0.1-0.1-0.2-0.1-0.3-0.2c-0.1,0-0.2-0.1-0.3-0.1c0,0-0.1,0-0.1,0c-0.1,0-0.1,0-0.2,0h-0.8
		c-0.1,0-0.1,0-0.1,0c0,0-0.1,0.1-0.1,0.2v2.8c0,0,0,0,0,0c0,0,0,0,0.1,0c0,0,0.1,0,0.1,0c0,0,0.1,0,0.2,0c0.1,0,0.1,0,0.2,0
		c0,0,0.1,0,0.1,0c0,0,0,0,0.1,0c0,0,0,0,0,0v-1.2h0.2c0.1,0,0.1,0,0.2,0c0.1,0,0.1,0.1,0.1,0.1c0,0,0.1,0.1,0.1,0.2
		c0,0.1,0.1,0.1,0.1,0.2l0.3,0.7c0,0,0,0,0,0c0,0,0,0,0.1,0c0,0,0.1,0,0.1,0c0,0,0.1,0,0.2,0c0.1,0,0.1,0,0.2,0c0,0,0.1,0,0.1,0
		c0,0,0,0,0,0c0,0,0,0,0,0c0,0,0,0,0-0.1C112.7,66.7,112.6,66.7,112.6,66.6z M111.8,64.9c0,0.1-0.1,0.1-0.1,0.1c0,0-0.1,0.1-0.2,0.1
		c-0.1,0-0.1,0-0.2,0h-0.3v-0.9h0.3c0.1,0,0.1,0,0.2,0c0,0,0.1,0,0.1,0c0.1,0,0.2,0.1,0.2,0.2c0,0.1,0.1,0.2,0.1,0.3
		C111.8,64.8,111.8,64.8,111.8,64.9z"/>
	<path fill="#FFFFFF" fill-rule="evenodd" d="M106.1,66.4C106.1,66.4,106,66.4,106.1,66.4C106,66.4,106,66.4,106.1,66.4l-1.1-0.1v-2.5c0,0,0,0,0,0
		c0,0,0,0-0.1,0c0,0-0.1,0-0.1,0c0,0-0.1,0-0.2,0c-0.1,0-0.1,0-0.2,0c0,0-0.1,0-0.1,0c0,0,0,0-0.1,0c0,0,0,0,0,0v2.8
		c0,0.1,0,0.1,0.1,0.2c0,0,0.1,0,0.1,0h1.5c0,0,0,0,0,0c0,0,0,0,0,0c0,0,0,0,0-0.1c0,0,0-0.1,0-0.1
		C106.1,66.6,106.1,66.6,106.1,66.4C106.1,66.5,106.1,66.5,106.1,66.4z"/>
	<path fill="#FFFFFF" fill-rule="evenodd" d="M115.6,64.1c-0.1-0.1-0.3-0.2-0.5-0.3c-0.2-0.1-0.4-0.1-0.6-0.1c-0.3,0-0.5,0-0.7,0.1
		c-0.2,0.1-0.4,0.2-0.5,0.3c-0.1,0.1-0.2,0.3-0.3,0.5c-0.1,0.2-0.1,0.4-0.1,0.7c0,0.3,0,0.5,0.1,0.7c0.1,0.2,0.2,0.4,0.3,0.5
		c0.1,0.1,0.3,0.2,0.5,0.3c0.2,0.1,0.4,0.1,0.7,0.1c0.3,0,0.5,0,0.7-0.1c0.2-0.1,0.4-0.2,0.5-0.3c0.1-0.1,0.2-0.3,0.3-0.5
		c0.1-0.2,0.1-0.4,0.1-0.7c0-0.3,0-0.5-0.1-0.7C115.8,64.4,115.7,64.2,115.6,64.1z M115.3,65.8c0,0.1-0.1,0.2-0.1,0.3
		c-0.1,0.1-0.2,0.2-0.3,0.2c-0.1,0.1-0.2,0.1-0.4,0.1s-0.3,0-0.4-0.1c-0.1-0.1-0.2-0.1-0.3-0.2c-0.1-0.1-0.1-0.2-0.1-0.3
		c0-0.1,0-0.3,0-0.5c0-0.1,0-0.3,0-0.4c0-0.1,0.1-0.2,0.1-0.3c0.1-0.1,0.2-0.2,0.3-0.2c0.1-0.1,0.2-0.1,0.4-0.1c0.2,0,0.3,0,0.4,0.1
		c0.1,0.1,0.2,0.1,0.3,0.2c0.1,0.1,0.1,0.2,0.1,0.3c0,0.1,0,0.3,0,0.4C115.3,65.5,115.3,65.6,115.3,65.8z"/>
	<path fill="#FFFFFF" fill-rule="evenodd" d="M108.3,66.5C108.3,66.4,108.3,66.4,108.3,66.5C108.3,66.4,108.3,66.4,108.3,66.5l-1.2-0.1v-0.9h1
		c0,0,0,0,0,0c0,0,0,0,0,0c0,0,0,0,0-0.1c0,0,0-0.1,0-0.1c0,0,0-0.1,0-0.1c0,0,0-0.1,0-0.1c0,0,0,0,0,0c0,0,0,0,0,0h-1v-0.8h1.1
		c0,0,0,0,0,0c0,0,0,0,0,0c0,0,0,0,0-0.1c0,0,0-0.1,0-0.1c0,0,0-0.1,0-0.1c0,0,0-0.1,0-0.1c0,0,0,0,0,0c0,0,0,0,0,0h-1.6
		c-0.1,0-0.1,0-0.1,0c0,0-0.1,0.1-0.1,0.2v2.7c0,0.1,0,0.1,0.1,0.2c0,0,0.1,0,0.1,0h1.6c0,0,0,0,0,0c0,0,0,0,0,0c0,0,0,0,0-0.1
		c0,0,0-0.1,0-0.1C108.4,66.6,108.4,66.6,108.3,66.5C108.4,66.5,108.4,66.5,108.3,66.5z"/>
	<path fill="#FFFFFF" fill-rule="evenodd" d="M103.6,63.8C103.5,63.8,103.5,63.8,103.6,63.8c-0.1,0-0.2,0-0.3,0c-0.1,0-0.1,0-0.2,0c0,0-0.1,0-0.1,0
		c0,0,0,0-0.1,0c0,0,0,0,0,0v3c0,0,0,0,0,0c0,0,0,0,0.1,0c0,0,0.1,0,0.1,0c0,0,0.1,0,0.2,0c0.1,0,0.1,0,0.2,0c0,0,0.1,0,0.1,0
		c0,0,0,0,0.1,0c0,0,0,0,0,0L103.6,63.8C103.6,63.9,103.6,63.8,103.6,63.8C103.6,63.8,103.6,63.8,103.6,63.8z"/>
	<path fill="#FFFFFF" fill-rule="evenodd" d="M109.5,63.8C109.5,63.8,109.5,63.8,109.5,63.8c-0.1,0-0.2,0-0.3,0c-0.1,0-0.1,0-0.2,0c0,0-0.1,0-0.1,0
		c0,0,0,0-0.1,0c0,0,0,0,0,0v3c0,0,0,0,0,0c0,0,0,0,0.1,0c0,0,0.1,0,0.1,0c0,0,0.1,0,0.2,0c0.1,0,0.1,0,0.2,0c0,0,0.1,0,0.1,0
		c0,0,0,0,0.1,0c0,0,0,0,0,0L109.5,63.8C109.6,63.9,109.6,63.8,109.5,63.8C109.6,63.8,109.6,63.8,109.5,63.8z"/>
	<path fill="#FFFFFF" fill-rule="evenodd" d="M167.7,67.7c-0.7-0.4-2.1-0.5-3.1-0.2h0c-0.2,0.1-0.4,0.1-0.5,0.2l0,0.9c0.3,0.2,0.6,0.2,0.7,0.4
		c0,0.3,0.1,0.2-0.3,0.3c-0.3,0.1-0.5,0.2-0.4,0.8c0,0.6,0.9,0.6,1.7,0.6h0.1c0.4,0,0.9,0,1.2-0.1c0.6-0.1,0.7-0.2,0.7-0.9
		c0.3,0,0.6-0.1,0.7-0.3c0-0.1,0.3-0.9-0.3-1.1c-0.1,0-0.3-0.1-0.4-0.1L167.7,67.7z M167.2,68.5c-0.1-0.2-0.1-0.2,0.1-0.3
		C167.4,68.5,167.4,68.5,167.2,68.5z M164.6,68.6C164.5,68.5,164.5,68.5,164.6,68.6c-0.1,0-0.1,0-0.1-0.1c-0.1-0.2,0-0.1,0-0.1
		c0.2,0.1,0.1,0,0.1,0.1C164.7,68.7,164.6,68.5,164.6,68.6z M164.4,67.9c0.1,0,0.2-0.1,0.4-0.1c0.8-0.2,1.7-0.1,2.5,0.1
		c-0.4,0.2-1.5,0.3-2.3,0.1C164.7,68,164.6,67.9,164.4,67.9z M166.9,68.6c0,0,0,0-0.1,0c-0.2,0-0.1-0.1-0.1-0.1
		c0.1-0.1-0.1-0.1,0.1-0.1c0.3-0.1,0,0,0.2,0.1C166.9,68.5,166.9,68.6,166.9,68.6z M166.3,68.7c-0.3,0.1-0.2-0.1-0.2-0.1
		c0-0.2,0-0.2,0.2-0.2c0.3,0,0.2,0.1,0.2,0.1C166.3,68.7,166.5,68.6,166.3,68.7z M165.8,68.6L165.8,68.6l-0.3,0.1l0-0.3l0.4,0
		C165.9,68.6,165.8,68.5,165.8,68.6z M164.9,68.4c0.4,0,0.3,0,0.3,0.1c0,0,0,0.2-0.3,0.1C164.8,68.5,164.9,68.6,164.9,68.4z
		 M164.9,69.6l0.1,0.1c0,0,0,0,0,0l-0.6-0.1C164.6,69.6,164.7,69.5,164.9,69.6z M164.6,70.3c0,0-0.1,0-0.1-0.1c-0.1-0.3,0-0.1,0-0.2
		C164.7,70.2,164.7,70.1,164.6,70.3z M165.2,70.4c-0.2,0.1-0.3,0.1-0.3-0.1c0,0-0.1-0.1,0.2-0.1C165.3,70.2,165.2,70.2,165.2,70.4z
		 M165.2,69.2c0.3,0,0.2,0,0.2,0.2C165.2,69.4,165.2,69.5,165.2,69.2z M165.8,70.4L165.8,70.4c-0.1,0,0,0.1-0.2,0.1
		c-0.3,0-0.1,0-0.2-0.1c0.1-0.2-0.1-0.1,0.1-0.2c0.1,0,0.2,0,0.2,0C165.9,70.2,165.8,70.3,165.8,70.4z M166,69.5c-0.2,0-0.3,0-0.3,0
		c0,0,0-0.1,0-0.2c0,0,0,0,0,0l0.2,0C166,69.4,166,69.4,166,69.5z M166.4,70.4c-0.1,0,0.1,0.1-0.1,0.1c-0.4,0-0.1,0-0.2-0.1
		c0.1-0.2-0.2-0.1,0.2-0.2C166.5,70.2,166.4,70.3,166.4,70.4z M166.3,69.6c-0.4-0.1-0.1,0-0.1-0.2c0,0-0.1-0.1,0.2-0.1
		c0.3,0,0.1-0.1,0.2,0.1C166.6,69.5,166.6,69.6,166.3,69.6z M166.6,70.4c0-0.3-0.1-0.2,0.1-0.2c0.2-0.1,0.2,0.1,0.2,0.1
		C166.8,70.4,167,70.4,166.6,70.4z M166.8,69.5c0.1-0.2-0.1-0.1,0.1-0.1c0.3-0.1,0.2,0.1,0.3,0.1c0,0.1,0.1,0.1-0.1,0.2
		C166.8,69.6,166.8,69.5,166.8,69.5z M167.3,70.2c0,0.2,0,0.1-0.1,0.2c0-0.1-0.1,0.1,0-0.2c0-0.1,0-0.1,0.1-0.1
		C167.3,70.1,167.4,70,167.3,70.2z M167.4,69.5c0-0.3-0.1-0.2,0.3-0.2C167.6,69.5,167.6,69.6,167.4,69.5z M167.9,69.4
		c0-0.1-0.1,0.1-0.1-0.2c0-0.1,0-0.1,0.1-0.1C168.2,69.5,168.1,69.4,167.9,69.4z M167.1,68.9c0.4,0,0.5-0.4,0.9-0.1
		C167.7,68.9,167.4,68.9,167.1,68.9z"/>
	<path fill="#FFFFFF" fill-rule="evenodd" d="M159.8,66.9l0-1.7l6.4,0c0,0.2,0,1.8,0,1.8h0.6c0-0.5,0-0.2,0-0.9c0-1.3,0-1.6-1.2-1.6
		c-1.2,0-2.5,0-3.7,0c-0.6,0-1.3,0-1.8,0c-0.6,0.1-0.9,0.2-0.9,1c0,0.6,0,1.4,0,2v0.1c0,0.4,0.1,0.6,0.2,0.8
		c0.1,0.1,0.4,0.2,0.6,0.3l3.6,0l0-0.6l-3.8,0V66.9z"/>
	<path fill="#FFFFFF" fill-rule="evenodd" d="M163.1,65.4c0.6,0.7,0.2,0.8,0.1,0.9c-0.7-0.2-0.1,0.1-0.5-0.5c0,0.3,0,0.5,0.2,0.6
		c0.1,0.1,0.3,0.2,0.4,0.5c0.2,0.5,0.1,0.9-0.3,1.1c0.5,0,0.9-0.4,1-0.8C164.3,66.4,164.1,65.6,163.1,65.4z"/>
	<path fill="#FFFFFF" fill-rule="evenodd" d="M162.4,67c0.5,0.2,0.2,0,0.4,0.5c0.1-0.1,0.2,0.3,0.1-0.3c0-0.3-0.3-0.3-0.5-0.6
		c-0.1-0.2-0.2-0.3-0.2-0.4c0-0.3,0.1-0.5,0.4-0.7c-0.4,0.1-0.8,0.4-0.9,0.7c-0.4,0.6-0.1,1.5,0.8,1.8l-0.2-0.5
		C162.2,66.6,162.3,67.1,162.4,67z"/>
	<path fill="#FFFFFF" fill-rule="evenodd" d="M170.4,35.3l-0.1-0.3C170.3,35,170.3,35.2,170.4,35.3z"/>
	<path fill="#FFFFFF" fill-rule="evenodd" d="M174.6,36l-0.7-0.2l1,1.1c-0.1-0.1-0.5-0.4-0.6-0.5c-0.2-0.2-0.4-0.3-0.6-0.5c0,0.7,0.3,0.8,0.6,1
		c0.3,0.1,0.4,0.2,0.8,0.2c0-0.2-0.1-0.4-0.1-0.6C174.8,36.2,174.7,36.2,174.6,36z"/>
	<path fill="#FFFFFF" fill-rule="evenodd" d="M175.1,35.1c0,0-0.1,0-0.1,0c-0.1,0-0.2,0-0.3,0c-0.2,0.1-0.3,0.1-0.4,0.2l1.2,0.1l-1.2,0
		c0,0.1,0.1,0.1,0.2,0.2c0.5,0.2,0.6,0,1.1-0.2C175.5,35.3,175.4,35.2,175.1,35.1L175.1,35.1z"/>
	<path fill="#FFFFFF" fill-rule="evenodd" d="M174.7,34.5l0.5,0l-0.5,0.2c0,0.1,0.2,0.1,0.3,0.1c0.3,0,0.4-0.2,0.7-0.4c-0.1-0.1-0.3-0.1-0.4-0.1
		c-0.2,0-0.3,0.1-0.5,0.1L174.7,34.5z"/>
	<path fill="#FFFFFF" fill-rule="evenodd" d="M175,33.5c0,0.1-0.2,0.4-0.3,0.5c0,0,0,0,0.1,0c0.4-0.1,0.5-0.5,0.5-0.8c-0.4,0.1-0.7,0.3-0.7,0.7
		C174.7,33.8,174.8,33.6,175,33.5z"/>
	<path fill="#FFFFFF" fill-rule="evenodd" d="M173.2,33.9l-0.6,0.6c0.3,0,0.5-0.1,0.6-0.2l0.3-0.6c-0.5,0-1,0.3-1,0.8c0.1,0,0.8-0.6,0.9-0.7
		C173.4,33.8,173.3,33.8,173.2,33.9z"/>
	<path fill="#FFFFFF" fill-rule="evenodd" d="M172.7,32.7l-0.4,1.2C173,33.7,173,33.2,172.7,32.7c-0.1-0.1-0.4,0.3-0.5,0.4
		c-0.2,0.3-0.2,0.4-0.1,0.8L172.7,32.7z"/>
	<path fill="#FFFFFF" fill-rule="evenodd" d="M170.4,32.7C170.4,32.6,170.3,32.4,170.4,32.7C170.4,32.7,170.4,32.7,170.4,32.7z"/>
	<path fill="#FFFFFF" fill-rule="evenodd" d="M170.9,33.2c-0.1-0.1-0.3-0.2-0.5-0.4c0,0,0,0,0,0l-0.1,0c0,0.1,0.1,0.2,0.1,0.2
		C170.5,33.2,170.6,33.2,170.9,33.2z"/>
	<path fill="#FFFFFF" fill-rule="evenodd" d="M170.9,33.1c0-0.3-0.2-0.4-0.5-0.4c0,0,0,0.1,0,0.1L170.9,33.1z"/>
	<path fill="#FFFFFF" fill-rule="evenodd" d="M171.6,32.3c0,0.2,0.1,0.7,0.2,0.9c0.2-0.4,0.2-0.4,0-0.8l-0.2-0.2c-0.2,0.1-0.4,0.8,0,1L171.6,32.3z"
		/>
	<path fill="#FFFFFF" fill-rule="evenodd" d="M171.3,33.9l-0.9-0.1l0.9,0c-0.1-0.3-0.5-0.2-0.6-0.3c-0.1,0.1-0.3,0.1-0.4,0.2
		c0.3,0.2,0.4,0.3,0.8,0.3L171.3,33.9z"/>
	<path fill="#FFFFFF" fill-rule="evenodd" d="M172.2,36.4c0.1-0.1,0.1-0.3,0.1-0.5c-0.4,0.2-0.7,0.2-0.6,0.7c0.1-0.1,0.4-0.5,0.5-0.6l-0.4,0.6
		L172.2,36.4z"/>
	<path fill="#FFFFFF" fill-rule="evenodd" d="M171.1,36.2c0.1-0.1,0.4-0.8,0.5-0.9l0.1-0.1l-0.5,0.4C171,35.8,171,36,171.1,36.2z"/>
	<path fill="#FFFFFF" fill-rule="evenodd" d="M169.8,35.3c0.1,0,0.1,0,0.2,0l-0.4-0.5l0.5,0.5v-0.1c0-0.1-0.1-0.1-0.1-0.2l-0.5-0.2
		C169.6,34.9,169.6,35.2,169.8,35.3z"/>
	<path fill="#FFFFFF" fill-rule="evenodd" d="M170,36.6c0.2,0,0.3-0.1,0.3-0.2l-1.3-0.2l1.4,0l-0.5-0.3c-0.4,0-0.6,0.1-1,0.3
		C169.3,36.5,169.5,36.7,170,36.6z"/>
	<path fill="#FFFFFF" fill-rule="evenodd" d="M170.9,37.1l-1.5,0.5c0.2-0.1,1.3-0.6,1.4-0.7c-0.3-0.1-0.2-0.1-0.6-0.1c-0.3,0-0.3,0.1-0.5,0.2
		c-0.1,0.1-0.2,0.2-0.3,0.3c-0.1,0.1-0.2,0.2-0.2,0.3c0.2,0.1,0.5,0.1,0.7,0.1c0.3,0,0.4-0.1,0.6-0.2
		C170.7,37.4,170.8,37.4,170.9,37.1z"/>
	<path fill="#FFFFFF" fill-rule="evenodd" d="M172.6,37.1l-1.2-0.4c-0.3-0.1-0.7-0.6-0.8-0.8l0,0l0,0c0,0,0,0,0,0c-0.1-0.1-0.2-0.3-0.2-0.5l0.1,0.5
		c0.1,0.3,0.3,0.6,0.4,0.7c0,0,0.2,0.2,0.3,0.3c0.3,0.3,0.3,0.3,0.7,0.5c0.1,0,0.1,0.1,0.2,0.1h0.1l0.4,0.2v0l0.2,0.1
		c0,0.3-0.1,0.9-0.3,1.2l0,0.1l-0.4,0.9l-1.3,0.2l3.5,0.1l-0.9-0.3l0.3-1.5v0c0.1-1,0-1.2-0.3-2.3c0.2-0.2,0.1-0.1,0.5-0.4
		c0.2-0.2,0.3-0.3,0.4-0.6c0.3-0.4,0.4-1,0.3-1.6c0,0,0-0.1,0-0.2c0,0,0,0,0-0.1c0-0.1,0,0,0-0.1l-0.1,1c-0.1,0.2-0.3,0.6-0.4,0.7
		c-0.1,0.2-0.6,0.6-0.8,0.6l-0.8-1.3c-0.1-0.1-0.6-0.7-0.8-0.8c-0.1-0.1-0.2-0.2-0.3-0.2l0.2,0.2C172.1,34.4,172.7,35.8,172.6,37.1z
		"/>
	<path fill="#FFFFFF" fill-rule="evenodd" d="M146.9,29.4c1,0.3,1.3,0.3,2.2,0.2c2.8-1.2,0-4.2-2.5-4.5C143.7,24.8,143,27.7,146.9,29.4z"/>
	<path fill="#FFFFFF" fill-rule="evenodd" d="M172.3,50.2c-0.6-2.1-0.9-3.2-2-5.3c-0.7-1.3-2-3.5-2.8-4.4c0.3,0.7,0.6,1.3,0.9,2
		c0.1,0.3,0.9,1.9,0.8,2.1c0.4,0.6,0.5,1.2,0.7,1.8c0.5,1.4,1,3.8,0.5,4.5c-0.7-0.1-2-1-2.6-1c0.2,1.1,0.1,2.1,0,3.1
		c-0.2,1.1-0.4,1.8-0.7,2.8c0.2,0.3,2.8,1.3,3.3,1.4c0.2,1-1.5,3.8-2.2,5.1c-1.3-1.3-3.2-2-5.2-2c-4.1,0-7.5,3.3-7.5,7.3
		c0,0.6,0.1,1.1,0.2,1.6c-0.1,0-0.1,0-0.2-0.1c-3.4-0.4-12.4-4.3-13.6-7.2c0,0,0.1-0.1,0.2-0.2c0,0,0,0,0,0c0.1,0,0.1,0,0.2,0
		c0.1,0,0.3,0.3,0.4,0.4c0,0,0.1,0.1,0.1,0.1c0.1,0,0.1,0,0.2,0c0.1,0,0.2,0.1,0.3,0.1c0.1-0.1,0.3-0.3,0.4-0.1c0,0.1,0,0,0.1,0.1
		c0.1,0.1,0.1,0.2,0.1,0.4c0.2,0.1,0.1,0,0.2,0.1c0.1,0.1,0,0,0.1,0.1c0.1,0,0,0,0.1,0c0.1,0.1,0,0.1,0.2,0.2l0.2,0.1
		c0,0,0.1,0,0.1,0c0.1-0.2,0.1-0.2,0.3-0.2c0.2,0,0.2-0.1,0.4,0c0.2,0.1-0.1,0.6,0.1,0.8c0.1,0.1,0.1,0.2,0.1,0.4
		c0,0.2,0,0.2,0.1,0.4c0.3,0,0.3,0.1,0.4,0.2c0.1,0,0.2-0.1,0.3-0.2c0.3-0.2,0.4-0.2,0.7-0.1c0.2,0.1,0.2,0,0.4,0
		c0.1,0.1,0,0.1,0.1,0.2c0.1,0.2,0.3,0,0.4,0.3c0.1,0,0.1,0,0.2,0c0.1,0.1,0.1,0.1,0,0.2c0,0,0,0,0,0l0.1,0.1c0.1,0.2,0,0.1,0.2,0.3
		c0,0.1,0,0.1,0.1,0.1c0.2,0,0.2,0,0.3,0.1c0.2,0.2,0.1,0.1,0.3,0.1c0.1,0.1,0,0.1,0.1,0.1c0,0,0.2,0.1,0.2,0.1
		c0.1,0.1,0.3,0,0.3,0.3l-0.2,0.1c0,0.1,0,0.1,0,0.1c0.1,0.2,0.1,0.2,0.3,0.2c0-0.1,0.1-0.2,0.1-0.2c0.1,0,0.2,0,0.2-0.1l0.2-0.5
		c0.1-0.1,0-0.2,0.2-0.2c0.3-0.1,0.4,0.3,0.8,0.1c0-0.2,0-0.5,0.1-0.6c0.1-0.1,0.2,0,0.5-0.2c0.2-0.2,0.3,0,0.4-0.3
		c0.2-0.3,0.3-0.2,0.4-0.1c0,0,0.1-0.1,0.2-0.1l0.1,0c0.1,0,0-0.1,0-0.2c0-0.1,0-0.1,0-0.2c0-0.1-0.1-0.1-0.1-0.3
		c0.2-0.1,0.2-0.2,0.4-0.1c0.1,0,0.2,0,0.2,0.1c0.1,0.1,0,0.2,0.1,0.2c0.1,0,0,0,0-0.2c0-0.1,0-0.1,0-0.2c0-0.1-0.2-0.1-0.1-0.3
		c0-0.1,0.2-0.2,0.3-0.1c0.3,0.1,0.1,0,0.3,0.1c0.2-0.1,0.1,0,0.4,0c0-0.1,0-0.1,0.1-0.2c0.1-0.1,0.2-0.1,0.3-0.5
		c0.1-0.3-0.3-0.1-0.5-0.5c-0.2,0-0.2,0-0.3-0.1l0,0c0,0,0,0-0.1-0.1c-0.6,0-0.3,0-0.6-0.1c-0.1,0.1-0.2,0.1-0.3,0
		c-0.3-0.3-0.2-0.1-0.4-0.2c-0.1,0-0.1,0-0.1-0.1c-0.1,0-0.1,0.1-0.3,0l-0.3,0.1c-0.1,0-0.2,0.1-0.3,0.1c-0.1,0-0.1,0-0.3,0
		c-0.1,0-0.2-0.1-0.3-0.1c0-0.2,0-0.5-0.1-0.6c-0.1-0.1-1-0.9-1-0.9c-0.1,0-0.2,0.2-0.3,0.2c-0.1,0-0.1,0-0.2,0c-0.1,0,0,0-0.2,0
		c0,0-0.1-0.2-0.2-0.2c-0.1-0.1-0.1,0-0.3,0c-0.1,0-0.4-0.1-0.5-0.2c-0.2-0.2-0.2-0.2-0.4-0.3c-0.2,0-0.7-0.4-0.8-0.5
		c-0.1-0.1-0.1-0.1-0.3-0.1c-0.2,0-0.4-0.2-0.8,0c-0.2,0.1-0.1,0.3-0.4,0.3c-0.1-0.1,0-0.1-0.2-0.1c-0.3-0.1-0.2-0.1-0.4-0.2
		c-0.1,0-0.2-0.1-0.4-0.1c0-0.5,0.1-0.4,0.2-0.8c-0.2,0-0.3-0.1-0.5-0.1c-0.2,0-0.3,0-0.4-0.1c0,0,0,0,0,0c-0.1-0.1-0.2-0.1-0.3-0.2
		c0.1,0,0.2,0,0.3,0c0.1,0,0,0,0.1,0c0.1,0,0.3,0.1,0.4,0.1c0.2,0,0.1,0,0.2,0c0.3,0.1,0.2,0,0.5,0.2c0,0.2-0.3,0.5-0.2,0.7l0,0.1
		c0.2,0.1,0.2,0.1,0.4,0.1c0.1,0.1,0.1,0,0.2,0.1c0.1,0,0.1,0,0.2,0.1c0.1-0.1,0.1-0.1,0.2-0.2c0.3-0.1,0.5-0.2,0.8-0.1
		c0.2,0,0.4,0,0.5,0.1c0.1,0,0,0,0.1,0.1c0.1,0,0,0,0.1,0.1c0.2,0.2,0.2,0.1,0.4,0.3c0.2,0.1,0.2,0,0.5,0.2c0,0,0.1,0,0.1,0.1
		c0.2,0.1,0.2,0.1,0.3,0.2c0.2,0,0.1,0.1,0.2,0.1c0.1,0,0.2-0.1,0.3,0c0,0,0.1,0.1,0.2,0.2c0.1,0,0.4,0,0.4,0
		c0.1-0.1,0.2-0.2,0.3-0.1c0.1,0,0.6,0.5,0.8,0.7c0.6,0.5,0.4,0.4,0.5,1c0.1,0,0.1,0,0.2,0c0.1,0,0.1,0,0.1,0c0.1,0,0.2-0.1,0.3-0.1
		c0.2,0,0.1-0.1,0.2-0.2c0.1,0,0.2,0,0.3,0c0,0,0.1-0.1,0.2,0c0.2,0.1,0.1,0,0.2,0c0.1,0,0.1,0.1,0.2,0.1c0.1,0,0.1,0,0.2,0.2
		c0.3-0.1,0.3-0.1,0.4,0.1l0.4,0c0.1,0,0.1,0.2,0.3,0.2c0.3,0.1,0,0.2,0.3,0.2c-0.1-0.1-0.1-0.1,0-0.3c0.2-0.1,0.1,0,0.3,0
		c0.1,0,0.1-0.1,0.2-0.2c0.1-0.1,0.2-0.1,0.3-0.1c0.2-0.1,0.1,0,0.3,0l0-0.1c-0.1,0-0.1,0-0.2,0c-0.2,0.1-0.1-0.1-0.3-0.2
		c-0.1-0.1-0.1-0.1-0.1-0.2l-0.3-1.1c-0.1-0.3-0.2-0.1-0.4-0.3c0-0.1,0-0.3,0-0.4c0-0.2,0-0.1,0-0.3c0-0.3,0.3-0.2,0.4-0.3
		c0-0.1,0-0.1-0.1-0.1c-0.2,0.1-0.2,0.1-0.4,0c-0.1-0.3,0.2-0.2,0-0.5c-0.1-0.2,0-0.5,0.2-0.3c0-0.1,0-0.1,0-0.1
		c0-0.1,0.1-0.1,0.1-0.1c0,0,0,0,0-0.1c0-0.1,0,0,0-0.1c-0.1-0.1-0.2-0.2-0.1-0.4c0.2-0.2,0.3-0.1,0.4,0c0-0.2-0.2-0.3-0.2-0.5
		c0.1-0.1,0.1-0.1,0.2,0c-0.1-0.2-0.2-0.4,0-0.6l0.2,0c0,0,0,0,0,0c0,0,0,0,0,0c0.1-0.1,0.1-0.3,0.1-0.5c0.1-0.1,0.1-0.2,0.1-0.3
		c0-0.2,0.1-0.4,0.2-0.5l0,0c0.1,0,0,0,0.1,0.1c0-0.1,0-0.1,0-0.2c0-0.1,0.1-0.1,0.1-0.2c0.1,0,0.1,0,0.3,0.1c0,0,0-0.1,0.1-0.2
		l0.1,0c0-0.2,0.1-0.3,0.2-0.4c0.1-0.2,0.1-0.2,0.3-0.3c0-0.1,0-0.2,0-0.3c0-0.1,0,0,0.1-0.1c0.3-0.5,0.4-0.1,0.5-0.1
		c0-0.1-0.1-0.5-0.1-0.6c0.1-0.1,0.2,0,0.2-0.2c0-0.2-0.1-0.1,0.1-0.3c0.2,0,0.5,0,0.7,0c0.5-0.1,0.5,0.1,0.6,0c0,0,0,0,0,0
		l-0.1-0.1c0,0,0-0.2,0-0.2c0-0.1,0.1-0.1,0-0.2c0-0.1,0-0.1,0-0.2c0.1-0.2,0.3,0,0.6-0.1c0,0-0.1-0.2-0.1-0.2c0-0.1,0-0.2,0.1-0.2
		c0.2-0.2,0-0.2,0.1-0.4c-0.1-0.1-0.1,0-0.2-0.2c-0.1-0.2,0-0.2-0.2-0.3c-0.1-0.1,0,0-0.1-0.1c-0.1-0.2-0.2-0.3-0.1-0.6
		c0.1-0.3,0.1-0.2,0.5-0.2c0.4,0,0.1,0.2,0.5,0c0-0.1,0-0.2,0-0.3c0-0.2,0.1,0,0-0.2c-0.1-0.2,0.1-0.3,0.2-0.4c0-0.1,0-0.2-0.1-0.4
		c-0.1-0.6-0.3-0.2-0.5-0.5c-0.1-0.2,0-0.2,0-0.4c-0.1-0.1-0.2-0.2-0.1-0.4c0-0.2-0.1-0.1,0-0.4c-0.2-0.2-0.2,0-0.4-0.1
		c-0.1,0-0.1,0-0.1-0.1l0-0.1c0,0,0,0,0-0.1c-0.1-0.1-0.1-0.2-0.1-0.4c-0.1-0.2-0.1,0-0.1-0.4c-0.3,0.1-0.4-0.1-0.5-0.3
		c0,0.1,0,0.1-0.2,0.2c-0.3,0-0.2-0.3-0.3-0.4c-0.4-0.3-0.4,0.1-0.7-0.2c-0.1-0.1-0.4-0.1-0.5-0.1c-0.2-0.1-0.1-0.2-0.2-0.3
		c-0.1-0.2-0.3,0-0.4,0c-0.1,0-0.1,0-0.2,0.1c0,0-0.1,0-0.1,0.1c-0.1,0-0.1,0-0.2,0.1l0,0.3c-0.1,0.1-0.3,0.1-0.5,0.1
		c0,0.2,0.1,0.2,0,0.4c-0.2,0.3-0.2,0.2-0.4,0.3c-0.1,0-0.1,0.1-0.2,0.1c-0.2,0.1-0.2-0.1-0.3-0.1c0,0.3,0,0.2-0.1,0.6
		c-0.1,0.4-0.2,0.2-0.3,0.3c0,0,0,0-0.1,0.1c-0.1,0-0.1,0-0.2,0.1l-0.1,0.1c-0.1,0-0.6,0-0.6-0.3c0-0.1,0-0.1,0-0.3
		c0.2-0.1,0.1,0,0.2-0.3c-0.4-0.2-0.3,0-0.4-0.4c-0.2-0.5-0.1-0.3-0.4-0.4c-0.1-0.2,0-0.1-0.2-0.1c-0.1-0.1,0-0.1-0.2-0.2
		c-0.1,0-0.1,0-0.2,0.1c-0.1,0-0.1,0-0.2,0c-0.1,0.2-0.1,0.1-0.2,0.2c-0.2,0.2-0.1,0.3-0.4,0.4c-0.4,0.1-0.2,0.2-0.4,0.4
		c-0.1,0.1-0.1,0.1-0.1,0.2c0,0.1-0.2,0.1-0.2,0.2c-0.1,0.1-0.1,0-0.3,0c-0.2,0-0.1,0-0.3,0.1c-0.1,0-0.2,0-0.3,0
		c-0.2,0.1-0.1,0.1-0.2,0.2c0,0,0,0-0.1,0.1c0,0.1,0,0.1-0.1,0.1c-0.2,0.1-0.2,0.1-0.3,0.2c-0.1,0,0,0-0.1,0c-0.1,0,0,0-0.1,0.1
		c-0.2,0-0.1,0-0.3,0.1c-0.1,0.1-0.1,0.1-0.3,0.1c0,0,0-0.1-0.1-0.1c-0.2-0.2-0.3-0.1-0.3-0.4c-0.2,0-0.1,0-0.3-0.1
		c-0.1,0-0.1,0.1-0.2,0.1c-0.1,0,0,0-0.1,0c-0.2,0-0.1,0-0.2-0.1c0,0-0.1,0-0.1-0.1c-0.1-0.1-0.1-0.2-0.2-0.2
		c-0.1,0-0.1,0.1-0.2,0.1c-0.1,0.1,0,0-0.1,0.1c-0.1,0.2-0.6,0.2-0.5,0.5l0.1,0.4c0.1,0.1,0.2,0.1,0.3,0.2c0.1,0.1,0,0.2,0,0.3
		c0,0.1,0.1,0.1,0,0.3c-0.1,0.1-0.1,0.2-0.2,0.2c0,0.2-0.1,0.2-0.2,0.4s-0.1,0.2-0.2,0.4c0,0.1-0.1,0.1-0.3,0.1
		c-0.1,0.1-0.1,0.1-0.1,0.3c0.1,0,0.1,0,0.1,0.1c0,0,0.1,0.1,0.1,0.1c0.1,0.2,0.3,0.6,0,0.8l-0.1,0.1c0.1,0.1,0.1,0.1,0.2,0.3
		c0.1,0.3,0.3,0.8,0.3,1c0.1,0.4,0.3,0.7,0.4,1c0,0.2-0.1,0.2-0.2,0.2c-0.1,0.2-0.1,0.3-0.2,0.4c-0.1,0.2,0,0.1-0.2,0.2
		c-0.1,0.1-0.1,0.1-0.2,0.2c-0.1,0-0.1,0-0.2,0.1c-0.3,0.1-0.3-0.1-0.7,0.1c0,0.1,0.1,0.3,0.1,0.5c0,0.3,0,0.2,0.2,0.4
		c0.4,0.5,0,0.6,0,0.7c0,0.1,0,0,0.1,0.1c0.3,0.2,0.3,0.1,0.3,0.6c0.1,0.1,0.1,0,0.2,0.1c0.1,0.1,0.1,0,0.3,0.1c-0.1,0.2,0,0,0,0.2
		c-0.1,0.1-0.1,0-0.2,0.1c-0.1,0-0.1,0.1-0.2,0.1c-0.6,0.2-0.2,0.3-0.6,0.6c-0.1,0.1-0.3,0.1-0.4,0.2c-0.1,0.1-0.1,0.1-0.2,0.1
		c-0.1,0-0.5,0.2-0.5,0.3c0,0,0,0.1-0.1,0.1c-0.4-0.4-0.9-0.8-1.3-1.2c-0.6-0.6-1-1.1-1.5-1.7c-0.5-0.6-0.9-1.3-1.4-1.8
		c-1.3,0.8-2.6,1.7-3.9,2.5c-1-0.8-2.2-3.8-3.1-6c4.2-0.7,7.4-4.3,7.4-8.6c0-2.9-1.4-5.4-3.6-7c2.4-1.1,6.8-2.7,9.1-2
		c0.7,0.2,0.6,1.3,1,2.2c1.1-0.1,2-0.3,3.2-0.2c0.8,0,1.3,0.1,1.9,0.2c0,0,0,0,0.1,0c0,0,0,0,0,0c0.3,0.3,0,0.3-0.1,0.7
		c0,0.2-0.1,0.3-0.2,0.5c-0.1,0.3,0.1,0.3-0.3,0.5c0,0,0,0,0,0c-0.1,0.1-0.2,0.3-0.3,0.4c-0.1,0.1-0.1,0-0.2,0.1
		c0.1,0.1,0,0.2,0.1,0.3c0.1,0.2,0,0.2,0.2,0.3c0.2,0.1,0.1,0.1,0.1,0.3c0,0.2-0.1,0.2-0.2,0.3c0,0.1,0,0.1,0,0.2c0,0.1,0,0.1,0,0.2
		c0,0.2,0,0.3-0.1,0.4c0,0,0,0,0,0c0,0,0,0,0,0c0,0.1,0,0,0,0.1c0,0.1,0,0.1-0.1,0.2c-0.1,0.1,0,0.2-0.1,0.3c-0.2,0.2-0.5,0-0.7-0.1
		c-0.1,0.2,0,0.2-0.2,0.2c-0.2,0-0.3,0.2-0.4,0.3l-0.1,0c-0.2,0.2-0.1,0.1-0.4,0c0,0.4-0.3,0.5-0.4,0.8c0.1,0.1,0.2,0,0.3,0.3
		c0,0.2,0,0.3-0.2,0.4c-0.2,0-0.6-0.1-0.7-0.2c-0.1-0.1,0,0-0.1-0.1c-0.1,0.1-0.2,0.3-0.3,0.4c-0.2,0-0.4-0.1-0.4-0.3
		c-0.2,0-0.5-0.1-0.6-0.1c-0.1,0.1-0.1,0.1-0.2,0.2c-0.1,0.1-0.2,0-0.3,0.1c-0.6,0.2-0.6,0.3-0.7,0.8c-0.1,0.2-0.1,0.4-0.2,0.6
		c-0.4,1.4-0.2,1.5-0.8,1.2c-0.2-0.1-0.4-0.2-0.6-0.3c0,0.3-0.1,0.4-0.2,0.7c0,0.3,0,0.5-0.2,0.7c-0.1,0.1-0.1,0.2-0.2,0.2
		s-0.2,0.1-0.3,0.2c-0.1,0.1-0.3,0.3-0.4,0.5c0.4,0.2,0.8,0.3,1.2,0.6c0,0,0.1,0.1,0.2,0.1c0.1,0.1,0.1,0,0.3,0
		c0.1,0.2-0.1,0.6,0,0.8c0.2,0.3,0.2,0,0.4,0.5c0.1,0.1,0.1,0.2,0.1,0.3c0,0.1,0,0.1,0.1,0.2c0,0.1,0,0.1,0.1,0.2
		c0.2,0.3-0.1,0.3-0.1,0.7c0.1,0.1,0.1,0.1,0.1,0.2c0.1,0,0.1,0,0.2,0c0,0,0,0,0.1-0.1c0.2-0.2,0.1-0.7,0.4-0.5
		c0.1-0.1,0.1-0.1,0.2-0.2c0.1-0.1,0,0,0.1-0.1c0-0.1,0-0.1,0.1-0.1c0.1-0.2,0.1-0.1,0.1-0.3c0-0.1,0.1-0.1,0.2-0.2
		c-0.1-0.2-0.1-0.3,0-0.4c-0.3-0.2-0.2,0-0.3-0.3c0-0.1-0.1-0.1-0.1-0.2c-0.1-0.3,0.1-0.5,0.3-0.6c0.3-0.1,0.2-0.2,0.4-0.3
		c0.1-0.1,0.3-0.2,0.5-0.1c0.1,0.1,0.1,0.2,0.2,0.2c0.2,0.2,0.3,0.1,0.5,0c0.1,0,0.2,0,0.3,0.1c0.1,0,0.2,0,0.3,0
		c0.1,0,0.1,0.2,0.1,0.3l0.3,0.2c0-0.1,0-0.1,0.1-0.1c0.1-0.1,0.1,0,0.2,0c0.1,0,0,0,0.1-0.1c0.1,0,0.2,0,0.4-0.1
		c0.3-0.2,0.3-0.4,0.8-0.4c0.2,0,0.2-0.1,0.4-0.1c0.2,0,0.3,0.1,0.3-0.1c0.1-0.2,0-0.2,0.2-0.3c0-0.3,0-0.2,0.2-0.3
		c0.1,0,0.3-0.1,0.3-0.2c0-0.1,0-0.1,0.2-0.3c0.1-0.1,0.1,0,0.1-0.1c0.1-0.2,0.1-0.1,0.3-0.2l0.5-0.4c0,0,0,0,0,0l0-0.1
		c0.1-0.1,0.3-0.3,0.4-0.2c0.1-0.2,0.1-0.1,0.3-0.2l0,0c0.1-0.1,0-0.1,0.1-0.2l0.2-0.2c0.1-0.1,0.1-0.1,0.2-0.3
		c0.1-0.2,0.1-0.2,0.1-0.5c-0.2-0.1-0.4-0.1-0.3-0.3c0.1-0.1,0.1,0,0.1-0.2c0-0.1-0.3-0.3-0.2-0.5c0-0.2,0.3-0.2,0.4-0.3l0,0
		c0.1-0.2,0.1-0.6,0.2-0.7c0-0.1,0.1-0.1,0.1-0.2c0.1-0.6-0.1-0.6-0.3-0.6c-0.1,0-0.1-0.1-0.2-0.1c-0.4-0.1-0.1-0.1-0.3-0.3
		c-0.1-0.2-0.1-0.1-0.1-0.5c0-0.2,0.1-0.1,0-0.2c0,0-0.1-0.1-0.1-0.2c0-0.1,0-0.2,0-0.3c0-0.2-0.1-0.1-0.1-0.2
		c0-0.2,0.1-0.2,0.1-0.3c0,0,0-0.2-0.1-0.3c0-0.1,0-0.2,0-0.3c-0.1-0.2,0-0.2,0-0.3c0-0.1-0.1-0.1-0.1-0.3c0-0.1,0-0.2,0-0.3
		c0-0.1,0.1-0.4,0-0.5c0-0.1-0.3-0.1-0.5-0.4c0,0,0-0.1-0.1-0.1c-0.1-0.2-0.3-0.1-0.3-0.5c0-0.3,0-0.2,0.1-0.4
		c-0.1-0.1-0.2-0.2-0.1-0.3c0.1-0.1,0.1-0.2,0.1-0.4c0-0.1,0.1-0.1,0.1-0.2l0-0.4c0-0.1,0,0,0-0.1c0,0,0,0,0-0.1c-0.1,0-0.1,0-0.3,0
		c0.1,0.4,0,0.3-0.3,0.4c0.1-0.2,0.3-0.3,0.3-0.4c0,0,0,0,0,0c-0.1,0-0.1,0-0.1,0c0,0,0,0,0.1,0c0.1,0,0.1,0,0.1,0
		c0.1,0,0.3,0,0.5,0.1c0,0,0,0,0,0c0,0,0,0,0,0c0,0.1,0,0.1,0,0.2c0,0.1,0,0-0.1,0.2c0,0.1,0.1,0.1,0,0.3c0,0.1,0,0.1-0.1,0.2
		c0,0.1,0,0.2-0.1,0.2c0,0.1-0.1,0.1-0.1,0.2c0.1,0.2,0.2,0.1,0,0.3c-0.1,0.1,0,0,0,0.2c0,0.1-0.1,0-0.1,0.2c0,0.1,0.1,0.1,0.2,0.2
		c0.2,0.2,0,0.1,0.3,0.3c0.1,0.1,0,0,0.1,0.1c0.1,0.1,0.2,0,0.2,0.2c0.1,0.2,0.1,0.5,0,0.7c0,0.1-0.1,0.2,0,0.3c0,0.2,0,0.1,0,0.3
		c-0.1,0.2,0.1,0.5,0.1,0.7c0,0.2,0,0.2,0,0.3c0.1,0.3,0,0.3,0.2,0.6c0.1,0.2,0,0.2,0,0.3c0,0.3,0.1,0.3,0.2,0.6
		c0.1,0,0.1,0,0.2,0.1c0.1,0,0.2,0,0.3,0c0.2,0,0.1,0.1,0.2,0.2c0.1,0,0.1,0,0.1,0.1c0.1,0.1,0,0.2-0.1,0.3c0,0.3,0.1,0.3-0.1,0.5
		c-0.1,0.1-0.2,0.3-0.2,0.6c0.2,0.1,0.1,0.1,0.3,0c0.3-0.2,0.4,0.1,0.6,0.1c0.4,0,0.8-0.4,1.3,0.1l0.1,0.1c0.1,0.1,0,0.1,0.2,0.1
		c0.3,0,0,0.2,0.3,0.4c0.1,0,0.1,0,0.1,0.1l0.3,0.1c0.3,0.1,0.2,0.1,0.4,0.3l0.1,0c0-0.1,0.4-0.4,0.5-0.4c0.2,0,0.1-0.1,0.2-0.2
		c0.1-0.1,0,0,0.1-0.1c0-0.1,0-0.1,0.1-0.2c0.1-0.1,0.2-0.2,0.2-0.3l-0.3-0.3c0-0.2,0.1-0.3-0.1-0.3c-0.1-0.1,0,0-0.1-0.1
		c0-0.1,0-0.3,0-0.3c0.1-0.1,0.1-0.1,0.2-0.2c0.1-0.2-0.1-0.1,0.1-0.7c0-0.2,0.1-0.2,0.2-0.3c-0.1-0.1-0.1,0-0.1-0.2
		c0,0,0-0.2,0.1-0.2c0-0.1,0-0.1,0.1-0.2c0.1-0.1,0.2-0.4,0.3-0.5c0.1-0.2,0.2,0,0.4,0c0.1-0.1,0-0.1,0.2-0.2
		c0.1-0.1,0.2-0.1,0.2-0.2c0-0.1,0-0.1,0-0.1c0-0.1,0.1-0.1,0.1-0.1c0-0.1,0-0.2,0-0.3c0.1-0.1,0.1-0.1,0.2-0.2
		c0.1-0.2,0.3-0.2,0.3-0.5c0-0.1,0-0.2,0.1-0.2h0l0,0l0,0c0,0,0-0.1,0-0.1l0-0.2c0-0.2,0.1-0.3,0.2-0.4c0.2-0.2-0.1-0.3,0.5-0.4
		c0.2,0,0.4-0.1,0.5-0.1c-0.1-0.3-0.6-0.2-0.8-0.4c-0.1-0.1-0.2-0.3-0.3-0.3c-0.1,0-0.1,0-0.2,0.1c-0.1-0.3-0.2-0.6-0.3-0.7
		c0,0,0,0,0,0h0c-0.5,0-0.9-0.1-1.2-0.1l0-0.3l-0.2,0c-0.2,0.2-0.2,0.2-0.4,0.3c-0.1,0-0.1,0.1-0.3,0c-0.3-0.1-0.1-0.3,0-0.4
		c0.1-0.2,0.1,0,0.2-0.1c0,0,0-0.3,0-0.3c0-0.1,0,0,0-0.1c0.1-0.1,0.1-0.1,0.2-0.3c-0.1-0.1-0.3-0.2-0.4-0.3c-0.1,0.2,0,0.2-0.2,0.2
		c-0.3,0.1-0.6,0-0.8,0.1c-0.1,0-0.1,0.1-0.2,0c-0.1-0.1,0-0.1-0.1-0.2c0,0-0.2,0-0.3,0c-0.1,0-0.2-0.2-0.2-0.2
		c0-0.1,0.1-0.1,0.2-0.2c0-0.1,0-0.1-0.1-0.2c-0.1-0.1-0.2-0.3-0.2-0.5c0-0.2,0-0.2,0.1-0.3c-0.1,0-0.3,0.1-0.4,0.2
		c-0.1,0.2,0,0.1,0,0.2l-0.1,0.2c-0.1,0.4-0.4,0.2-0.8,0.2c0,0,0,0,0-0.1l-0.2-0.2c-0.1,0-0.3,0-0.4,0c-0.1,0.1-0.1,0.1-0.2,0.2
		c-0.1,0-0.1,0-0.3,0c-0.1,0.2,0.1,0.4-0.3,0.4c-0.6,0-0.5-0.1-1,0.2c-0.9-0.4-3-0.9-3.5-1c-3.9-0.9-10.2,0.1-14.3,3
		c-0.9,0.6-1.7,1.3-2.3,2.1c0.8-0.4,1.6-0.8,2.4-1.1c2.2,1.4,3.6,3.8,3.6,6.6c0,4-3,7.2-6.9,7.8c-0.1-0.3-0.2-0.5-0.3-0.7
		c0,0.2-0.1,0.5-0.1,0.8c-0.3,0-0.6,0-0.9,0c-4.5,0-8.1-3.5-8.1-7.9c0-4.4,3.6-7.9,8.1-7.9c1.4,0,2.7,0.3,3.8,0.9
		c0.2-0.2,0.5-0.4,0.7-0.6c-1.3-0.8-2.9-1.2-4.5-1.2c-5,0-9,3.9-9,8.7s4,8.7,9,8.7c0.3,0,0.6,0,0.9,0c0.1,0.6,0.2,1.3,0.3,1.9
		c0.5,3.5,0.9,4.3,2.6,7.3c3.3,5.6,10.7,9.4,16.6,10.6c1.2,0.3,3.6,0.7,5.3,0.7c1,2.9,3.8,5,7.1,5c4.1,0,7.5-3.3,7.5-7.3
		c0-2-0.8-3.8-2.1-5.1c0.7-0.5,1.3-1.1,1.8-1.7c1.6-2.1,1.7-2.7,2.3-5.3c0-0.2,0-0.1,0.1-0.2c0-0.8,0.1-1.5,0.1-2.4
		C172.6,51.8,172.5,51.2,172.3,50.2z M160.2,33.1l0.1-0.2h0l0.2,0.4l-0.2,0c0,0-0.1,0-0.1,0V33.1z M160.2,33.4L160.2,33.4
		C160.3,33.5,160.3,33.5,160.2,33.4c0,0.1,0,0.1,0,0.2V33.4z M159.6,33.6L159.6,33.6L159.6,33.6L159.6,33.6z M159.6,33.6L159.6,33.6
		L159.6,33.6L159.6,33.6L159.6,33.6z M159.7,33.6L159.7,33.6C159.7,33.6,159.7,33.6,159.7,33.6C159.7,33.6,159.7,33.6,159.7,33.6z
		 M159.8,33.6C159.8,33.6,159.8,33.7,159.8,33.6l-0.1,0C159.7,33.6,159.8,33.6,159.8,33.6L159.8,33.6L159.8,33.6z M159.7,33.6
		C159.7,33.6,159.8,33.6,159.7,33.6L159.7,33.6L159.7,33.6C159.8,33.6,159.7,33.6,159.7,33.6z M160.1,33.6
		C160.1,33.6,160.1,33.6,160.1,33.6c-0.1,0-0.2,0-0.2,0c0,0,0,0,0,0c0,0,0,0,0,0v0c0,0,0,0-0.1,0c-0.1,0-0.2,0-0.3,0h0l-0.1-0.1
		l0.6-0.1l0.1,0V33.6z M160.1,32.8l0,0.3l-0.3-0.1C159.8,33.1,159.9,33,160.1,32.8z M159.6,33.2l0.1,0v0c0,0,0.1,0.1,0.4,0.2
		l-0.8,0.1l-0.1,0c-0.1-0.1-0.1-0.1-0.1-0.2C159.2,33.2,159.4,33.2,159.6,33.2z M169.8,67.6c0,3.6-3,6.6-6.8,6.6
		c-2.9,0-5.4-1.8-6.4-4.3c0,0,0,0,0,0c0.2,0,0.4,0,0.6-0.1c-0.2-0.1-0.5-0.2-0.7-0.3c-0.2-0.6-0.3-1.3-0.3-2c0-3.6,3-6.6,6.8-6.6
		S169.8,63.9,169.8,67.6z"/>
	<path fill="#FFFFFF" fill-rule="evenodd" d="M173.7,53.9c-2.7,1.4,1.1,7.1,3.7,5.3c0.8-0.5,1.1-2.1,0-3.7C176.5,54.3,175,53.3,173.7,53.9z"/>
	<path fill="#FFFFFF" fill-rule="evenodd" d="M130.1,59.8c-6.2,2.3-2.5,10.5,3.4,8c2.1-0.9,3.6-3.3,2.5-5.8C135.2,60.3,132.7,58.9,130.1,59.8z"/>
	<path fill="#FFFFFF" fill-rule="evenodd" d="M130.5,35.8c0.4,0,0.8-0.3,0.8-0.8c0-0.4-0.3-0.8-0.8-0.8s-0.8,0.3-0.8,0.8
		C129.8,35.4,130.1,35.8,130.5,35.8z"/>
	<path fill="#FFFFFF" fill-rule="evenodd" d="M131.8,36.1h-2.5c-0.2,0-0.3,0.1-0.4,0.3l-0.3,1.4l-0.2,0.7h-2.8c-0.2,0-0.4,0.2-0.5,0.4l-0.6,2.8
		c-0.1,0.3,0.1,0.5,0.4,0.6c0,0,0.1,0,0.1,0c0.2,0,0.4-0.2,0.5-0.4l0.2-0.9v1.9h2.2l0.4-1.8c0-0.3,0.3-0.5,0.5-0.5l0.1,0h0.7
		l-0.1-0.4h0.2c-0.2-0.2-0.3-0.5-0.3-0.8c0-0.6,0.5-1.2,1.2-1.2c0.7,0,1.2,0.5,1.2,1.2c0,0.3-0.1,0.6-0.3,0.8h0.2l-0.1,0.4h0.8
		c0.3,0.1,0.5,0.3,0.5,0.5l0.4,1.8h2.2v-1.9l0.2,1c0.1,0.3,0.3,0.4,0.6,0.4c0.2,0,0.4-0.2,0.4-0.5c0,0,0-0.1,0-0.1l-0.6-2.8
		c-0.1-0.2-0.3-0.4-0.5-0.4h-2.8l-0.5-2.1C132.2,36.2,132,36.1,131.8,36.1z M129.3,39.5l-0.1-0.6c0,0,0,0,0,0l0.2-0.7V39.5z
		 M131.9,38.9l-0.2,0.7v-1.5l0.1,0.3L131.9,38.9C131.9,38.8,131.9,38.9,131.9,38.9z"/>
	<path fill="#FFFFFF" fill-rule="evenodd" d="M133.9,38.1c0.5,0,0.9-0.4,0.9-0.9c0-0.5-0.4-0.9-0.9-0.9c-0.5,0-1,0.4-1,0.9
		C133,37.7,133.4,38.1,133.9,38.1z"/>
	<path fill="#FFFFFF" fill-rule="evenodd" d="M127.1,38.1c0.5,0,1-0.4,1-0.9c0-0.5-0.4-0.9-1-0.9c-0.5,0-1,0.4-1,0.9
		C126.2,37.7,126.6,38.1,127.1,38.1z"/>
	<path fill="#FFFFFF" fill-rule="evenodd" d="M133,43.1l-0.5-2.1c-0.1-0.2-0.3-0.4-0.5-0.4v0h-3v0c-0.2,0-0.5,0.1-0.5,0.4l-0.5,2.1l-0.2,0.7
		c-0.1,0.3,0.1,0.5,0.4,0.6c0,0,0.1,0,0.1,0c0.2,0,0.4-0.1,0.5-0.4l0.1-0.5l0.1-0.3v2.4h3v-2.5l0.1,0.5l0.1,0.5
		c0.1,0.3,0.3,0.4,0.6,0.4c0.2-0.1,0.4-0.3,0.4-0.5c0,0,0-0.1,0-0.1L133,43.1z"/>
	<path fill="#FFFFFF" fill-rule="evenodd" d="M131.5,39.4c0-0.5-0.4-0.9-1-0.9c-0.5,0-1,0.4-1,0.9c0,0.5,0.4,0.9,1,0.9
		C131.1,40.3,131.5,39.9,131.5,39.4z"/>
	<path fill="#FFFFFF" fill-rule="evenodd" d="M144.3,40.6C144.2,40.5,144.3,40.6,144.3,40.6l-0.1,0.1l0.3,0.1L144.3,40.6z"/>
	<path fill="#FFFFFF" fill-rule="evenodd" d="M161.3,49.1c0-0.1,0.1-0.1,0.1-0.2c0.1,0,0.1,0,0.2,0c0.2-0.1,0.1-0.2,0.5,0c0,0,0,0,0.1,0
		c0.3-0.4,0-0.5,0.4-0.7c0.4-0.2,0.1-0.2,0.5-0.1L163,48c-0.1-0.2-0.3-0.1-0.3-0.5c-0.2,0-0.2,0-0.3-0.1c-0.2-0.1-0.2,0-0.3-0.1
		c-0.1-0.1,0-0.1-0.3-0.2c-0.1,0-0.2-0.1-0.3-0.1c-0.5-0.1-0.4-0.3-0.6-0.3c-0.2,0-0.1,0-0.3-0.1c-0.1-0.1-0.2-0.1-0.3-0.1
		c0,0.1,0.1,0.1,0.1,0.2c0,0.1-0.1,0.1-0.1,0.2c0.1,0.2,0.1,0.1,0.2,0.2c0,0.2,0,0.2,0,0.3c0.1,0.1,0.2,0.1,0.3,0.1
		c0.1,0.1,0,0.2,0.1,0.3c0.1,0.1,0,0,0.1,0.2c0.1,0.6,0.2,0.4-0.2,0.7c0,0.1,0.1,0.1,0.1,0.2c0,0.1,0,0.1,0,0.2
		c0,0.2,0.1,0.3-0.1,0.4c-0.5,0.3-0.5,0.1-0.6,0.1c-0.1,0-0.2,0-0.3,0c-0.1,0.4-0.1,0.2,0,0.4c0,0,0,0,0,0.1s0,0,0,0
		c0.1,0.1,0.1,0,0.2,0.2c0,0.1,0,0.2,0.1,0.3c0,0,0.1,0,0.1,0.1c0.1,0,0,0,0.1,0.1l0.1-0.2c-0.2-0.3-0.3-0.2-0.3-0.6
		c0.1-0.1,0.1-0.1,0.3-0.1C160.9,49.5,160.7,49.1,161.3,49.1z"/>
	<path fill="#FFFFFF" fill-rule="evenodd" d="M163.9,45.9c0-0.1,0.1,0,0.2-0.3l-0.2,0.1c-0.1,0.1-0.1,0.2-0.3,0.2c-0.1,0-0.2-0.1-0.3-0.1
		c-0.1,0-0.2,0-0.4,0c0,0.3-0.2,0.3-0.4,0.1c-0.1-0.1-0.1-0.1-0.2-0.2c-0.3,0.1-0.1,0-0.3-0.1c-0.1-0.1-0.1,0-0.1-0.1
		c-0.1-0.2-0.2-0.3-0.4-0.3c-0.1-0.1-0.1,0-0.2-0.1l-0.1-0.1c-0.2,0-0.2,0.2-0.4,0.1c-0.2-0.1,0-0.2-0.2-0.3
		c-0.1,0.4-0.2,0.3-0.3,0.5c0,0-0.1,0.1-0.1,0.2c-0.2,0.2-0.3,0-0.5,0.3c0,0.1,0,0.1-0.1,0.1l0,0.2c0.5,0.1,0.4,0.2,0.5,0.3
		c0.2,0,0.1,0,0.3,0.1c0.1,0,0.2,0.1,0.2,0.1c0.1,0,0.2,0,0.3,0.1c0.2,0.1,0.1,0.2,0.5,0.2c0.2,0,0.4,0.1,0.5,0.2
		c0.1,0.1,0.1,0,0.2,0.2c0.3,0,0.3,0.1,0.4,0.2c0.2,0.1,0.2-0.1,0.3,0.2c0.3-0.2,0.2-0.2,0.2-0.3c0-0.1,0.1-0.1,0.1-0.1
		c0.1-0.1,0-0.1,0.2-0.2c0.2-0.1,0-0.1,0.2,0c0-0.1,0-0.1,0-0.2c0-0.2,0.1-0.1,0.1-0.2c0-0.1-0.2-0.2,0-0.3
		C164,46,163.9,46.1,163.9,45.9z"/>
	<path fill="#FFFFFF" fill-rule="evenodd" d="M160.9,34.9c-0.1,0.3,0,0.4-0.2,0.5c-0.2,0.1-0.1,0.3-0.3,0.5c-0.4,0.3-0.2,0.3-0.4,0.4
		c0.1,0.2,0,0.2-0.1,0.4c-0.1,0.1-0.1,0.3-0.2,0.4c-0.1,0.1-0.1,0-0.2,0.1c-0.1,0.1,0,0.3-0.4,0.3h-0.1c-0.1,0-0.3,0.4-0.3,0.5
		l0.2,0l0.3,0.3c0.2,0.2,0.1,0.1,0.4,0.1c0.3,0,0.1,0,0.3-0.1c0,0,0.1,0,0.2-0.1c0.1-0.1,0.1,0,0.2,0c0-0.2,0.2-0.2,0.3-0.4
		c0.2-0.4,0.1-0.2,0.4-0.3c0.1,0,0.2,0,0.3-0.1c0.2,0,0.6-0.3,0.7-0.3c0.2-0.1,0.4,0.1,0.4,0.3c0,0.1,0,0.2,0,0.3
		c-0.1,0.1-0.2,0.1-0.2,0.1c-0.1,0.1,0,0.1-0.2,0.2c-0.1,0-0.1,0-0.1,0.2c0,0.4,0,0.3-0.2,0.5l0,0.2l0.4,0c0,0.1,0.1,0.1,0.1,0.1
		c0,0,0,0-0.1,0c-0.1,0-0.2,0-0.3,0.1l-0.2,0c-0.1-0.1-0.1-0.2-0.1-0.4c0-0.3,0.1-0.2,0.2-0.3c0-0.2,0-0.2,0-0.3
		c0-0.1,0-0.1,0.1-0.1l0.3-0.3c0.1-0.1,0.1-0.1,0.1-0.3c-0.3,0-0.4,0.2-0.6,0.3c-0.2,0.1-0.4,0.1-0.6,0.1c0,0.2,0,0.2-0.1,0.3
		c-0.1,0,0,0-0.1,0.1c-0.1,0.2-0.3,0.2-0.5,0.3c-0.1,0.1,0,0-0.1,0.1c-0.3,0.1,0,0.2-0.4,0c-0.1,0-0.2,0-0.3,0l-0.2-0.1c0,0,0,0,0,0
		c-0.1,0-0.1-0.1-0.2-0.1c-0.1,0.1-0.2,0.2-0.2,0.3c-0.3,0.7,0.2,0.5-0.1,0.7c-0.1,0.1-0.1,0.2-0.3,0.2c0.1,0.2,0.3,0.2,0.2,0.5
		c0.1,0.1,0,0,0.1,0.1c0,0,0.1,0,0.2,0.1c0,0.1,0.1,0.2,0.1,0.3c0,0.1-0.1,0.2-0.1,0.3c-0.1,0.2-0.1,0.1-0.1,0.2
		c-0.1,0.2,0,0.1-0.1,0.3l0.2,0.3c0.1,0,0.3-0.1,0.4-0.1c0.1,0,0,0,0.1,0c0.2-0.1,0.3,0.2,0.3,0.4c0.1,0,0.1-0.1,0.2-0.1
		c0.1,0,0.1,0,0.2,0c0.1,0,0-0.1,0.3,0c0.2-0.3,0.4-0.3,0.6-0.5c0.1-0.1,0.2-0.1,0.3-0.2c0.3-0.2,0.1-0.3,0.3-0.4l0,0.1l0,0h0.2
		l0,0.1h-0.1c-0.2,0.5-0.4,0.3-0.6,0.5c-0.1,0.1,0,0.1-0.1,0.3c-0.1,0-0.1,0-0.2,0c-0.1,0-0.2,0.2-0.3,0.3c-0.1,0.1-0.1,0.1-0.2,0.1
		c-0.1,0.2-0.2,0.1-0.4,0c-0.4,0.3-0.4,0-0.5-0.2l-0.2,0c-0.1,0-0.1,0.1-0.3,0.1c-0.3,0-0.2-0.2-0.4-0.3c0,0-0.1,0-0.2,0.1
		c-0.1,0.1,0,0-0.2,0.1c-0.2,0.1-0.1,0.2-0.3,0.3c-0.2,0-0.1,0-0.2,0c-0.1,0,0,0.1-0.2,0c-0.1-0.2,0-0.3-0.2-0.4c-0.1,0-0.1,0-0.2,0
		l-0.5-0.3c-0.1-0.1-0.2-0.1-0.2-0.3c-0.2,0-0.1,0-0.2-0.1c-0.1-0.1,0,0-0.2-0.2c-0.2-0.3-0.8,0-1.1,0c-0.3,0-0.3-0.2-0.5-0.2
		c-0.1,0.1-0.2,0.3-0.5,0.1c-0.1,0.2-0.3,0.1-0.4,0.3c0.2,0.2,0.3,0.3,0.1,0.6c0.3,0.2,0.3,0,0.3,0.5c0,0.2,0,0.2-0.1,0.3
		c-0.2,0.3,0.1,0.2-0.2,0.4c-0.1,0-0.1,0.1-0.1,0.1c-0.1,0-0.1,0.1-0.1,0.1c0,0-0.1,0.1-0.1,0.2l-0.2,0.2c-0.1,0,0,0-0.1,0.1
		c-0.2,0.2-0.1,0.1-0.3,0c-0.1,0.1-0.1,0.2-0.2,0.3c0,0,0,0-0.1,0c-0.1,0-0.1,0.1-0.2,0.2c0.1,0.1,0.3-0.1,0.2,0.2
		c0.3,0,0.1,0,0.3,0.1c0.1,0.1,0.2,0,0.3,0.1c0.1,0.2,0.2,0.5,0.2,0.5c0.1,0.2,0.4,0.1,0.4,0.4c0,0.1,0,0,0,0.1c0,0.1,0,0.1,0,0.1
		c-0.1,0.1-0.1,0-0.1,0.3c0.1,0,0.1,0.1,0.2,0.1c0.1,0,0-0.1,0.3-0.2c0.1,0,0.1-0.2,0.3-0.1c0-0.1,0.1-0.2,0.1-0.3s0-0.2,0-0.3
		c0.1-0.3,0.3-0.2,0.4,0c0.2-0.1,0.1-0.1,0.3-0.1c0.1,0,0.2-0.1,0.2-0.2c-0.1-0.4,0-0.4,0.3-0.4l0.2-0.1c0-0.1,0-0.1,0-0.3
		c0.1-0.1,0.1,0,0.2,0c0.1,0,0.3-0.1,0.4-0.2c0,0,0.1-0.1,0.2-0.1c0.1-0.1,0.3,0,0.4,0c0.1,0,0.2,0.2,0.2,0.4c0.1,0,0.4,0.1,0.5,0.2
		c0.1,0.1,0,0.1,0.2,0.1c0.2,0,0.3-0.1,0.4,0c0.1,0,0.1,0.1,0.2,0.1c0.1,0.1,0.1,0.1,0.1,0.2c0.1-0.3,0.3-0.3,0.5-0.1
		c0,0.2,0,0.2-0.1,0.3l0.1,0.1c0.1,0,0.1-0.1,0.3-0.1c0.3,0,0.1,0.4,0.2,0.5c0,0.1,0.1,0.2,0.1,0.3c0.2-0.1,0.1-0.3,0.4-0.4
		c0.2,0,0.3-0.2,0.4-0.3s0.1-0.3,0.3-0.4c0.2-0.1,0.3,0.2,0.4,0.3c0.5-0.2,0.4,0,0.7,0.2c0.1,0,0.1,0.1,0.2,0.1
		c0.1,0,0.1,0.1,0.2,0.2c0.1,0.2,0.3,0.1,0.5,0.2c0,0,0,0,0.1,0.1c0,0,0,0,0.1,0.1c0.2-0.2,0-0.2,0.4-0.2c0.1,0,0.1,0,0.3,0
		c0.1,0,0.1,0.1,0.2,0.1c0.5-0.4,0.4-0.2,0.6-0.3c0.2-0.1,0.1-0.2,0.2-0.3l0.1-0.1c0.1-0.1,0-0.1,0.2-0.1c0-0.2,0-0.2,0.1-0.2
		c-0.2-0.2-0.1-0.5,0.2-0.5c0.2,0,0.1,0,0.3,0c0.1,0,0.1,0,0.2,0l0-0.1c-0.1-0.1-0.1-0.1-0.1-0.3c0-0.4,0.1-0.3,0.2-0.4
		c0,0,0,0,0.1-0.1c0.1-0.1,0.2-0.1,0.3-0.1c0.2,0,0.2,0,0.3-0.1c0.1-0.1,0.1-0.1,0.2-0.2c0-0.2,0-0.1-0.1-0.3c0-0.2,0-0.2,0-0.3
		c-0.1,0-0.1,0-0.1-0.2c0-0.3,0.1-0.2,0-0.4c0,0,0-0.1-0.1-0.1c-0.1,0.1-0.1,0.1-0.2,0.1l-0.5,0.2c-0.1,0.1-0.1,0-0.3,0.1
		c-0.2,0.1-0.3-0.1-0.5,0c-0.1,0-0.1,0.1-0.2,0.1c-0.1,0-0.1-0.1-0.3,0c-0.1,0.1,0,0.2-0.2,0.3c-0.1,0-0.1,0-0.2,0
		c0,0-0.1,0.1-0.2,0.1c0,0.5,0,0.3-0.3,0.5c-0.2,0.1-0.2,0-0.5,0.3c-0.1,0.1-0.2,0.1-0.3,0l-0.1-0.1c0,0-0.3-0.3-0.3-0.3
		c0-0.1,0.1-0.2,0-0.4c-0.2-0.1-0.3,0.1-0.5-0.1c-0.1-0.1,0-0.1,0-0.2c0.1-0.1,0.2-0.1,0.2-0.2c0.1-0.1,0.1-0.1,0.1-0.2h0l0,0v0
		c0,0,0,0,0.1,0c0,0,0,0,0-0.1l0,0l0.2,0h0c0-0.1,0-0.1-0.1-0.1h-0.1l0,0l0-0.3l0,0c0.1-0.1,0.2-0.2,0.3-0.2c0,0.1,0,0.2,0,0.3
		c-0.1,0-0.1,0.1-0.1,0.1c0,0.2,0.2,0.2,0.1,0.4c0,0.1,0,0.1-0.1,0.2l-0.1,0.2c0.1,0,0.1,0,0.2,0.1l0.1,0.1c0.1,0.1,0,0.4,0.2,0.6
		c0.1,0.1,0.1,0.1,0.2,0.2c0.1-0.1,0.2-0.1,0.3-0.2c0.1-0.1,0.3-0.1,0.4-0.2c0.1-0.2,0.1-0.3,0.2-0.5l0-0.1c0.1-0.1,0.2-0.1,0.3,0
		c0-0.1,0-0.2,0.1-0.3c0,0,0.1,0,0.2,0l0.1,0l1.2,0l0,0v0l0,0c0,0-0.1,0-0.2,0c0,0,0.1-0.1,0.1-0.1c0.1,0,0.1,0,0.2,0
		c0.1,0,0.1-0.1,0.3-0.1c0.2,0,0-0.1,0.3-0.1c0-0.2,0.1-0.4,0.2-0.4c0.2-0.1,0.2,0,0.4-0.2c0-0.1,0,0-0.1-0.1
		c-0.2,0-0.2,0.1-0.3-0.1c-0.4-0.3-0.4,0.1-0.6-0.2c0,0,0,0-0.1,0l0-0.1v0c0,0-0.1,0-0.1,0.1c0,0,0,0-0.1,0c0.1-0.1,0.1-0.2,0.1-0.3
		l0.2,0.1h0l0,0l-0.1-0.3h0c-0.1,0.1-0.2,0.2-0.2,0.3c0-0.1,0-0.1,0-0.2c0,0,0-0.1,0-0.1c0,0,0.1,0,0.1,0c0-0.1,0-0.1,0-0.1l0.1,0v0
		l-0.1-0.1c0,0,0,0-0.1,0c0-0.2,0-0.2,0.2-0.2c0.1-0.2,0.3-0.3,0.4-0.3c0-0.2,0-0.2,0.1-0.3l0.3,0l0-0.2c-0.1,0-0.2,0-0.3,0
		c-0.1,0-0.2-0.1-0.3-0.1c-0.1,0-0.8,0.2-1,0c-0.1-0.1,0-0.1-0.3-0.1c-0.2,0-0.2,0-0.3-0.1c0,0-0.1-0.1-0.1-0.1l-0.1-0.2
		c-0.2,0,0,0-0.2,0.1c-0.1,0.1-0.1,0-0.2,0.2l0.2,0.2c0.1,0.1,0.1,0.3-0.1,0.4c-0.1,0,0,0-0.1,0c0,0.2,0.3,0.3,0,0.5
		c-0.2,0.1-0.1,0.3-0.4,0.3c0,0-0.1-0.1-0.2-0.1h0v0c0,0,0.1,0.1,0.1,0.1c0,0-0.1,0.1-0.1,0.1c-0.3,0-0.2-0.4-0.2-0.4
		c0,0,0-0.1,0-0.1c0-0.1,0,0-0.1-0.1c-0.1,0-0.1,0-0.1,0v0c-0.1,0-0.1-0.1-0.1-0.1c-0.2,0-0.2,0-0.2-0.1c0,0,0-0.1,0-0.1
		c0.2-0.1,0.1-0.1,0.3,0.1c0.1-0.1,0.2-0.1,0.3,0c0.2,0.1,0.1,0.1,0.3,0.3l0,0.2c0.2,0,0.1,0.1,0.2-0.1c0.1-0.2,0,0,0.2-0.2
		c-0.1-0.1-0.2-0.1-0.1-0.3c0-0.2,0-0.2,0.2-0.3c-0.2-0.2-0.1-0.5,0.1-0.6c0.2-0.1,0-0.1,0.3-0.2c0.4-0.1,0.3-0.1,0.4,0.3
		c0.4,0,0.3-0.2,0.5,0c0.2,0.2,0.2,0.2,0.5,0.1c0.3,0,0.3-0.1,0.6,0l0.6,0.1c0-0.1-0.1-0.3-0.1-0.4c0-0.1,0.1-0.4,0.1-0.5
		c-0.1-0.1-0.2-0.1-0.1-0.3c0-0.1,0-0.1,0.1-0.1c0.2,2.8,2.7,5.1,5.7,5.1c3.1,0,5.7-2.5,5.7-5.5s-2.6-5.5-5.7-5.5
		c-3.1,0-5.7,2.5-5.7,5.5c0,0.1,0,0.2,0,0.3c-0.3,0-0.3,0-0.3-0.3c-0.4-0.1-0.1-0.2-0.1-0.5c0-0.3,0.1-0.4,0.2-0.6h0l0.1-0.1
		c0,0,0,0,0,0v0l-0.1-0.1l0,0c0,0,0,0,0,0v0l0,0l-0.3-0.1l0,0c-0.2,0-0.3-0.1-0.4-0.1l-0.1,0c0,0,0,0-0.1,0c-0.1,0-0.1,0-0.2,0v0h0
		l-0.3,0.1h-0.1c0,0-0.1,0-0.1,0v0l-0.3,0l-0.1,0v0l-0.2,0c-0.1,0-0.1-0.1-0.3,0c-0.3,0.1-0.7,0.1-0.9-0.2c-0.2-0.3-0.3-0.1-0.5-0.1
		c-0.1,0-0.2,0-0.3-0.1c-0.1-0.1-0.1-0.1-0.2-0.2l-0.8,0.2C161,34.9,161,34.7,160.9,34.9z M164.8,41.6c0.1,0,0.2,0,0.3,0
		C164.9,41.6,164.8,41.6,164.8,41.6c-0.1,0-0.1,0-0.2,0C164.6,41.6,164.6,41.6,164.8,41.6z M162.6,40.6c0,0,0.1,0,0.1,0
		c0.1,0,0,0,0,0.1c0,0.1,0.1,0.2,0,0.3c0,0.1-0.1,0.1-0.2,0.1V40.6z M172.4,31.5c2.8,0,5.2,2.2,5.2,5s-2.3,5-5.2,5
		c-2.8,0-5.2-2.2-5.2-5S169.6,31.5,172.4,31.5z M161.9,39.2L161.9,39.2L161.9,39.2L161.9,39.2z M162,40.5c0,0-0.1,0-0.2,0l-0.3,0h0
		l0,0c0,0,0.1,0,0.2,0c0.1-0.1,0.2-0.2,0.4-0.2V40.5z M162,39.3L162,39.3C162,39.3,162,39.3,162,39.3c0-0.1,0-0.1,0-0.1h0v0
		C162.1,39.2,162,39.2,162,39.3z M162.5,40.8l-0.2-0.1c-0.1,0-0.1-0.1-0.1-0.1c0,0,0-0.1,0-0.3c0,0,0,0,0.1,0c0,0.1,0.1,0.2,0.2,0.2
		h0.1c0,0,0.1,0,0.1,0C162.5,40.6,162.5,40.7,162.5,40.8z M162.4,39.2c-0.1,0.1-0.1,0.1-0.2,0.1c0,0,0,0-0.1,0l0,0
		c0,0,0-0.1,0.1-0.1l0,0l0,0c0,0,0,0-0.1,0v0h0C162.3,39.2,162.4,39.2,162.4,39.2C162.4,39.2,162.4,39.2,162.4,39.2z"/>
</g>
</svg>
