<?xml version="1.0" encoding="utf-8"?>
<!-- Generator: Adobe Illustrator 20.1.0, SVG Export Plug-In . SVG Version: 6.00 Build 0)  -->
<svg version="1.2" baseProfile="tiny" id="Camada_1"
	 xmlns="http://www.w3.org/2000/svg" xmlns:xlink="http://www.w3.org/1999/xlink" x="0px" y="0px" viewBox="0 0 54.5 54.5"
	 overflow="scroll" xml:space="preserve">
<g id="XMLID_1_">
	<path fill="#AAA" id="XMLID_352_" d="M27.2,4.5C14.8,4.5,4.6,14.7,4.6,27.2c0,12.5,10.2,22.6,22.6,22.6c12.5,0,22.6-10.2,22.6-22.6
		C49.9,14.7,39.7,4.5,27.2,4.5z M27.2,38.5C21,38.5,16,33.4,16,27.2C16,21,21,15.9,27.2,15.9c6.2,0,11.3,5.1,11.3,11.3
		C38.5,33.4,33.5,38.5,27.2,38.5z"/>
	<path fill="#AAA" id="XMLID_342_" d="M27.2,0C12.2,0,0,12.2,0,27.2s12.2,27.2,27.2,27.2c15,0,27.2-12.2,27.2-27.2S42.3,0,27.2,0z M27.2,50.8
		c-13,0-23.7-10.6-23.7-23.7S14.2,3.5,27.2,3.5c13,0,23.7,10.6,23.7,23.7S40.3,50.8,27.2,50.8z"/>
</g>
</svg>
