<?xml version="1.0" encoding="utf-8"?>
<!-- Generator: Adobe Illustrator 20.1.0, SVG Export Plug-In . SVG Version: 6.00 Build 0)  -->
<svg version="1.2" baseProfile="tiny" id="Camada_1"
	 xmlns="http://www.w3.org/2000/svg" xmlns:xlink="http://www.w3.org/1999/xlink" x="0px" y="0px" viewBox="0 0 200 100"
	 overflow="scroll" xml:space="preserve">
<g>
	<path fill-rule="evenodd" fill="#FFFFFF" d="M74.2,9v41.6C74.7,63.7,86.8,70,96.6,76l3.3,2c6.2-3.7,12.7-7.2,18.1-12.1
		c4.3-4,7.1-8.2,7.8-14.1L125.8,9H74.2z M113.2,14.9c0.8-0.7,1.8-1,3.1-1c0.5,0,1,0.1,1.4,0.2s0.9,0.3,1.3,0.5
		c-0.1,0.2-0.2,0.4-0.2,0.6c-0.1,0.2-0.1,0.4-0.2,0.7h-0.1c-0.2-0.4-0.5-0.7-0.9-0.9c-0.3-0.2-0.8-0.3-1.2-0.3
		c-0.7,0-1.3,0.3-1.7,0.8c-0.4,0.6-0.7,1.3-0.7,2.3s0.2,1.7,0.6,2.2c0.4,0.5,1,0.8,1.7,0.8c0.2,0,0.4,0,0.5,0c0.2,0,0.3,0,0.5-0.1
		v-0.3c0-0.4,0-0.8,0-1.1c0-0.4,0-0.8-0.1-1.2c0.2,0,0.4,0,0.5,0c0.2,0,0.3,0,0.5,0s0.3,0,0.5,0c0.2,0,0.3,0,0.5,0
		c0,0.4-0.1,0.7-0.1,1c0,0.3,0,0.5,0,0.7c0,0.1,0,0.3,0,0.5c0,0.2,0,0.5,0,0.9c-0.6,0.2-1.1,0.3-1.7,0.4c-0.5,0.1-1,0.1-1.5,0.1
		c-1.2,0-2.1-0.3-2.8-1c-0.7-0.7-1-1.6-1-2.8C112,16.5,112.4,15.6,113.2,14.9z M102.3,14.9c0.7-0.7,1.7-1,3-1c0.4,0,0.9,0,1.3,0.1
		c0.4,0.1,0.8,0.2,1.2,0.4c-0.1,0.2-0.2,0.4-0.2,0.7c-0.1,0.2-0.1,0.4-0.2,0.6h-0.2c-0.2-0.4-0.4-0.7-0.7-0.9
		c-0.3-0.2-0.7-0.3-1.2-0.3c-0.7,0-1.3,0.3-1.7,0.8c-0.4,0.5-0.6,1.2-0.6,2.1c0,1.1,0.2,1.9,0.6,2.4c0.4,0.5,1,0.8,1.8,0.8
		c0.5,0,0.9-0.1,1.2-0.2c0.4-0.2,0.6-0.4,0.8-0.7l0.2,0.1c0,0.2-0.1,0.4-0.1,0.6c0,0.2-0.1,0.3-0.1,0.5c-0.3,0.2-0.7,0.3-1,0.4
		c-0.4,0.1-0.8,0.1-1.3,0.1c-1.3,0-2.2-0.3-3-1c-0.7-0.7-1-1.6-1-2.8C101.2,16.5,101.6,15.6,102.3,14.9z M94,14.1h0.6
		c0.2,0,0.5,0,0.9,0c0.3,0,0.8,0,1.3,0c0,0.1,0,0.2,0,0.3v0.4c0,0.1,0,0.2,0,0.3c-0.3,0-0.6,0-0.8-0.1c-0.3,0-0.6,0-0.9,0h-0.4
		c-0.1,0-0.2,0-0.3,0c0,0.2,0,0.4,0,0.7c0,0.2,0,0.5,0,0.9V17c0.3,0,0.6,0,1,0c0.4,0,0.8,0,1.3-0.1c0,0,0,0.1,0,0.2
		c0,0.2,0,0.3,0,0.3c0,0,0,0.1,0,0.3c0,0.1,0,0.2,0,0.2c-0.4,0-0.8-0.1-1.2-0.1c-0.4,0-0.8,0-1.1,0v2c0,0.3,0,0.6,0,0.8
		c0,0.2,0,0.5,0.1,0.7c-0.2,0-0.4,0-0.6,0c-0.2,0-0.3,0-0.4,0c-0.1,0-0.3,0-0.4,0c-0.2,0-0.4,0-0.6,0c0-0.4,0.1-0.8,0.1-1.2
		c0-0.4,0-1,0-1.7v-1.2c0-0.8,0-1.4,0-1.9c0-0.5-0.1-0.9-0.1-1.3C93.2,14,93.7,14,94,14.1z M81.5,14c0.2,0,0.3,0,0.4,0
		c0.1,0,0.3,0,0.4,0c0.2,0,0.4,0,0.6,0c0,0.5-0.1,1.1-0.1,1.6c0,0.6,0,1.2,0,1.9c0,1.2,0.1,2,0.4,2.3c0.3,0.4,0.7,0.6,1.3,0.6
		c0.3,0,0.6-0.1,0.9-0.2s0.5-0.3,0.6-0.6c0.1-0.2,0.2-0.5,0.3-0.8c0-0.3,0.1-0.9,0.1-1.6c0-0.6,0-1.2,0-1.7c0-0.5,0-1.1-0.1-1.5
		c0.2,0,0.3,0,0.4,0c0.1,0,0.2,0,0.2,0c0.1,0,0.1,0,0.2,0c0.1,0,0.2,0,0.4,0c0,0.5,0,0.9-0.1,1.3c0,0.4,0,0.7,0,1v1.6
		c0,0.7-0.1,1.3-0.2,1.7c-0.1,0.4-0.3,0.7-0.5,1c-0.3,0.3-0.6,0.5-1,0.7c-0.4,0.1-0.9,0.2-1.5,0.2c-0.6,0-1.2-0.1-1.6-0.3
		c-0.5-0.2-0.8-0.4-1-0.8c-0.2-0.2-0.3-0.6-0.4-0.9c-0.1-0.4-0.1-1-0.1-1.8v-1.3c0-0.5,0-0.9,0-1.3c0-0.4,0-0.7-0.1-1.1
		C81.1,14,81.3,14,81.5,14z M123.2,51.6c-0.4,3.5-1.8,6.5-3.8,9.1c-3.7,4.9-9.6,8.4-14.9,11.6c-0.8,0.5-1.6,1-2.3,1.4l-1.9,1.1
		l-0.4,0.2l-0.1-0.1L98,73.9c-0.8-0.5-1.6-0.9-2.4-1.4c-5.1-3-10.9-6.5-14.7-11.3c-2.4-3-4-6.4-4.2-10.6V25.1h46.6L123.2,51.6z"/>
	<path fill="#FFFFFF" d="M118.7,59.8c-3.6,4.8-9.4,8.3-14.7,11.5c-0.8,0.5-1.6,0.9-2.4,1.4l-1.7,1l-1.4-0.9c-0.8-0.5-1.6-1-2.4-1.4
		c-5.7-3.4-11.9-7.1-15.4-12.4l7.8-5.7l0.4-0.3l0.1,0c0.7-0.4,1.2-0.8,1.5-1.1l0,0l0.1-0.1c3.7-2.8,5.2-4.3,8.6-4.4h0.3
		c3.5,0,4.9,1.6,8.6,4.4l0.6,0.5L118.7,59.8L118.7,59.8z"/>
	<path fill="#FFFFFF" d="M122.1,26.2l0,25.3c-0.4,3.2-1.6,5.8-3.3,8.2l-9.7-8.8c-0.6-0.6-1.2-1.2-1.9-1.7c1.4,0,2.4-0.8,5.4-0.1
		c-2.4-1.6-5.3-1-6.5-2.3c2.6-0.2,2.5-1.7,6.5-2.3c-2.8-0.7-5.3,0.8-6.9,0.1c2.4-1.1,1.8-2.5,5.3-4.4c-2.8,0.3-4.7,2.6-6.4,2.4
		c1.9-1.8,0.8-2.9,3.5-5.9c-2.6,1.2-3.6,4.1-5.2,4.5c1.1-2.3-0.2-3,1.3-6.8c-2,2-2,5.1-3.4,6c0.3-2.6-1.3-2.8-1.1-6.8
		c-1.2,2.6-0.1,5.4-1.1,6.8c-0.6-2.5-2.1-2.2-3.4-6c-0.2,2.9,1.8,5.1,1.3,6.8c-1.4-2.1-2.7-1.3-5.2-4.5c0.8,2.8,3.4,4.2,3.5,5.9
		c-2.1-1.5-3-0.3-6.4-2.4c1.6,2.3,4.6,2.8,5.3,4.4c-2.5-0.7-2.9,0.7-6.9-0.1c2.4,1.6,5.3,1,6.5,2.3c-2.6,0.2-2.5,1.7-6.5,2.3
		c2,0.5,3.8-0.1,5.3-0.3c-0.8,0.7-1.6,1.4-2.3,2.1L80.7,59c-1.7-2.5-2.7-5.3-2.8-8.5V26.2H122.1z"/>
	<path fill-rule="evenodd" fill="#FFFFFF" d="M141.4,67.9l-6-0.6l1.2-6.3c-0.5,0.3-12,9.8-12,9.9l2.1,3.5c-6.2,4-15.9,6.6-26.6,6.6
		c-10.8,0-20.4-2.6-26.6-6.6l-1.8,3c0,0,0,0,0,0c0.1,0.1,0.2,0.2,0.3,0.3c0.1,0.1,0.2,0.2,0.2,0.4c-0.1,0-0.2,0.1-0.3,0.2
		c-0.1,0.1-0.2,0.1-0.3,0.2l0,0c0.1-0.2,0.1-0.3,0.1-0.5c0-0.1-0.1-0.2-0.2-0.3c0,0,0,0-0.1,0c-0.1-0.1-0.2-0.2-0.4-0.2
		c-0.1,0-0.2,0-0.3,0.1c-0.1,0.1-0.1,0.2,0,0.5c0,0.1,0.1,0.2,0.1,0.3c0,0.1,0,0.1,0.1,0.2c0.1,0.3,0.2,0.6,0.2,0.8
		c0,0.2-0.1,0.3-0.2,0.5c-0.2,0.3-0.5,0.4-0.8,0.4c-0.3,0-0.6-0.2-0.9-0.4c-0.1-0.1-0.2-0.2-0.3-0.3c-0.1-0.1-0.2-0.2-0.2-0.3
		c0.1-0.1,0.2-0.1,0.3-0.2c0.1-0.1,0.2-0.2,0.4-0.3l0.1,0c-0.1,0.2-0.1,0.3-0.1,0.5s0.1,0.3,0.3,0.4c0.1,0.1,0.3,0.2,0.4,0.2
		c0.1,0,0.2,0,0.3-0.2c0.1-0.1,0.1-0.2,0.1-0.3c0-0.1-0.1-0.3-0.2-0.6c-0.2-0.4-0.3-0.6-0.2-0.8c0-0.1,0-0.3,0.2-0.4l-3.6-3
		l-2.8,3.8C69.3,85.7,83.5,91,100,91s30.7-5.3,36.4-12.8l-2.8-3.8L141.4,67.9z M73.8,81.6c-0.1,0.1-0.3,0.2-0.4,0.2
		c-0.2,0.1-0.4,0.1-0.6,0c-0.2,0-0.4-0.1-0.6-0.3c-0.2-0.1-0.4-0.3-0.5-0.5c-0.1-0.2-0.2-0.3-0.2-0.5c0-0.1,0-0.3,0.1-0.4
		c0.1-0.2,0.2-0.4,0.4-0.7l0.2-0.3l0.1-0.1c0.1-0.2,0.2-0.3,0.3-0.5c0.1-0.1,0.2-0.3,0.2-0.4c0.1,0.1,0.2,0.1,0.2,0.2
		c0.1,0,0.1,0.1,0.2,0.1c0,0,0.1,0.1,0.2,0.1c0.1,0,0.1,0.1,0.2,0.1c-0.2,0.2-0.3,0.4-0.4,0.6c-0.2,0.2-0.3,0.4-0.5,0.7
		c-0.3,0.4-0.4,0.8-0.4,0.9c0,0.2,0.1,0.4,0.3,0.5c0.1,0.1,0.3,0.1,0.4,0.1c0.1,0,0.3,0,0.4-0.1c0.1-0.1,0.2-0.1,0.3-0.2
		c0.1-0.1,0.2-0.3,0.4-0.6c0.2-0.2,0.3-0.4,0.4-0.6c0.1-0.2,0.2-0.4,0.3-0.6c0.1,0.1,0.1,0.1,0.1,0.1c0,0,0.1,0,0.1,0.1
		c0,0,0,0,0.1,0c0,0,0.1,0,0.1,0.1c-0.1,0.2-0.2,0.3-0.3,0.4c-0.1,0.1-0.2,0.3-0.3,0.4l-0.4,0.6C74.1,81.3,73.9,81.5,73.8,81.6z
		 M75.8,81.9C75.8,81.9,75.8,81.9,75.8,81.9c-0.1-0.1-0.1-0.1-0.2-0.1l-0.3,0.6c0,0-0.1,0.1-0.1,0.2c0,0.1-0.1,0.3-0.2,0.4
		C75,83,75,82.9,74.9,82.9s-0.1-0.1-0.2-0.1c-0.1,0-0.1,0-0.2-0.1c-0.1,0-0.1-0.1-0.2-0.1c0.1-0.2,0.2-0.4,0.3-0.6
		c0.1-0.2,0.3-0.5,0.4-0.8c0.1-0.3,0.3-0.5,0.4-0.8c0.1-0.2,0.2-0.5,0.3-0.7c0.1,0,0.1,0.1,0.2,0.1c0.1,0,0.1,0.1,0.1,0.1
		c0.1,0,0.2,0.1,0.4,0.2c0.2,0.1,0.3,0.1,0.4,0.2c0.3,0.2,0.6,0.3,0.7,0.5c0.1,0.2,0.1,0.4,0,0.7c-0.2,0.3-0.4,0.5-0.6,0.5
		C76.6,82.1,76.2,82.1,75.8,81.9z M79.4,84.6c-0.1,0-0.1-0.1-0.2-0.1c0,0-0.1,0-0.2-0.1c-0.1,0-0.2-0.1-0.3-0.1c0-0.2,0-0.4-0.1-0.7
		c0-0.3-0.1-0.6-0.2-1l-0.2,0.6c-0.1,0.2-0.1,0.3-0.2,0.4c0,0.1-0.1,0.3-0.1,0.4c-0.1,0-0.2-0.1-0.2-0.1c-0.1,0-0.1-0.1-0.2-0.1
		c0,0-0.1,0-0.2-0.1s-0.1,0-0.2-0.1c0.1-0.2,0.2-0.4,0.3-0.6c0.1-0.2,0.2-0.4,0.3-0.7l0.1-0.2c0.1-0.3,0.3-0.6,0.3-0.8
		c0.1-0.2,0.2-0.5,0.2-0.7c0,0,0,0,0,0c0.1,0.1,0.2,0.1,0.3,0.1c0.1,0,0.2,0.1,0.4,0.1c0.2,0.1,0.4,0.1,0.5,0.2
		c0.3,0.1,0.6,0.3,0.7,0.5c0.1,0.2,0.1,0.4,0,0.7c-0.1,0.2-0.2,0.3-0.4,0.4c-0.2,0.1-0.4,0.1-0.6,0c0,0.3,0.1,0.6,0.2,0.9
		c0.1,0.3,0.1,0.6,0.2,0.9C79.6,84.7,79.4,84.6,79.4,84.6z M82.5,85.6c-0.1,0-0.1,0-0.2,0c-0.1,0-0.1,0-0.2-0.1
		c-0.1,0-0.2,0-0.3-0.1v-0.9c0,0-0.1,0-0.2-0.1c-0.1,0-0.2-0.1-0.3-0.1c0,0-0.1,0-0.2,0c-0.1,0-0.2,0-0.3-0.1
		c-0.1,0.2-0.3,0.4-0.5,0.7l0,0c0,0-0.1,0-0.1-0.1c0,0-0.1,0-0.1,0c0,0-0.1,0-0.1,0c0,0-0.1,0-0.1,0c0.4-0.5,0.8-0.9,1.2-1.4
		c0.4-0.5,0.7-0.9,1.1-1.4c0,0,0,0,0,0c0.1,0,0.2,0.1,0.2,0.1c0,0,0.1,0,0.2,0c0,0,0,0,0.1,0c0,0.6,0,1.2,0.1,1.8
		c0,0.6,0.1,1.1,0.1,1.7C82.7,85.6,82.6,85.6,82.5,85.6z M89.3,85.4c-0.1,0.5-0.3,0.9-0.7,1.2c-0.4,0.2-0.9,0.3-1.4,0.2
		c-0.6-0.1-1-0.3-1.2-0.6c-0.2-0.3-0.3-0.7-0.2-1.2c0.1-0.5,0.3-0.9,0.7-1.1c0.4-0.2,0.9-0.3,1.4-0.2c0.6,0.1,1,0.3,1.2,0.6
		C89.3,84.5,89.4,84.9,89.3,85.4z M93.5,87.5c-0.1,0-0.2,0-0.3-0.1c-0.1,0-0.1,0-0.2,0c0,0-0.1,0-0.2,0c-0.1,0-0.2,0-0.3,0
		c0-0.2,0-0.6,0.1-0.9v-0.1l0-1.1c-0.2,0.3-0.4,0.7-0.6,1s-0.4,0.7-0.6,1c0,0,0,0-0.1,0c0,0-0.1,0-0.1,0c0,0,0,0-0.1,0h-0.1
		c-0.1-0.4-0.2-0.7-0.3-1.1c-0.1-0.3-0.2-0.7-0.4-1.1l-0.3,1.2c0,0.1,0,0.2-0.1,0.4c0,0.1,0,0.3-0.1,0.4c-0.1,0-0.1,0-0.2,0
		c0,0-0.1,0-0.1,0h-0.2c0.1-0.3,0.2-0.6,0.3-0.9c0.1-0.2,0.1-0.5,0.2-0.7l0.4-1.5c0.1,0,0.2,0,0.2,0c0,0,0.1,0,0.1,0
		c0,0,0.1,0,0.1,0c0.1,0,0.1,0,0.2,0c0.1,0.4,0.2,0.8,0.3,1.2c0.1,0.4,0.2,0.7,0.3,1l0.8-1.2c0.1-0.2,0.2-0.3,0.2-0.4
		c0.1-0.1,0.1-0.3,0.2-0.4c0.1,0,0.1,0,0.2,0c0,0,0.1,0,0.1,0c0,0,0.1,0,0.1,0h0.2l0,1.6v0.2C93.5,86.7,93.5,87.2,93.5,87.5z
		 M97.4,85.2c0,0.3-0.1,0.7-0.1,1.3l0,0.2c0,0.2,0,0.4,0,0.6s0,0.3,0,0.4c-0.1,0-0.1,0-0.2,0c0,0-0.1,0-0.1,0h-0.1c0,0-0.1,0-0.2,0
		c-0.3-0.4-0.5-0.7-0.8-1.1c-0.3-0.4-0.6-0.7-0.9-1.1l-0.1,1.3c0,0.1,0,0.2,0,0.3c0,0.1,0,0.3,0,0.5c0,0-0.1,0-0.1,0
		c0,0-0.1,0-0.1,0c0,0,0,0-0.1,0c0,0-0.1,0-0.2,0c0-0.2,0.1-0.5,0.1-0.7s0-0.5,0.1-0.9c0-0.2,0-0.5,0-0.7c0-0.3,0-0.6,0-0.9
		c0.1,0,0.2,0,0.2,0c0,0,0.1,0,0.1,0H95c0,0,0.1,0,0.2,0c0.3,0.4,0.6,0.7,0.8,1.1c0.3,0.4,0.6,0.7,0.9,1l0-0.9c0-0.3,0-0.5,0-0.6
		s0-0.4,0-0.6c0.1,0,0.1,0,0.1,0c0,0,0.1,0,0.1,0h0.1c0.1,0,0.1,0,0.1,0C97.5,84.7,97.4,84.9,97.4,85.2z M100.3,84.6
		c0,0.1,0,0.1,0,0.2c0,0,0,0.1,0,0.1v0.1c-0.1,0-0.3,0-0.4,0c-0.1,0-0.3,0-0.4,0h-0.3c0,0.1,0,0.2,0,0.3v0.6c0.1,0,0.3,0,0.4,0
		c0.2,0,0.4,0,0.6,0c0,0,0,0.1,0,0.1V86c0,0,0,0.1,0,0.1c0,0,0,0.1,0,0.1c-0.2,0-0.3,0-0.5,0c-0.2,0-0.3,0-0.5,0v0.9
		c0,0.1,0,0.2,0,0.3c0.2,0,0.4,0,0.5,0s0.3,0,0.5,0c0,0,0,0.1,0,0.1c0,0,0,0.1,0,0.1c0,0,0,0,0,0.1c0,0,0,0.1,0,0.1
		c-0.4,0-0.6,0-0.8,0h-0.4c-0.1,0-0.3,0-0.4,0c-0.1,0-0.2,0-0.4,0c0-0.2,0-0.3,0.1-0.5c0-0.2,0-0.4,0-0.7v-0.5c0-0.3,0-0.6,0-0.8
		c0-0.2,0-0.4-0.1-0.6c0.3,0,0.5,0,0.7,0h0.3c0.1,0,0.3,0,0.4,0C99.8,84.5,100,84.5,100.3,84.6L100.3,84.6z M102.9,87.4
		c-0.2,0.2-0.6,0.3-1,0.3c-0.2,0-0.3,0-0.5,0c-0.1,0-0.3-0.1-0.4-0.1c0-0.1,0-0.2,0.1-0.3c0-0.1,0-0.3,0.1-0.4h0.1
		c0,0.2,0.1,0.3,0.3,0.4c0.1,0.1,0.3,0.1,0.5,0.1c0.2,0,0.3-0.1,0.4-0.1c0.1-0.1,0.2-0.2,0.2-0.3c0-0.1,0-0.2-0.1-0.3
		s-0.3-0.2-0.5-0.3c-0.4-0.1-0.6-0.3-0.7-0.4c-0.1-0.1-0.2-0.3-0.2-0.5c0-0.3,0.1-0.6,0.3-0.7c0.2-0.2,0.5-0.3,0.9-0.3
		c0.2,0,0.3,0,0.5,0c0.1,0,0.3,0.1,0.4,0.1c0,0.1-0.1,0.2-0.1,0.3c0,0.1-0.1,0.2-0.1,0.3h-0.1c-0.1-0.2-0.2-0.3-0.3-0.4
		c-0.1-0.1-0.2-0.1-0.4-0.1c-0.2,0-0.3,0-0.4,0.1c-0.1,0.1-0.1,0.2-0.1,0.3c0,0.2,0.2,0.3,0.6,0.5c0.1,0,0.1,0.1,0.2,0.1
		c0.4,0.2,0.6,0.3,0.7,0.4c0.1,0.1,0.2,0.3,0.2,0.5C103.2,87,103.1,87.2,102.9,87.4z M107.5,87.3c-0.2,0-0.3,0-0.4,0
		c-0.1,0-0.2,0-0.4,0s-0.2,0-0.4,0.1c0-0.2,0-0.4,0-0.5c0-0.2,0-0.4-0.1-0.7l0-0.3l0-0.2c0-0.3-0.1-0.6-0.1-0.8
		c0-0.2-0.1-0.4-0.1-0.6c0,0,0.1,0,0.2,0c0.1,0,0.2,0,0.2,0c0.1,0,0.2,0,0.4,0c0,0,0.1,0,0.1,0c0,0.2,0,0.3,0,0.5c0,0.1,0,0.3,0,0.5
		l0,0.1l0.1,1.1c0,0.2,0,0.3,0,0.4s0,0.2,0,0.2c0.2,0,0.4-0.1,0.5-0.1c0.2,0,0.3-0.1,0.5-0.1c0,0,0,0.1,0,0.1V87c0,0,0,0.1,0,0.1
		c0,0,0,0.1,0,0.1C107.9,87.3,107.6,87.3,107.5,87.3z M111.4,86.4c-0.1,0.2-0.2,0.3-0.4,0.4c-0.2,0.1-0.4,0.2-0.6,0.2
		c-0.3,0-0.5,0-0.7,0c-0.2-0.1-0.4-0.1-0.5-0.3c-0.1-0.1-0.2-0.2-0.2-0.4c-0.1-0.2-0.1-0.4-0.2-0.8l-0.1-0.4l0-0.2
		c0-0.2-0.1-0.4-0.1-0.5c0-0.2-0.1-0.3-0.1-0.5c0.1,0,0.2,0,0.3,0c0.1,0,0.1,0,0.2,0s0.1,0,0.2,0c0.1,0,0.2,0,0.3-0.1
		c0,0.2,0,0.5,0.1,0.7c0,0.2,0.1,0.5,0.1,0.8c0.1,0.5,0.2,0.8,0.3,1c0.1,0.1,0.3,0.2,0.6,0.2c0.2,0,0.3-0.1,0.4-0.2
		c0.1-0.1,0.2-0.2,0.2-0.3c0-0.1,0.1-0.2,0.1-0.4c0-0.2,0-0.4-0.1-0.7c0-0.3-0.1-0.5-0.1-0.7c0-0.2-0.1-0.5-0.2-0.7
		c0.1,0,0.1,0,0.2,0c0,0,0.1,0,0.1,0c0,0,0.1,0,0.1,0c0,0,0.1,0,0.2,0c0,0.2,0,0.4,0,0.6c0,0.2,0,0.3,0.1,0.4l0.1,0.7
		c0,0.3,0.1,0.5,0,0.7C111.5,86.1,111.4,86.3,111.4,86.4z M114.8,86c-0.1,0-0.2,0-0.2,0c0,0-0.2,0-0.4,0.1l0,0
		c0-0.1-0.1-0.2-0.1-0.2c0-0.1-0.1-0.1-0.1-0.1l-0.5-0.6c-0.1,0.2-0.2,0.4-0.2,0.6c-0.1,0.2-0.1,0.4-0.2,0.6c-0.1,0-0.2,0-0.2,0
		c0,0-0.1,0-0.1,0c0,0-0.1,0-0.1,0c0,0-0.1,0-0.1,0.1l0.1-0.2c0.2-0.4,0.3-0.6,0.3-0.7l0.3-0.7l-1.3-1.4c0.1,0,0.2,0,0.3-0.1
		c0.1,0,0.1,0,0.2,0c0.1,0,0.1,0,0.2,0c0.1,0,0.2,0,0.3-0.1c0.1,0.1,0.1,0.2,0.2,0.2s0.1,0.1,0.1,0.1l0.4,0.5
		c0.1-0.2,0.1-0.4,0.2-0.5c0-0.2,0.1-0.4,0.2-0.6c0.1,0,0.1,0,0.2,0c0,0,0.1,0,0.1,0c0,0,0.1,0,0.1,0c0,0,0.1,0,0.2-0.1
		c-0.1,0.2-0.2,0.4-0.3,0.6c-0.1,0.3-0.2,0.6-0.4,0.9l1.4,1.5C115,85.9,114.9,85.9,114.8,86z M119,84.9c-0.2,0.1-0.3,0.1-0.4,0.1
		c-0.1,0-0.2,0.1-0.3,0.1c-0.1,0-0.2,0.1-0.3,0.1c0-0.2-0.1-0.3-0.1-0.5c0-0.2-0.1-0.4-0.2-0.7l-0.1-0.3l-0.1-0.2
		c-0.1-0.3-0.2-0.6-0.3-0.8s-0.1-0.4-0.2-0.5c0.1,0,0.1,0,0.2-0.1c0.1,0,0.2-0.1,0.2-0.1c0.1,0,0.2-0.1,0.4-0.1c0,0,0,0,0.1,0
		c0,0.1,0.1,0.3,0.1,0.4c0,0.1,0.1,0.3,0.1,0.5l0,0.1l0.3,1c0.1,0.2,0.1,0.3,0.1,0.4c0,0.1,0,0.1,0.1,0.2c0.2-0.1,0.3-0.1,0.5-0.2
		c0.2-0.1,0.3-0.1,0.5-0.2c0,0,0,0.1,0,0.1c0,0,0,0.1,0,0.1c0,0,0,0.1,0,0.1c0,0,0,0.1,0,0.1C119.4,84.8,119.1,84.9,119,84.9z
		 M122.5,83.2c-0.1,0.2-0.2,0.3-0.3,0.4c-0.1,0.1-0.3,0.3-0.6,0.3c-0.3,0.1-0.5,0.2-0.7,0.2c-0.2,0-0.4,0-0.5-0.1
		c-0.1-0.1-0.2-0.2-0.3-0.3c-0.1-0.1-0.2-0.4-0.4-0.7l-0.1-0.4l-0.1-0.1c-0.1-0.2-0.2-0.4-0.2-0.5c-0.1-0.2-0.1-0.3-0.2-0.4
		c0.1,0,0.2-0.1,0.3-0.1c0.1,0,0.1,0,0.2-0.1s0.1,0,0.2-0.1c0.1,0,0.1-0.1,0.3-0.1c0.1,0.2,0.1,0.4,0.2,0.7c0.1,0.2,0.2,0.5,0.3,0.8
		c0.2,0.5,0.4,0.8,0.5,0.9c0.2,0.1,0.4,0.1,0.6,0c0.1-0.1,0.3-0.1,0.3-0.2c0.1-0.1,0.1-0.2,0.2-0.3c0-0.1,0-0.2,0-0.4
		c0-0.1-0.1-0.4-0.2-0.6c-0.1-0.3-0.2-0.5-0.3-0.7c-0.1-0.2-0.2-0.4-0.3-0.6c0.1,0,0.1,0,0.2-0.1c0,0,0.1,0,0.1,0c0,0,0.1,0,0.1,0
		c0,0,0.1,0,0.1-0.1c0.1,0.2,0.1,0.4,0.2,0.5c0,0.2,0.1,0.3,0.2,0.4l0.3,0.6c0.1,0.3,0.2,0.5,0.2,0.7
		C122.6,82.9,122.6,83,122.5,83.2z M125.8,82.2c-0.1,0.1-0.3,0.2-0.5,0.3c-0.5,0.3-1,0.3-1.4,0.2c-0.4-0.1-0.8-0.4-1-0.9
		c-0.3-0.4-0.3-0.9-0.1-1.3c0.2-0.4,0.5-0.8,1-1c0.2-0.1,0.3-0.2,0.5-0.2s0.4-0.1,0.6-0.1c0,0.1,0,0.2,0.1,0.3c0,0.1,0,0.2,0.1,0.3
		l-0.1,0c-0.1-0.1-0.3-0.2-0.5-0.2c-0.2,0-0.3,0-0.5,0.1c-0.3,0.2-0.5,0.4-0.5,0.7c-0.1,0.3,0,0.6,0.2,0.9c0.2,0.4,0.5,0.7,0.8,0.8
		c0.3,0.1,0.6,0.1,0.9-0.1c0.2-0.1,0.3-0.2,0.4-0.3c0.1-0.1,0.2-0.3,0.2-0.4h0.1c0,0.1,0,0.2,0.1,0.2c0,0.1,0,0.2,0.1,0.2
		C126,82,125.9,82.1,125.8,82.2z M128.4,80.6c-0.1,0.1-0.3,0.2-0.3,0.2c-0.1,0.1-0.2,0.1-0.3,0.2c-0.1,0.1-0.2,0.1-0.3,0.2
		c-0.1-0.2-0.2-0.3-0.3-0.5c-0.1-0.2-0.2-0.4-0.4-0.6l-0.2-0.3l-0.1-0.2c-0.2-0.3-0.4-0.5-0.5-0.7c-0.1-0.2-0.3-0.3-0.4-0.4
		c0.3-0.2,0.4-0.3,0.5-0.4c0.1-0.1,0.2-0.1,0.2-0.1c0.1-0.1,0.2-0.2,0.3-0.2c0.1-0.1,0.3-0.2,0.5-0.4c0,0,0,0,0,0.1
		c0,0.1,0.1,0.1,0.1,0.1c0,0,0,0.1,0.1,0.1l0,0c-0.1,0.1-0.2,0.1-0.3,0.2c-0.1,0.1-0.2,0.1-0.3,0.2c-0.1,0.1-0.1,0.1-0.2,0.1
		c0,0-0.1,0.1-0.1,0.1c0.1,0.1,0.1,0.2,0.2,0.3s0.1,0.2,0.2,0.3l0.1,0.2c0.1-0.1,0.2-0.2,0.4-0.3c0.1-0.1,0.3-0.2,0.5-0.4
		c0,0,0,0.1,0.1,0.1c0,0,0,0.1,0,0.1c0,0,0,0,0.1,0.1c0,0,0,0.1,0.1,0.1c-0.2,0.1-0.3,0.2-0.5,0.3c-0.1,0.1-0.3,0.2-0.4,0.3l0.3,0.4
		c0.1,0.1,0.2,0.2,0.2,0.3c0.1,0.1,0.1,0.1,0.2,0.2c0.1-0.1,0.3-0.2,0.4-0.3c0.1-0.1,0.3-0.2,0.4-0.3c0,0,0,0.1,0,0.1
		c0,0,0,0.1,0.1,0.1c0,0,0,0,0.1,0.1c0,0,0,0.1,0.1,0.1C128.8,80.4,128.6,80.5,128.4,80.6z M130.6,77.1c0.2,0,0.3,0.1,0.5,0.2
		c0.2,0.2,0.3,0.5,0.3,0.8c0,0.3-0.2,0.6-0.5,0.9c-0.1,0.1-0.2,0.2-0.4,0.3c-0.1,0.1-0.2,0.2-0.4,0.2c-0.1-0.1-0.1-0.2-0.2-0.3
		c-0.1-0.1-0.2-0.2-0.3-0.4l0.1-0.1c0.2,0.1,0.3,0.2,0.5,0.1c0.2,0,0.3-0.1,0.4-0.2c0.1-0.1,0.2-0.3,0.2-0.4c0-0.1,0-0.3-0.1-0.3
		c-0.1-0.1-0.2-0.1-0.3-0.1c-0.1,0-0.3,0.1-0.6,0.2c-0.4,0.2-0.7,0.2-0.8,0.2c-0.1,0-0.1,0-0.2,0l0,0l0,0c-0.1,0-0.2-0.1-0.3-0.2
		c-0.2-0.2-0.3-0.5-0.3-0.7c0,0,0-0.1,0-0.1c0-0.2,0.2-0.5,0.4-0.7c0.1-0.1,0.2-0.2,0.4-0.3c0.1-0.1,0.3-0.1,0.4-0.2
		c0,0.1,0.1,0.2,0.1,0.3c0.1,0.1,0.1,0.2,0.2,0.3l0,0c-0.2-0.1-0.3-0.1-0.5-0.1c-0.1,0-0.3,0.1-0.4,0.2c-0.1,0.1-0.2,0.2-0.2,0.3
		c0,0.1,0,0.2,0.1,0.3c0.1,0.1,0.4,0.1,0.8-0.1c0.1,0,0.1-0.1,0.2-0.1c0.2-0.1,0.4-0.1,0.5-0.2C130.4,77.1,130.5,77.1,130.6,77.1z"
		/>
	<path fill-rule="evenodd" fill="#FFFFFF" d="M75.4,70.8l-2.1,3.5l-1.8,3c-0.3-0.2-0.5-0.3-0.8-0.3c-0.3,0-0.5,0.1-0.7,0.3
		c0,0,0,0.1,0,0.1l-3.6-3l-7.8-6.5l6-0.6l-1.2-6.3C63.9,61.2,75.4,70.8,75.4,70.8z"/>
	<path fill-rule="evenodd" fill="#FFFFFF" d="M76.8,81.2c-0.1,0.2-0.2,0.3-0.4,0.4c-0.1,0.1-0.3,0-0.5-0.1l0.3-0.6l0.1-0.2
		c0,0,0-0.1,0-0.1c0,0,0-0.1,0.1-0.1c0,0,0.1,0,0.1,0s0,0,0.1,0c0.2,0.1,0.3,0.2,0.3,0.3C76.9,80.9,76.8,81.1,76.8,81.2z"/>
	<path fill-rule="evenodd" fill="#FFFFFF" d="M79.5,82.2c-0.1,0.2-0.2,0.3-0.3,0.4c-0.1,0-0.3,0-0.6-0.1h0l0.3-0.6
		c0-0.1,0.1-0.2,0.1-0.3c0-0.1,0.1-0.1,0.1-0.2c0,0,0,0,0.1,0c0,0,0,0,0,0c0.2,0.1,0.3,0.2,0.4,0.3C79.6,81.9,79.6,82,79.5,82.2z"/>
	<path fill-rule="evenodd" fill="#FFFFFF" d="M81.9,84.1L81.9,84.1c-0.2,0-0.3-0.1-0.4-0.1c-0.1,0-0.2-0.1-0.3-0.1c0,0,0,0,0,0
		c0.1-0.1,0.2-0.3,0.3-0.4c0.1-0.1,0.2-0.3,0.4-0.4c0,0.2,0,0.4,0.1,0.5C81.9,83.8,81.9,83.9,81.9,84.1z"/>
	<path fill-rule="evenodd" fill="#FFFFFF" d="M88.4,85.3c-0.1,0.4-0.2,0.7-0.5,0.9c-0.2,0.2-0.5,0.3-0.8,0.2
		c-0.3-0.1-0.5-0.2-0.6-0.5s-0.1-0.6-0.1-1c0.1-0.4,0.2-0.7,0.4-0.9c0.2-0.2,0.5-0.3,0.8-0.2c0.3,0,0.5,0.2,0.6,0.5
		C88.5,84.5,88.5,84.9,88.4,85.3z"/>
</g>
</svg>
