<?xml version="1.0" encoding="utf-8"?>
<!-- Generator: Adobe Illustrator 20.1.0, SVG Export Plug-In . SVG Version: 6.00 Build 0)  -->
<svg version="1.1" id="Camada_1" xmlns="http://www.w3.org/2000/svg" xmlns:xlink="http://www.w3.org/1999/xlink" x="0px" y="0px"
	 viewBox="0 0 3118.1 850.4" style="enable-background:new 0 0 3118.1 850.4;" xml:space="preserve">
<style type="text/css">
	.st0{fill:#9D9D9C;}
</style>
<g>
	<g>
		<g>
			<path class="st0" d="M1346.2,87v343.1c4.1,108,103.9,160,184.8,209.5l27.2,16.5c51.1-30.5,104.8-59.4,149.3-99.8
				c35.5-33,58.6-67.6,64.3-116.3V87H1346.2z M1667.9,135.7c6.6-5.8,14.8-8.2,25.6-8.2c4.1,0,8.2,0.8,11.5,1.6
				c3.3,0.8,7.4,2.5,10.7,4.1c-0.8,1.6-1.6,3.3-1.6,4.9c-0.8,1.6-0.8,3.3-1.6,5.8h-0.8c-1.6-3.3-4.1-5.8-7.4-7.4
				c-2.5-1.6-6.6-2.5-9.9-2.5c-5.8,0-10.7,2.5-14,6.6c-3.3,4.9-5.8,10.7-5.8,19c0,8.2,1.6,14,4.9,18.1c3.3,4.1,8.2,6.6,14,6.6
				c1.6,0,3.3,0,4.1,0c1.6,0,2.5,0,4.1-0.8v-2.5c0-3.3,0-6.6,0-9.1c0-3.3,0-6.6-0.8-9.9c1.6,0,3.3,0,4.1,0c1.6,0,2.5,0,4.1,0
				c1.6,0,2.5,0,4.1,0c1.6,0,2.5,0,4.1,0c0,3.3-0.8,5.8-0.8,8.2s0,4.1,0,5.8c0,0.8,0,2.5,0,4.1c0,1.6,0,4.1,0,7.4
				c-4.9,1.6-9.1,2.5-14,3.3c-4.1,0.8-8.2,0.8-12.4,0.8c-9.9,0-17.3-2.5-23.1-8.2s-8.2-13.2-8.2-23.1
				C1658,148.9,1661.3,141.5,1667.9,135.7z M1578,135.7c5.8-5.8,14-8.2,24.7-8.2c3.3,0,7.4,0,10.7,0.8c3.3,0.8,6.6,1.6,9.9,3.3
				c-0.8,1.6-1.6,3.3-1.6,5.8c-0.8,1.6-0.8,3.3-1.6,4.9h-1.6c-1.6-3.3-3.3-5.8-5.8-7.4c-2.5-1.6-5.8-2.5-9.9-2.5
				c-5.8,0-10.7,2.5-14,6.6c-3.3,4.1-4.9,9.9-4.9,17.3c0,9.1,1.6,15.7,4.9,19.8c3.3,4.1,8.2,6.6,14.8,6.6c4.1,0,7.4-0.8,9.9-1.6
				c3.3-1.6,4.9-3.3,6.6-5.8l1.6,0.8c0,1.6-0.8,3.3-0.8,4.9c0,1.6-0.8,2.5-0.8,4.1c-2.5,1.6-5.8,2.5-8.2,3.3
				c-3.3,0.8-6.6,0.8-10.7,0.8c-10.7,0-18.1-2.5-24.7-8.2c-5.8-5.8-8.2-13.2-8.2-23.1C1568.9,148.9,1572.2,141.5,1578,135.7z
				 M1509.6,129.1h4.9c1.6,0,4.1,0,7.4,0c2.5,0,6.6,0,10.7,0c0,0.8,0,1.6,0,2.5v3.3c0,0.8,0,1.6,0,2.5c-2.5,0-4.9,0-6.6-0.8
				c-2.5,0-4.9,0-7.4,0h-3.3c-0.8,0-1.6,0-2.5,0c0,1.6,0,3.3,0,5.8c0,1.6,0,4.1,0,7.4v3.3c2.5,0,4.9,0,8.2,0c3.3,0,6.6,0,10.7-0.8
				c0,0,0,0.8,0,1.6c0,1.6,0,2.5,0,2.5s0,0.8,0,2.5c0,0.8,0,1.6,0,1.6c-3.3,0-6.6-0.8-9.9-0.8c-3.3,0-6.6,0-9.1,0v16.5
				c0,2.5,0,4.9,0,6.6c0,1.6,0,4.1,0.8,5.8c-1.6,0-3.3,0-4.9,0c-1.6,0-2.5,0-3.3,0s-2.5,0-3.3,0c-1.6,0-3.3,0-4.9,0
				c0-3.3,0.8-6.6,0.8-9.9s0-8.2,0-14v-9.9c0-6.6,0-11.5,0-15.7c0-4.1-0.8-7.4-0.8-10.7C1503,128.3,1507.1,128.3,1509.6,129.1z
				 M1406.5,128.3c1.6,0,2.5,0,3.3,0s2.5,0,3.3,0c1.6,0,3.3,0,4.9,0c0,4.1-0.8,9.1-0.8,13.2c0,4.9,0,9.9,0,15.7
				c0,9.9,0.8,16.5,3.3,19c2.5,3.3,5.8,4.9,10.7,4.9c2.5,0,4.9-0.8,7.4-1.6c2.5-0.8,4.1-2.5,4.9-4.9c0.8-1.6,1.6-4.1,2.5-6.6
				c0-2.5,0.8-7.4,0.8-13.2c0-4.9,0-9.9,0-14c0-4.1,0-9.1-0.8-12.4c1.6,0,2.5,0,3.3,0s1.6,0,1.6,0c0.8,0,0.8,0,1.6,0
				c0.8,0,1.6,0,3.3,0c0,4.1,0,7.4-0.8,10.7c0,3.3,0,5.8,0,8.2v13.2c0,5.8-0.8,10.7-1.6,14c-0.8,3.3-2.5,5.8-4.1,8.2
				c-2.5,2.5-4.9,4.1-8.2,5.8c-3.3,0.8-7.4,1.6-12.4,1.6s-9.9-0.8-13.2-2.5c-4.1-1.6-6.6-3.3-8.2-6.6c-1.6-1.6-2.5-4.9-3.3-7.4
				c-0.8-3.3-0.8-8.2-0.8-14.8v-10.7c0-4.1,0-7.4,0-10.7c0-3.3,0-5.8-0.8-9.1C1403.2,128.3,1404.8,128.3,1406.5,128.3z
				 M1750.4,438.4c-3.3,28.9-14.8,53.6-31.3,75.1c-30.5,40.4-79.2,69.3-122.9,95.7c-6.6,4.1-13.2,8.2-19,11.5l-15.7,9.1l-3.3,1.6
				l-0.8-0.8l-14.8-8.2c-6.6-4.1-13.2-7.4-19.8-11.5c-42.1-24.7-89.9-53.6-121.2-93.2c-19.8-24.7-33-52.8-34.6-87.4V219.8h384.4
				L1750.4,438.4z"/>
			<path class="st0" d="M1713.3,506c-29.7,39.6-77.5,68.5-121.2,94.9c-6.6,4.1-13.2,7.4-19.8,11.5l-14,8.2l-11.5-7.4
				c-6.6-4.1-13.2-8.2-19.8-11.5c-47-28-98.2-58.6-127-102.3l64.3-47l3.3-2.5h0.8c5.8-3.3,9.9-6.6,12.4-9.1l0,0l0.8-0.8
				c30.5-23.1,42.9-35.5,70.9-36.3h2.5c28.9,0,40.4,13.2,70.9,36.3l4.9,4.1L1713.3,506L1713.3,506z"/>
			<path class="st0" d="M1741.3,228.9v208.7c-3.3,26.4-13.2,47.8-27.2,67.6l-80-72.6c-4.9-4.9-9.9-9.9-15.7-14
				c11.5,0,19.8-6.6,44.5-0.8c-19.8-13.2-43.7-8.2-53.6-19c21.4-1.6,20.6-14,53.6-19c-23.1-5.8-43.7,6.6-56.9,0.8
				c19.8-9.1,14.8-20.6,43.7-36.3c-23.1,2.5-38.8,21.4-52.8,19.8c15.7-14.8,6.6-23.9,28.9-48.7c-21.4,9.9-29.7,33.8-42.9,37.1
				c9.1-19-1.6-24.7,10.7-56.1c-16.5,16.5-16.5,42.1-28,49.5c2.5-21.4-10.7-23.1-9.1-56.1c-9.9,21.4-0.8,44.5-9.1,56.1
				c-4.9-20.6-17.3-18.1-28-49.5c-1.6,23.9,14.8,42.1,10.7,56.1c-11.5-17.3-22.3-10.7-42.9-37.1c6.6,23.1,28,34.6,28.9,48.7
				c-17.3-12.4-24.7-2.5-52.8-19.8c13.2,19,37.9,23.1,43.7,36.3c-20.6-5.8-23.9,5.8-56.9-0.8c19.8,13.2,43.7,8.2,53.6,19
				c-21.4,1.6-20.6,14-53.6,19c16.5,4.1,31.3-0.8,43.7-2.5c-6.6,5.8-13.2,11.5-19,17.3l-75.1,66.8c-14-20.6-22.3-43.7-23.1-70.1
				V228.9H1741.3z"/>
			<path class="st0" d="M1900.5,572.8l-49.5-4.9l9.9-52c-4.1,2.5-99,80.8-99,81.7l17.3,28.9c-51.1,33-131.1,54.4-219.4,54.4
				c-89.1,0-168.3-21.4-219.4-54.4l-14.8,24.7l0,0c0.8,0.8,1.6,1.6,2.5,2.5c0.8,0.8,1.6,1.6,1.6,3.3c-0.8,0-1.6,0.8-2.5,1.6
				c-0.8,0.8-1.6,0.8-2.5,1.6l0,0c0.8-1.6,0.8-2.5,0.8-4.1c0-0.8-0.8-1.6-1.6-2.5c0,0,0,0-0.8,0c-0.8-0.8-1.6-1.6-3.3-1.6
				c-0.8,0-1.6,0-2.5,0.8c-0.8,0.8-0.8,1.6,0,4.1c0,0.8,0.8,1.6,0.8,2.5c0,0.8,0,0.8,0.8,1.6c0.8,2.5,1.6,4.9,1.6,6.6
				c0,1.6-0.8,2.5-1.6,4.1c-1.6,2.5-4.1,3.3-6.6,3.3c-2.5,0-4.9-1.6-7.4-3.3c-0.8-0.8-1.6-1.6-2.5-2.5s-1.6-1.6-1.6-2.5
				c0.8-0.8,1.6-0.8,2.5-1.6c0.8-0.8,1.6-1.6,3.3-2.5h0.8c-0.8,1.6-0.8,2.5-0.8,4.1s0.8,2.5,2.5,3.3c0.8,0.8,2.5,1.6,3.3,1.6
				s1.6,0,2.5-1.6c0.8-0.8,0.8-1.6,0.8-2.5s-0.8-2.5-1.6-4.9c-1.6-3.3-2.5-4.9-1.6-6.6c0-0.8,0-2.5,1.6-3.3l-29.7-24.7l-23.1,31.3
				c44.5,60.2,161.7,103.9,297.8,103.9s253.2-43.7,300.2-105.6l-23.1-31.3L1900.5,572.8z M1343,685.8c-0.8,0.8-2.5,1.6-3.3,1.6
				c-1.6,0.8-3.3,0.8-4.9,0c-1.6,0-3.3-0.8-4.9-2.5c-1.6-0.8-3.3-2.5-4.1-4.1s-1.6-2.5-1.6-4.1c0-0.8,0-2.5,0.8-3.3
				c0.8-1.6,1.6-3.3,3.3-5.8l1.6-2.5l0.8-0.8c0.8-1.6,1.6-2.5,2.5-4.1c0.8-0.8,1.6-2.5,1.6-3.3c0.8,0.8,1.6,0.8,1.6,1.6
				c0.8,0,0.8,0.8,1.6,0.8c0,0,0.8,0.8,1.6,0.8c0.8,0,0.8,0.8,1.6,0.8c-1.6,1.6-2.5,3.3-3.3,4.9c-1.6,1.6-2.5,3.3-4.1,5.8
				c-2.5,3.3-3.3,6.6-3.3,7.4c0,1.6,0.8,3.3,2.5,4.1c0.8,0.8,2.5,0.8,3.3,0.8s2.5,0,3.3-0.8c0.8-0.8,1.6-0.8,2.5-1.6
				c0.8-0.8,1.6-2.5,3.3-4.9c1.6-1.6,2.5-3.3,3.3-4.9s1.6-3.3,2.5-4.9c0.8,0.8,0.8,0.8,0.8,0.8s0.8,0,0.8,0.8c0,0,0,0,0.8,0
				c0,0,0.8,0,0.8,0.8c-0.8,1.6-1.6,2.5-2.5,3.3c-0.8,0.8-1.6,2.5-2.5,3.3l-3.3,4.9C1345.4,683.4,1343.8,685,1343,685.8z
				 M1359.4,688.3L1359.4,688.3c-0.8-0.8-0.8-0.8-1.6-0.8l-2.5,4.9c0,0-0.8,0.8-0.8,1.6c0,0.8-0.8,2.5-1.6,3.3c0,0,0-0.8-0.8-0.8
				c-0.8,0-0.8-0.8-1.6-0.8s-0.8,0-1.6-0.8c-0.8,0-0.8-0.8-1.6-0.8c0.8-1.6,1.6-3.3,2.5-4.9c0.8-1.6,2.5-4.1,3.3-6.6
				c0.8-2.5,2.5-4.1,3.3-6.6c0.8-1.6,1.6-4.1,2.5-5.8c0.8,0,0.8,0.8,1.6,0.8s0.8,0.8,0.8,0.8c0.8,0,1.6,0.8,3.3,1.6
				c1.6,0.8,2.5,0.8,3.3,1.6c2.5,1.6,4.9,2.5,5.8,4.1s0.8,3.3,0,5.8c-1.6,2.5-3.3,4.1-4.9,4.1C1366,690,1362.7,690,1359.4,688.3z
				 M1389.1,710.6c-0.8,0-0.8-0.8-1.6-0.8c0,0-0.8,0-1.6-0.8c-0.8,0-1.6-0.8-2.5-0.8c0-1.6,0-3.3-0.8-5.8c0-2.5-0.8-4.9-1.6-8.2
				l-1.6,4.9c-0.8,1.6-0.8,2.5-1.6,3.3c0,0.8-0.8,2.5-0.8,3.3c-0.8,0-1.6-0.8-1.6-0.8c-0.8,0-0.8-0.8-1.6-0.8c0,0-0.8,0-1.6-0.8
				s-0.8,0-1.6-0.8c0.8-1.6,1.6-3.3,2.5-4.9s1.6-3.3,2.5-5.8l0.8-1.6c0.8-2.5,2.5-4.9,2.5-6.6c0.8-1.6,1.6-4.1,1.6-5.8l0,0
				c0.8,0.8,1.6,0.8,2.5,0.8c0.8,0,1.6,0.8,3.3,0.8c1.6,0.8,3.3,0.8,4.1,1.6c2.5,0.8,4.9,2.5,5.8,4.1s0.8,3.3,0,5.8
				c-0.8,1.6-1.6,2.5-3.3,3.3c-1.6,0.8-3.3,0.8-4.9,0c0,2.5,0.8,4.9,1.6,7.4s0.8,4.9,1.6,7.4
				C1390.8,711.4,1389.1,710.6,1389.1,710.6z M1414.7,718.8c-0.8,0-0.8,0-1.6,0c-0.8,0-0.8,0-1.6-0.8c-0.8,0-1.6,0-2.5-0.8v-7.4
				c0,0-0.8,0-1.6-0.8c-0.8,0-1.6-0.8-2.5-0.8c0,0-0.8,0-1.6,0c-0.8,0-1.6,0-2.5-0.8c-0.8,1.6-2.5,3.3-4.1,5.8l0,0
				c0,0-0.8,0-0.8-0.8h-0.8h-0.8h-0.8c3.3-4.1,6.6-7.4,9.9-11.5c3.3-4.1,5.8-7.4,9.1-11.5l0,0c0.8,0,1.6,0.8,1.6,0.8s0.8,0,1.6,0
				c0,0,0,0,0.8,0c0,4.9,0,9.9,0.8,14.8c0,4.9,0.8,9.1,0.8,14C1416.4,718.8,1415.5,718.8,1414.7,718.8z M1470.8,717.2
				c-0.8,4.1-2.5,7.4-5.8,9.9c-3.3,1.6-7.4,2.5-11.5,1.6c-4.9-0.8-8.2-2.5-9.9-4.9c-1.6-2.5-2.5-5.8-1.6-9.9s2.5-7.4,5.8-9.1
				s7.4-2.5,11.5-1.6c4.9,0.8,8.2,2.5,9.9,4.9C1470.8,709.8,1471.6,713.1,1470.8,717.2z M1505.4,734.5c-0.8,0-1.6,0-2.5-0.8
				c-0.8,0-0.8,0-1.6,0c0,0-0.8,0-1.6,0s-1.6,0-2.5,0c0-1.6,0-4.9,0.8-7.4v-0.8v-9.1c-1.6,2.5-3.3,5.8-4.9,8.2
				c-1.6,2.5-3.3,5.8-4.9,8.2c0,0,0,0-0.8,0h-0.8c0,0,0,0-0.8,0h-0.8c-0.8-3.3-1.6-5.8-2.5-9.1c-0.8-2.5-1.6-5.8-3.3-9.1l-2.5,9.9
				c0,0.8,0,1.6-0.8,3.3c0,0.8,0,2.5-0.8,3.3c-0.8,0-0.8,0-1.6,0h-0.8h-1.6c0.8-2.5,1.6-4.9,2.5-7.4c0.8-1.6,0.8-4.1,1.6-5.8
				l3.3-12.4c0.8,0,1.6,0,1.6,0h0.8h0.8c0.8,0,0.8,0,1.6,0c0.8,3.3,1.6,6.6,2.5,9.9c0.8,3.3,1.6,5.8,2.5,8.2l6.6-9.9
				c0.8-1.6,1.6-2.5,1.6-3.3c0.8-0.8,0.8-2.5,1.6-3.3c0.8,0,0.8,0,1.6,0h0.8h0.8h1.6v13.2v1.6C1505.4,727.9,1505.4,732,1505.4,734.5
				z M1537.6,715.5c0,2.5-0.8,5.8-0.8,10.7v1.6c0,1.6,0,3.3,0,4.9s0,2.5,0,3.3c-0.8,0-0.8,0-1.6,0h-0.8h-0.8c0,0-0.8,0-1.6,0
				c-2.5-3.3-4.1-5.8-6.6-9.1c-2.5-3.3-4.9-5.8-7.4-9.1l-0.8,10.7c0,0.8,0,1.6,0,2.5c0,0.8,0,2.5,0,4.1h-0.8h-0.8c0,0,0,0-0.8,0
				c0,0-0.8,0-1.6,0c0-1.6,0.8-4.1,0.8-5.8s0-4.1,0.8-7.4c0-1.6,0-4.1,0-5.8c0-2.5,0-4.9,0-7.4c0.8,0,1.6,0,1.6,0h0.8h0.8
				c0,0,0.8,0,1.6,0c2.5,3.3,4.9,5.8,6.6,9.1c2.5,3.3,4.9,5.8,7.4,8.2v-7.4c0-2.5,0-4.1,0-4.9c0-0.8,0-3.3,0-4.9c0.8,0,0.8,0,0.8,0
				h0.8h0.8c0.8,0,0.8,0,0.8,0C1538.4,711.4,1537.6,713.1,1537.6,715.5z M1561.5,710.6c0,0.8,0,0.8,0,1.6v0.8v0.8
				c-0.8,0-2.5,0-3.3,0c-0.8,0-2.5,0-3.3,0h-2.5c0,0.8,0,1.6,0,2.5v4.9c0.8,0,2.5,0,3.3,0c1.6,0,3.3,0,4.9,0v0.8v0v0.8v0.8
				c-1.6,0-2.5,0-4.1,0c-1.6,0-2.5,0-4.1,0v7.4c0,0.8,0,1.6,0,2.5c1.6,0,3.3,0,4.1,0c0.8,0,2.5,0,4.1,0v0.8v0.8c0,0,0,0,0,0.8v0.8
				c-3.3,0-4.9,0-6.6,0h-3.3c-0.8,0-2.5,0-3.3,0s-1.6,0-3.3,0c0-1.6,0-2.5,0.8-4.1c0-1.6,0-3.3,0-5.8V723c0-2.5,0-4.9,0-6.6
				c0-1.6,0-3.3-0.8-4.9c2.5,0,4.1,0,5.8,0h2.5c0.8,0,2.5,0,3.3,0C1557.4,709.8,1559.1,709.8,1561.5,710.6L1561.5,710.6z
				 M1583,733.7c-1.6,1.6-4.9,2.5-8.2,2.5c-1.6,0-2.5,0-4.1,0c-0.8,0-2.5-0.8-3.3-0.8c0-0.8,0-1.6,0.8-2.5c0-0.8,0-2.5,0.8-3.3h0.8
				c0,1.6,0.8,2.5,2.5,3.3c0.8,0.8,2.5,0.8,4.1,0.8c1.6,0,2.5-0.8,3.3-0.8c0.8-0.8,1.6-1.6,1.6-2.5s0-1.6-0.8-2.5
				c-0.8-0.8-2.5-1.6-4.1-2.5c-3.3-0.8-4.9-2.5-5.8-3.3c-0.8-0.8-1.6-2.5-1.6-4.1c0-2.5,0.8-4.9,2.5-5.8c1.6-1.6,4.1-2.5,7.4-2.5
				c1.6,0,2.5,0,4.1,0c0.8,0,2.5,0.8,3.3,0.8c0,0.8-0.8,1.6-0.8,2.5c0,0.8-0.8,1.6-0.8,2.5h-0.8c-0.8-1.6-1.6-2.5-2.5-3.3
				c-0.8-0.8-1.6-0.8-3.3-0.8c-1.6,0-2.5,0-3.3,0.8c-0.8,0.8-0.8,1.6-0.8,2.5c0,1.6,1.6,2.5,4.9,4.1c0.8,0,0.8,0.8,1.6,0.8
				c3.3,1.6,4.9,2.5,5.8,3.3c0.8,0.8,1.6,2.5,1.6,4.1C1585.4,730.4,1584.6,732,1583,733.7z M1620.9,732.9c-1.6,0-2.5,0-3.3,0
				c-0.8,0-1.6,0-3.3,0s-1.6,0-3.3,0.8c0-1.6,0-3.3,0-4.1c0-1.6,0-3.3-0.8-5.8v-2.5v-1.6c0-2.5-0.8-4.9-0.8-6.6
				c0-1.6-0.8-3.3-0.8-4.9c0,0,0.8,0,1.6,0c0.8,0,1.6,0,1.6,0c0.8,0,1.6,0,3.3,0h0.8c0,1.6,0,2.5,0,4.1c0,0.8,0,2.5,0,4.1v0.8
				l0.8,9.1c0,1.6,0,2.5,0,3.3c0,0.8,0,1.6,0,1.6c1.6,0,3.3-0.8,4.1-0.8c1.6,0,2.5-0.8,4.1-0.8v0.8l0,0v0.8v0.8
				C1624.2,732.9,1621.7,732.9,1620.9,732.9z M1653.1,725.4c-0.8,1.6-1.6,2.5-3.3,3.3c-1.6,0.8-3.3,1.6-4.9,1.6c-2.5,0-4.1,0-5.8,0
				c-1.6-0.8-3.3-0.8-4.1-2.5c-0.8-0.8-1.6-1.6-1.6-3.3c-0.8-1.6-0.8-3.3-1.6-6.6l-0.8-3.3v-1.6c0-1.6-0.8-3.3-0.8-4.1
				c0-1.6-0.8-2.5-0.8-4.1c0.8,0,1.6,0,2.5,0s0.8,0,1.6,0c0.8,0,0.8,0,1.6,0s1.6,0,2.5-0.8c0,1.6,0,4.1,0.8,5.8
				c0,1.6,0.8,4.1,0.8,6.6c0.8,4.1,1.6,6.6,2.5,8.2c0.8,0.8,2.5,1.6,4.9,1.6c1.6,0,2.5-0.8,3.3-1.6c0.8-0.8,1.6-1.6,1.6-2.5
				s0.8-1.6,0.8-3.3c0-1.6,0-3.3-0.8-5.8c0-2.5-0.8-4.1-0.8-5.8s-0.8-4.1-1.6-5.8c0.8,0,0.8,0,1.6,0h0.8h0.8c0,0,0.8,0,1.6,0
				c0,1.6,0,3.3,0,4.9s0,2.5,0.8,3.3l0.8,5.8c0,2.5,0.8,4.1,0,5.8C1653.9,723,1653.1,724.6,1653.1,725.4z M1681.1,722.1
				c-0.8,0-1.6,0-1.6,0s-1.6,0-3.3,0.8l0,0c0-0.8-0.8-1.6-0.8-1.6c0-0.8-0.8-0.8-0.8-0.8l-4.1-4.9c-0.8,1.6-1.6,3.3-1.6,4.9
				c-0.8,1.6-0.8,3.3-1.6,4.9c-0.8,0-1.6,0-1.6,0h-0.8h-0.8c0,0-0.8,0-0.8,0.8l0.8-1.6c1.6-3.3,2.5-4.9,2.5-5.8l2.5-5.8l-10.7-11.5
				c0.8,0,1.6,0,2.5-0.8c0.8,0,0.8,0,1.6,0s0.8,0,1.6,0c0.8,0,1.6,0,2.5-0.8c0.8,0.8,0.8,1.6,1.6,1.6s0.8,0.8,0.8,0.8l3.3,4.1
				c0.8-1.6,0.8-3.3,1.6-4.1c0-1.6,0.8-3.3,1.6-4.9c0.8,0,0.8,0,1.6,0h0.8h0.8c0,0,0.8,0,1.6-0.8c-0.8,1.6-1.6,3.3-2.5,4.9
				c-0.8,2.5-1.6,4.9-3.3,7.4l11.5,12.4C1682.8,721.3,1681.9,721.3,1681.1,722.1z M1715.8,713.1c-1.6,0.8-2.5,0.8-3.3,0.8
				c-0.8,0-1.6,0.8-2.5,0.8s-1.6,0.8-2.5,0.8c0-1.6-0.8-2.5-0.8-4.1s-0.8-3.3-1.6-5.8l-0.8-2.5l-0.8-1.6c-0.8-2.5-1.6-4.9-2.5-6.6
				c-0.8-1.6-0.8-3.3-1.6-4.1c0.8,0,0.8,0,1.6-0.8c0.8,0,1.6-0.8,1.6-0.8c0.8,0,1.6-0.8,3.3-0.8c0,0,0,0,0.8,0
				c0,0.8,0.8,2.5,0.8,3.3c0,0.8,0.8,2.5,0.8,4.1v0.8l2.5,8.2c0.8,1.6,0.8,2.5,0.8,3.3c0,0.8,0,0.8,0.8,1.6c1.6-0.8,2.5-0.8,4.1-1.6
				c1.6-0.8,2.5-0.8,4.1-1.6v0.8v0.8v0.8v0.8C1719.1,712.2,1716.6,713.1,1715.8,713.1z M1744.6,699c-0.8,1.6-1.6,2.5-2.5,3.3
				c-0.8,0.8-2.5,2.5-4.9,2.5c-2.5,0.8-4.1,1.6-5.8,1.6c-1.6,0-3.3,0-4.1-0.8c-0.8-0.8-1.6-1.6-2.5-2.5s-1.6-3.3-3.3-5.8l-0.8-3.3
				l-0.8-0.8c-0.8-1.6-1.6-3.3-1.6-4.1c-0.8-1.6-0.8-2.5-1.6-3.3c0.8,0,1.6-0.8,2.5-0.8s0.8,0,1.6-0.8c0.8-0.8,0.8,0,1.6-0.8
				c0.8,0,0.8-0.8,2.5-0.8c0.8,1.6,0.8,3.3,1.6,5.8c0.8,1.6,1.6,4.1,2.5,6.6c1.6,4.1,3.3,6.6,4.1,7.4c1.6,0.8,3.3,0.8,4.9,0
				c0.8-0.8,2.5-0.8,2.5-1.6c0.8-0.8,0.8-1.6,1.6-2.5c0-0.8,0-1.6,0-3.3c0-0.8-0.8-3.3-1.6-4.9c-0.8-2.5-1.6-4.1-2.5-5.8
				s-1.6-3.3-2.5-4.9c0.8,0,0.8,0,1.6-0.8h0.8h0.8c0,0,0.8,0,0.8-0.8c0.8,1.6,0.8,3.3,1.6,4.1c0,1.6,0.8,2.5,1.6,3.3l2.5,4.9
				c0.8,2.5,1.6,4.1,1.6,5.8C1745.5,696.6,1745.5,697.4,1744.6,699z M1771.9,690.8c-0.8,0.8-2.5,1.6-4.1,2.5
				c-4.1,2.5-8.2,2.5-11.5,1.6c-3.3-0.8-6.6-3.3-8.2-7.4c-2.5-3.3-2.5-7.4-0.8-10.7c1.6-3.3,4.1-6.6,8.2-8.2
				c1.6-0.8,2.5-1.6,4.1-1.6c1.6,0,3.3-0.8,4.9-0.8c0,0.8,0,1.6,0.8,2.5c0,0.8,0,1.6,0.8,2.5h-0.8c-0.8-0.8-2.5-1.6-4.1-1.6
				c-1.6,0-2.5,0-4.1,0.8c-2.5,1.6-4.1,3.3-4.1,5.8c-0.8,2.5,0,4.9,1.6,7.4c1.6,3.3,4.1,5.8,6.6,6.6s4.9,0.8,7.4-0.8
				c1.6-0.8,2.5-1.6,3.3-2.5s1.6-2.5,1.6-3.3h0.8c0,0.8,0,1.6,0.8,1.6c0,0.8,0,1.6,0.8,1.6C1773.5,689.1,1772.7,690,1771.9,690.8z
				 M1793.3,677.6c-0.8,0.8-2.5,1.6-2.5,1.6c-0.8,0.8-1.6,0.8-2.5,1.6c-0.8,0.8-1.6,0.8-2.5,1.6c-0.8-1.6-1.6-2.5-2.5-4.1
				c-0.8-1.6-1.6-3.3-3.3-4.9l-1.6-2.5l-0.8-1.6c-1.6-2.5-3.3-4.1-4.1-5.8c-0.8-1.6-2.5-2.5-3.3-3.3c2.5-1.6,3.3-2.5,4.1-3.3
				c0.8-0.8,1.6-0.8,1.6-0.8c0.8-0.8,1.6-1.6,2.5-1.6c0.8-0.8,2.5-1.6,4.1-3.3c0,0,0,0,0,0.8c0,0.8,0.8,0.8,0.8,0.8s0,0.8,0.8,0.8
				l0,0c-0.8,0.8-1.6,0.8-2.5,1.6c-0.8,0.8-1.6,0.8-2.5,1.6c-0.8,0.8-0.8,0.8-1.6,0.8l-0.8,0.8c0.8,0.8,0.8,1.6,1.6,2.5
				c0.8,0.8,0.8,1.6,1.6,2.5l0.8,1.6c0.8-0.8,1.6-1.6,3.3-2.5c0.8-0.8,2.5-1.6,4.1-3.3c0,0,0,0.8,0.8,0.8v0.8c0,0,0,0,0.8,0.8
				c0,0,0,0.8,0.8,0.8c-1.6,0.8-2.5,1.6-4.1,2.5c-0.8,0.8-2.5,1.6-3.3,2.5l2.5,3.3c0.8,0.8,1.6,1.6,1.6,2.5c0.8,0.8,0.8,0.8,1.6,1.6
				c0.8-0.8,2.5-1.6,3.3-2.5c0.8-0.8,2.5-1.6,3.3-2.5v0.8c0,0,0,0.8,0.8,0.8c0,0,0,0,0.8,0.8c0,0,0,0.8,0.8,0.8
				C1796.6,675.9,1794.9,676.8,1793.3,677.6z M1811.4,648.7c1.6,0,2.5,0.8,4.1,1.6c1.6,1.6,2.5,4.1,2.5,6.6c0,2.5-1.6,4.9-4.1,7.4
				c-0.8,0.8-1.6,1.6-3.3,2.5c-0.8,0.8-1.6,1.6-3.3,1.6c-0.8-0.8-0.8-1.6-1.6-2.5c-0.8-0.8-1.6-1.6-2.5-3.3l0.8-0.8
				c1.6,0.8,2.5,1.6,4.1,0.8c1.6,0,2.5-0.8,3.3-1.6c0.8-0.8,1.6-2.5,1.6-3.3s0-2.5-0.8-2.5c-0.8-0.8-1.6-0.8-2.5-0.8
				s-2.5,0.8-4.9,1.6c-3.3,1.6-5.8,1.6-6.6,1.6c-0.8,0-0.8,0-1.6,0l0,0l0,0c-0.8,0-1.6-0.8-2.5-1.6c-1.6-1.6-2.5-4.1-2.5-5.8v-0.8
				c0-1.6,1.6-4.1,3.3-5.8c0.8-0.8,1.6-1.6,3.3-2.5c0.8-0.8,2.5-0.8,3.3-1.6c0,0.8,0.8,1.6,0.8,2.5c0.8,0.8,0.8,1.6,1.6,2.5l0,0
				c-1.6-0.8-2.5-0.8-4.1-0.8c-0.8,0-2.5,0.8-3.3,1.6c-0.8,0.8-1.6,1.6-1.6,2.5s0,1.6,0.8,2.5c0.8,0.8,3.3,0.8,6.6-0.8
				c0.8,0,0.8-0.8,1.6-0.8c1.6-0.8,3.3-0.8,4.1-1.6C1809.8,648.7,1810.6,648.7,1811.4,648.7z"/>
			<path class="st0" d="M1356.1,596.8l-17.3,28.9l-14.8,24.7c-2.5-1.6-4.1-2.5-6.6-2.5s-4.1,0.8-5.8,2.5v0.8l-29.7-24.7l-64.3-53.6
				l49.5-4.9l-9.9-52C1261.3,517.6,1356.1,596.8,1356.1,596.8z"/>
			<path class="st0" d="M1367.7,682.5c-0.8,1.6-1.6,2.5-3.3,3.3c-0.8,0.8-2.5,0-4.1-0.8l2.5-4.9l0.8-1.6v-0.8c0,0,0-0.8,0.8-0.8h0.8
				c0,0,0,0,0.8,0c1.6,0.8,2.5,1.6,2.5,2.5C1368.5,680.1,1367.7,681.7,1367.7,682.5z"/>
			<path class="st0" d="M1390,690.8c-0.8,1.6-1.6,2.5-2.5,3.3c-0.8,0-2.5,0-4.9-0.8l0,0l2.5-4.9c0-0.8,0.8-1.6,0.8-2.5
				c0-0.8,0.8-0.8,0.8-1.6c0,0,0,0,0.8,0l0,0c1.6,0.8,2.5,1.6,3.3,2.5C1390.8,688.3,1390.8,689.1,1390,690.8z"/>
			<path class="st0" d="M1409.8,706.5L1409.8,706.5c-1.6,0-2.5-0.8-3.3-0.8c-0.8,0-1.6-0.8-2.5-0.8l0,0c0.8-0.8,1.6-2.5,2.5-3.3
				c0.8-0.8,1.6-2.5,3.3-3.3c0,1.6,0,3.3,0.8,4.1C1409.8,704,1409.8,704.8,1409.8,706.5z"/>
			<path class="st0" d="M1463.4,716.4c-0.8,3.3-1.6,5.8-4.1,7.4c-1.6,1.6-4.1,2.5-6.6,1.6s-4.1-1.6-4.9-4.1
				c-0.8-2.5-0.8-4.9-0.8-8.2c0.8-3.3,1.6-5.8,3.3-7.4c1.6-1.6,4.1-2.5,6.6-1.6c2.5,0,4.1,1.6,4.9,4.1
				C1464.2,709.8,1464.2,713.1,1463.4,716.4z"/>
		</g>
	</g>
</g>
</svg>
